*
*
G04 PADS 9.5 Build Number: 522968 generated Gerber (RS-274-X) file*
G04 PC Version=2.1*
*
%IN "opqbox2.pcb"*%
*
%MOIN*%
*
%FSLAX35Y35*%
*
*
*
*
G04 PC Standard Apertures*
*
*
G04 Thermal Relief Aperture macro.*
%AMTER*
1,1,$1,0,0*
1,0,$1-$2,0,0*
21,0,$3,$4,0,0,45*
21,0,$3,$4,0,0,135*
%
*
*
G04 Annular Aperture macro.*
%AMANN*
1,1,$1,0,0*
1,0,$2,0,0*
%
*
*
G04 Odd Aperture macro.*
%AMODD*
1,1,$1,0,0*
1,0,$1-0.005,0,0*
%
*
*
G04 PC Custom Aperture Macros*
*
*
*
*
*
*
G04 PC Aperture Table*
*
%ADD010C,0.001*%
%ADD013C,0.01*%
%ADD133R,0.062X0.062*%
%ADD134C,0.062*%
%ADD153R,0.032X0.04*%
%ADD154R,0.04X0.032*%
%ADD159C,0.08074*%
%ADD179R,0.04137X0.08074*%
*
*
*
*
G04 PC Circuitry*
G04 Layer Name opqbox2.pcb - circuitry*
%LPD*%
*
*
G04 PC Custom Flashes*
G04 Layer Name opqbox2.pcb - flashes*
%LPD*%
*
*
G04 PC Circuitry*
G04 Layer Name opqbox2.pcb - circuitry*
%LPD*%
*
G54D10*
G54D13*
G01X100000Y100000D02*
Y493701D01*
X493701*
Y100000*
X100000*
G54D133*
X229921Y221614D03*
G54D134*
Y231614D03*
X219921D03*
Y221614D03*
X209921Y231614D03*
Y221614D03*
X199921Y231614D03*
Y221614D03*
X189921Y231614D03*
Y221614D03*
X179921Y231614D03*
Y221614D03*
X169921Y231614D03*
Y221614D03*
X159921Y231614D03*
Y221614D03*
X149921Y231614D03*
Y221614D03*
X139921Y231614D03*
Y221614D03*
X129921Y231614D03*
Y221614D03*
X119921Y231614D03*
Y221614D03*
X109921Y231614D03*
Y221614D03*
X145000Y474606D03*
Y484606D03*
X155000Y474606D03*
Y484606D03*
X165000Y474606D03*
Y484606D03*
X175000Y474606D03*
Y484606D03*
X185000Y474606D03*
Y484606D03*
X195000Y474606D03*
Y484606D03*
X205000Y474606D03*
Y484606D03*
X215000Y474606D03*
Y484606D03*
X225000Y474606D03*
Y484606D03*
X235000Y474606D03*
Y484606D03*
X401181Y287008D03*
X444341Y328687D03*
X379528Y347047D03*
Y287047D03*
G54D153*
X191142Y402530D03*
Y408730D03*
X215000Y463100D03*
Y456900D03*
X209252Y409202D03*
Y403002D03*
X318110Y320935D03*
Y314735D03*
X321457Y253691D03*
Y247491D03*
X343898Y251034D03*
Y257234D03*
G54D154*
X210777Y419803D03*
X204577D03*
X156152Y336890D03*
X162352D03*
G54D159*
X434646Y454331D03*
Y474331D03*
X362795Y387402D03*
X392323Y397244D03*
X355906Y454331D03*
Y474331D03*
X434646Y419882D03*
Y400197D03*
X391339Y112795D03*
Y155118D03*
X239764Y144291D03*
Y112795D03*
X197441Y174803D03*
Y194488D03*
G54D179*
X107087Y326772D03*
X114961D03*
X122835D03*
X130709D03*
X138583D03*
X146457D03*
X154331D03*
X162205D03*
Y263780D03*
X154331D03*
X146457D03*
X138583D03*
X130709D03*
X122835D03*
X114961D03*
X107087D03*
X0Y0D02*
M02*
