*
*
G04 PADS 9.5 Build Number: 522968 generated Gerber (RS-274-X) file*
G04 PC Version=2.1*
*
%IN "opqbox2.pcb"*%
*
%MOIN*%
*
%FSLAX35Y35*%
*
*
*
*
G04 PC Standard Apertures*
*
*
G04 Thermal Relief Aperture macro.*
%AMTER*
1,1,$1,0,0*
1,0,$1-$2,0,0*
21,0,$3,$4,0,0,45*
21,0,$3,$4,0,0,135*
%
*
*
G04 Annular Aperture macro.*
%AMANN*
1,1,$1,0,0*
1,0,$2,0,0*
%
*
*
G04 Odd Aperture macro.*
%AMODD*
1,1,$1,0,0*
1,0,$1-0.005,0,0*
%
*
*
G04 PC Custom Aperture Macros*
*
*
*
*
*
*
G04 PC Aperture Table*
*
%ADD010C,0.001*%
%ADD226R,0.062X0.062*%
%ADD235C,0.062*%
%ADD271R,0.032X0.04*%
%ADD273R,0.04X0.032*%
%ADD280C,0.07287*%
%ADD298C,0.06893*%
%ADD299C,0.06499*%
%ADD300C,0.12011*%
%ADD313R,0.038X0.038*%
%ADD314R,0.038X0.052*%
%ADD315R,0.052X0.038*%
*
*
*
*
G04 PC Circuitry*
G04 Layer Name opqbox2.pcb - circuitry*
%LPD*%
*
*
G04 PC Custom Flashes*
G04 Layer Name opqbox2.pcb - flashes*
%LPD*%
*
*
G04 PC Circuitry*
G04 Layer Name opqbox2.pcb - circuitry*
%LPD*%
*
G54D10*
G54D226*
G01X567323Y288976D03*
X527343Y311050D03*
G54D235*
X611811Y338583D03*
Y398583D03*
X584252Y397638D03*
Y337638D03*
X556693Y338583D03*
Y398583D03*
X567323Y248976D03*
X721654Y300787D03*
X661654D03*
X602451Y238717D03*
Y298717D03*
X644882Y261417D03*
X490551Y349213D03*
Y289213D03*
X116604Y303744D03*
X106604D03*
X116604Y313744D03*
X106604D03*
X116604Y323744D03*
X106604D03*
X116604Y333744D03*
X106604D03*
X116604Y343744D03*
X106604D03*
X116604Y353744D03*
X106604D03*
X116604Y363744D03*
X106604D03*
X116604Y373744D03*
X106604D03*
X116604Y383744D03*
X106604D03*
X116604Y393744D03*
X106604D03*
X287008Y295669D03*
Y305669D03*
Y315669D03*
Y325669D03*
X110630Y252362D03*
Y262362D03*
Y272362D03*
Y282362D03*
X279134Y368898D03*
Y358898D03*
Y348898D03*
Y338898D03*
X282677Y407087D03*
X292677D03*
X302677D03*
X312677D03*
X127559Y467323D03*
Y457480D03*
Y449606D03*
Y439764D03*
X567343Y311050D03*
G54D271*
X424185Y294383D03*
Y288183D03*
X374409Y295226D03*
Y289026D03*
X240551Y328691D03*
Y322491D03*
X218898Y322884D03*
Y329084D03*
X199213Y337352D03*
Y331152D03*
X192126Y337352D03*
Y331152D03*
X233465Y322491D03*
Y328691D03*
X253150Y350344D03*
Y344144D03*
X260236Y350344D03*
Y344144D03*
G54D273*
X318848Y294488D03*
X312648D03*
X318848Y287402D03*
X312648D03*
X130860Y373737D03*
X137060D03*
X130783Y343756D03*
X136983D03*
X130735Y333723D03*
X136935D03*
X130974Y363727D03*
X137174D03*
X130628Y323818D03*
X136828D03*
X130365Y313771D03*
X136565D03*
X137127Y354267D03*
X130927D03*
X136958Y479134D03*
X130758D03*
X179183Y455906D03*
X185383D03*
X247982Y367323D03*
X241782D03*
G54D280*
X718110Y409055D03*
X707480Y459055D03*
X701575Y484646D03*
G54D298*
X513948Y469492D03*
Y427169D03*
X362373Y437996D03*
Y469492D03*
X455422Y242700D03*
X450000Y328346D03*
X268110Y464567D03*
X326772Y392126D03*
X328346Y328740D03*
X353543Y267717D03*
Y305118D03*
X320866Y350394D03*
G54D299*
X733465Y261417D03*
G54D300*
X798819Y464173D03*
X778819D03*
X779134Y409055D03*
X799134D03*
X115472Y477992D03*
X116890Y427677D03*
G54D313*
X367923Y322084D03*
X360423D03*
X302992Y358064D03*
Y350564D03*
G54D314*
X364173Y330084D03*
G54D315*
X294992Y354314D03*
X0Y0D02*
M02*
