*
*
G04 PADS 9.5 Build Number: 522968 generated Gerber (RS-274-X) file*
G04 PC Version=2.1*
*
%IN "opqbox2.pcb"*%
*
%MOIN*%
*
%FSLAX35Y35*%
*
*
*
*
G04 PC Standard Apertures*
*
*
G04 Thermal Relief Aperture macro.*
%AMTER*
1,1,$1,0,0*
1,0,$1-$2,0,0*
21,0,$3,$4,0,0,45*
21,0,$3,$4,0,0,135*
%
*
*
G04 Annular Aperture macro.*
%AMANN*
1,1,$1,0,0*
1,0,$2,0,0*
%
*
*
G04 Odd Aperture macro.*
%AMODD*
1,1,$1,0,0*
1,0,$1-0.005,0,0*
%
*
*
G04 PC Custom Aperture Macros*
*
*
*
*
*
*
G04 PC Aperture Table*
*
%ADD010C,0.001*%
%ADD013C,0.01*%
*
*
*
*
G04 PC Circuitry*
G04 Layer Name opqbox2.pcb - circuitry*
%LPD*%
*
*
G04 PC Custom Flashes*
G04 Layer Name opqbox2.pcb - flashes*
%LPD*%
*
*
G04 PC Circuitry*
G04 Layer Name opqbox2.pcb - circuitry*
%LPD*%
*
G54D10*
G54D13*
G01X1834420Y1631500D02*
X1654499D01*
Y1531500*
X1834420*
Y1631500*
X1726984Y1440908D02*
Y1446708D01*
X1733984*
Y1440908*
X1726984Y1438508D02*
Y1432708D01*
X1733984*
Y1438508*
X1677209Y1441751D02*
Y1447551D01*
X1684209*
Y1441751*
X1677209Y1439351D02*
Y1433551D01*
X1684209*
Y1439351*
X1623247Y1446413D02*
X1629047D01*
Y1439413*
X1623247*
X1620847Y1446413D02*
X1615047D01*
Y1439413*
X1620847*
X1623247Y1439327D02*
X1629047D01*
Y1432327*
X1623247*
X1620847Y1439327D02*
X1615047D01*
Y1432327*
X1620847*
X1439059Y1518662D02*
X1433259D01*
Y1525662*
X1439059*
X1441459Y1518662D02*
X1447259D01*
Y1525662*
X1441459*
X1543350Y1475216D02*
Y1481016D01*
X1550350*
Y1475216*
X1543350Y1472816D02*
Y1467016D01*
X1550350*
Y1472816*
X1528697Y1473209D02*
Y1467409D01*
X1521697*
Y1473209*
X1528697Y1475609D02*
Y1481409D01*
X1521697*
Y1475609*
X1438982Y1488681D02*
X1433182D01*
Y1495681*
X1438982*
X1441382Y1488681D02*
X1447182D01*
Y1495681*
X1441382*
X1438935Y1478648D02*
X1433135D01*
Y1485648*
X1438935*
X1441335Y1478648D02*
X1447135D01*
Y1485648*
X1441335*
X1439174Y1508652D02*
X1433374D01*
Y1515652*
X1439174*
X1441574Y1508652D02*
X1447374D01*
Y1515652*
X1441574*
X1438827Y1468743D02*
X1433027D01*
Y1475743*
X1438827*
X1441227Y1468743D02*
X1447027D01*
Y1475743*
X1441227*
X1438564Y1458696D02*
X1432764D01*
Y1465696*
X1438564*
X1440964Y1458696D02*
X1446764D01*
Y1465696*
X1440964*
X1441526Y1506192D02*
X1447326D01*
Y1499192*
X1441526*
X1439126Y1506192D02*
X1433326D01*
Y1499192*
X1439126*
X1502012Y1483877D02*
Y1489677D01*
X1509012*
Y1483877*
X1502012Y1481477D02*
Y1475677D01*
X1509012*
Y1481477*
X1494925Y1483877D02*
Y1489677D01*
X1501925*
Y1483877*
X1494925Y1481477D02*
Y1475677D01*
X1501925*
Y1481477*
X1543264Y1472816D02*
Y1467016D01*
X1536264*
Y1472816*
X1543264Y1475216D02*
Y1481016D01*
X1536264*
Y1475216*
X1555949Y1496869D02*
Y1502669D01*
X1562949*
Y1496869*
X1555949Y1494469D02*
Y1488669D01*
X1562949*
Y1494469*
X1563035Y1496869D02*
Y1502669D01*
X1570035*
Y1496869*
X1563035Y1494469D02*
Y1488669D01*
X1570035*
Y1494469*
X1441357Y1631059D02*
X1447157D01*
Y1624059*
X1441357*
X1438957Y1631059D02*
X1433157D01*
Y1624059*
X1438957*
X1673472Y1478409D02*
X1675972D01*
Y1473409*
X1667472Y1478409D02*
X1664972D01*
Y1473409*
X1670972Y1469409D02*
X1669972D01*
X1487383Y1600831D02*
X1481583D01*
Y1607831*
X1487383*
X1489783Y1600831D02*
X1495583D01*
Y1607831*
X1489783*
X1552381Y1519248D02*
X1558181D01*
Y1512248*
X1552381*
X1549981Y1519248D02*
X1544181D01*
Y1512248*
X1549981*
X1601391Y1505739D02*
Y1508239D01*
X1606391*
X1601391Y1499739D02*
Y1497239D01*
X1606391*
X1610391Y1503239D02*
Y1502239D01*
X1741079Y1441614D02*
X1741306Y1442239D01*
X1741761Y1442864*
X1742215Y1443177*
X1743125*
X1743579Y1442864*
X1744034Y1442239*
X1744261Y1441614*
X1744488Y1440677*
Y1439114*
X1744261Y1438177*
X1744034Y1437552*
X1743579Y1436927*
X1743125Y1436614*
X1742215*
X1741761Y1436927*
X1741306Y1437552*
X1741079Y1438177*
X1735852Y1443177D02*
X1738125Y1436614D01*
X1739034Y1443177D02*
X1735852D01*
X1675472Y1437267D02*
X1676097Y1437040D01*
X1676722Y1436586*
X1677035Y1436131*
Y1435222*
X1676722Y1434767*
X1676097Y1434313*
X1675472Y1434086*
X1674535Y1433858*
X1672972*
X1672035Y1434086*
X1671410Y1434313*
X1670785Y1434767*
X1670472Y1435222*
Y1436131*
X1670785Y1436586*
X1671410Y1437040*
X1672035Y1437267*
X1675785Y1439313D02*
X1676097Y1439767D01*
X1677035Y1440449*
X1670472*
X1677035Y1443858D02*
X1676722Y1443176D01*
X1675785Y1442722*
X1674222Y1442495*
X1673285*
X1671722Y1442722*
X1670785Y1443176*
X1670472Y1443858*
Y1444313*
X1670785Y1444995*
X1671722Y1445449*
X1673285Y1445676*
X1674222*
X1675785Y1445449*
X1676722Y1444995*
X1677035Y1444313*
Y1443858*
X1609189Y1446339D02*
X1609417Y1446964D01*
X1609871Y1447589*
X1610326Y1447901*
X1611235*
X1611689Y1447589*
X1612144Y1446964*
X1612371Y1446339*
X1612598Y1445401*
Y1443839*
X1612371Y1442901*
X1612144Y1442276*
X1611689Y1441651*
X1611235Y1441339*
X1610326*
X1609871Y1441651*
X1609417Y1442276*
X1609189Y1442901*
X1607144Y1446651D02*
X1606689Y1446964D01*
X1606008Y1447901*
Y1441339*
X1603962Y1446651D02*
X1603508Y1446964D01*
X1602826Y1447901*
Y1441339*
X1609189Y1437677D02*
X1609417Y1438302D01*
X1609871Y1438927*
X1610326Y1439240*
X1611235*
X1611689Y1438927*
X1612144Y1438302*
X1612371Y1437677*
X1612598Y1436740*
Y1435177*
X1612371Y1434240*
X1612144Y1433615*
X1611689Y1432990*
X1611235Y1432677*
X1610326*
X1609871Y1432990*
X1609417Y1433615*
X1609189Y1434240*
X1607144Y1437990D02*
X1606689Y1438302D01*
X1606008Y1439240*
Y1432677*
X1603735Y1437677D02*
Y1437990D01*
X1603508Y1438615*
X1603280Y1438927*
X1602826Y1439240*
X1601917*
X1601462Y1438927*
X1601235Y1438615*
X1601008Y1437990*
Y1437365*
X1601235Y1436740*
X1601689Y1435802*
X1603962Y1432677*
X1600780*
X1474803Y1524673D02*
Y1518110D01*
Y1524673D02*
X1472758D01*
X1472076Y1524360*
X1471849Y1524048*
X1471621Y1523423*
Y1522798*
X1471849Y1522173*
X1472076Y1521860*
X1472758Y1521548*
X1474803*
X1473212D02*
X1471621Y1518110D01*
X1468440Y1524673D02*
X1469121Y1524360D01*
X1469349Y1523735*
Y1523110*
X1469121Y1522485*
X1468667Y1522173*
X1467758Y1521860*
X1467076Y1521548*
X1466621Y1520923*
X1466394Y1520298*
Y1519360*
X1466621Y1518735*
X1466849Y1518423*
X1467530Y1518110*
X1468440*
X1469121Y1518423*
X1469349Y1518735*
X1469576Y1519360*
Y1520298*
X1469349Y1520923*
X1468894Y1521548*
X1468212Y1521860*
X1467303Y1522173*
X1466849Y1522485*
X1466621Y1523110*
Y1523735*
X1466849Y1524360*
X1467530Y1524673*
X1468440*
X1552874Y1479268D02*
X1552249Y1479495D01*
X1551624Y1479950*
X1551312Y1480404*
Y1481314*
X1551624Y1481768*
X1552249Y1482223*
X1552874Y1482450*
X1553812Y1482677*
X1555374*
X1556312Y1482450*
X1556937Y1482223*
X1557562Y1481768*
X1557874Y1481314*
Y1480404*
X1557562Y1479950*
X1556937Y1479495*
X1556312Y1479268*
X1552562Y1477223D02*
X1552249Y1476768D01*
X1551312Y1476086*
X1557874*
X1551312Y1471768D02*
X1555687Y1474041D01*
Y1470632*
X1551312Y1471768D02*
X1557874D01*
X1514685Y1479662D02*
X1514060Y1479889D01*
X1513435Y1480344*
X1513123Y1480798*
Y1481707*
X1513435Y1482162*
X1514060Y1482616*
X1514685Y1482844*
X1515623Y1483071*
X1517185*
X1518123Y1482844*
X1518748Y1482616*
X1519373Y1482162*
X1519685Y1481707*
Y1480798*
X1519373Y1480344*
X1518748Y1479889*
X1518123Y1479662*
X1514373Y1477616D02*
X1514060Y1477162D01*
X1513123Y1476480*
X1519685*
X1513123Y1471480D02*
Y1473753D01*
X1515935Y1473980*
X1515623Y1473753*
X1515310Y1473071*
Y1472389*
X1515623Y1471707*
X1516248Y1471253*
X1517185Y1471025*
X1517810Y1471253*
X1518748Y1471480*
X1519373Y1471935*
X1519373D02*
X1519685Y1472616D01*
Y1473298*
X1519373Y1473980*
X1519060Y1474207*
X1518435Y1474435*
X1475197Y1493177D02*
Y1486614D01*
Y1493177D02*
X1473151D01*
X1472470Y1492864*
X1472242Y1492552*
X1472015Y1491927*
Y1491302*
X1472242Y1490677*
X1472470Y1490364*
X1473151Y1490052*
X1475197*
X1473606D02*
X1472015Y1486614D01*
X1467015Y1490989D02*
X1467242Y1490052D01*
X1467697Y1489427*
X1468379Y1489114*
X1468606*
X1469288Y1489427*
X1469742Y1490052*
X1469970Y1490989*
Y1491302*
X1469742Y1492239*
X1469288Y1492864*
X1468606Y1493177*
X1468379*
X1467697Y1492864*
X1467242Y1492239*
X1467015Y1490989*
Y1489427*
X1467242Y1487864*
X1467697Y1486927*
X1468379Y1486614*
X1468833*
X1469515Y1486927*
X1469742Y1487552*
X1475591Y1483728D02*
Y1477165D01*
Y1483728D02*
X1473545D01*
X1472863Y1483415*
X1472636Y1483103*
X1472409Y1482478*
Y1481853*
X1472636Y1481228*
X1472863Y1480915*
X1473545Y1480603*
X1475591*
X1474000D02*
X1472409Y1477165D01*
X1470363Y1482478D02*
X1469909Y1482790D01*
X1469227Y1483728*
Y1477165*
X1465818Y1483728D02*
X1466500Y1483415D01*
X1466954Y1482478*
X1467181Y1480915*
Y1479978*
X1466954Y1478415*
X1466500Y1477478*
X1465818Y1477165*
X1465363*
X1464681Y1477478*
X1464227Y1478415*
X1464000Y1479978*
Y1480915*
X1464227Y1482478*
X1464681Y1483415*
X1465363Y1483728*
X1465818*
X1474803Y1515224D02*
Y1508661D01*
Y1515224D02*
X1472758D01*
X1472076Y1514911*
X1471849Y1514599*
X1471621Y1513974*
Y1513349*
X1471849Y1512724*
X1472076Y1512411*
X1472758Y1512099*
X1474803*
X1473212D02*
X1471621Y1508661D01*
X1469576Y1513974D02*
X1469121Y1514286D01*
X1468440Y1515224*
Y1508661*
X1466394Y1513974D02*
X1465940Y1514286D01*
X1465258Y1515224*
Y1508661*
X1475984Y1473492D02*
Y1466929D01*
Y1473492D02*
X1473939D01*
X1473257Y1473179*
X1473030Y1472867*
X1472802Y1472242*
Y1471617*
X1473030Y1470992*
X1473257Y1470679*
X1473939Y1470367*
X1475984*
X1474393D02*
X1472802Y1466929D01*
X1470757Y1472242D02*
X1470302Y1472554D01*
X1469621Y1473492*
Y1466929*
X1467348Y1471929D02*
Y1472242D01*
X1467121Y1472867*
X1466893Y1473179*
X1466439Y1473492*
X1465530*
X1465075Y1473179*
X1464848Y1472867*
X1464621Y1472242*
Y1471617*
X1464848Y1470992*
X1465302Y1470054*
X1467575Y1466929*
X1464393*
X1475984Y1464830D02*
Y1458268D01*
Y1464830D02*
X1473939D01*
X1473257Y1464518*
X1473030Y1464205*
X1472802Y1463580*
Y1462955*
X1473030Y1462330*
X1473257Y1462018*
X1473939Y1461705*
X1475984*
X1474393D02*
X1472802Y1458268D01*
X1470757Y1463580D02*
X1470302Y1463893D01*
X1469621Y1464830*
Y1458268*
X1467121Y1464830D02*
X1464621D01*
X1465984Y1462330*
X1465302*
X1464848Y1462018*
X1464621Y1461705*
X1464393Y1460768*
Y1460143*
X1464621Y1459205*
X1465075Y1458580*
X1465757Y1458268*
X1466439*
X1467121Y1458580*
X1467348Y1458893*
X1467575Y1459518*
X1475197Y1505381D02*
Y1498819D01*
Y1505381D02*
X1473151D01*
X1472470Y1505069*
X1472242Y1504756*
X1472015Y1504131*
Y1503506*
X1472242Y1502881*
X1472470Y1502569*
X1473151Y1502256*
X1475197*
X1473606D02*
X1472015Y1498819D01*
X1469970Y1504131D02*
X1469515Y1504444D01*
X1468833Y1505381*
Y1498819*
X1464060Y1504444D02*
X1464288Y1505069D01*
X1464970Y1505381*
X1465424*
X1466106Y1505069*
X1466560Y1504131*
X1466788Y1502569*
Y1501006*
X1466560Y1499756*
X1466106Y1499131*
X1465424Y1498819*
X1465197*
X1464515Y1499131*
X1464060Y1499756*
X1463833Y1500694*
Y1501006*
X1464060Y1501944*
X1464515Y1502569*
X1465197Y1502881*
X1465424*
X1466106Y1502569*
X1466560Y1501944*
X1466788Y1501006*
X1502886Y1470472D02*
X1509449D01*
X1502886D02*
Y1468427D01*
X1503199Y1467745*
X1503511Y1467518*
X1504136Y1467291*
X1504761*
X1505386Y1467518*
X1505699Y1467745*
X1506011Y1468427*
Y1470472*
Y1468882D02*
X1509449Y1467291D01*
X1504136Y1465245D02*
X1503824Y1464791D01*
X1502886Y1464109*
X1509449*
X1502886Y1458882D02*
X1509449Y1461154D01*
X1502886Y1462063D02*
Y1458882D01*
X1493437Y1470079D02*
X1500000D01*
X1493437D02*
Y1468033D01*
X1493750Y1467351*
X1494062Y1467124*
X1494687Y1466897*
X1495312*
X1495937Y1467124*
X1496250Y1467351*
X1496562Y1468033*
Y1470079*
Y1468488D02*
X1500000Y1466897D01*
X1494687Y1464851D02*
X1494375Y1464397D01*
X1493437Y1463715*
X1500000*
X1493437Y1460533D02*
X1493750Y1461215D01*
X1494375Y1461442*
X1495000*
X1495625Y1461215*
X1495937Y1460761*
X1496250Y1459851*
X1496562Y1459170*
X1497187Y1458715*
X1497812Y1458488*
X1498750*
X1499375Y1458715*
X1499687Y1458942*
X1500000Y1459624*
Y1460533*
X1499687Y1461215*
X1499375Y1461442*
X1498750Y1461670*
X1497812*
X1497187Y1461442*
X1496562Y1460988*
X1496250Y1460306*
X1495937Y1459397*
X1495625Y1458942*
X1495000Y1458715*
X1494375*
X1493750Y1458942*
X1493437Y1459624*
Y1460533*
X1531614Y1482418D02*
X1530989Y1482645D01*
X1530364Y1483099*
X1530364D02*
X1530052Y1483554D01*
Y1484463*
X1530364Y1484918*
X1530989Y1485372*
X1531614Y1485599*
X1531614D02*
X1532552Y1485827D01*
X1534114*
X1535052Y1485599*
X1535052D02*
X1535677Y1485372D01*
X1536302Y1484918*
X1536614Y1484463*
Y1483554*
X1536302Y1483099*
X1536302D02*
X1535677Y1482645D01*
X1535052Y1482418*
X1531302Y1480372D02*
X1530989Y1479918D01*
X1530052Y1479236*
X1536614*
X1530989Y1474463D02*
X1530364Y1474690D01*
X1530052Y1475372*
Y1475827*
X1530364Y1476509*
X1531302Y1476963*
X1532864Y1477190*
X1534427*
X1535677Y1476963*
X1536302Y1476509*
X1536614Y1475827*
Y1475599*
X1536614D02*
X1536302Y1474918D01*
X1535677Y1474463*
X1534739Y1474236*
X1534427*
X1533489Y1474463*
X1532864Y1474918*
X1532552Y1475599*
X1532552D02*
Y1475827D01*
X1532864Y1476509*
X1533489Y1476963*
X1534427Y1477190*
X1544622Y1503819D02*
X1544850Y1504444D01*
X1545304Y1505069*
X1545759Y1505381*
X1546668*
X1547122Y1505069*
X1547577Y1504444*
X1547804Y1503819*
X1548031Y1502881*
Y1501319*
X1547804Y1500381*
X1547577Y1499756*
X1547122Y1499131*
X1546668Y1498819*
X1545759*
X1545304Y1499131*
X1544850Y1499756*
X1544622Y1500381*
X1542577Y1504131D02*
X1542122Y1504444D01*
X1541441Y1505381*
Y1498819*
X1536213Y1505381D02*
X1538486Y1498819D01*
X1539395Y1505381D02*
X1536213D01*
X1572559Y1498166D02*
X1571934Y1498393D01*
X1571309Y1498848*
X1570997Y1499302*
Y1500211*
X1571309Y1500666*
X1571934Y1501120*
X1572559Y1501348*
X1573497Y1501575*
X1575059*
X1575997Y1501348*
X1576622Y1501120*
X1577247Y1500666*
X1577559Y1500211*
Y1499302*
X1577247Y1498848*
X1576622Y1498393*
X1575997Y1498166*
X1572247Y1496120D02*
X1571934Y1495666D01*
X1570997Y1494984*
X1577559*
X1570997Y1491802D02*
X1571309Y1492484D01*
X1571934Y1492711*
X1572559*
X1573184Y1492484*
X1573497Y1492029*
X1573809Y1491120*
X1574122Y1490438*
X1574747Y1489984*
X1575372Y1489757*
X1576309*
X1576934Y1489984*
X1577247Y1490211*
X1577559Y1490893*
Y1491802*
X1577247Y1492484*
X1576934Y1492711*
X1576309Y1492938*
X1575372*
X1574747Y1492711*
X1574122Y1492257*
X1573809Y1491575*
X1573497Y1490666*
X1573184Y1490211*
X1572559Y1489984*
X1571934*
X1571309Y1490211*
X1570997Y1490893*
Y1491802*
X1459843Y1630578D02*
Y1624016D01*
X1457115*
X1454615Y1630578D02*
X1452115D01*
X1453479Y1628078*
X1452797*
X1452343Y1627766*
X1452115Y1627453*
X1451888Y1626516*
Y1625891*
X1452115Y1624953*
X1452570Y1624328*
X1453252Y1624016*
X1453933*
X1454615Y1624328*
X1454843Y1624641*
X1455070Y1625266*
X1491079Y1616024D02*
X1491306Y1616649D01*
X1491761Y1617274*
X1492215Y1617586*
X1493125*
X1493579Y1617274*
X1494034Y1616649*
X1494261Y1616024*
X1494488Y1615086*
Y1613524*
X1494261Y1612586*
X1494034Y1611961*
X1493579Y1611336*
X1493125Y1611024*
X1492215*
X1491761Y1611336*
X1491306Y1611961*
X1491079Y1612586*
X1488579Y1617586D02*
X1486079D01*
X1487443Y1615086*
X1486761*
X1486306Y1614774*
X1486079Y1614461*
X1485852Y1613524*
Y1612899*
X1486079Y1611961*
X1486534Y1611336*
X1487215Y1611024*
X1487897*
X1488579Y1611336*
X1488806Y1611649*
X1489034Y1612274*
X1482443Y1617586D02*
X1483125Y1617274D01*
X1483579Y1616336*
X1483806Y1614774*
Y1613836*
X1483579Y1612274*
X1483125Y1611336*
X1482443Y1611024*
X1481988*
X1481306Y1611336*
X1480852Y1612274*
X1480625Y1613836*
Y1614774*
X1480852Y1616336*
X1481306Y1617274*
X1481988Y1617586*
X1482443*
X1538717Y1517992D02*
X1538944Y1518617D01*
X1539399Y1519242*
X1539853Y1519555*
X1540762*
X1541217Y1519242*
X1541671Y1518617*
X1541899Y1517992*
X1542126Y1517055*
Y1515492*
X1541899Y1514555*
X1541671Y1513930*
X1541217Y1513305*
X1540762Y1512992*
X1539853*
X1539399Y1513305*
X1538944Y1513930*
X1538717Y1514555*
X1536444Y1517992D02*
Y1518305D01*
X1536217Y1518930*
X1535990Y1519242*
X1535535Y1519555*
X1534626*
X1534171Y1519242*
X1533944Y1518930*
X1533717Y1518305*
Y1517680*
X1533944Y1517055*
X1534399Y1516117*
X1536671Y1512992*
X1533490*
X1530308Y1519555D02*
X1530990Y1519242D01*
X1531217Y1518617*
Y1517992*
X1530990Y1517367*
X1530535Y1517055*
X1529626Y1516742*
X1528944Y1516430*
X1528490Y1515805*
X1528262Y1515180*
Y1514242*
X1528490Y1513617*
X1528717Y1513305*
X1529399Y1512992*
X1530308*
X1530990Y1513305*
X1531217Y1513617*
X1531444Y1514242*
Y1515180*
X1531217Y1515805*
X1530762Y1516430*
X1530081Y1516742*
X1529171Y1517055*
X1528717Y1517367*
X1528490Y1517992*
Y1518617*
X1528717Y1519242*
X1529399Y1519555*
X1530308*
X1602886Y1521654D02*
X1607574D01*
X1608511Y1521426*
X1609136Y1520972*
X1609449Y1520290*
Y1519835*
X1609136Y1519154*
X1608511Y1518699*
X1607574Y1518472*
X1602886*
X1604136Y1516426D02*
X1603824Y1515972D01*
X1602886Y1515290*
X1609449*
X1604136Y1513244D02*
X1603824Y1512790D01*
X1602886Y1512108*
X1609449*
X0Y0D02*
M02*
