*
*
G04 PADS 9.5 Build Number: 522968 generated Gerber (RS-274-X) file*
G04 PC Version=2.1*
*
%IN "opqbox2.pcb"*%
*
%MOIN*%
*
%FSLAX35Y35*%
*
*
*
*
G04 PC Standard Apertures*
*
*
G04 Thermal Relief Aperture macro.*
%AMTER*
1,1,$1,0,0*
1,0,$1-$2,0,0*
21,0,$3,$4,0,0,45*
21,0,$3,$4,0,0,135*
%
*
*
G04 Annular Aperture macro.*
%AMANN*
1,1,$1,0,0*
1,0,$2,0,0*
%
*
*
G04 Odd Aperture macro.*
%AMODD*
1,1,$1,0,0*
1,0,$1-0.005,0,0*
%
*
*
G04 PC Custom Aperture Macros*
*
*
*
*
*
*
G04 PC Aperture Table*
*
%ADD010C,0.001*%
%ADD226R,0.062X0.062*%
%ADD235C,0.062*%
%ADD271R,0.032X0.04*%
%ADD273R,0.04X0.032*%
%ADD280C,0.07287*%
%ADD298C,0.06893*%
%ADD299C,0.06499*%
%ADD300C,0.12011*%
%ADD313R,0.038X0.038*%
%ADD314R,0.038X0.052*%
%ADD315R,0.052X0.038*%
*
*
*
*
G04 PC Circuitry*
G04 Layer Name opqbox2.pcb - circuitry*
%LPD*%
*
*
G04 PC Custom Flashes*
G04 Layer Name opqbox2.pcb - flashes*
%LPD*%
*
*
G04 PC Circuitry*
G04 Layer Name opqbox2.pcb - circuitry*
%LPD*%
*
G54D10*
G54D226*
G01X1886614Y1450000D03*
X1833642Y1459475D03*
G54D235*
X1921742Y1399741D03*
Y1459741D03*
X1886614Y1410000D03*
X1796850Y1497638D03*
Y1437638D03*
X1891732Y1487008D03*
Y1547008D03*
X1919291Y1546063D03*
Y1486063D03*
X1946850Y1487008D03*
Y1547008D03*
X1422903Y1452169D03*
X1412903D03*
X1422903Y1462169D03*
X1412903D03*
X1422903Y1472169D03*
X1412903D03*
X1422903Y1482169D03*
X1412903D03*
X1422903Y1492169D03*
X1412903D03*
X1422903Y1502169D03*
X1412903D03*
X1422903Y1512169D03*
X1412903D03*
X1422903Y1522169D03*
X1412903D03*
X1422903Y1532169D03*
X1412903D03*
X1422903Y1542169D03*
X1412903D03*
X1593307Y1444094D03*
Y1454094D03*
Y1464094D03*
Y1474094D03*
X2040945Y1461811D03*
X1980945D03*
X1456693Y1412205D03*
Y1422205D03*
Y1432205D03*
Y1442205D03*
X1585433Y1517323D03*
Y1507323D03*
Y1497323D03*
Y1487323D03*
X1588976Y1555512D03*
X1598976D03*
X1608976D03*
X1618976D03*
X1964173Y1422441D03*
X1433858Y1615748D03*
Y1605906D03*
Y1598031D03*
Y1588189D03*
X1873642Y1459475D03*
G54D271*
X1730484Y1442808D03*
Y1436608D03*
X1680709Y1443651D03*
Y1437451D03*
X1546850Y1477116D03*
Y1470916D03*
X1525197Y1471309D03*
Y1477509D03*
X1505512Y1485777D03*
Y1479577D03*
X1498425Y1485777D03*
Y1479577D03*
X1539764Y1470916D03*
Y1477116D03*
X1559449Y1498769D03*
Y1492569D03*
X1566535Y1498769D03*
Y1492569D03*
G54D273*
X1625147Y1442913D03*
X1618947D03*
X1625147Y1435827D03*
X1618947D03*
X1437159Y1522162D03*
X1443359D03*
X1437082Y1492181D03*
X1443282D03*
X1437035Y1482148D03*
X1443235D03*
X1437274Y1512152D03*
X1443474D03*
X1436927Y1472243D03*
X1443127D03*
X1436664Y1462196D03*
X1442864D03*
X1443426Y1502692D03*
X1437226D03*
X1443257Y1627559D03*
X1437057D03*
X1485483Y1604331D03*
X1491683D03*
X1554281Y1515748D03*
X1548081D03*
G54D280*
X2110514Y1533620D03*
X2099884Y1583620D03*
X2093979Y1609210D03*
G54D298*
X1820247Y1617917D03*
Y1575595D03*
X1668672Y1586421D03*
Y1617917D03*
X1761721Y1391126D03*
X1756299Y1476772D03*
X1574409Y1612992D03*
X1633071Y1540551D03*
X1634646Y1477165D03*
X1659843Y1416142D03*
Y1453543D03*
X1627165Y1498819D03*
G54D299*
X2052756Y1422441D03*
G54D300*
X1421772Y1626417D03*
X1423189Y1576102D03*
X2162598Y1434252D03*
Y1414252D03*
X2110630Y1414173D03*
Y1434173D03*
G54D313*
X1674222Y1470509D03*
X1666722D03*
X1609291Y1506489D03*
Y1498989D03*
G54D314*
X1670472Y1478509D03*
G54D315*
X1601291Y1502739D03*
X0Y0D02*
M02*
