*
*
G04 PADS 9.5 Build Number: 522968 generated Gerber (RS-274-X) file*
G04 PC Version=2.1*
*
%IN "opqbox2.pcb"*%
*
%MOIN*%
*
%FSLAX35Y35*%
*
*
*
*
G04 PC Standard Apertures*
*
*
G04 Thermal Relief Aperture macro.*
%AMTER*
1,1,$1,0,0*
1,0,$1-$2,0,0*
21,0,$3,$4,0,0,45*
21,0,$3,$4,0,0,135*
%
*
*
G04 Annular Aperture macro.*
%AMANN*
1,1,$1,0,0*
1,0,$2,0,0*
%
*
*
G04 Odd Aperture macro.*
%AMODD*
1,1,$1,0,0*
1,0,$1-0.005,0,0*
%
*
*
G04 PC Custom Aperture Macros*
*
*
*
*
*
*
G04 PC Aperture Table*
*
%ADD010C,0.001*%
%ADD013C,0.01*%
*
*
*
*
G04 PC Circuitry*
G04 Layer Name opqbox2.pcb - circuitry*
%LPD*%
*
*
G04 PC Custom Flashes*
G04 Layer Name opqbox2.pcb - flashes*
%LPD*%
*
*
G04 PC Circuitry*
G04 Layer Name opqbox2.pcb - circuitry*
%LPD*%
*
G54D10*
G54D13*
G01X528121Y483075D02*
X348200D01*
Y383075*
X528121*
Y483075*
X420685Y292483D02*
Y298283D01*
X427685*
Y292483*
X420685Y290083D02*
Y284283D01*
X427685*
Y290083*
X370909Y293326D02*
Y299126D01*
X377909*
Y293326*
X370909Y290926D02*
Y285126D01*
X377909*
Y290926*
X316948Y297988D02*
X322748D01*
Y290988*
X316948*
X314548Y297988D02*
X308748D01*
Y290988*
X314548*
X316948Y290902D02*
X322748D01*
Y283902*
X316948*
X314548Y290902D02*
X308748D01*
Y283902*
X314548*
X132760Y370237D02*
X126960D01*
Y377237*
X132760*
X135160Y370237D02*
X140960D01*
Y377237*
X135160*
X237051Y326791D02*
Y332591D01*
X244051*
Y326791*
X237051Y324391D02*
Y318591D01*
X244051*
Y324391*
X222398Y324784D02*
Y318984D01*
X215398*
Y324784*
X222398Y327184D02*
Y332984D01*
X215398*
Y327184*
X132683Y340256D02*
X126883D01*
Y347256*
X132683*
X135083Y340256D02*
X140883D01*
Y347256*
X135083*
X132635Y330223D02*
X126835D01*
Y337223*
X132635*
X135035Y330223D02*
X140835D01*
Y337223*
X135035*
X132874Y360227D02*
X127074D01*
Y367227*
X132874*
X135274Y360227D02*
X141074D01*
Y367227*
X135274*
X132528Y320318D02*
X126728D01*
Y327318*
X132528*
X134928Y320318D02*
X140728D01*
Y327318*
X134928*
X132265Y310271D02*
X126465D01*
Y317271*
X132265*
X134665Y310271D02*
X140465D01*
Y317271*
X134665*
X135227Y357767D02*
X141027D01*
Y350767*
X135227*
X132827Y357767D02*
X127027D01*
Y350767*
X132827*
X195713Y335452D02*
Y341252D01*
X202713*
Y335452*
X195713Y333052D02*
Y327252D01*
X202713*
Y333052*
X188626Y335452D02*
Y341252D01*
X195626*
Y335452*
X188626Y333052D02*
Y327252D01*
X195626*
Y333052*
X236965Y324391D02*
Y318591D01*
X229965*
Y324391*
X236965Y326791D02*
Y332591D01*
X229965*
Y326791*
X249650Y348444D02*
Y354244D01*
X256650*
Y348444*
X249650Y346044D02*
Y340244D01*
X256650*
Y346044*
X256736Y348444D02*
Y354244D01*
X263736*
Y348444*
X256736Y346044D02*
Y340244D01*
X263736*
Y346044*
X135058Y482634D02*
X140858D01*
Y475634*
X135058*
X132658Y482634D02*
X126858D01*
Y475634*
X132658*
X367173Y329984D02*
X369673D01*
Y324984*
X361173Y329984D02*
X358673D01*
Y324984*
X364673Y320984D02*
X363673D01*
X181083Y452406D02*
X175283D01*
Y459406*
X181083*
X183483Y452406D02*
X189283D01*
Y459406*
X183483*
X246082Y370823D02*
X251882D01*
Y363823*
X246082*
X243682Y370823D02*
X237882D01*
Y363823*
X243682*
X295092Y357314D02*
Y359814D01*
X300092*
X295092Y351314D02*
Y348814D01*
X300092*
X304092Y354814D02*
Y353814D01*
X434780Y293189D02*
X435007Y293814D01*
X435462Y294439*
X435916Y294751*
X436825*
X437280Y294439*
X437734Y293814*
X437962Y293189*
X438189Y292251*
Y290689*
X437962Y289751*
X437734Y289126*
X437280Y288501*
X436825Y288189*
X435916*
X435462Y288501*
X435007Y289126*
X434780Y289751*
X429553Y294751D02*
X431825Y288189D01*
X432734Y294751D02*
X429553D01*
X369173Y288842D02*
X369798Y288615D01*
X370423Y288160*
X370736Y287706*
Y286797*
X370423Y286342*
X369798Y285888*
X369173Y285660*
X368236Y285433*
X366673*
X365736Y285660*
X365111Y285888*
X364486Y286342*
X364173Y286797*
Y287706*
X364486Y288160*
X365111Y288615*
X365736Y288842*
X369486Y290888D02*
X369798Y291342D01*
X370736Y292024*
X364173*
X370736Y295433D02*
X370423Y294751D01*
X369486Y294297*
X367923Y294069*
X366986*
X365423Y294297*
X364486Y294751*
X364173Y295433*
Y295888*
X364486Y296569*
X365423Y297024*
X366986Y297251*
X367923*
X369486Y297024*
X370423Y296569*
X370736Y295888*
Y295433*
X302890Y297913D02*
X303117Y298538D01*
X303572Y299163*
X304026Y299476*
X304936*
X305390Y299163*
X305845Y298538*
X306072Y297913*
X306299Y296976*
Y295413*
X306072Y294476*
X305845Y293851*
X305390Y293226*
X304936Y292913*
X304026*
X303572Y293226*
X303117Y293851*
X302890Y294476*
X300845Y298226D02*
X300390Y298538D01*
X299708Y299476*
Y292913*
X297663Y298226D02*
X297208Y298538D01*
X296526Y299476*
Y292913*
X302890Y289252D02*
X303117Y289877D01*
X303572Y290502*
X304026Y290814*
X304936*
X305390Y290502*
X305845Y289877*
X306072Y289252*
X306299Y288314*
Y286752*
X306072Y285814*
X305845Y285189*
X305390Y284564*
X304936Y284252*
X304026*
X303572Y284564*
X303117Y285189*
X302890Y285814*
X300845Y289564D02*
X300390Y289877D01*
X299708Y290814*
Y284252*
X297436Y289252D02*
Y289564D01*
X297208Y290189*
X296981Y290502*
X296526Y290814*
X295617*
X295163Y290502*
X294936Y290189*
X294708Y289564*
Y288939*
X294936Y288314*
X295390Y287377*
X297663Y284252*
X294481*
X168504Y376248D02*
Y369685D01*
Y376248D02*
X166458D01*
X165777Y375935*
X165549Y375623*
X165322Y374998*
Y374373*
X165549Y373748*
X165777Y373435*
X166458Y373123*
X168504*
X166913D02*
X165322Y369685D01*
X162140Y376248D02*
X162822Y375935D01*
X163049Y375310*
Y374685*
X162822Y374060*
X162368Y373748*
X161458Y373435*
X160777Y373123*
X160322Y372498*
X160095Y371873*
Y370935*
X160322Y370310*
X160549Y369998*
X161231Y369685*
X162140*
X162822Y369998*
X163049Y370310*
X163277Y370935*
Y371873*
X163049Y372498*
X162595Y373123*
X161913Y373435*
X161004Y373748*
X160549Y374060*
X160322Y374685*
Y375310*
X160549Y375935*
X161231Y376248*
X162140*
X246575Y330843D02*
X245950Y331070D01*
X245325Y331525*
X245012Y331979*
Y332888*
X245325Y333343*
X245950Y333797*
X246575Y334025*
X247512Y334252*
X249075*
X250012Y334025*
X250637Y333797*
X251262Y333343*
X251575Y332888*
Y331979*
X251262Y331525*
X250637Y331070*
X250012Y330843*
X246262Y328797D02*
X245950Y328343D01*
X245012Y327661*
X251575*
X245012Y323343D02*
X249387Y325616D01*
Y322207*
X245012Y323343D02*
X251575D01*
X208386Y331237D02*
X207761Y331464D01*
X207136Y331918*
X206823Y332373*
Y333282*
X207136Y333737*
X207761Y334191*
X208386Y334418*
X209323Y334646*
X210886*
X211823Y334418*
X212448Y334191*
X213073Y333737*
X213386Y333282*
Y332373*
X213073Y331918*
X212448Y331464*
X211823Y331237*
X208073Y329191D02*
X207761Y328737D01*
X206823Y328055*
X213386*
X206823Y323055D02*
Y325327D01*
X209636Y325555*
X209323Y325327*
X209011Y324646*
Y323964*
X209323Y323282*
X209948Y322827*
X210886Y322600*
X211511Y322827*
X212448Y323055*
X213073Y323509*
X213386Y324191*
Y324873*
X213073Y325555*
X212761Y325782*
X212136Y326009*
X168898Y344751D02*
Y338189D01*
Y344751D02*
X166852D01*
X166170Y344439*
X165943Y344126*
X165716Y343501*
Y342876*
X165943Y342251*
X166170Y341939*
X166852Y341626*
X168898*
X167307D02*
X165716Y338189D01*
X160716Y342564D02*
X160943Y341626D01*
X161398Y341001*
X162079Y340689*
X162307*
X162989Y341001*
X163443Y341626*
X163670Y342564*
Y342876*
X163443Y343814*
X162989Y344439*
X162307Y344751*
X162079*
X161398Y344439*
X160943Y343814*
X160716Y342564*
Y341001*
X160943Y339439*
X161398Y338501*
X162079Y338189*
X162534*
X163216Y338501*
X163443Y339126*
X169291Y335303D02*
Y328740D01*
Y335303D02*
X167246D01*
X166564Y334990*
X166337Y334678*
X166110Y334053*
Y333428*
X166337Y332803*
X166564Y332490*
X167246Y332178*
X169291*
X167700D02*
X166110Y328740D01*
X164064Y334053D02*
X163610Y334365D01*
X162928Y335303*
Y328740*
X159519Y335303D02*
X160200Y334990D01*
X160655Y334053*
X160882Y332490*
Y331553*
X160655Y329990*
X160200Y329053*
X159519Y328740*
X159064*
X158382Y329053*
X157928Y329990*
X157700Y331553*
Y332490*
X157928Y334053*
X158382Y334990*
X159064Y335303*
X159519*
X168504Y366799D02*
Y360236D01*
Y366799D02*
X166458D01*
X165777Y366486*
X165549Y366174*
X165322Y365549*
Y364924*
X165549Y364299*
X165777Y363986*
X166458Y363674*
X168504*
X166913D02*
X165322Y360236D01*
X163277Y365549D02*
X162822Y365861D01*
X162140Y366799*
Y360236*
X160095Y365549D02*
X159640Y365861D01*
X158958Y366799*
Y360236*
X169685Y325066D02*
Y318504D01*
Y325066D02*
X167640D01*
X166958Y324754*
X166730Y324441*
X166503Y323816*
Y323191*
X166730Y322566*
X166958Y322254*
X167640Y321941*
X169685*
X168094D02*
X166503Y318504D01*
X164458Y323816D02*
X164003Y324129D01*
X163321Y325066*
Y318504*
X161049Y323504D02*
Y323816D01*
X160821Y324441*
X160594Y324754*
X160140Y325066*
X159230*
X158776Y324754*
X158549Y324441*
X158321Y323816*
Y323191*
X158549Y322566*
X159003Y321629*
X161276Y318504*
X158094*
X169685Y316405D02*
Y309843D01*
Y316405D02*
X167640D01*
X166958Y316093*
X166730Y315780*
X166503Y315155*
Y314530*
X166730Y313905*
X166958Y313593*
X167640Y313280*
X169685*
X168094D02*
X166503Y309843D01*
X164458Y315155D02*
X164003Y315468D01*
X163321Y316405*
Y309843*
X160821Y316405D02*
X158321D01*
X159685Y313905*
X159003*
X158549Y313593*
X158321Y313280*
X158094Y312343*
Y311718*
X158321Y310780*
X158776Y310155*
X159458Y309843*
X160140*
X160821Y310155*
X161049Y310468*
X161276Y311093*
X168898Y356956D02*
Y350394D01*
Y356956D02*
X166852D01*
X166170Y356644*
X165943Y356331*
X165716Y355706*
Y355081*
X165943Y354456*
X166170Y354144*
X166852Y353831*
X168898*
X167307D02*
X165716Y350394D01*
X163670Y355706D02*
X163216Y356019D01*
X162534Y356956*
Y350394*
X157761Y356019D02*
X157989Y356644D01*
X158670Y356956*
X159125*
X159807Y356644*
X160261Y355706*
X160489Y354144*
Y352581*
X160261Y351331*
X159807Y350706*
X159125Y350394*
X158898*
X158216Y350706*
X157761Y351331*
X157534Y352269*
Y352581*
X157761Y353519*
X158216Y354144*
X158898Y354456*
X159125*
X159807Y354144*
X160261Y353519*
X160489Y352581*
X196587Y322047D02*
X203150D01*
X196587D02*
Y320002D01*
X196900Y319320*
X197212Y319093*
X197837Y318865*
X198462*
X199087Y319093*
X199400Y319320*
X199712Y320002*
Y322047*
Y320456D02*
X203150Y318865D01*
X197837Y316820D02*
X197525Y316365D01*
X196587Y315684*
X203150*
X196587Y310456D02*
X203150Y312729D01*
X196587Y313638D02*
Y310456D01*
X187138Y321654D02*
X193701D01*
X187138D02*
Y319608D01*
X187451Y318926*
X187763Y318699*
X188388Y318472*
X189013*
X189638Y318699*
X189951Y318926*
X190263Y319608*
Y321654*
Y320063D02*
X193701Y318472D01*
X188388Y316426D02*
X188076Y315972D01*
X187138Y315290*
X193701*
X187138Y312108D02*
X187451Y312790D01*
X188076Y313017*
X188701*
X189326Y312790*
X189638Y312335*
X189951Y311426*
X190263Y310744*
X190888Y310290*
X191513Y310063*
X192451*
X193076Y310290*
X193388Y310517*
X193701Y311199*
Y312108*
X193388Y312790*
X193076Y313017*
X192451Y313244*
X191513*
X190888Y313017*
X190263Y312563*
X189951Y311881*
X189638Y310972*
X189326Y310517*
X188701Y310290*
X188076*
X187451Y310517*
X187138Y311199*
Y312108*
X225315Y333992D02*
X224690Y334220D01*
X224065Y334674*
X223752Y335129*
Y336038*
X224065Y336492*
X224690Y336947*
X225315Y337174*
X226252Y337402*
X227815*
X228752Y337174*
X229377Y336947*
X230002Y336492*
X230315Y336038*
Y335129*
X230002Y334674*
X229377Y334220*
X228752Y333992*
X225002Y331947D02*
X224690Y331492D01*
X223752Y330811*
X230315*
X224690Y326038D02*
X224065Y326265D01*
X223752Y326947*
Y327402*
X224065Y328083*
X225002Y328538*
X226565Y328765*
X228127*
X229377Y328538*
X230002Y328083*
X230315Y327402*
Y327174*
X230002Y326492*
X229377Y326038*
X228440Y325811*
X228127*
X227190Y326038*
X226565Y326492*
X226252Y327174*
Y327402*
X226565Y328083*
X227190Y328538*
X228127Y328765*
X238323Y355394D02*
X238550Y356019D01*
X239005Y356644*
X239460Y356956*
X240369*
X240823Y356644*
X241278Y356019*
X241505Y355394*
X241732Y354456*
Y352894*
X241505Y351956*
X241278Y351331*
X240823Y350706*
X240369Y350394*
X239460*
X239005Y350706*
X238550Y351331*
X238323Y351956*
X236278Y355706D02*
X235823Y356019D01*
X235141Y356956*
Y350394*
X229914Y356956D02*
X232187Y350394D01*
X233096Y356956D02*
X229914D01*
X266260Y349741D02*
X265635Y349968D01*
X265010Y350422*
X264697Y350877*
Y351786*
X265010Y352241*
X265635Y352695*
X266260Y352922*
X267197Y353150*
X268760*
X269697Y352922*
X270322Y352695*
X270947Y352241*
X271260Y351786*
Y350877*
X270947Y350422*
X270322Y349968*
X269697Y349741*
X265947Y347695D02*
X265635Y347241D01*
X264697Y346559*
X271260*
X264697Y343377D02*
X265010Y344059D01*
X265635Y344286*
X266260*
X266885Y344059*
X267197Y343604*
X267510Y342695*
X267822Y342013*
X268447Y341559*
X269072Y341331*
X270010*
X270635Y341559*
X270947Y341786*
X271260Y342468*
Y343377*
X270947Y344059*
X270635Y344286*
X270010Y344513*
X269072*
X268447Y344286*
X267822Y343831*
X267510Y343150*
X267197Y342241*
X266885Y341786*
X266260Y341559*
X265635*
X265010Y341786*
X264697Y342468*
Y343377*
X153543Y482153D02*
Y475591D01*
X150816*
X148316Y482153D02*
X145816D01*
X147180Y479653*
X146498*
X146043Y479341*
X145816Y479028*
X145589Y478091*
Y477466*
X145816Y476528*
X146271Y475903*
X146952Y475591*
X147634*
X148316Y475903*
X148543Y476216*
X148771Y476841*
X184780Y467598D02*
X185007Y468223D01*
X185462Y468848*
X185916Y469161*
X186825*
X187280Y468848*
X187734Y468223*
X187962Y467598*
X188189Y466661*
Y465098*
X187962Y464161*
X187734Y463536*
X187280Y462911*
X186825Y462598*
X185916*
X185462Y462911*
X185007Y463536*
X184780Y464161*
X182280Y469161D02*
X179780D01*
X181144Y466661*
X180462*
X180007Y466348*
X179780Y466036*
X179553Y465098*
Y464473*
X179780Y463536*
X180234Y462911*
X180916Y462598*
X181598*
X182280Y462911*
X182507Y463223*
X182734Y463848*
X176144Y469161D02*
X176825Y468848D01*
X177280Y467911*
X177507Y466348*
Y465411*
X177280Y463848*
X176825Y462911*
X176144Y462598*
X175689*
X175007Y462911*
X174553Y463848*
X174325Y465411*
Y466348*
X174553Y467911*
X175007Y468848*
X175689Y469161*
X176144*
X232418Y369567D02*
X232645Y370192D01*
X233099Y370817*
X233099D02*
X233554Y371129D01*
X234463*
X234918Y370817*
X235372Y370192*
X235599Y369567*
X235599D02*
X235827Y368629D01*
Y367067*
X235599Y366129*
X235599D02*
X235372Y365504D01*
X234918Y364879*
X234463Y364567*
X233554*
X233099Y364879*
X233099D02*
X232645Y365504D01*
X232418Y366129*
X230145Y369567D02*
Y369879D01*
X229918Y370504*
X229690Y370817*
X229236Y371129*
X228327*
X227872Y370817*
X227645Y370504*
X227418Y369879*
Y369254*
X227645Y368629*
X228099Y367692*
X228099D02*
X230372Y364567D01*
X227190*
X224009Y371129D02*
X224690Y370817D01*
X224918Y370192*
Y369567*
X224690Y368942*
X224236Y368629*
X223327Y368317*
X222645Y368004*
X222190Y367379*
X221963Y366754*
Y365817*
X222190Y365192*
X222418Y364879*
X223099Y364567*
X223099D02*
X224009D01*
X224690Y364879*
X224918Y365192*
X225145Y365817*
Y366754*
X224918Y367379*
X224463Y368004*
X223781Y368317*
X222872Y368629*
X222418Y368942*
X222190Y369567*
Y370192*
X222418Y370817*
X223099Y371129*
X223099D02*
X224009D01*
X296587Y373228D02*
X301275D01*
X302212Y373001*
X302837Y372547*
X303150Y371865*
Y371410*
X302837Y370728*
X302212Y370274*
X301275Y370047*
X296587*
X297837Y368001D02*
X297525Y367547D01*
X296587Y366865*
X303150*
X297837Y364819D02*
X297525Y364365D01*
X296587Y363683*
X303150*
X0Y0D02*
M02*
