*
*
G04 PADS 9.5 Build Number: 522968 generated Gerber (RS-274-X) file*
G04 PC Version=2.1*
*
%IN "opqbox2.pcb"*%
*
%MOIN*%
*
%FSLAX35Y35*%
*
*
*
*
G04 PC Standard Apertures*
*
*
G04 Thermal Relief Aperture macro.*
%AMTER*
1,1,$1,0,0*
1,0,$1-$2,0,0*
21,0,$3,$4,0,0,45*
21,0,$3,$4,0,0,135*
%
*
*
G04 Annular Aperture macro.*
%AMANN*
1,1,$1,0,0*
1,0,$2,0,0*
%
*
*
G04 Odd Aperture macro.*
%AMODD*
1,1,$1,0,0*
1,0,$1-0.005,0,0*
%
*
*
G04 PC Custom Aperture Macros*
*
*
*
*
*
*
G04 PC Aperture Table*
*
%ADD010C,0.001*%
%ADD013C,0.01*%
%ADD028C,0.06*%
%ADD033C,0.03937*%
%ADD037C,0.06693*%
%ADD041C,0.02362*%
%ADD073R,0.038X0.03*%
%ADD081R,0.036X0.036*%
%ADD082R,0.036X0.05*%
%ADD083R,0.06X0.06*%
%ADD084C,0.01575*%
%ADD085C,0.01181*%
%ADD102C,0.015*%
%ADD127C,0.01969*%
%ADD262R,0.03X0.038*%
%ADD278C,0.07087*%
%ADD293C,0.06299*%
%ADD295C,0.11811*%
%ADD296C,0.07874*%
%ADD312R,0.05X0.036*%
%ADD317C,0.0315*%
*
*
*
*
G04 PC Circuitry*
G04 Layer Name opqbox2.pcb - circuitry*
%LPD*%
*
*
G04 PC Custom Flashes*
G04 Layer Name opqbox2.pcb - flashes*
%LPD*%
*
*
G04 PC Circuitry*
G04 Layer Name opqbox2.pcb - circuitry*
%LPD*%
*
G54D10*
G54D13*
G01X1597671Y1499819D02*
X1599319Y1501466D01*
X1604912Y1499819D02*
X1603264Y1501466D01*
X1604912Y1505659D02*
X1603264Y1504012D01*
X1545061Y1518368D02*
X1546620Y1516809D01*
X1545061Y1513128D02*
X1546620Y1514687D01*
X1551101Y1513128D02*
X1549542Y1514687D01*
X1551101Y1518368D02*
X1549542Y1516809D01*
X1482462Y1606951D02*
X1484022Y1605391D01*
X1482462Y1601710D02*
X1484022Y1603270D01*
X1673393Y1482130D02*
X1671745Y1480482D01*
X1667552Y1482130D02*
X1669200Y1480482D01*
X1667552Y1474889D02*
X1669200Y1476537D01*
X1673393Y1474889D02*
X1671745Y1476537D01*
X1440237Y1630179D02*
X1441797Y1628620D01*
X1440237Y1624939D02*
X1441797Y1626498D01*
X1446278Y1624939D02*
X1444718Y1626498D01*
X1446278Y1630179D02*
X1444718Y1628620D01*
X1563915Y1489549D02*
X1565475Y1491109D01*
X1569156Y1489549D02*
X1567596Y1491109D01*
X1569156Y1495590D02*
X1567596Y1494030D01*
X1556829Y1489549D02*
X1558388Y1491109D01*
X1562069Y1489549D02*
X1560509Y1491109D01*
X1556829Y1495590D02*
X1558388Y1494030D01*
X1542384Y1480136D02*
X1540824Y1478576D01*
X1537144Y1480136D02*
X1538703Y1478576D01*
X1508132Y1482757D02*
X1506572Y1484317D01*
X1508132Y1488797D02*
X1506572Y1487238D01*
X1502892Y1488797D02*
X1504451Y1487238D01*
X1440406Y1500072D02*
X1441965Y1501631D01*
X1446446Y1500072D02*
X1444886Y1501631D01*
X1527817Y1480530D02*
X1526258Y1478970D01*
X1522577Y1480530D02*
X1524136Y1478970D01*
X1522577Y1474489D02*
X1524136Y1476049D01*
X1527817Y1474489D02*
X1526258Y1476049D01*
X1544230Y1467896D02*
X1545790Y1469455D01*
X1549471Y1467896D02*
X1547911Y1469455D01*
X1549471Y1473936D02*
X1547911Y1472376D01*
X1622127Y1433207D02*
X1623687Y1434766D01*
X1628167Y1433207D02*
X1626608Y1434766D01*
X1628167Y1438447D02*
X1626608Y1436887D01*
X1622127Y1445534D02*
X1623687Y1443974D01*
X1628167Y1440293D02*
X1626608Y1441853D01*
X1628167Y1445534D02*
X1626608Y1443974D01*
X1678088Y1440631D02*
X1679648Y1442191D01*
X1683329Y1446671D02*
X1681769Y1445112D01*
X1678088Y1446671D02*
X1679648Y1445112D01*
X1727168Y1439092D02*
X1729423Y1441348D01*
X1733800Y1439092D02*
X1731544Y1441348D01*
X1733800Y1446524D02*
X1731544Y1444269D01*
X1727168Y1446524D02*
X1729423Y1444269D01*
G54D28*
X1921742Y1399741D03*
Y1459741D03*
X1886614Y1410000D03*
X1796850Y1497638D03*
Y1437638D03*
X1891732Y1487008D03*
Y1547008D03*
X1919291Y1546063D03*
Y1486063D03*
X1946850Y1487008D03*
Y1547008D03*
X1422903Y1452169D03*
X1412903D03*
X1422903Y1462169D03*
X1412903D03*
X1422903Y1472169D03*
X1412903D03*
X1422903Y1482169D03*
X1412903D03*
X1422903Y1492169D03*
X1412903D03*
X1422903Y1502169D03*
X1412903D03*
X1422903Y1512169D03*
X1412903D03*
X1422903Y1522169D03*
X1412903D03*
X1422903Y1532169D03*
X1412903D03*
X1422903Y1542169D03*
X1412903D03*
X1593307Y1444094D03*
Y1454094D03*
Y1464094D03*
Y1474094D03*
X2040945Y1461811D03*
X1980945D03*
X1456693Y1412205D03*
Y1422205D03*
Y1432205D03*
Y1442205D03*
X1585433Y1517323D03*
Y1507323D03*
Y1497323D03*
Y1487323D03*
X1588976Y1555512D03*
X1598976D03*
X1608976D03*
X1618976D03*
X1964173Y1422441D03*
X1433858Y1615748D03*
Y1605906D03*
Y1598031D03*
Y1588189D03*
X1873642Y1459475D03*
G54D33*
X1729921Y1426772D02*
X1730484Y1427334D01*
Y1436608*
X1559449Y1492569D02*
X1566535D01*
X1421772Y1626417D02*
Y1627559D01*
X1437057*
X1491683Y1604331D02*
Y1608711D01*
X1488583Y1611811*
X1838002Y1400787D02*
G75*
G03X1838002I-4144J0D01*
G01X1802419Y1437638D02*
G03X1802419I-5569J0D01*
G01X1786427Y1395276D02*
G03X1786427I-4144J0D01*
G01X1778553Y1424803D02*
G03X1778553I-4144J0D01*
G01X1775009Y1452362D02*
G03X1775009I-4143J0D01*
G01X1757293Y1422835D02*
G03X1757293I-4143J0D01*
G01X1762214Y1476772D02*
G03X1762214I-5915J0D01*
G01X1846063Y1385039D02*
Y1503150D01*
G03X1844094Y1505118I-1969J-0*
G01X1801991*
G03X1800648Y1501710I0J-1968*
G01X1793052D02*
G03X1800648I3798J-4072D01*
G01X1793052D02*
G03X1791710Y1505118I-1342J1440D01*
G01X1723622*
G03X1721654Y1503150I0J-1968*
G01Y1428397*
G03X1722512Y1426772I1968J0*
X1721654Y1425146I1110J-1626*
G01Y1385039*
G03X1723622Y1383071I1968J0*
G01X1756710*
G03X1757961Y1386559I-0J1968*
G01X1761502Y1397036D02*
G03X1757961Y1386559I219J-5910D01*
G01X1761502Y1397036D02*
G03X1763074Y1400085I-73J1968D01*
G01X1767275Y1398285D02*
G03X1763074Y1400085I-740J4077D01*
G01X1767275Y1398285D02*
G03X1766151Y1395044I351J-1937D01*
G01X1765480Y1386559D02*
G03X1766151Y1395044I-3759J4567D01*
G01X1765480Y1386559D02*
G03X1766732Y1383071I1252J-1520D01*
G01X1844094*
G03X1846063Y1385039I0J1968*
G01X1838002Y1400787D02*
G03X1838002I-4144J0D01*
G01X1839210Y1462475D02*
Y1456475D01*
X1836642Y1453907D02*
G03X1839210Y1456475I-0J2568D01*
G01X1836642Y1453907D02*
X1830642D01*
X1828073Y1456475D02*
G03X1830642Y1453907I2569J0D01*
G01X1828073Y1456475D02*
Y1462475D01*
X1830642Y1465044D02*
G03X1828073Y1462475I-0J-2569D01*
G01X1830642Y1465044D02*
X1836642D01*
X1839210Y1462475D02*
G03X1836642Y1465044I-2568J0D01*
G01X1802419Y1437638D02*
G03X1802419I-5569J0D01*
G01X1786427Y1395276D02*
G03X1786427I-4144J0D01*
G01X1778553Y1424803D02*
G03X1778553I-4144J0D01*
G01X1775009Y1452362D02*
G03X1775009I-4143J0D01*
G01X1757293Y1422835D02*
G03X1757293I-4143J0D01*
G01X1762214Y1476772D02*
G03X1762214I-5915J0D01*
G01X1735021Y1436608D02*
Y1427334D01*
X1733692Y1424126D02*
G03X1735021Y1427334I-3208J3208D01*
G01X1733692Y1424126D02*
X1733129Y1423563D01*
X1725528Y1425638D02*
G03X1733129Y1423563I4393J1134D01*
G01X1725528Y1425638D02*
G03X1724733Y1426772I-1906J-492D01*
X1725528Y1427905I-1111J1625*
G01X1725777Y1428617D02*
G03X1725528Y1427905I4144J-1845D01*
G01X1725777Y1428617D02*
G03X1725947Y1429418I-1799J801D01*
G01Y1436608*
X1726304Y1438374D02*
G03X1725947Y1436608I4180J-1766D01*
G01X1726304Y1438374D02*
G03X1726440Y1438866I-1813J765D01*
G01X1726507Y1439188D02*
G03X1726440Y1438866I2477J-680D01*
G01X1726507Y1439188D02*
G03Y1440229I-1899J520D01*
G01X1726415Y1440908D02*
G03X1726507Y1440229I2569J0D01*
G01X1726415Y1440908D02*
Y1444708D01*
X1726812Y1446079D02*
G03X1726415Y1444708I2172J-1371D01*
G01X1726812Y1446079D02*
G03Y1448181I-1665J1051D01*
G01X1733925Y1448360D02*
G03X1726812Y1448181I-3610J2034D01*
G01X1733925Y1448360D02*
G03X1734054Y1446229I1715J-966D01*
G01X1734552Y1444708D02*
G03X1734054Y1446229I-2568J0D01*
G01X1734552Y1444708D02*
Y1440908D01*
X1734461Y1440229D02*
G03X1734552Y1440908I-2477J679D01*
G01X1734461Y1440229D02*
G03Y1439188I1898J-521D01*
G01X1734527Y1438866D02*
G03X1734461Y1439188I-2543J-358D01*
G01X1734527Y1438866D02*
G03X1734663Y1438374I1950J273D01*
G01X1735021Y1436608D02*
G03X1734663Y1438374I-4537J0D01*
G01X1801894Y1499999D02*
X1846063D01*
X1802292Y1496455D02*
X1846063D01*
X1799796Y1492912D02*
X1846063D01*
X1721654Y1489369D02*
X1846063D01*
X1721654Y1485825D02*
X1846063D01*
X1758449Y1482282D02*
X1846063D01*
X1761877Y1478739D02*
X1846063D01*
X1762000Y1475196D02*
X1846063D01*
X1759262Y1471652D02*
X1846063D01*
X1721654Y1468109D02*
X1846063D01*
X1838134Y1464566D02*
X1846063D01*
X1839210Y1461022D02*
X1846063D01*
X1839210Y1457479D02*
X1846063D01*
X1837027Y1453936D02*
X1846063D01*
X1774511Y1450392D02*
X1846063D01*
X1733749Y1446849D02*
X1846063D01*
X1734552Y1443306D02*
X1846063D01*
X1801998Y1439762D02*
X1846063D01*
X1802235Y1436219D02*
X1846063D01*
X1799378Y1432676D02*
X1846063D01*
X1735021Y1429133D02*
X1846063D01*
X1778478Y1425589D02*
X1846063D01*
X1777502Y1422046D02*
X1846063D01*
X1721654Y1418503D02*
X1846063D01*
X1721654Y1414959D02*
X1846063D01*
X1721654Y1411416D02*
X1846063D01*
X1721654Y1407873D02*
X1846063D01*
X1836008Y1404329D02*
X1846063D01*
X1838002Y1400786D02*
X1846063D01*
X1836004Y1397243D02*
X1846063D01*
X1786115Y1393699D02*
X1846063D01*
X1767556Y1390156D02*
X1846063D01*
X1765545Y1386613D02*
X1846063D01*
X1800062Y1503542D02*
X1846023D01*
X1785930Y1397243D02*
X1831713D01*
X1770182Y1404329D02*
X1831709D01*
X1774699Y1453936D02*
X1830256D01*
X1770367Y1400786D02*
X1829715D01*
X1721654Y1464566D02*
X1829150D01*
X1721654Y1461022D02*
X1828073D01*
X1721654Y1457479D02*
X1828073D01*
X1735021Y1432676D02*
X1794323D01*
X1721654Y1492912D02*
X1793905D01*
X1721693Y1503542D02*
X1793639D01*
X1721654Y1499999D02*
X1791807D01*
X1734392Y1439762D02*
X1791703D01*
X1735021Y1436219D02*
X1791466D01*
X1721654Y1496455D02*
X1791409D01*
X1765872Y1397243D02*
X1778637D01*
X1767046Y1393699D02*
X1778452D01*
X1757217Y1422046D02*
X1771317D01*
X1756245Y1425589D02*
X1770341D01*
X1734458Y1450392D02*
X1767221D01*
X1732465Y1453936D02*
X1767033D01*
X1721654Y1404329D02*
X1762889D01*
X1721654Y1400786D02*
X1762704D01*
X1721654Y1397243D02*
X1762309D01*
X1721654Y1386613D02*
X1757897D01*
X1721654Y1393699D02*
X1756395D01*
X1721654Y1390156D02*
X1755886D01*
X1721654Y1482282D02*
X1754149D01*
X1721654Y1471652D02*
X1753336D01*
X1721654Y1478739D02*
X1750721D01*
X1721654Y1475196D02*
X1750598D01*
X1734672Y1425589D02*
X1750055D01*
X1721654Y1422046D02*
X1749082D01*
X1721654Y1453936D02*
X1728165D01*
X1721654Y1446849D02*
X1727096D01*
X1721654Y1439762D02*
X1726576D01*
X1721654Y1443306D02*
X1726415D01*
X1721654Y1450392D02*
X1726172D01*
X1721654Y1436219D02*
X1725947D01*
X1721654Y1432676D02*
X1725947D01*
X1721654Y1429133D02*
X1725926D01*
X1721704Y1425589D02*
X1725541D01*
G54D37*
X1820247Y1617917D03*
Y1575595D03*
X1668672Y1586421D03*
Y1617917D03*
X1761721Y1391126D03*
X1756299Y1476772D03*
X1574409Y1612992D03*
X1633071Y1540551D03*
X1634646Y1477165D03*
X1659843Y1416142D03*
Y1453543D03*
X1627165Y1498819D03*
G54D41*
X1615354D02*
Y1498986D01*
X1609291*
Y1498989*
G54D73*
X1625147Y1442913D03*
X1618947D03*
X1625147Y1435827D03*
X1618947D03*
X1437159Y1522162D03*
X1443359D03*
X1437082Y1492181D03*
X1443282D03*
X1437035Y1482148D03*
X1443235D03*
X1437274Y1512152D03*
X1443474D03*
X1436927Y1472243D03*
X1443127D03*
X1436664Y1462196D03*
X1442864D03*
X1443426Y1502692D03*
X1437226D03*
X1443257Y1627559D03*
X1437057D03*
X1485483Y1604331D03*
X1491683D03*
X1554281Y1515748D03*
X1548081D03*
G54D81*
X1674222Y1470509D03*
X1666722D03*
X1609291Y1506489D03*
Y1498989D03*
G54D82*
X1670472Y1478509D03*
G54D83*
X1886614Y1450000D03*
X1833642Y1459475D03*
G54D84*
X1660630Y1470472D02*
X1666722D01*
Y1470509*
G54D85*
X1618898Y1430709D02*
Y1435827D01*
X1618947*
Y1442913*
X1422903Y1472169D02*
X1422977Y1472243D01*
X1436927*
X1422903Y1462169D02*
X1430320D01*
X1430347Y1462196*
X1436664*
X1437035Y1482148D02*
X1430530D01*
X1430508Y1482169*
X1422903*
X1460236Y1471260D02*
Y1490965D01*
X1443721Y1507480*
X1442345*
X1437674Y1512152*
X1437274*
X1442864Y1462196D02*
Y1462205D01*
X1450394*
X1443127Y1472243D02*
X1443235Y1472350D01*
Y1482148*
Y1492133*
X1443282Y1492181*
X1510630Y1479528D02*
X1505512D01*
Y1479577*
X1520866Y1466535D02*
X1525197Y1470921D01*
Y1471309*
X1498425Y1479577D02*
X1505512D01*
X1541732Y1448031D02*
X1524887D01*
X1460630Y1512289*
Y1517717*
X1549213Y1456299D02*
X1580236Y1487323D01*
X1585433*
X1539764Y1470916D02*
Y1471318D01*
X1534646*
Y1471654*
X1546850Y1477116D02*
X1546580D01*
Y1482677*
X1546063*
X1612598Y1463386D02*
Y1480009D01*
X1609291Y1483316*
Y1498989*
X1674409Y1470322D02*
X1674222Y1470509D01*
X1670472Y1463780D02*
X1674409Y1467717D01*
Y1470322*
X1422903Y1502169D02*
X1423426Y1502692D01*
X1437226*
X1422903Y1492169D02*
X1430537D01*
X1430549Y1492181*
X1437082*
X1437274Y1512152D02*
X1430595D01*
X1430577Y1512169*
X1422903*
X1437159Y1522162D02*
X1430585D01*
X1430577Y1522169*
X1422903*
X1450394Y1492126D02*
X1443282D01*
Y1492181*
X1451181Y1522047D02*
X1443359D01*
Y1522162*
X1443426Y1502692D02*
X1442803D01*
X1440884Y1505234*
X1439031Y1507087*
X1417986*
X1412903Y1512169*
X1443474Y1512152D02*
Y1512205D01*
X1451181*
X1504724Y1509055D02*
X1513780Y1518110D01*
X1525591*
X1498425Y1485777D02*
X1499213D01*
Y1501181*
X1559449Y1498769D02*
X1558711Y1498031D01*
X1552068*
X1552018Y1498081*
X1552500Y1497500D02*
X1551762Y1496762D01*
Y1497825*
X1552018Y1498081*
X1554281Y1515748D02*
X1559843D01*
X1559449Y1498769D02*
X1566535D01*
Y1492520D02*
Y1492569D01*
X1614961Y1506992D02*
Y1507480D01*
X1609291Y1506489D02*
Y1506992D01*
X1523245Y1563969D02*
X1524906Y1565630D01*
Y1594985*
X1526378Y1596457*
Y1605512*
X1523479Y1533944D02*
X1521464Y1536855D01*
Y1564707*
X1522917Y1530852D02*
X1523479Y1533944D01*
X1530315Y1531102D02*
X1528035Y1534395D01*
X1524944Y1534957*
X1523245Y1537411*
Y1563969*
X1525197Y1527559D02*
X1522917Y1530852D01*
X1523125Y1594985D02*
X1521654Y1596457D01*
Y1600787*
X1521464Y1564707D02*
X1523125Y1566368D01*
Y1594985*
G54D102*
X1437100Y1584947D02*
X1435980Y1586068D01*
X1437100Y1591431D02*
X1435980Y1590310D01*
X1430617Y1591431D02*
X1431737Y1590310D01*
X1430617Y1584947D02*
X1431737Y1586068D01*
X1612218Y1558753D02*
X1611098Y1557633D01*
X1605735Y1558753D02*
X1606855Y1557633D01*
X1605735Y1552270D02*
X1606855Y1553390D01*
X1612218Y1552270D02*
X1611098Y1553390D01*
X1622218Y1558753D02*
X1621098Y1557633D01*
X1615735Y1558753D02*
X1616855Y1557633D01*
X1615735Y1552270D02*
X1616855Y1553390D01*
X1622218Y1552270D02*
X1621098Y1553390D01*
X1453451Y1445446D02*
X1454572Y1444326D01*
X1453451Y1438963D02*
X1454572Y1440083D01*
X1459934Y1438963D02*
X1458814Y1440083D01*
X1459934Y1445446D02*
X1458814Y1444326D01*
X1590066Y1477336D02*
X1591186Y1476216D01*
X1590066Y1470853D02*
X1591186Y1471973D01*
X1596549Y1470853D02*
X1595428Y1471973D01*
X1596549Y1477336D02*
X1595428Y1476216D01*
X1409661Y1545411D02*
X1410782Y1544291D01*
X1416145Y1545411D02*
X1415024Y1544291D01*
X1409661Y1538928D02*
X1410782Y1540048D01*
X1416145Y1538928D02*
X1415024Y1540048D01*
X1409661Y1535411D02*
X1410782Y1534291D01*
X1409661Y1528928D02*
X1410782Y1530048D01*
X1416145Y1528928D02*
X1415024Y1530048D01*
X1416145Y1535411D02*
X1415024Y1534291D01*
X1409661Y1525411D02*
X1410782Y1524291D01*
X1409661Y1518928D02*
X1410782Y1520048D01*
X1416145Y1518928D02*
X1415024Y1520048D01*
X1416145Y1525411D02*
X1415024Y1524291D01*
X1409661Y1515411D02*
X1410782Y1514291D01*
X1409661Y1508928D02*
X1410782Y1510048D01*
X1416145Y1508928D02*
X1415024Y1510048D01*
X1416145Y1515411D02*
X1415024Y1514291D01*
X1409661Y1505411D02*
X1410782Y1504291D01*
X1409661Y1498928D02*
X1410782Y1500048D01*
X1416145Y1498928D02*
X1415024Y1500048D01*
X1416145Y1505411D02*
X1415024Y1504291D01*
X1409661Y1495411D02*
X1410782Y1494291D01*
X1409661Y1488928D02*
X1410782Y1490048D01*
X1416145Y1488928D02*
X1415024Y1490048D01*
X1416145Y1495411D02*
X1415024Y1494291D01*
X1409661Y1485411D02*
X1410782Y1484291D01*
X1409661Y1478928D02*
X1410782Y1480048D01*
X1416145Y1478928D02*
X1415024Y1480048D01*
X1416145Y1485411D02*
X1415024Y1484291D01*
X1409661Y1475411D02*
X1410782Y1474291D01*
X1409661Y1468928D02*
X1410782Y1470048D01*
X1416145Y1468928D02*
X1415024Y1470048D01*
X1416145Y1475411D02*
X1415024Y1474291D01*
X1409661Y1465411D02*
X1410782Y1464291D01*
X1409661Y1458928D02*
X1410782Y1460048D01*
X1416145Y1458928D02*
X1415024Y1460048D01*
X1416145Y1465411D02*
X1415024Y1464291D01*
X1636557Y1544038D02*
X1635437Y1542917D01*
X1629584Y1544038D02*
X1630705Y1542917D01*
X1629584Y1537065D02*
X1630705Y1538185D01*
X1636557Y1537065D02*
X1635437Y1538185D01*
X1665186Y1621404D02*
X1666306Y1620284D01*
X1672159Y1621404D02*
X1671038Y1620284D01*
X1672159Y1614431D02*
X1671038Y1615551D01*
X1665186Y1614431D02*
X1666306Y1615551D01*
X1800788Y1493700D02*
X1798972Y1495516D01*
X1800788Y1501575D02*
X1798972Y1499759D01*
X1792913Y1501575D02*
X1794729Y1499759D01*
X1792913Y1493700D02*
X1794729Y1495516D01*
X1760482Y1480954D02*
X1758666Y1479138D01*
X1752117Y1480954D02*
X1753933Y1479138D01*
X1752117Y1472589D02*
X1753933Y1474405D01*
X1760482Y1472589D02*
X1758666Y1474405D01*
X1528612Y1486486D02*
X1527492Y1485366D01*
X1524144Y1486486D02*
X1525264Y1485366D01*
X1524144Y1482018D02*
X1525264Y1483138D01*
X1528612Y1482018D02*
X1527492Y1483138D01*
X1640029Y1450659D02*
X1638909Y1449539D01*
X1635561Y1450659D02*
X1636682Y1449539D01*
X1635561Y1446191D02*
X1636682Y1447312D01*
X1640029Y1446191D02*
X1638909Y1447312D01*
X1542391Y1495935D02*
X1541271Y1494814D01*
X1537924Y1495935D02*
X1539044Y1494814D01*
X1537924Y1491467D02*
X1539044Y1492587D01*
X1542391Y1491467D02*
X1541271Y1492587D01*
X1599084Y1516407D02*
X1597964Y1515287D01*
X1594617Y1516407D02*
X1595737Y1515287D01*
X1594617Y1511939D02*
X1595737Y1513060D01*
X1599084Y1511939D02*
X1597964Y1513060D01*
X1605383Y1494753D02*
X1604263Y1493633D01*
X1600916Y1494753D02*
X1602036Y1493633D01*
X1600916Y1490286D02*
X1602036Y1491406D01*
X1605383Y1490286D02*
X1604263Y1491406D01*
X1495147Y1523887D02*
X1494027Y1522767D01*
X1490680Y1523887D02*
X1491800Y1522767D01*
X1490680Y1519420D02*
X1491800Y1520540D01*
X1495147Y1519420D02*
X1494027Y1520540D01*
X1551840Y1525856D02*
X1550720Y1524736D01*
X1547373Y1525856D02*
X1548493Y1524736D01*
X1547373Y1521388D02*
X1548493Y1522508D01*
X1551840Y1521388D02*
X1550720Y1522508D01*
X1536092Y1541998D02*
X1534972Y1540877D01*
X1531624Y1541998D02*
X1532745Y1540877D01*
X1531624Y1537530D02*
X1532745Y1538650D01*
X1536092Y1537530D02*
X1534972Y1538650D01*
X1646328Y1467588D02*
X1645208Y1466468D01*
X1641861Y1467588D02*
X1642981Y1466468D01*
X1641861Y1463121D02*
X1642981Y1464241D01*
X1646328Y1463121D02*
X1645208Y1464241D01*
X1569234Y1484734D02*
X1568114Y1483614D01*
X1564766Y1484734D02*
X1565886Y1483614D01*
X1564766Y1480266D02*
X1565886Y1481386D01*
X1598690Y1509320D02*
X1597570Y1508200D01*
X1594223Y1509320D02*
X1595343Y1508200D01*
X1594223Y1504853D02*
X1595343Y1505973D01*
X1515620Y1622706D02*
X1514499Y1621586D01*
X1511152Y1622706D02*
X1512272Y1621586D01*
X1511152Y1618239D02*
X1512272Y1619359D01*
X1515620Y1618239D02*
X1514499Y1619359D01*
X1515620Y1590816D02*
X1514499Y1589696D01*
X1511152Y1590816D02*
X1512272Y1589696D01*
X1511152Y1586349D02*
X1512272Y1587469D01*
X1515620Y1586349D02*
X1514499Y1587469D01*
X1490816Y1599478D02*
X1489696Y1598358D01*
X1486349Y1599478D02*
X1487469Y1598358D01*
X1486349Y1595010D02*
X1487469Y1596131D01*
X1490816Y1595010D02*
X1489696Y1596131D01*
X1569557Y1388454D02*
X1568436Y1387334D01*
X1565089Y1388454D02*
X1566209Y1387334D01*
X1565089Y1383987D02*
X1566209Y1385107D01*
X1569557Y1383987D02*
X1568436Y1385107D01*
X1530974Y1387273D02*
X1529854Y1386153D01*
X1526506Y1387273D02*
X1527627Y1386153D01*
X1526506Y1382806D02*
X1527627Y1383926D01*
X1530974Y1382806D02*
X1529854Y1383926D01*
X1513651Y1430187D02*
X1512531Y1429066D01*
X1509184Y1430187D02*
X1510304Y1429066D01*
X1509184Y1425719D02*
X1510304Y1426839D01*
X1513651Y1425719D02*
X1512531Y1426839D01*
X1490029Y1430187D02*
X1488909Y1429066D01*
X1485561Y1430187D02*
X1486682Y1429066D01*
X1485561Y1425719D02*
X1486682Y1426839D01*
X1490029Y1425719D02*
X1488909Y1426839D01*
X1449478Y1540423D02*
X1448358Y1539303D01*
X1445010Y1540423D02*
X1446131Y1539303D01*
X1445010Y1535955D02*
X1446131Y1537075D01*
X1449478Y1535955D02*
X1448358Y1537075D01*
X1440816Y1551053D02*
X1439696Y1549932D01*
X1436349Y1551053D02*
X1437469Y1549932D01*
X1436349Y1546585D02*
X1437469Y1547705D01*
X1440816Y1546585D02*
X1439696Y1547705D01*
X1449478Y1529399D02*
X1448358Y1528279D01*
X1445010Y1529399D02*
X1446131Y1528279D01*
X1561683Y1489242D02*
X1560562Y1488121D01*
X1557215Y1489242D02*
X1558335Y1488121D01*
X1557215Y1484774D02*
X1558335Y1485894D01*
X1561683Y1484774D02*
X1560562Y1485894D01*
X1563257Y1476643D02*
X1562137Y1475523D01*
X1558790Y1476643D02*
X1559910Y1475523D01*
X1558790Y1472176D02*
X1559910Y1473296D01*
X1556171Y1469163D02*
X1555051Y1468043D01*
X1551703Y1469163D02*
X1552823Y1468043D01*
X1551703Y1464695D02*
X1552823Y1465816D01*
X1545147Y1458533D02*
X1544027Y1457413D01*
X1540680Y1458533D02*
X1541800Y1457413D01*
X1540680Y1454065D02*
X1541800Y1455186D01*
X1545147Y1454065D02*
X1544027Y1455186D01*
X1575856Y1541998D02*
X1574736Y1540877D01*
X1571388Y1541998D02*
X1572508Y1540877D01*
X1571388Y1537530D02*
X1572508Y1538650D01*
X1575856Y1537530D02*
X1574736Y1538650D01*
X1550265Y1582549D02*
X1549145Y1581429D01*
X1545798Y1582549D02*
X1546918Y1581429D01*
X1545798Y1578081D02*
X1546918Y1579201D01*
X1550265Y1578081D02*
X1549145Y1579201D01*
X1564439Y1541998D02*
X1563318Y1540877D01*
X1559971Y1541998D02*
X1561091Y1540877D01*
X1559971Y1537530D02*
X1561091Y1538650D01*
X1564439Y1537530D02*
X1563318Y1538650D01*
X1683336Y1456564D02*
X1682216Y1455444D01*
X1678869Y1456564D02*
X1679989Y1455444D01*
X1678869Y1452097D02*
X1679989Y1453217D01*
X1683336Y1452097D02*
X1682216Y1453217D01*
X1620738Y1611683D02*
X1619617Y1610562D01*
X1616270Y1611683D02*
X1617390Y1610562D01*
X1616270Y1607215D02*
X1617390Y1608335D01*
X1620738Y1607215D02*
X1619617Y1608335D01*
X1634911Y1626643D02*
X1633791Y1625523D01*
X1630443Y1626643D02*
X1631564Y1625523D01*
X1630443Y1622176D02*
X1631564Y1623296D01*
X1634911Y1622176D02*
X1633791Y1623296D01*
X1756079Y1425764D02*
X1754263Y1423948D01*
X1750220Y1425764D02*
X1752036Y1423948D01*
X1750220Y1419905D02*
X1752036Y1421721D01*
X1756079Y1419905D02*
X1754263Y1421721D01*
X1733245Y1453323D02*
X1731429Y1451507D01*
X1727385Y1453323D02*
X1729201Y1451507D01*
X1727385Y1447464D02*
X1729201Y1449280D01*
X1733245Y1447464D02*
X1731429Y1449280D01*
X1785213Y1398205D02*
X1783397Y1396389D01*
X1779354Y1398205D02*
X1781170Y1396389D01*
X1779354Y1392346D02*
X1781170Y1394162D01*
X1785213Y1392346D02*
X1783397Y1394162D01*
X1777339Y1427733D02*
X1775523Y1425917D01*
X1771480Y1427733D02*
X1773296Y1425917D01*
X1771480Y1421873D02*
X1773296Y1423690D01*
X1777339Y1421873D02*
X1775523Y1423690D01*
X1769465Y1405292D02*
X1767649Y1403476D01*
X1763606Y1405292D02*
X1765422Y1403476D01*
X1763606Y1399432D02*
X1765422Y1401249D01*
X1769465Y1399432D02*
X1767649Y1401249D01*
X1836788Y1403717D02*
X1834972Y1401901D01*
X1830929Y1403717D02*
X1832745Y1401901D01*
X1830929Y1397858D02*
X1832745Y1399674D01*
X1836788Y1397858D02*
X1834972Y1399674D01*
X1773796Y1455292D02*
X1771980Y1453476D01*
X1767936Y1455292D02*
X1769753Y1453476D01*
X1767936Y1449432D02*
X1769753Y1451249D01*
X1773796Y1449432D02*
X1771980Y1451249D01*
G54D127*
X1680709Y1426772D02*
Y1437451D01*
X1609291Y1506992D02*
X1614961D01*
X1615354Y1498819D02*
X1627165D01*
X1673603Y1586421D02*
G03X1673603I-4931J0D01*
G01Y1617917D02*
G03X1673603I-4931J0D01*
G01X1640954Y1448425D02*
G03X1640954I-3159J0D01*
G01X1647254Y1465354D02*
G03X1647254I-3160J0D01*
G01X1639576Y1477165D02*
G03X1639576I-4930J0D01*
G01X1638002Y1540551D02*
G03X1638002I-4931J0D01*
G01X1635836Y1624409D02*
G03X1635836I-3159J0D01*
G01X1570482Y1386220D02*
G03X1570482I-3159J0D01*
G01X1531899Y1385039D02*
G03X1531899I-3159J0D01*
G01X1514576Y1427953D02*
G03X1514576I-3159J0D01*
G01X1490954D02*
G03X1490954I-3159J0D01*
G01X1621663Y1609449D02*
G03X1621663I-3159J0D01*
G01X1576781Y1539764D02*
G03X1576781I-3159J0D01*
G01X1579340Y1612992D02*
G03X1579340I-4931J0D01*
G01X1565364Y1539764D02*
G03X1565364I-3159J0D01*
G01X1551191Y1580315D02*
G03X1551191I-3160J0D01*
G01X1543317Y1493701D02*
G03X1543317I-3160J0D01*
G01X1516545Y1588583D02*
G03X1516545I-3159J0D01*
G01Y1620472D02*
G03X1516545I-3159J0D01*
G01X1496072Y1521654D02*
G03X1496072I-3159J0D01*
G01X1450403Y1538189D02*
G03X1450403I-3159J0D01*
G01X1441742Y1548819D02*
G03X1441742I-3159J0D01*
G01X1430679Y1576102D02*
G03X1430679I-7490J0D01*
G01X1664773Y1416142D02*
G03X1664773I-4930J0D01*
G01Y1453543D02*
G03X1664773I-4930J0D01*
G01X1684449Y1457735D02*
Y1636220D01*
G03X1683465Y1637205I-984J0*
G01X1409261*
G03X1408277Y1636220I0J-985*
G01Y1546382*
G03X1409905Y1545638I984J0*
G01X1417019Y1544187D02*
G03X1409905Y1545638I-4116J-2018D01*
G01X1417019Y1544187D02*
G03X1418787I884J434D01*
G01X1424921Y1538053D02*
G03X1418787Y1544187I-2018J4116D01*
G01X1424921Y1538053D02*
G03Y1536286I433J-884D01*
G01Y1528053D02*
G03Y1536286I-2018J4116D01*
G01Y1528053D02*
G03Y1526286I433J-884D01*
G01X1426678Y1524770D02*
G03X1424921Y1526286I-3775J-2601D01*
G01X1426678Y1524770D02*
G03X1427489Y1524344I811J559D01*
G01X1430577*
X1430727Y1524339D02*
G03X1430577Y1524344I-150J-2170D01*
G01X1430727Y1524339D02*
G03X1430795Y1524337I68J982D01*
G01X1433298*
G03X1434050Y1524685I0J984*
G01X1435259Y1525246D02*
G03X1434050Y1524685I0J-1584D01*
G01X1435259Y1525246D02*
X1439059D01*
X1439799Y1525063D02*
G03X1439059Y1525246I-740J-1401D01*
G01X1439799Y1525063D02*
G03X1440719I460J870D01*
G01X1441459Y1525246D02*
G03X1440719Y1525063I0J-1584D01*
G01X1441459Y1525246D02*
X1443208D01*
G03X1444166Y1526453I-0J984*
G01X1450314Y1526421D02*
G03X1444166Y1526453I-3070J744D01*
G01X1450314Y1526421D02*
G03X1451250Y1525206I957J-231D01*
G01X1449137Y1519639D02*
G03X1451250Y1525206I2044J2408D01*
G01X1449137Y1519639D02*
G03X1448500Y1519872I-637J-751D01*
G01X1447117*
G03X1446405Y1519568I-0J-984*
G01X1445259Y1519078D02*
G03X1446405Y1519568I0J1584D01*
G01X1445259Y1519078D02*
X1441459D01*
X1440719Y1519261D02*
G03X1441459Y1519078I740J1401D01*
G01X1440719Y1519261D02*
G03X1439799I-460J-870D01*
G01X1439059Y1519078D02*
G03X1439799Y1519261I0J1584D01*
G01X1439059Y1519078D02*
X1435259D01*
X1434050Y1519639D02*
G03X1435259Y1519078I1209J1023D01*
G01X1434050Y1519639D02*
G03X1433298Y1519987I-752J-636D01*
G01X1430585*
X1430435Y1519992D02*
G03X1430585Y1519987I150J2170D01*
G01X1430435Y1519992D02*
G03X1430368Y1519995I-67J-982D01*
G01X1427489*
G03X1426678Y1519569I-0J-985*
G01X1424921Y1518053D02*
G03X1426678Y1519569I-2018J4116D01*
G01X1424921Y1518053D02*
G03Y1516286I433J-884D01*
G01X1426678Y1514770D02*
G03X1424921Y1516286I-3775J-2601D01*
G01X1426678Y1514770D02*
G03X1427489Y1514344I811J559D01*
G01X1430577*
X1430806Y1514332D02*
G03X1430577Y1514344I-229J-2163D01*
G01X1430806Y1514332D02*
G03X1430909Y1514327I103J979D01*
G01X1433413*
G03X1434164Y1514675I-0J984*
G01X1435374Y1515236D02*
G03X1434164Y1514675I-0J-1584D01*
G01X1435374Y1515236D02*
X1439174D01*
X1439914Y1515053D02*
G03X1439174Y1515236I-740J-1401D01*
G01X1439914Y1515053D02*
G03X1440833I460J870D01*
G01X1441574Y1515236D02*
G03X1440833Y1515053I-0J-1584D01*
G01X1441574Y1515236D02*
X1445374D01*
X1446555Y1514708D02*
G03X1445374Y1515236I-1181J-1056D01*
G01X1446555Y1514708D02*
G03X1447288Y1514380I733J656D01*
G01X1448500*
G03X1449137Y1514613I0J984*
G01Y1509796D02*
G03Y1514613I2044J2409D01*
G01Y1509796D02*
G03X1448500Y1510030I-637J-750D01*
G01X1447378*
G03X1446610Y1509661I-0J-984*
G01X1446378Y1509427D02*
G03X1446610Y1509661I-1004J1225D01*
G01X1446378Y1509427D02*
G03X1446307Y1507970I625J-761D01*
G01X1461774Y1492503*
X1462411Y1490965D02*
G03X1461774Y1492503I-2175J0D01*
G01X1462411Y1490965D02*
Y1473941D01*
G03X1462645Y1473304I984J-0*
G01X1457828D02*
G03X1462645I2408J-2044D01*
G01X1457828D02*
G03X1458061Y1473941I-751J637D01*
G01Y1489657*
G03X1457773Y1490353I-984J-0*
G01X1455232Y1492894*
G03X1453552Y1492181I-696J-696*
G01X1448350Y1489717D02*
G03X1453552Y1492181I2044J2409D01*
G01X1448350Y1489717D02*
G03X1447713Y1489951I-637J-750D01*
G01X1447095*
G03X1446362Y1489624I0J-984*
G01X1445930Y1489284D02*
G03X1446362Y1489624I-748J1397D01*
G01X1445930Y1489284D02*
G03X1445409Y1488416I464J-868D01*
G01Y1485887*
G03X1445911Y1485029I985J-0*
G01X1446719Y1483648D02*
G03X1445911Y1485029I-1584J-0D01*
G01X1446719Y1483648D02*
Y1480648D01*
X1445911Y1479267D02*
G03X1446719Y1480648I-776J1381D01*
G01X1445911Y1479267D02*
G03X1445409Y1478409I483J-858D01*
G01Y1475918*
G03X1445870Y1475085I985J0*
G01X1446612Y1473743D02*
G03X1445870Y1475085I-1585J0D01*
G01X1446612Y1473743D02*
Y1470743D01*
X1445027Y1469159D02*
G03X1446612Y1470743I0J1584D01*
G01X1445027Y1469159D02*
X1441227D01*
X1440487Y1469342D02*
G03X1441227Y1469159I740J1401D01*
G01X1440487Y1469342D02*
G03X1439568I-460J-870D01*
G01X1438827Y1469159D02*
G03X1439568Y1469342I0J1584D01*
G01X1438827Y1469159D02*
X1435027D01*
X1433818Y1469720D02*
G03X1435027Y1469159I1209J1023D01*
G01X1433818Y1469720D02*
G03X1433067Y1470068I-751J-636D01*
G01X1427539*
G03X1426719Y1469629I-0J-984*
G01X1424921Y1468053D02*
G03X1426719Y1469629I-2018J4116D01*
G01X1424921Y1468053D02*
G03Y1466286I433J-884D01*
G01X1426678Y1464770D02*
G03X1424921Y1466286I-3775J-2601D01*
G01X1426678Y1464770D02*
G03X1427489Y1464344I811J559D01*
G01X1429937*
G03X1430064Y1464353I-0J985*
G01X1430347Y1464371D02*
G03X1430065Y1464353I-0J-2175D01*
G01X1430347Y1464371D02*
X1432803D01*
G03X1433554Y1464720I0J984*
G01X1434764Y1465280D02*
G03X1433554Y1464720I-0J-1584D01*
G01X1434764Y1465280D02*
X1438564D01*
X1439304Y1465097D02*
G03X1438564Y1465280I-740J-1401D01*
G01X1439304Y1465097D02*
G03X1440224I460J870D01*
G01X1440964Y1465280D02*
G03X1440224Y1465097I-0J-1584D01*
G01X1440964Y1465280D02*
X1444764D01*
X1445969Y1464725D02*
G03X1444764Y1465280I-1205J-1029D01*
G01X1445969Y1464725D02*
G03X1446717Y1464380I748J639D01*
G01X1447713*
G03X1448350Y1464613I-0J984*
G01Y1459796D02*
G03Y1464613I2044J2409D01*
G01Y1459796D02*
G03X1447713Y1460030I-637J-750D01*
G01X1446732*
G03X1445978Y1459678I-0J-984*
G01X1444764Y1459112D02*
G03X1445978Y1459678I-0J1584D01*
G01X1444764Y1459112D02*
X1440964D01*
X1440224Y1459295D02*
G03X1440964Y1459112I740J1401D01*
G01X1440224Y1459295D02*
G03X1439304I-460J-870D01*
G01X1438564Y1459112D02*
G03X1439304Y1459295I-0J1584D01*
G01X1438564Y1459112D02*
X1434764D01*
X1433554Y1459673D02*
G03X1434764Y1459112I1210J1023D01*
G01X1433554Y1459673D02*
G03X1432803Y1460021I-751J-636D01*
G01X1430730*
G03X1430602Y1460013I0J-984*
G01X1430320Y1459995D02*
G03X1430602Y1460013I0J2174D01*
G01X1430320Y1459995D02*
X1427489D01*
G03X1426678Y1459569I-0J-985*
G01X1424921Y1458053D02*
G03X1426678Y1459569I-2018J4116D01*
G01X1424921Y1458053D02*
G03Y1456286I433J-884D01*
G01X1418787Y1450151D02*
G03X1424921Y1456286I4116J2018D01*
G01X1418787Y1450151D02*
G03X1417019I-884J-433D01*
G01X1409905Y1448701D02*
G03X1417019Y1450151I2998J3468D01*
G01X1409905Y1448701D02*
G03X1408277Y1447957I-644J-744D01*
G01Y1378346*
G03X1409261Y1377362I984J0*
G01X1683465*
G03X1684449Y1378346I-0J984*
G01Y1423678*
G03X1682810Y1424413I-984J-0*
G01X1678000Y1428397D02*
G03X1682810Y1424413I2709J-1625D01*
G01X1678000Y1428397D02*
G03X1678140Y1428904I-844J507D01*
G01Y1434007*
G03X1677943Y1434599I-984J0*
G01X1677624Y1435551D02*
G03X1677943Y1434599I1585J0D01*
G01X1677624Y1435551D02*
Y1439351D01*
X1677808Y1440091D02*
G03X1677624Y1439351I1401J-740D01*
G01X1677808Y1440091D02*
G03Y1441011I-870J460D01*
G01X1677624Y1441751D02*
G03X1677808Y1441011I1585J0D01*
G01X1677624Y1441751D02*
Y1445551D01*
X1679209Y1447135D02*
G03X1677624Y1445551I-0J-1584D01*
G01X1679209Y1447135D02*
X1682209D01*
X1682983Y1446933D02*
G03X1682209Y1447135I-774J-1382D01*
G01X1682983Y1446933D02*
G03X1684449Y1447792I482J859D01*
G01Y1450927*
G03X1682903Y1451735I-984J-0*
G01Y1456926D02*
G03Y1451735I-1801J-2595D01*
G01Y1456926D02*
G03X1684449Y1457735I562J809D01*
G01X1420885Y1456286D02*
G03Y1458053I-433J883D01*
G01X1418787Y1460151D02*
G03X1420885Y1458053I4116J2018D01*
G01X1418787Y1460151D02*
G03X1417019I-884J-433D01*
G01X1414921Y1458053D02*
G03X1417019Y1460151I-2018J4116D01*
G01X1414921Y1458053D02*
G03Y1456286I433J-884D01*
G01X1417019Y1454187D02*
G03X1414921Y1456286I-4116J-2018D01*
G01X1417019Y1454187D02*
G03X1418787I884J434D01*
G01X1420885Y1456286D02*
G03X1418787Y1454187I2018J-4117D01*
G01X1420885Y1466286D02*
G03Y1468053I-433J883D01*
G01X1418787Y1470151D02*
G03X1420885Y1468053I4116J2018D01*
G01X1418787Y1470151D02*
G03X1417019I-884J-433D01*
G01X1414921Y1468053D02*
G03X1417019Y1470151I-2018J4116D01*
G01X1414921Y1468053D02*
G03Y1466286I433J-884D01*
G01X1417019Y1464187D02*
G03X1414921Y1466286I-4116J-2018D01*
G01X1417019Y1464187D02*
G03X1418787I884J434D01*
G01X1420885Y1466286D02*
G03X1418787Y1464187I2018J-4117D01*
G01X1420885Y1476286D02*
G03Y1478053I-433J883D01*
G01X1418787Y1480151D02*
G03X1420885Y1478053I4116J2018D01*
G01X1418787Y1480151D02*
G03X1417019I-884J-433D01*
G01X1414921Y1478053D02*
G03X1417019Y1480151I-2018J4116D01*
G01X1414921Y1478053D02*
G03Y1476286I433J-884D01*
G01X1417019Y1474187D02*
G03X1414921Y1476286I-4116J-2018D01*
G01X1417019Y1474187D02*
G03X1418787I884J434D01*
G01X1420885Y1476286D02*
G03X1418787Y1474187I2018J-4117D01*
G01X1420885Y1486286D02*
G03Y1488053I-433J883D01*
G01X1418787Y1490151D02*
G03X1420885Y1488053I4116J2018D01*
G01X1418787Y1490151D02*
G03X1417019I-884J-433D01*
G01X1414921Y1488053D02*
G03X1417019Y1490151I-2018J4116D01*
G01X1414921Y1488053D02*
G03Y1486286I433J-884D01*
G01X1417019Y1484187D02*
G03X1414921Y1486286I-4116J-2018D01*
G01X1417019Y1484187D02*
G03X1418787I884J434D01*
G01X1420885Y1486286D02*
G03X1418787Y1484187I2018J-4117D01*
G01X1420885Y1496286D02*
G03Y1498053I-433J883D01*
G01X1418787Y1500151D02*
G03X1420885Y1498053I4116J2018D01*
G01X1418787Y1500151D02*
G03X1417019I-884J-433D01*
G01X1414921Y1498053D02*
G03X1417019Y1500151I-2018J4116D01*
G01X1414921Y1498053D02*
G03Y1496286I433J-884D01*
G01X1417019Y1494187D02*
G03X1414921Y1496286I-4116J-2018D01*
G01X1417019Y1494187D02*
G03X1418787I884J434D01*
G01X1420885Y1496286D02*
G03X1418787Y1494187I2018J-4117D01*
G01X1420885Y1506286D02*
G03Y1508053I-433J883D01*
G01X1418787Y1510151D02*
G03X1420885Y1508053I4116J2018D01*
G01X1418787Y1510151D02*
G03X1417019I-884J-433D01*
G01X1414921Y1508053D02*
G03X1417019Y1510151I-2018J4116D01*
G01X1414921Y1508053D02*
G03Y1506286I433J-884D01*
G01X1417019Y1504187D02*
G03X1414921Y1506286I-4116J-2018D01*
G01X1417019Y1504187D02*
G03X1418787I884J434D01*
G01X1420885Y1506286D02*
G03X1418787Y1504187I2018J-4117D01*
G01X1420885Y1516286D02*
G03Y1518053I-433J883D01*
G01X1418787Y1520151D02*
G03X1420885Y1518053I4116J2018D01*
G01X1418787Y1520151D02*
G03X1417019I-884J-433D01*
G01X1414921Y1518053D02*
G03X1417019Y1520151I-2018J4116D01*
G01X1414921Y1518053D02*
G03Y1516286I433J-884D01*
G01X1417019Y1514187D02*
G03X1414921Y1516286I-4116J-2018D01*
G01X1417019Y1514187D02*
G03X1418787I884J434D01*
G01X1420885Y1516286D02*
G03X1418787Y1514187I2018J-4117D01*
G01X1420885Y1526286D02*
G03Y1528053I-433J883D01*
G01X1418787Y1530151D02*
G03X1420885Y1528053I4116J2018D01*
G01X1418787Y1530151D02*
G03X1417019I-884J-433D01*
G01X1414921Y1528053D02*
G03X1417019Y1530151I-2018J4116D01*
G01X1414921Y1528053D02*
G03Y1526286I433J-884D01*
G01X1417019Y1524187D02*
G03X1414921Y1526286I-4116J-2018D01*
G01X1417019Y1524187D02*
G03X1418787I884J434D01*
G01X1420885Y1526286D02*
G03X1418787Y1524187I2018J-4117D01*
G01X1420885Y1536286D02*
G03Y1538053I-433J883D01*
G01X1418787Y1540151D02*
G03X1420885Y1538053I4116J2018D01*
G01X1418787Y1540151D02*
G03X1417019I-884J-433D01*
G01X1414921Y1538053D02*
G03X1417019Y1540151I-2018J4116D01*
G01X1414921Y1538053D02*
G03Y1536286I433J-884D01*
G01X1417019Y1534187D02*
G03X1414921Y1536286I-4116J-2018D01*
G01X1417019Y1534187D02*
G03X1418787I884J434D01*
G01X1420885Y1536286D02*
G03X1418787Y1534187I2018J-4117D01*
G01X1410885Y1456286D02*
G03Y1458053I-433J883D01*
G01X1409905Y1458701D02*
G03X1410885Y1458053I2998J3468D01*
G01X1409905Y1458701D02*
G03X1408277Y1457957I-644J-744D01*
G01Y1456382*
G03X1409905Y1455638I984J0*
G01X1410885Y1456286D02*
G03X1409905Y1455638I2018J-4117D01*
G01X1410885Y1466286D02*
G03Y1468053I-433J883D01*
G01X1409905Y1468701D02*
G03X1410885Y1468053I2998J3468D01*
G01X1409905Y1468701D02*
G03X1408277Y1467957I-644J-744D01*
G01Y1466382*
G03X1409905Y1465638I984J0*
G01X1410885Y1466286D02*
G03X1409905Y1465638I2018J-4117D01*
G01X1410885Y1476286D02*
G03Y1478053I-433J883D01*
G01X1409905Y1478701D02*
G03X1410885Y1478053I2998J3468D01*
G01X1409905Y1478701D02*
G03X1408277Y1477957I-644J-744D01*
G01Y1476382*
G03X1409905Y1475638I984J0*
G01X1410885Y1476286D02*
G03X1409905Y1475638I2018J-4117D01*
G01X1410885Y1486286D02*
G03Y1488053I-433J883D01*
G01X1409905Y1488701D02*
G03X1410885Y1488053I2998J3468D01*
G01X1409905Y1488701D02*
G03X1408277Y1487957I-644J-744D01*
G01Y1486382*
G03X1409905Y1485638I984J0*
G01X1410885Y1486286D02*
G03X1409905Y1485638I2018J-4117D01*
G01X1410885Y1496286D02*
G03Y1498053I-433J883D01*
G01X1409905Y1498701D02*
G03X1410885Y1498053I2998J3468D01*
G01X1409905Y1498701D02*
G03X1408277Y1497957I-644J-744D01*
G01Y1496382*
G03X1409905Y1495638I984J0*
G01X1410885Y1496286D02*
G03X1409905Y1495638I2018J-4117D01*
G01X1410885Y1506286D02*
G03Y1508053I-433J883D01*
G01X1409905Y1508701D02*
G03X1410885Y1508053I2998J3468D01*
G01X1409905Y1508701D02*
G03X1408277Y1507957I-644J-744D01*
G01Y1506382*
G03X1409905Y1505638I984J0*
G01X1410885Y1506286D02*
G03X1409905Y1505638I2018J-4117D01*
G01X1410885Y1516286D02*
G03Y1518053I-433J883D01*
G01X1409905Y1518701D02*
G03X1410885Y1518053I2998J3468D01*
G01X1409905Y1518701D02*
G03X1408277Y1517957I-644J-744D01*
G01Y1516382*
G03X1409905Y1515638I984J0*
G01X1410885Y1516286D02*
G03X1409905Y1515638I2018J-4117D01*
G01X1410885Y1526286D02*
G03Y1528053I-433J883D01*
G01X1409905Y1528701D02*
G03X1410885Y1528053I2998J3468D01*
G01X1409905Y1528701D02*
G03X1408277Y1527957I-644J-744D01*
G01Y1526382*
G03X1409905Y1525638I984J0*
G01X1410885Y1526286D02*
G03X1409905Y1525638I2018J-4117D01*
G01X1410885Y1536286D02*
G03Y1538053I-433J883D01*
G01X1409905Y1538701D02*
G03X1410885Y1538053I2998J3468D01*
G01X1409905Y1538701D02*
G03X1408277Y1537957I-644J-744D01*
G01Y1536382*
G03X1409905Y1535638I984J0*
G01X1410885Y1536286D02*
G03X1409905Y1535638I2018J-4117D01*
G01X1438597Y1505776D02*
G03X1439293Y1507457I0J985D01*
G01X1437970Y1508779*
G03X1437274Y1509068I-696J-696*
G01X1435374*
X1434164Y1509629D02*
G03X1435374Y1509068I1210J1023D01*
G01X1434164Y1509629D02*
G03X1433413Y1509977I-751J-636D01*
G01X1430595*
X1430366Y1509989D02*
G03X1430595Y1509977I229J2163D01*
G01X1430366Y1509989D02*
G03X1430263Y1509995I-103J-979D01*
G01X1427489*
G03X1426678Y1509569I-0J-985*
G01X1424921Y1508053D02*
G03X1426678Y1509569I-2018J4116D01*
G01X1424921Y1508053D02*
G03Y1506286I433J-884D01*
G01X1426342Y1505200D02*
G03X1424921Y1506286I-3439J-3031D01*
G01X1426342Y1505200D02*
G03X1427081Y1504867I739J651D01*
G01X1433365*
G03X1434116Y1505215I-0J984*
G01X1435326Y1505776D02*
G03X1434116Y1505215I-0J-1584D01*
G01X1435326Y1505776D02*
X1438597D01*
X1450448Y1495285D02*
G03X1451161Y1496965I17J984D01*
G01X1447943Y1500183*
G03X1446511Y1500140I-696J-696*
G01X1445326Y1499608D02*
G03X1446511Y1500140I-0J1584D01*
G01X1445326Y1499608D02*
X1441526D01*
X1440786Y1499791D02*
G03X1441526Y1499608I740J1401D01*
G01X1440786Y1499791D02*
G03X1439866I-460J-870D01*
G01X1439126Y1499608D02*
G03X1439866Y1499791I-0J1584D01*
G01X1439126Y1499608D02*
X1435326D01*
X1434116Y1500169D02*
G03X1435326Y1499608I1210J1023D01*
G01X1434116Y1500169D02*
G03X1433365Y1500517I-751J-636D01*
G01X1427808*
G03X1426941Y1499999I-0J-984*
G01X1424921Y1498053D02*
G03X1426941Y1499999I-2018J4116D01*
G01X1424921Y1498053D02*
G03Y1496286I433J-884D01*
G01X1426678Y1494770D02*
G03X1424921Y1496286I-3775J-2601D01*
G01X1426678Y1494770D02*
G03X1427489Y1494344I811J559D01*
G01X1430277*
G03X1430362Y1494348I-0J985*
G01X1430549Y1494356D02*
G03X1430362Y1494348I-0J-2175D01*
G01X1430549Y1494356D02*
X1433222D01*
G03X1433973Y1494704I-0J984*
G01X1435182Y1495265D02*
G03X1433973Y1494704I0J-1584D01*
G01X1435182Y1495265D02*
X1438982D01*
X1439723Y1495082D02*
G03X1438982Y1495265I-741J-1401D01*
G01X1439723Y1495082D02*
G03X1440642I459J870D01*
G01X1441382Y1495265D02*
G03X1440642Y1495082I0J-1584D01*
G01X1441382Y1495265D02*
X1445182D01*
X1446420Y1494670D02*
G03X1445182Y1495265I-1238J-989D01*
G01X1446420Y1494670D02*
G03X1447189Y1494301I769J615D01*
G01X1447713*
G03X1448350Y1494535I-0J984*
G01X1450448Y1495285D02*
G03X1448350Y1494535I-54J-3159D01*
G01X1677607Y1472309D02*
Y1468709D01*
X1676824Y1467343D02*
G03X1677607Y1468709I-802J1366D01*
G01X1676824Y1467343D02*
G03X1676415Y1466875I498J-849D01*
G01X1675947Y1466179D02*
G03X1676415Y1466875I-1538J1538D01*
G01X1675947Y1466179D02*
X1673906Y1464137D01*
G03X1673621Y1463522I696J-696*
G01X1667877Y1465580D02*
G03X1673621Y1463522I2595J-1800D01*
G01X1667877Y1465580D02*
G03X1667068Y1467125I-809J561D01*
G01X1664922*
X1663714Y1467685D02*
G03X1664922Y1467125I1208J1024D01*
G01X1663714Y1467685D02*
G03X1662409Y1467862I-751J-636D01*
G01X1662379Y1473103D02*
G03X1662409Y1467862I-1749J-2631D01*
G01X1662379Y1473103D02*
G03X1663690Y1473305I545J820D01*
G01X1664922Y1473894D02*
G03X1663690Y1473305I0J-1585D01*
G01X1664922Y1473894D02*
X1666367D01*
G03X1667250Y1475312I-0J984*
G01X1667088Y1476009D02*
G03X1667250Y1475312I1584J0D01*
G01X1667088Y1476009D02*
Y1481009D01*
X1668672Y1482594D02*
G03X1667088Y1481009I0J-1585D01*
G01X1668672Y1482594D02*
X1672272D01*
X1673857Y1481009D02*
G03X1672272Y1482594I-1585J0D01*
G01X1673857Y1481009D02*
Y1476009D01*
X1673695Y1475312D02*
G03X1673857Y1476009I-1423J697D01*
G01X1673695Y1475312D02*
G03X1674578Y1473894I883J-434D01*
G01X1676022*
X1677607Y1472309D02*
G03X1676022Y1473894I-1585J0D01*
G01X1673603Y1586421D02*
G03X1673603I-4931J0D01*
G01Y1617917D02*
G03X1673603I-4931J0D01*
G01X1640954Y1448425D02*
G03X1640954I-3159J0D01*
G01X1647254Y1465354D02*
G03X1647254I-3160J0D01*
G01X1639576Y1477165D02*
G03X1639576I-4930J0D01*
G01X1628632Y1444413D02*
Y1441413D01*
X1628007Y1440153D02*
G03X1628632Y1441413I-960J1260D01*
G01X1628007Y1440153D02*
G03Y1438587I597J-783D01*
G01X1628632Y1437327D02*
G03X1628007Y1438587I-1585J-0D01*
G01X1628632Y1437327D02*
Y1434327D01*
X1627047Y1432742D02*
G03X1628632Y1434327I0J1585D01*
G01X1627047Y1432742D02*
X1623247D01*
X1623033Y1432757D02*
G03X1623247Y1432742I214J1570D01*
G01X1623033Y1432757D02*
G03X1621949Y1431527I-133J-975D01*
G01X1616069Y1432116D02*
G03X1621949Y1431527I2829J-1407D01*
G01X1616069Y1432116D02*
G03X1615901Y1433234I-881J438D01*
G01X1615463Y1434327D02*
G03X1615901Y1433234I1584J-0D01*
G01X1615463Y1434327D02*
Y1437327D01*
X1616087Y1438587D02*
G03X1615463Y1437327I960J-1260D01*
G01X1616087Y1438587D02*
G03Y1440153I-596J783D01*
G01X1615463Y1441413D02*
G03X1616087Y1440153I1584J0D01*
G01X1615463Y1441413D02*
Y1444413D01*
X1617047Y1445998D02*
G03X1615463Y1444413I0J-1585D01*
G01X1617047Y1445998D02*
X1620847D01*
X1621587Y1445814D02*
G03X1620847Y1445998I-740J-1401D01*
G01X1621587Y1445814D02*
G03X1622507I460J870D01*
G01X1623247Y1445998D02*
G03X1622507Y1445814I0J-1585D01*
G01X1623247Y1445998D02*
X1627047D01*
X1628632Y1444413D02*
G03X1627047Y1445998I-1585J0D01*
G01X1623223Y1495857D02*
G03Y1501780I3942J2962D01*
G01Y1495857D02*
G03X1622436Y1496250I-787J-591D01*
G01X1617486*
G03X1616980Y1496110I0J-984*
G01X1613767Y1496088D02*
G03X1616980Y1496110I1587J2731D01*
G01X1613767Y1496088D02*
G03X1613272Y1496221I-495J-851D01*
G01X1612761*
G03X1612121Y1495985I-0J-984*
G01X1611930Y1495845D02*
G03X1612121Y1495985I-839J1344D01*
G01X1611930Y1495845D02*
G03X1611466Y1495009I521J-836D01*
G01Y1484624*
G03X1611755Y1483928I985J0*
G01X1614136Y1481547*
X1614773Y1480009D02*
G03X1614136Y1481547I-2175J-0D01*
G01X1614773Y1480009D02*
Y1466067D01*
G03X1615007Y1465430I985J-0*
G01X1610190D02*
G03X1615007I2408J-2044D01*
G01X1610190D02*
G03X1610424Y1466067I-751J637D01*
G01Y1478700*
G03X1610135Y1479396I-985J0*
G01X1607754Y1481778*
X1607117Y1483316D02*
G03X1607754Y1481778I2174J-0D01*
G01X1607117Y1483316D02*
Y1489644D01*
G03X1605424Y1490327I-985J-0*
G01X1604668Y1495290D02*
G03X1605424Y1490327I-1518J-2770D01*
G01X1604668Y1495290D02*
G03X1606042Y1496550I473J863D01*
G01X1605907Y1497189D02*
G03X1606042Y1496550I1584J-0D01*
G01X1605907Y1497189D02*
Y1498633D01*
G03X1604489Y1499517I-984J0*
G01X1603791Y1499355D02*
G03X1604489Y1499517I0J1584D01*
G01X1603791Y1499355D02*
X1598791D01*
X1597207Y1500939D02*
G03X1598791Y1499355I1584J-0D01*
G01X1597207Y1500939D02*
Y1502950D01*
G03X1596278Y1503933I-984J-0*
G01X1594979Y1509879D02*
G03X1596278Y1503933I1478J-2792D01*
G01X1594979Y1509879D02*
G03X1595072Y1511562I-461J870D01*
G01X1598328Y1511381D02*
G03X1595072Y1511562I-1478J2792D01*
G01X1598328Y1511381D02*
G03X1598235Y1509698I461J-870D01*
G01X1599616Y1507102D02*
G03X1598235Y1509698I-3159J-15D01*
G01X1599616Y1507102D02*
G03X1600600Y1506123I984J5D01*
G01X1603791*
X1604489Y1505961D02*
G03X1603791Y1506123I-698J-1422D01*
G01X1604489Y1505961D02*
G03X1605907Y1506845I434J884D01*
G01Y1508289*
X1607491Y1509873D02*
G03X1605907Y1508289I0J-1584D01*
G01X1607491Y1509873D02*
X1611091D01*
X1611791Y1509710D02*
G03X1611091Y1509873I-700J-1421D01*
G01X1611791Y1509710D02*
G03X1612876Y1509854I435J883D01*
G01X1614262Y1504400D02*
G03X1612876Y1509854I699J3080D01*
G01X1614262Y1504400D02*
G03X1614044Y1504424I-218J-960D01*
G01X1613336*
G03X1612476Y1503918I-0J-984*
G01X1612123Y1503486D02*
G03X1612476Y1503918I-1032J1203D01*
G01X1612123Y1503486D02*
G03Y1501992I640J-747D01*
G01X1612125Y1501990D02*
G03X1612123Y1501992I-1034J-1201D01*
G01X1612125Y1501990D02*
G03X1612767Y1501752I642J746D01*
G01X1614004*
G03X1614324Y1501805I-0J984*
G01X1616980Y1501528D02*
G03X1614324Y1501805I-1626J-2709D01*
G01X1616980Y1501528D02*
G03X1617486Y1501387I506J844D01*
G01X1622436*
G03X1623223Y1501780I0J985*
G01X1638002Y1540551D02*
G03X1638002I-4931J0D01*
G01X1635836Y1624409D02*
G03X1635836I-3159J0D01*
G01X1570482Y1386220D02*
G03X1570482I-3159J0D01*
G01X1531899Y1385039D02*
G03X1531899I-3159J0D01*
G01X1514576Y1427953D02*
G03X1514576I-3159J0D01*
G01X1490954D02*
G03X1490954I-3159J0D01*
G01X1458711Y1438088D02*
G03X1454675I-2018J4117D01*
G01X1458711D02*
G03Y1436321I433J-883D01*
G01Y1428088D02*
G03Y1436321I-2018J4117D01*
G01Y1428088D02*
G03Y1426321I433J-883D01*
G01Y1418088D02*
G03Y1426321I-2018J4117D01*
G01Y1418088D02*
G03Y1416321I433J-883D01*
G01X1454675D02*
G03X1458711I2018J-4116D01*
G01X1454675D02*
G03Y1418088I-433J884D01*
G01Y1426321D02*
G03Y1418088I2018J-4116D01*
G01Y1426321D02*
G03Y1428088I-433J884D01*
G01Y1436321D02*
G03Y1428088I2018J-4116D01*
G01Y1436321D02*
G03Y1438088I-433J884D01*
G01X1539688Y1445623D02*
G03Y1450440I2044J2408D01*
G01Y1445623D02*
G03X1539051Y1445857I-637J-751D01*
G01X1524887*
X1523349Y1446494D02*
G03X1524887Y1445857I1538J1537D01*
G01X1523349Y1446494D02*
X1459092Y1510751D01*
X1458455Y1512289D02*
G03X1459092Y1510751I2175J-0D01*
G01X1458455Y1512289D02*
Y1515036D01*
G03X1458221Y1515672I-984J-0*
G01X1463039D02*
G03X1458221I-2409J2045D01*
G01X1463039D02*
G03X1462805Y1515036I750J-636D01*
G01Y1513597*
G03X1463093Y1512901I984J0*
G01X1493904Y1482091*
G03X1495491Y1483204I696J696*
G01X1495341Y1483877D02*
G03X1495491Y1483204I1584J0D01*
G01X1495341Y1483877D02*
Y1487677D01*
X1496388Y1489167D02*
G03X1495341Y1487677I537J-1490D01*
G01X1496388Y1489167D02*
G03X1497038Y1490093I-334J926D01*
G01Y1498500*
G03X1496804Y1499137I-984J0*
G01X1501621D02*
G03X1496804I-2408J2044D01*
G01X1501621D02*
G03X1501387Y1498500I751J-637D01*
G01Y1489654*
G03X1503000Y1488896I985J-0*
G01X1504012Y1489261D02*
G03X1503000Y1488896I-0J-1584D01*
G01X1504012Y1489261D02*
X1507012D01*
X1508596Y1487677D02*
G03X1507012Y1489261I-1584J0D01*
G01X1508596Y1487677D02*
Y1483877D01*
X1508582Y1483663D02*
G03X1508596Y1483877I-1570J214D01*
G01X1508582Y1483663D02*
G03X1509812Y1482579I975J-134D01*
G01X1509223Y1476699D02*
G03X1509812Y1482579I1407J2829D01*
G01X1509223Y1476699D02*
G03X1508105Y1476530I-439J-881D01*
G01X1507012Y1476093D02*
G03X1508105Y1476530I-0J1584D01*
G01X1507012Y1476093D02*
X1504012D01*
X1502751Y1476717D02*
G03X1504012Y1476093I1261J960D01*
G01X1502751Y1476717D02*
G03X1501186I-782J-596D01*
G01X1500977Y1476492D02*
G03X1501186Y1476717I-1052J1185D01*
G01X1500977Y1476492D02*
G03X1500934Y1475060I653J-736D01*
G01X1525500Y1450495*
G03X1526196Y1450206I696J696*
G01X1539051*
G03X1539688Y1450440I0J985*
G01X1587451Y1513207D02*
G03X1583415I-2018J4116D01*
G01X1587451D02*
G03Y1511439I433J-884D01*
G01Y1503207D02*
G03Y1511439I-2018J4116D01*
G01Y1503207D02*
G03Y1501439I433J-884D01*
G01Y1493207D02*
G03Y1501439I-2018J4116D01*
G01Y1493207D02*
G03Y1491439I433J-884D01*
G01X1581905Y1484395D02*
G03X1587451Y1491439I3528J2928D01*
G01X1581905Y1484395D02*
G03X1580452Y1484463I-757J-628D01*
G01X1552646Y1456657*
G03X1552361Y1456041I696J-696*
G01X1546811Y1454247D02*
G03X1552361Y1456041I2402J2052D01*
G01X1546811Y1454247D02*
G03X1545315I-748J-640D01*
G01Y1458352D02*
G03Y1454247I-2402J-2053D01*
G01Y1458352D02*
G03X1546811I748J639D01*
G01X1548955Y1459448D02*
G03X1546811Y1458352I258J-3149D01*
G01X1548955Y1459448D02*
G03X1549570Y1459733I-80J981D01*
G01X1552512Y1462674*
G03X1552320Y1464215I-696J696*
G01X1550778Y1466900D02*
G03X1552320Y1464215I3159J29D01*
G01X1550778Y1466900D02*
G03X1549241Y1467705I-984J-9D01*
G01X1548350Y1467431D02*
G03X1549241Y1467705I0J1585D01*
G01X1548350Y1467431D02*
X1545350D01*
X1544090Y1468056D02*
G03X1545350Y1467431I1260J960D01*
G01X1544090Y1468056D02*
G03X1542524I-783J-597D01*
G01X1541264Y1467431D02*
G03X1542524Y1468056I-0J1585D01*
G01X1541264Y1467431D02*
X1538264D01*
X1536886Y1468234D02*
G03X1538264Y1467431I1378J782D01*
G01X1536886Y1468234D02*
G03X1535701Y1468676I-856J-486D01*
G01X1535446Y1474710D02*
G03X1535701Y1468676I-800J-3056D01*
G01X1535446Y1474710D02*
G03X1536680Y1475662I249J952D01*
G01Y1479016*
X1538264Y1480600D02*
G03X1536680Y1479016I-0J-1584D01*
G01X1538264Y1480600D02*
X1541264D01*
X1541785Y1480512D02*
G03X1541264Y1480600I-521J-1496D01*
G01X1541785Y1480512D02*
G03X1543048Y1481735I323J929D01*
G01X1548977Y1481456D02*
G03X1543048Y1481735I-2914J1221D01*
G01X1548977Y1481456D02*
G03X1549297Y1480286I907J-380D01*
G01X1549935Y1479016D02*
G03X1549297Y1480286I-1585J-0D01*
G01X1549935Y1479016D02*
Y1475216D01*
X1549751Y1474476D02*
G03X1549935Y1475216I-1401J740D01*
G01X1549751Y1474476D02*
G03Y1473556I870J-460D01*
G01X1549935Y1472816D02*
G03X1549751Y1473556I-1585J-0D01*
G01X1549935Y1472816D02*
Y1469768D01*
G03X1551636Y1469094I984J-0*
G01X1556651Y1468546D02*
G03X1551636Y1469094I-2714J-1617D01*
G01X1556651Y1468546D02*
G03X1558192Y1468354I845J504D01*
G01X1559852Y1470015*
G03X1559600Y1471589I-696J696*
G01X1563844Y1475833D02*
G03X1559600Y1471589I-2820J-1424D01*
G01X1563844Y1475833D02*
G03X1565418Y1475581I878J444D01*
G01X1567503Y1477665*
G03X1566853Y1479344I-696J696*
G01X1570156Y1482647D02*
G03X1566853Y1479344I-3156J-147D01*
G01X1570156Y1482647D02*
G03X1571835Y1481997I983J46D01*
G01X1578698Y1488861*
X1580236Y1489498D02*
G03X1578698Y1488861I0J-2175D01*
G01X1580236Y1489498D02*
X1580847D01*
G03X1581658Y1489924I0J984*
G01X1583415Y1491439D02*
G03X1581658Y1489924I2018J-4116D01*
G01X1583415Y1491439D02*
G03Y1493207I-433J884D01*
G01Y1501439D02*
G03Y1493207I2018J-4116D01*
G01Y1501439D02*
G03Y1503207I-433J884D01*
G01Y1511439D02*
G03Y1503207I2018J-4116D01*
G01Y1511439D02*
G03Y1513207I-433J884D01*
G01X1614860Y1553494D02*
G03Y1557530I4116J2018D01*
G01Y1553494D02*
G03X1613093I-884J-433D01*
G01X1604860D02*
G03X1613093I4116J2018D01*
G01X1604860D02*
G03X1603093I-884J-433D01*
G01X1594860D02*
G03X1603093I4116J2018D01*
G01X1594860D02*
G03X1593093I-884J-433D01*
G01Y1557530D02*
G03Y1553494I-4117J-2018D01*
G01Y1557530D02*
G03X1594860I883J433D01*
G01X1603093D02*
G03X1594860I-4117J-2018D01*
G01X1603093D02*
G03X1604860I883J433D01*
G01X1613093D02*
G03X1604860I-4117J-2018D01*
G01X1613093D02*
G03X1614860I883J433D01*
G01X1621663Y1609449D02*
G03X1621663I-3159J0D01*
G01X1576781Y1539764D02*
G03X1576781I-3159J0D01*
G01X1569620Y1500669D02*
Y1496869D01*
X1569436Y1496129D02*
G03X1569620Y1496869I-1401J740D01*
G01X1569436Y1496129D02*
G03Y1495209I870J-460D01*
G01X1569620Y1494469D02*
G03X1569436Y1495209I-1585J0D01*
G01X1569620Y1494469D02*
Y1490669D01*
X1568035Y1489085D02*
G03X1569620Y1490669I0J1584D01*
G01X1568035Y1489085D02*
X1565035D01*
X1563829Y1489643D02*
G03X1565035Y1489085I1206J1026D01*
G01X1563829Y1489643D02*
G03X1562217Y1488531I-750J-638D01*
G01X1556736Y1488627D02*
G03X1562217Y1488531I2713J-1619D01*
G01X1556736Y1488627D02*
G03X1556680Y1489721I-845J505D01*
G01X1556365Y1490669D02*
G03X1556680Y1489721I1584J0D01*
G01X1556365Y1490669D02*
Y1494469D01*
Y1494502D02*
G03Y1494469I1584J-33D01*
G01Y1494502D02*
G03X1554696Y1495229I-984J20D01*
G01X1551008Y1494715D02*
G03X1554696Y1495229I1492J2785D01*
G01X1551008Y1494715D02*
G03X1550923Y1494756I-464J-867D01*
G01X1549756Y1495923D02*
G03X1550923Y1494756I2006J839D01*
G01X1549756Y1495923D02*
G03X1549715Y1496008I-908J-379D01*
G01X1553936Y1500314D02*
G03X1549715Y1496008I-1436J-2814D01*
G01X1553936Y1500314D02*
G03X1554383Y1500206I447J877D01*
G01X1555434*
G03X1556398Y1500991I-0J985*
G01X1557949Y1502254D02*
G03X1556398Y1500991I-0J-1585D01*
G01X1557949Y1502254D02*
X1560949D01*
X1562209Y1501629D02*
G03X1560949Y1502254I-1260J-960D01*
G01X1562209Y1501629D02*
G03X1563775I783J597D01*
G01X1565035Y1502254D02*
G03X1563775Y1501629I0J-1585D01*
G01X1565035Y1502254D02*
X1568035D01*
X1569620Y1500669D02*
G03X1568035Y1502254I-1585J0D01*
G01X1579340Y1612992D02*
G03X1579340I-4931J0D01*
G01X1558223Y1513036D02*
G03Y1518460I1620J2712D01*
G01Y1513036D02*
G03X1557129Y1512979I-504J-846D01*
G01X1556181Y1512664D02*
G03X1557129Y1512979I0J1584D01*
G01X1556181Y1512664D02*
X1552381D01*
X1551641Y1512847D02*
G03X1552381Y1512664I740J1401D01*
G01X1551641Y1512847D02*
G03X1550721I-460J-870D01*
G01X1549981Y1512664D02*
G03X1550721Y1512847I0J1584D01*
G01X1549981Y1512664D02*
X1546181D01*
X1544597Y1514248D02*
G03X1546181Y1512664I1584J0D01*
G01X1544597Y1514248D02*
Y1517248D01*
X1546181Y1518832D02*
G03X1544597Y1517248I0J-1584D01*
G01X1546181Y1518832D02*
X1547968D01*
G03X1548357Y1520721I-0J985*
G01X1550549Y1520607D02*
G03X1548357Y1520721I-943J3015D01*
G01X1550549Y1520607D02*
G03X1550513Y1518740I294J-939D01*
G01X1550721Y1518649D02*
G03X1550513Y1518740I-740J-1401D01*
G01X1550721Y1518649D02*
G03X1551641I460J870D01*
G01X1552381Y1518832D02*
G03X1551641Y1518649I0J-1584D01*
G01X1552381Y1518832D02*
X1556181D01*
X1557129Y1518517D02*
G03X1556181Y1518832I-948J-1269D01*
G01X1557129Y1518517D02*
G03X1558223Y1518460I590J789D01*
G01X1565364Y1539764D02*
G03X1565364I-3159J0D01*
G01X1551191Y1580315D02*
G03X1551191I-3160J0D01*
G01X1543317Y1493701D02*
G03X1543317I-3160J0D01*
G01X1528222Y1481687D02*
G03X1523789Y1482441I-1844J2565D01*
G01X1528222Y1481687D02*
G03X1527992Y1480322I575J-799D01*
G01X1528281Y1479409D02*
G03X1527992Y1480322I-1584J0D01*
G01X1528281Y1479409D02*
Y1475609D01*
X1528098Y1474869D02*
G03X1528281Y1475609I-1401J740D01*
G01X1528098Y1474869D02*
G03Y1473950I870J-460D01*
G01X1528281Y1473209D02*
G03X1528098Y1473950I-1584J0D01*
G01X1528281Y1473209D02*
Y1469409D01*
X1526697Y1467825D02*
G03X1528281Y1469409I-0J1584D01*
G01X1526697Y1467825D02*
X1525608D01*
G03X1524907Y1467533I-0J-984*
G01X1524297Y1466915*
G03X1524016Y1466297I701J-692*
G01X1520589Y1469682D02*
G03X1524016Y1466297I277J-3147D01*
G01X1520589Y1469682D02*
G03X1521202Y1469971I-87J981D01*
G01X1521829Y1470605*
G03X1522113Y1471297I-701J692*
G01Y1473209*
X1522296Y1473950D02*
G03X1522113Y1473209I1401J-741D01*
G01X1522296Y1473950D02*
G03Y1474869I-870J459D01*
G01X1522113Y1475609D02*
G03X1522296Y1474869I1584J0D01*
G01X1522113Y1475609D02*
Y1479409D01*
X1523257Y1480931D02*
G03X1522113Y1479409I440J-1522D01*
G01X1523257Y1480931D02*
G03X1523789Y1482441I-274J946D01*
G01X1523546Y1515702D02*
G03Y1520519I2045J2408D01*
G01Y1515702D02*
G03X1522910Y1515935I-636J-751D01*
G01X1515088*
G03X1514392Y1515647I0J-984*
G01X1508158Y1509413*
G03X1507873Y1508797I696J-696*
G01X1504467Y1512204D02*
G03X1507873Y1508797I257J-3149D01*
G01X1504467Y1512204D02*
G03X1505082Y1512489I-81J981D01*
G01X1512242Y1519648*
X1513780Y1520285D02*
G03X1512242Y1519648I-0J-2175D01*
G01X1513780Y1520285D02*
X1522910D01*
G03X1523546Y1520519I-0J984*
G01X1529551Y1528037D02*
G03X1531132Y1534154I764J3065D01*
G01X1529551Y1528037D02*
G03X1528335Y1527195I-238J-955D01*
G01X1522053Y1527869D02*
G03X1528335Y1527195I3144J-310D01*
G01X1522053Y1527869D02*
G03X1521883Y1528525I-980J96D01*
G01X1521129Y1529614*
X1520777Y1531241D02*
G03X1521129Y1529614I2140J-389D01*
G01X1520777Y1531241D02*
X1521105Y1533045D01*
G03X1520946Y1533782I-968J176*
G01X1519676Y1535617*
X1519289Y1536855D02*
G03X1519676Y1535617I2175J-0D01*
G01X1519289Y1536855D02*
Y1564707D01*
X1519926Y1566244D02*
G03X1519289Y1564707I1538J-1537D01*
G01X1519926Y1566244D02*
X1520662Y1566980D01*
G03X1520950Y1567676I-696J696*
G01Y1593677*
G03X1520662Y1594372I-984J-0*
G01X1520116Y1594919*
X1519479Y1596457D02*
G03X1520116Y1594919I2175J-0D01*
G01X1519479Y1596457D02*
Y1598106D01*
G03X1519245Y1598743I-985J0*
G01X1522133Y1603910D02*
G03X1519245Y1598743I-479J-3123D01*
G01X1522133Y1603910D02*
G03X1523256Y1605032I150J973D01*
G01X1528787Y1603468D02*
G03X1523256Y1605032I-2409J2044D01*
G01X1528787Y1603468D02*
G03X1528553Y1602831I750J-637D01*
G01Y1596457*
X1527916Y1594919D02*
G03X1528553Y1596457I-1538J1538D01*
G01X1527916Y1594919D02*
X1527369Y1594372D01*
G03X1527081Y1593677I696J-695*
G01Y1565630*
X1526444Y1564092D02*
G03X1527081Y1565630I-1538J1538D01*
G01X1526444Y1564092D02*
X1525708Y1563356D01*
G03X1525420Y1562660I696J-696*
G01Y1561385*
G03X1527053Y1560644I984J-0*
G01Y1555891D02*
G03Y1560644I2081J2377D01*
G01Y1555891D02*
G03X1525420Y1555151I-649J-740D01*
G01Y1538398*
G03X1525595Y1537838I984J-0*
G01X1525987Y1537271*
G03X1526620Y1536863I809J561*
G01X1528424Y1536535*
X1529823Y1535633D02*
G03X1528424Y1536535I-1788J-1238D01*
G01X1529823Y1535633D02*
X1530577Y1534545D01*
G03X1531132Y1534154I809J560*
G01X1534472Y1542863D02*
G03X1535646Y1542368I-614J-3099D01*
G01X1534472Y1542863D02*
G03X1535231Y1543025I191J965D01*
X1535646Y1542368I972J155*
G01X1536394Y1544145D02*
G03X1535220Y1544640I614J3099D01*
G01X1536394Y1544145D02*
G03X1535635Y1543983I-191J-965D01*
X1535220Y1544640I-972J-155*
G01X1516545Y1588583D02*
G03X1516545I-3159J0D01*
G01Y1620472D02*
G03X1516545I-3159J0D01*
G01X1496072Y1521654D02*
G03X1496072I-3159J0D01*
G01X1495235Y1608711D02*
Y1604331D01*
X1495182Y1603716D02*
G03X1495235Y1604331I-3499J615D01*
G01X1495182Y1603716D02*
G03X1495167Y1603545I969J-171D01*
G01Y1602831*
X1493652Y1601248D02*
G03X1495167Y1602831I-69J1583D01*
G01X1493652Y1601248D02*
G03X1493259Y1601147I44J-983D01*
G01X1491811Y1600780D02*
G03X1493259Y1601147I-128J3551D01*
G01X1491811Y1600780D02*
G03X1491071Y1599190I35J-983D01*
G01X1486418Y1599545D02*
G03X1491071Y1599190I2165J-2301D01*
G01X1486418Y1599545D02*
G03X1485744Y1601246I-674J717D01*
G01X1483583*
X1481998Y1602831D02*
G03X1483583Y1601246I1585J-0D01*
G01X1481998Y1602831D02*
Y1605831D01*
X1483583Y1607415D02*
G03X1481998Y1605831I-0J-1584D01*
G01X1483583Y1607415D02*
X1485578D01*
G03X1486274Y1609095I0J984*
G01X1486070Y1609299*
X1491095Y1614323D02*
G03X1486070Y1609299I-2512J-2512D01*
G01X1491095Y1614323D02*
X1494195Y1611223D01*
X1495235Y1608711D02*
G03X1494195Y1611223I-3552J0D01*
G01X1450403Y1538189D02*
G03X1450403I-3159J0D01*
G01X1441742Y1548819D02*
G03X1441742I-3159J0D01*
G01X1430679Y1576102D02*
G03X1430679I-7490J0D01*
G01X1436003Y1611697D02*
G03X1431713I-2145J4051D01*
G01X1436003D02*
G03Y1609957I461J-870D01*
G01X1437100Y1602664D02*
G03X1436003Y1609957I-3242J3242D01*
G01X1437100Y1602664D02*
G03Y1601273I696J-695D01*
G01X1436003Y1593980D02*
G03X1437100Y1601273I-2145J4051D01*
G01X1436003Y1593980D02*
G03Y1592240I461J-870D01*
G01X1431713D02*
G03X1436003I2145J-4051D01*
G01X1431713D02*
G03Y1593980I-460J870D01*
G01X1430616Y1601273D02*
G03X1431713Y1593980I3242J-3242D01*
G01X1430616Y1601273D02*
G03Y1602664I-696J696D01*
G01X1431713Y1609957D02*
G03X1430616Y1602664I2145J-4051D01*
G01X1431713Y1609957D02*
G03Y1611697I-460J870D01*
G01X1446742Y1629059D02*
Y1626059D01*
X1445157Y1624475D02*
G03X1446742Y1626059I0J1584D01*
G01X1445157Y1624475D02*
X1441357D01*
X1440617Y1624658D02*
G03X1441357Y1624475I740J1401D01*
G01X1440617Y1624658D02*
G03X1439698I-460J-870D01*
G01X1439027Y1624476D02*
G03X1439698Y1624658I-70J1583D01*
G01X1439027Y1624476D02*
G03X1438634Y1624375I43J-983D01*
G01X1437057Y1624006D02*
G03X1438634Y1624375I0J3553D01*
G01X1437057Y1624006D02*
X1429536D01*
G03X1428634Y1623416I-0J-984*
G01X1427331Y1631436D02*
G03X1428634Y1623416I-5559J-5019D01*
G01X1427331Y1631437D02*
G03X1428061Y1631112I730J659D01*
G01X1437057*
X1438634Y1630743D02*
G03X1437057Y1631112I-1577J-3184D01*
G01X1438634Y1630743D02*
G03X1439027Y1630642I436J882D01*
G01X1439698Y1630460D02*
G03X1439027Y1630642I-741J-1401D01*
G01X1439698Y1630460D02*
G03X1440617I459J870D01*
G01X1441357Y1630643D02*
G03X1440617Y1630460I0J-1584D01*
G01X1441357Y1630643D02*
X1445157D01*
X1446742Y1629059D02*
G03X1445157Y1630643I-1585J0D01*
G01X1595325Y1469978D02*
G03X1591289I-2018J4116D01*
G01X1595325D02*
G03Y1468211I433J-884D01*
G01Y1459978D02*
G03Y1468211I-2018J4116D01*
G01Y1459978D02*
G03Y1458211I433J-884D01*
G01Y1449978D02*
G03Y1458211I-2018J4116D01*
G01Y1449978D02*
G03Y1448211I433J-884D01*
G01X1591289D02*
G03X1595325I2018J-4117D01*
G01X1591289D02*
G03Y1449978I-433J883D01*
G01Y1458211D02*
G03Y1449978I2018J-4117D01*
G01Y1458211D02*
G03Y1459978I-433J883D01*
G01Y1468211D02*
G03Y1459978I2018J-4117D01*
G01Y1468211D02*
G03Y1469978I-433J883D01*
G01X1664773Y1416142D02*
G03X1664773I-4930J0D01*
G01Y1453543D02*
G03X1664773I-4930J0D01*
G01X1425325Y1496062D02*
X1451428D01*
X1424628Y1497833D02*
X1450293D01*
X1426703Y1499605D02*
X1448521D01*
X1424494Y1506692D02*
X1439579D01*
X1425601Y1508463D02*
X1438287D01*
X1426762Y1504920D02*
X1433684D01*
X1408277Y1536810D02*
X1411368D01*
X1408501Y1538581D02*
X1410050D01*
X1408277Y1527951D02*
X1411049D01*
X1408298Y1526180D02*
X1410682D01*
X1408277Y1517322D02*
X1411424D01*
X1408736Y1515550D02*
X1409787D01*
X1408277Y1506692D02*
X1411312D01*
X1408418Y1508463D02*
X1410205D01*
X1408277Y1497833D02*
X1411178D01*
X1408331Y1496062D02*
X1410481D01*
X1408277Y1487203D02*
X1411435D01*
X1409006Y1485432D02*
X1409517D01*
X1408277Y1476573D02*
X1411235D01*
X1408357Y1478345D02*
X1410375D01*
X1408277Y1467715D02*
X1411271D01*
X1408380Y1465944D02*
X1410301D01*
X1408277Y1457085D02*
X1411432D01*
X1408864Y1458857D02*
X1409659D01*
X1414438Y1536810D02*
X1421368D01*
X1415756Y1538581D02*
X1420050D01*
X1416479Y1535038D02*
X1419327D01*
X1417151Y1540353D02*
X1418655D01*
X1414757Y1527951D02*
X1421049D01*
X1415124Y1526180D02*
X1420682D01*
X1416780Y1529723D02*
X1419026D01*
X1416903Y1524408D02*
X1418903D01*
X1414382Y1517322D02*
X1421424D01*
X1416000Y1515550D02*
X1419806D01*
X1416302Y1519093D02*
X1419504D01*
X1417394Y1513778D02*
X1418412D01*
X1414494Y1506692D02*
X1421312D01*
X1415601Y1508463D02*
X1420205D01*
X1416570Y1504920D02*
X1419236D01*
X1417065Y1510235D02*
X1418741D01*
X1414628Y1497833D02*
X1421178D01*
X1415325Y1496062D02*
X1420481D01*
X1416703Y1499605D02*
X1419103D01*
X1416967Y1494290D02*
X1418839D01*
X1414371Y1487203D02*
X1421435D01*
X1416124Y1485432D02*
X1419682D01*
X1416191Y1488975D02*
X1419615D01*
X1417688Y1483660D02*
X1418118D01*
X1414571Y1476573D02*
X1421235D01*
X1415431Y1478345D02*
X1420375D01*
X1416656Y1474802D02*
X1419150D01*
X1417002Y1480117D02*
X1418804D01*
X1414535Y1467715D02*
X1421271D01*
X1415505Y1465944D02*
X1420301D01*
X1416620Y1469487D02*
X1419186D01*
X1417027Y1464172D02*
X1418779D01*
X1414374Y1457085D02*
X1421432D01*
X1416072Y1458857D02*
X1419734D01*
X1416239Y1455314D02*
X1419567D01*
X1417529Y1460629D02*
X1418277D01*
X1408277Y1636022D02*
X1684449D01*
X1408277Y1634251D02*
X1684449D01*
X1426171Y1632479D02*
X1684449D01*
X1438715Y1630707D02*
X1684449D01*
X1446742Y1628936D02*
X1684449D01*
X1634224Y1627164D02*
X1684449D01*
X1635679Y1625392D02*
X1684449D01*
X1635736Y1623621D02*
X1684449D01*
X1671648Y1621849D02*
X1684449D01*
X1673105Y1620077D02*
X1684449D01*
X1673588Y1618306D02*
X1684449D01*
X1673405Y1616534D02*
X1684449D01*
X1672461Y1614762D02*
X1684449D01*
X1668873Y1612991D02*
X1684449D01*
X1621120Y1611219D02*
X1684449D01*
X1621663Y1609448D02*
X1684449D01*
X1621119Y1607676D02*
X1684449D01*
X1529513Y1605904D02*
X1684449D01*
X1529220Y1604133D02*
X1684449D01*
X1528553Y1602361D02*
X1684449D01*
X1528553Y1600589D02*
X1684449D01*
X1528553Y1598818D02*
X1684449D01*
X1528553Y1597046D02*
X1684449D01*
X1528203Y1595274D02*
X1684449D01*
X1527081Y1593503D02*
X1684449D01*
X1527081Y1591731D02*
X1684449D01*
X1672107Y1589959D02*
X1684449D01*
X1673276Y1588188D02*
X1684449D01*
X1673603Y1586416D02*
X1684449D01*
X1673271Y1584644D02*
X1684449D01*
X1672095Y1582873D02*
X1684449D01*
X1551091Y1581101D02*
X1684449D01*
X1551033Y1579329D02*
X1684449D01*
X1549573Y1577558D02*
X1684449D01*
X1527081Y1575786D02*
X1684449D01*
X1527081Y1574014D02*
X1684449D01*
X1527081Y1572243D02*
X1684449D01*
X1527081Y1570471D02*
X1684449D01*
X1527081Y1568699D02*
X1684449D01*
X1527081Y1566928D02*
X1684449D01*
X1527029Y1565156D02*
X1684449D01*
X1525736Y1563385D02*
X1684449D01*
X1525420Y1561613D02*
X1684449D01*
X1620484Y1559841D02*
X1684449D01*
X1622781Y1558070D02*
X1684449D01*
X1623493Y1556298D02*
X1684449D01*
X1623453Y1554526D02*
X1684449D01*
X1622639Y1552755D02*
X1684449D01*
X1619687Y1550983D02*
X1684449D01*
X1539480Y1549211D02*
X1684449D01*
X1540161Y1547440D02*
X1684449D01*
X1539746Y1545668D02*
X1684449D01*
X1636693Y1543896D02*
X1684449D01*
X1637744Y1542125D02*
X1684449D01*
X1637998Y1540353D02*
X1684449D01*
X1637591Y1538581D02*
X1684449D01*
X1636282Y1536810D02*
X1684449D01*
X1530235Y1535038D02*
X1684449D01*
X1532616Y1533266D02*
X1684449D01*
X1533450Y1531495D02*
X1684449D01*
X1533157Y1529723D02*
X1684449D01*
X1530542Y1527951D02*
X1684449D01*
X1551460Y1526180D02*
X1684449D01*
X1552666Y1524408D02*
X1684449D01*
X1552608Y1522636D02*
X1684449D01*
X1588343Y1520865D02*
X1684449D01*
X1589662Y1519093D02*
X1684449D01*
X1597111Y1517322D02*
X1684449D01*
X1599694Y1515550D02*
X1684449D01*
X1599985Y1513778D02*
X1684449D01*
X1599149Y1512007D02*
X1684449D01*
X1616507Y1510235D02*
X1684449D01*
X1617963Y1508463D02*
X1684449D01*
X1618020Y1506692D02*
X1684449D01*
X1616811Y1504920D02*
X1684449D01*
X1629525Y1503148D02*
X1684449D01*
X1631381Y1501377D02*
X1684449D01*
X1632033Y1499605D02*
X1684449D01*
X1631997Y1497833D02*
X1684449D01*
X1631253Y1496062D02*
X1684449D01*
X1629115Y1494290D02*
X1684449D01*
X1611466Y1492518D02*
X1684449D01*
X1611466Y1490747D02*
X1684449D01*
X1611466Y1488975D02*
X1684449D01*
X1611466Y1487203D02*
X1684449D01*
X1611466Y1485432D02*
X1684449D01*
X1612023Y1483660D02*
X1684449D01*
X1673590Y1481888D02*
X1684449D01*
X1673857Y1480117D02*
X1684449D01*
X1673857Y1478345D02*
X1684449D01*
X1673857Y1476573D02*
X1684449D01*
X1673597Y1474802D02*
X1684449D01*
X1677433Y1473030D02*
X1684449D01*
X1677607Y1471259D02*
X1684449D01*
X1677607Y1469487D02*
X1684449D01*
X1677256Y1467715D02*
X1684449D01*
X1675712Y1465944D02*
X1684449D01*
X1673940Y1464172D02*
X1684449D01*
X1673315Y1462400D02*
X1684449D01*
X1670699Y1460629D02*
X1684449D01*
X1594803Y1458857D02*
X1684449D01*
X1663270Y1449999D02*
X1684449D01*
X1640948Y1448227D02*
X1684449D01*
X1461112Y1423424D02*
X1684449D01*
X1461244Y1421652D02*
X1684449D01*
X1663057Y1419881D02*
X1684449D01*
X1664364Y1418109D02*
X1684449D01*
X1664769Y1416337D02*
X1684449D01*
X1664515Y1414566D02*
X1684449D01*
X1663463Y1412794D02*
X1684449D01*
X1461122Y1411022D02*
X1684449D01*
X1460198Y1409251D02*
X1684449D01*
X1408277Y1407479D02*
X1684449D01*
X1408277Y1405707D02*
X1684449D01*
X1408277Y1403936D02*
X1684449D01*
X1408277Y1402164D02*
X1684449D01*
X1408277Y1400392D02*
X1684449D01*
X1408277Y1398621D02*
X1684449D01*
X1408277Y1396849D02*
X1684449D01*
X1408277Y1395077D02*
X1684449D01*
X1408277Y1393306D02*
X1684449D01*
X1408277Y1391534D02*
X1684449D01*
X1408277Y1389762D02*
X1684449D01*
X1569939Y1387991D02*
X1684449D01*
X1570482Y1386219D02*
X1684449D01*
X1569937Y1384448D02*
X1684449D01*
X1530836Y1382676D02*
X1684449D01*
X1408277Y1380904D02*
X1684449D01*
X1408277Y1379133D02*
X1684449D01*
X1682649Y1457085D02*
X1684204D01*
X1682958Y1451770D02*
X1683972D01*
X1663273Y1457085D02*
X1679556D01*
X1664443Y1451770D02*
X1679252D01*
X1622052Y1432282D02*
X1678140D01*
X1622050Y1430510D02*
X1678140D01*
X1628608Y1434054D02*
X1678139D01*
X1621367Y1428739D02*
X1678126D01*
X1664444Y1455314D02*
X1678100D01*
X1664773Y1453542D02*
X1678043D01*
X1512959Y1425196D02*
X1677971D01*
X1640265Y1446455D02*
X1677908D01*
X1628608Y1441140D02*
X1677747D01*
X1627619Y1439369D02*
X1677624D01*
X1628608Y1444684D02*
X1677624D01*
X1628632Y1442912D02*
X1677624D01*
X1628608Y1437597D02*
X1677624D01*
X1628632Y1435825D02*
X1677624D01*
X1514419Y1426967D02*
X1677556D01*
X1614140Y1460629D02*
X1670246D01*
X1579340Y1612991D02*
X1668471D01*
X1647198Y1465944D02*
X1668032D01*
X1645214Y1462400D02*
X1667630D01*
X1636061Y1481888D02*
X1667354D01*
X1638973Y1474802D02*
X1667348D01*
X1647024Y1464172D02*
X1667338D01*
X1638595Y1480117D02*
X1667088D01*
X1639433Y1478345D02*
X1667088D01*
X1639541Y1476573D02*
X1667088D01*
X1634528Y1621849D02*
X1665696D01*
X1549886Y1582873D02*
X1665249D01*
X1527081Y1589959D02*
X1665238D01*
X1579011Y1614762D02*
X1664883D01*
X1516520Y1620077D02*
X1664240D01*
X1527081Y1584644D02*
X1664073D01*
X1527081Y1588188D02*
X1664069D01*
X1577840Y1616534D02*
X1663939D01*
X1515685Y1618306D02*
X1663757D01*
X1527081Y1586416D02*
X1663741D01*
X1662172Y1467715D02*
X1663687D01*
X1662509Y1473030D02*
X1663339D01*
X1646194Y1467715D02*
X1659088D01*
X1637331Y1473030D02*
X1658776D01*
X1614773Y1469487D02*
X1657629D01*
X1614773Y1471259D02*
X1657570D01*
X1460644Y1419881D02*
X1656628D01*
X1640535Y1449999D02*
X1656415D01*
X1596781Y1457085D02*
X1656412D01*
X1461239Y1412794D02*
X1656223D01*
X1458752Y1418109D02*
X1655321D01*
X1597259Y1451770D02*
X1655242D01*
X1597726Y1455314D02*
X1655241D01*
X1460623Y1414566D02*
X1655170D01*
X1458679Y1416337D02*
X1654916D01*
X1597858Y1453542D02*
X1654912D01*
X1615600Y1462400D02*
X1642975D01*
X1614773Y1467715D02*
X1641995D01*
X1615658Y1464172D02*
X1641165D01*
X1614781Y1465944D02*
X1640991D01*
X1597237Y1446455D02*
X1635326D01*
X1595366Y1449999D02*
X1635056D01*
X1595293Y1448227D02*
X1634642D01*
X1613795Y1481888D02*
X1633230D01*
X1614773Y1473030D02*
X1631960D01*
X1446742Y1627164D02*
X1631131D01*
X1516229Y1621849D02*
X1630827D01*
X1614771Y1480117D02*
X1630696D01*
X1614773Y1474802D02*
X1630318D01*
X1574742Y1536810D02*
X1629859D01*
X1614773Y1478345D02*
X1629858D01*
X1614773Y1476573D02*
X1629751D01*
X1446595Y1625392D02*
X1629675D01*
X1513647Y1623621D02*
X1629618D01*
X1525420Y1543896D02*
X1629448D01*
X1576551Y1538581D02*
X1628551D01*
X1575721Y1542125D02*
X1628398D01*
X1576726Y1540353D02*
X1628144D01*
X1611466Y1494290D02*
X1625216D01*
X1611868Y1503148D02*
X1624806D01*
X1616896Y1496062D02*
X1623016D01*
X1609687Y1550983D02*
X1618266D01*
X1610484Y1559841D02*
X1617469D01*
X1460295Y1439369D02*
X1616475D01*
X1514477Y1428739D02*
X1616428D01*
X1461277Y1432282D02*
X1616134D01*
X1528679Y1607676D02*
X1615889D01*
X1579010Y1611219D02*
X1615888D01*
X1513271Y1430510D02*
X1615745D01*
X1596813Y1441140D02*
X1615487D01*
X1460888Y1434054D02*
X1615487D01*
X1597853Y1444684D02*
X1615486D01*
X1458241Y1437597D02*
X1615486D01*
X1597736Y1442912D02*
X1615463D01*
X1459505Y1435825D02*
X1615463D01*
X1577837Y1609448D02*
X1615345D01*
X1612639Y1552755D02*
X1615314D01*
X1612781Y1558070D02*
X1615172D01*
X1612224Y1496062D02*
X1613812D01*
X1597844Y1510235D02*
X1613414D01*
X1596308Y1460629D02*
X1611057D01*
X1595024Y1478345D02*
X1610424D01*
X1597163Y1476573D02*
X1610424D01*
X1597836Y1474802D02*
X1610424D01*
X1597766Y1473030D02*
X1610424D01*
X1596909Y1471259D02*
X1610424D01*
X1594856Y1469487D02*
X1610424D01*
X1596119Y1467715D02*
X1610424D01*
X1597502Y1465944D02*
X1610416D01*
X1597567Y1462400D02*
X1609597D01*
X1597891Y1464172D02*
X1609539D01*
X1576106Y1480117D02*
X1609415D01*
X1599687Y1550983D02*
X1608266D01*
X1577878Y1481888D02*
X1607651D01*
X1600484Y1559841D02*
X1607469D01*
X1589709Y1488975D02*
X1607117D01*
X1590016Y1487203D02*
X1607117D01*
X1589609Y1485432D02*
X1607117D01*
X1588190Y1483660D02*
X1607117D01*
X1589840Y1496062D02*
X1606121D01*
X1599300Y1508463D02*
X1605917D01*
X1589989Y1497833D02*
X1605907D01*
X1599708Y1506692D02*
X1605895D01*
X1602639Y1552755D02*
X1605314D01*
X1602781Y1558070D02*
X1605172D01*
X1604768Y1499605D02*
X1605078D01*
X1588481Y1490747D02*
X1600535D01*
X1588871Y1494290D02*
X1600533D01*
X1586920Y1492518D02*
X1599991D01*
X1589687Y1550983D02*
X1598266D01*
X1589409Y1499605D02*
X1597937D01*
X1590484Y1559841D02*
X1597469D01*
X1587574Y1501377D02*
X1597207D01*
X1587348Y1503148D02*
X1597187D01*
X1590017Y1517322D02*
X1596590D01*
X1588974Y1510235D02*
X1595358D01*
X1592639Y1552755D02*
X1595314D01*
X1592781Y1558070D02*
X1595172D01*
X1586952Y1512007D02*
X1594551D01*
X1589337Y1504920D02*
X1594158D01*
X1589661Y1515550D02*
X1594007D01*
X1588340Y1513778D02*
X1593716D01*
X1589873Y1508463D02*
X1593613D01*
X1589974Y1506692D02*
X1593322D01*
X1554846Y1458857D02*
X1591811D01*
X1565476Y1469487D02*
X1591759D01*
X1574334Y1478345D02*
X1591590D01*
X1544885Y1448227D02*
X1591321D01*
X1544204Y1449999D02*
X1591248D01*
X1563704Y1467715D02*
X1590495D01*
X1556618Y1460629D02*
X1590307D01*
X1553074Y1457085D02*
X1589833D01*
X1461152Y1441140D02*
X1589802D01*
X1567248Y1471259D02*
X1589705D01*
X1572563Y1476573D02*
X1589451D01*
X1544470Y1446455D02*
X1589377D01*
X1524224Y1451770D02*
X1589356D01*
X1561933Y1465944D02*
X1589112D01*
X1558389Y1462400D02*
X1589047D01*
X1552214Y1455314D02*
X1588888D01*
X1461222Y1442912D02*
X1588878D01*
X1569019Y1473030D02*
X1588848D01*
X1570791Y1474802D02*
X1588778D01*
X1460549Y1444684D02*
X1588761D01*
X1550755Y1453542D02*
X1588756D01*
X1560161Y1464172D02*
X1588723D01*
X1525420Y1550983D02*
X1588266D01*
X1531873Y1559841D02*
X1587469D01*
X1525420Y1552755D02*
X1585314D01*
X1532287Y1558070D02*
X1585172D01*
X1525420Y1554526D02*
X1584499D01*
X1531604Y1556298D02*
X1584460D01*
X1569620Y1492518D02*
X1583946D01*
X1510752Y1512007D02*
X1583914D01*
X1501684Y1503148D02*
X1583518D01*
X1569453Y1501377D02*
X1583292D01*
X1579649Y1483660D02*
X1582676D01*
X1562312Y1513778D02*
X1582526D01*
X1551148Y1520865D02*
X1582523D01*
X1569620Y1490747D02*
X1582385D01*
X1569620Y1494290D02*
X1581995D01*
X1508980Y1510235D02*
X1581893D01*
X1471074Y1504920D02*
X1581529D01*
X1569620Y1499605D02*
X1581457D01*
X1562995Y1515550D02*
X1581206D01*
X1550044Y1519093D02*
X1581204D01*
X1569404Y1496062D02*
X1581026D01*
X1507828Y1508463D02*
X1580993D01*
X1506820Y1506692D02*
X1580892D01*
X1569620Y1497833D02*
X1580877D01*
X1562582Y1517322D02*
X1580849D01*
X1562095Y1488975D02*
X1578822D01*
X1562602Y1487203D02*
X1577041D01*
X1568177Y1485432D02*
X1575269D01*
X1569938Y1483660D02*
X1573498D01*
X1563324Y1536810D02*
X1572503D01*
X1570572Y1481888D02*
X1571706D01*
X1564304Y1542125D02*
X1571523D01*
X1495158Y1609448D02*
X1570982D01*
X1438375Y1616534D02*
X1570979D01*
X1565134Y1538581D02*
X1570693D01*
X1565308Y1540353D02*
X1570518D01*
X1494199Y1611219D02*
X1569809D01*
X1490560Y1614762D02*
X1569807D01*
X1492427Y1612991D02*
X1569479D01*
X1549935Y1478345D02*
X1567791D01*
X1563325Y1476573D02*
X1566411D01*
X1562187Y1485432D02*
X1565823D01*
X1549490Y1480117D02*
X1564926D01*
X1531843Y1384448D02*
X1564708D01*
X1529867Y1387991D02*
X1564706D01*
X1531671Y1386219D02*
X1564164D01*
X1549065Y1483660D02*
X1564062D01*
X1549122Y1481888D02*
X1563901D01*
X1562494Y1501377D02*
X1563490D01*
X1534978Y1536810D02*
X1561085D01*
X1535957Y1542125D02*
X1560106D01*
X1549935Y1471259D02*
X1559974D01*
X1555791Y1469487D02*
X1559325D01*
X1536788Y1538581D02*
X1559275D01*
X1536962Y1540353D02*
X1559101D01*
X1549935Y1476573D02*
X1558722D01*
X1549920Y1473030D02*
X1558182D01*
X1549880Y1474802D02*
X1557889D01*
X1507920Y1488975D02*
X1556863D01*
X1547610Y1485432D02*
X1556711D01*
X1502366Y1501377D02*
X1556531D01*
X1543261Y1494290D02*
X1556365D01*
X1543087Y1492518D02*
X1556365D01*
X1541277Y1490747D02*
X1556365D01*
X1527504Y1487203D02*
X1556296D01*
X1522962Y1464172D02*
X1552386D01*
X1513594Y1462400D02*
X1552238D01*
X1549976Y1469487D02*
X1552083D01*
X1523969Y1465944D02*
X1550936D01*
X1515366Y1460629D02*
X1550466D01*
X1549256Y1467715D02*
X1550332D01*
X1501950Y1499605D02*
X1550144D01*
X1542257Y1496062D02*
X1549687D01*
X1501387Y1497833D02*
X1549359D01*
X1528593Y1519093D02*
X1548635D01*
X1527137Y1520865D02*
X1548064D01*
X1528039Y1526180D02*
X1547752D01*
X1544455Y1453542D02*
X1547671D01*
X1544767Y1458857D02*
X1547358D01*
X1495916Y1522636D02*
X1546605D01*
X1525424Y1524408D02*
X1546547D01*
X1527081Y1577558D02*
X1546490D01*
X1527081Y1582873D02*
X1546177D01*
X1527081Y1579329D02*
X1545030D01*
X1527081Y1581101D02*
X1544972D01*
X1512523Y1513778D02*
X1544668D01*
X1528650Y1517322D02*
X1544599D01*
X1527441Y1515550D02*
X1544597D01*
X1529308Y1485432D02*
X1544516D01*
X1542169Y1467715D02*
X1544446D01*
X1529481Y1483660D02*
X1543061D01*
X1528474Y1481888D02*
X1543004D01*
X1522452Y1453542D02*
X1541371D01*
X1517137Y1458857D02*
X1541059D01*
X1520681Y1455314D02*
X1539912D01*
X1518909Y1457085D02*
X1539854D01*
X1501387Y1490747D02*
X1539038D01*
X1501387Y1496062D02*
X1538058D01*
X1525156Y1467715D02*
X1537359D01*
X1501387Y1492518D02*
X1537228D01*
X1528114Y1480117D02*
X1537125D01*
X1501387Y1494290D02*
X1537054D01*
X1528281Y1478345D02*
X1536680D01*
X1528281Y1476573D02*
X1536680D01*
X1534906Y1474802D02*
X1536174D01*
X1525420Y1549211D02*
X1534536D01*
X1528065Y1474802D02*
X1534385D01*
X1525420Y1545668D02*
X1534270D01*
X1525420Y1547440D02*
X1533855D01*
X1526914Y1536810D02*
X1532739D01*
X1528281Y1469487D02*
X1532347D01*
X1528281Y1473030D02*
X1531802D01*
X1525420Y1542125D02*
X1531759D01*
X1528281Y1471259D02*
X1531511D01*
X1525420Y1538581D02*
X1530929D01*
X1525420Y1540353D02*
X1530755D01*
X1528851Y1527951D02*
X1530088D01*
X1408277Y1387991D02*
X1527614D01*
X1408277Y1382676D02*
X1526644D01*
X1408277Y1386219D02*
X1525810D01*
X1408277Y1384448D02*
X1525637D01*
X1508596Y1487203D02*
X1525252D01*
X1494460Y1524408D02*
X1524970D01*
X1495235Y1607676D02*
X1524077D01*
X1495972Y1520865D02*
X1524044D01*
X1512729Y1481888D02*
X1523967D01*
X1514295Y1515550D02*
X1523740D01*
X1508596Y1485432D02*
X1523447D01*
X1458410Y1446455D02*
X1523389D01*
X1508581Y1483660D02*
X1523275D01*
X1495235Y1605904D02*
X1523243D01*
X1495230Y1604133D02*
X1522920D01*
X1450287Y1526180D02*
X1522355D01*
X1501192Y1474802D02*
X1522329D01*
X1513734Y1480117D02*
X1522279D01*
X1513559Y1478345D02*
X1522113D01*
X1511749Y1476573D02*
X1522113D01*
X1502964Y1473030D02*
X1522113D01*
X1504736Y1471259D02*
X1522112D01*
X1450304Y1527951D02*
X1522058D01*
X1425242Y1448227D02*
X1521616D01*
X1427354Y1533266D02*
X1521120D01*
X1449098Y1529723D02*
X1521058D01*
X1435561Y1593503D02*
X1520950D01*
X1513647Y1591731D02*
X1520950D01*
X1516229Y1589959D02*
X1520950D01*
X1516520Y1588188D02*
X1520950D01*
X1515685Y1586416D02*
X1520950D01*
X1436765Y1584644D02*
X1520950D01*
X1426392Y1582873D02*
X1520950D01*
X1428767Y1581101D02*
X1520950D01*
X1429948Y1579329D02*
X1520950D01*
X1430536Y1577558D02*
X1520950D01*
X1430672Y1575786D02*
X1520950D01*
X1430382Y1574014D02*
X1520950D01*
X1429608Y1572243D02*
X1520950D01*
X1428127Y1570471D02*
X1520950D01*
X1424327Y1568699D02*
X1520950D01*
X1427437Y1531495D02*
X1520823D01*
X1408277Y1566928D02*
X1520610D01*
X1447471Y1535038D02*
X1520076D01*
X1426941Y1449999D02*
X1519844D01*
X1491052Y1595274D02*
X1519828D01*
X1506507Y1469487D02*
X1519740D01*
X1491736Y1597046D02*
X1519479D01*
X1408277Y1565156D02*
X1519336D01*
X1450086Y1536810D02*
X1519290D01*
X1408277Y1563385D02*
X1519289D01*
X1408277Y1561613D02*
X1519289D01*
X1408277Y1559841D02*
X1519289D01*
X1408277Y1558070D02*
X1519289D01*
X1408277Y1556298D02*
X1519289D01*
X1408277Y1554526D02*
X1519289D01*
X1408277Y1552755D02*
X1519289D01*
X1440884Y1550983D02*
X1519289D01*
X1441717Y1549211D02*
X1519289D01*
X1441425Y1547440D02*
X1519289D01*
X1438810Y1545668D02*
X1519289D01*
X1427150Y1543896D02*
X1519289D01*
X1427487Y1542125D02*
X1519289D01*
X1449546Y1540353D02*
X1519289D01*
X1450379Y1538581D02*
X1519289D01*
X1491322Y1598818D02*
X1519184D01*
X1495096Y1602361D02*
X1518914D01*
X1511822Y1464172D02*
X1518770D01*
X1491263Y1600589D02*
X1518501D01*
X1427470Y1451770D02*
X1518073D01*
X1508279Y1467715D02*
X1517936D01*
X1510051Y1465944D02*
X1517763D01*
X1427277Y1453542D02*
X1516301D01*
X1426239Y1455314D02*
X1514529D01*
X1428755Y1623621D02*
X1513125D01*
X1436769Y1591731D02*
X1513125D01*
X1424374Y1457085D02*
X1512758D01*
X1494764Y1519093D02*
X1511687D01*
X1437663Y1618306D02*
X1511087D01*
X1438086Y1586416D02*
X1511087D01*
X1426072Y1458857D02*
X1510986D01*
X1427707Y1621849D02*
X1510542D01*
X1438087Y1589959D02*
X1510542D01*
X1435366Y1620077D02*
X1510252D01*
X1438443Y1588188D02*
X1510252D01*
X1463764Y1517322D02*
X1509915D01*
X1489337Y1425196D02*
X1509875D01*
X1489649Y1430510D02*
X1509563D01*
X1508153Y1476573D02*
X1509510D01*
X1453132Y1460629D02*
X1509214D01*
X1490797Y1426967D02*
X1508416D01*
X1490855Y1428739D02*
X1508358D01*
X1462950Y1515550D02*
X1508143D01*
X1453547Y1462400D02*
X1507443D01*
X1462805Y1513778D02*
X1506372D01*
X1452866Y1464172D02*
X1505671D01*
X1425505Y1465944D02*
X1503899D01*
X1463988Y1512007D02*
X1503598D01*
X1501659Y1488975D02*
X1503103D01*
X1501062Y1476573D02*
X1502875D01*
X1469303Y1506692D02*
X1502628D01*
X1424535Y1467715D02*
X1502128D01*
X1465759Y1510235D02*
X1501794D01*
X1467531Y1508463D02*
X1501621D01*
X1462851Y1469487D02*
X1500356D01*
X1463395Y1471259D02*
X1498584D01*
X1478161Y1497833D02*
X1497038D01*
X1479933Y1496062D02*
X1497038D01*
X1481704Y1494290D02*
X1497038D01*
X1483476Y1492518D02*
X1497038D01*
X1485248Y1490747D02*
X1497038D01*
X1462853Y1473030D02*
X1496813D01*
X1472846Y1503148D02*
X1496741D01*
X1476389Y1499605D02*
X1496475D01*
X1474618Y1501377D02*
X1496060D01*
X1487019Y1488975D02*
X1496017D01*
X1492334Y1483660D02*
X1495356D01*
X1488791Y1487203D02*
X1495341D01*
X1490563Y1485432D02*
X1495341D01*
X1462411Y1474802D02*
X1495041D01*
X1494197Y1481888D02*
X1495002D01*
X1462411Y1476573D02*
X1493270D01*
X1462411Y1478345D02*
X1491498D01*
X1453280Y1524408D02*
X1491367D01*
X1463473Y1519093D02*
X1491063D01*
X1454285Y1522636D02*
X1489911D01*
X1460891Y1520865D02*
X1489854D01*
X1462411Y1480117D02*
X1489726D01*
X1462411Y1481888D02*
X1487955D01*
X1437663Y1600589D02*
X1486672D01*
X1438335Y1614762D02*
X1486605D01*
X1460167Y1425196D02*
X1486253D01*
X1438087Y1607676D02*
X1486246D01*
X1462411Y1483660D02*
X1486183D01*
X1437521Y1595274D02*
X1486113D01*
X1460953Y1430510D02*
X1485941D01*
X1436769Y1609448D02*
X1485930D01*
X1438375Y1598818D02*
X1485843D01*
X1438335Y1597046D02*
X1485430D01*
X1437521Y1612991D02*
X1485232D01*
X1435561Y1611219D02*
X1485080D01*
X1458189Y1426967D02*
X1484794D01*
X1459693Y1428739D02*
X1484736D01*
X1462411Y1485432D02*
X1484411D01*
X1462411Y1487203D02*
X1482640D01*
X1436894Y1602361D02*
X1482070D01*
X1438443Y1605904D02*
X1482000D01*
X1438086Y1604133D02*
X1481998D01*
X1462411Y1488975D02*
X1480868D01*
X1462411Y1490747D02*
X1479096D01*
X1461759Y1492518D02*
X1477325D01*
X1459987Y1494290D02*
X1475553D01*
X1458216Y1496062D02*
X1473781D01*
X1456444Y1497833D02*
X1472010D01*
X1454672Y1499605D02*
X1470238D01*
X1452901Y1501377D02*
X1468466D01*
X1451129Y1503148D02*
X1466695D01*
X1449357Y1504920D02*
X1464923D01*
X1447586Y1506692D02*
X1463151D01*
X1446040Y1508463D02*
X1461380D01*
X1454111Y1520865D02*
X1460369D01*
X1453651Y1510235D02*
X1459608D01*
X1454334Y1512007D02*
X1458473D01*
X1453920Y1513778D02*
X1458455D01*
X1426000Y1515550D02*
X1458310D01*
X1450621Y1488975D02*
X1458061D01*
X1445409Y1487203D02*
X1458061D01*
X1445521Y1485432D02*
X1458061D01*
X1446719Y1483660D02*
X1458061D01*
X1446719Y1481888D02*
X1458061D01*
X1446627Y1480117D02*
X1458061D01*
X1445409Y1478345D02*
X1458061D01*
X1445409Y1476573D02*
X1458061D01*
X1446206Y1474802D02*
X1458061D01*
X1452301Y1519093D02*
X1457787D01*
X1445993Y1469487D02*
X1457622D01*
X1446612Y1473030D02*
X1457620D01*
X1424382Y1517322D02*
X1457496D01*
X1453236Y1490747D02*
X1457379D01*
X1446612Y1471259D02*
X1457077D01*
X1453606Y1492518D02*
X1455608D01*
X1408277Y1426967D02*
X1455197D01*
X1408277Y1437597D02*
X1455144D01*
X1408277Y1446455D02*
X1454976D01*
X1408277Y1416337D02*
X1454707D01*
X1408277Y1418109D02*
X1454634D01*
X1408277Y1435825D02*
X1453881D01*
X1408277Y1428739D02*
X1453692D01*
X1408277Y1425196D02*
X1453219D01*
X1408277Y1409251D02*
X1453187D01*
X1408277Y1439369D02*
X1453091D01*
X1408277Y1444684D02*
X1452837D01*
X1408277Y1414566D02*
X1452763D01*
X1408277Y1419881D02*
X1452741D01*
X1408277Y1434054D02*
X1452498D01*
X1408277Y1430510D02*
X1452433D01*
X1408277Y1423424D02*
X1452274D01*
X1408277Y1411022D02*
X1452264D01*
X1408277Y1441140D02*
X1452234D01*
X1408277Y1442912D02*
X1452164D01*
X1408277Y1412794D02*
X1452147D01*
X1408277Y1421652D02*
X1452142D01*
X1408277Y1432282D02*
X1452109D01*
X1445584Y1488975D02*
X1450167D01*
X1445480Y1519093D02*
X1450062D01*
X1426479Y1535038D02*
X1447017D01*
X1426780Y1529723D02*
X1445390D01*
X1427112Y1540353D02*
X1444943D01*
X1424438Y1536810D02*
X1444402D01*
X1425124Y1526180D02*
X1444191D01*
X1424757Y1527951D02*
X1444184D01*
X1425756Y1538581D02*
X1444109D01*
X1439280Y1519093D02*
X1441238D01*
X1425865Y1545668D02*
X1438356D01*
X1408277Y1550983D02*
X1436281D01*
X1408277Y1547440D02*
X1435741D01*
X1408277Y1549211D02*
X1435448D01*
X1426302Y1519093D02*
X1435038D01*
X1426620Y1469487D02*
X1434062D01*
X1427140Y1524408D02*
X1433666D01*
X1425759Y1620077D02*
X1432351D01*
X1408277Y1611219D02*
X1432155D01*
X1408277Y1593503D02*
X1432155D01*
X1408277Y1584644D02*
X1430951D01*
X1408277Y1609448D02*
X1430948D01*
X1408277Y1591731D02*
X1430948D01*
X1408277Y1602361D02*
X1430823D01*
X1408277Y1612991D02*
X1430196D01*
X1408277Y1595274D02*
X1430196D01*
X1408277Y1618306D02*
X1430054D01*
X1408277Y1600589D02*
X1430054D01*
X1408277Y1604133D02*
X1429631D01*
X1408277Y1586416D02*
X1429631D01*
X1408277Y1607676D02*
X1429630D01*
X1408277Y1589959D02*
X1429630D01*
X1408277Y1614762D02*
X1429381D01*
X1408277Y1597046D02*
X1429381D01*
X1408277Y1616534D02*
X1429342D01*
X1408277Y1598818D02*
X1429342D01*
X1408277Y1605904D02*
X1429274D01*
X1408277Y1588188D02*
X1429274D01*
X1408277Y1568699D02*
X1422051D01*
X1415242Y1448227D02*
X1420564D01*
X1408277Y1582873D02*
X1419986D01*
X1415865Y1545668D02*
X1419941D01*
X1416941Y1449999D02*
X1418865D01*
X1417237Y1543896D02*
X1418569D01*
X1408277Y1570471D02*
X1418251D01*
X1408277Y1620077D02*
X1417784D01*
X1408277Y1581101D02*
X1417611D01*
X1408277Y1632479D02*
X1417372D01*
X1408277Y1572243D02*
X1416770D01*
X1408277Y1579329D02*
X1416430D01*
X1408277Y1574014D02*
X1415996D01*
X1408277Y1577558D02*
X1415842D01*
X1408277Y1621849D02*
X1415836D01*
X1408277Y1575786D02*
X1415706D01*
X1408277Y1630707D02*
X1415632D01*
X1408277Y1623621D02*
X1414824D01*
X1408277Y1628936D02*
X1414718D01*
X1408277Y1625392D02*
X1414352D01*
X1408277Y1627164D02*
X1414319D01*
X1408315Y1448227D02*
X1410564D01*
X1408584Y1545668D02*
X1409941D01*
G54D262*
X1730484Y1442808D03*
Y1436608D03*
X1680709Y1443651D03*
Y1437451D03*
X1546850Y1477116D03*
Y1470916D03*
X1525197Y1471309D03*
Y1477509D03*
X1505512Y1485777D03*
Y1479577D03*
X1498425Y1485777D03*
Y1479577D03*
X1539764Y1470916D03*
Y1477116D03*
X1559449Y1498769D03*
Y1492569D03*
X1566535Y1498769D03*
Y1492569D03*
G54D278*
X2110514Y1533620D03*
X2099884Y1583620D03*
X2093979Y1609210D03*
G54D293*
X2052756Y1422441D03*
G54D295*
X1421772Y1626417D03*
X1423189Y1576102D03*
X2162598Y1434252D03*
Y1414252D03*
X2110630Y1414173D03*
Y1434173D03*
Y1435525D01*
Y1414173*
X2162598Y1414252D02*
Y1434252D01*
G54D296*
X1842913Y1409843D02*
X1843071Y1410000D01*
X1886614*
X2110630Y1435525D02*
Y1528346D01*
X2105512Y1533465*
X1824409Y1503150D02*
Y1529138D01*
X1870866Y1575595*
X2105512Y1533465D02*
X2110359D01*
X2110514Y1533620*
X2105512Y1533465D02*
X2094882D01*
X2052362Y1575595*
X1870866*
X1820247*
G54D312*
X1601291Y1502739D03*
G54D317*
X1528740Y1385039D03*
X1567323Y1386220D03*
X1766535Y1402362D03*
X1782283Y1395276D03*
X1833858Y1400787D03*
X1511417Y1427953D03*
X1487795D03*
X1618898Y1430709D03*
X1680709Y1426772D03*
X1729921D03*
X1753150Y1422835D03*
X1774409Y1424803D03*
X1460236Y1471260D03*
X1450394Y1462205D03*
X1510630Y1479528D03*
X1520866Y1466535D03*
X1541732Y1448031D03*
X1549213Y1456299D03*
X1561024Y1474409D03*
X1553937Y1466929D03*
X1542913Y1456299D03*
X1546063Y1482677D03*
X1534646Y1471654D03*
X1567000Y1482500D03*
X1612598Y1463386D03*
X1637795Y1448425D03*
X1660630Y1470472D03*
X1644094Y1465354D03*
X1681102Y1454331D03*
X1670472Y1463780D03*
X1730315Y1450394D03*
X1770866Y1452362D03*
X1460630Y1517717D03*
X1450394Y1492126D03*
X1451181Y1522047D03*
Y1512205D03*
X1504724Y1509055D03*
X1492913Y1521654D03*
X1499213Y1501181D03*
X1525591Y1518110D03*
X1559449Y1487008D03*
X1526378Y1484252D03*
X1549606Y1523622D03*
X1540157Y1493701D03*
X1559843Y1515748D03*
X1552500Y1497500D03*
X1596457Y1507087D03*
X1596850Y1514173D03*
X1615354Y1498819D03*
X1614961Y1507480D03*
X1603150Y1492520D03*
X1438583Y1548819D03*
X1447244Y1527165D03*
Y1538189D03*
X1530315Y1531102D03*
X1525197Y1527559D03*
X1533858Y1539764D03*
X1537008Y1547244D03*
X1529134Y1558268D03*
X1573622Y1539764D03*
X1562205D03*
X1488583Y1597244D03*
X1513386Y1588583D03*
X1521654Y1600787D03*
X1548031Y1580315D03*
X1488583Y1611811D03*
X1513386Y1620472D03*
X1526378Y1605512D03*
X1618504Y1609449D03*
X1632677Y1624409D03*
G74*
X0Y0D02*
M02*
