*
*
G04 PADS 9.5 Build Number: 522968 generated Gerber (RS-274-X) file*
G04 PC Version=2.1*
*
%IN "opqbox2.pcb"*%
*
%MOIN*%
*
%FSLAX35Y35*%
*
*
*
*
G04 PC Standard Apertures*
*
*
G04 Thermal Relief Aperture macro.*
%AMTER*
1,1,$1,0,0*
1,0,$1-$2,0,0*
21,0,$3,$4,0,0,45*
21,0,$3,$4,0,0,135*
%
*
*
G04 Annular Aperture macro.*
%AMANN*
1,1,$1,0,0*
1,0,$2,0,0*
%
*
*
G04 Odd Aperture macro.*
%AMODD*
1,1,$1,0,0*
1,0,$1-0.005,0,0*
%
*
*
G04 PC Custom Aperture Macros*
*
*
*
*
*
*
G04 PC Aperture Table*
*
%ADD010C,0.001*%
%ADD013C,0.01*%
%ADD017C,0.055*%
%ADD028C,0.06*%
%ADD033C,0.03937*%
%ADD047C,0.012*%
%ADD083R,0.06X0.06*%
%ADD103C,0.015*%
%ADD105C,0.07874*%
%ADD124C,0.0315*%
%ADD135R,0.03X0.038*%
%ADD149C,0.01969*%
%ADD170R,0.07874X0.03937*%
%ADD172C,0.02756*%
*
*
*
*
G04 PC Circuitry*
G04 Layer Name opqbox2.pcb - circuitry*
%LPD*%
*
*
G04 PC Custom Flashes*
G04 Layer Name opqbox2.pcb - flashes*
%LPD*%
*
*
G04 PC Circuitry*
G04 Layer Name opqbox2.pcb - circuitry*
%LPD*%
*
G54D10*
G54D13*
G01X905037Y274213D02*
G75*
G03X905037I-3068J0D01*
G01X862517Y278740D02*
G03X862517I-3068J0D01*
G01X881415Y324016D02*
G03X881415I-3069J0D01*
G01X816454Y243504D02*
G03X816454I-3068J0D01*
G01X820195Y278740D02*
G03X820195I-3069J0D01*
G01X821572Y322047D02*
G03X821572I-3068J0D01*
G01X823935Y335039D02*
G03X823935I-3069J0D01*
G01X808580Y301575D02*
G03X808580I-3068J0D01*
G01X801395Y300295D02*
G03X801395I-3068J0D01*
G01X799525Y310630D02*
G03X799525I-3068J0D01*
G01X789289Y245669D02*
G03X789289I-3069J0D01*
G01X783383Y271260D02*
G03X783383I-3068J0D01*
G01X771966Y245276D02*
G03X771966I-3068J0D01*
G01X760549Y392323D02*
G03X760549I-5037J0D01*
G01Y423819D02*
G03X760549I-5037J0D01*
G01X733974Y316142D02*
G03X733974I-3068J0D01*
G01X708383Y266339D02*
G03X708383I-3068J0D01*
G01X710352Y336811D02*
G03X710352I-3069J0D01*
G01X703659Y348031D02*
G03X703659I-3068J0D01*
G01X687708Y391732D02*
G03X687708I-3850J0D01*
G01X675706Y293307D02*
G03X675706I-3068J0D01*
G01X676100Y309449D02*
G03X676100I-3069J0D01*
G01X678856Y318307D02*
G03X678856I-3069J0D01*
G01X685346Y431890D02*
G03X685346I-3850J0D01*
G01X687708Y453543D02*
G03X687708I-3850J0D01*
G01X656415Y298425D02*
G03X656415I-3069J0D01*
G01X653462Y344094D02*
G03X653462I-3068J0D01*
G01X649919Y362205D02*
G03X649919I-3069J0D01*
G01X650793Y390748D02*
G03X650793I-4100J0D01*
G01Y400748D02*
G03X650793I-4100J0D01*
G01X640793Y390748D02*
G03X640793I-4100J0D01*
G01Y400748D02*
G03X640793I-4100J0D01*
G01X630793D02*
G03X630793I-4100J0D01*
G01X620793Y390748D02*
G03X620793I-4100J0D01*
G01Y400748D02*
G03X620793I-4100J0D01*
G01X622163Y413780D02*
G03X622163I-5037J0D01*
G01Y433465D02*
G03X622163I-5037J0D01*
G01X608974Y362205D02*
G03X608974I-3068J0D01*
G01X610793Y390748D02*
G03X610793I-4100J0D01*
G01Y400748D02*
G03X610793I-4100J0D01*
G01X595588Y340157D02*
G03X595588I-3068J0D01*
G01X600793Y390748D02*
G03X600793I-4100J0D01*
G01Y400748D02*
G03X600793I-4100J0D01*
G01X590793Y390748D02*
G03X590793I-4100J0D01*
G01Y400748D02*
G03X590793I-4100J0D01*
G01X580793Y390748D02*
G03X580793I-4100J0D01*
G01Y400748D02*
G03X580793I-4100J0D01*
G01X570793Y390748D02*
G03X570793I-4100J0D01*
G01Y400748D02*
G03X570793I-4100J0D01*
G01X560793Y390748D02*
G03X560793I-4100J0D01*
G01Y400748D02*
G03X560793I-4100J0D01*
G01X569604Y458268D02*
G03X569604I-8974J0D01*
G01X531265Y346496D02*
G03X531265I-4100J0D01*
G01X521265D02*
G03X521265I-4100J0D01*
G01Y356496D02*
G03X521265I-4100J0D01*
G01X510549Y296063D02*
G03X510549I-3069J0D01*
G01X498738Y245669D02*
G03X498738I-8974J0D01*
G01X521265Y236496D02*
G03X521265I-4100J0D01*
G01Y246496D02*
G03X521265I-4100J0D01*
G01Y256496D02*
G03X521265I-4100J0D01*
G01Y266496D02*
G03X521265I-4100J0D01*
G01Y276496D02*
G03X521265I-4100J0D01*
G01Y286496D02*
G03X521265I-4100J0D01*
G01X531265Y236496D02*
G03X531265I-4100J0D01*
G01Y246496D02*
G03X531265I-4100J0D01*
G01Y256496D02*
G03X531265I-4100J0D01*
G01Y266496D02*
G03X531265I-4100J0D01*
G01Y276496D02*
G03X531265I-4100J0D01*
G01Y286496D02*
G03X531265I-4100J0D01*
G01X595391Y293504D02*
G03X595391I-3068J0D01*
G01X633974Y339567D02*
G03X633974I-3068J0D01*
G01X942217Y247063D02*
Y343094D01*
G03X941717Y343594I-500J0*
G01X888231*
G03X887910Y342712I0J-500*
G01X882957D02*
G03X887910I2476J-2948D01*
G01X882957D02*
G03X882635Y343594I-322J382D01*
G01X863013*
G03X862659Y343448I-0J-500*
G01X849268Y330057*
G03X849122Y329704I354J-353*
G01Y328774*
G03X849896Y328356I500J0*
G01Y323219D02*
G03Y328356I1679J2568D01*
G01Y323219D02*
G03X849122Y322801I-274J-418D01*
G01Y297869*
G03X849896Y297450I500J-0*
G01Y292314D02*
G03Y297450I1679J2568D01*
G01Y292314D02*
G03X849122Y291895I-274J-419D01*
G01Y247063*
G03X849622Y246563I500J-0*
G01X941717*
G03X942217Y247063I-0J500*
G01X827453Y297779D02*
Y476045D01*
G03X826952Y476545I-500J0*
G01X544316Y476264*
G03X543817Y475764I1J-500*
G01Y363681*
X542717Y362581D02*
G03X543817Y363681I-0J1100D01*
G01X542717Y362581D02*
X471679D01*
G03X471179Y362081I-0J-500*
G01Y227584*
G03X471679Y227084I500J0*
G01X826953*
G03X827453Y227584I-0J500*
G01Y292772*
G03X826596Y293123I-500J0*
G01Y297428D02*
G03Y293123I-2187J-2152D01*
G01Y297428D02*
G03X827453Y297779I357J351D01*
G01X656874Y311585D02*
G03X656819Y312274I-388J316D01*
G01X656555Y312540D02*
G03X656819Y312274I2303J2027D01*
G01X656555Y312540D02*
G03X655782Y311906I-376J-330D01*
G01X656000Y311581D02*
G03X655782Y311906I-2654J-1542D01*
G01X656000Y311581D02*
G03X656827Y311526I432J251D01*
G01X656874Y311585D02*
G03X656827Y311526I2378J-1939D01*
G01X524357Y319483D02*
G03X524014Y320347I-343J364D01*
G01X520317*
G03X519974Y319483I-0J-500*
G01X520817Y314632D02*
G03X519974Y319483I-3652J1864D01*
G01X520817Y314632D02*
G03X521262Y313905I445J-227D01*
G01X521262D02*
X523068D01*
G03X523514Y314632I0J500*
G01X524357Y319483D02*
G03X523514Y314632I2808J-2987D01*
G01X514357Y319483D02*
G03X514014Y320347I-343J364D01*
G01X500000*
X498798Y320845D02*
G03X500000Y320347I1202J1202D01*
G01X498798Y320845D02*
X483646Y335997D01*
G03X482793Y335643I-353J-354*
G01Y333992*
G03X482939Y333638I500J-0*
G01X502526Y314051*
G03X502880Y313905I354J354*
G01X513068*
G03X513514Y314632I0J500*
G01X514357Y319483D02*
G03X513514Y314632I2808J-2987D01*
G01X905037Y274213D02*
G03X905037I-3068J0D01*
G01X857557Y257140D02*
G03X861341I1892J-2416D01*
G01X857557D02*
G03X857749Y257534I-308J394D01*
G01Y260884*
G03X857468Y261334I-500J0*
G01X856849Y262323D02*
G03X857468Y261334I1100J-0D01*
G01X856849Y262323D02*
Y266123D01*
X857221Y266948D02*
G03X856849Y266123I728J-825D01*
G01X857221Y266948D02*
G03Y267698I-331J375D01*
G01X856849Y268523D02*
G03X857221Y267698I1100J-0D01*
G01X856849Y268523D02*
Y272323D01*
X857949Y273423D02*
G03X856849Y272323I-0J-1100D01*
G01X857949Y273423D02*
X860949D01*
X862049Y272323D02*
G03X860949Y273423I-1100J-0D01*
G01X862049Y272323D02*
Y268523D01*
X861676Y267698D02*
G03X862049Y268523I-727J825D01*
G01X861676Y267698D02*
G03Y266948I331J-375D01*
G01X862049Y266123D02*
G03X861676Y266948I-1100J-0D01*
G01X862049Y266123D02*
Y262323D01*
X861430Y261334D02*
G03X862049Y262323I-481J989D01*
G01X861430Y261334D02*
G03X861149Y260884I219J-450D01*
G01Y257534*
G03X861341Y257140I500J0*
G01X862517Y278740D02*
G03X862517I-3068J0D01*
G01X888033Y316811D02*
Y313011D01*
X887661Y312186D02*
G03X888033Y313011I-728J825D01*
G01X887661Y312186D02*
G03Y311436I330J-375D01*
G01X888033Y310611D02*
G03X887661Y311436I-1100J0D01*
G01X888033Y310611D02*
Y306811D01*
X886933Y305711D02*
G03X888033Y306811I0J1100D01*
G01X886933Y305711D02*
X885444D01*
G03X885091Y305565I0J-500*
G01X881150Y301624*
G03X881061Y301037I353J-354*
G01X875930Y297715D02*
G03X881061Y301037I2416J1891D01*
G01X875930Y297715D02*
G03X875537Y297906I-393J-309D01*
G01X871722*
G03X871368Y297760I-0J-500*
G01X865739Y292130*
G03X865592Y291777I353J-353*
G01Y289488*
X864492Y288388D02*
G03X865592Y289488I0J1100D01*
G01X864492Y288388D02*
X861492D01*
X860392Y289488D02*
G03X861492Y288388I1100J0D01*
G01X860392Y289488D02*
Y293288D01*
X860765Y294113D02*
G03X860392Y293288I727J-825D01*
G01X860765Y294113D02*
G03Y294863I-331J375D01*
G01X860392Y295688D02*
G03X860765Y294863I1100J0D01*
G01X860392Y295688D02*
Y299488D01*
X861011Y300477D02*
G03X860392Y299488I481J-989D01*
G01X861011Y300477D02*
G03X861292Y300927I-219J450D01*
G01Y301829*
G03X861011Y302279I-500J-0*
G01X860419Y303027D02*
G03X861011Y302279I1073J241D01*
G01X860419Y303027D02*
G03X859587Y303281I-488J-109D01*
G01X859757Y307569D02*
G03X859587Y303281I-2277J-2057D01*
G01X859757Y307569D02*
G03X860554Y307643I371J335D01*
G01X860765Y307893D02*
G03X860554Y307643I727J-825D01*
G01X860765Y307893D02*
G03Y308643I-331J375D01*
G01X860392Y309468D02*
G03X860765Y308643I1100J-0D01*
G01X860392Y309468D02*
Y313268D01*
X861492Y314368D02*
G03X860392Y313268I0J-1100D01*
G01X861492Y314368D02*
X864492D01*
X865592Y313268D02*
G03X864492Y314368I-1100J-0D01*
G01X865592Y313268D02*
Y309468D01*
X865220Y308643D02*
G03X865592Y309468I-728J825D01*
G01X865220Y308643D02*
G03Y307893I330J-375D01*
G01X865592Y307068D02*
G03X865220Y307893I-1100J-0D01*
G01X865592Y307068D02*
Y303268D01*
X864973Y302279D02*
G03X865592Y303268I-481J989D01*
G01X864973Y302279D02*
G03X864692Y301829I219J-450D01*
G01Y300927*
G03X864973Y300477I500J-0*
G01X865592Y299488D02*
G03X864973Y300477I-1100J0D01*
G01X865592Y299488D02*
Y298000D01*
G03X866446Y297646I500J-0*
G01X869608Y300808*
X870810Y301306D02*
G03X869608Y300808I0J-1700D01*
G01X870810Y301306D02*
X875537D01*
G03X875930Y301498I-0J500*
G01X877070Y302397D02*
G03X875930Y301498I1276J-2791D01*
G01X877070Y302397D02*
G03X877216Y302498I-208J455D01*
G01X882687Y307969*
G03X882833Y308322I-354J353*
G01Y310611*
X883205Y311436D02*
G03X882833Y310611I728J-825D01*
G01X883205Y311436D02*
G03Y312186I-330J375D01*
G01X882833Y313011D02*
G03X883205Y312186I1100J0D01*
G01X882833Y313011D02*
Y316811D01*
X883933Y317911D02*
G03X882833Y316811I0J-1100D01*
G01X883933Y317911D02*
X886933D01*
X888033Y316811D02*
G03X886933Y317911I-1100J0D01*
G01X881415Y324016D02*
G03X881415I-3069J0D01*
G01X816454Y243504D02*
G03X816454I-3068J0D01*
G01X820195Y278740D02*
G03X820195I-3069J0D01*
G01X821572Y322047D02*
G03X821572I-3068J0D01*
G01X823935Y335039D02*
G03X823935I-3069J0D01*
G01X808580Y301575D02*
G03X808580I-3068J0D01*
G01X801395Y300295D02*
G03X801395I-3068J0D01*
G01X799525Y310630D02*
G03X799525I-3068J0D01*
G01X789289Y245669D02*
G03X789289I-3069J0D01*
G01X783383Y271260D02*
G03X783383I-3068J0D01*
G01X771966Y245276D02*
G03X771966I-3068J0D01*
G01X760549Y392323D02*
G03X760549I-5037J0D01*
G01Y423819D02*
G03X760549I-5037J0D01*
G01X733974Y316142D02*
G03X733974I-3068J0D01*
G01X708383Y266339D02*
G03X708383I-3068J0D01*
G01X710352Y336811D02*
G03X710352I-3069J0D01*
G01X697782Y324587D02*
Y289619D01*
X697284Y288416D02*
G03X697782Y289619I-1202J1203D01*
G01X697284Y288416D02*
X695744Y286877D01*
G03X695598Y286523I354J-354*
G01Y277416*
G03X695789Y277022I500J-0*
G01X692006D02*
G03X695789I1892J-2416D01*
G01X692006D02*
G03X692198Y277416I-308J394D01*
G01Y287434*
X692696Y288636D02*
G03X692198Y287434I1202J-1202D01*
G01X692696Y288636D02*
X694235Y290176D01*
G03X694382Y290530I-353J354*
G01Y297156*
G03X693746Y297637I-500J-0*
G01Y303544D02*
G03Y297637I-833J-2953D01*
G01Y303544D02*
G03X694382Y304025I136J481D01*
G01Y323676*
G03X694235Y324030I-500J0*
G01X689367Y328898*
G03X688953Y329041I-353J-354*
G01X691629Y331716D02*
G03X688953Y329041I-3046J371D01*
G01X691629Y331716D02*
G03X691772Y331302I496J-60D01*
G01X697284Y325789*
X697782Y324587D02*
G03X697284Y325789I-1700J0D01*
G01X703659Y348031D02*
G03X703659I-3068J0D01*
G01X687708Y391732D02*
G03X687708I-3850J0D01*
G01X675706Y293307D02*
G03X675706I-3068J0D01*
G01X676100Y309449D02*
G03X676100I-3069J0D01*
G01X678856Y318307D02*
G03X678856I-3069J0D01*
G01X685346Y431890D02*
G03X685346I-3850J0D01*
G01X687708Y453543D02*
G03X687708I-3850J0D01*
G01X656415Y298425D02*
G03X656415I-3069J0D01*
G01X662618Y307923D02*
G03Y311369I2539J1723D01*
G01Y307923D02*
G03X661791I-413J-281D01*
G01X656599Y308104D02*
G03X661791Y307923I2653J1542D01*
G01X656599Y308104D02*
G03X655771Y308159I-432J-251D01*
G01X650284Y309840D02*
G03X655771Y308159I3062J199D01*
G01X650284Y309840D02*
G03X649785Y310308I-499J-32D01*
G01X633158*
X632455Y310460D02*
G03X633158Y310308I703J1548D01*
G01X632455Y310460D02*
G03X632249Y310505I-206J-455D01*
G01X631561*
G03X631322Y309565I-0J-500*
G01X631714Y309273D02*
G03X631322Y309565I-1202J-1202D01*
G01X631714Y309273D02*
X634178Y306808D01*
G03X634658Y306678I354J354*
G01X631905Y303924D02*
G03X634658Y306678I3725J-971D01*
G01X631905Y303924D02*
G03X631774Y304404I-484J127D01*
G01X629954Y306224*
G03X629601Y306371I-353J-353*
G01X582874*
X581672Y306869D02*
G03X582874Y306371I1202J1202D01*
G01X581672Y306869D02*
X578411Y310129D01*
G03X577559Y309737I-353J-353*
G01X574596Y306433D02*
G03X577559Y309737I-96J3067D01*
G01X574596Y306433D02*
G03X574209Y306229I16J-500D01*
G01X573812Y305687*
X573643Y305491D02*
G03X573812Y305687I-1202J1202D01*
G01X573643Y305491D02*
X566556Y298404D01*
X565354Y297906D02*
G03X566556Y298404I0J1700D01*
G01X565354Y297906D02*
X550343D01*
G03X549964Y297080I-0J-500*
G01X546088Y292430D02*
G03X549964Y297080I1550J2649D01*
G01X546088Y292430D02*
G03X545476Y292346I-252J-431D01*
G01X544685Y292010D02*
G03X545476Y292346I0J1100D01*
G01X544685Y292010D02*
X543923D01*
G03X543423Y291510I-0J-500*
G01Y284596*
X543360Y284019D02*
G03X543423Y284596I-2612J577D01*
G01X543360Y284019D02*
G03X543348Y283911I488J-108D01*
G01Y282696*
X542976Y281871D02*
G03X543348Y282696I-728J825D01*
G01X542976Y281871D02*
G03Y281121I330J-375D01*
G01X543348Y280296D02*
G03X542976Y281121I-1100J0D01*
G01X543348Y280296D02*
Y276496D01*
X542248Y275396D02*
G03X543348Y276496I0J1100D01*
G01X542248Y275396D02*
X539248D01*
X538148Y276496D02*
G03X539248Y275396I1100J0D01*
G01X538148Y276496D02*
Y280296D01*
X538520Y281121D02*
G03X538148Y280296I728J-825D01*
G01X538520Y281121D02*
G03Y281871I-330J375D01*
G01X538148Y282696D02*
G03X538520Y281871I1100J0D01*
G01X538148Y282696D02*
Y283911D01*
G03X538136Y284019I-500J-0*
G01X538073Y284596D02*
G03X538136Y284019I2675J0D01*
G01X538073Y284596D02*
Y291510D01*
G03X537573Y292010I-500J0*
G01X536811*
X535711Y293110D02*
G03X536811Y292010I1100J0D01*
G01X535711Y293110D02*
Y297047D01*
X535739Y297294D02*
G03X535711Y297047I1072J-247D01*
G01X535739Y297294D02*
G03X535252Y297906I-487J112D01*
G01X531674*
G03X531184Y297307I0J-500*
G01X524473Y299588D02*
G03X531184Y297307I2692J-3092D01*
G01X524473Y299588D02*
G03X524145Y300465I-328J377D01*
G01X520186*
G03X519858Y299588I0J-500*
G01X514473D02*
G03X519858I2692J-3092D01*
G01X514473D02*
G03X514145Y300465I-328J377D01*
G01X482927*
G03X482541Y300284I-0J-500*
G01X481693Y299884D02*
G03X482541Y300284I-0J1100D01*
G01X481693Y299884D02*
X473819D01*
X472719Y300984D02*
G03X473819Y299884I1100J0D01*
G01X472719Y300984D02*
Y304921D01*
X473819Y306021D02*
G03X472719Y304921I-0J-1100D01*
G01X473819Y306021D02*
X481693D01*
X482793Y304921D02*
G03X481693Y306021I-1100J0D01*
G01X482793Y304921D02*
Y304365D01*
G03X483293Y303865I500J0*
G01X513089*
G03X513532Y304597I-0J500*
G01X514514Y309623D02*
G03X513532Y304597I2651J-3127D01*
G01X514514Y309623D02*
G03X514191Y310505I-323J382D01*
G01X501969*
X500766Y311003D02*
G03X501969Y310505I1203J1202D01*
G01X500766Y311003D02*
X483646Y328123D01*
G03X482793Y327769I-353J-354*
G01Y324606*
X481693Y323506D02*
G03X482793Y324606I-0J1100D01*
G01X481693Y323506D02*
X473819D01*
X472719Y324606D02*
G03X473819Y323506I1100J0D01*
G01X472719Y324606D02*
Y328543D01*
X473819Y329643D02*
G03X472719Y328543I-0J-1100D01*
G01X473819Y329643D02*
X480919D01*
G03X481272Y330497I-0J500*
G01X480535Y331234*
G03X480182Y331380I-353J-354*
G01X473819*
X472719Y332480D02*
G03X473819Y331380I1100J0D01*
G01X472719Y332480D02*
Y336417D01*
X473819Y337517D02*
G03X472719Y336417I-0J-1100D01*
G01X473819Y337517D02*
X480919D01*
G03X481272Y338371I-0J500*
G01X480535Y339108*
G03X480182Y339254I-353J-354*
G01X473819*
X472719Y340354D02*
G03X473819Y339254I1100J0D01*
G01X472719Y340354D02*
Y344291D01*
X473819Y345391D02*
G03X472719Y344291I-0J-1100D01*
G01X473819Y345391D02*
X480919D01*
G03X481272Y346245I-0J500*
G01X480535Y346982*
G03X480182Y347128I-353J-354*
G01X473819*
X472719Y348228D02*
G03X473819Y347128I1100J0D01*
G01X472719Y348228D02*
Y352165D01*
X473819Y353265D02*
G03X472719Y352165I-0J-1100D01*
G01X473819Y353265D02*
X481693D01*
X482793Y352165D02*
G03X481693Y353265I-1100J0D01*
G01X482793Y352165D02*
Y349740D01*
G03X482939Y349386I500J-0*
G01X488048Y344278*
G03X488896Y344556I353J353*
G01X492391Y341061D02*
G03X488896Y344556I-462J3033D01*
G01X492391Y341061D02*
G03X492112Y340213I75J-494D01*
G01X499491Y332835*
G03X499844Y332688I353J353*
G01X513969*
G03X514316Y333548I-0J500*
G01X520015D02*
G03X514316I-2850J2948D01*
G01X520015D02*
G03X520362Y332688I347J-360D01*
G01X523969*
G03X524316Y333548I-0J500*
G01X530015D02*
G03X524316I-2850J2948D01*
G01X530015D02*
G03X530362Y332688I347J-360D01*
G01X535211*
G03X535711Y333188I0J500*
G01Y336417*
X536811Y337517D02*
G03X535711Y336417I0J-1100D01*
G01X536811Y337517D02*
X544685D01*
X545773Y336576D02*
G03X544685Y337517I-1088J-159D01*
G01X545773Y336576D02*
G03X546268Y336149I495J73D01*
G01X589800*
X591002Y335651D02*
G03X589800Y336149I-1202J-1202D01*
G01X591002Y335651D02*
X608975Y317678D01*
G03X609328Y317532I353J354*
G01X623819*
G03X624172Y317678I-0J500*
G01X624289Y317794*
X625491Y318292D02*
G03X624289Y317794I-0J-1700D01*
G01X625491Y318292D02*
X638433D01*
X639483Y317930D02*
G03X638433Y318292I-1050J-1338D01*
G01X639483Y317930D02*
G03X639791Y317823I308J393D01*
G01X643096*
G03X643449Y317969I-0J500*
G01X647764Y322284*
X648966Y322782D02*
G03X647764Y322284I0J-1700D01*
G01X648966Y322782D02*
X657724D01*
X658926Y322284D02*
G03X657724Y322782I-1202J-1202D01*
G01X658926Y322284D02*
X659679Y321532D01*
G03X660032Y321385I353J353*
G01X660182*
G03X660576Y321577I0J500*
G01X662140Y316737D02*
G03X660576Y321577I852J2948D01*
G01X662140Y316737D02*
G03X661561Y316020I-139J-480D01*
G01X661236Y312628D02*
G03X661561Y316020I-2378J1939D01*
G01X661236Y312628D02*
G03X661292Y311938I388J-316D01*
G01X661791Y311369D02*
G03X661292Y311938I-2539J-1723D01*
G01X661791Y311369D02*
G03X662618I414J281D01*
G01X669845Y329428D02*
G03X674726Y332534I2990J690D01*
G01X669845Y329428D02*
G03X669321Y329814I-487J-113D01*
G01X667254Y330419D02*
G03X669321Y329814I1840J2455D01*
G01X667254Y330419D02*
G03X666592Y330364I-300J-400D01*
G01X666211Y334935D02*
G03X666592Y330364I-1841J-2455D01*
G01X666211Y334935D02*
G03X666873Y334991I300J400D01*
G01X667203Y335290D02*
G03X666873Y334991I1891J-2416D01*
G01X667203Y335290D02*
G03X667394Y335684I-309J394D01*
G01Y349528*
X667892Y350730D02*
G03X667394Y349528I1202J-1202D01*
G01X667892Y350730D02*
X668964Y351802D01*
G03X668927Y352543I-353J354*
G01X672758Y352505D02*
G03X668927Y352543I-1892J2416D01*
G01X672758Y352505D02*
G03X672566Y352112I308J-393D01*
G01Y351523*
G03X672987Y351030I500J0*
G01X674392Y345584D02*
G03X672987Y351030I-1892J2416D01*
G01X674392Y345584D02*
G03X674200Y345190I308J-394D01*
G01Y340058*
G03X674276Y339793I500J0*
G01X674535Y338892D02*
G03X674276Y339793I-1700J-0D01*
G01X674535Y338892D02*
Y332928D01*
G03X674726Y332534I500J-0*
G01X656097Y329449D02*
G03X651858Y332097I-1176J2834D01*
G01X656097Y329449D02*
G03X655877Y328705I192J-462D01*
G01X650300Y327339D02*
G03X655877Y328705I3046J-370D01*
G01X650300Y327339D02*
G03X650158Y327753I-496J61D01*
G01X630097Y347814*
X629599Y349016D02*
G03X630097Y347814I1700J-0D01*
G01X629599Y349016D02*
Y363653D01*
G03X628779Y364037I-500J-0*
G01X628075Y363782D02*
G03X628779Y364037I-0J1100D01*
G01X628075Y363782D02*
X625075D01*
X623975Y364882D02*
G03X625075Y363782I1100J-0D01*
G01X623975Y364882D02*
Y367225D01*
G03X623843Y367563I-500J-0*
G01X622500Y369025*
G03X622092Y369185I-369J-338*
G01X623315Y374940D02*
G03X622092Y369185I-1465J-2696D01*
G01X623315Y374940D02*
G03X624029Y375224I239J440D01*
G01X624594Y375871D02*
G03X624029Y375224I481J-989D01*
G01X624594Y375871D02*
G03X624875Y376321I-219J450D01*
G01Y386775*
G03X624627Y387207I-500J-0*
G01X628549Y387092D02*
G03X624627Y387207I-1856J3656D01*
G01X628549Y387092D02*
G03X628275Y386646I226J-446D01*
G01Y376321*
G03X628556Y375871I500J-0*
G01X629175Y374882D02*
G03X628556Y375871I-1100J-0D01*
G01X629175Y374882D02*
Y372593D01*
G03X629321Y372240I500J0*
G01X632501Y369060*
X632999Y367857D02*
G03X632501Y369060I-1700J0D01*
G01X632999Y367857D02*
Y364259D01*
G03X633908Y363971I500J-0*
G01Y360438D02*
G03Y363971I2509J1767D01*
G01Y360438D02*
G03X632999Y360151I-409J-287D01*
G01Y349927*
G03X633146Y349573I500J0*
G01X651006Y331713*
G03X651858Y332097I353J354*
G01X653462Y344094D02*
G03X653462I-3068J0D01*
G01X649919Y362205D02*
G03X649919I-3069J0D01*
G01X650793Y390748D02*
G03X650793I-4100J0D01*
G01Y400748D02*
G03X650793I-4100J0D01*
G01X640793Y390748D02*
G03X640793I-4100J0D01*
G01Y400748D02*
G03X640793I-4100J0D01*
G01X630793D02*
G03X630793I-4100J0D01*
G01X620793Y390748D02*
G03X620793I-4100J0D01*
G01Y400748D02*
G03X620793I-4100J0D01*
G01X622163Y413780D02*
G03X622163I-5037J0D01*
G01Y433465D02*
G03X622163I-5037J0D01*
G01X608974Y362205D02*
G03X608974I-3068J0D01*
G01X610793Y390748D02*
G03X610793I-4100J0D01*
G01Y400748D02*
G03X610793I-4100J0D01*
G01X595588Y340157D02*
G03X595588I-3068J0D01*
G01X600793Y390748D02*
G03X600793I-4100J0D01*
G01Y400748D02*
G03X600793I-4100J0D01*
G01X590793Y390748D02*
G03X590793I-4100J0D01*
G01Y400748D02*
G03X590793I-4100J0D01*
G01X580793Y390748D02*
G03X580793I-4100J0D01*
G01Y400748D02*
G03X580793I-4100J0D01*
G01X570793Y390748D02*
G03X570793I-4100J0D01*
G01Y400748D02*
G03X570793I-4100J0D01*
G01X560793Y390748D02*
G03X560793I-4100J0D01*
G01Y400748D02*
G03X560793I-4100J0D01*
G01X569604Y458268D02*
G03X569604I-8974J0D01*
G01X545785Y344291D02*
Y340354D01*
X544685Y339254D02*
G03X545785Y340354I0J1100D01*
G01X544685Y339254D02*
X536811D01*
X535711Y340354D02*
G03X536811Y339254I1100J0D01*
G01X535711Y340354D02*
Y344291D01*
X536811Y345391D02*
G03X535711Y344291I0J-1100D01*
G01X536811Y345391D02*
X544685D01*
X545785Y344291D02*
G03X544685Y345391I-1100J0D01*
G01X545785Y352165D02*
Y348228D01*
X544685Y347128D02*
G03X545785Y348228I0J1100D01*
G01X544685Y347128D02*
X536811D01*
X535711Y348228D02*
G03X536811Y347128I1100J0D01*
G01X535711Y348228D02*
Y352165D01*
X536811Y353265D02*
G03X535711Y352165I0J-1100D01*
G01X536811Y353265D02*
X544685D01*
X545785Y352165D02*
G03X544685Y353265I-1100J0D01*
G01X531265Y346496D02*
G03X531265I-4100J0D01*
G01Y359496D02*
Y353496D01*
X530165Y352396D02*
G03X531265Y353496I0J1100D01*
G01X530165Y352396D02*
X524165D01*
X523065Y353496D02*
G03X524165Y352396I1100J0D01*
G01X523065Y353496D02*
Y359496D01*
X524165Y360596D02*
G03X523065Y359496I0J-1100D01*
G01X524165Y360596D02*
X530165D01*
X531265Y359496D02*
G03X530165Y360596I-1100J0D01*
G01X521265Y346496D02*
G03X521265I-4100J0D01*
G01Y356496D02*
G03X521265I-4100J0D01*
G01X510549Y296063D02*
G03X510549I-3069J0D01*
G01X498738Y245669D02*
G03X498738I-8974J0D01*
G01X482793Y297047D02*
Y293110D01*
X481693Y292010D02*
G03X482793Y293110I-0J1100D01*
G01X481693Y292010D02*
X473819D01*
X472719Y293110D02*
G03X473819Y292010I1100J0D01*
G01X472719Y293110D02*
Y297047D01*
X473819Y298147D02*
G03X472719Y297047I-0J-1100D01*
G01X473819Y298147D02*
X481693D01*
X482793Y297047D02*
G03X481693Y298147I-1100J0D01*
G01X483355Y308403D02*
G03Y313251I1881J2424D01*
G01Y308403D02*
G03X482625Y308274I-307J-395D01*
G01X481693Y307758D02*
G03X482625Y308274I-0J1100D01*
G01X481693Y307758D02*
X473819D01*
X472719Y308858D02*
G03X473819Y307758I1100J0D01*
G01X472719Y308858D02*
Y312795D01*
X473819Y313895D02*
G03X472719Y312795I-0J-1100D01*
G01X473819Y313895D02*
X481693D01*
X482625Y313380D02*
G03X481693Y313895I-932J-585D01*
G01X482625Y313380D02*
G03X483355Y313251I423J266D01*
G01X483270Y316193D02*
G03Y321208I1769J2508D01*
G01Y316193D02*
G03X482579Y316081I-288J-408D01*
G01X481693Y315632D02*
G03X482579Y316081I-0J1100D01*
G01X481693Y315632D02*
X473819D01*
X472719Y316732D02*
G03X473819Y315632I1100J0D01*
G01X472719Y316732D02*
Y320669D01*
X473819Y321769D02*
G03X472719Y320669I-0J-1100D01*
G01X473819Y321769D02*
X481693D01*
X482579Y321321D02*
G03X481693Y321769I-886J-652D01*
G01X482579Y321321D02*
G03X483270Y321208I403J296D01*
G01X521265Y236496D02*
G03X521265I-4100J0D01*
G01Y246496D02*
G03X521265I-4100J0D01*
G01Y256496D02*
G03X521265I-4100J0D01*
G01Y266496D02*
G03X521265I-4100J0D01*
G01Y276496D02*
G03X521265I-4100J0D01*
G01Y286496D02*
G03X521265I-4100J0D01*
G01X531265Y236496D02*
G03X531265I-4100J0D01*
G01Y246496D02*
G03X531265I-4100J0D01*
G01Y256496D02*
G03X531265I-4100J0D01*
G01Y266496D02*
G03X531265I-4100J0D01*
G01Y276496D02*
G03X531265I-4100J0D01*
G01Y286496D02*
G03X531265I-4100J0D01*
G01X622084Y328108D02*
G03Y331892I2416J1892D01*
G01Y328108D02*
G03X621690Y328300I-394J-308D01*
G01X610406*
G03X609968Y328042I-0J-500*
G01X609317Y331826D02*
G03X609968Y328042I-2034J-2298D01*
G01X609317Y331826D02*
G03X609648Y331700I331J374D01*
G01X621690*
G03X622084Y331892I0J500*
G01X595391Y293504D02*
G03X595391I-3068J0D01*
G01X633974Y339567D02*
G03X633974I-3068J0D01*
G01X887789Y342862D02*
X942217D01*
X888594Y341962D02*
X942217D01*
X889058Y341062D02*
X942217D01*
X889262Y340162D02*
X942217D01*
X889250Y339262D02*
X942217D01*
X889019Y338362D02*
X942217D01*
X888519Y337462D02*
X942217D01*
X887571Y336562D02*
X942217D01*
X854873Y335662D02*
X942217D01*
X853973Y334762D02*
X942217D01*
X853073Y333862D02*
X942217D01*
X852173Y332962D02*
X942217D01*
X851273Y332062D02*
X942217D01*
X850373Y331162D02*
X942217D01*
X849473Y330262D02*
X942217D01*
X849122Y329362D02*
X942217D01*
X853079Y328462D02*
X942217D01*
X854078Y327562D02*
X942217D01*
X879900Y326662D02*
X942217D01*
X880870Y325762D02*
X942217D01*
X881296Y324862D02*
X942217D01*
X881415Y323962D02*
X942217D01*
X881263Y323062D02*
X942217D01*
X880792Y322162D02*
X942217D01*
X879700Y321262D02*
X942217D01*
X849122Y320362D02*
X942217D01*
X849122Y319462D02*
X942217D01*
X849122Y318562D02*
X942217D01*
X887631Y317662D02*
X942217D01*
X888033Y316762D02*
X942217D01*
X888033Y315862D02*
X942217D01*
X888033Y314962D02*
X942217D01*
X888033Y314062D02*
X942217D01*
X888033Y313162D02*
X942217D01*
X887738Y312262D02*
X942217D01*
X887737Y311362D02*
X942217D01*
X888033Y310462D02*
X942217D01*
X888033Y309562D02*
X942217D01*
X888033Y308662D02*
X942217D01*
X888033Y307762D02*
X942217D01*
X888033Y306862D02*
X942217D01*
X887632Y305962D02*
X942217D01*
X884588Y305062D02*
X942217D01*
X883688Y304162D02*
X942217D01*
X882788Y303262D02*
X942217D01*
X881888Y302362D02*
X942217D01*
X881042Y301462D02*
X942217D01*
X881262Y300562D02*
X942217D01*
X881414Y299662D02*
X942217D01*
X881296Y298762D02*
X942217D01*
X880871Y297862D02*
X942217D01*
X879903Y296962D02*
X942217D01*
X869670Y296062D02*
X942217D01*
X868770Y295162D02*
X942217D01*
X867870Y294262D02*
X942217D01*
X866970Y293362D02*
X942217D01*
X866070Y292462D02*
X942217D01*
X865592Y291562D02*
X942217D01*
X865592Y290662D02*
X942217D01*
X865592Y289762D02*
X942217D01*
X865396Y288862D02*
X942217D01*
X849122Y287962D02*
X942217D01*
X849122Y287062D02*
X942217D01*
X849122Y286162D02*
X942217D01*
X849122Y285262D02*
X942217D01*
X849122Y284362D02*
X942217D01*
X849122Y283462D02*
X942217D01*
X849122Y282562D02*
X942217D01*
X860387Y281662D02*
X942217D01*
X861757Y280762D02*
X942217D01*
X862305Y279862D02*
X942217D01*
X862509Y278962D02*
X942217D01*
X862441Y278062D02*
X942217D01*
X902816Y277162D02*
X942217D01*
X904253Y276262D02*
X942217D01*
X904814Y275362D02*
X942217D01*
X905027Y274462D02*
X942217D01*
X904967Y273562D02*
X942217D01*
X904616Y272662D02*
X942217D01*
X903815Y271762D02*
X942217D01*
X862049Y270862D02*
X942217D01*
X862049Y269962D02*
X942217D01*
X862049Y269062D02*
X942217D01*
X861988Y268162D02*
X942217D01*
X861511Y267262D02*
X942217D01*
X862023Y266362D02*
X942217D01*
X862049Y265462D02*
X942217D01*
X862049Y264562D02*
X942217D01*
X862049Y263662D02*
X942217D01*
X862049Y262762D02*
X942217D01*
X861948Y261862D02*
X942217D01*
X861155Y260962D02*
X942217D01*
X861149Y260062D02*
X942217D01*
X861149Y259162D02*
X942217D01*
X861149Y258262D02*
X942217D01*
X861180Y257362D02*
X942217D01*
X861978Y256462D02*
X942217D01*
X862401Y255562D02*
X942217D01*
X862517Y254662D02*
X942217D01*
X862362Y253762D02*
X942217D01*
X861887Y252862D02*
X942217D01*
X860784Y251962D02*
X942217D01*
X849122Y251062D02*
X942217D01*
X849122Y250162D02*
X942217D01*
X849122Y249262D02*
X942217D01*
X849122Y248362D02*
X942217D01*
X849122Y247462D02*
X942217D01*
X862080Y277162D02*
X901121D01*
X862049Y271762D02*
X900122D01*
X861258Y276262D02*
X899684D01*
X861995Y272662D02*
X899321D01*
X849122Y275362D02*
X899123D01*
X849122Y273562D02*
X898970D01*
X849122Y274462D02*
X898910D01*
X855773Y336562D02*
X883295D01*
X849122Y317662D02*
X883236D01*
X865592Y311362D02*
X883129D01*
X865592Y312262D02*
X883128D01*
X862073Y342862D02*
X883078D01*
X849122Y316762D02*
X882833D01*
X849122Y315862D02*
X882833D01*
X849122Y314962D02*
X882833D01*
X865253Y314062D02*
X882833D01*
X865592Y313162D02*
X882833D01*
X865592Y310462D02*
X882833D01*
X865592Y309562D02*
X882833D01*
X865241Y308662D02*
X882833D01*
X865346Y307762D02*
X882480D01*
X856673Y337462D02*
X882347D01*
X861173Y341962D02*
X882272D01*
X857573Y338362D02*
X881847D01*
X860273Y341062D02*
X881808D01*
X858473Y339262D02*
X881616D01*
X859373Y340162D02*
X881604D01*
X865592Y306862D02*
X881580D01*
X865592Y305962D02*
X880680D01*
X865592Y305062D02*
X879780D01*
X865592Y304162D02*
X878880D01*
X865592Y303262D02*
X877980D01*
X865116Y302362D02*
X876996D01*
X849122Y321262D02*
X876993D01*
X854516Y326662D02*
X876792D01*
X870570Y296962D02*
X876790D01*
X849122Y322162D02*
X875901D01*
X864692Y301462D02*
X875899D01*
X854643Y325762D02*
X875823D01*
X871515Y297862D02*
X875743D01*
X852984Y323062D02*
X875430D01*
X854500Y324862D02*
X875397D01*
X854041Y323962D02*
X875278D01*
X864851Y300562D02*
X869361D01*
X865578Y299662D02*
X868461D01*
X865592Y298762D02*
X867561D01*
X865612Y297862D02*
X866661D01*
X849122Y301462D02*
X861292D01*
X849122Y300562D02*
X861134D01*
X854580Y294262D02*
X860880D01*
X849122Y302362D02*
X860868D01*
X849122Y308662D02*
X860744D01*
X849122Y314062D02*
X860731D01*
X859567Y307762D02*
X860639D01*
X849122Y288862D02*
X860588D01*
X854631Y295162D02*
X860526D01*
X849122Y299662D02*
X860406D01*
X854240Y293362D02*
X860395D01*
X849122Y313162D02*
X860392D01*
X849122Y312262D02*
X860392D01*
X849122Y311362D02*
X860392D01*
X849122Y310462D02*
X860392D01*
X849122Y309562D02*
X860392D01*
X849122Y298762D02*
X860392D01*
X852307Y297862D02*
X860392D01*
X853831Y296962D02*
X860392D01*
X854407Y296062D02*
X860392D01*
X853461Y292462D02*
X860392D01*
X849122Y291562D02*
X860392D01*
X849122Y290662D02*
X860392D01*
X849122Y289762D02*
X860392D01*
X859567Y303262D02*
X860294D01*
X849122Y281662D02*
X858510D01*
X849122Y251962D02*
X858113D01*
X849122Y260062D02*
X857749D01*
X849122Y259162D02*
X857749D01*
X849122Y258262D02*
X857749D01*
X849122Y260962D02*
X857743D01*
X849122Y257362D02*
X857718D01*
X849122Y276262D02*
X857640D01*
X849122Y267262D02*
X857387D01*
X849122Y280762D02*
X857140D01*
X849122Y252862D02*
X857010D01*
X849122Y261862D02*
X856950D01*
X849122Y256462D02*
X856919D01*
X849122Y268162D02*
X856910D01*
X849122Y272662D02*
X856902D01*
X849122Y266362D02*
X856875D01*
X849122Y271762D02*
X856849D01*
X849122Y270862D02*
X856849D01*
X849122Y269962D02*
X856849D01*
X849122Y269062D02*
X856849D01*
X849122Y265462D02*
X856849D01*
X849122Y264562D02*
X856849D01*
X849122Y263662D02*
X856849D01*
X849122Y262762D02*
X856849D01*
X849122Y277162D02*
X856817D01*
X849122Y279862D02*
X856593D01*
X849122Y253762D02*
X856535D01*
X849122Y255562D02*
X856497D01*
X849122Y278062D02*
X856456D01*
X849122Y278962D02*
X856388D01*
X849122Y254662D02*
X856381D01*
X849122Y303262D02*
X855394D01*
X849122Y307762D02*
X855394D01*
X849122Y304162D02*
X854725D01*
X849122Y306862D02*
X854725D01*
X849122Y305062D02*
X854445D01*
X849122Y305962D02*
X854445D01*
X849122Y297862D02*
X850842D01*
X849196Y323062D02*
X850165D01*
X849232Y328462D02*
X850070D01*
X496494Y320083D02*
X514455D01*
X497394Y319183D02*
X514068D01*
X501894Y314683D02*
X513488D01*
X498294Y318283D02*
X513475D01*
X500994Y315583D02*
X513168D01*
X499194Y317383D02*
X513162D01*
X500094Y316483D02*
X513065D01*
X495594Y320983D02*
X498660D01*
X494694Y321883D02*
X497760D01*
X493794Y322783D02*
X496860D01*
X492894Y323683D02*
X495960D01*
X491994Y324583D02*
X495060D01*
X491094Y325483D02*
X494160D01*
X490194Y326383D02*
X493260D01*
X489294Y327283D02*
X492360D01*
X488394Y328183D02*
X491460D01*
X487494Y329083D02*
X490560D01*
X486594Y329983D02*
X489660D01*
X485694Y330883D02*
X488760D01*
X484794Y331783D02*
X487860D01*
X483894Y332683D02*
X486960D01*
X482994Y333583D02*
X486060D01*
X482793Y334483D02*
X485160D01*
X482793Y335383D02*
X484260D01*
X519876Y320083D02*
X524455D01*
X520262Y319183D02*
X524068D01*
X520843Y314683D02*
X523488D01*
X520856Y318283D02*
X523475D01*
X521162Y315583D02*
X523168D01*
X521168Y317383D02*
X523162D01*
X521265Y316483D02*
X523065D01*
X655734Y311983D02*
X656980D01*
X543817Y475783D02*
X827453D01*
X543817Y474883D02*
X827453D01*
X543817Y473983D02*
X827453D01*
X543817Y473083D02*
X827453D01*
X543817Y472183D02*
X827453D01*
X543817Y471283D02*
X827453D01*
X543817Y470383D02*
X827453D01*
X543817Y469483D02*
X827453D01*
X543817Y468583D02*
X827453D01*
X543817Y467683D02*
X827453D01*
X563463Y466783D02*
X827453D01*
X565378Y465883D02*
X827453D01*
X566583Y464983D02*
X827453D01*
X567465Y464083D02*
X827453D01*
X568138Y463183D02*
X827453D01*
X568656Y462283D02*
X827453D01*
X569046Y461383D02*
X827453D01*
X569326Y460483D02*
X827453D01*
X569507Y459583D02*
X827453D01*
X569594Y458683D02*
X827453D01*
X569591Y457783D02*
X827453D01*
X685774Y456883D02*
X827453D01*
X686837Y455983D02*
X827453D01*
X687387Y455083D02*
X827453D01*
X687655Y454183D02*
X827453D01*
X687699Y453283D02*
X827453D01*
X687529Y452383D02*
X827453D01*
X687111Y451483D02*
X827453D01*
X686320Y450583D02*
X827453D01*
X563244Y449683D02*
X827453D01*
X543817Y448783D02*
X827453D01*
X543817Y447883D02*
X827453D01*
X543817Y446983D02*
X827453D01*
X543817Y446083D02*
X827453D01*
X543817Y445183D02*
X827453D01*
X543817Y444283D02*
X827453D01*
X543817Y443383D02*
X827453D01*
X543817Y442483D02*
X827453D01*
X543817Y441583D02*
X827453D01*
X543817Y440683D02*
X827453D01*
X543817Y439783D02*
X827453D01*
X543817Y438883D02*
X827453D01*
X619352Y437983D02*
X827453D01*
X620630Y437083D02*
X827453D01*
X621367Y436183D02*
X827453D01*
X683315Y435283D02*
X827453D01*
X684430Y434383D02*
X827453D01*
X685001Y433483D02*
X827453D01*
X685283Y432583D02*
X827453D01*
X685341Y431683D02*
X827453D01*
X685184Y430783D02*
X827453D01*
X684782Y429883D02*
X827453D01*
X684021Y428983D02*
X827453D01*
X758193Y428083D02*
X827453D01*
X759261Y427183D02*
X827453D01*
X759905Y426283D02*
X827453D01*
X760300Y425383D02*
X827453D01*
X760505Y424483D02*
X827453D01*
X760543Y423583D02*
X827453D01*
X760419Y422683D02*
X827453D01*
X760119Y421783D02*
X827453D01*
X759605Y420883D02*
X827453D01*
X758776Y419983D02*
X827453D01*
X757227Y419083D02*
X827453D01*
X619572Y418183D02*
X827453D01*
X620745Y417283D02*
X827453D01*
X621438Y416383D02*
X827453D01*
X621866Y415483D02*
X827453D01*
X622099Y414583D02*
X827453D01*
X622162Y413683D02*
X827453D01*
X622063Y412783D02*
X827453D01*
X621792Y411883D02*
X827453D01*
X621315Y410983D02*
X827453D01*
X620548Y410083D02*
X827453D01*
X619186Y409183D02*
X827453D01*
X543817Y408283D02*
X827453D01*
X543817Y407383D02*
X827453D01*
X543817Y406483D02*
X827453D01*
X543817Y405583D02*
X827453D01*
X647845Y404683D02*
X827453D01*
X649450Y403783D02*
X827453D01*
X650193Y402883D02*
X827453D01*
X650603Y401983D02*
X827453D01*
X650779Y401083D02*
X827453D01*
X650754Y400183D02*
X827453D01*
X650522Y399283D02*
X827453D01*
X650042Y398383D02*
X827453D01*
X649173Y397483D02*
X827453D01*
X758199Y396583D02*
X827453D01*
X759264Y395683D02*
X827453D01*
X759907Y394783D02*
X827453D01*
X760301Y393883D02*
X827453D01*
X760505Y392983D02*
X827453D01*
X760543Y392083D02*
X827453D01*
X760418Y391183D02*
X827453D01*
X760117Y390283D02*
X827453D01*
X759602Y389383D02*
X827453D01*
X758772Y388483D02*
X827453D01*
X757216Y387583D02*
X827453D01*
X647227Y386683D02*
X827453D01*
X628275Y385783D02*
X827453D01*
X628275Y384883D02*
X827453D01*
X628275Y383983D02*
X827453D01*
X628275Y383083D02*
X827453D01*
X628275Y382183D02*
X827453D01*
X628275Y381283D02*
X827453D01*
X628275Y380383D02*
X827453D01*
X628275Y379483D02*
X827453D01*
X628275Y378583D02*
X827453D01*
X628275Y377683D02*
X827453D01*
X628275Y376783D02*
X827453D01*
X628533Y375883D02*
X827453D01*
X629170Y374983D02*
X827453D01*
X629175Y374083D02*
X827453D01*
X629175Y373183D02*
X827453D01*
X629283Y372283D02*
X827453D01*
X630178Y371383D02*
X827453D01*
X631078Y370483D02*
X827453D01*
X631978Y369583D02*
X827453D01*
X632785Y368683D02*
X827453D01*
X632999Y367783D02*
X827453D01*
X632999Y366883D02*
X827453D01*
X632999Y365983D02*
X827453D01*
X647914Y365083D02*
X827453D01*
X649196Y364183D02*
X827453D01*
X649723Y363283D02*
X827453D01*
X649914Y362383D02*
X827453D01*
X649833Y361483D02*
X827453D01*
X649455Y360583D02*
X827453D01*
X648599Y359683D02*
X827453D01*
X632999Y358783D02*
X827453D01*
X671669Y357883D02*
X827453D01*
X673139Y356983D02*
X827453D01*
X673706Y356083D02*
X827453D01*
X673923Y355183D02*
X827453D01*
X673868Y354283D02*
X827453D01*
X673521Y353383D02*
X827453D01*
X672731Y352483D02*
X827453D01*
X672566Y351583D02*
X827453D01*
X702135Y350683D02*
X827453D01*
X703110Y349783D02*
X827453D01*
X703539Y348883D02*
X827453D01*
X703659Y347983D02*
X827453D01*
X703509Y347083D02*
X827453D01*
X703040Y346183D02*
X827453D01*
X701955Y345283D02*
X827453D01*
X674200Y344383D02*
X827453D01*
X674200Y343483D02*
X827453D01*
X674200Y342583D02*
X827453D01*
X674200Y341683D02*
X827453D01*
X674200Y340783D02*
X827453D01*
X674232Y339883D02*
X827453D01*
X709451Y338983D02*
X827453D01*
X821257Y338083D02*
X827453D01*
X823062Y337183D02*
X827453D01*
X823671Y336283D02*
X827453D01*
X823915Y335383D02*
X827453D01*
X823884Y334483D02*
X827453D01*
X823567Y333583D02*
X827453D01*
X822832Y332683D02*
X827453D01*
X691636Y331783D02*
X827453D01*
X692191Y330883D02*
X827453D01*
X693091Y329983D02*
X827453D01*
X693991Y329083D02*
X827453D01*
X694891Y328183D02*
X827453D01*
X695791Y327283D02*
X827453D01*
X696691Y326383D02*
X827453D01*
X697527Y325483D02*
X827453D01*
X820232Y324583D02*
X827453D01*
X821100Y323683D02*
X827453D01*
X821483Y322783D02*
X827453D01*
X821568Y321883D02*
X827453D01*
X821382Y320983D02*
X827453D01*
X820861Y320083D02*
X827453D01*
X819605Y319183D02*
X827453D01*
X733103Y318283D02*
X827453D01*
X733712Y317383D02*
X827453D01*
X733955Y316483D02*
X827453D01*
X733923Y315583D02*
X827453D01*
X733605Y314683D02*
X827453D01*
X732868Y313783D02*
X827453D01*
X798540Y312883D02*
X827453D01*
X799211Y311983D02*
X827453D01*
X799492Y311083D02*
X827453D01*
X799492Y310183D02*
X827453D01*
X799214Y309283D02*
X827453D01*
X798546Y308383D02*
X827453D01*
X697782Y307483D02*
X827453D01*
X697782Y306583D02*
X827453D01*
X697782Y305683D02*
X827453D01*
X697782Y304783D02*
X827453D01*
X807534Y303883D02*
X827453D01*
X808238Y302983D02*
X827453D01*
X808538Y302083D02*
X827453D01*
X808555Y301183D02*
X827453D01*
X808295Y300283D02*
X827453D01*
X807659Y299383D02*
X827453D01*
X800803Y298483D02*
X827453D01*
X697782Y292183D02*
X827453D01*
X697782Y291283D02*
X827453D01*
X697782Y290383D02*
X827453D01*
X697776Y289483D02*
X827453D01*
X697430Y288583D02*
X827453D01*
X696550Y287683D02*
X827453D01*
X695671Y286783D02*
X827453D01*
X695598Y285883D02*
X827453D01*
X695598Y284983D02*
X827453D01*
X695598Y284083D02*
X827453D01*
X695598Y283183D02*
X827453D01*
X695598Y282283D02*
X827453D01*
X818685Y281383D02*
X827453D01*
X819652Y280483D02*
X827453D01*
X820077Y279583D02*
X827453D01*
X820194Y278683D02*
X827453D01*
X820041Y277783D02*
X827453D01*
X819569Y276883D02*
X827453D01*
X818473Y275983D02*
X827453D01*
X696929Y275083D02*
X827453D01*
X781248Y274183D02*
X827453D01*
X782622Y273283D02*
X827453D01*
X783171Y272383D02*
X827453D01*
X783375Y271483D02*
X827453D01*
X783308Y270583D02*
X827453D01*
X782947Y269683D02*
X827453D01*
X782126Y268783D02*
X827453D01*
X707967Y267883D02*
X827453D01*
X708315Y266983D02*
X827453D01*
X708373Y266083D02*
X827453D01*
X708158Y265183D02*
X827453D01*
X707593Y264283D02*
X827453D01*
X706140Y263383D02*
X827453D01*
X528005Y262483D02*
X827453D01*
X471179Y261583D02*
X827453D01*
X471179Y260683D02*
X827453D01*
X529616Y259783D02*
X827453D01*
X530499Y258883D02*
X827453D01*
X530986Y257983D02*
X827453D01*
X531223Y257083D02*
X827453D01*
X531253Y256183D02*
X827453D01*
X531082Y255283D02*
X827453D01*
X530679Y254383D02*
X827453D01*
X529946Y253483D02*
X827453D01*
X528389Y252583D02*
X827453D01*
X496425Y251683D02*
X827453D01*
X497138Y250783D02*
X827453D01*
X529476Y249883D02*
X827453D01*
X530425Y248983D02*
X827453D01*
X788115Y248083D02*
X827453D01*
X788890Y247183D02*
X827453D01*
X814687Y246283D02*
X827453D01*
X815812Y245383D02*
X827453D01*
X816294Y244483D02*
X827453D01*
X816453Y243583D02*
X827453D01*
X816342Y242683D02*
X827453D01*
X815926Y241783D02*
X827453D01*
X814982Y240883D02*
X827453D01*
X529322Y239983D02*
X827453D01*
X530346Y239083D02*
X827453D01*
X530902Y238183D02*
X827453D01*
X531189Y237283D02*
X827453D01*
X531264Y236383D02*
X827453D01*
X531138Y235483D02*
X827453D01*
X530792Y234583D02*
X827453D01*
X530148Y233683D02*
X827453D01*
X528904Y232783D02*
X827453D01*
X471179Y231883D02*
X827453D01*
X471179Y230983D02*
X827453D01*
X471179Y230083D02*
X827453D01*
X471179Y229183D02*
X827453D01*
X471179Y228283D02*
X827453D01*
X826432Y297583D02*
X827413D01*
X471221Y227383D02*
X827410D01*
X826556Y293083D02*
X827345D01*
X799762Y297583D02*
X822387D01*
X697782Y293083D02*
X822263D01*
X697782Y296683D02*
X821683D01*
X697782Y293983D02*
X821626D01*
X697782Y295783D02*
X821383D01*
X697782Y294883D02*
X821366D01*
X710076Y338083D02*
X820476D01*
X691593Y332683D02*
X818901D01*
X710329Y337183D02*
X818670D01*
X691262Y333583D02*
X818165D01*
X710306Y336283D02*
X818061D01*
X709282Y334483D02*
X817848D01*
X709999Y335383D02*
X817817D01*
X731314Y319183D02*
X817403D01*
X697782Y324583D02*
X816776D01*
X697782Y320083D02*
X816147D01*
X697782Y323683D02*
X815908D01*
X696640Y275983D02*
X815779D01*
X697782Y320983D02*
X815626D01*
X695598Y281383D02*
X815567D01*
X697782Y322783D02*
X815525D01*
X697782Y321883D02*
X815440D01*
X695955Y276883D02*
X814683D01*
X695598Y280483D02*
X814600D01*
X695598Y277783D02*
X814211D01*
X695598Y279583D02*
X814175D01*
X695598Y278683D02*
X814058D01*
X789227Y246283D02*
X812085D01*
X497355Y240883D02*
X811790D01*
X789276Y245383D02*
X810960D01*
X497853Y241783D02*
X810845D01*
X789050Y244483D02*
X810478D01*
X786926Y242683D02*
X810429D01*
X788471Y243583D02*
X810318D01*
X697782Y303883D02*
X803490D01*
X801257Y299383D02*
X803364D01*
X799807Y302983D02*
X802785D01*
X801395Y300283D02*
X802728D01*
X800821Y302083D02*
X802486D01*
X801264Y301183D02*
X802468D01*
X697782Y297583D02*
X796892D01*
X697782Y302983D02*
X796846D01*
X697782Y298483D02*
X795851D01*
X697782Y302083D02*
X795833D01*
X697782Y299383D02*
X795397D01*
X697782Y301183D02*
X795389D01*
X697782Y300283D02*
X795258D01*
X697782Y312883D02*
X794373D01*
X697782Y308383D02*
X794367D01*
X697782Y311983D02*
X793703D01*
X697782Y309283D02*
X793700D01*
X697782Y311083D02*
X793422D01*
X697782Y310183D02*
X793421D01*
X770539Y242683D02*
X785515D01*
X770136Y248083D02*
X784326D01*
X771457Y243583D02*
X783970D01*
X771301Y247183D02*
X783551D01*
X771862Y244483D02*
X783391D01*
X771796Y246283D02*
X783214D01*
X771964Y245383D02*
X783165D01*
X696937Y274183D02*
X779382D01*
X707170Y268783D02*
X778504D01*
X696666Y273283D02*
X778008D01*
X529745Y269683D02*
X777683D01*
X696012Y272383D02*
X777459D01*
X527493Y270583D02*
X777322D01*
X471179Y271483D02*
X777255D01*
X530946Y248083D02*
X767659D01*
X528672Y242683D02*
X767256D01*
X531207Y247183D02*
X766494D01*
X530050Y243583D02*
X766338D01*
X531260Y246283D02*
X765999D01*
X530737Y244483D02*
X765933D01*
X531111Y245383D02*
X765831D01*
X649299Y387583D02*
X753807D01*
X543817Y419083D02*
X753796D01*
X682071Y428083D02*
X752830D01*
X543817Y396583D02*
X752824D01*
X685923Y388483D02*
X752252D01*
X543817Y419983D02*
X752247D01*
X543817Y427183D02*
X751763D01*
X543817Y395683D02*
X751759D01*
X686908Y389383D02*
X751422D01*
X543817Y420883D02*
X751419D01*
X543817Y426283D02*
X751119D01*
X686207Y394783D02*
X751116D01*
X687425Y390283D02*
X750906D01*
X543817Y421783D02*
X750905D01*
X543817Y425383D02*
X750724D01*
X687052Y393883D02*
X750722D01*
X687669Y391183D02*
X750605D01*
X543817Y422683D02*
X750605D01*
X543817Y424483D02*
X750519D01*
X687499Y392983D02*
X750518D01*
X687692Y392083D02*
X750480D01*
X543817Y423583D02*
X750480D01*
X697782Y319183D02*
X730497D01*
X697782Y313783D02*
X728943D01*
X697782Y318283D02*
X728708D01*
X697782Y314683D02*
X728206D01*
X697782Y317383D02*
X728099D01*
X697782Y315583D02*
X727888D01*
X697782Y316483D02*
X727856D01*
X690499Y334483D02*
X705284D01*
X674532Y338983D02*
X705116D01*
X674535Y335383D02*
X704568D01*
X674535Y338083D02*
X704491D01*
X529833Y263383D02*
X704490D01*
X674535Y336283D02*
X704261D01*
X674535Y337183D02*
X704238D01*
X530568Y268783D02*
X703460D01*
X530617Y264283D02*
X703037D01*
X531024Y267883D02*
X702663D01*
X531049Y265183D02*
X702472D01*
X531236Y266983D02*
X702315D01*
X531245Y266083D02*
X702257D01*
X674209Y345283D02*
X699226D01*
X673989Y350683D02*
X699046D01*
X674973Y346183D02*
X698141D01*
X674997Y349783D02*
X698071D01*
X675428Y347083D02*
X697672D01*
X675439Y348883D02*
X697643D01*
X675568Y347983D02*
X697522D01*
X603870Y322783D02*
X694382D01*
X665133Y321883D02*
X694382D01*
X677289Y320983D02*
X694382D01*
X678290Y320083D02*
X694382D01*
X678728Y319183D02*
X694382D01*
X678856Y318283D02*
X694382D01*
X678713Y317383D02*
X694382D01*
X678255Y316483D02*
X694382D01*
X677200Y315583D02*
X694382D01*
X661925Y314683D02*
X694382D01*
X661825Y313783D02*
X694382D01*
X661423Y312883D02*
X694382D01*
X674762Y311983D02*
X694382D01*
X675629Y311083D02*
X694382D01*
X676011Y310183D02*
X694382D01*
X676096Y309283D02*
X694382D01*
X675909Y308383D02*
X694382D01*
X675388Y307483D02*
X694382D01*
X674128Y306583D02*
X694382D01*
X638344Y305683D02*
X694382D01*
X639017Y304783D02*
X694382D01*
X655872Y296683D02*
X694382D01*
X674451Y295783D02*
X694382D01*
X675271Y294883D02*
X694382D01*
X675631Y293983D02*
X694382D01*
X675698Y293083D02*
X694382D01*
X675493Y292183D02*
X694382D01*
X674944Y291283D02*
X694382D01*
X602970Y323683D02*
X694382D01*
X639366Y303883D02*
X694361D01*
X673568Y290383D02*
X694360D01*
X693522Y297583D02*
X694142D01*
X655276Y324583D02*
X693682D01*
X543423Y289483D02*
X693542D01*
X656031Y325483D02*
X692782D01*
X543423Y288583D02*
X692644D01*
X656297Y297583D02*
X692305D01*
X543423Y287683D02*
X692216D01*
X543423Y286783D02*
X692198D01*
X543423Y285883D02*
X692198D01*
X543423Y284983D02*
X692198D01*
X543373Y284083D02*
X692198D01*
X543348Y283183D02*
X692198D01*
X543268Y282283D02*
X692198D01*
X542819Y281383D02*
X692198D01*
X543332Y280483D02*
X692198D01*
X543348Y279583D02*
X692198D01*
X543348Y278683D02*
X692198D01*
X543348Y277783D02*
X692198D01*
X656359Y326383D02*
X691882D01*
X543348Y276883D02*
X691840D01*
X471179Y272383D02*
X691783D01*
X543221Y275983D02*
X691155D01*
X529712Y273283D02*
X691129D01*
X639480Y302983D02*
X690992D01*
X674008Y327283D02*
X690982D01*
X531014Y275083D02*
X690866D01*
X530551Y274183D02*
X690858D01*
X656414Y298483D02*
X690683D01*
X639380Y302083D02*
X690232D01*
X656262Y299383D02*
X690092D01*
X675216Y328183D02*
X690082D01*
X654692Y301183D02*
X689903D01*
X655789Y300283D02*
X689860D01*
X675723Y329083D02*
X687955D01*
X674535Y334483D02*
X686666D01*
X675900Y329983D02*
X686349D01*
X674535Y333583D02*
X685904D01*
X675806Y330883D02*
X685760D01*
X674599Y332683D02*
X685573D01*
X675412Y331783D02*
X685529D01*
X569496Y456883D02*
X681943D01*
X650110Y388483D02*
X681793D01*
X647421Y394783D02*
X681510D01*
X565264Y450583D02*
X681397D01*
X543817Y428083D02*
X680921D01*
X569308Y455983D02*
X680880D01*
X650559Y389383D02*
X680808D01*
X649335Y393883D02*
X680665D01*
X566504Y451483D02*
X680606D01*
X569020Y455083D02*
X680330D01*
X650766Y390283D02*
X680291D01*
X650130Y392983D02*
X680217D01*
X567405Y452383D02*
X680187D01*
X568620Y454183D02*
X680062D01*
X650770Y391183D02*
X680048D01*
X650570Y392083D02*
X680024D01*
X568092Y453283D02*
X680017D01*
X621823Y435283D02*
X679677D01*
X619425Y428983D02*
X678972D01*
X622079Y434383D02*
X678562D01*
X620668Y429883D02*
X678210D01*
X622163Y433483D02*
X677991D01*
X621390Y430783D02*
X677809D01*
X622085Y432583D02*
X677709D01*
X621837Y431683D02*
X677652D01*
X661754Y315583D02*
X674375D01*
X665773Y320983D02*
X674286D01*
X661555Y316483D02*
X673320D01*
X666035Y320083D02*
X673285D01*
X665021Y317383D02*
X672861D01*
X666019Y319183D02*
X672847D01*
X665722Y318283D02*
X672719D01*
X665346Y306583D02*
X671935D01*
X543423Y290383D02*
X671708D01*
X656399Y327283D02*
X671661D01*
X667146Y311983D02*
X671301D01*
X654907Y295783D02*
X670825D01*
X667334Y307483D02*
X670675D01*
X656164Y328183D02*
X670453D01*
X667869Y311083D02*
X670434D01*
X594440Y291283D02*
X670332D01*
X667954Y308383D02*
X670154D01*
X632999Y357883D02*
X670063D01*
X668179Y310183D02*
X670052D01*
X595064Y294883D02*
X670005D01*
X668204Y309283D02*
X669967D01*
X655798Y329083D02*
X669946D01*
X595092Y292183D02*
X669783D01*
X595354Y293983D02*
X669645D01*
X595362Y293083D02*
X669577D01*
X632999Y352483D02*
X668989D01*
X632999Y351583D02*
X668745D01*
X632999Y356983D02*
X668593D01*
X632999Y353383D02*
X668211D01*
X666153Y329983D02*
X668066D01*
X632999Y356083D02*
X668026D01*
X632999Y354283D02*
X667865D01*
X632999Y350683D02*
X667847D01*
X632999Y355183D02*
X667809D01*
X633020Y349783D02*
X667414D01*
X633836Y348883D02*
X667394D01*
X634736Y347983D02*
X667394D01*
X651090Y347083D02*
X667394D01*
X652642Y346183D02*
X667394D01*
X653223Y345283D02*
X667394D01*
X653449Y344383D02*
X667394D01*
X653401Y343483D02*
X667394D01*
X653064Y342583D02*
X667394D01*
X652291Y341683D02*
X667394D01*
X641936Y340783D02*
X667394D01*
X642836Y339883D02*
X667394D01*
X643736Y338983D02*
X667394D01*
X644636Y338083D02*
X667394D01*
X645536Y337183D02*
X667394D01*
X646436Y336283D02*
X667394D01*
X665365Y335383D02*
X667294D01*
X659440Y306583D02*
X664969D01*
X647336Y335383D02*
X663375D01*
X661247Y311983D02*
X663169D01*
X661429Y307483D02*
X662981D01*
X656952Y329983D02*
X662587D01*
X657061Y334483D02*
X662045D01*
X657652Y330883D02*
X661750D01*
X657701Y333583D02*
X661507D01*
X657949Y331783D02*
X661382D01*
X657964Y332683D02*
X661308D01*
X659327Y321883D02*
X660851D01*
X636912Y306583D02*
X659063D01*
X655044Y307483D02*
X657075D01*
X648236Y334483D02*
X652782D01*
X649136Y333583D02*
X652141D01*
X639049Y301183D02*
X652001D01*
X650036Y332683D02*
X651879D01*
X594378Y295783D02*
X651786D01*
X650936Y331783D02*
X651771D01*
X633504Y307483D02*
X651649D01*
X602070Y324583D02*
X651416D01*
X638404Y300283D02*
X650904D01*
X550254Y296683D02*
X650821D01*
X632604Y308383D02*
X650763D01*
X601170Y325483D02*
X650662D01*
X637072Y299383D02*
X650431D01*
X549875Y297583D02*
X650396D01*
X631704Y309283D02*
X650373D01*
X600270Y326383D02*
X650334D01*
X625926Y327283D02*
X650294D01*
X566635Y298483D02*
X650278D01*
X631094Y310183D02*
X650116D01*
X626973Y328183D02*
X649728D01*
X635636Y347083D02*
X649697D01*
X627428Y329083D02*
X648828D01*
X641036Y341683D02*
X648496D01*
X636536Y346183D02*
X648146D01*
X627568Y329983D02*
X647928D01*
X640136Y342583D02*
X647723D01*
X637436Y345283D02*
X647565D01*
X639236Y343483D02*
X647387D01*
X604770Y321883D02*
X647363D01*
X638336Y344383D02*
X647339D01*
X627439Y330883D02*
X647028D01*
X605670Y320983D02*
X646463D01*
X637227Y386683D02*
X646159D01*
X626997Y331783D02*
X646128D01*
X637421Y394783D02*
X645965D01*
X637481Y365083D02*
X645787D01*
X606570Y320083D02*
X645563D01*
X637845Y404683D02*
X645541D01*
X625989Y332683D02*
X645228D01*
X638166Y359683D02*
X645102D01*
X607470Y319183D02*
X644663D01*
X638763Y364183D02*
X644505D01*
X593070Y333583D02*
X644328D01*
X639022Y360583D02*
X644245D01*
X639173Y397483D02*
X644213D01*
X639299Y387583D02*
X644087D01*
X639335Y393883D02*
X644050D01*
X639290Y363283D02*
X643978D01*
X639450Y403783D02*
X643936D01*
X639400Y361483D02*
X643868D01*
X639481Y362383D02*
X643787D01*
X638610Y318283D02*
X643763D01*
X592170Y334483D02*
X643428D01*
X640042Y398383D02*
X643344D01*
X640110Y388483D02*
X643275D01*
X640130Y392983D02*
X643256D01*
X640193Y402883D02*
X643193D01*
X640522Y399283D02*
X642864D01*
X640559Y389383D02*
X642827D01*
X640570Y392083D02*
X642816D01*
X640603Y401983D02*
X642783D01*
X640754Y400183D02*
X642632D01*
X640766Y390283D02*
X642619D01*
X640770Y391183D02*
X642616D01*
X640779Y401083D02*
X642607D01*
X591270Y335383D02*
X642528D01*
X545927Y336283D02*
X641628D01*
X632837Y337183D02*
X640728D01*
X633591Y338083D02*
X639828D01*
X633918Y338983D02*
X638928D01*
X633958Y339883D02*
X638028D01*
X633723Y340783D02*
X637128D01*
X633128Y341683D02*
X636228D01*
X628276Y386683D02*
X636159D01*
X627421Y394783D02*
X635965D01*
X627845Y404683D02*
X635541D01*
X632999Y365083D02*
X635353D01*
X631471Y342583D02*
X635328D01*
X632999Y359683D02*
X634669D01*
X545785Y343483D02*
X634428D01*
X629173Y397483D02*
X634213D01*
X567535Y299383D02*
X634188D01*
X629299Y387583D02*
X634087D01*
X633005Y364183D02*
X634072D01*
X629335Y393883D02*
X634050D01*
X629450Y403783D02*
X633936D01*
X633248Y360583D02*
X633751D01*
X545781Y344383D02*
X633528D01*
X630042Y398383D02*
X633344D01*
X630110Y388483D02*
X633275D01*
X630130Y392983D02*
X633256D01*
X630193Y402883D02*
X633193D01*
X630522Y399283D02*
X632864D01*
X568435Y300283D02*
X632856D01*
X630559Y389383D02*
X632827D01*
X630570Y392083D02*
X632816D01*
X630603Y401983D02*
X632783D01*
X630754Y400183D02*
X632632D01*
X545161Y345283D02*
X632628D01*
X630766Y390283D02*
X632619D01*
X630770Y391183D02*
X632616D01*
X630779Y401083D02*
X632607D01*
X569335Y301183D02*
X632211D01*
X572035Y303883D02*
X631894D01*
X570235Y302083D02*
X631879D01*
X571135Y302983D02*
X631780D01*
X531253Y346183D02*
X631728D01*
X572935Y304783D02*
X631396D01*
X531223Y347083D02*
X630828D01*
X573808Y305683D02*
X630496D01*
X594399Y342583D02*
X630340D01*
X545757Y347983D02*
X629949D01*
X545785Y348883D02*
X629604D01*
X608778Y363283D02*
X629599D01*
X608969Y362383D02*
X629599D01*
X608888Y361483D02*
X629599D01*
X608510Y360583D02*
X629599D01*
X607654Y359683D02*
X629599D01*
X531265Y358783D02*
X629599D01*
X531265Y357883D02*
X629599D01*
X531265Y356983D02*
X629599D01*
X531265Y356083D02*
X629599D01*
X531265Y355183D02*
X629599D01*
X531265Y354283D02*
X629599D01*
X531260Y353383D02*
X629599D01*
X545738Y352483D02*
X629599D01*
X545785Y351583D02*
X629599D01*
X545785Y350683D02*
X629599D01*
X545785Y349783D02*
X629599D01*
X593273Y337183D02*
X628974D01*
X595182Y341683D02*
X628683D01*
X594781Y338083D02*
X628220D01*
X595524Y340783D02*
X628088D01*
X595355Y338983D02*
X627893D01*
X595576Y339883D02*
X627853D01*
X617421Y394783D02*
X625965D01*
X617845Y404683D02*
X625541D01*
X608370Y318283D02*
X625314D01*
X617227Y386683D02*
X624875D01*
X543817Y385783D02*
X624875D01*
X543817Y384883D02*
X624875D01*
X543817Y383983D02*
X624875D01*
X543817Y383083D02*
X624875D01*
X543817Y382183D02*
X624875D01*
X543817Y381283D02*
X624875D01*
X543817Y380383D02*
X624875D01*
X543817Y379483D02*
X624875D01*
X543817Y378583D02*
X624875D01*
X543817Y377683D02*
X624875D01*
X543817Y376783D02*
X624875D01*
X543817Y375883D02*
X624616D01*
X608251Y364183D02*
X624225D01*
X619173Y397483D02*
X624213D01*
X619299Y387583D02*
X624087D01*
X619335Y393883D02*
X624050D01*
X543817Y366883D02*
X623975D01*
X543817Y365983D02*
X623975D01*
X606969Y365083D02*
X623975D01*
X619450Y403783D02*
X623936D01*
X623234Y374983D02*
X623859D01*
X543817Y367783D02*
X623641D01*
X620042Y398383D02*
X623344D01*
X620110Y388483D02*
X623275D01*
X620130Y392983D02*
X623256D01*
X620193Y402883D02*
X623193D01*
X609376Y327283D02*
X623074D01*
X593970Y332683D02*
X623011D01*
X620522Y399283D02*
X622864D01*
X620559Y389383D02*
X622827D01*
X620570Y392083D02*
X622816D01*
X543817Y368683D02*
X622814D01*
X620603Y401983D02*
X622783D01*
X620754Y400183D02*
X622632D01*
X620766Y390283D02*
X622619D01*
X620770Y391183D02*
X622616D01*
X620779Y401083D02*
X622607D01*
X610084Y328183D02*
X622012D01*
X609373Y331783D02*
X621966D01*
X543817Y374983D02*
X620467D01*
X543817Y369583D02*
X620323D01*
X543817Y374083D02*
X619394D01*
X543817Y370483D02*
X619338D01*
X543817Y373183D02*
X618929D01*
X543817Y371383D02*
X618905D01*
X543817Y372283D02*
X618782D01*
X607227Y386683D02*
X616159D01*
X607421Y394783D02*
X615965D01*
X607845Y404683D02*
X615541D01*
X543817Y409183D02*
X615066D01*
X543817Y437983D02*
X614900D01*
X543817Y428983D02*
X614827D01*
X543817Y418183D02*
X614680D01*
X609173Y397483D02*
X614213D01*
X609299Y387583D02*
X614087D01*
X609335Y393883D02*
X614050D01*
X609450Y403783D02*
X613936D01*
X543817Y410083D02*
X613704D01*
X543817Y437083D02*
X613622D01*
X543817Y429883D02*
X613584D01*
X543817Y417283D02*
X613507D01*
X610042Y398383D02*
X613344D01*
X610110Y388483D02*
X613275D01*
X610130Y392983D02*
X613256D01*
X610193Y402883D02*
X613193D01*
X543817Y410983D02*
X612937D01*
X543817Y436183D02*
X612885D01*
X610522Y399283D02*
X612864D01*
X543817Y430783D02*
X612862D01*
X610559Y389383D02*
X612827D01*
X610570Y392083D02*
X612816D01*
X543817Y416383D02*
X612814D01*
X610603Y401983D02*
X612783D01*
X610754Y400183D02*
X612632D01*
X610766Y390283D02*
X612619D01*
X610770Y391183D02*
X612616D01*
X610779Y401083D02*
X612607D01*
X543817Y411883D02*
X612460D01*
X543817Y435283D02*
X612429D01*
X543817Y431683D02*
X612415D01*
X543817Y415483D02*
X612386D01*
X543817Y412783D02*
X612189D01*
X543817Y434383D02*
X612173D01*
X543817Y432583D02*
X612167D01*
X543817Y414583D02*
X612153D01*
X543817Y413683D02*
X612090D01*
X543817Y433483D02*
X612089D01*
X597227Y386683D02*
X606159D01*
X597421Y394783D02*
X605965D01*
X597845Y404683D02*
X605541D01*
X594870Y331783D02*
X605203D01*
X599370Y327283D02*
X605191D01*
X543817Y365083D02*
X604842D01*
X595770Y330883D02*
X604531D01*
X598470Y328183D02*
X604525D01*
X596670Y329983D02*
X604249D01*
X597570Y329083D02*
X604247D01*
X599173Y397483D02*
X604213D01*
X531249Y359683D02*
X604157D01*
X599299Y387583D02*
X604087D01*
X599335Y393883D02*
X604050D01*
X599450Y403783D02*
X603936D01*
X543817Y364183D02*
X603560D01*
X600042Y398383D02*
X603344D01*
X530335Y360583D02*
X603301D01*
X600110Y388483D02*
X603275D01*
X600130Y392983D02*
X603256D01*
X600193Y402883D02*
X603193D01*
X543742Y363283D02*
X603033D01*
X471179Y361483D02*
X602923D01*
X600522Y399283D02*
X602864D01*
X471280Y362383D02*
X602842D01*
X600559Y389383D02*
X602827D01*
X600570Y392083D02*
X602816D01*
X600603Y401983D02*
X602783D01*
X600754Y400183D02*
X602632D01*
X600766Y390283D02*
X602619D01*
X600770Y391183D02*
X602616D01*
X600779Y401083D02*
X602607D01*
X587227Y386683D02*
X596159D01*
X587421Y394783D02*
X595965D01*
X587845Y404683D02*
X595541D01*
X589173Y397483D02*
X594213D01*
X589299Y387583D02*
X594087D01*
X589335Y393883D02*
X594050D01*
X589450Y403783D02*
X593936D01*
X590042Y398383D02*
X593344D01*
X590110Y388483D02*
X593275D01*
X590130Y392983D02*
X593256D01*
X590193Y402883D02*
X593193D01*
X590522Y399283D02*
X592864D01*
X590559Y389383D02*
X592827D01*
X590570Y392083D02*
X592816D01*
X590603Y401983D02*
X592783D01*
X590754Y400183D02*
X592632D01*
X590766Y390283D02*
X592619D01*
X590770Y391183D02*
X592616D01*
X590779Y401083D02*
X592607D01*
X545475Y337183D02*
X591766D01*
X545785Y342583D02*
X590640D01*
X550624Y295783D02*
X590268D01*
X530946Y338083D02*
X590259D01*
X543423Y291283D02*
X590206D01*
X545785Y341683D02*
X589857D01*
X530425Y338983D02*
X589685D01*
X550700Y294883D02*
X589582D01*
X548653Y292183D02*
X589553D01*
X545785Y340783D02*
X589516D01*
X545679Y339883D02*
X589463D01*
X550504Y293983D02*
X589292D01*
X549969Y293083D02*
X589283D01*
X577227Y386683D02*
X586159D01*
X577421Y394783D02*
X585965D01*
X577845Y404683D02*
X585541D01*
X579173Y397483D02*
X584213D01*
X579299Y387583D02*
X584087D01*
X579335Y393883D02*
X584050D01*
X579450Y403783D02*
X583936D01*
X580042Y398383D02*
X583344D01*
X580110Y388483D02*
X583275D01*
X580130Y392983D02*
X583256D01*
X580193Y402883D02*
X583193D01*
X580522Y399283D02*
X582864D01*
X580559Y389383D02*
X582827D01*
X580570Y392083D02*
X582816D01*
X580603Y401983D02*
X582783D01*
X580754Y400183D02*
X582632D01*
X580766Y390283D02*
X582619D01*
X580770Y391183D02*
X582616D01*
X580779Y401083D02*
X582607D01*
X575452Y306583D02*
X582052D01*
X576812Y307483D02*
X581058D01*
X577358Y308383D02*
X580158D01*
X577561Y309283D02*
X579258D01*
X577768Y310183D02*
X578348D01*
X567227Y386683D02*
X576159D01*
X567421Y394783D02*
X575965D01*
X567845Y404683D02*
X575541D01*
X569173Y397483D02*
X574213D01*
X569299Y387583D02*
X574087D01*
X569335Y393883D02*
X574050D01*
X569450Y403783D02*
X573936D01*
X570042Y398383D02*
X573344D01*
X570110Y388483D02*
X573275D01*
X570130Y392983D02*
X573256D01*
X570193Y402883D02*
X573193D01*
X570522Y399283D02*
X572864D01*
X570559Y389383D02*
X572827D01*
X570570Y392083D02*
X572816D01*
X570603Y401983D02*
X572783D01*
X570754Y400183D02*
X572632D01*
X570766Y390283D02*
X572619D01*
X570770Y391183D02*
X572616D01*
X570779Y401083D02*
X572607D01*
X557227Y386683D02*
X566159D01*
X557421Y394783D02*
X565965D01*
X557845Y404683D02*
X565541D01*
X559173Y397483D02*
X564213D01*
X559299Y387583D02*
X564087D01*
X559335Y393883D02*
X564050D01*
X559450Y403783D02*
X563936D01*
X560042Y398383D02*
X563344D01*
X560110Y388483D02*
X563275D01*
X560130Y392983D02*
X563256D01*
X560193Y402883D02*
X563193D01*
X560522Y399283D02*
X562864D01*
X560559Y389383D02*
X562827D01*
X560570Y392083D02*
X562816D01*
X560603Y401983D02*
X562783D01*
X560754Y400183D02*
X562632D01*
X560766Y390283D02*
X562619D01*
X560770Y391183D02*
X562616D01*
X560779Y401083D02*
X562607D01*
X543817Y449683D02*
X558016D01*
X543817Y466783D02*
X557797D01*
X543817Y386683D02*
X556159D01*
X543817Y450583D02*
X555996D01*
X543817Y394783D02*
X555965D01*
X543817Y465883D02*
X555882D01*
X543817Y404683D02*
X555541D01*
X543817Y451483D02*
X554756D01*
X543817Y464983D02*
X554677D01*
X543817Y397483D02*
X554213D01*
X543817Y387583D02*
X554087D01*
X543817Y393883D02*
X554050D01*
X543817Y403783D02*
X553936D01*
X543817Y452383D02*
X553855D01*
X543817Y464083D02*
X553795D01*
X543817Y398383D02*
X553344D01*
X543817Y388483D02*
X553275D01*
X543817Y392983D02*
X553256D01*
X543817Y402883D02*
X553193D01*
X543817Y453283D02*
X553168D01*
X543817Y463183D02*
X553122D01*
X543817Y399283D02*
X552864D01*
X543817Y389383D02*
X552827D01*
X543817Y392083D02*
X552816D01*
X543817Y401983D02*
X552783D01*
X543817Y454183D02*
X552639D01*
X543817Y400183D02*
X552632D01*
X543817Y390283D02*
X552619D01*
X543817Y391183D02*
X552616D01*
X543817Y401083D02*
X552607D01*
X543817Y462283D02*
X552604D01*
X543817Y455083D02*
X552240D01*
X543817Y461383D02*
X552214D01*
X543817Y455983D02*
X551952D01*
X543817Y460483D02*
X551934D01*
X543817Y456883D02*
X551763D01*
X543817Y459583D02*
X551753D01*
X543817Y457783D02*
X551669D01*
X543817Y458683D02*
X551665D01*
X545277Y292183D02*
X546623D01*
X471179Y281383D02*
X538677D01*
X531233Y275983D02*
X538275D01*
X471179Y282283D02*
X538229D01*
X528122Y280483D02*
X538164D01*
X529581Y283183D02*
X538148D01*
X529864Y279583D02*
X538148D01*
X530633Y278683D02*
X538148D01*
X531058Y277783D02*
X538148D01*
X531247Y276883D02*
X538148D01*
X530480Y284083D02*
X538123D01*
X471179Y291283D02*
X538073D01*
X528470Y290383D02*
X538073D01*
X529974Y289483D02*
X538073D01*
X530695Y288583D02*
X538073D01*
X531090Y287683D02*
X538073D01*
X531255Y286783D02*
X538073D01*
X531219Y285883D02*
X538073D01*
X530976Y284983D02*
X538073D01*
X531082Y345283D02*
X536335D01*
X482285Y292183D02*
X536219D01*
X531207Y337183D02*
X536021D01*
X529476Y339883D02*
X535817D01*
X530594Y352483D02*
X535758D01*
X530986Y347983D02*
X535739D01*
X531207Y297583D02*
X535720D01*
X530679Y344383D02*
X535715D01*
X529437Y293083D02*
X535711D01*
X482793Y351583D02*
X535711D01*
X482793Y350683D02*
X535711D01*
X529616Y349783D02*
X535711D01*
X530499Y348883D02*
X535711D01*
X529946Y343483D02*
X535711D01*
X528389Y342583D02*
X535711D01*
X493827Y341683D02*
X535711D01*
X492015Y340783D02*
X535711D01*
X531260Y336283D02*
X535711D01*
X531111Y335383D02*
X535711D01*
X530737Y334483D02*
X535711D01*
X530050Y333583D02*
X535711D01*
X531261Y296683D02*
X535711D01*
X531203Y295783D02*
X535711D01*
X530935Y294883D02*
X535711D01*
X530405Y293983D02*
X535711D01*
X517493Y270583D02*
X526837D01*
X518005Y262483D02*
X526326D01*
X518122Y280483D02*
X526209D01*
X518389Y342583D02*
X525942D01*
X518389Y252583D02*
X525942D01*
X518470Y290383D02*
X525861D01*
X518672Y242683D02*
X525659D01*
X518904Y232783D02*
X525427D01*
X519322Y239983D02*
X525009D01*
X519437Y293083D02*
X524894D01*
X519476Y339883D02*
X524855D01*
X519476Y249883D02*
X524855D01*
X519581Y283183D02*
X524750D01*
X519616Y349783D02*
X524715D01*
X519616Y259783D02*
X524715D01*
X519712Y273283D02*
X524619D01*
X519745Y269683D02*
X524586D01*
X519800Y300283D02*
X524531D01*
X519833Y263383D02*
X524497D01*
X519864Y279583D02*
X524467D01*
X519946Y343483D02*
X524385D01*
X519946Y253483D02*
X524385D01*
X519974Y289483D02*
X524357D01*
X520050Y333583D02*
X524280D01*
X520050Y243583D02*
X524280D01*
X520077Y299383D02*
X524254D01*
X520148Y233683D02*
X524183D01*
X517493Y360583D02*
X523996D01*
X520346Y239083D02*
X523984D01*
X520405Y293983D02*
X523926D01*
X520425Y338983D02*
X523906D01*
X520425Y248983D02*
X523906D01*
X520480Y284083D02*
X523851D01*
X520499Y348883D02*
X523832D01*
X520499Y258883D02*
X523832D01*
X520551Y274183D02*
X523780D01*
X520568Y268783D02*
X523762D01*
X518005Y352483D02*
X523737D01*
X520617Y264283D02*
X523714D01*
X520633Y278683D02*
X523697D01*
X520679Y344383D02*
X523652D01*
X520679Y254383D02*
X523652D01*
X520695Y288583D02*
X523636D01*
X520737Y334483D02*
X523594D01*
X520737Y244483D02*
X523594D01*
X520752Y298483D02*
X523579D01*
X520792Y234583D02*
X523539D01*
X520902Y238183D02*
X523428D01*
X520935Y294883D02*
X523396D01*
X520946Y338083D02*
X523385D01*
X520946Y248083D02*
X523385D01*
X520976Y284983D02*
X523355D01*
X520986Y347983D02*
X523344D01*
X520986Y257983D02*
X523344D01*
X521014Y275083D02*
X523317D01*
X521024Y267883D02*
X523307D01*
X521049Y265183D02*
X523281D01*
X521058Y277783D02*
X523273D01*
X521082Y345283D02*
X523249D01*
X521082Y255283D02*
X523249D01*
X521090Y287683D02*
X523241D01*
X521111Y335383D02*
X523219D01*
X521111Y245383D02*
X523219D01*
X521119Y297583D02*
X523212D01*
X521138Y235483D02*
X523192D01*
X521189Y237283D02*
X523142D01*
X521203Y295783D02*
X523128D01*
X521207Y337183D02*
X523123D01*
X521207Y247183D02*
X523123D01*
X521219Y285883D02*
X523111D01*
X521223Y347083D02*
X523108D01*
X521223Y257083D02*
X523108D01*
X521233Y275983D02*
X523098D01*
X521236Y266983D02*
X523094D01*
X521245Y266083D02*
X523086D01*
X521247Y276883D02*
X523084D01*
X519745Y359683D02*
X523081D01*
X521253Y346183D02*
X523077D01*
X521253Y256183D02*
X523077D01*
X521255Y286783D02*
X523075D01*
X519833Y353383D02*
X523071D01*
X521260Y336283D02*
X523071D01*
X521260Y246283D02*
X523071D01*
X521261Y296683D02*
X523070D01*
X521264Y236383D02*
X523067D01*
X520568Y358783D02*
X523065D01*
X521024Y357883D02*
X523065D01*
X521236Y356983D02*
X523065D01*
X521245Y356083D02*
X523065D01*
X521049Y355183D02*
X523065D01*
X520617Y354283D02*
X523065D01*
X471179Y360583D02*
X516837D01*
X471179Y270583D02*
X516837D01*
X482746Y352483D02*
X516326D01*
X471179Y262483D02*
X516326D01*
X471179Y280483D02*
X516209D01*
X494600Y342583D02*
X515942D01*
X495485Y252583D02*
X515942D01*
X471179Y290383D02*
X515861D01*
X498226Y242683D02*
X515659D01*
X471179Y232783D02*
X515427D01*
X496706Y239983D02*
X515009D01*
X508212Y293083D02*
X514894D01*
X492443Y339883D02*
X514855D01*
X497687Y249883D02*
X514855D01*
X471179Y283183D02*
X514750D01*
X482793Y349783D02*
X514715D01*
X471179Y259783D02*
X514715D01*
X488236Y310183D02*
X514658D01*
X471179Y273283D02*
X514619D01*
X471179Y359683D02*
X514586D01*
X471179Y269683D02*
X514586D01*
X482540Y300283D02*
X514531D01*
X471179Y353383D02*
X514497D01*
X471179Y263383D02*
X514497D01*
X471179Y279583D02*
X514467D01*
X494936Y343483D02*
X514385D01*
X494177Y253483D02*
X514385D01*
X471179Y289483D02*
X514357D01*
X498743Y333583D02*
X514280D01*
X498492Y243583D02*
X514280D01*
X471179Y299383D02*
X514254D01*
X471179Y233683D02*
X514183D01*
X487888Y309283D02*
X514158D01*
X495859Y239083D02*
X513984D01*
X509736Y293983D02*
X513926D01*
X493343Y338983D02*
X513906D01*
X498104Y248983D02*
X513906D01*
X471179Y284083D02*
X513851D01*
X483443Y348883D02*
X513832D01*
X471179Y258883D02*
X513832D01*
X471179Y274183D02*
X513780D01*
X471179Y358783D02*
X513762D01*
X471179Y268783D02*
X513762D01*
X471179Y354283D02*
X513714D01*
X471179Y264283D02*
X513714D01*
X471179Y278683D02*
X513697D01*
X494984Y344383D02*
X513652D01*
X491910Y254383D02*
X513652D01*
X471179Y288583D02*
X513636D01*
X497843Y334483D02*
X513594D01*
X498659Y244483D02*
X513594D01*
X509367Y298483D02*
X513579D01*
X471179Y234583D02*
X513539D01*
X487092Y308383D02*
X513525D01*
X482793Y304783D02*
X513440D01*
X494712Y238183D02*
X513428D01*
X510313Y294883D02*
X513396D01*
X494243Y338083D02*
X513385D01*
X498407Y248083D02*
X513385D01*
X471179Y284983D02*
X513355D01*
X484343Y347983D02*
X513344D01*
X471179Y257983D02*
X513344D01*
X471179Y275083D02*
X513317D01*
X471179Y357883D02*
X513307D01*
X471179Y267883D02*
X513307D01*
X471179Y355183D02*
X513281D01*
X471179Y265183D02*
X513281D01*
X471179Y277783D02*
X513273D01*
X494758Y345283D02*
X513249D01*
X471179Y255283D02*
X513249D01*
X471179Y287683D02*
X513241D01*
X483162Y303883D02*
X513220D01*
X496943Y335383D02*
X513219D01*
X498733Y245383D02*
X513219D01*
X510146Y297583D02*
X513212D01*
X471179Y235483D02*
X513192D01*
X471179Y307483D02*
X513186D01*
X482487Y305683D02*
X513147D01*
X492958Y237283D02*
X513142D01*
X510536Y295783D02*
X513128D01*
X495143Y337183D02*
X513123D01*
X498609Y247183D02*
X513123D01*
X471179Y285883D02*
X513111D01*
X492626Y347083D02*
X513108D01*
X471179Y257083D02*
X513108D01*
X471179Y275983D02*
X513098D01*
X471179Y356983D02*
X513094D01*
X471179Y266983D02*
X513094D01*
X471179Y356083D02*
X513086D01*
X471179Y266083D02*
X513086D01*
X471179Y276883D02*
X513084D01*
X494177Y346183D02*
X513077D01*
X471179Y256183D02*
X513077D01*
X471179Y286783D02*
X513075D01*
X496043Y336283D02*
X513071D01*
X498717Y246283D02*
X513071D01*
X510486Y296683D02*
X513070D01*
X471179Y236383D02*
X513067D01*
X471179Y306583D02*
X513066D01*
X482793Y293083D02*
X506749D01*
X471179Y298483D02*
X505594D01*
X482793Y293983D02*
X505224D01*
X482654Y297583D02*
X504815D01*
X482793Y294883D02*
X504648D01*
X482793Y296683D02*
X504475D01*
X482793Y295783D02*
X504425D01*
X488294Y311083D02*
X500686D01*
X488079Y311983D02*
X499786D01*
X487514Y312883D02*
X498886D01*
X486059Y313783D02*
X497986D01*
X471179Y314683D02*
X497086D01*
X471179Y315583D02*
X496186D01*
X487160Y316483D02*
X495286D01*
X487810Y317383D02*
X494386D01*
X488079Y318283D02*
X493486D01*
X488070Y319183D02*
X492586D01*
X487779Y320083D02*
X491686D01*
X485243Y347083D02*
X491233D01*
X487091Y320983D02*
X490786D01*
X471179Y321883D02*
X489886D01*
X486143Y346183D02*
X489681D01*
X487043Y345283D02*
X489100D01*
X471179Y322783D02*
X488986D01*
X487943Y344383D02*
X488835D01*
X482291Y323683D02*
X488086D01*
X471179Y254383D02*
X487618D01*
X482793Y324583D02*
X487186D01*
X471179Y237283D02*
X486570D01*
X482793Y325483D02*
X486286D01*
X482793Y326383D02*
X485386D01*
X471179Y253483D02*
X485350D01*
X471179Y238183D02*
X484815D01*
X482793Y327283D02*
X484486D01*
X482177Y313783D02*
X484413D01*
X471179Y252583D02*
X484042D01*
X471179Y239083D02*
X483668D01*
X483012Y328183D02*
X483573D01*
X482718Y308383D02*
X483381D01*
X471179Y251683D02*
X483103D01*
X471179Y239983D02*
X482821D01*
X471179Y250783D02*
X482389D01*
X471179Y240883D02*
X482173D01*
X471179Y249883D02*
X481840D01*
X471179Y241783D02*
X481675D01*
X471179Y248983D02*
X481424D01*
X471179Y338083D02*
X481414D01*
X471179Y329983D02*
X481392D01*
X471179Y346183D02*
X481325D01*
X471179Y242683D02*
X481301D01*
X471179Y248083D02*
X481120D01*
X471179Y243583D02*
X481036D01*
X471179Y247183D02*
X480918D01*
X471179Y330883D02*
X480886D01*
X471179Y244483D02*
X480869D01*
X471179Y246283D02*
X480811D01*
X471179Y245383D02*
X480794D01*
X471179Y338983D02*
X480660D01*
X471179Y347083D02*
X480390D01*
X471179Y345283D02*
X473343D01*
X471179Y313783D02*
X473335D01*
X471179Y292183D02*
X473227D01*
X471179Y323683D02*
X473221D01*
X471179Y337183D02*
X473029D01*
X471179Y305683D02*
X473025D01*
X471179Y300283D02*
X472971D01*
X471179Y331783D02*
X472968D01*
X471179Y329083D02*
X472860D01*
X471179Y297583D02*
X472858D01*
X471179Y308383D02*
X472827D01*
X471179Y339883D02*
X472825D01*
X471179Y352483D02*
X472766D01*
X471179Y320983D02*
X472765D01*
X471179Y316483D02*
X472748D01*
X471179Y347983D02*
X472747D01*
X471179Y344383D02*
X472723D01*
X471179Y312883D02*
X472722D01*
X471179Y293083D02*
X472719D01*
X471179Y324583D02*
X472719D01*
X471179Y351583D02*
X472719D01*
X471179Y350683D02*
X472719D01*
X471179Y349783D02*
X472719D01*
X471179Y348883D02*
X472719D01*
X471179Y343483D02*
X472719D01*
X471179Y342583D02*
X472719D01*
X471179Y341683D02*
X472719D01*
X471179Y340783D02*
X472719D01*
X471179Y336283D02*
X472719D01*
X471179Y335383D02*
X472719D01*
X471179Y334483D02*
X472719D01*
X471179Y333583D02*
X472719D01*
X471179Y332683D02*
X472719D01*
X471179Y328183D02*
X472719D01*
X471179Y327283D02*
X472719D01*
X471179Y326383D02*
X472719D01*
X471179Y325483D02*
X472719D01*
X471179Y320083D02*
X472719D01*
X471179Y319183D02*
X472719D01*
X471179Y318283D02*
X472719D01*
X471179Y317383D02*
X472719D01*
X471179Y311983D02*
X472719D01*
X471179Y311083D02*
X472719D01*
X471179Y310183D02*
X472719D01*
X471179Y309283D02*
X472719D01*
X471179Y304783D02*
X472719D01*
X471179Y303883D02*
X472719D01*
X471179Y302983D02*
X472719D01*
X471179Y302083D02*
X472719D01*
X471179Y301183D02*
X472719D01*
X471179Y296683D02*
X472719D01*
X471179Y295783D02*
X472719D01*
X471179Y294883D02*
X472719D01*
X471179Y293983D02*
X472719D01*
X543026Y281074D02*
X541809Y279857D01*
X538470Y281074D02*
X539687Y279857D01*
X538470Y275718D02*
X539687Y276935D01*
X543026Y275718D02*
X541809Y276935D01*
X473041Y297825D02*
X474395Y296471D01*
X473041Y292332D02*
X474395Y293687D01*
X482471Y292332D02*
X481116Y293687D01*
X482471Y297825D02*
X481116Y296471D01*
X887711Y317589D02*
X886494Y316372D01*
X883155Y317589D02*
X884372Y316372D01*
X883155Y312233D02*
X884372Y313450D01*
X887711Y312233D02*
X886494Y313450D01*
X860714Y308690D02*
X861931Y309907D01*
X865270Y308690D02*
X864053Y309907D01*
X865270Y314046D02*
X864053Y312828D01*
X860714Y314046D02*
X861931Y312828D01*
X857171Y267745D02*
X858388Y268962D01*
X861727Y267745D02*
X860509Y268962D01*
X861727Y273101D02*
X860509Y271883D01*
X857171Y273101D02*
X858388Y271883D01*
X1135433Y225984D02*
X470079D01*
Y363681*
X542717*
Y477362*
X1135433Y477953*
Y225984*
X497638Y245669D02*
G03X497638I-7874J0D01*
G01X568504Y458268D02*
G03X568504I-7874J0D01*
G01X1119685D02*
G03X1119685I-7874J0D01*
G01Y245669D02*
G03X1119685I-7874J0D01*
G54D17*
G01X635630Y302953D03*
X885433Y339764D03*
X681496Y431890D03*
X683858Y391732D03*
Y453543D03*
G54D28*
X517165Y356496D03*
Y346496D03*
X527165D03*
X517165Y336496D03*
X527165D03*
X517165Y326496D03*
X527165D03*
X517165Y316496D03*
X527165D03*
X517165Y306496D03*
X527165D03*
X517165Y296496D03*
X527165D03*
X517165Y286496D03*
X527165D03*
X517165Y276496D03*
X527165D03*
X517165Y266496D03*
X527165D03*
X517165Y256496D03*
X527165D03*
X517165Y246496D03*
X527165D03*
X517165Y236496D03*
X527165D03*
X556693Y390748D03*
Y400748D03*
X566693Y390748D03*
Y400748D03*
X576693Y390748D03*
Y400748D03*
X586693Y390748D03*
Y400748D03*
X596693Y390748D03*
Y400748D03*
X606693Y390748D03*
Y400748D03*
X616693Y390748D03*
Y400748D03*
X626693Y390748D03*
Y400748D03*
X636693Y390748D03*
Y400748D03*
X646693Y390748D03*
Y400748D03*
X966339Y316102D03*
Y256102D03*
X997638Y257480D03*
Y317480D03*
G54D33*
X1044882Y293228D02*
X998346Y339764D01*
X967323*
X936614D02*
X967323D01*
X507480Y296063D03*
X547638Y295079D03*
X592323Y293504D03*
X693898Y274606D03*
X672638Y293307D03*
X653346Y298425D03*
X705315Y266339D03*
X768898Y245276D03*
X859449Y254724D03*
X851575Y294882D03*
X859449Y278740D03*
X813386Y243504D03*
X817126Y278740D03*
X824409Y295276D03*
X786220Y245669D03*
X780315Y271260D03*
X878346Y299606D03*
X901969Y274213D03*
X485236Y310827D03*
X485039Y318701D03*
X491929Y344094D03*
X607283Y329528D03*
X574500Y309500D03*
X592520Y340157D03*
X605906Y362205D03*
X624500Y330000D03*
X688583Y332087D03*
X658858Y314567D03*
X655709Y317913D03*
X669094Y332874D03*
X670866Y354921D03*
X672835Y330118D03*
X672500Y348000D03*
X621850Y372244D03*
X653346Y310039D03*
X630906Y339567D03*
X650394Y344094D03*
X664370Y332480D03*
X654921Y332283D03*
X692913Y300591D03*
X646850Y362205D03*
X636417D03*
X675787Y318307D03*
X673031Y309449D03*
X665157Y309646D03*
X659252D03*
X662992Y319685D03*
X653346Y326969D03*
X730906Y316142D03*
X707283Y336811D03*
X700591Y348031D03*
X857480Y305512D03*
X851575Y325787D03*
X805512Y301575D03*
X818504Y322047D03*
X820866Y335039D03*
X798327Y300295D03*
X796457Y310630D03*
X878346Y324016D03*
G54D47*
X565354Y299606D02*
X572441Y306693D01*
X574500Y309500*
X565354Y299606D02*
X529995D01*
X527436Y302165*
X478543*
X477756Y302953*
X693898Y274606D02*
Y287434D01*
X696082Y289619*
Y324587*
X859449Y254724D02*
Y264223D01*
X878346Y299606D02*
Y301224D01*
X885433Y308311*
Y308711*
X862992Y291388D02*
Y291788D01*
X870810Y299606*
X878346*
X862992Y297588D02*
Y305168D01*
X527559Y306496D02*
Y312205D01*
X501969*
X479724Y334449*
X477756*
X527559Y306496D02*
X553346D01*
X563583Y316732*
X574213*
X526969Y322047D02*
X500000D01*
X479724Y342323*
X477756*
X527165Y330988D02*
X498933D01*
X479724Y350197*
X477756*
X527165Y306496D02*
X527559D01*
X527165Y316496D02*
X526969D01*
Y322047*
X527165Y326496D02*
Y330988D01*
X477756Y318701D02*
X485039D01*
X477756Y310827D02*
X485236D01*
X607283Y329528D02*
X607756Y330000D01*
X624500*
X649932Y312008D02*
X652491Y314567D01*
X658858*
X649932Y312008D02*
X633158D01*
X632962Y312205*
X588984*
X579141Y322047*
X526969*
X644007Y316123D02*
X648966Y321082D01*
X657724*
X644007Y316123D02*
X638903D01*
X638433Y316592*
X624730Y315831D02*
X625491Y316592D01*
X638433*
X624730Y315831D02*
X608417D01*
X589800Y334449*
X540748*
X646109Y313929D02*
X650093Y317913D01*
X655709*
X646109Y313929D02*
X637821D01*
X636958Y314792*
X628893Y314031D02*
X629654Y314792D01*
X636958*
X628893Y314031D02*
X597401D01*
X580444Y330988*
X527165*
X626575Y372982D02*
Y372582D01*
Y391535*
X626693Y391654*
X696082Y324587D02*
X688583Y332087D01*
X669094Y332874D02*
Y349528D01*
X670866Y351300*
Y354921*
X672835Y330118D02*
Y338892D01*
X672500Y339226*
Y348000*
X635630Y302953D02*
X630512Y308071D01*
X582874*
X574213Y316732*
X662992Y319685D02*
X659121D01*
X657724Y321082*
X653346Y326969D02*
X631299Y349016D01*
Y367857*
X626575Y372582*
Y366782D02*
Y367102D01*
X621850Y372244*
X885433Y314911D02*
Y315311D01*
X878346Y322398*
Y324016*
X862992Y305168D02*
Y305512D01*
X857480*
X862992Y311368D02*
X862943Y311417D01*
X626693Y390748D02*
Y391654D01*
G54D83*
X527165Y356496D03*
G54D103*
X599592Y403647D02*
X598814Y402869D01*
X593794Y403647D02*
X594572Y402869D01*
X593794Y397849D02*
X594572Y398627D01*
X599592Y397849D02*
X598814Y398627D01*
X751950Y388761D02*
X752728Y389539D01*
X759074Y388761D02*
X758296Y389539D01*
X759074Y395885D02*
X758296Y395107D01*
X751950Y395885D02*
X752728Y395107D01*
X649592Y403647D02*
X648814Y402869D01*
X643794Y403647D02*
X644572Y402869D01*
X643794Y397849D02*
X644572Y398627D01*
X649592Y397849D02*
X648814Y398627D01*
X639592Y403647D02*
X638814Y402869D01*
X633794Y403647D02*
X634572Y402869D01*
X633794Y397849D02*
X634572Y398627D01*
X639592Y397849D02*
X638814Y398627D01*
X629592Y403647D02*
X628814Y402869D01*
X623794Y403647D02*
X624572Y402869D01*
X623794Y397849D02*
X624572Y398627D01*
X629592Y397849D02*
X628814Y398627D01*
X619592Y403647D02*
X618814Y402869D01*
X613794Y403647D02*
X614572Y402869D01*
X613794Y397849D02*
X614572Y398627D01*
X619592Y397849D02*
X618814Y398627D01*
X609592Y403647D02*
X608814Y402869D01*
X603794Y403647D02*
X604572Y402869D01*
X603794Y397849D02*
X604572Y398627D01*
X609592Y397849D02*
X608814Y398627D01*
X589592Y403647D02*
X588814Y402869D01*
X583794Y403647D02*
X584572Y402869D01*
X583794Y397849D02*
X584572Y398627D01*
X589592Y397849D02*
X588814Y398627D01*
X579592Y403647D02*
X578814Y402869D01*
X573794Y403647D02*
X574572Y402869D01*
X573794Y397849D02*
X574572Y398627D01*
X579592Y397849D02*
X578814Y398627D01*
X569592Y403647D02*
X568814Y402869D01*
X563794Y403647D02*
X564572Y402869D01*
X563794Y397849D02*
X564572Y398627D01*
X569592Y397849D02*
X568814Y398627D01*
X514266Y233597D02*
X515044Y234375D01*
X514266Y239395D02*
X515044Y238617D01*
X520064Y239395D02*
X519287Y238617D01*
X520064Y233597D02*
X519287Y234375D01*
X514266Y319395D02*
X515044Y318617D01*
X520064Y319395D02*
X519287Y318617D01*
X524266Y333597D02*
X525044Y334375D01*
X524266Y339395D02*
X525044Y338617D01*
X530064Y339395D02*
X529287Y338617D01*
X530064Y333597D02*
X529287Y334375D01*
X620688Y410218D02*
X619910Y410996D01*
X620688Y417341D02*
X619910Y416563D01*
X613564Y417341D02*
X614342Y416563D01*
X613564Y410218D02*
X614342Y410996D01*
X800497Y302465D02*
X799719Y301687D01*
X796157Y302465D02*
X796935Y301687D01*
X796157Y298126D02*
X796935Y298903D01*
X800497Y298126D02*
X799719Y298903D01*
X819296Y280910D02*
X818518Y280132D01*
X814956Y280910D02*
X815734Y280132D01*
X814956Y276570D02*
X815734Y277348D01*
X819296Y276570D02*
X818518Y277348D01*
X826579Y297445D02*
X825801Y296668D01*
X822240Y297445D02*
X823018Y296668D01*
X822240Y293106D02*
X823018Y293884D01*
X826579Y293106D02*
X825801Y293884D01*
X820674Y324217D02*
X819896Y323439D01*
X816334Y324217D02*
X817112Y323439D01*
X816334Y319877D02*
X817112Y320655D01*
X820674Y319877D02*
X819896Y320655D01*
X823036Y337209D02*
X822258Y336431D01*
X818696Y337209D02*
X819474Y336431D01*
X818696Y332870D02*
X819474Y333647D01*
X823036Y332870D02*
X822258Y333647D01*
X686581Y456266D02*
X685803Y455488D01*
X681136Y456266D02*
X681914Y455488D01*
X681136Y450821D02*
X681914Y451599D01*
X686581Y450821D02*
X685803Y451599D01*
X686581Y394455D02*
X685803Y393677D01*
X681136Y394455D02*
X681914Y393677D01*
X681136Y389010D02*
X681914Y389788D01*
X686581Y389010D02*
X685803Y389788D01*
X782485Y273430D02*
X781707Y272652D01*
X778145Y273430D02*
X778923Y272652D01*
X778145Y269090D02*
X778923Y269868D01*
X782485Y269090D02*
X781707Y269868D01*
X798626Y312800D02*
X797849Y312022D01*
X794287Y312800D02*
X795065Y312022D01*
X794287Y308460D02*
X795065Y309238D01*
X798626Y308460D02*
X797849Y309238D01*
X771067Y247445D02*
X770290Y246668D01*
X766728Y247445D02*
X767506Y246668D01*
X766728Y243106D02*
X767506Y243884D01*
X771067Y243106D02*
X770290Y243884D01*
X788390Y247839D02*
X787612Y247061D01*
X784051Y247839D02*
X784829Y247061D01*
X784051Y243500D02*
X784829Y244277D01*
X788390Y243500D02*
X787612Y244277D01*
X709453Y338981D02*
X708675Y338203D01*
X705114Y338981D02*
X705892Y338203D01*
X705114Y334641D02*
X705892Y335419D01*
X709453Y334641D02*
X708675Y335419D01*
X702760Y350201D02*
X701982Y349423D01*
X698421Y350201D02*
X699199Y349423D01*
X698421Y345862D02*
X699199Y346640D01*
X702760Y345862D02*
X701982Y346640D01*
X733075Y318311D02*
X732297Y317534D01*
X728736Y318311D02*
X729514Y317534D01*
X728736Y313972D02*
X729514Y314750D01*
X733075Y313972D02*
X732297Y314750D01*
X608075Y364374D02*
X607297Y363597D01*
X603736Y364374D02*
X604514Y363597D01*
X603736Y360035D02*
X604514Y360813D01*
X608075Y360035D02*
X607297Y360813D01*
X638587Y364374D02*
X637809Y363597D01*
X634248Y364374D02*
X635025Y363597D01*
X634248Y360035D02*
X635025Y360813D01*
X638587Y360035D02*
X637809Y360813D01*
X649020Y364374D02*
X648242Y363597D01*
X644681Y364374D02*
X645458Y363597D01*
X644681Y360035D02*
X645458Y360813D01*
X649020Y360035D02*
X648242Y360813D01*
X807682Y303745D02*
X806904Y302967D01*
X803342Y303745D02*
X804120Y302967D01*
X803342Y299405D02*
X804120Y300183D01*
X807682Y299405D02*
X806904Y300183D01*
X815556Y245674D02*
X814778Y244896D01*
X811216Y245674D02*
X811994Y244896D01*
X811216Y241334D02*
X811994Y242112D01*
X815556Y241334D02*
X814778Y242112D01*
X657091Y334453D02*
X656313Y333675D01*
X652752Y334453D02*
X653529Y333675D01*
X657091Y330114D02*
X656313Y330892D01*
X677957Y320477D02*
X677179Y319699D01*
X673618Y320477D02*
X674395Y319699D01*
X673618Y316137D02*
X674395Y316915D01*
X677957Y316137D02*
X677179Y316915D01*
X675201Y311619D02*
X674423Y310841D01*
X670862Y311619D02*
X671640Y310841D01*
X670862Y307279D02*
X671640Y308057D01*
X675201Y307279D02*
X674423Y308057D01*
X667327Y311815D02*
X666549Y311038D01*
X662988Y311815D02*
X663766Y311038D01*
X662988Y307476D02*
X663766Y308254D01*
X667327Y307476D02*
X666549Y308254D01*
X661422Y311815D02*
X660644Y311038D01*
X657082Y307476D02*
X657860Y308254D01*
X661422Y307476D02*
X660644Y308254D01*
X655516Y300595D02*
X654738Y299817D01*
X651177Y300595D02*
X651955Y299817D01*
X651177Y296255D02*
X651955Y297033D01*
X655516Y296255D02*
X654738Y297033D01*
X655516Y312209D02*
X654738Y311431D01*
X651177Y307870D02*
X651955Y308647D01*
X655516Y307870D02*
X654738Y308647D01*
X652563Y346264D02*
X651786Y345486D01*
X648224Y346264D02*
X649002Y345486D01*
X648224Y341925D02*
X649002Y342703D01*
X652563Y341925D02*
X651786Y342703D01*
X509650Y298233D02*
X508872Y297455D01*
X505311Y298233D02*
X506088Y297455D01*
X505311Y293893D02*
X506088Y294671D01*
X509650Y293893D02*
X508872Y294671D01*
X690744Y302760D02*
X691521Y301982D01*
X690744Y298421D02*
X691521Y299199D01*
X674808Y295477D02*
X674030Y294699D01*
X670468Y295477D02*
X671246Y294699D01*
X670468Y291137D02*
X671246Y291915D01*
X674808Y291137D02*
X674030Y291915D01*
X494099Y346264D02*
X493321Y345486D01*
X489759Y346264D02*
X490537Y345486D01*
X494099Y341925D02*
X493321Y342703D01*
X594689Y342327D02*
X593912Y341549D01*
X590350Y342327D02*
X591128Y341549D01*
X590350Y337988D02*
X591128Y338766D01*
X594689Y337988D02*
X593912Y338766D01*
X594493Y295674D02*
X593715Y294896D01*
X590153Y295674D02*
X590931Y294896D01*
X590153Y291334D02*
X590931Y292112D01*
X594493Y291334D02*
X593715Y292112D01*
X707485Y268508D02*
X706707Y267731D01*
X703145Y268508D02*
X703923Y267731D01*
X703145Y264169D02*
X703923Y264947D01*
X707485Y264169D02*
X706707Y264947D01*
X684218Y434612D02*
X683441Y433834D01*
X678774Y434612D02*
X679552Y433834D01*
X678774Y429167D02*
X679552Y429945D01*
X684218Y429167D02*
X683441Y429945D01*
X633075Y341737D02*
X632297Y340959D01*
X628736Y341737D02*
X629514Y340959D01*
X628736Y337397D02*
X629514Y338175D01*
X633075Y337397D02*
X632297Y338175D01*
X853745Y327957D02*
X852967Y327179D01*
X849405Y327957D02*
X850183Y327179D01*
X849405Y323618D02*
X850183Y324395D01*
X853745Y323618D02*
X852967Y324395D01*
X904138Y276382D02*
X903360Y275605D01*
X899799Y276382D02*
X900577Y275605D01*
X899799Y272043D02*
X900577Y272821D01*
X904138Y272043D02*
X903360Y272821D01*
X880516Y326186D02*
X879738Y325408D01*
X876177Y326186D02*
X876955Y325408D01*
X876177Y321846D02*
X876955Y322624D01*
X880516Y321846D02*
X879738Y322624D01*
X888155Y342486D02*
X887378Y341708D01*
X882711Y342486D02*
X883489Y341708D01*
X882711Y337041D02*
X883489Y337819D01*
X888155Y337041D02*
X887378Y337819D01*
X861619Y280910D02*
X860841Y280132D01*
X857279Y280910D02*
X858057Y280132D01*
X857279Y276570D02*
X858057Y277348D01*
X861619Y276570D02*
X860841Y277348D01*
X853745Y297052D02*
X852967Y296274D01*
X849405Y297052D02*
X850183Y296274D01*
X849405Y292712D02*
X850183Y293490D01*
X853745Y292712D02*
X852967Y293490D01*
X662200Y334650D02*
X662978Y333872D01*
X662200Y330311D02*
X662978Y331088D01*
X666540Y330311D02*
X665762Y331088D01*
G54D105*
X617126Y433465D03*
Y413780D03*
X907087Y392323D03*
Y434646D03*
X755512Y423819D03*
Y392323D03*
X1045104Y428588D03*
X1054946Y399060D03*
X1004528Y432677D03*
X965157D03*
X1004528Y393307D03*
X965157D03*
X1088189Y340157D03*
Y359843D03*
Y273228D03*
Y293228D03*
X1044882Y273228D03*
Y293228D03*
Y354331D01*
X1086614Y396063*
X1044882Y273228D02*
Y293228D01*
X1088189Y273228D02*
Y293228D01*
X1086614Y396063D02*
Y421260D01*
X1079286Y428588*
X1045104*
X1041014Y432677*
X1004528*
G54D124*
X540748Y284596D02*
Y295079D01*
G54D135*
X862992Y311368D03*
Y305168D03*
Y297588D03*
Y291388D03*
X540748Y278396D03*
Y284596D03*
X626575Y372982D03*
Y366782D03*
X885433Y308711D03*
Y314911D03*
X859449Y270423D03*
Y264223D03*
G54D149*
X966339Y316102D02*
Y338780D01*
X967323Y339764*
G54D170*
X540748Y350197D03*
Y342323D03*
Y334449D03*
Y326575D03*
Y318701D03*
Y310827D03*
Y302953D03*
Y295079D03*
X477756D03*
Y302953D03*
Y310827D03*
Y318701D03*
Y326575D03*
Y334449D03*
Y342323D03*
Y350197D03*
G54D172*
X540748Y295079D02*
X547638D01*
G74*
X0Y0D02*
M02*
