*
*
G04 PADS 9.5 Build Number: 522968 generated Gerber (RS-274-X) file*
G04 PC Version=2.1*
*
%IN "opqbox2.pcb"*%
*
%MOIN*%
*
%FSLAX35Y35*%
*
*
*
*
G04 PC Standard Apertures*
*
*
G04 Thermal Relief Aperture macro.*
%AMTER*
1,1,$1,0,0*
1,0,$1-$2,0,0*
21,0,$3,$4,0,0,45*
21,0,$3,$4,0,0,135*
%
*
*
G04 Annular Aperture macro.*
%AMANN*
1,1,$1,0,0*
1,0,$2,0,0*
%
*
*
G04 Odd Aperture macro.*
%AMODD*
1,1,$1,0,0*
1,0,$1-0.005,0,0*
%
*
*
G04 PC Custom Aperture Macros*
*
*
*
*
*
*
G04 PC Aperture Table*
*
%ADD010C,0.001*%
%ADD013C,0.01*%
*
*
*
*
G04 PC Circuitry*
G04 Layer Name opqbox2.pcb - circuitry*
%LPD*%
*
*
G04 PC Custom Flashes*
G04 Layer Name opqbox2.pcb - flashes*
%LPD*%
*
*
G04 PC Circuitry*
G04 Layer Name opqbox2.pcb - circuitry*
%LPD*%
*
G54D10*
G01X100000Y155118D02*
X100003D01*
X826378D02*
X826381D01*
X826378D02*
X826381D01*
X826378Y572441D02*
X826381D01*
G54D13*
X100000D02*
Y155118D01*
X825591*
Y572441*
X100000*
X173465Y187598D02*
G75*
G03X173465I-13819J0D01*
G01X779764D02*
G03X779764I-13819J0D01*
G01X173465Y537992D02*
G03X173465I-13819J0D01*
G01X779764D02*
G03X779764I-13819J0D01*
G01X385433Y330315D02*
X407087D01*
Y224016*
X385433*
Y330315*
X100000Y123622D02*
X442803D01*
X100000D02*
X110000Y126122D01*
Y121122*
X100000Y123622*
X826378D02*
X483575D01*
X826378D02*
X816378Y121122D01*
Y126122*
X826378Y123622*
X100000Y150118D02*
Y118622D01*
X826378Y150118D02*
Y118622D01*
X445803Y125185D02*
X446257Y125497D01*
X446939Y126435*
Y119872*
X450121Y126435D02*
X449439Y126122D01*
X449212Y125497*
Y124872*
X449439Y124247*
X449894Y123935*
X450803Y123622*
X451484Y123310*
X451939Y122685*
X452166Y122060*
Y121122*
X451939Y120497*
X451712Y120185*
X451030Y119872*
X450121*
X449439Y120185*
X449212Y120497*
X448984Y121122*
Y122060*
X449212Y122685*
X449666Y123310*
X450348Y123622*
X451257Y123935*
X451712Y124247*
X451939Y124872*
Y125497*
X451712Y126122*
X451030Y126435*
X450121*
X456484D02*
X454212Y122060D01*
X457621*
X456484Y126435D02*
Y119872D01*
X459894Y120497D02*
X459666Y120185D01*
X459894Y119872*
X460121Y120185*
X459894Y120497*
X465121Y126435D02*
X462848D01*
X462621Y123622*
X462848Y123935*
X463530Y124247*
X464212*
X464894Y123935*
X465348Y123310*
X465575Y122372*
X465348Y121747*
X465121Y120810*
X464666Y120185*
X463984Y119872*
X463303*
X462621Y120185*
X462394Y120497*
X462166Y121122*
X467621Y124247D02*
Y119872D01*
Y122997D02*
X468303Y123935D01*
X468757Y124247*
X469439*
X469894Y123935*
X470121Y122997*
Y119872*
Y122997D02*
X470803Y123935D01*
X471257Y124247*
X471939*
X472394Y123935*
X472621Y122997*
Y119872*
X474666Y124247D02*
Y119872D01*
Y122997D02*
X475348Y123935D01*
X475803Y124247*
X476484*
X476939Y123935*
X477166Y122997*
Y119872*
Y122997D02*
X477848Y123935D01*
X478303Y124247*
X478984*
X479439Y123935*
X479666Y122997*
Y119872*
X918898Y155118D02*
Y357030D01*
Y155118D02*
X916398Y165118D01*
X921398*
X918898Y155118*
Y572441D02*
Y370530D01*
Y572441D02*
X921398Y562441D01*
X916398*
X918898Y572441*
X831378Y155118D02*
X923898D01*
X831378Y572441D02*
X923898D01*
X901852Y365342D02*
X902307Y365655D01*
X902989Y366592*
Y360030*
X906398Y366592D02*
X905716Y366280D01*
X905261Y365342*
X905034Y363780*
Y362842*
X905261Y361280*
X905716Y360342*
X906398Y360030*
X906852*
X907534Y360342*
X907989Y361280*
X908216Y362842*
Y363780*
X907989Y365342*
X907534Y366280*
X906852Y366592*
X906398*
X912989Y365655D02*
X912761Y366280D01*
X912079Y366592*
X911625*
X910943Y366280*
X910489Y365342*
X910261Y363780*
Y362217*
X910489Y360967*
X910943Y360342*
X911625Y360030*
X911852*
X912534Y360342*
X912989Y360967*
X913216Y361905*
Y362217*
X912989Y363155*
X912534Y363780*
X911852Y364092*
X911625*
X910943Y363780*
X910489Y363155*
X910261Y362217*
X915489Y360655D02*
X915261Y360342D01*
X915489Y360030*
X915716Y360342*
X915489Y360655*
X919125Y366592D02*
X918443Y366280D01*
X917989Y365342*
X917761Y363780*
Y362842*
X917989Y361280*
X918443Y360342*
X919125Y360030*
X919579*
X920261Y360342*
X920716Y361280*
X920943Y362842*
Y363780*
X920716Y365342*
X920261Y366280*
X919579Y366592*
X919125*
X922989Y364405D02*
Y360030D01*
Y363155D02*
X923670Y364092D01*
X924125Y364405*
X924807*
X925261Y364092*
X925489Y363155*
Y360030*
Y363155D02*
X926170Y364092D01*
X926625Y364405*
X927307*
X927761Y364092*
X927989Y363155*
Y360030*
X930034Y364405D02*
Y360030D01*
Y363155D02*
X930716Y364092D01*
X931170Y364405*
X931852*
X932307Y364092*
X932534Y363155*
Y360030*
Y363155D02*
X933216Y364092D01*
X933670Y364405*
X934352*
X934807Y364092*
X935034Y363155*
Y360030*
X540945Y104315D02*
X798945D01*
X540945Y80315D02*
X798945D01*
X540945Y104315D02*
Y80315D01*
X624945Y104315D02*
Y80315D01*
X660945Y104315D02*
Y80315D01*
X696945Y104315D02*
Y80315D01*
X750945Y104315D02*
Y80315D01*
X798945Y104315D02*
Y80315D01*
X576445Y93065D02*
X575899Y93815D01*
X575081Y94190*
X573990*
X573172Y93815*
X572627Y93065*
Y92315*
X572899Y91565*
X573172Y91190*
X573718Y90815*
X575354Y90065*
X575899Y89690*
X576172Y89315*
X576445Y88565*
Y87440*
X575899Y86690*
X575081Y86315*
X573990*
X573172Y86690*
X572627Y87440*
X578899Y94190D02*
Y86315D01*
X585172Y94190D02*
X581354Y86315D01*
Y94190D02*
X585172D01*
X581354Y86315D02*
X585172D01*
X587627Y94190D02*
Y86315D01*
Y94190D02*
X591172D01*
X587627Y90440D02*
X589809D01*
X587627Y86315D02*
X591172D01*
X634809Y94190D02*
X634263Y93815D01*
X633718Y93065*
X633445Y92315*
X633172Y91190*
Y89315*
X633445Y88190*
X633718Y87440*
X634263Y86690*
X634809Y86315*
X635899*
X636445Y86690*
X636990Y87440*
X637263Y88190*
X637536Y89315*
Y91190*
X637263Y92315*
X636990Y93065*
X636445Y93815*
X635899Y94190*
X634809*
X635627Y87815D02*
X637263Y85565D01*
X641899Y94190D02*
Y86315D01*
X639990Y94190D02*
X643809D01*
X646263D02*
X648445Y90440D01*
Y86315*
X650627Y94190D02*
X648445Y90440D01*
X672990Y93065D02*
X672445Y93815D01*
X671627Y94190*
X670536*
X669718Y93815*
X669172Y93065*
Y92315*
X669445Y91565*
X669718Y91190*
X670263Y90815*
X671899Y90065*
X672445Y89690*
X672718Y89315*
X672990Y88565*
Y87440*
X672445Y86690*
X671627Y86315*
X670536*
X669718Y86690*
X669172Y87440*
X675445Y94190D02*
X677627Y90440D01*
Y86315*
X679809Y94190D02*
X677627Y90440D01*
X682263Y94190D02*
Y86315D01*
Y94190D02*
X684445Y86315D01*
X686627Y94190D02*
X684445Y86315D01*
X686627Y94190D02*
Y86315D01*
X708445Y94190D02*
Y86315D01*
Y94190D02*
X710899D01*
X711718Y93815*
X711990Y93440*
X712263Y92690*
Y91565*
X711990Y90815*
X711718Y90440*
X710899Y90065*
X708445*
X714718Y94190D02*
Y86315D01*
X717990*
X722627Y94190D02*
X720445Y86315D01*
X722627Y94190D02*
X724809Y86315D01*
X721263Y88940D02*
X723990D01*
X729172Y94190D02*
Y86315D01*
X727263Y94190D02*
X731081D01*
X733536D02*
Y86315D01*
Y94190D02*
X737081D01*
X733536Y90440D02*
X735718D01*
X733536Y86315D02*
X737081D01*
X739536Y94190D02*
Y86315D01*
Y94190D02*
X741445D01*
X742263Y93815*
X742809Y93065*
X743081Y92315*
X743354Y91190*
Y89315*
X743081Y88190*
X742809Y87440*
X742263Y86690*
X741445Y86315*
X739536*
X767627Y94190D02*
Y86315D01*
X765718Y94190D02*
X769536D01*
X773627D02*
X773081Y93815D01*
X772536Y93065*
X772263Y92315*
X771990Y91190*
Y89315*
X772263Y88190*
X772536Y87440*
X773081Y86690*
X773627Y86315*
X774718*
X775263Y86690*
X775809Y87440*
X776081Y88190*
X776354Y89315*
Y91190*
X776081Y92315*
X775809Y93065*
X775263Y93815*
X774718Y94190*
X773627*
X778809D02*
Y86315D01*
X782081*
G74*
X0Y0D02*
M02*
