%
T1C.01969F095S3
X14878Y142795
X151142Y142795
X152874Y138504
X154173Y144803
X154291Y14563
X154921Y14563
X156732Y138622
X16189Y143071
X16378Y144843
X168071Y142677
X16811Y145433
X172992Y142677
X173031Y145039
X175315Y142283
X176654Y140236
X177087Y145236
X177441Y14248
X178228Y139528
X183386Y140079
X167047Y146378
X166063Y147047
X164409Y146535
X161535Y149882
X161496Y150748
X16126Y146339
X160315Y149252
X159646Y150709
X1567Y14825
X156102Y147441
X155945Y148701
X155394Y146693
X15525Y14975
X154606Y148268
X154016Y14937
X153465Y147165
X152638Y148425
X152087Y146654
X151063Y147953
X150472Y150906
X149921Y150118
X146024Y147126
X145039Y149213
X145039Y14622
X143858Y154882
X144724Y152717
X144724Y153819
X145118Y152205
X145118Y15122
X146063Y151772
X149291Y152165
X15252Y152756
X152559Y151811
X152913Y155827
X153031Y15311
X153386Y153976
X153701Y154724
X154961Y152362
X155984Y151575
X15622Y153976
X157362Y153976
X159685Y151417
X163268Y162441
X16185Y160945
X154803Y158031
X152638Y160551
X152165Y160079
X151339Y158858
X151339Y162047
X148858Y161181
X148858Y159724
T2C.035F197S55
X14129Y145217
X14229Y145217
X145669Y14222
X145669Y14322
X145669Y14122
X145669Y14422
X159331Y144409
X159331Y145409
X183364Y145948
X187364Y145948
X188661Y141
X188661Y145
X159331Y146409
X159331Y147409
X158543Y150732
X158543Y149732
X158543Y148732
X14229Y148217
X14229Y150217
X14229Y146217
X14229Y147217
X14229Y149217
X14129Y148217
X14129Y146217
X14129Y147217
X14129Y150217
X14129Y149217
X14129Y152217
X14129Y153217
X14129Y151217
X14129Y154217
X14229Y151217
X14229Y153217
X14229Y152217
X14229Y154217
X158543Y151732
X158898Y155551
X159898Y155551
X160898Y155551
X161898Y155551
T3C.03543F197S55
X196417Y142244
X205276Y142244
T4C.03622F197S55
X143386Y160591
X143386Y159803
X143386Y158819
X143386Y161575
T5C.037F197S55
X179685Y143764
X179685Y149764
X189173Y148701
X191929Y148606
X192174Y145974
X192174Y139974
X194685Y148701
X198094Y146181
X204094Y146181
X194685Y154701
X191929Y154606
X189173Y154701
T6C.04016F139S55
X162717Y149882
X163465Y147717
X165984Y145354
X165984Y141614
X17563Y147677
X176172Y139113
X163307Y154055
X157441Y161299
T7C.04094F139S55
X166867Y158642
X166867Y161792
X182025Y161792
X182025Y157559
T8C.04724F139S55
X209398Y160921
X209988Y158362
X211051Y153362
T9C.06693F089S55
X211063Y141417
X211063Y143417
X21626Y143425
X21626Y141425
T10C.09055F066S55
X142177Y162642
X142319Y15761
M30
