%
T1C.01969F095S3
X048524Y031083
X050748Y029606
X054764Y029508
X05745Y03095
X059232Y02935
X063504Y030965
X065335Y029843
X065925Y030965
X066516Y030965
X067264Y029331
X067303Y030945
X069291Y030059
X06939Y027461
X070531Y026634
X07689Y024528
X078031Y027126
X078622Y024567
X079646Y031063
X079833Y03003
X080551Y030157
X081339Y02435
X081713Y027874
X082441Y029528
X085157Y029488
X085748Y030551
X085787Y029961
X085945Y025472
X085945Y027992
X087835Y029961
X090906Y027441
X087835Y032402
X085157Y032677
X082087Y033504
X08185Y032205
X073091Y031614
X070728Y033681
X070059Y034803
X068858Y033209
X067579Y031831
X067283Y033012
X06725Y0348
X067087Y035492
X066909Y033287
X066437Y033248
X066299Y031969
X065886Y031457
X065571Y031791
X065492Y033228
X065335Y032697
X06502Y034547
X064094Y031929
X063878Y033661
X06245Y033
X062Y0319
X059252Y034016
X049173Y034173
X048504Y03187
X060591Y03622
X062185Y037224
X063642Y03622
X064685Y03622
X06815Y043189
X068228Y045354
X068268Y039173
T2C.035F197S55
X051717Y02565
X051717Y02465
X051717Y02365
X051717Y02765
X051717Y02665
X051717Y03065
X051717Y02965
X051717Y02865
X052717Y02565
X052717Y02665
X052717Y02365
X052717Y03065
X052717Y02465
X052717Y02965
X052717Y02765
X052717Y02865
X052717Y03265
X052717Y03165
X052717Y03565
X052717Y03465
X052717Y03365
X051717Y03165
X051717Y03465
X051717Y03265
X051717Y03365
X051717Y03565
X055669Y039075
X055669Y040075
X056669Y039075
X056669Y040075
X057669Y039075
X057669Y040075
X058669Y039075
X058669Y040075
X059669Y039075
X059669Y040075
X060669Y039075
X060669Y040075
X061669Y039075
X061669Y040075
X062669Y039075
X062669Y040075
X063669Y039075
X063669Y040075
X064669Y039075
X064669Y040075
T3C.037F197S55
X088543Y033976
X096634Y03161
X096634Y02561
X099764Y031748
X099764Y025748
T4C.03937F197S55
X096516Y039331
X100453Y039331
X105495Y039906
X108819Y035984
X108819Y034016
X10451Y042859
X100453Y043268
X096516Y043268
X061713Y043346
X061713Y041378
T5C.04724F139S55
X075551Y039232
X075551Y042382
X090709Y039232
X090709Y043465
T6C.05512F107S55
X104488Y027323
X104488Y029323
X108819Y029323
X108819Y027323
M30
