%
T1C.01575F095S3
X010689Y025551
X011303Y016197
X013035Y016197
X01622Y025764
X026299Y025079
X026299Y02437
X027756Y025433
X027756Y025945
X027756Y024409
X028307Y023835
X031677Y024748
X03402Y025102
X027756Y026457
X027598Y030669
X026969Y030669
X024449Y028701
X023425Y030591
X023346Y028346
X023189Y029488
X022756Y031063
X022362Y029921
X014646Y027087
X014642Y028594
X013858Y027087
X013232Y027122
X012283Y027244
X011496Y027244
X019106Y036874
X020476Y037268
X020827Y035866
X021811Y031669
X022177Y031925
X022756Y032508
X024528Y03252
X027598Y032913
X022244Y040315
X02224Y040886
X022209Y0415
X022209Y042091
X022165Y043583
X021764Y039831
X021764Y042606
X021508Y039476
X021303Y040898
X02126Y039055
X021142Y04237
X020815Y039004
X020461Y040217
X020421Y04328
X020398Y03902
X02Y041984
X019232Y039106
X019106Y041343
X019031Y043366
X01848Y039559
X018067Y039917
X01752Y042835
X016654Y040906
X015472Y045276
X016496Y045236
X01748Y045276
X017638Y043898
X018543Y045276
X019528Y045276
X020472Y045276
X020827Y044252
X021531Y04526
X021894Y045677
X02248Y045276
X023504Y045276
X024882Y045984
X025276Y048425
X026417Y048425
T2C.02362F197S55
X011579Y018736
X012701Y018732
X014429Y01748
X016988Y01187
X019697Y011823
X020772Y011815
X031614Y025929
X031161Y023681
X024811Y025949
X024807Y02426
X024807Y023484
X015118Y019154
X018504Y030827
X019016Y030118
X019173Y027717
X019843Y028819
X020669Y030157
X021142Y030827
X021811Y027717
X021811Y028346
X024807Y026831
X031614Y026457
X031811Y03063
X03374Y027126
X035492Y032933
X034311Y032638
X031772Y032913
X021142Y031457
X018504Y031457
X016232Y034102
X015146Y033693
T3C.035F197S55
X010992Y023161
X010992Y022161
X011992Y023161
X011992Y022161
X012992Y023161
X012992Y022161
X013992Y023161
X013992Y022161
X014992Y023161
X014992Y022161
X015992Y023161
X015992Y022161
X016992Y023161
X016992Y022161
X017992Y023161
X017992Y022161
X018992Y023161
X018992Y022161
X019992Y023161
X019992Y022161
X020992Y023161
X020992Y022161
X021992Y023161
X021992Y022161
X022992Y023161
X022992Y022161
X0235Y047461
X0235Y048461
X0225Y047461
X0225Y048461
X0215Y047461
X0215Y048461
X0205Y047461
X0205Y048461
X0195Y047461
X0195Y048461
X0185Y047461
X0185Y048461
X0175Y047461
X0175Y048461
X0165Y047461
X0165Y048461
X0155Y047461
X0155Y048461
X0145Y047461
X0145Y048461
T4C.037F197S55
X037953Y028705
X040118Y028701
X044434Y032869
X037953Y034705
T5C.03937F197S55
X019744Y01748
X019744Y019449
X043465Y04002
X039232Y039724
X03628Y03874
X043465Y041988
T6C.04724F139S55
X023976Y01128
X023976Y014429
X039134Y01128
X039134Y015512
T7C.05512F107S55
X035591Y045433
X043465Y045433
X043465Y047433
X035591Y047433
M30
