%
T1C.01969F095S3
X01815Y027953
X020512Y027953
X022244Y023661
X023543Y029961
X023661Y030787
X024291Y030787
X026102Y02378
X03126Y028228
X03315Y03
X037441Y027835
X03748Y030591
X042362Y027835
X042402Y030197
X044685Y027441
X046024Y025394
X046457Y030394
X046811Y027638
X047598Y024685
X052756Y025236
X036417Y031535
X035433Y032205
X03378Y031693
X030906Y035039
X030866Y035906
X03063Y031496
X029685Y034409
X029016Y035866
X02607Y033407
X025472Y032598
X025315Y033858
X024764Y03185
X02462Y034907
X023976Y033425
X023386Y034528
X022835Y032323
X022008Y033583
X021457Y031811
X020433Y03311
X019843Y036063
X019291Y035276
X015394Y032283
X014409Y03437
X014409Y031378
X013228Y040039
X014094Y037874
X014094Y038976
X014488Y037362
X014488Y036378
X015433Y036929
X018661Y037323
X02189Y037913
X021929Y036969
X022283Y040984
X022402Y038268
X022756Y039134
X023071Y039882
X024331Y03752
X025354Y036732
X025591Y039134
X026732Y039134
X029055Y036575
X032638Y047598
X03122Y046102
X024173Y043189
X022008Y045709
X021535Y045236
X020709Y044016
X020709Y047205
X018228Y046339
X018228Y044882
T2C.035F197S55
X01066Y030374
X011063Y025236
X011063Y026236
X011063Y027236
X011063Y028236
X01166Y030374
X028701Y030567
X028701Y029567
X052734Y031105
X056732Y024898
X056732Y028898
X056734Y031105
X028701Y031567
X028701Y032567
X027913Y03589
X027913Y03489
X027913Y03389
X01166Y033374
X01166Y031374
X01166Y035374
X01166Y032374
X01166Y034374
X01066Y031374
X01066Y033374
X01066Y032374
X01066Y035374
X01066Y034374
X01066Y037374
X01066Y038374
X01066Y036374
X01066Y039374
X01166Y036374
X01166Y038374
X01166Y037374
X01166Y039374
X027913Y03689
X028268Y040709
X029268Y040709
X030268Y040709
X031268Y040709
T3C.03543F197S55
X064488Y026142
X073346Y026142
T4C.03622F197S55
X012756Y045748
X012756Y044961
X012756Y043976
X012756Y046732
T5C.037F197S55
X049055Y028921
X049055Y034921
X055669Y033858
X058425Y033764
X060245Y023872
X060245Y029872
X061181Y033858
X066165Y030079
X072165Y030079
X061181Y039858
X058425Y039764
X055669Y039858
T6C.04016F139S55
X032087Y035039
X032835Y032874
X035354Y030512
X035354Y026772
X045Y032835
X045542Y02427
X032677Y039213
X026811Y046457
T7C.04094F139S55
X036237Y0438
X036237Y046949
X051395Y046949
X051395Y042717
T8C.04724F139S55
X070157Y048465
X070748Y045906
X071811Y040906
T9C.06693F089S55
X077882Y046417
X077913Y040906
X079882Y046417
X079913Y040906
T10C.09055F066S55
X011547Y047799
X011689Y042768
M30
