*
*
G04 PADS 9.5 Build Number: 522968 generated Gerber (RS-274-X) file*
G04 PC Version=2.1*
*
%IN "opqbox2.pcb"*%
*
%MOIN*%
*
%FSLAX35Y35*%
*
*
*
*
G04 PC Standard Apertures*
*
*
G04 Thermal Relief Aperture macro.*
%AMTER*
1,1,$1,0,0*
1,0,$1-$2,0,0*
21,0,$3,$4,0,0,45*
21,0,$3,$4,0,0,135*
%
*
*
G04 Annular Aperture macro.*
%AMANN*
1,1,$1,0,0*
1,0,$2,0,0*
%
*
*
G04 Odd Aperture macro.*
%AMODD*
1,1,$1,0,0*
1,0,$1-0.005,0,0*
%
*
*
G04 PC Custom Aperture Macros*
*
*
*
*
*
*
G04 PC Aperture Table*
*
%ADD010C,0.001*%
%ADD013C,0.01*%
%ADD028C,0.06*%
%ADD050C,0.04331*%
%ADD103C,0.015*%
%ADD151C,0.03543*%
*
*
*
*
G04 PC Circuitry*
G04 Layer Name opqbox2.pcb - circuitry*
%LPD*%
*
*
G04 PC Custom Flashes*
G04 Layer Name opqbox2.pcb - flashes*
%LPD*%
*
*
G04 PC Circuitry*
G04 Layer Name opqbox2.pcb - circuitry*
%LPD*%
*
G54D10*
G54D13*
G01X280431Y244094D02*
G75*
G03X280431I-2872J0D01*
G01X265864Y243701D02*
G03X265864I-2872J0D01*
G01Y250787D02*
G03X265864I-2872J0D01*
G01X251336Y234843D02*
G03X251336I-3265J0D01*
G01Y242598D02*
G03X251336I-3265J0D01*
G01X251376Y259488D02*
G03X251376I-3266J0D01*
G01X251336Y268307D02*
G03X251336I-3265J0D01*
G01X244801Y112795D02*
G03X244801I-5037J0D01*
G01Y144291D02*
G03X244801I-5037J0D01*
G01X247360Y287008D02*
G03X247360I-2872J0D01*
G01X234021Y221614D02*
G03X234021I-4100J0D01*
G01Y231614D02*
G03X234021I-4100J0D01*
G01X236336Y283465D02*
G03X236336I-2871J0D01*
G01X224021Y221614D02*
G03X224021I-4100J0D01*
G01Y231614D02*
G03X224021I-4100J0D01*
G01X210982Y118150D02*
G03X210982I-3265J0D01*
G01X214021Y221614D02*
G03X214021I-4100J0D01*
G01Y231614D02*
G03X214021I-4100J0D01*
G01X200234Y118228D02*
G03X200234I-3265J0D01*
G01X202478Y174803D02*
G03X202478I-5037J0D01*
G01Y194488D02*
G03X202478I-5037J0D01*
G01X204021Y221614D02*
G03X204021I-4100J0D01*
G01Y231614D02*
G03X204021I-4100J0D01*
G01X201691Y288189D02*
G03X201691I-3266J0D01*
G01X194021Y221614D02*
G03X194021I-4100J0D01*
G01Y231614D02*
G03X194021I-4100J0D01*
G01X194998Y277165D02*
G03X194998I-3266J0D01*
G01X184021Y221614D02*
G03X184021I-4100J0D01*
G01Y231614D02*
G03X184021I-4100J0D01*
G01X173147Y118701D02*
G03X173147I-3265J0D01*
G01X174021Y221614D02*
G03X174021I-4100J0D01*
G01Y231614D02*
G03X174021I-4100J0D01*
G01X164021Y221614D02*
G03X164021I-4100J0D01*
G01Y231614D02*
G03X164021I-4100J0D01*
G01X154446Y191535D02*
G03X154446I-3265J0D01*
G01X147557Y174803D02*
G03X147557I-3266J0D01*
G01X154021Y221614D02*
G03X154021I-4100J0D01*
G01Y231614D02*
G03X154021I-4100J0D01*
G01X135933Y121654D02*
G03X135933I-14279J0D01*
G01X144021Y221614D02*
G03X144021I-4100J0D01*
G01Y231614D02*
G03X144021I-4100J0D01*
G01X133226Y161969D02*
G03X133226I-2872J0D01*
G01X130273Y187323D02*
G03X130273I-3265J0D01*
G01X134021Y221614D02*
G03X134021I-4100J0D01*
G01Y231614D02*
G03X134021I-4100J0D01*
G01X115903Y161969D02*
G03X115903I-2872J0D01*
G01X119053Y187362D02*
G03X119053I-3266J0D01*
G01X124021Y221614D02*
G03X124021I-4100J0D01*
G01Y231614D02*
G03X124021I-4100J0D01*
G01X114021Y221614D02*
G03X114021I-4100J0D01*
G01Y231614D02*
G03X114021I-4100J0D01*
G01X278856Y306693D02*
G03X278856I-2872J0D01*
G01Y329134D02*
G03X278856I-2872J0D01*
G01X272557Y306693D02*
G03X272557I-2872J0D01*
G01X267045Y484252D02*
G03X267045I-2872J0D01*
G01X248147Y325197D02*
G03X248147I-2871J0D01*
G01X251691Y459843D02*
G03X251691I-2872J0D01*
G01X255628Y484252D02*
G03X255628I-2872J0D01*
G01X237124Y305906D02*
G03X237124I-2872J0D01*
G01X237911Y452756D02*
G03X237911I-2872J0D01*
G01X239100Y474606D02*
G03X239100I-4100J0D01*
G01Y484606D02*
G03X239100I-4100J0D01*
G01X230431Y310630D02*
G03X230431I-2872J0D01*
G01Y325079D02*
G03X230431I-2872J0D01*
G01X209958Y301575D02*
G03X209958I-3265J0D01*
G01X211139Y358661D02*
G03X211139I-2871J0D01*
G01X207635Y372677D02*
G03X207635I-2871J0D01*
G01X224958Y415000D02*
G03X224958I-2871J0D01*
G01Y420906D02*
G03X224958I-2871J0D01*
G01X215903Y408976D02*
G03X215903I-2872J0D01*
G01X220509Y426063D02*
G03X220509I-2871J0D01*
G01X224525Y435827D02*
G03X224525I-2871J0D01*
G01X227675Y452756D02*
G03X227675I-2872J0D01*
G01X214289Y423701D02*
G03X214289I-2872J0D01*
G01X229100Y474606D02*
G03X229100I-4100J0D01*
G01Y484606D02*
G03X229100I-4100J0D01*
G01X207478Y402165D02*
G03X207478I-2872J0D01*
G01X202872Y419843D02*
G03X202872I-2872J0D01*
G01X207084Y432795D02*
G03X207084I-2871J0D01*
G01X211139Y442520D02*
G03X211139I-2871J0D01*
G01X219100Y474606D02*
G03X219100I-4100J0D01*
G01Y484606D02*
G03X219100I-4100J0D01*
G01X207596Y452756D02*
G03X207596I-2872J0D01*
G01X209100Y474606D02*
G03X209100I-4100J0D01*
G01Y484606D02*
G03X209100I-4100J0D01*
G01X193423Y301181D02*
G03X193423I-3266J0D01*
G01X193935Y368740D02*
G03X193935I-2872J0D01*
G01X195195Y391063D02*
G03X195195I-2872J0D01*
G01X193935Y413425D02*
G03X193935I-2872J0D01*
G01X193187Y433661D02*
G03X193187I-2872J0D01*
G01X198147Y452756D02*
G03X198147I-2871J0D01*
G01X199100Y474606D02*
G03X199100I-4100J0D01*
G01Y484606D02*
G03X199100I-4100J0D01*
G01X188305Y452756D02*
G03X188305I-2872J0D01*
G01X189100Y474606D02*
G03X189100I-4100J0D01*
G01Y484606D02*
G03X189100I-4100J0D01*
G01X178069Y428346D02*
G03X178069I-2872J0D01*
G01X179250Y438976D02*
G03X179250I-2872J0D01*
G01X177675Y452756D02*
G03X177675I-2872J0D01*
G01X179100Y474606D02*
G03X179100I-4100J0D01*
G01Y484606D02*
G03X179100I-4100J0D01*
G01X165076Y257638D02*
G03X165076I-2871J0D01*
G01X165588Y341024D02*
G03X165588I-3265J0D01*
G01X169407Y409055D02*
G03X169407I-2872J0D01*
G01X167832Y452362D02*
G03X167832I-2871J0D01*
G01X169100Y474606D02*
G03X169100I-4100J0D01*
G01Y484606D02*
G03X169100I-4100J0D01*
G01X149328Y270866D02*
G03X149328I-2871J0D01*
G01X149289Y285945D02*
G03X149289I-2872J0D01*
G01X154722Y336929D02*
G03X154722I-3265J0D01*
G01X157596Y452756D02*
G03X157596I-2872J0D01*
G01X159100Y474606D02*
G03X159100I-4100J0D01*
G01Y484606D02*
G03X159100I-4100J0D01*
G01X141454Y270866D02*
G03X141454I-2871J0D01*
G01X149100Y474606D02*
G03X149100I-4100J0D01*
G01Y484606D02*
G03X149100I-4100J0D01*
G01X135195Y271220D02*
G03X135195I-2872J0D01*
G01X125706Y272441D02*
G03X125706I-2871J0D01*
G01X117832D02*
G03X117832I-2871J0D01*
G01X109761Y255512D02*
G03X109761I-2871J0D01*
G01X135933Y472047D02*
G03X135933I-14279J0D01*
G01X285031Y240445D02*
Y292413D01*
X233357*
X230422D02*
G03X233357I1468J2469D01*
G01X230422D02*
X197648D01*
X174811Y269576*
Y242217*
X101100*
Y101100*
X253043*
Y203554*
X285031Y235542*
Y236248*
Y240445D02*
G03Y236248I-1960J-2099D01*
G01X284539Y297350D02*
Y334045D01*
X268791Y349793*
Y492601*
X101100*
Y248138*
X169382*
Y270483*
X196250Y297350*
X221436*
X225808D02*
G03X221436I-2186J1863D01*
G01X225808D02*
X230422D01*
X233357D02*
G03X230422I-1467J-2468D01*
G01X233357D02*
X284539D01*
X280431Y244094D02*
G03X280431I-2872J0D01*
G01X278862Y262008D02*
G03X276256I-1303J2559D01*
G01X278862Y256890D02*
G03Y262008I-1303J2559D01*
G01X276256Y256890D02*
G03X278862I1303J-2559D01*
G01X276256Y262008D02*
G03Y256890I1303J-2559D01*
G01X265864Y243701D02*
G03X265864I-2872J0D01*
G01Y250787D02*
G03X265864I-2872J0D01*
G01X251336Y234843D02*
G03X251336I-3265J0D01*
G01Y242598D02*
G03X251336I-3265J0D01*
G01X251376Y259488D02*
G03X251376I-3266J0D01*
G01X251336Y268307D02*
G03X251336I-3265J0D01*
G01X244801Y112795D02*
G03X244801I-5037J0D01*
G01Y144291D02*
G03X244801I-5037J0D01*
G01X247360Y287008D02*
G03X247360I-2872J0D01*
G01X234021Y221614D02*
G03X234021I-4100J0D01*
G01Y231614D02*
G03X234021I-4100J0D01*
G01X236336Y283465D02*
G03X236336I-2871J0D01*
G01X224021Y221614D02*
G03X224021I-4100J0D01*
G01Y231614D02*
G03X224021I-4100J0D01*
G01X218972Y280315D02*
G03X217248I-862J3150D01*
X218972I862J-3150*
G01X210982Y118150D02*
G03X210982I-3265J0D01*
G01X214021Y221614D02*
G03X214021I-4100J0D01*
G01Y231614D02*
G03X214021I-4100J0D01*
G01X200234Y118228D02*
G03X200234I-3265J0D01*
G01X202478Y174803D02*
G03X202478I-5037J0D01*
G01Y194488D02*
G03X202478I-5037J0D01*
G01X204021Y221614D02*
G03X204021I-4100J0D01*
G01Y231614D02*
G03X204021I-4100J0D01*
G01X201691Y288189D02*
G03X201691I-3266J0D01*
G01X194021Y221614D02*
G03X194021I-4100J0D01*
G01Y231614D02*
G03X194021I-4100J0D01*
G01X194998Y277165D02*
G03X194998I-3266J0D01*
G01X184021Y221614D02*
G03X184021I-4100J0D01*
G01Y231614D02*
G03X184021I-4100J0D01*
G01X173147Y118701D02*
G03X173147I-3265J0D01*
G01X174021Y221614D02*
G03X174021I-4100J0D01*
G01Y231614D02*
G03X174021I-4100J0D01*
G01X164021Y221614D02*
G03X164021I-4100J0D01*
G01Y231614D02*
G03X164021I-4100J0D01*
G01X154446Y191535D02*
G03X154446I-3265J0D01*
G01X147557Y174803D02*
G03X147557I-3266J0D01*
G01X154021Y221614D02*
G03X154021I-4100J0D01*
G01Y231614D02*
G03X154021I-4100J0D01*
G01X135933Y121654D02*
G03X135933I-14279J0D01*
G01X144021Y221614D02*
G03X144021I-4100J0D01*
G01Y231614D02*
G03X144021I-4100J0D01*
G01X133226Y161969D02*
G03X133226I-2872J0D01*
G01X130273Y187323D02*
G03X130273I-3265J0D01*
G01X134021Y221614D02*
G03X134021I-4100J0D01*
G01Y231614D02*
G03X134021I-4100J0D01*
G01X115903Y161969D02*
G03X115903I-2872J0D01*
G01X119053Y187362D02*
G03X119053I-3266J0D01*
G01X124021Y221614D02*
G03X124021I-4100J0D01*
G01Y231614D02*
G03X124021I-4100J0D01*
G01X114021Y221614D02*
G03X114021I-4100J0D01*
G01Y231614D02*
G03X114021I-4100J0D01*
G01X278856Y306693D02*
G03X278856I-2872J0D01*
G01Y329134D02*
G03X278856I-2872J0D01*
G01X272557Y306693D02*
G03X272557I-2872J0D01*
G01X267045Y484252D02*
G03X267045I-2872J0D01*
G01X248147Y325197D02*
G03X248147I-2871J0D01*
G01X251691Y459843D02*
G03X251691I-2872J0D01*
G01X255628Y484252D02*
G03X255628I-2872J0D01*
G01X237124Y305906D02*
G03X237124I-2872J0D01*
G01X237911Y452756D02*
G03X237911I-2872J0D01*
G01X239100Y474606D02*
G03X239100I-4100J0D01*
G01Y484606D02*
G03X239100I-4100J0D01*
G01X230431Y310630D02*
G03X230431I-2872J0D01*
G01Y325079D02*
G03X230431I-2872J0D01*
G01X220975Y316493D02*
G03X218907Y319452I797J2759D01*
X220975Y316493I-797J-2759*
G01X209958Y301575D02*
G03X209958I-3265J0D01*
G01X212279Y311417D02*
G03X210556I-862J3150D01*
X212279I861J-3149*
G01X211139Y358661D02*
G03X211139I-2871J0D01*
G01X207635Y372677D02*
G03X207635I-2871J0D01*
G01X217869Y395445D02*
G03X214848Y397626I-231J2862D01*
G01X215137Y391893D02*
G03X217869Y395445I-58J2871D01*
G01X210580Y388509D02*
G03X215137Y391893I2018J2042D01*
G01X205989Y388148D02*
G03X210580Y388509I2161J1891D01*
G01X206137Y392088D02*
G03X205989Y388148I-2161J-1891D01*
G01X210169Y392082D02*
G03X206137Y392088I-2019J-2043D01*
G01X212540Y393422D02*
G03X210169Y392082I58J-2871D01*
G01X214848Y397626D02*
G03X212540Y393422I231J-2862D01*
G01X222107Y406002D02*
G03X222736Y406006I334J-2852D01*
X222107Y406002I-334J2852*
G01X224958Y415000D02*
G03X224958I-2871J0D01*
G01Y420906D02*
G03X224958I-2871J0D01*
G01X215903Y408976D02*
G03X215903I-2872J0D01*
G01X220509Y426063D02*
G03X220509I-2871J0D01*
G01X224525Y435827D02*
G03X224525I-2871J0D01*
G01X227675Y452756D02*
G03X227675I-2872J0D01*
G01X214289Y423701D02*
G03X214289I-2872J0D01*
G01X217717Y454172D02*
G03X216535Y455198I1220J2600D01*
X217717Y454172I-1220J-2600*
G01X229100Y474606D02*
G03X229100I-4100J0D01*
G01Y484606D02*
G03X229100I-4100J0D01*
G01X207478Y402165D02*
G03X207478I-2872J0D01*
G01X202872Y419843D02*
G03X202872I-2872J0D01*
G01X207084Y432795D02*
G03X207084I-2871J0D01*
G01X211139Y442520D02*
G03X211139I-2871J0D01*
G01X219100Y474606D02*
G03X219100I-4100J0D01*
G01Y484606D02*
G03X219100I-4100J0D01*
G01X207596Y452756D02*
G03X207596I-2872J0D01*
G01X209100Y474606D02*
G03X209100I-4100J0D01*
G01Y484606D02*
G03X209100I-4100J0D01*
G01X193423Y301181D02*
G03X193423I-3266J0D01*
G01X185901Y311417D02*
G03X184178I-862J3150D01*
X185901I861J-3149*
G01X193935Y368740D02*
G03X193935I-2872J0D01*
G01X195195Y391063D02*
G03X195195I-2872J0D01*
G01X193935Y413425D02*
G03X193935I-2872J0D01*
G01X182163Y396721D02*
G03X183309Y398043I2640J-1130D01*
X182163Y396721I-2640J1130*
G01X193187Y433661D02*
G03X193187I-2872J0D01*
G01X198147Y452756D02*
G03X198147I-2871J0D01*
G01X199100Y474606D02*
G03X199100I-4100J0D01*
G01Y484606D02*
G03X199100I-4100J0D01*
G01X188305Y452756D02*
G03X188305I-2872J0D01*
G01X189100Y474606D02*
G03X189100I-4100J0D01*
G01Y484606D02*
G03X189100I-4100J0D01*
G01X178069Y428346D02*
G03X178069I-2872J0D01*
G01X179250Y438976D02*
G03X179250I-2872J0D01*
G01X177675Y452756D02*
G03X177675I-2872J0D01*
G01X179100Y474606D02*
G03X179100I-4100J0D01*
G01Y484606D02*
G03X179100I-4100J0D01*
G01X165076Y257638D02*
G03X165076I-2871J0D01*
G01X165588Y341024D02*
G03X165588I-3265J0D01*
G01X169407Y409055D02*
G03X169407I-2872J0D01*
G01X167832Y452362D02*
G03X167832I-2871J0D01*
G01X169100Y474606D02*
G03X169100I-4100J0D01*
G01Y484606D02*
G03X169100I-4100J0D01*
G01X149328Y270866D02*
G03X149328I-2871J0D01*
G01X149289Y285945D02*
G03X149289I-2872J0D01*
G01X154722Y336929D02*
G03X154722I-3265J0D01*
G01X157596Y452756D02*
G03X157596I-2872J0D01*
G01X159100Y474606D02*
G03X159100I-4100J0D01*
G01Y484606D02*
G03X159100I-4100J0D01*
G01X141454Y270866D02*
G03X141454I-2871J0D01*
G01X149100Y474606D02*
G03X149100I-4100J0D01*
G01Y484606D02*
G03X149100I-4100J0D01*
G01X135195Y271220D02*
G03X135195I-2872J0D01*
G01X125706Y272441D02*
G03X125706I-2871J0D01*
G01X117832D02*
G03X117832I-2871J0D01*
G01X109761Y255512D02*
G03X109761I-2871J0D01*
G01X135933Y472047D02*
G03X135933I-14279J0D01*
G01X197133Y291899D02*
X285031D01*
X200089Y290999D02*
X285031D01*
X201074Y290099D02*
X285031D01*
X246345Y289199D02*
X285031D01*
X247053Y288299D02*
X285031D01*
X247333Y287399D02*
X285031D01*
X247314Y286499D02*
X285031D01*
X246990Y285599D02*
X285031D01*
X246195Y284699D02*
X285031D01*
X236317Y283799D02*
X285031D01*
X236280Y282899D02*
X285031D01*
X235934Y281999D02*
X285031D01*
X235092Y281099D02*
X285031D01*
X219319Y280199D02*
X285031D01*
X220582Y279299D02*
X285031D01*
X221134Y278399D02*
X285031D01*
X221359Y277499D02*
X285031D01*
X221326Y276599D02*
X285031D01*
X221028Y275699D02*
X285031D01*
X220360Y274799D02*
X285031D01*
X179133Y273899D02*
X285031D01*
X178233Y272999D02*
X285031D01*
X177333Y272099D02*
X285031D01*
X249588Y271199D02*
X285031D01*
X250659Y270299D02*
X285031D01*
X251148Y269399D02*
X285031D01*
X251331Y268499D02*
X285031D01*
X251258Y267599D02*
X285031D01*
X279483Y266699D02*
X285031D01*
X280153Y265799D02*
X285031D01*
X280411Y264899D02*
X285031D01*
X280374Y263999D02*
X285031D01*
X280027Y263099D02*
X285031D01*
X279183Y262199D02*
X285031D01*
X279756Y261299D02*
X285031D01*
X280269Y260399D02*
X285031D01*
X280430Y259499D02*
X285031D01*
X280302Y258599D02*
X285031D01*
X279836Y257699D02*
X285031D01*
X279027Y256799D02*
X285031D01*
X279965Y255899D02*
X285031D01*
X280352Y254999D02*
X285031D01*
X280421Y254099D02*
X285031D01*
X280198Y253199D02*
X285031D01*
X279588Y252299D02*
X285031D01*
X265798Y251399D02*
X285031D01*
X265849Y250499D02*
X285031D01*
X265606Y249599D02*
X285031D01*
X264963Y248699D02*
X285031D01*
X174811Y247799D02*
X285031D01*
X278178Y246899D02*
X285031D01*
X279709Y245999D02*
X285031D01*
X280249Y245099D02*
X285031D01*
X280429Y244199D02*
X285031D01*
X280318Y243299D02*
X285031D01*
X279877Y242399D02*
X285031D01*
X278787Y241499D02*
X285031D01*
X284852Y240599D02*
X285031D01*
X284858Y236099D02*
X285031D01*
X251317Y235199D02*
X284688D01*
X251291Y234299D02*
X283788D01*
X251000Y233399D02*
X282888D01*
X250344Y232499D02*
X281988D01*
X250652Y240599D02*
X281289D01*
X251085Y236099D02*
X281284D01*
X248446Y231599D02*
X281088D01*
X249572Y239699D02*
X280538D01*
X250523Y236999D02*
X280535D01*
X101100Y238799D02*
X280235D01*
X249221Y237899D02*
X280234D01*
X233918Y230699D02*
X280188D01*
X233597Y229799D02*
X279288D01*
X232993Y228899D02*
X278388D01*
X231855Y227999D02*
X277488D01*
X174811Y246899D02*
X276940D01*
X101100Y227099D02*
X276588D01*
X264835Y241499D02*
X276331D01*
X249962Y256799D02*
X276091D01*
X249931Y262199D02*
X275935D01*
X101100Y226199D02*
X275688D01*
X250913Y266699D02*
X275635D01*
X265434Y252299D02*
X275530D01*
X264714Y245999D02*
X275410D01*
X250828Y261299D02*
X275363D01*
X250842Y257699D02*
X275282D01*
X265552Y242399D02*
X275242D01*
X174811Y255899D02*
X275153D01*
X174811Y263099D02*
X275091D01*
X250161Y265799D02*
X274965D01*
X264552Y253199D02*
X274920D01*
X265501Y245099D02*
X274869D01*
X251246Y260399D02*
X274849D01*
X251252Y258599D02*
X274816D01*
X265836Y243299D02*
X274800D01*
X231720Y225299D02*
X274788D01*
X174811Y254999D02*
X274766D01*
X174811Y263999D02*
X274744D01*
X174811Y264899D02*
X274707D01*
X174811Y254099D02*
X274697D01*
X265820Y244199D02*
X274689D01*
X251376Y259499D02*
X274688D01*
X232931Y224399D02*
X273888D01*
X233563Y223499D02*
X272988D01*
X233901Y222599D02*
X272088D01*
X234020Y221699D02*
X271188D01*
X233939Y220799D02*
X270288D01*
X233645Y219899D02*
X269388D01*
X233079Y218999D02*
X268488D01*
X232031Y218099D02*
X267588D01*
X101100Y217199D02*
X266688D01*
X101100Y216299D02*
X265788D01*
X101100Y215399D02*
X264888D01*
X101100Y214499D02*
X263988D01*
X101100Y213599D02*
X263088D01*
X101100Y212699D02*
X262188D01*
X174811Y253199D02*
X261433D01*
X101100Y211799D02*
X261288D01*
X174811Y245999D02*
X261270D01*
X251145Y241499D02*
X261149D01*
X174811Y248699D02*
X261021D01*
X174811Y252299D02*
X260550D01*
X250171Y245099D02*
X260484D01*
X251330Y242399D02*
X260433D01*
X101100Y210899D02*
X260388D01*
X174811Y249599D02*
X260378D01*
X174811Y251399D02*
X260186D01*
X250917Y244199D02*
X260164D01*
X251260Y243299D02*
X260149D01*
X174811Y250499D02*
X260135D01*
X101100Y209999D02*
X259488D01*
X101100Y209099D02*
X258588D01*
X101100Y208199D02*
X257688D01*
X101100Y207299D02*
X256788D01*
X101100Y206399D02*
X255888D01*
X101100Y205499D02*
X254988D01*
X101100Y204599D02*
X254088D01*
X101100Y203699D02*
X253188D01*
X101100Y202799D02*
X253043D01*
X101100Y201899D02*
X253043D01*
X101100Y200999D02*
X253043D01*
X101100Y200099D02*
X253043D01*
X199225Y199199D02*
X253043D01*
X200735Y198299D02*
X253043D01*
X201552Y197399D02*
X253043D01*
X202059Y196499D02*
X253043D01*
X202354Y195599D02*
X253043D01*
X202474Y194699D02*
X253043D01*
X202431Y193799D02*
X253043D01*
X202221Y192899D02*
X253043D01*
X201820Y191999D02*
X253043D01*
X201167Y191099D02*
X253043D01*
X200081Y190199D02*
X253043D01*
X153560Y189299D02*
X253043D01*
X152089Y188399D02*
X253043D01*
X130269Y187499D02*
X253043D01*
X130192Y186599D02*
X253043D01*
X129841Y185699D02*
X253043D01*
X129079Y184799D02*
X253043D01*
X101100Y183899D02*
X253043D01*
X101100Y182999D02*
X253043D01*
X101100Y182099D02*
X253043D01*
X101100Y181199D02*
X253043D01*
X101100Y180299D02*
X253043D01*
X199503Y179399D02*
X253043D01*
X200864Y178499D02*
X253043D01*
X201631Y177599D02*
X253043D01*
X202108Y176699D02*
X253043D01*
X202379Y175799D02*
X253043D01*
X202477Y174899D02*
X253043D01*
X202413Y173999D02*
X253043D01*
X202181Y173099D02*
X253043D01*
X201752Y172199D02*
X253043D01*
X201059Y171299D02*
X253043D01*
X199885Y170399D02*
X253043D01*
X101100Y169499D02*
X253043D01*
X101100Y168599D02*
X253043D01*
X101100Y167699D02*
X253043D01*
X101100Y166799D02*
X253043D01*
X101100Y165899D02*
X253043D01*
X101100Y164999D02*
X253043D01*
X132280Y164099D02*
X253043D01*
X132949Y163199D02*
X253043D01*
X133207Y162299D02*
X253043D01*
X133169Y161399D02*
X253043D01*
X132821Y160499D02*
X253043D01*
X131976Y159599D02*
X253043D01*
X101100Y158699D02*
X253043D01*
X101100Y157799D02*
X253043D01*
X101100Y156899D02*
X253043D01*
X101100Y155999D02*
X253043D01*
X101100Y155099D02*
X253043D01*
X101100Y154199D02*
X253043D01*
X101100Y153299D02*
X253043D01*
X101100Y152399D02*
X253043D01*
X101100Y151499D02*
X253043D01*
X101100Y150599D02*
X253043D01*
X101100Y149699D02*
X253043D01*
X242012Y148799D02*
X253043D01*
X243279Y147899D02*
X253043D01*
X244011Y146999D02*
X253043D01*
X244465Y146099D02*
X253043D01*
X244718Y145199D02*
X253043D01*
X244801Y144299D02*
X253043D01*
X244721Y143399D02*
X253043D01*
X244471Y142499D02*
X253043D01*
X244021Y141599D02*
X253043D01*
X243294Y140699D02*
X253043D01*
X242041Y139799D02*
X253043D01*
X101100Y138899D02*
X253043D01*
X101100Y137999D02*
X253043D01*
X101100Y137099D02*
X253043D01*
X101100Y136199D02*
X253043D01*
X125862Y135299D02*
X253043D01*
X128093Y134399D02*
X253043D01*
X129628Y133499D02*
X253043D01*
X130825Y132599D02*
X253043D01*
X131802Y131699D02*
X253043D01*
X132620Y130799D02*
X253043D01*
X133312Y129899D02*
X253043D01*
X133899Y128999D02*
X253043D01*
X134396Y128099D02*
X253043D01*
X134812Y127199D02*
X253043D01*
X135156Y126299D02*
X253043D01*
X135433Y125399D02*
X253043D01*
X135647Y124499D02*
X253043D01*
X135800Y123599D02*
X253043D01*
X135895Y122699D02*
X253043D01*
X170914Y121799D02*
X253043D01*
X209479Y120899D02*
X253043D01*
X210408Y119999D02*
X253043D01*
X210841Y119099D02*
X253043D01*
X210982Y118199D02*
X253043D01*
X242020Y117299D02*
X253043D01*
X243283Y116399D02*
X253043D01*
X244014Y115499D02*
X253043D01*
X244467Y114599D02*
X253043D01*
X244719Y113699D02*
X253043D01*
X244801Y112799D02*
X253043D01*
X244720Y111899D02*
X253043D01*
X244470Y110999D02*
X253043D01*
X244018Y110099D02*
X253043D01*
X243290Y109199D02*
X253043D01*
X242034Y108299D02*
X253043D01*
X122493Y107399D02*
X253043D01*
X101100Y106499D02*
X253043D01*
X101100Y105599D02*
X253043D01*
X101100Y104699D02*
X253043D01*
X101100Y103799D02*
X253043D01*
X101100Y102899D02*
X253043D01*
X101100Y101999D02*
X253043D01*
X234021Y231599D02*
X247696D01*
X101100Y237899D02*
X246921D01*
X101100Y239699D02*
X246569D01*
X176433Y271199D02*
X246554D01*
X174811Y262199D02*
X246289D01*
X174811Y256799D02*
X246258D01*
X174811Y265799D02*
X245980D01*
X174811Y245099D02*
X245971D01*
X233925Y232499D02*
X245797D01*
X101100Y236999D02*
X245619D01*
X101100Y240599D02*
X245489D01*
X175533Y270299D02*
X245483D01*
X174811Y261299D02*
X245393D01*
X174811Y257699D02*
X245379D01*
X174811Y266699D02*
X245229D01*
X174811Y244199D02*
X245225D01*
X233613Y233399D02*
X245142D01*
X101100Y236099D02*
X245057D01*
X101100Y241499D02*
X244996D01*
X174811Y269399D02*
X244993D01*
X174811Y260399D02*
X244974D01*
X174811Y258599D02*
X244968D01*
X174811Y267599D02*
X244883D01*
X174811Y243299D02*
X244881D01*
X233020Y234299D02*
X244851D01*
X174811Y259499D02*
X244845D01*
X231912Y235199D02*
X244825D01*
X174811Y242399D02*
X244812D01*
X174811Y268499D02*
X244811D01*
X236058Y284699D02*
X242781D01*
X201531Y289199D02*
X242632D01*
X235386Y285599D02*
X241986D01*
X201689Y288299D02*
X241923D01*
X219317Y286499D02*
X241662D01*
X201594Y287399D02*
X241643D01*
X101100Y148799D02*
X237515D01*
X210869Y117299D02*
X237508D01*
X126709Y108299D02*
X237494D01*
X101100Y139799D02*
X237486D01*
X101100Y147899D02*
X236248D01*
X210473Y116399D02*
X236244D01*
X128638Y109199D02*
X236237D01*
X101100Y140699D02*
X236233D01*
X101100Y146999D02*
X235516D01*
X209623Y115499D02*
X235514D01*
X130043Y110099D02*
X235509D01*
X101100Y141599D02*
X235507D01*
X101100Y146099D02*
X235062D01*
X134069Y114599D02*
X235061D01*
X131160Y110999D02*
X235058D01*
X101100Y142499D02*
X235057D01*
X101100Y145199D02*
X234809D01*
X133512Y113699D02*
X234808D01*
X132082Y111899D02*
X234807D01*
X101100Y143399D02*
X234806D01*
X101100Y144299D02*
X234727D01*
X132856Y112799D02*
X234727D01*
X220361Y281099D02*
X231837D01*
X220582Y285599D02*
X231543D01*
X221028Y281999D02*
X230995D01*
X221133Y284699D02*
X230872D01*
X221326Y282899D02*
X230649D01*
X221358Y283799D02*
X230612D01*
X221720Y225299D02*
X228123D01*
X221855Y227999D02*
X227988D01*
X221912Y235199D02*
X227931D01*
X222031Y218099D02*
X227811D01*
X222931Y224399D02*
X226912D01*
X222993Y228899D02*
X226849D01*
X223020Y234299D02*
X226822D01*
X223079Y218999D02*
X226764D01*
X223563Y223499D02*
X226280D01*
X223597Y229799D02*
X226245D01*
X223613Y233399D02*
X226230D01*
X223645Y219899D02*
X226197D01*
X223901Y222599D02*
X225941D01*
X223918Y230699D02*
X225925D01*
X223925Y232499D02*
X225918D01*
X223939Y220799D02*
X225903D01*
X224020Y221699D02*
X225822D01*
X224021Y231599D02*
X225821D01*
X211720Y225299D02*
X218123D01*
X211855Y227999D02*
X217988D01*
X211912Y235199D02*
X217931D01*
X212031Y218099D02*
X217811D01*
X212931Y224399D02*
X216912D01*
X201219Y286499D02*
X216903D01*
X192941Y280199D02*
X216901D01*
X212993Y228899D02*
X216849D01*
X213020Y234299D02*
X216822D01*
X213079Y218999D02*
X216764D01*
X213563Y223499D02*
X216280D01*
X213597Y229799D02*
X216245D01*
X213613Y233399D02*
X216230D01*
X213645Y219899D02*
X216197D01*
X213901Y222599D02*
X215941D01*
X213918Y230699D02*
X215925D01*
X213925Y232499D02*
X215918D01*
X213939Y220799D02*
X215903D01*
X193982Y274799D02*
X215860D01*
X186333Y281099D02*
X215860D01*
X214020Y221699D02*
X215822D01*
X214021Y231599D02*
X215821D01*
X200413Y285599D02*
X215639D01*
X194204Y279299D02*
X215638D01*
X194650Y275699D02*
X215193D01*
X187233Y281999D02*
X215192D01*
X189933Y284699D02*
X215087D01*
X194756Y278399D02*
X215087D01*
X194948Y276599D02*
X214894D01*
X188133Y282899D02*
X214894D01*
X189033Y283799D02*
X214862D01*
X194981Y277499D02*
X214862D01*
X201720Y225299D02*
X208123D01*
X201855Y227999D02*
X207988D01*
X201912Y235199D02*
X207931D01*
X202031Y218099D02*
X207811D01*
X202931Y224399D02*
X206912D01*
X202993Y228899D02*
X206849D01*
X203020Y234299D02*
X206822D01*
X203079Y218999D02*
X206764D01*
X203563Y223499D02*
X206280D01*
X203597Y229799D02*
X206245D01*
X203613Y233399D02*
X206230D01*
X203645Y219899D02*
X206197D01*
X198848Y120899D02*
X205954D01*
X203901Y222599D02*
X205941D01*
X203918Y230699D02*
X205925D01*
X203925Y232499D02*
X205918D01*
X203939Y220799D02*
X205903D01*
X204020Y221699D02*
X205822D01*
X204021Y231599D02*
X205821D01*
X198761Y115499D02*
X205810D01*
X199712Y119999D02*
X205025D01*
X199673Y116399D02*
X204960D01*
X200116Y119099D02*
X204592D01*
X200099Y117299D02*
X204564D01*
X200234Y118199D02*
X204452D01*
X191720Y225299D02*
X198123D01*
X191855Y227999D02*
X197988D01*
X191912Y235199D02*
X197931D01*
X192031Y218099D02*
X197811D01*
X192931Y224399D02*
X196912D01*
X192993Y228899D02*
X196849D01*
X193020Y234299D02*
X196822D01*
X193079Y218999D02*
X196764D01*
X196233Y290999D02*
X196761D01*
X190833Y285599D02*
X196437D01*
X193563Y223499D02*
X196280D01*
X193597Y229799D02*
X196245D01*
X193613Y233399D02*
X196230D01*
X193645Y219899D02*
X196197D01*
X193901Y222599D02*
X195941D01*
X193918Y230699D02*
X195925D01*
X193925Y232499D02*
X195918D01*
X193939Y220799D02*
X195903D01*
X194020Y221699D02*
X195822D01*
X194021Y231599D02*
X195821D01*
X195333Y290099D02*
X195776D01*
X101100Y199199D02*
X195657D01*
X191733Y286499D02*
X195631D01*
X101100Y179399D02*
X195379D01*
X194433Y289199D02*
X195320D01*
X192633Y287399D02*
X195257D01*
X170522Y115499D02*
X195176D01*
X193533Y288299D02*
X195162D01*
X172297Y120899D02*
X195089D01*
X101100Y170399D02*
X194997D01*
X154160Y190199D02*
X194800D01*
X172198Y116399D02*
X194264D01*
X172878Y119999D02*
X194225D01*
X101100Y198299D02*
X194147D01*
X101100Y178499D02*
X194018D01*
X172831Y117299D02*
X193838D01*
X101100Y171299D02*
X193823D01*
X173123Y119099D02*
X193821D01*
X154417Y191099D02*
X193715D01*
X173108Y118199D02*
X193703D01*
X101100Y197399D02*
X193330D01*
X145979Y177599D02*
X193251D01*
X146261Y172199D02*
X193130D01*
X154413Y191999D02*
X193062D01*
X101100Y196499D02*
X192823D01*
X146950Y176699D02*
X192774D01*
X147077Y173099D02*
X192701D01*
X154148Y192899D02*
X192661D01*
X101100Y195599D02*
X192528D01*
X147401Y175799D02*
X192503D01*
X147456Y173999D02*
X192469D01*
X153535Y193799D02*
X192451D01*
X151991Y194699D02*
X192408D01*
X147555Y174899D02*
X192405D01*
X185433Y280199D02*
X190523D01*
X180033Y274799D02*
X189482D01*
X184533Y279299D02*
X189260D01*
X180933Y275699D02*
X188815D01*
X183633Y278399D02*
X188709D01*
X181833Y276599D02*
X188516D01*
X182733Y277499D02*
X188484D01*
X181720Y225299D02*
X188123D01*
X181855Y227999D02*
X187988D01*
X181912Y235199D02*
X187931D01*
X182031Y218099D02*
X187811D01*
X182931Y224399D02*
X186912D01*
X182993Y228899D02*
X186849D01*
X183020Y234299D02*
X186822D01*
X183079Y218999D02*
X186764D01*
X183563Y223499D02*
X186280D01*
X183597Y229799D02*
X186245D01*
X183613Y233399D02*
X186230D01*
X183645Y219899D02*
X186197D01*
X183901Y222599D02*
X185941D01*
X183918Y230699D02*
X185925D01*
X183925Y232499D02*
X185918D01*
X183939Y220799D02*
X185903D01*
X184020Y221699D02*
X185822D01*
X184021Y231599D02*
X185821D01*
X171720Y225299D02*
X178123D01*
X171855Y227999D02*
X177988D01*
X171912Y235199D02*
X177931D01*
X172031Y218099D02*
X177811D01*
X172931Y224399D02*
X176912D01*
X172993Y228899D02*
X176849D01*
X173020Y234299D02*
X176822D01*
X173079Y218999D02*
X176764D01*
X173563Y223499D02*
X176280D01*
X173597Y229799D02*
X176245D01*
X173613Y233399D02*
X176230D01*
X173645Y219899D02*
X176197D01*
X173901Y222599D02*
X175941D01*
X173918Y230699D02*
X175925D01*
X173925Y232499D02*
X175918D01*
X173939Y220799D02*
X175903D01*
X174020Y221699D02*
X175822D01*
X174021Y231599D02*
X175821D01*
X134539Y115499D02*
X169242D01*
X135932Y121799D02*
X168850D01*
X161720Y225299D02*
X168123D01*
X161855Y227999D02*
X167988D01*
X161912Y235199D02*
X167931D01*
X162031Y218099D02*
X167811D01*
X134931Y116399D02*
X167566D01*
X135913Y120899D02*
X167467D01*
X135253Y117299D02*
X166933D01*
X162931Y224399D02*
X166912D01*
X135837Y119999D02*
X166886D01*
X162993Y228899D02*
X166849D01*
X163020Y234299D02*
X166822D01*
X163079Y218999D02*
X166764D01*
X135509Y118199D02*
X166655D01*
X135703Y119099D02*
X166641D01*
X163563Y223499D02*
X166280D01*
X163597Y229799D02*
X166245D01*
X163613Y233399D02*
X166230D01*
X163645Y219899D02*
X166197D01*
X163901Y222599D02*
X165941D01*
X163918Y230699D02*
X165925D01*
X163925Y232499D02*
X165918D01*
X163939Y220799D02*
X165903D01*
X164020Y221699D02*
X165822D01*
X164021Y231599D02*
X165821D01*
X151720Y225299D02*
X158123D01*
X151855Y227999D02*
X157988D01*
X151912Y235199D02*
X157931D01*
X152031Y218099D02*
X157811D01*
X152931Y224399D02*
X156912D01*
X152993Y228899D02*
X156849D01*
X153020Y234299D02*
X156822D01*
X153079Y218999D02*
X156764D01*
X153563Y223499D02*
X156280D01*
X153597Y229799D02*
X156245D01*
X153613Y233399D02*
X156230D01*
X153645Y219899D02*
X156197D01*
X153901Y222599D02*
X155941D01*
X153918Y230699D02*
X155925D01*
X153925Y232499D02*
X155918D01*
X153939Y220799D02*
X155903D01*
X154020Y221699D02*
X155822D01*
X154021Y231599D02*
X155821D01*
X101100Y194699D02*
X150371D01*
X130091Y188399D02*
X150274D01*
X101100Y193799D02*
X148827D01*
X129608Y189299D02*
X148802D01*
X101100Y192899D02*
X148214D01*
X128554Y190199D02*
X148202D01*
X141720Y225299D02*
X148123D01*
X141855Y227999D02*
X147988D01*
X101100Y191999D02*
X147949D01*
X101100Y191099D02*
X147945D01*
X141912Y235199D02*
X147931D01*
X142031Y218099D02*
X147811D01*
X142931Y224399D02*
X146912D01*
X142993Y228899D02*
X146849D01*
X143020Y234299D02*
X146822D01*
X143079Y218999D02*
X146764D01*
X143563Y223499D02*
X146280D01*
X143597Y229799D02*
X146245D01*
X143613Y233399D02*
X146230D01*
X143645Y219899D02*
X146197D01*
X143901Y222599D02*
X145941D01*
X143918Y230699D02*
X145925D01*
X143925Y232499D02*
X145918D01*
X143939Y220799D02*
X145903D01*
X144020Y221699D02*
X145822D01*
X144021Y231599D02*
X145821D01*
X101100Y177599D02*
X142604D01*
X101100Y172199D02*
X142322D01*
X101100Y176699D02*
X141632D01*
X101100Y173099D02*
X141506D01*
X101100Y175799D02*
X141181D01*
X101100Y173999D02*
X141127D01*
X101100Y174899D02*
X141027D01*
X131720Y225299D02*
X138123D01*
X131855Y227999D02*
X137988D01*
X131912Y235199D02*
X137931D01*
X132031Y218099D02*
X137811D01*
X132931Y224399D02*
X136912D01*
X132993Y228899D02*
X136849D01*
X133020Y234299D02*
X136822D01*
X133079Y218999D02*
X136764D01*
X133563Y223499D02*
X136280D01*
X133597Y229799D02*
X136245D01*
X133613Y233399D02*
X136230D01*
X133645Y219899D02*
X136197D01*
X133901Y222599D02*
X135941D01*
X133918Y230699D02*
X135925D01*
X133925Y232499D02*
X135918D01*
X133939Y220799D02*
X135903D01*
X134020Y221699D02*
X135822D01*
X134021Y231599D02*
X135821D01*
X114653Y159599D02*
X128732D01*
X114957Y164099D02*
X128429D01*
X121720Y225299D02*
X128123D01*
X121855Y227999D02*
X127988D01*
X121912Y235199D02*
X127931D01*
X115499Y160499D02*
X127887D01*
X122031Y218099D02*
X127811D01*
X115626Y163199D02*
X127760D01*
X115846Y161399D02*
X127540D01*
X115884Y162299D02*
X127502D01*
X122931Y224399D02*
X126912D01*
X122993Y228899D02*
X126849D01*
X123020Y234299D02*
X126822D01*
X123079Y218999D02*
X126764D01*
X123563Y223499D02*
X126280D01*
X123597Y229799D02*
X126245D01*
X123613Y233399D02*
X126230D01*
X123645Y219899D02*
X126197D01*
X123901Y222599D02*
X125941D01*
X123918Y230699D02*
X125925D01*
X123925Y232499D02*
X125918D01*
X123939Y220799D02*
X125903D01*
X124020Y221699D02*
X125822D01*
X124021Y231599D02*
X125821D01*
X117405Y190199D02*
X125461D01*
X117810Y184799D02*
X124936D01*
X118417Y189299D02*
X124408D01*
X118597Y185699D02*
X124175D01*
X118884Y188399D02*
X123925D01*
X118962Y186599D02*
X123824D01*
X119050Y187499D02*
X123747D01*
X101100Y107399D02*
X120814D01*
X111720Y225299D02*
X118123D01*
X111855Y227999D02*
X117988D01*
X111912Y235199D02*
X117931D01*
X112031Y218099D02*
X117811D01*
X101100Y135299D02*
X117445D01*
X112931Y224399D02*
X116912D01*
X112993Y228899D02*
X116849D01*
X113020Y234299D02*
X116822D01*
X113079Y218999D02*
X116764D01*
X101100Y108299D02*
X116598D01*
X113563Y223499D02*
X116280D01*
X113597Y229799D02*
X116245D01*
X113613Y233399D02*
X116230D01*
X113645Y219899D02*
X116197D01*
X113901Y222599D02*
X115941D01*
X113918Y230699D02*
X115925D01*
X113925Y232499D02*
X115918D01*
X113939Y220799D02*
X115903D01*
X114020Y221699D02*
X115822D01*
X114021Y231599D02*
X115821D01*
X101100Y134399D02*
X115214D01*
X101100Y109199D02*
X114669D01*
X101100Y190199D02*
X114170D01*
X101100Y184799D02*
X113765D01*
X101100Y133499D02*
X113679D01*
X101100Y110099D02*
X113264D01*
X101100Y189299D02*
X113158D01*
X101100Y185699D02*
X112978D01*
X101100Y188399D02*
X112691D01*
X101100Y186599D02*
X112613D01*
X101100Y187499D02*
X112525D01*
X101100Y132599D02*
X112482D01*
X101100Y110999D02*
X112147D01*
X101100Y131699D02*
X111505D01*
X101100Y159599D02*
X111410D01*
X101100Y111899D02*
X111225D01*
X101100Y164099D02*
X111106D01*
X101100Y130799D02*
X110687D01*
X101100Y160499D02*
X110564D01*
X101100Y112799D02*
X110451D01*
X101100Y163199D02*
X110437D01*
X101100Y161399D02*
X110217D01*
X101100Y162299D02*
X110179D01*
X101100Y129899D02*
X109995D01*
X101100Y113699D02*
X109795D01*
X101100Y128999D02*
X109408D01*
X101100Y114599D02*
X109238D01*
X101100Y128099D02*
X108911D01*
X101100Y115499D02*
X108769D01*
X101100Y127199D02*
X108495D01*
X101100Y116399D02*
X108376D01*
X101100Y126299D02*
X108151D01*
X101100Y225299D02*
X108123D01*
X101100Y117299D02*
X108054D01*
X101100Y227999D02*
X107988D01*
X101100Y235199D02*
X107931D01*
X101100Y125399D02*
X107874D01*
X101100Y218099D02*
X107811D01*
X101100Y118199D02*
X107798D01*
X101100Y124499D02*
X107660D01*
X101100Y119099D02*
X107604D01*
X101100Y123599D02*
X107507D01*
X101100Y119999D02*
X107470D01*
X101100Y122699D02*
X107412D01*
X101100Y120899D02*
X107394D01*
X101100Y121799D02*
X107375D01*
X101100Y224399D02*
X106912D01*
X101100Y228899D02*
X106849D01*
X101100Y234299D02*
X106822D01*
X101100Y218999D02*
X106764D01*
X101100Y223499D02*
X106280D01*
X101100Y229799D02*
X106245D01*
X101100Y233399D02*
X106230D01*
X101100Y219899D02*
X106197D01*
X101100Y222599D02*
X105941D01*
X101100Y230699D02*
X105925D01*
X101100Y232499D02*
X105918D01*
X101100Y220799D02*
X105903D01*
X101100Y221699D02*
X105822D01*
X101100Y231599D02*
X105821D01*
X101100Y333636D02*
X284539D01*
X101100Y332736D02*
X284539D01*
X276955Y331836D02*
X284539D01*
X278220Y330936D02*
X284539D01*
X278710Y330036D02*
X284539D01*
X278856Y329136D02*
X284539D01*
X278712Y328236D02*
X284539D01*
X278224Y327336D02*
X284539D01*
X276969Y326436D02*
X284539D01*
X248127Y325536D02*
X284539D01*
X248092Y324636D02*
X284539D01*
X247748Y323736D02*
X284539D01*
X246911Y322836D02*
X284539D01*
X222791Y321936D02*
X284539D01*
X224022Y321036D02*
X284539D01*
X224504Y320136D02*
X284539D01*
X224643Y319236D02*
X284539D01*
X224493Y318336D02*
X284539D01*
X223997Y317436D02*
X284539D01*
X222706Y316536D02*
X284539D01*
X220781Y315636D02*
X284539D01*
X220212Y314736D02*
X284539D01*
X218406Y313836D02*
X284539D01*
X229270Y312936D02*
X284539D01*
X230063Y312036D02*
X284539D01*
X230386Y311136D02*
X284539D01*
X230404Y310236D02*
X284539D01*
X277106Y309336D02*
X284539D01*
X278266Y308436D02*
X284539D01*
X278729Y307536D02*
X284539D01*
X278855Y306636D02*
X284539D01*
X278692Y305736D02*
X284539D01*
X278175Y304836D02*
X284539D01*
X276790Y303936D02*
X284539D01*
X234375Y303036D02*
X284539D01*
X209910Y302136D02*
X284539D01*
X225659Y301236D02*
X284539D01*
X226265Y300336D02*
X284539D01*
X226485Y299436D02*
X284539D01*
X226413Y298536D02*
X284539D01*
X232701Y297636D02*
X284539D01*
X153679Y334536D02*
X284048D01*
X154361Y335436D02*
X283148D01*
X154668Y336336D02*
X282248D01*
X154708Y337236D02*
X281348D01*
X163848Y338136D02*
X280448D01*
X164914Y339036D02*
X279548D01*
X165402Y339936D02*
X278648D01*
X165583Y340836D02*
X277748D01*
X165509Y341736D02*
X276848D01*
X165162Y342636D02*
X275948D01*
X270490Y303936D02*
X275179D01*
X164408Y343536D02*
X275048D01*
X101100Y331836D02*
X275014D01*
X247866Y326436D02*
X274999D01*
X270807Y309336D02*
X274863D01*
X101100Y344436D02*
X274148D01*
X271876Y304836D02*
X273793D01*
X101100Y330936D02*
X273749D01*
X247191Y327336D02*
X273745D01*
X271967Y308436D02*
X273702D01*
X272393Y305736D02*
X273277D01*
X101100Y330036D02*
X273258D01*
X101100Y328236D02*
X273256D01*
X101100Y345336D02*
X273248D01*
X272430Y307536D02*
X273239D01*
X272556Y306636D02*
X273113D01*
X101100Y329136D02*
X273113D01*
X101100Y346236D02*
X272348D01*
X101100Y347136D02*
X271448D01*
X101100Y348036D02*
X270548D01*
X101100Y348936D02*
X269648D01*
X236342Y303936D02*
X268880D01*
X101100Y492036D02*
X268791D01*
X101100Y491136D02*
X268791D01*
X101100Y490236D02*
X268791D01*
X101100Y489336D02*
X268791D01*
X236463Y488436D02*
X268791D01*
X237868Y487536D02*
X268791D01*
X265773Y486636D02*
X268791D01*
X266631Y485736D02*
X268791D01*
X266985Y484836D02*
X268791D01*
X267028Y483936D02*
X268791D01*
X266775Y483036D02*
X268791D01*
X266115Y482136D02*
X268791D01*
X237335Y481236D02*
X268791D01*
X133281Y480336D02*
X268791D01*
X133873Y479436D02*
X268791D01*
X236168Y478536D02*
X268791D01*
X237762Y477636D02*
X268791D01*
X238503Y476736D02*
X268791D01*
X238911Y475836D02*
X268791D01*
X239087Y474936D02*
X268791D01*
X239060Y474036D02*
X268791D01*
X238828Y473136D02*
X268791D01*
X238346Y472236D02*
X268791D01*
X237474Y471336D02*
X268791D01*
X135842Y470436D02*
X268791D01*
X135711Y469536D02*
X268791D01*
X135520Y468636D02*
X268791D01*
X135267Y467736D02*
X268791D01*
X134948Y466836D02*
X268791D01*
X134560Y465936D02*
X268791D01*
X134094Y465036D02*
X268791D01*
X133542Y464136D02*
X268791D01*
X132891Y463236D02*
X268791D01*
X250243Y462336D02*
X268791D01*
X251208Y461436D02*
X268791D01*
X251605Y460536D02*
X268791D01*
X251683Y459636D02*
X268791D01*
X251469Y458736D02*
X268791D01*
X250874Y457836D02*
X268791D01*
X221804Y456936D02*
X268791D01*
X221713Y456036D02*
X268791D01*
X236645Y455136D02*
X268791D01*
X237500Y454236D02*
X268791D01*
X237852Y453336D02*
X268791D01*
X237893Y452436D02*
X268791D01*
X237639Y451536D02*
X268791D01*
X236977Y450636D02*
X268791D01*
X215551Y449736D02*
X268791D01*
X101100Y448836D02*
X268791D01*
X101100Y447936D02*
X268791D01*
X101100Y447036D02*
X268791D01*
X101100Y446136D02*
X268791D01*
X209198Y445236D02*
X268791D01*
X210492Y444336D02*
X268791D01*
X210989Y443436D02*
X268791D01*
X211139Y442536D02*
X268791D01*
X211000Y441636D02*
X268791D01*
X210519Y440736D02*
X268791D01*
X209291Y439836D02*
X268791D01*
X179249Y438936D02*
X268791D01*
X223488Y438036D02*
X268791D01*
X224209Y437136D02*
X268791D01*
X224496Y436236D02*
X268791D01*
X224483Y435336D02*
X268791D01*
X224166Y434436D02*
X268791D01*
X223386Y433536D02*
X268791D01*
X207080Y432636D02*
X268791D01*
X206882Y431736D02*
X268791D01*
X206313Y430836D02*
X268791D01*
X204484Y429936D02*
X268791D01*
X177984Y429036D02*
X268791D01*
X219625Y428136D02*
X268791D01*
X220259Y427236D02*
X268791D01*
X220496Y426336D02*
X268791D01*
X220440Y425436D02*
X268791D01*
X220070Y424536D02*
X268791D01*
X222974Y423636D02*
X268791D01*
X224299Y422736D02*
X268791D01*
X224803Y421836D02*
X268791D01*
X224958Y420936D02*
X268791D01*
X224824Y420036D02*
X268791D01*
X224349Y419136D02*
X268791D01*
X223146Y418236D02*
X268791D01*
X223756Y417336D02*
X268791D01*
X224573Y416436D02*
X268791D01*
X224908Y415536D02*
X268791D01*
X224935Y414636D02*
X268791D01*
X224665Y413736D02*
X268791D01*
X223975Y412836D02*
X268791D01*
X193519Y411936D02*
X268791D01*
X224273Y411036D02*
X268791D01*
X224973Y410136D02*
X268791D01*
X225248Y409236D02*
X268791D01*
X225225Y408336D02*
X268791D01*
X224897Y407436D02*
X268791D01*
X224091Y406536D02*
X268791D01*
X223877Y405636D02*
X268791D01*
X224834Y404736D02*
X268791D01*
X225229Y403836D02*
X268791D01*
X225305Y402936D02*
X268791D01*
X225088Y402036D02*
X268791D01*
X224489Y401136D02*
X268791D01*
X219765Y400236D02*
X268791D01*
X220319Y399336D02*
X268791D01*
X220507Y398436D02*
X268791D01*
X220404Y397536D02*
X268791D01*
X219974Y396636D02*
X268791D01*
X218918Y395736D02*
X268791D01*
X217949Y394836D02*
X268791D01*
X217829Y393936D02*
X268791D01*
X217373Y393036D02*
X268791D01*
X216238Y392136D02*
X268791D01*
X215387Y391236D02*
X268791D01*
X215462Y390336D02*
X268791D01*
X215245Y389436D02*
X268791D01*
X214645Y388536D02*
X268791D01*
X209722Y387636D02*
X268791D01*
X101100Y386736D02*
X268791D01*
X101100Y385836D02*
X268791D01*
X101100Y384936D02*
X268791D01*
X101100Y384036D02*
X268791D01*
X101100Y383136D02*
X268791D01*
X101100Y382236D02*
X268791D01*
X101100Y381336D02*
X268791D01*
X101100Y380436D02*
X268791D01*
X101100Y379536D02*
X268791D01*
X101100Y378636D02*
X268791D01*
X101100Y377736D02*
X268791D01*
X101100Y376836D02*
X268791D01*
X101100Y375936D02*
X268791D01*
X206401Y375036D02*
X268791D01*
X207237Y374136D02*
X268791D01*
X207580Y373236D02*
X268791D01*
X207615Y372336D02*
X268791D01*
X207354Y371436D02*
X268791D01*
X206678Y370536D02*
X268791D01*
X193791Y369636D02*
X268791D01*
X193935Y368736D02*
X268791D01*
X193789Y367836D02*
X268791D01*
X193298Y366936D02*
X268791D01*
X192031Y366036D02*
X268791D01*
X101100Y365136D02*
X268791D01*
X101100Y364236D02*
X268791D01*
X101100Y363336D02*
X268791D01*
X101100Y362436D02*
X268791D01*
X101100Y361536D02*
X268791D01*
X210352Y360636D02*
X268791D01*
X210931Y359736D02*
X268791D01*
X211134Y358836D02*
X268791D01*
X211046Y357936D02*
X268791D01*
X210635Y357036D02*
X268791D01*
X209636Y356136D02*
X268791D01*
X101100Y355236D02*
X268791D01*
X101100Y354336D02*
X268791D01*
X101100Y353436D02*
X268791D01*
X101100Y352536D02*
X268791D01*
X101100Y351636D02*
X268791D01*
X101100Y350736D02*
X268791D01*
X101100Y349836D02*
X268791D01*
X230123Y309336D02*
X268563D01*
X236917Y304836D02*
X267494D01*
X235609Y308436D02*
X267403D01*
X237119Y305736D02*
X266977D01*
X236616Y307536D02*
X266940D01*
X237029Y306636D02*
X266814D01*
X254356Y486636D02*
X262573D01*
X254698Y482136D02*
X262231D01*
X255214Y485736D02*
X261715D01*
X255358Y483036D02*
X261571D01*
X255567Y484836D02*
X261362D01*
X255610Y483936D02*
X261319D01*
X238562Y486636D02*
X251156D01*
X238273Y482136D02*
X250814D01*
X238941Y485736D02*
X250298D01*
X238788Y483036D02*
X250154D01*
X239094Y484836D02*
X249944D01*
X239045Y483936D02*
X249902D01*
X132123Y462336D02*
X247395D01*
X221604Y457836D02*
X246764D01*
X131210Y461436D02*
X246430D01*
X221031Y458736D02*
X246169D01*
X130104Y460536D02*
X246032D01*
X219135Y459636D02*
X245955D01*
X229353Y322836D02*
X243640D01*
X229334Y327336D02*
X243360D01*
X230098Y323736D02*
X242803D01*
X230089Y326436D02*
X242685D01*
X230396Y324636D02*
X242459D01*
X230394Y325536D02*
X242424D01*
X209613Y303036D02*
X234129D01*
X226168Y478536D02*
X233832D01*
X226463Y488436D02*
X233537D01*
X226409Y455136D02*
X233433D01*
X226741Y450636D02*
X233102D01*
X229413Y308436D02*
X232895D01*
X227335Y481236D02*
X232665D01*
X227264Y454236D02*
X232579D01*
X227474Y471336D02*
X232526D01*
X227403Y451536D02*
X232439D01*
X227762Y477636D02*
X232238D01*
X227616Y453336D02*
X232227D01*
X227657Y452436D02*
X232186D01*
X208948Y303936D02*
X232162D01*
X227868Y487536D02*
X232132D01*
X214600Y307536D02*
X231888D01*
X228273Y482136D02*
X231727D01*
X228346Y472236D02*
X231654D01*
X206848Y304836D02*
X231587D01*
X228503Y476736D02*
X231497D01*
X214246Y306636D02*
X231475D01*
X228562Y486636D02*
X231438D01*
X213480Y305736D02*
X231385D01*
X228788Y483036D02*
X231212D01*
X228828Y473136D02*
X231172D01*
X228911Y475836D02*
X231089D01*
X226023Y297636D02*
X231078D01*
X228941Y485736D02*
X231059D01*
X229045Y483936D02*
X230955D01*
X229060Y474036D02*
X230940D01*
X229087Y474936D02*
X230913D01*
X229094Y484836D02*
X230906D01*
X214247Y312936D02*
X225848D01*
X101100Y327336D02*
X225784D01*
X101100Y322836D02*
X225765D01*
X214678Y308436D02*
X225706D01*
X213481Y312036D02*
X225055D01*
X101100Y326436D02*
X225029D01*
X101100Y323736D02*
X225020D01*
X214503Y309336D02*
X224995D01*
X212977Y311136D02*
X224732D01*
X101100Y325536D02*
X224724D01*
X101100Y324636D02*
X224722D01*
X214022Y310236D02*
X224714D01*
X216168Y478536D02*
X223832D01*
X216463Y488436D02*
X223537D01*
X221298Y455136D02*
X223197D01*
X217412Y450636D02*
X222865D01*
X217335Y481236D02*
X222665D01*
X217474Y471336D02*
X222526D01*
X220286Y454236D02*
X222343D01*
X217762Y477636D02*
X222238D01*
X217983Y451536D02*
X222203D01*
X217868Y487536D02*
X222132D01*
X218090Y453336D02*
X221991D01*
X218182Y452436D02*
X221949D01*
X218273Y482136D02*
X221727D01*
X218346Y472236D02*
X221654D01*
X209941Y301236D02*
X221585D01*
X218503Y476736D02*
X221497D01*
X218562Y486636D02*
X221438D01*
X101100Y297636D02*
X221222D01*
X218788Y483036D02*
X221212D01*
X219174Y423636D02*
X221199D01*
X218828Y473136D02*
X221172D01*
X218911Y475836D02*
X221089D01*
X218941Y485736D02*
X221059D01*
X202381Y418236D02*
X221027D01*
X101100Y405636D02*
X221005D01*
X209714Y300336D02*
X220979D01*
X219045Y483936D02*
X220955D01*
X219060Y474036D02*
X220940D01*
X219087Y474936D02*
X220913D01*
X219094Y484836D02*
X220906D01*
X207889Y298536D02*
X220831D01*
X209161Y299436D02*
X220759D01*
X101100Y321936D02*
X220752D01*
X214546Y406536D02*
X220712D01*
X215032Y411036D02*
X220530D01*
X201402Y417336D02*
X220417D01*
X218129Y401136D02*
X220393D01*
X193874Y412836D02*
X220198D01*
X205885Y404736D02*
X220048D01*
X206987Y433536D02*
X219921D01*
X215455Y407436D02*
X219907D01*
X214122Y422736D02*
X219874D01*
X215658Y410136D02*
X219830D01*
X202784Y419136D02*
X219825D01*
X179091Y438036D02*
X219820D01*
X207475Y402036D02*
X219794D01*
X206942Y403836D02*
X219653D01*
X101100Y416436D02*
X219600D01*
X215831Y408336D02*
X219578D01*
X207373Y402936D02*
X219577D01*
X215891Y409236D02*
X219555D01*
X101100Y321036D02*
X219522D01*
X193918Y413736D02*
X219508D01*
X213602Y421836D02*
X219370D01*
X202865Y420036D02*
X219350D01*
X193010Y415536D02*
X219265D01*
X193667Y414636D02*
X219238D01*
X212195Y420936D02*
X219215D01*
X206569Y434436D02*
X219141D01*
X178583Y437136D02*
X219098D01*
X101100Y320136D02*
X219040D01*
X205550Y435336D02*
X218824D01*
X191586Y436236D02*
X218811D01*
X128716Y459636D02*
X218739D01*
X214600Y313836D02*
X217815D01*
X207287Y401136D02*
X217147D01*
X126824Y458736D02*
X216843D01*
X101100Y319236D02*
X216777D01*
X123053Y457836D02*
X216270D01*
X101100Y456036D02*
X216161D01*
X214288Y423636D02*
X216102D01*
X101100Y456936D02*
X216070D01*
X214678Y314736D02*
X216008D01*
X101100Y318336D02*
X215755D01*
X178061Y428136D02*
X215651D01*
X206734Y400236D02*
X215511D01*
X214503Y315636D02*
X215440D01*
X212976Y317436D02*
X215336D01*
X214022Y316536D02*
X215243D01*
X214165Y424536D02*
X215205D01*
X166123Y449736D02*
X215079D01*
X177845Y427236D02*
X215017D01*
X205100Y399336D02*
X214957D01*
X213705Y425436D02*
X214835D01*
X212557Y426336D02*
X214779D01*
X185187Y398436D02*
X214769D01*
X186915Y397536D02*
X214331D01*
X206330Y455136D02*
X213972D01*
X206168Y478536D02*
X213832D01*
X206463Y488436D02*
X213537D01*
X206662Y450636D02*
X213218D01*
X207185Y454236D02*
X212956D01*
X187478Y396636D02*
X212902D01*
X207335Y481236D02*
X212665D01*
X207324Y451536D02*
X212647D01*
X207537Y453336D02*
X212540D01*
X207474Y471336D02*
X212526D01*
X207578Y452436D02*
X212448D01*
X187671Y395736D02*
X212377D01*
X187151Y393936D02*
X212329D01*
X207762Y477636D02*
X212238D01*
X187574Y394836D02*
X212208D01*
X207868Y487536D02*
X212132D01*
X208273Y482136D02*
X211727D01*
X208346Y472236D02*
X211654D01*
X167915Y406536D02*
X211517D01*
X208503Y476736D02*
X211497D01*
X208562Y486636D02*
X211438D01*
X208788Y483036D02*
X211212D01*
X208828Y473136D02*
X211172D01*
X204404Y393036D02*
X211160D01*
X208911Y475836D02*
X211089D01*
X208941Y485736D02*
X211059D01*
X192657Y411036D02*
X211031D01*
X209045Y483936D02*
X210955D01*
X209060Y474036D02*
X210940D01*
X209087Y474936D02*
X210913D01*
X209094Y484836D02*
X210906D01*
X202655Y420936D02*
X210639D01*
X168907Y407436D02*
X210608D01*
X169196Y410136D02*
X210405D01*
X177248Y426336D02*
X210277D01*
X169316Y408336D02*
X210232D01*
X210111Y392136D02*
X210204D01*
X169401Y409236D02*
X210172D01*
X186598Y317436D02*
X209859D01*
X186599Y311136D02*
X209858D01*
X187102Y305736D02*
X209354D01*
X187103Y312036D02*
X209353D01*
X202067Y421836D02*
X209233D01*
X101100Y425436D02*
X209130D01*
X187644Y316536D02*
X208813D01*
X187644Y310236D02*
X208812D01*
X101100Y422736D02*
X208712D01*
X101100Y424536D02*
X208670D01*
X187868Y306636D02*
X208589D01*
X187869Y312936D02*
X208588D01*
X101100Y423636D02*
X208546D01*
X188125Y315636D02*
X208332D01*
X188125Y309336D02*
X208332D01*
X188222Y307536D02*
X208235D01*
X188222Y313836D02*
X208235D01*
X188300Y314736D02*
X208156D01*
X188300Y308436D02*
X208156D01*
X101100Y445236D02*
X207337D01*
X179118Y439836D02*
X207245D01*
X101100Y356136D02*
X206900D01*
X205277Y387636D02*
X206577D01*
X101100Y304836D02*
X206538D01*
X206094Y392136D02*
X206188D01*
X101100Y360636D02*
X206183D01*
X101100Y444336D02*
X206044D01*
X178647Y440736D02*
X206017D01*
X101100Y357036D02*
X205900D01*
X101100Y359736D02*
X205605D01*
X101100Y443436D02*
X205546D01*
X177460Y441636D02*
X205535D01*
X192073Y298536D02*
X205497D01*
X101100Y357936D02*
X205489D01*
X101100Y358836D02*
X205401D01*
X101100Y442536D02*
X205396D01*
X191910Y303936D02*
X204438D01*
X192918Y299436D02*
X204225D01*
X183536Y399336D02*
X204112D01*
X177588Y429936D02*
X203941D01*
X196168Y478536D02*
X203832D01*
X192845Y303036D02*
X203773D01*
X193312Y300336D02*
X203671D01*
X194409Y393036D02*
X203549D01*
X196463Y488436D02*
X203537D01*
X193280Y302136D02*
X203476D01*
X193422Y301236D02*
X203445D01*
X101100Y404736D02*
X203327D01*
X101100Y375036D02*
X203127D01*
X196882Y455136D02*
X203118D01*
X192647Y435336D02*
X202875D01*
X193303Y370536D02*
X202850D01*
X197213Y450636D02*
X202787D01*
X101100Y387636D02*
X202676D01*
X197335Y481236D02*
X202665D01*
X197474Y471336D02*
X202526D01*
X183337Y400236D02*
X202479D01*
X101100Y374136D02*
X202291D01*
X101100Y403836D02*
X202271D01*
X197736Y454236D02*
X202264D01*
X197762Y477636D02*
X202238D01*
X192051Y371436D02*
X202174D01*
X197868Y487536D02*
X202132D01*
X197875Y451536D02*
X202125D01*
X190831Y430836D02*
X202113D01*
X101100Y373236D02*
X201947D01*
X182765Y401136D02*
X201925D01*
X101100Y372336D02*
X201912D01*
X198088Y453336D02*
X201912D01*
X198129Y452436D02*
X201871D01*
X194986Y392136D02*
X201859D01*
X193080Y434436D02*
X201856D01*
X101100Y402936D02*
X201840D01*
X180889Y402036D02*
X201738D01*
X198273Y482136D02*
X201727D01*
X198346Y472236D02*
X201654D01*
X193688Y388536D02*
X201633D01*
X192446Y431736D02*
X201543D01*
X198503Y476736D02*
X201497D01*
X193184Y433536D02*
X201438D01*
X198562Y486636D02*
X201438D01*
X192998Y432636D02*
X201345D01*
X195189Y391236D02*
X201299D01*
X198788Y483036D02*
X201212D01*
X194689Y389436D02*
X201207D01*
X198828Y473136D02*
X201172D01*
X195101Y390336D02*
X201108D01*
X198911Y475836D02*
X201089D01*
X198941Y485736D02*
X201059D01*
X199045Y483936D02*
X200955D01*
X199060Y474036D02*
X200940D01*
X199087Y474936D02*
X200913D01*
X199094Y484836D02*
X200906D01*
X101100Y417336D02*
X198598D01*
X101100Y421836D02*
X197933D01*
X101100Y418236D02*
X197619D01*
X101100Y420936D02*
X197345D01*
X101100Y419136D02*
X197216D01*
X101100Y420036D02*
X197135D01*
X101100Y296736D02*
X195636D01*
X101100Y295836D02*
X194736D01*
X101100Y294936D02*
X193836D01*
X186168Y478536D02*
X193832D01*
X187039Y455136D02*
X193670D01*
X186463Y488436D02*
X193537D01*
X187371Y450636D02*
X193338D01*
X101100Y294036D02*
X192936D01*
X187894Y454236D02*
X192815D01*
X188033Y451536D02*
X192676D01*
X187335Y481236D02*
X192665D01*
X187474Y471336D02*
X192526D01*
X188245Y453336D02*
X192463D01*
X188287Y452436D02*
X192422D01*
X187762Y477636D02*
X192238D01*
X187868Y487536D02*
X192132D01*
X101100Y293136D02*
X192036D01*
X188273Y482136D02*
X191727D01*
X188346Y472236D02*
X191654D01*
X188503Y476736D02*
X191497D01*
X188562Y486636D02*
X191438D01*
X188788Y483036D02*
X191212D01*
X188828Y473136D02*
X191172D01*
X101100Y292236D02*
X191136D01*
X188911Y475836D02*
X191089D01*
X188941Y485736D02*
X191059D01*
X101100Y388536D02*
X190958D01*
X189045Y483936D02*
X190955D01*
X189060Y474036D02*
X190940D01*
X189087Y474936D02*
X190913D01*
X189094Y484836D02*
X190906D01*
X186116Y393036D02*
X190237D01*
X101100Y291336D02*
X190236D01*
X101100Y366036D02*
X190095D01*
X101100Y371436D02*
X190075D01*
X101100Y389436D02*
X189956D01*
X176627Y430836D02*
X189799D01*
X101100Y392136D02*
X189659D01*
X101100Y390336D02*
X189545D01*
X168614Y411036D02*
X189469D01*
X101100Y391236D02*
X189456D01*
X101100Y290436D02*
X189336D01*
X101100Y415536D02*
X189116D01*
X177238Y436236D02*
X189044D01*
X101100Y366936D02*
X188828D01*
X101100Y370536D02*
X188823D01*
X101100Y411936D02*
X188607D01*
X101100Y414636D02*
X188459D01*
X101100Y289536D02*
X188436D01*
X101100Y303936D02*
X188405D01*
X101100Y367836D02*
X188337D01*
X101100Y369636D02*
X188335D01*
X101100Y412836D02*
X188252D01*
X101100Y298536D02*
X188242D01*
X101100Y413736D02*
X188208D01*
X101100Y368736D02*
X188191D01*
X101100Y431736D02*
X188184D01*
X101100Y435336D02*
X187982D01*
X101100Y432636D02*
X187632D01*
X101100Y434436D02*
X187550D01*
X147418Y288636D02*
X187536D01*
X101100Y303036D02*
X187470D01*
X101100Y433536D02*
X187446D01*
X101100Y299436D02*
X187397D01*
X101100Y302136D02*
X187035D01*
X101100Y300336D02*
X187003D01*
X101100Y301236D02*
X186893D01*
X148662Y287736D02*
X186636D01*
X149147Y286836D02*
X185736D01*
X149289Y285936D02*
X184836D01*
X183445Y398436D02*
X184419D01*
X149142Y285036D02*
X183936D01*
X176168Y478536D02*
X183832D01*
X176409Y455136D02*
X183827D01*
X176463Y488436D02*
X183537D01*
X176741Y450636D02*
X183495D01*
X101100Y393036D02*
X183490D01*
X101100Y317436D02*
X183481D01*
X101100Y311136D02*
X183480D01*
X148648Y284136D02*
X183036D01*
X101100Y305736D02*
X182976D01*
X101100Y312036D02*
X182976D01*
X177264Y454236D02*
X182973D01*
X177403Y451536D02*
X182833D01*
X177335Y481236D02*
X182665D01*
X177616Y453336D02*
X182621D01*
X177657Y452436D02*
X182579D01*
X177474Y471336D02*
X182526D01*
X101100Y393936D02*
X182456D01*
X101100Y316536D02*
X182435D01*
X101100Y310236D02*
X182434D01*
X177762Y477636D02*
X182238D01*
X101100Y306636D02*
X182211D01*
X101100Y312936D02*
X182210D01*
X147372Y283236D02*
X182136D01*
X177868Y487536D02*
X182132D01*
X182015Y396636D02*
X182129D01*
X101100Y394836D02*
X182032D01*
X101100Y315636D02*
X181954D01*
X101100Y309336D02*
X181954D01*
X101100Y395736D02*
X181935D01*
X101100Y307536D02*
X181857D01*
X101100Y313836D02*
X181857D01*
X101100Y314736D02*
X181778D01*
X101100Y308436D02*
X181778D01*
X178273Y482136D02*
X181727D01*
X178346Y472236D02*
X181654D01*
X178503Y476736D02*
X181497D01*
X178562Y486636D02*
X181438D01*
X101100Y282336D02*
X181236D01*
X178788Y483036D02*
X181212D01*
X178828Y473136D02*
X181172D01*
X178911Y475836D02*
X181089D01*
X178941Y485736D02*
X181059D01*
X179045Y483936D02*
X180955D01*
X179060Y474036D02*
X180940D01*
X179087Y474936D02*
X180913D01*
X179094Y484836D02*
X180906D01*
X101100Y402036D02*
X180450D01*
X101100Y281436D02*
X180336D01*
X101100Y280536D02*
X179436D01*
X101100Y396636D02*
X179323D01*
X101100Y401136D02*
X178574D01*
X101100Y279636D02*
X178536D01*
X101100Y397536D02*
X178310D01*
X101100Y400236D02*
X178002D01*
X101100Y398436D02*
X177894D01*
X101100Y399336D02*
X177802D01*
X101100Y278736D02*
X177636D01*
X101100Y277836D02*
X176736D01*
X101100Y276936D02*
X175836D01*
X101100Y436236D02*
X175518D01*
X101100Y441636D02*
X175296D01*
X101100Y276036D02*
X174936D01*
X101100Y437136D02*
X174173D01*
X101100Y440736D02*
X174109D01*
X123825Y275136D02*
X174036D01*
X166168Y478536D02*
X173832D01*
X101100Y430836D02*
X173766D01*
X101100Y438036D02*
X173664D01*
X101100Y439836D02*
X173638D01*
X166463Y488436D02*
X173537D01*
X101100Y438936D02*
X173507D01*
X165702Y455136D02*
X173197D01*
X101100Y426336D02*
X173146D01*
X125076Y274236D02*
X173136D01*
X167256Y450636D02*
X172865D01*
X101100Y429936D02*
X172806D01*
X167335Y481236D02*
X172665D01*
X101100Y427236D02*
X172548D01*
X167474Y471336D02*
X172526D01*
X101100Y429036D02*
X172409D01*
X167136Y454236D02*
X172343D01*
X101100Y428136D02*
X172333D01*
X167762Y477636D02*
X172238D01*
X147921Y273336D02*
X172236D01*
X167711Y451536D02*
X172203D01*
X167868Y487536D02*
X172132D01*
X167662Y453336D02*
X171991D01*
X167831Y452436D02*
X171949D01*
X168273Y482136D02*
X171727D01*
X168346Y472236D02*
X171654D01*
X168503Y476736D02*
X171497D01*
X168562Y486636D02*
X171438D01*
X148861Y272436D02*
X171336D01*
X168788Y483036D02*
X171212D01*
X168828Y473136D02*
X171172D01*
X168911Y475836D02*
X171089D01*
X168941Y485736D02*
X171059D01*
X169045Y483936D02*
X170955D01*
X169060Y474036D02*
X170940D01*
X169087Y474936D02*
X170913D01*
X169094Y484836D02*
X170906D01*
X149249Y271536D02*
X170436D01*
X149319Y270636D02*
X169536D01*
X149097Y269736D02*
X169382D01*
X148488Y268836D02*
X169382D01*
X101100Y267936D02*
X169382D01*
X101100Y267036D02*
X169382D01*
X101100Y266136D02*
X169382D01*
X101100Y265236D02*
X169382D01*
X101100Y264336D02*
X169382D01*
X101100Y263436D02*
X169382D01*
X101100Y262536D02*
X169382D01*
X101100Y261636D02*
X169382D01*
X101100Y260736D02*
X169382D01*
X164052Y259836D02*
X169382D01*
X164766Y258936D02*
X169382D01*
X165049Y258036D02*
X169382D01*
X165032Y257136D02*
X169382D01*
X164711Y256236D02*
X169382D01*
X163922Y255336D02*
X169382D01*
X109553Y254436D02*
X169382D01*
X108974Y253536D02*
X169382D01*
X101100Y252636D02*
X169382D01*
X101100Y251736D02*
X169382D01*
X101100Y250836D02*
X169382D01*
X101100Y249936D02*
X169382D01*
X101100Y249036D02*
X169382D01*
X101100Y406536D02*
X165156D01*
X101100Y411036D02*
X164457D01*
X156330Y455136D02*
X164219D01*
X101100Y407436D02*
X164163D01*
X101100Y410136D02*
X163875D01*
X156168Y478536D02*
X163832D01*
X101100Y449736D02*
X163798D01*
X101100Y408336D02*
X163755D01*
X101100Y409236D02*
X163669D01*
X156463Y488436D02*
X163537D01*
X157185Y454236D02*
X162785D01*
X156662Y450636D02*
X162665D01*
X157335Y481236D02*
X162665D01*
X157474Y471336D02*
X162526D01*
X157537Y453336D02*
X162259D01*
X157762Y477636D02*
X162238D01*
X157324Y451536D02*
X162210D01*
X157868Y487536D02*
X162132D01*
X157578Y452436D02*
X162090D01*
X158273Y482136D02*
X161727D01*
X158346Y472236D02*
X161654D01*
X158503Y476736D02*
X161497D01*
X158562Y486636D02*
X161438D01*
X158788Y483036D02*
X161212D01*
X158828Y473136D02*
X161172D01*
X158911Y475836D02*
X161089D01*
X158941Y485736D02*
X161059D01*
X159045Y483936D02*
X160955D01*
X159060Y474036D02*
X160940D01*
X159087Y474936D02*
X160913D01*
X159094Y484836D02*
X160906D01*
X154491Y338136D02*
X160797D01*
X109756Y255336D02*
X160487D01*
X101100Y259836D02*
X160357D01*
X101100Y343536D02*
X160238D01*
X153951Y339036D02*
X159732D01*
X109668Y256236D02*
X159698D01*
X101100Y258936D02*
X159643D01*
X101100Y342636D02*
X159484D01*
X109258Y257136D02*
X159377D01*
X108258Y258036D02*
X159361D01*
X152729Y339936D02*
X159244D01*
X101100Y341736D02*
X159136D01*
X101100Y340836D02*
X159063D01*
X146168Y478536D02*
X153832D01*
X146463Y488436D02*
X153537D01*
X101100Y455136D02*
X153118D01*
X101100Y450636D02*
X152787D01*
X147335Y481236D02*
X152665D01*
X147474Y471336D02*
X152526D01*
X101100Y454236D02*
X152264D01*
X147762Y477636D02*
X152238D01*
X147868Y487536D02*
X152132D01*
X101100Y451536D02*
X152125D01*
X101100Y453336D02*
X151912D01*
X101100Y452436D02*
X151871D01*
X148273Y482136D02*
X151727D01*
X148346Y472236D02*
X151654D01*
X148503Y476736D02*
X151497D01*
X148562Y486636D02*
X151438D01*
X148788Y483036D02*
X151212D01*
X148828Y473136D02*
X151172D01*
X148911Y475836D02*
X151089D01*
X148941Y485736D02*
X151059D01*
X149045Y483936D02*
X150955D01*
X149060Y474036D02*
X150940D01*
X149087Y474936D02*
X150913D01*
X149094Y484836D02*
X150906D01*
X101100Y339936D02*
X150184D01*
X101100Y334536D02*
X149235D01*
X101100Y339036D02*
X148962D01*
X101100Y335436D02*
X148552D01*
X101100Y338136D02*
X148423D01*
X101100Y336336D02*
X148246D01*
X101100Y337236D02*
X148206D01*
X101100Y283236D02*
X145463D01*
X101100Y288636D02*
X145416D01*
X140047Y273336D02*
X144992D01*
X140614Y268836D02*
X144425D01*
X101100Y284136D02*
X144187D01*
X101100Y287736D02*
X144173D01*
X140987Y272436D02*
X144052D01*
X134373Y478536D02*
X143832D01*
X141223Y269736D02*
X143817D01*
X101100Y285036D02*
X143693D01*
X101100Y286836D02*
X143688D01*
X141375Y271536D02*
X143664D01*
X141445Y270636D02*
X143594D01*
X101100Y285936D02*
X143546D01*
X101100Y488436D02*
X143537D01*
X132583Y481236D02*
X142665D01*
X135915Y471336D02*
X142526D01*
X134794Y477636D02*
X142238D01*
X101100Y487536D02*
X142132D01*
X131759Y482136D02*
X141727D01*
X135932Y472236D02*
X141654D01*
X135141Y476736D02*
X141497D01*
X101100Y486636D02*
X141438D01*
X130772Y483036D02*
X141212D01*
X135891Y473136D02*
X141172D01*
X135421Y475836D02*
X141089D01*
X125717Y485736D02*
X141059D01*
X129562Y483936D02*
X140955D01*
X135794Y474036D02*
X140940D01*
X135638Y474936D02*
X140913D01*
X128005Y484836D02*
X140906D01*
X134264Y273336D02*
X137118D01*
X133924Y268836D02*
X136551D01*
X134924Y272436D02*
X136178D01*
X134781Y269736D02*
X135943D01*
X135177Y271536D02*
X135790D01*
X135135Y270636D02*
X135720D01*
X101100Y268836D02*
X130722D01*
X125563Y273336D02*
X130381D01*
X123800Y269736D02*
X129864D01*
X125706Y272436D02*
X129721D01*
X125069Y270636D02*
X129511D01*
X125560Y271536D02*
X129469D01*
X115926Y269736D02*
X121869D01*
X115951Y275136D02*
X121844D01*
X117195Y270636D02*
X120601D01*
X117202Y274236D02*
X120594D01*
X101100Y457836D02*
X120254D01*
X117686Y271536D02*
X120109D01*
X117689Y273336D02*
X120106D01*
X117832Y272436D02*
X119963D01*
X101100Y485736D02*
X117590D01*
X101100Y458736D02*
X116484D01*
X101100Y484836D02*
X115302D01*
X101100Y459636D02*
X114591D01*
X101100Y269736D02*
X113995D01*
X101100Y275136D02*
X113970D01*
X101100Y483936D02*
X113745D01*
X101100Y460536D02*
X113203D01*
X101100Y270636D02*
X112727D01*
X101100Y274236D02*
X112720D01*
X101100Y483036D02*
X112535D01*
X101100Y271536D02*
X112235D01*
X101100Y273336D02*
X112232D01*
X101100Y461436D02*
X112098D01*
X101100Y272436D02*
X112089D01*
X101100Y482136D02*
X111548D01*
X101100Y462336D02*
X111184D01*
X101100Y481236D02*
X110724D01*
X101100Y463236D02*
X110416D01*
X101100Y480336D02*
X110026D01*
X101100Y464136D02*
X109766D01*
X101100Y479436D02*
X109435D01*
X101100Y465036D02*
X109213D01*
X101100Y478536D02*
X108934D01*
X101100Y465936D02*
X108748D01*
X101100Y477636D02*
X108513D01*
X101100Y466836D02*
X108359D01*
X101100Y476736D02*
X108166D01*
X101100Y467736D02*
X108040D01*
X101100Y475836D02*
X107886D01*
X101100Y468636D02*
X107787D01*
X101100Y474936D02*
X107669D01*
X101100Y469536D02*
X107596D01*
X101100Y474036D02*
X107513D01*
X101100Y470436D02*
X107465D01*
X101100Y473136D02*
X107416D01*
X101100Y471336D02*
X107392D01*
X101100Y472236D02*
X107375D01*
X101100Y258036D02*
X105521D01*
X101100Y253536D02*
X104805D01*
X101100Y257136D02*
X104522D01*
X101100Y254436D02*
X104227D01*
X101100Y256236D02*
X104111D01*
X101100Y255336D02*
X104023D01*
G54D28*
X229921Y221614D03*
X219921D03*
X145000Y474606D03*
Y484606D03*
G54D50*
X151181Y191535D03*
X144291Y174803D03*
X198425Y288189D03*
X191732Y277165D03*
X248071Y242598D03*
Y234843D03*
X162323Y341024D03*
X185039Y308268D03*
Y314567D03*
X190157Y301181D03*
G54D103*
X147899Y477505D02*
X147121Y476728D01*
X142101Y477505D02*
X142879Y476728D01*
X142101Y471707D02*
X142879Y472485D01*
X147899Y471707D02*
X147121Y472485D01*
X147899Y487505D02*
X147121Y486728D01*
X142101Y487505D02*
X142879Y486728D01*
X142101Y481707D02*
X142879Y482485D01*
X147899Y481707D02*
X147121Y482485D01*
X227022Y224513D02*
X227800Y223735D01*
X232820Y224513D02*
X232043Y223735D01*
X232820Y218715D02*
X232043Y219493D01*
X227022Y218715D02*
X227800Y219493D01*
X217022Y224513D02*
X217800Y223735D01*
X222820Y224513D02*
X222043Y223735D01*
X222820Y218715D02*
X222043Y219493D01*
X217022Y218715D02*
X217800Y219493D01*
X219668Y428094D02*
X218891Y427316D01*
X215607Y428094D02*
X216385Y427316D01*
X215607Y424032D02*
X216385Y424810D01*
X219668Y424032D02*
X218891Y424810D01*
X186834Y397621D02*
X186056Y396843D01*
X182773Y393560D02*
X183550Y394338D01*
X186834Y393560D02*
X186056Y394338D01*
X213448Y425731D02*
X212670Y424954D01*
X209387Y425731D02*
X210165Y424954D01*
X209387Y421670D02*
X210165Y422448D01*
X213448Y421670D02*
X212670Y422448D01*
X187348Y310577D02*
X186571Y309799D01*
X182730Y310577D02*
X183508Y309799D01*
X182730Y305959D02*
X183508Y306737D01*
X187348Y305959D02*
X186571Y306737D01*
X187348Y316876D02*
X186571Y316098D01*
X182730Y316876D02*
X183508Y316098D01*
X182730Y312258D02*
X183508Y313036D01*
X187348Y312258D02*
X186571Y313036D01*
X220968Y458802D02*
X220190Y458024D01*
X216906Y458802D02*
X217684Y458024D01*
X220968Y454741D02*
X220190Y455519D01*
X229590Y312660D02*
X228812Y311883D01*
X225528Y312660D02*
X226306Y311883D01*
X225528Y308599D02*
X226306Y309377D01*
X229590Y308599D02*
X228812Y309377D01*
X254786Y486283D02*
X254009Y485505D01*
X250725Y486283D02*
X251503Y485505D01*
X250725Y482221D02*
X251503Y482999D01*
X254786Y482221D02*
X254009Y482999D01*
X266204Y486283D02*
X265426Y485505D01*
X262143Y486283D02*
X262920Y485505D01*
X262143Y482221D02*
X262920Y482999D01*
X266204Y482221D02*
X265426Y482999D01*
X278015Y308723D02*
X277237Y307946D01*
X273954Y308723D02*
X274732Y307946D01*
X273954Y304662D02*
X274732Y305440D01*
X278015Y304662D02*
X277237Y305440D01*
X215062Y411007D02*
X214284Y410229D01*
X211001Y411007D02*
X211779Y410229D01*
X211001Y406946D02*
X211779Y407724D01*
X215062Y406946D02*
X214284Y407724D01*
X148448Y287975D02*
X147670Y287198D01*
X144387Y287975D02*
X145165Y287198D01*
X144387Y283914D02*
X145165Y284692D01*
X148448Y283914D02*
X147670Y284692D01*
X166991Y454393D02*
X166213Y453615D01*
X162930Y454393D02*
X163708Y453615D01*
X162930Y450332D02*
X163708Y451109D01*
X166991Y450332D02*
X166213Y451109D01*
X176834Y454786D02*
X176056Y454009D01*
X172773Y454786D02*
X173550Y454009D01*
X172773Y450725D02*
X173550Y451503D01*
X176834Y450725D02*
X176056Y451503D01*
X206755Y454786D02*
X205977Y454009D01*
X202694Y454786D02*
X203472Y454009D01*
X202694Y450725D02*
X203472Y451503D01*
X206755Y450725D02*
X205977Y451503D01*
X187464Y454786D02*
X186686Y454009D01*
X183403Y454786D02*
X184180Y454009D01*
X183403Y450725D02*
X184180Y451503D01*
X187464Y450725D02*
X186686Y451503D01*
X156755Y454786D02*
X155977Y454009D01*
X152694Y454786D02*
X153472Y454009D01*
X152694Y450725D02*
X153472Y451503D01*
X156755Y450725D02*
X155977Y451503D01*
X192466Y303490D02*
X191689Y302712D01*
X187849Y303490D02*
X188626Y302712D01*
X187849Y298872D02*
X188626Y299650D01*
X192466Y298872D02*
X191689Y299650D01*
X164632Y343333D02*
X163854Y342555D01*
X160014Y343333D02*
X160792Y342555D01*
X160014Y338715D02*
X160792Y339492D01*
X164632Y338715D02*
X163854Y339492D01*
X146600Y177112D02*
X145822Y176334D01*
X141982Y177112D02*
X142760Y176334D01*
X141982Y172494D02*
X142760Y173272D01*
X146600Y172494D02*
X145822Y173272D01*
X194041Y279474D02*
X193263Y278696D01*
X189423Y279474D02*
X190201Y278696D01*
X189423Y274856D02*
X190201Y275634D01*
X194041Y274856D02*
X193263Y275634D01*
X250380Y244907D02*
X249602Y244130D01*
X245762Y244907D02*
X246540Y244130D01*
X245762Y240289D02*
X246540Y241067D01*
X250380Y240289D02*
X249602Y241067D01*
X250380Y237151D02*
X249602Y236374D01*
X245762Y237151D02*
X246540Y236374D01*
X245762Y232534D02*
X246540Y233311D01*
X250380Y232534D02*
X249602Y233311D01*
X279590Y246125D02*
X278812Y245347D01*
X275528Y246125D02*
X276306Y245347D01*
X275528Y242064D02*
X276306Y242842D01*
X279590Y242064D02*
X278812Y242842D01*
X153490Y193844D02*
X152712Y193067D01*
X148872Y193844D02*
X149650Y193067D01*
X148872Y189226D02*
X149650Y190004D01*
X153490Y189226D02*
X152712Y190004D01*
X132385Y163999D02*
X131607Y163221D01*
X128324Y163999D02*
X129102Y163221D01*
X128324Y159938D02*
X129102Y160716D01*
X132385Y159938D02*
X131607Y160716D01*
X115062Y163999D02*
X114284Y163221D01*
X111001Y163999D02*
X111779Y163221D01*
X111001Y159938D02*
X111779Y160716D01*
X115062Y159938D02*
X114284Y160716D01*
X265023Y252818D02*
X264245Y252040D01*
X260962Y252818D02*
X261739Y252040D01*
X260962Y248757D02*
X261739Y249535D01*
X265023Y248757D02*
X264245Y249535D01*
X246519Y289038D02*
X245741Y288261D01*
X242458Y289038D02*
X243235Y288261D01*
X242458Y284977D02*
X243235Y285755D01*
X246519Y284977D02*
X245741Y285755D01*
X200734Y290498D02*
X199956Y289720D01*
X196116Y290498D02*
X196894Y289720D01*
X196116Y285880D02*
X196894Y286658D01*
X200734Y285880D02*
X199956Y286658D01*
X201946Y392227D02*
X202724Y391450D01*
X201946Y388166D02*
X202724Y388944D01*
G54D151*
X130354Y161969D03*
X113031D03*
X146417Y285945D03*
X244488Y287008D03*
X262992Y250787D03*
X277559Y244094D03*
X275984Y306693D03*
X227559Y310630D03*
X203976Y390197D03*
X217638Y426063D03*
X184803Y395591D03*
X213031Y408976D03*
X211417Y423701D03*
X154724Y452756D03*
X164961Y452362D03*
X174803Y452756D03*
X185433D03*
X204724D03*
X218937Y456772D03*
X264173Y484252D03*
X252756D03*
G74*
X0Y0D02*
M02*
