*
*
G04 PADS 9.5 Build Number: 522968 generated Gerber (RS-274-X) file*
G04 PC Version=2.1*
*
%IN "opqbox2.pcb"*%
*
%MOIN*%
*
%FSLAX35Y35*%
*
*
*
*
G04 PC Standard Apertures*
*
*
G04 Thermal Relief Aperture macro.*
%AMTER*
1,1,$1,0,0*
1,0,$1-$2,0,0*
21,0,$3,$4,0,0,45*
21,0,$3,$4,0,0,135*
%
*
*
G04 Annular Aperture macro.*
%AMANN*
1,1,$1,0,0*
1,0,$2,0,0*
%
*
*
G04 Odd Aperture macro.*
%AMODD*
1,1,$1,0,0*
1,0,$1-0.005,0,0*
%
*
*
G04 PC Custom Aperture Macros*
*
*
*
*
*
*
G04 PC Aperture Table*
*
%ADD010C,0.001*%
%ADD013C,0.01*%
%ADD028C,0.06*%
%ADD033C,0.03937*%
%ADD037C,0.06693*%
%ADD073R,0.038X0.03*%
%ADD083R,0.06X0.06*%
%ADD084C,0.01575*%
%ADD085C,0.01181*%
%ADD102C,0.015*%
%ADD127C,0.01969*%
%ADD181R,0.065X0.045*%
%ADD182R,0.065X0.118*%
%ADD262R,0.03X0.038*%
%ADD278C,0.07087*%
%ADD282R,0.01772X0.04528*%
%ADD283R,0.05512X0.13386*%
%ADD284R,0.05709X0.02362*%
%ADD285R,0.07087X0.02362*%
%ADD286R,0.05709X0.01772*%
%ADD287O,0.00984X0.03937*%
%ADD288R,0.00984X0.03937*%
%ADD289R,0.03937X0.00984*%
%ADD290R,0.04331X0.0748*%
%ADD291R,0.03898X0.01181*%
%ADD292R,0.02362X0.0689*%
%ADD293C,0.06299*%
%ADD294R,0.21654X0.07874*%
%ADD295C,0.11811*%
%ADD296C,0.07874*%
%ADD297C,0.00984*%
%ADD317C,0.0315*%
*
*
*
*
G04 PC Circuitry*
G04 Layer Name opqbox2.pcb - circuitry*
%LPD*%
*
*
G04 PC Custom Flashes*
G04 Layer Name opqbox2.pcb - flashes*
%LPD*%
*
*
G04 PC Circuitry*
G04 Layer Name opqbox2.pcb - circuitry*
%LPD*%
*
G54D10*
G54D13*
G01X1490293Y1553364D02*
X1491853Y1551805D01*
X1495534Y1553364D02*
X1493974Y1551805D01*
X1490293Y1547324D02*
X1491853Y1548883D01*
X1497380Y1553364D02*
X1498939Y1551805D01*
X1502620Y1553364D02*
X1501061Y1551805D01*
X1504466Y1553364D02*
X1506026Y1551805D01*
X1509707Y1553364D02*
X1508147Y1551805D01*
X1509707Y1547324D02*
X1508147Y1548883D01*
X1552443Y1520412D02*
X1553909Y1518945D01*
X1557045Y1520412D02*
X1555579Y1518945D01*
X1673093Y1468683D02*
X1671533Y1470242D01*
X1667852Y1468683D02*
X1669412Y1470242D01*
X1667852Y1474723D02*
X1669412Y1473164D01*
X1673093Y1474723D02*
X1671533Y1473164D01*
X1523660Y1470238D02*
X1522395Y1471502D01*
X1517482Y1470238D02*
X1518747Y1471502D01*
X1549447Y1502203D02*
X1548183Y1500939D01*
X1556534Y1495116D02*
X1555269Y1493852D01*
X1524713Y1463296D02*
X1525833Y1464416D01*
X1571002Y1558876D02*
X1572561Y1557317D01*
X1576242Y1558876D02*
X1574683Y1557317D01*
X1576242Y1552836D02*
X1574683Y1554395D01*
X1571002Y1552836D02*
X1572561Y1554395D01*
X1541870Y1551247D02*
X1539798Y1553320D01*
X1533130Y1551247D02*
X1535202Y1553320D01*
X1558130Y1554897D02*
X1559909Y1556677D01*
X1566870Y1554897D02*
X1565091Y1556677D01*
X1676386Y1430401D02*
X1677853Y1431867D01*
X1676386Y1435004D02*
X1677853Y1433537D01*
X1614876Y1434156D02*
X1616256Y1435536D01*
X1622825Y1434156D02*
X1621446Y1435536D01*
X1524713Y1469185D02*
X1525833Y1468065D01*
X1550356Y1495116D02*
X1551621Y1493852D01*
X1549447Y1496025D02*
X1548183Y1497290D01*
G54D28*
X1921742Y1399741D03*
Y1459741D03*
X1886614Y1410000D03*
X1796850Y1497638D03*
Y1437638D03*
X1891732Y1487008D03*
Y1547008D03*
X1919291Y1546063D03*
Y1486063D03*
X1946850Y1487008D03*
Y1547008D03*
X1422903Y1452169D03*
X1412903D03*
X1422903Y1462169D03*
X1412903D03*
X1422903Y1472169D03*
X1412903D03*
X1422903Y1482169D03*
X1412903D03*
X1422903Y1492169D03*
X1412903D03*
X1422903Y1502169D03*
X1412903D03*
X1422903Y1512169D03*
X1412903D03*
X1422903Y1522169D03*
X1412903D03*
X1422903Y1532169D03*
X1412903D03*
X1422903Y1542169D03*
X1412903D03*
X1593307Y1444094D03*
Y1454094D03*
Y1464094D03*
Y1474094D03*
X2040945Y1461811D03*
X1980945D03*
X1456693Y1412205D03*
Y1422205D03*
Y1432205D03*
Y1442205D03*
X1585433Y1517323D03*
Y1507323D03*
Y1497323D03*
Y1487323D03*
X1588976Y1555512D03*
X1598976D03*
X1608976D03*
X1618976D03*
X1873642Y1459475D03*
G54D33*
X1782283Y1395276D02*
Y1401624D01*
X1921742Y1399741D02*
X1923182Y1400394D01*
X1952362*
X1964173Y1412205*
Y1422441*
X1729921Y1426772D02*
X1748769Y1407924D01*
X1753543*
X1753150Y1422835D02*
X1753543D01*
Y1414124*
Y1407924D02*
X1761797D01*
Y1407914*
X1722979Y1432702D02*
X1725577D01*
X1729921Y1426772*
X1790551Y1416492D02*
X1814521Y1440462D01*
X1833680*
X1782283Y1407824D02*
Y1408224D01*
X1790551Y1416492*
X1833680Y1415265D02*
X1833858Y1415086D01*
Y1400787*
X1964173Y1422441D02*
Y1445039D01*
X1980945Y1461811*
X1722979Y1447702D02*
Y1451452D01*
X1730315*
Y1450394*
X1833642Y1459475D02*
Y1451834D01*
X1833680Y1451796*
Y1440462*
X1873642Y1459475D02*
X1873908Y1459741D01*
X1886614*
X1921742D02*
X1886614D01*
Y1450000*
X2040945Y1461811D02*
X2052756Y1450000D01*
Y1422441*
X2040945Y1461811D02*
Y1488526D01*
X1945906Y1486063D02*
X1946850Y1487008D01*
X2040945Y1502026D02*
Y1557791D01*
X2066774Y1583620*
X2099884*
X1562500Y1558268D02*
X1537008D01*
Y1547244*
X1529134Y1558268D02*
X1537008D01*
X1573622Y1539764D02*
Y1549656D01*
X1562205Y1539764D02*
Y1549168D01*
X1562500*
X1598976Y1555512D02*
Y1592756D01*
X1599213Y1592520*
X1548031Y1580315D02*
X1556349D01*
X1579134Y1592520D02*
X1599213D01*
X1628437*
X1632731Y1588226*
Y1584289*
X1562549Y1592176D02*
X1562893Y1592520D01*
X1579134*
X1562549Y1580315D02*
Y1592176D01*
X1562500Y1567368D02*
X1562549D01*
Y1580315*
X1632731Y1584289D02*
X1634864Y1586421D01*
X1668672*
X1433858Y1615748D02*
X1457087D01*
X1470472Y1629134*
X1487402*
X1542520*
X1562549Y1609105*
Y1592176*
X1487402Y1629134D02*
X1488583Y1627953D01*
Y1611811*
X1574409Y1612992D02*
X1579134Y1608268D01*
Y1592520*
X1618504Y1609449D02*
X1618541Y1609486D01*
X1632731*
X1632677Y1624409D02*
Y1609486D01*
X1632731*
G54D37*
X1820247Y1617917D03*
Y1575595D03*
X1668672Y1586421D03*
Y1617917D03*
X1761721Y1391126D03*
X1756299Y1476772D03*
X1574409Y1612992D03*
X1633071Y1540551D03*
X1634646Y1477165D03*
X1659843Y1416142D03*
Y1453543D03*
X1627165Y1498819D03*
X1433858Y1615748D03*
Y1605906D03*
Y1598031D03*
Y1588189D03*
G54D73*
X1768061Y1425197D03*
X1761861D03*
X1756773Y1436577D03*
X1750573D03*
X1556349Y1580315D03*
X1562549D03*
X1437159Y1522162D03*
X1443359D03*
X1505856Y1607874D03*
X1499656D03*
Y1600787D03*
X1505856D03*
X1603199Y1507087D03*
X1609399D03*
X1666172Y1435904D03*
X1659972D03*
X1666172Y1443778D03*
X1659972D03*
X1756680Y1445415D03*
X1750480D03*
X1603199Y1499060D03*
X1609399D03*
X1603104Y1514014D03*
X1609304D03*
G54D83*
X1886614Y1450000D03*
X2040945Y1502026D03*
Y1488526D03*
X1981159Y1546063D03*
X1967659D03*
X2162452Y1501781D03*
Y1515281D03*
X1833642Y1459475D03*
G54D84*
X1659843Y1416142D02*
Y1435904D01*
X1659972*
X1659843Y1453543D02*
X1659972Y1454331D01*
Y1443778*
X1681050Y1447702D02*
X1681102D01*
Y1454331*
G54D85*
X1528740Y1385039D02*
Y1392569D01*
Y1398769D02*
Y1409449D01*
X1529134Y1409843*
X1566929Y1393357D02*
Y1386614D01*
X1567323Y1386220*
X1456693Y1432205D02*
X1470394D01*
X1515945Y1477756*
X1520571*
X1456693Y1422205D02*
X1463543D01*
X1517126Y1475787*
X1520571*
X1487795Y1427953D02*
X1494094D01*
Y1428002*
X1503937Y1434202D02*
Y1443701D01*
Y1428002D02*
Y1427953D01*
X1511417*
X1494094Y1434202D02*
Y1443701D01*
Y1445276*
X1498819Y1450000*
X1516054*
X1530118Y1464064*
Y1466240*
X1503937Y1443701D02*
X1512706D01*
X1532087Y1463081*
Y1466240*
X1529134Y1409843D02*
Y1429134D01*
X1534055Y1434055*
Y1466240*
X1529134Y1409449D02*
Y1409843D01*
X1566535Y1409449D02*
X1566929D01*
Y1399557*
X1593307Y1444094D02*
X1598681Y1438721D01*
X1618851*
X1629134Y1439354D02*
X1629134D01*
X1632325Y1436162*
X1636370*
Y1443839D02*
X1638003D01*
Y1448425*
X1636370Y1441280D02*
X1643663D01*
X1645323Y1442941*
X1651261*
X1636370Y1438721D02*
X1643503D01*
X1645483Y1436741*
X1651261*
X1768061Y1425197D02*
Y1425061D01*
X1774409*
Y1424803*
X1761797Y1415394D02*
Y1425133D01*
X1761861Y1425197*
X1771049Y1415394D02*
X1775630D01*
X1776772Y1416535*
X1790508*
X1790551Y1416492*
X1422903Y1472169D02*
X1427505Y1476772D01*
X1493744*
X1508508Y1491535*
X1520571*
X1422903Y1462169D02*
X1435940D01*
X1440306Y1466535*
X1490745*
X1511808Y1487598*
X1520571*
X1460236Y1471260D02*
X1491631D01*
X1509938Y1489567*
X1520571*
X1510630Y1479528D02*
X1510827Y1479724D01*
X1520571*
Y1473819D02*
X1523730D01*
X1526378Y1476467*
Y1483661*
X1520571Y1481693D02*
Y1483661D01*
X1526378*
X1520571D02*
Y1485630D01*
X1526378Y1483661D02*
Y1484252D01*
X1546063Y1482677D02*
X1549409Y1479724D01*
X1553445*
X1534646Y1471654D02*
X1538692D01*
X1541929Y1468416*
Y1466240*
X1542023Y1466146*
Y1468510*
X1553445Y1483661D02*
X1556890D01*
X1562205Y1478346*
X1596627*
X1597808Y1477165*
X1634646*
X1553445Y1475787D02*
X1556948D01*
X1560946Y1474213*
X1561024Y1474409*
X1553445Y1475787D02*
Y1477756D01*
Y1473819D02*
X1556028D01*
X1565752Y1464094*
X1593307*
X1553445Y1471850D02*
X1553937D01*
Y1466929*
X1547835Y1466240D02*
Y1464764D01*
X1550394Y1462205*
X1585197*
X1593307Y1454094*
X1545866Y1466240D02*
Y1463081D01*
X1548616Y1460332*
X1577070*
X1593307Y1444094*
X1543898Y1466240D02*
Y1461614D01*
X1549213Y1456299*
X1539961Y1466240D02*
Y1459252D01*
X1542913Y1456299*
X1537992Y1466240D02*
Y1451772D01*
X1541732Y1448031*
X1536024Y1466240D02*
Y1433071D01*
X1559646Y1409449*
X1566535*
X1567000Y1482500D02*
X1666276D01*
X1670472Y1478303*
Y1477903*
X1593307Y1464094D02*
X1596627D01*
X1616882Y1443839*
X1618851*
X1593307Y1454094D02*
X1600236D01*
X1613051Y1441280*
X1618851*
X1612598Y1463386D02*
X1629134Y1446850D01*
Y1439354*
X1637795Y1448425D02*
X1638003D01*
X1634646Y1477165D02*
Y1477116D01*
X1644094*
X1651181Y1470916D02*
X1650394D01*
X1650787Y1470472*
X1660630*
X1644094Y1465354D02*
Y1470916D01*
X1670472Y1463780D02*
Y1471703D01*
X1644094Y1477116D02*
X1651181D01*
X1427194Y1522169D02*
X1431646Y1517717D01*
X1460630*
X1427194Y1522169D02*
X1430577D01*
X1430585Y1522162*
X1437159*
X1422903Y1482169D02*
X1417717Y1487356D01*
Y1495669*
X1419291Y1497244*
X1468504*
X1480315Y1509055*
X1504724*
X1422903Y1522169D02*
X1427194D01*
X1422903Y1492169D02*
X1427277Y1486614D01*
X1473031*
X1479724Y1493307*
X1507260*
X1507457Y1493504*
X1520571*
X1450394Y1492126D02*
X1455906D01*
X1456693Y1491339*
X1443359Y1522162D02*
X1444096D01*
X1447244Y1527165*
X1492913Y1521654D02*
Y1528396D01*
X1553445Y1485630D02*
X1550286D01*
Y1481693*
X1553445*
X1539567Y1494291D02*
X1539961Y1494685D01*
Y1499114*
X1539567Y1494291D02*
X1540157Y1493701D01*
X1525591Y1518110D02*
X1530118Y1513583D01*
Y1499114*
X1549606Y1523622D02*
X1549744D01*
Y1515846*
X1554744D02*
Y1515748D01*
X1559843*
X1532087Y1499114D02*
Y1502273D01*
X1532180Y1502367*
Y1521203*
X1536024Y1499114D02*
Y1504882D01*
X1539744Y1508602*
Y1515846*
X1537992Y1499114D02*
Y1503346D01*
X1544744Y1510098*
Y1515846*
X1541929Y1499114D02*
Y1503374D01*
X1548791Y1510236*
X1578346*
X1585433Y1517323*
X1543898Y1499114D02*
Y1502824D01*
X1548397Y1507323*
X1585433*
X1545866Y1499114D02*
Y1502273D01*
X1549105Y1505512*
X1577244*
X1585433Y1497323*
X1547835Y1499114D02*
X1552500D01*
Y1497500*
X1553445Y1491535D02*
X1556604D01*
X1559449Y1488691*
Y1487008*
X1553445Y1485630D02*
X1556604D01*
X1557982Y1487008*
X1559449*
X1609304Y1514014D02*
X1609399D01*
X1432785Y1548382D02*
Y1548819D01*
X1438583*
X1422903Y1542169D02*
X1428588D01*
X1428601Y1542182*
X1432785*
X1422903Y1532169D02*
X1433142D01*
X1433144Y1532172*
X1441883*
Y1538372D02*
Y1538583D01*
X1447244*
Y1538189*
X1492913Y1534596D02*
Y1544144D01*
X1500000Y1528396D02*
Y1527996D01*
X1526181Y1501815*
Y1499114*
X1500000Y1534596D02*
Y1544144D01*
X1507087Y1528396D02*
Y1527996D01*
X1528150Y1506933*
Y1499114*
X1507087Y1534596D02*
Y1544144D01*
X1532595Y1527809D02*
X1532033Y1524718D01*
X1533067Y1523224*
X1533961Y1521682*
Y1502367*
X1534055Y1502273*
Y1499114*
X1530315Y1531102D02*
X1532595Y1527809D01*
X1525197Y1527559D02*
X1527477Y1524266D01*
X1530568Y1523704*
X1531562Y1522269*
X1532180Y1521203*
X1533858Y1539764D02*
X1538465D01*
X1539744Y1538484*
Y1535630*
X1544744*
Y1538484D02*
Y1535630D01*
Y1538484*
Y1535630D02*
X1549744D01*
Y1538484*
X1433858Y1598031D02*
X1438583D01*
X1441629Y1601078*
X1460196*
X1462983Y1603865*
X1480812*
X1481890Y1602787*
X1485201*
X1513386Y1588583D02*
Y1594538D01*
X1505856Y1600787D02*
X1513386D01*
Y1600738*
Y1601138*
X1517266Y1605018*
X1518101*
X1518867Y1604252*
Y1603574*
X1521654Y1600787*
X1492091Y1602787D02*
X1493449D01*
X1495449Y1600787*
X1499656*
X1562205Y1592520D02*
X1562549Y1592176D01*
X1433858Y1605906D02*
X1438583D01*
X1441629Y1602859*
X1459458*
X1462245Y1605646*
X1480812*
X1481890Y1606724*
X1485201*
X1505856Y1607874D02*
X1513386D01*
Y1607924*
Y1614124D02*
Y1620472D01*
Y1607924D02*
X1516142D01*
X1517266Y1606799*
X1518839*
X1520127Y1605512*
X1526378*
X1492091Y1606724D02*
X1495307D01*
X1496457Y1607874*
X1499656*
G54D102*
X1592218Y1558753D02*
X1591098Y1557633D01*
X1585735Y1558753D02*
X1586855Y1557633D01*
X1585735Y1552270D02*
X1586855Y1553390D01*
X1592218Y1552270D02*
X1591098Y1553390D01*
X1453451Y1415446D02*
X1454572Y1414326D01*
X1453451Y1408963D02*
X1454572Y1410083D01*
X1459934Y1408963D02*
X1458814Y1410083D01*
X1459934Y1415446D02*
X1458814Y1414326D01*
X1409661Y1455411D02*
X1410782Y1454291D01*
X1409661Y1448928D02*
X1410782Y1450048D01*
X1416145Y1448928D02*
X1415024Y1450048D01*
X1416145Y1455411D02*
X1415024Y1454291D01*
X1419661Y1455411D02*
X1420782Y1454291D01*
X1419661Y1448928D02*
X1420782Y1450048D01*
X1426145Y1448928D02*
X1425024Y1450048D01*
X1426145Y1455411D02*
X1425024Y1454291D01*
X1539242Y1549478D02*
X1538121Y1548358D01*
X1539242Y1545010D02*
X1538121Y1546131D01*
X1534774Y1549478D02*
X1535894Y1548358D01*
X1534774Y1545010D02*
X1535894Y1546131D01*
X1526900Y1560502D02*
X1528020Y1559381D01*
X1526900Y1556034D02*
X1528020Y1557154D01*
X1531368Y1556034D02*
X1530247Y1557154D01*
X1452627Y1494360D02*
X1451507Y1493240D01*
X1452627Y1489892D02*
X1451507Y1491012D01*
X1448160Y1494360D02*
X1449280Y1493240D01*
X1448160Y1489892D02*
X1449280Y1491012D01*
X1536879Y1473887D02*
X1535759Y1472767D01*
X1532412Y1473887D02*
X1533532Y1472767D01*
X1554734Y1499734D02*
X1553614Y1498614D01*
X1550266Y1499734D02*
X1551386Y1498614D01*
X1550266Y1495266D02*
X1551386Y1496386D01*
X1672706Y1466013D02*
X1671586Y1464893D01*
X1668239Y1466013D02*
X1669359Y1464893D01*
X1668239Y1461546D02*
X1669359Y1462666D01*
X1672706Y1461546D02*
X1671586Y1462666D01*
X1562076Y1517982D02*
X1560956Y1516862D01*
X1557609Y1517982D02*
X1558729Y1516862D01*
X1562076Y1513514D02*
X1560956Y1514634D01*
X1501446Y1503415D02*
X1500326Y1502295D01*
X1496979Y1503415D02*
X1498099Y1502295D01*
X1496979Y1498947D02*
X1498099Y1500068D01*
X1501446Y1498947D02*
X1500326Y1500068D01*
X1448160Y1459971D02*
X1449280Y1461091D01*
X1452627Y1459971D02*
X1451507Y1461091D01*
X1453415Y1514439D02*
X1452295Y1513318D01*
X1448947Y1514439D02*
X1450068Y1513318D01*
X1448947Y1509971D02*
X1450068Y1511091D01*
X1453415Y1509971D02*
X1452295Y1511091D01*
X1518632Y1468769D02*
X1519753Y1467649D01*
X1518632Y1464302D02*
X1519753Y1465422D01*
X1523100Y1464302D02*
X1521980Y1465422D01*
X1543829Y1484911D02*
X1544949Y1483791D01*
X1543829Y1480443D02*
X1544949Y1481564D01*
X1548297Y1480443D02*
X1547177Y1481564D01*
X1453415Y1524281D02*
X1452295Y1523161D01*
X1621131Y1432942D02*
X1620011Y1431822D01*
X1616664Y1432942D02*
X1617784Y1431822D01*
X1616664Y1428475D02*
X1617784Y1429595D01*
X1621131Y1428475D02*
X1620011Y1429595D01*
X1678475Y1429005D02*
X1679595Y1427885D01*
X1678475Y1424538D02*
X1679595Y1425658D01*
X1682942Y1424538D02*
X1681822Y1425658D01*
G54D127*
X1766535Y1402362D02*
Y1411579D01*
X1766610Y1411654*
X1771049*
X1761721Y1391126D02*
X1761792D01*
X1761797Y1390551*
Y1407914*
X1680709Y1426772D02*
Y1432702D01*
X1681050*
X1651261Y1436741D02*
Y1435904D01*
X1659972*
X1651261Y1442941D02*
Y1443778D01*
X1659972*
X1666172D02*
X1672252D01*
X1673327Y1442702*
X1681050*
X1666172Y1435904D02*
X1671890D01*
X1673689Y1437702*
X1681050*
X1753543Y1407914D02*
Y1407924D01*
X1756773Y1436577D02*
X1756693D01*
X1757087Y1436909*
X1770866*
X1738266Y1437555D02*
X1743731D01*
X1744709Y1436577*
X1750573*
X1738266Y1443755D02*
X1742968D01*
X1744627Y1445415*
X1750480*
X1722979Y1442702D02*
X1727522D01*
X1727705Y1442520*
X1731026*
X1732262Y1443755*
X1738266*
X1722979Y1437702D02*
X1731026D01*
X1731907Y1438583*
X1734739*
X1735766Y1437555*
X1738266*
X1796850Y1437638D02*
Y1457087D01*
X1826772Y1487008*
X1891732*
X1782283Y1407824D02*
X1782373Y1407914D01*
X1771049*
X1770866Y1436909D02*
X1795276D01*
X1796063Y1437638*
X1796850*
X1756680Y1445415D02*
X1757087Y1445768D01*
X1770866*
Y1452362*
X1596457Y1507087D02*
X1603199D01*
X1596850Y1514173D02*
Y1514014D01*
X1603104*
X1603150Y1492520D02*
Y1499060D01*
X1603199*
X1609399D02*
X1615354D01*
Y1498819*
X1609399Y1507087D02*
X1614961D01*
Y1507480*
X1609399Y1507087D02*
Y1514014D01*
X1919291Y1486063D02*
X1945906D01*
X1598976Y1555512D02*
X1609304Y1545185D01*
Y1514014*
X1919291Y1547008D02*
X1919225Y1547003D01*
X1919291Y1546063*
X1891732Y1547008D02*
X1919291D01*
X1946850D02*
Y1546063D01*
X1967659*
X1981159D02*
Y1553204D01*
X2033071Y1605115*
Y1617917*
X1632096Y1498819D02*
G75*
G03X1632096I-4931J0D01*
G01X1638002Y1540551D02*
G03X1638002I-4931J0D01*
G01X1502372Y1501181D02*
G03X1502372I-3159J0D01*
G01X1683661Y1458163D02*
Y1559843D01*
G03X1682677Y1560827I-984J-0*
G01X1622477*
G03X1621858Y1559077I-0J-984*
G01X1614860Y1553494D02*
G03X1621858Y1559077I4116J2018D01*
G01X1614860Y1553494D02*
G03X1613093I-884J-433D01*
G01X1609441Y1550951D02*
G03X1613093Y1553494I-465J4561D01*
G01X1609441Y1550951D02*
G03X1608845Y1549276I100J-979D01*
G01X1611120Y1547001*
X1611872Y1545185D02*
G03X1611120Y1547001I-2568J-0D01*
G01X1611872Y1545185D02*
Y1517480D01*
G03X1612223Y1516727I984J0*
G01X1612788Y1515514D02*
G03X1612223Y1516727I-1584J0D01*
G01X1612788Y1515514D02*
Y1512514D01*
X1612618Y1511800D02*
G03X1612788Y1512514I-1414J714D01*
G01X1612618Y1511800D02*
G03X1613844Y1510436I878J-444D01*
G01X1613998Y1504471D02*
G03X1613844Y1510436I963J3009D01*
G01X1613998Y1504471D02*
G03X1613699Y1504518I-299J-937D01*
G01X1612843*
G03X1612251Y1504320I0J-984*
G01X1611626Y1504036D02*
G03X1612251Y1504320I-327J1551D01*
G01X1611626Y1504036D02*
G03Y1502110I203J-963D01*
G01X1612251Y1501826D02*
G03X1611626Y1502110I-952J-1266D01*
G01X1612251Y1501826D02*
G03X1612843Y1501629I592J787D01*
G01X1613689*
G03X1614085Y1501712I0J984*
G01X1613456Y1496294D02*
G03X1614085Y1501712I1898J2525D01*
G01X1613456Y1496294D02*
G03X1612864Y1496492I-592J-787D01*
G01X1612843*
G03X1612251Y1496294I0J-985*
G01X1611299Y1495976D02*
G03X1612251Y1496294I0J1584D01*
G01X1611299Y1495976D02*
X1607499D01*
X1607008Y1496054D02*
G03X1607499Y1495976I491J1506D01*
G01X1607008Y1496054D02*
G03X1605718Y1495118I-306J-936D01*
G01Y1494652*
G03X1605858Y1494145I984J-0*
G01X1600441D02*
G03X1605858I2709J-1625D01*
G01X1600441D02*
G03X1600581Y1494652I-844J507D01*
G01Y1495637*
G03X1600249Y1496374I-984J-0*
G01X1599715Y1497560D02*
G03X1600249Y1496374I1584J0D01*
G01X1599715Y1497560D02*
Y1500560D01*
X1600972Y1502110D02*
G03X1599715Y1500560I327J-1550D01*
G01X1600972Y1502110D02*
G03Y1504036I-203J963D01*
G01X1600347Y1504320D02*
G03X1600972Y1504036I952J1267D01*
G01X1600347Y1504320D02*
G03X1599755Y1504518I-592J-786D01*
G01X1598589*
G03X1598082Y1504378I-0J-984*
G01X1594979Y1509879D02*
G03X1598082Y1504378I1478J-2792D01*
G01X1594979Y1509879D02*
G03X1595072Y1511562I-461J870D01*
G01X1598663Y1516761D02*
G03X1595072Y1511562I-1813J-2588D01*
G01X1598663Y1516761D02*
G03X1599227Y1516583I564J806D01*
G01X1599660*
G03X1600251Y1516780I-0J984*
G01X1601204Y1517099D02*
G03X1600251Y1516780I-0J-1585D01*
G01X1601204Y1517099D02*
X1605004D01*
X1605465Y1517030D02*
G03X1605004Y1517099I-461J-1516D01*
G01X1605465Y1517030D02*
G03X1606735Y1517972I286J942D01*
G01Y1543713*
G03X1606447Y1544409I-984J-0*
G01X1600192Y1550664*
G03X1599404Y1550948I-696J-696*
G01X1594860Y1553494D02*
G03X1599404Y1550948I4116J2018D01*
G01X1594860Y1553494D02*
G03X1593093I-884J-433D01*
G01X1586095Y1559077D02*
G03X1593093Y1553494I2881J-3565D01*
G01X1586095Y1559077D02*
G03X1585476Y1560827I-619J766D01*
G01X1576620*
G03X1576046Y1559043I-0J-984*
G01X1576706Y1557756D02*
G03X1576046Y1559043I-1584J-0D01*
G01X1576706Y1557756D02*
Y1553956D01*
X1576523Y1553216D02*
G03X1576706Y1553956I-1401J740D01*
G01X1576523Y1553216D02*
G03Y1552296I870J-460D01*
G01X1576705Y1551626D02*
G03X1576523Y1552296I-1583J-70D01*
G01X1576705Y1551626D02*
G03X1576806Y1551232I983J43D01*
G01X1577175Y1549656D02*
G03X1576806Y1551232I-3553J-0D01*
G01X1577175Y1549656D02*
Y1539764D01*
X1570069D02*
G03X1577175I3553J-0D01*
G01X1570069D02*
Y1549656D01*
X1570438Y1551232D02*
G03X1570069Y1549656I3184J-1576D01*
G01X1570438Y1551232D02*
G03X1570539Y1551626I-882J437D01*
G01X1570721Y1552296D02*
G03X1570539Y1551626I1401J-740D01*
G01X1570721Y1552296D02*
G03Y1553216I-870J460D01*
G01X1570538Y1553956D02*
G03X1570721Y1553216I1584J-0D01*
G01X1570538Y1553956D02*
Y1557756D01*
X1571198Y1559043D02*
G03X1570538Y1557756I924J-1287D01*
G01X1571198Y1559043D02*
G03X1570624Y1560827I-574J800D01*
G01X1568319*
G03X1567334Y1559843I-0J-984*
G01Y1556018*
X1566455Y1554599D02*
G03X1567334Y1556018I-705J1419D01*
G01X1566455Y1554599D02*
G03Y1552836I438J-881D01*
G01X1567334Y1551418D02*
G03X1566455Y1552836I-1584J-0D01*
G01X1567334Y1551418D02*
Y1546918D01*
X1566362Y1545456D02*
G03X1567334Y1546918I-612J1462D01*
G01X1566362Y1545456D02*
G03X1565758Y1544548I380J-908D01*
G01X1565758D02*
Y1539764D01*
X1559299Y1537720D02*
G03X1565758Y1539764I2906J2044D01*
G01X1559299Y1537720D02*
G03X1557509Y1537154I-805J-566D01*
G01Y1535039*
X1555925Y1533455D02*
G03X1557509Y1535039I0J1584D01*
G01X1555925Y1533455D02*
X1553563D01*
X1552749Y1533680D02*
G03X1553563Y1533455I814J1359D01*
G01X1552749Y1533680D02*
G03X1551739I-505J-845D01*
G01X1550925Y1533455D02*
G03X1551739Y1533680I0J1584D01*
G01X1550925Y1533455D02*
X1548563D01*
X1544744*
X1543563*
X1539744*
X1538563*
X1536979Y1535039D02*
G03X1538563Y1533455I1584J0D01*
G01X1536979Y1535039D02*
Y1536214D01*
G03X1535487Y1537057I-985J-0*
G01X1534472Y1542863D02*
G03X1535487Y1537057I-614J-3099D01*
G01X1534472Y1542863D02*
G03X1535231Y1543025I191J965D01*
X1535646Y1542368I972J155*
G01X1535710Y1542323D02*
G03X1535646Y1542368I-1852J-2559D01*
G01X1535710Y1542323D02*
G03X1537159Y1542664I577J797D01*
G01X1537173Y1542688D02*
G03X1537159Y1542664I1390J-759D01*
G01X1537173Y1542688D02*
G03X1536475Y1544130I-864J472D01*
G01X1536394Y1544145D02*
G03X1536475Y1544130I614J3099D01*
G01X1536394Y1544145D02*
G03X1535635Y1543983I-191J-965D01*
X1535220Y1544640I-972J-155*
G01X1534547Y1549225D02*
G03X1535220Y1544640I2461J-1981D01*
G01X1534547Y1549225D02*
G03X1533960Y1550810I-766J617D01*
G01X1532666Y1552368D02*
G03X1533960Y1550810I1584J-0D01*
G01X1532666Y1552368D02*
Y1555000D01*
G03X1531076Y1555776I-985J0*
G01X1526212Y1559468D02*
G03X1531076Y1555776I2922J-1200D01*
G01X1526212Y1559468D02*
G03X1525301Y1560827I-911J375D01*
G01X1409261*
G03X1408277Y1559843I0J-984*
G01Y1546382*
G03X1409905Y1545638I984J0*
G01X1417019Y1544187D02*
G03X1409905Y1545638I-4116J-2018D01*
G01X1417019Y1544187D02*
G03X1418787I884J434D01*
G01X1426678Y1544770D02*
G03X1418787Y1544187I-3775J-2601D01*
G01X1426678Y1544770D02*
G03X1427489Y1544344I811J559D01*
G01X1428318*
G03X1428406Y1544348I-0J985*
G01X1428601Y1544357D02*
G03X1428406Y1544348I-0J-2175D01*
G01X1428601Y1544357D02*
X1428984D01*
G03X1429866Y1545778I0J984*
G01X1429701Y1546482D02*
G03X1429866Y1545778I1584J0D01*
G01X1429701Y1546482D02*
Y1550282D01*
X1431285Y1551866D02*
G03X1429701Y1550282I0J-1584D01*
G01X1431285Y1551866D02*
X1434285D01*
X1435392Y1551416D02*
G03X1434285Y1551866I-1107J-1134D01*
G01X1435392Y1551416D02*
G03X1436674Y1551336I687J704D01*
G01X1437078Y1546041D02*
G03X1436674Y1551336I1505J2778D01*
G01X1437078Y1546041D02*
G03X1435719Y1544757I-468J-865D01*
G01X1435870Y1544082D02*
G03X1435719Y1544757I-1585J0D01*
G01X1435870Y1544082D02*
Y1540282D01*
X1434285Y1538698D02*
G03X1435870Y1540282I0J1584D01*
G01X1434285Y1538698D02*
X1431285D01*
X1429905Y1539506D02*
G03X1431285Y1538698I1380J776D01*
G01X1429904Y1539506D02*
G03X1429047Y1540007I-857J-483D01*
G01X1428870*
G03X1428782Y1540003I0J-984*
G01X1428588Y1539995D02*
G03X1428782Y1540003I-0J2174D01*
G01X1428588Y1539995D02*
X1427489D01*
G03X1426678Y1539569I-0J-985*
G01X1424921Y1538053D02*
G03X1426678Y1539569I-2018J4116D01*
G01X1424921Y1538053D02*
G03Y1536286I433J-884D01*
G01X1426678Y1534770D02*
G03X1424921Y1536286I-3775J-2601D01*
G01X1426678Y1534770D02*
G03X1427489Y1534344I811J559D01*
G01X1433022*
G03X1433060Y1534345I-0J985*
G01X1433144Y1534347D02*
G03X1433060Y1534345I-0J-2175D01*
G01X1433144Y1534347D02*
X1438081D01*
G03X1438963Y1535768I0J984*
G01X1438798Y1536472D02*
G03X1438963Y1535768I1585J-0D01*
G01X1438798Y1536472D02*
Y1540272D01*
X1440383Y1541856D02*
G03X1438798Y1540272I-0J-1584D01*
G01X1440383Y1541856D02*
X1443383D01*
X1444614Y1541269D02*
G03X1443383Y1541856I-1231J-997D01*
G01X1444614Y1541269D02*
G03X1445822Y1541010I764J620D01*
G01X1446253Y1535189D02*
G03X1445822Y1541010I991J3000D01*
G01X1446253Y1535189D02*
G03X1444963Y1534185I-308J-934D01*
G01X1444967Y1534072D02*
G03X1444963Y1534185I-1584J-0D01*
G01X1444967Y1534072D02*
Y1531102D01*
G03X1446258Y1530167I984J-0*
G01X1450314Y1526421D02*
G03X1446258Y1530167I-3070J744D01*
G01X1450314Y1526421D02*
G03X1451250Y1525206I957J-231D01*
G01X1454211Y1521154D02*
G03X1451250Y1525206I-3030J893D01*
G01X1454211Y1521154D02*
G03X1455155Y1519891I944J-278D01*
G01X1457949*
G03X1458586Y1520125I-0J985*
G01Y1515308D02*
G03Y1520125I2044J2409D01*
G01Y1515308D02*
G03X1457949Y1515542I-637J-751D01*
G01X1454592*
G03X1453781Y1513999I-0J-985*
G01X1448581D02*
G03X1453781I2600J-1794D01*
G01X1448581D02*
G03X1447771Y1515542I-810J558D01*
G01X1431646*
X1430109Y1516179D02*
G03X1431646Y1515542I1537J1538D01*
G01X1430109Y1516179D02*
X1427447Y1518840D01*
G03X1426071Y1518856I-696J-696*
G01X1424921Y1518053D02*
G03X1426071Y1518856I-2018J4116D01*
G01X1424921Y1518053D02*
G03Y1516286I433J-884D01*
G01Y1508053D02*
G03Y1516286I-2018J4116D01*
G01Y1508053D02*
G03Y1506286I433J-884D01*
G01X1427251Y1500715D02*
G03X1424921Y1506286I-4348J1454D01*
G01X1427251Y1500715D02*
G03X1428184Y1499419I933J-312D01*
G01X1467195*
G03X1467891Y1499707I0J984*
G01X1478777Y1510593*
X1480315Y1511230D02*
G03X1478777Y1510593I-0J-2175D01*
G01X1480315Y1511230D02*
X1502043D01*
G03X1502680Y1511464I0J984*
G01Y1506646D02*
G03Y1511464I2044J2409D01*
G01Y1506646D02*
G03X1502043Y1506880I-637J-750D01*
G01X1481623*
G03X1480928Y1506592I0J-984*
G01X1470042Y1495706*
X1468504Y1495069D02*
G03X1470042Y1495706I-0J2175D01*
G01X1468504Y1495069D02*
X1454045D01*
G03X1453177Y1493620I-0J-984*
G01X1452994Y1490332D02*
G03X1453177Y1493620I-2600J1794D01*
G01X1452994Y1490332D02*
G03X1453804Y1488789I810J-559D01*
G01X1471723*
G03X1472419Y1489077I-0J984*
G01X1478187Y1494845*
X1479724Y1495482D02*
G03X1478187Y1494845I0J-2175D01*
G01X1479724Y1495482D02*
X1506359D01*
G03X1506701Y1495543I0J984*
G01X1507457Y1495679D02*
G03X1506701Y1495543I-0J-2175D01*
G01X1507457Y1495679D02*
X1520571D01*
X1521110Y1495611D02*
G03X1520571Y1495679I-539J-2107D01*
G01X1521110Y1495611D02*
G03X1521353Y1495580I243J954D01*
G01X1522539*
X1522953Y1495525D02*
G03X1522539Y1495580I-414J-1529D01*
G01X1522953Y1495525D02*
G03X1524160Y1496732I256J951D01*
G01X1524105Y1497146D02*
G03X1524160Y1496732I1584J-0D01*
G01X1524105Y1497146D02*
Y1498332D01*
G03X1524074Y1498576I-985J-0*
G01X1524006Y1499114D02*
G03X1524074Y1498576I2175J0D01*
G01X1524006Y1499114D02*
Y1500506D01*
G03X1523718Y1501202I-984J0*
G01X1500297Y1524624*
G03X1499601Y1524912I-696J-696*
G01X1498500*
X1497240Y1525536D02*
G03X1498500Y1524912I1260J960D01*
G01X1497240Y1525536D02*
G03X1495674I-783J-596D01*
G01X1495437Y1525287D02*
G03X1495674Y1525536I-1024J1209D01*
G01X1495437Y1525287D02*
G03X1495088Y1524535I635J-752D01*
G01Y1524334*
G03X1495322Y1523698I984J0*
G01X1490505D02*
G03X1495322I2408J-2044D01*
G01X1490505D02*
G03X1490739Y1524334I-751J636D01*
G01Y1524535*
G03X1490390Y1525287I-985J0*
G01X1489829Y1526496D02*
G03X1490390Y1525287I1584J0D01*
G01X1489829Y1526496D02*
Y1530296D01*
X1490013Y1531036D02*
G03X1489829Y1530296I1400J-740D01*
G01X1490013Y1531036D02*
G03Y1531956I-871J460D01*
G01X1489829Y1532696D02*
G03X1490013Y1531956I1584J0D01*
G01X1489829Y1532696D02*
Y1536496D01*
X1490390Y1537705D02*
G03X1489829Y1536496I1023J-1209D01*
G01X1490390Y1537706D02*
G03X1490739Y1538457I-636J751D01*
G01Y1540283*
G03X1490390Y1541035I-985J0*
G01X1489829Y1542244D02*
G03X1490390Y1541035I1584J0D01*
G01X1489829Y1542244D02*
Y1546044D01*
X1490013Y1546784D02*
G03X1489829Y1546044I1400J-740D01*
G01X1490013Y1546784D02*
G03Y1547704I-871J460D01*
G01X1489829Y1548444D02*
G03X1490013Y1547704I1584J0D01*
G01X1489829Y1548444D02*
Y1552244D01*
X1491413Y1553828D02*
G03X1489829Y1552244I0J-1584D01*
G01X1491413Y1553828D02*
X1494413D01*
X1495674Y1553204D02*
G03X1494413Y1553828I-1261J-960D01*
G01X1495674Y1553204D02*
G03X1497240I783J596D01*
G01X1498500Y1553828D02*
G03X1497240Y1553204I0J-1584D01*
G01X1498500Y1553828D02*
X1501500D01*
X1502760Y1553204D02*
G03X1501500Y1553828I-1260J-960D01*
G01X1502760Y1553204D02*
G03X1504326I783J596D01*
G01X1505587Y1553828D02*
G03X1504326Y1553204I-0J-1584D01*
G01X1505587Y1553828D02*
X1508587D01*
X1510171Y1552244D02*
G03X1508587Y1553828I-1584J0D01*
G01X1510171Y1552244D02*
Y1548444D01*
X1509987Y1547704D02*
G03X1510171Y1548444I-1400J740D01*
G01X1509987Y1547704D02*
G03Y1546784I871J-460D01*
G01X1510171Y1546044D02*
G03X1509987Y1546784I-1584J0D01*
G01X1510171Y1546044D02*
Y1542244D01*
X1509610Y1541035D02*
G03X1510171Y1542244I-1023J1209D01*
G01X1509610Y1541035D02*
G03X1509261Y1540283I636J-752D01*
G01Y1538457*
G03X1509610Y1537705I985J-0*
G01X1510171Y1536496D02*
G03X1509610Y1537705I-1584J0D01*
G01X1510171Y1536496D02*
Y1532696D01*
X1509987Y1531956D02*
G03X1510171Y1532696I-1400J740D01*
G01X1509987Y1531956D02*
G03Y1531036I871J-460D01*
G01X1510171Y1530296D02*
G03X1509987Y1531036I-1584J0D01*
G01X1510171Y1530296D02*
Y1528395D01*
G03X1510459Y1527699I984J0*
G01X1520751Y1517407*
G03X1522431Y1518103I696J696*
G01Y1518104*
Y1518111*
X1525193Y1521244D02*
G03X1522431Y1518111I398J-3134D01*
G01X1525193Y1521244D02*
G03X1525819Y1522858I-124J977D01*
G01X1525689Y1523028D02*
G03X1525819Y1522858I1788J1238D01*
G01X1525689Y1523028D02*
X1524935Y1524117D01*
G03X1524380Y1524507I-810J-560*
G01X1525961Y1530624D02*
G03X1524380Y1524507I-764J-3065D01*
G01X1525961Y1530624D02*
G03X1527177Y1531466I238J955D01*
G01X1533459Y1530793D02*
G03X1527177Y1531466I-3144J309D01*
G01X1533459Y1530793D02*
G03X1533629Y1530136I979J-97D01*
G01X1534383Y1529047*
X1534734Y1527420D02*
G03X1534383Y1529047I-2139J389D01*
G01X1534734Y1527420D02*
X1534406Y1525616D01*
G03X1534566Y1524880I969J-176*
G01X1534855Y1524462*
X1534948Y1524315D02*
G03X1534855Y1524462I-1881J-1091D01*
G01X1534948Y1524315D02*
X1535843Y1522773D01*
X1536136Y1521682D02*
G03X1535843Y1522773I-2175J-0D01*
G01X1536136Y1521682D02*
Y1521417D01*
G03X1537673Y1520602I984J-0*
G01X1538563Y1520876D02*
G03X1537673Y1520602I-0J-1585D01*
G01X1538563Y1520876D02*
X1540925D01*
X1541739Y1520651D02*
G03X1540925Y1520876I-814J-1360D01*
G01X1541739Y1520651D02*
G03X1542749I505J844D01*
G01X1543563Y1520876D02*
G03X1542749Y1520651I-0J-1585D01*
G01X1543563Y1520876D02*
X1545856D01*
G03X1546747Y1522278I0J984*
G01X1552462Y1522272D02*
G03X1546747Y1522278I-2856J1350D01*
G01X1552462Y1522272D02*
G03X1553433Y1520870I890J-421D01*
G01X1553563Y1520876D02*
G03X1553433Y1520870I-0J-1585D01*
G01X1553563Y1520876D02*
X1555925D01*
X1557493Y1519517D02*
G03X1555925Y1520876I-1568J-226D01*
G01X1557493Y1519517D02*
G03X1558794Y1518728I975J140D01*
G01X1562443Y1513954D02*
G03X1558794Y1518728I-2600J1794D01*
G01X1562443Y1513954D02*
G03X1563253Y1512411I810J-559D01*
G01X1577038*
G03X1577734Y1512699I-0J984*
G01X1580653Y1515618*
G03X1580925Y1516492I-696J696*
G01X1587451Y1513207D02*
G03X1580925Y1516492I-2018J4116D01*
G01X1587451Y1513207D02*
G03Y1511439I433J-884D01*
G01Y1503207D02*
G03Y1511439I-2018J4116D01*
G01Y1503207D02*
G03Y1501439I433J-884D01*
G01Y1493207D02*
G03Y1501439I-2018J4116D01*
G01Y1493207D02*
G03Y1491439I433J-884D01*
G01X1589808Y1485953D02*
G03X1587451Y1491439I-4375J1370D01*
G01X1589808Y1485953D02*
G03X1590747Y1484675I939J-294D01*
G01X1666276*
X1667813Y1484038D02*
G03X1666276Y1484675I-1537J-1538D01*
G01X1667813Y1484038D02*
X1670176Y1481676D01*
G03X1670872Y1481387I696J696*
G01X1671972*
X1673557Y1479803D02*
G03X1671972Y1481387I-1585J0D01*
G01X1673557Y1479803D02*
Y1476003D01*
X1673373Y1475263D02*
G03X1673557Y1476003I-1401J740D01*
G01X1673373Y1475263D02*
G03Y1474343I870J-460D01*
G01X1673557Y1473603D02*
G03X1673373Y1474343I-1585J0D01*
G01X1673557Y1473603D02*
Y1469803D01*
X1672376Y1468271D02*
G03X1673557Y1469803I-404J1532D01*
G01X1672376Y1468271D02*
G03X1672114Y1466478I250J-952D01*
G01X1668830D02*
G03X1672114I1642J-2698D01*
G01X1668830D02*
G03X1668569Y1468271I-511J841D01*
G01X1667388Y1469803D02*
G03X1668569Y1468271I1584J0D01*
G01X1667388Y1469803D02*
Y1473603D01*
X1667572Y1474343D02*
G03X1667388Y1473603I1400J-740D01*
G01X1667572Y1474343D02*
G03Y1475263I-871J460D01*
G01X1667388Y1476003D02*
G03X1667572Y1475263I1584J0D01*
G01X1667388Y1476003D02*
Y1477904D01*
G03X1667100Y1478600I-984J0*
G01X1665663Y1480037*
G03X1664967Y1480325I-696J-696*
G01X1655229*
G03X1654253Y1479216I-0J-984*
G01X1654265Y1479016D02*
G03X1654253Y1479216I-1584J-0D01*
G01X1654265Y1479016D02*
Y1475216D01*
X1654082Y1474476D02*
G03X1654265Y1475216I-1401J740D01*
G01X1654082Y1474476D02*
G03Y1473556I870J-460D01*
G01X1654183Y1473319D02*
G03X1654082Y1473556I-1502J-503D01*
G01X1654183Y1473319D02*
G03X1655117Y1472647I934J313D01*
G01X1657949*
G03X1658586Y1472881I-0J985*
G01Y1468064D02*
G03Y1472881I2044J2408D01*
G01Y1468064D02*
G03X1657949Y1468298I-637J-751D01*
G01X1654604*
G03X1653867Y1467966I0J-985*
G01X1652681Y1467431D02*
G03X1653867Y1467966I0J1585D01*
G01X1652681Y1467431D02*
X1649681D01*
X1648474Y1467989D02*
G03X1649681Y1467431I1207J1027D01*
G01X1648474Y1467989D02*
G03X1646862Y1466877I-749J-638D01*
G01X1641382Y1466974D02*
G03X1646862Y1466877I2712J-1620D01*
G01X1641382Y1466974D02*
G03X1641325Y1468067I-845J504D01*
G01X1641010Y1469016D02*
G03X1641325Y1468067I1584J-0D01*
G01X1641010Y1469016D02*
Y1472816D01*
X1641175Y1473519D02*
G03X1641010Y1472816I1419J-703D01*
G01X1641175Y1473519D02*
G03X1640293Y1474941I-882J438D01*
G01X1639615*
G03X1638788Y1474491I-0J-984*
G01X1630477Y1474532D02*
G03X1638788Y1474491I4169J2633D01*
G01X1630477Y1474532D02*
G03X1629645Y1474991I-832J-526D01*
G01X1598875*
G03X1597891Y1474022I-0J-985*
G01X1595325Y1469978D02*
G03X1597891Y1474022I-2018J4116D01*
G01X1595325Y1469978D02*
G03Y1468211I433J-884D01*
G01X1597281Y1466380D02*
G03X1595325Y1468211I-3974J-2286D01*
G01X1597281Y1466380D02*
G03X1597665Y1466006I853J491D01*
G01X1598165Y1465632D02*
G03X1597665Y1466006I-1538J-1538D01*
G01X1598165Y1465632D02*
X1617199Y1446597D01*
G03X1617895Y1446309I696J696*
G01X1621705*
X1623289Y1444725D02*
G03X1621705Y1446309I-1584J-0D01*
G01X1623289Y1444725D02*
Y1442953D01*
X1623271Y1442710D02*
G03X1623289Y1442953I-1566J243D01*
G01X1623271Y1442710D02*
G03Y1442409I972J-150D01*
G01X1623289Y1442166D02*
G03X1623271Y1442409I-1584J-0D01*
G01X1623289Y1442166D02*
Y1440394D01*
X1623271Y1440151D02*
G03X1623289Y1440394I-1566J243D01*
G01X1623271Y1440151D02*
G03Y1439850I972J-151D01*
G01X1623289Y1439607D02*
G03X1623271Y1439850I-1584J-0D01*
G01X1623289Y1439607D02*
Y1437835D01*
X1623271Y1437592D02*
G03X1623289Y1437835I-1566J243D01*
G01X1623271Y1437592D02*
G03Y1437291I972J-151D01*
G01X1623289Y1437048D02*
G03X1623271Y1437291I-1584J-0D01*
G01X1623289Y1437048D02*
Y1435276D01*
X1622172Y1433762D02*
G03X1623289Y1435276I-467J1514D01*
G01X1622172Y1433762D02*
G03X1621615Y1432320I290J-940D01*
G01X1616170Y1432302D02*
G03X1621615Y1432320I2728J-1593D01*
G01X1616170Y1432302D02*
G03X1615579Y1433748I-850J496D01*
G01X1614412Y1435276D02*
G03X1615579Y1433748I1584J0D01*
G01X1614412Y1435276D02*
Y1435562D01*
G03X1613428Y1436546I-984J-0*
G01X1598681*
X1597143Y1437183D02*
G03X1598681Y1436546I1538J1538D01*
G01X1597143Y1437183D02*
X1595012Y1439314D01*
G03X1594138Y1439586I-696J-696*
G01X1588799Y1444925D02*
G03X1594138Y1439586I4508J-831D01*
G01X1588799Y1444925D02*
G03X1588527Y1445799I-968J178D01*
G01X1576457Y1457869*
G03X1575761Y1458157I-696J-696*
G01X1553263*
G03X1552301Y1456965I-0J-984*
G01X1546811Y1454247D02*
G03X1552301Y1456965I2402J2052D01*
G01X1546811Y1454247D02*
G03X1545315I-748J-640D01*
G01X1542191Y1453224D02*
G03X1545315Y1454247I722J3075D01*
G01X1542191Y1453224D02*
G03X1541270Y1451570I-225J-958D01*
G01X1541374Y1451465*
G03X1541990Y1451180I696J696*
G01X1539788Y1445541D02*
G03X1541990Y1451180I1944J2490D01*
G01X1539788Y1445541D02*
G03X1538198Y1444765I-605J-776D01*
G01Y1434379*
G03X1538487Y1433683I985J0*
G01X1556912Y1415258*
G03X1557608Y1414970I696J696*
G01X1577362*
X1578946Y1413386D02*
G03X1577362Y1414970I-1584J-0D01*
G01X1578946Y1413386D02*
Y1405512D01*
X1577362Y1403928D02*
G03X1578946Y1405512I0J1584D01*
G01X1577362Y1403928D02*
X1570524D01*
G03X1569721Y1402374I-0J-985*
G01X1570013Y1401457D02*
G03X1569721Y1402374I-1584J-0D01*
G01X1570013Y1401457D02*
Y1397657D01*
X1569830Y1396917D02*
G03X1570013Y1397657I-1401J740D01*
G01X1569830Y1396917D02*
G03Y1395997I870J-460D01*
G01X1570013Y1395257D02*
G03X1569830Y1395997I-1584J-0D01*
G01X1570013Y1395257D02*
Y1391457D01*
X1569452Y1390247D02*
G03X1570013Y1391457I-1023J1210D01*
G01X1569452Y1390247D02*
G03X1569104Y1389496I636J-751D01*
G01Y1389306*
G03X1569431Y1388573I984J-0*
G01X1564614Y1387846D02*
G03X1569431Y1388573I2709J-1626D01*
G01X1564614Y1387846D02*
G03X1564754Y1388352I-844J506D01*
G01Y1389496*
G03X1564406Y1390247I-984J-0*
G01X1563845Y1391457D02*
G03X1564406Y1390247I1584J-0D01*
G01X1563845Y1391457D02*
Y1395257D01*
X1564028Y1395997D02*
G03X1563845Y1395257I1401J-740D01*
G01X1564028Y1395997D02*
G03Y1396917I-870J460D01*
G01X1563845Y1397657D02*
G03X1564028Y1396917I1584J-0D01*
G01X1563845Y1397657D02*
Y1401457D01*
X1564137Y1402374D02*
G03X1563845Y1401457I1292J-917D01*
G01X1564137Y1402374D02*
G03X1563335Y1403928I-802J569D01*
G01X1555709*
X1554124Y1405512D02*
G03X1555709Y1403928I1585J-0D01*
G01X1554124Y1405512D02*
Y1411487D01*
G03X1553836Y1412183I-984J-0*
G01X1535243Y1430776*
G03X1533851I-696J-696*
G01X1531597Y1428521*
G03X1531309Y1427825I696J-696*
G01Y1415954*
G03X1532293Y1414970I984J0*
G01X1539961*
X1541545Y1413386D02*
G03X1539961Y1414970I-1584J-0D01*
G01X1541545Y1413386D02*
Y1405512D01*
X1539961Y1403928D02*
G03X1541545Y1405512I-0J1584D01*
G01X1539961Y1403928D02*
X1531899D01*
G03X1530915Y1402943I0J-985*
G01Y1402630*
G03X1531263Y1401879I984J0*
G01X1531824Y1400669D02*
G03X1531263Y1401879I-1584J0D01*
G01X1531824Y1400669D02*
Y1396869D01*
X1531641Y1396129D02*
G03X1531824Y1396869I-1401J740D01*
G01X1531641Y1396129D02*
G03Y1395209I870J-460D01*
G01X1531824Y1394469D02*
G03X1531641Y1395209I-1584J0D01*
G01X1531824Y1394469D02*
Y1390669D01*
X1531263Y1389460D02*
G03X1531824Y1390669I-1023J1209D01*
G01X1531263Y1389460D02*
G03X1530915Y1388708I636J-752D01*
G01Y1387720*
G03X1531149Y1387083I984J0*
G01X1526332D02*
G03X1531149I2408J-2044D01*
G01X1526332D02*
G03X1526565Y1387720I-751J637D01*
G01Y1388708*
G03X1526217Y1389460I-984J0*
G01X1525656Y1390669D02*
G03X1526217Y1389460I1584J0D01*
G01X1525656Y1390669D02*
Y1394469D01*
X1525839Y1395209D02*
G03X1525656Y1394469I1401J-740D01*
G01X1525839Y1395209D02*
G03Y1396129I-870J460D01*
G01X1525656Y1396869D02*
G03X1525839Y1396129I1584J0D01*
G01X1525656Y1396869D02*
Y1400669D01*
X1526217Y1401879D02*
G03X1525656Y1400669I1023J-1210D01*
G01X1526217Y1401879D02*
G03X1526565Y1402630I-636J751D01*
G01Y1402943*
G03X1525581Y1403928I-984J0*
G01X1518307*
X1516723Y1405512D02*
G03X1518307Y1403928I1584J-0D01*
G01X1516723Y1405512D02*
Y1413386D01*
X1518307Y1414970D02*
G03X1516723Y1413386I0J-1584D01*
G01X1518307Y1414970D02*
X1525975D01*
G03X1526959Y1415954I-0J984*
G01Y1429134*
X1527596Y1430672D02*
G03X1526959Y1429134I1538J-1538D01*
G01X1527596Y1430672D02*
X1531592Y1434668D01*
G03X1531880Y1435364I-696J696*
G01Y1457423*
G03X1530200Y1458119I-984J-0*
G01X1514244Y1442163*
X1512706Y1441526D02*
G03X1514244Y1442163I0J2175D01*
G01X1512706Y1441526D02*
X1508671D01*
G03X1507687Y1440542I-0J-984*
G01Y1439961*
X1506908Y1438596D02*
G03X1507687Y1439961I-806J1365D01*
G01X1506908Y1438596D02*
G03X1506653Y1437118I500J-847D01*
G01X1507021Y1436102D02*
G03X1506653Y1437118I-1584J0D01*
G01X1507021Y1436102D02*
Y1432302D01*
X1506841Y1431568D02*
G03X1507021Y1432302I-1404J734D01*
G01X1506841Y1431568D02*
G03X1507713Y1430128I872J-456D01*
G01X1508736*
G03X1509373Y1430361I0J984*
G01Y1425544D02*
G03Y1430361I2044J2409D01*
G01Y1425544D02*
G03X1508736Y1425778I-637J-750D01*
G01X1507647*
G03X1506800Y1425295I0J-984*
G01X1505437Y1424518D02*
G03X1506800Y1425295I0J1584D01*
G01X1505437Y1424518D02*
X1502437D01*
X1500853Y1426102D02*
G03X1502437Y1424518I1584J0D01*
G01X1500853Y1426102D02*
Y1429902D01*
X1501036Y1430643D02*
G03X1500853Y1429902I1401J-741D01*
G01X1501036Y1430643D02*
G03Y1431562I-870J459D01*
G01X1500853Y1432302D02*
G03X1501036Y1431562I1584J0D01*
G01X1500853Y1432302D02*
Y1436102D01*
X1501221Y1437118D02*
G03X1500853Y1436102I1216J-1016D01*
G01X1501221Y1437118D02*
G03X1500966Y1438596I-755J631D01*
G01X1500187Y1439961D02*
G03X1500966Y1438596I1585J-0D01*
G01X1500187Y1439961D02*
Y1445917D01*
G03X1498507Y1446613I-984J-0*
G01X1498132Y1446238*
G03X1497844Y1445542I696J-696*
G01Y1439961*
X1497065Y1438596D02*
G03X1497844Y1439961I-805J1365D01*
G01X1497065Y1438596D02*
G03X1496810Y1437118I501J-847D01*
G01X1497179Y1436102D02*
G03X1496810Y1437118I-1585J0D01*
G01X1497179Y1436102D02*
Y1432302D01*
X1496995Y1431562D02*
G03X1497179Y1432302I-1401J740D01*
G01X1496995Y1431562D02*
G03Y1430643I870J-460D01*
G01X1497179Y1429902D02*
G03X1496995Y1430643I-1585J0D01*
G01X1497179Y1429902D02*
Y1426102D01*
X1495594Y1424518D02*
G03X1497179Y1426102I0J1584D01*
G01X1495594Y1424518D02*
X1492594D01*
X1491250Y1425264D02*
G03X1492594Y1424518I1344J838D01*
G01X1491250Y1425264D02*
G03X1489793Y1425505I-835J-521D01*
G01X1489649Y1430511D02*
G03X1489793Y1425505I-1854J-2558D01*
G01X1489649Y1430511D02*
G03X1491134Y1431689I577J797D01*
G01X1491010Y1432302D02*
G03X1491134Y1431689I1584J0D01*
G01X1491010Y1432302D02*
Y1436102D01*
X1491379Y1437118D02*
G03X1491010Y1436102I1215J-1016D01*
G01X1491379Y1437118D02*
G03X1491124Y1438596I-756J631D01*
G01X1490345Y1439961D02*
G03X1491124Y1438596I1584J-0D01*
G01X1490345Y1439961D02*
Y1443554D01*
G03X1488665Y1444250I-984J0*
G01X1465081Y1420667*
X1463543Y1420030D02*
G03X1465081Y1420667I0J2175D01*
G01X1463543Y1420030D02*
X1461279D01*
G03X1460468Y1419604I-0J-984*
G01X1458711Y1418088D02*
G03X1460468Y1419604I-2018J4117D01*
G01X1458711Y1418088D02*
G03Y1416321I433J-883D01*
G01X1454675D02*
G03X1458711I2018J-4116D01*
G01X1454675D02*
G03Y1418088I-433J884D01*
G01Y1426321D02*
G03Y1418088I2018J-4116D01*
G01Y1426321D02*
G03Y1428088I-433J884D01*
G01Y1436321D02*
G03Y1428088I2018J-4116D01*
G01Y1436321D02*
G03Y1438088I-433J884D01*
G01X1458711D02*
G03X1454675I-2018J4117D01*
G01X1458711D02*
G03Y1436321I433J-883D01*
G01X1460468Y1434805D02*
G03X1458711Y1436321I-3775J-2600D01*
G01X1460468Y1434805D02*
G03X1461279Y1434380I811J559D01*
G01X1469085*
G03X1469781Y1434668I0J984*
G01X1510015Y1474901*
G03X1509630Y1476531I-696J696*
G01X1507672Y1478419D02*
G03X1509630Y1476531I2958J1109D01*
G01X1507672Y1478419D02*
G03X1506054Y1478769I-922J-346D01*
G01X1492283Y1464998*
X1490745Y1464361D02*
G03X1492283Y1464998I0J2174D01*
G01X1490745Y1464361D02*
X1454368D01*
G03X1453424Y1463098I-0J-985*
G01X1447364D02*
G03X1453424I3030J-893D01*
G01X1447364D02*
G03X1446419Y1464361I-945J278D01*
G01X1441614*
G03X1440918Y1464072I0J-985*
G01X1437477Y1460632*
X1435940Y1459995D02*
G03X1437477Y1460632I-0J2174D01*
G01X1435940Y1459995D02*
X1427489D01*
G03X1426678Y1459569I-0J-985*
G01X1424921Y1458053D02*
G03X1426678Y1459569I-2018J4116D01*
G01X1424921Y1458053D02*
G03Y1456286I433J-884D01*
G01X1418787Y1450151D02*
G03X1424921Y1456286I4116J2018D01*
G01X1418787Y1450151D02*
G03X1417019I-884J-433D01*
G01X1409905Y1448701D02*
G03X1417019Y1450151I2998J3468D01*
G01X1409905Y1448701D02*
G03X1408277Y1447957I-644J-744D01*
G01Y1378346*
G03X1409261Y1377362I984J0*
G01X1682677*
G03X1683661Y1378346I0J984*
G01Y1423126*
G03X1682210Y1423992I-984J-0*
G01X1678032Y1428449D02*
G03X1682210Y1423992I2677J-1677D01*
G01X1678032Y1428449D02*
G03X1677316Y1429948I-835J522D01*
G01X1675922Y1431521D02*
G03X1677316Y1429948I1585J0D01*
G01X1675922Y1431521D02*
Y1433883D01*
X1675923Y1433911D02*
G03X1675922Y1433883I1584J-28D01*
G01X1675923Y1433911D02*
G03X1674243Y1434624I-985J17D01*
G01X1674242D02*
X1673706Y1434087D01*
X1671890Y1433335D02*
G03X1673706Y1434087I0J2569D01*
G01X1671890Y1433335D02*
X1669616D01*
G03X1669024Y1433137I0J-984*
G01X1668072Y1432819D02*
G03X1669024Y1433137I0J1585D01*
G01X1668072Y1432819D02*
X1664272D01*
X1663610Y1432964D02*
G03X1664272Y1432819I662J1440D01*
G01X1663610Y1432964D02*
G03X1662214Y1432070I-412J-894D01*
G01Y1421013*
G03X1662640Y1420202I984J-0*
G01X1657045D02*
G03X1662640I2798J-4060D01*
G01X1657045D02*
G03X1657471Y1421013I-558J811D01*
G01Y1432351*
G03X1656487Y1433335I-984J-0*
G01X1653392*
G03X1653150Y1433305I0J-984*
G01X1652761Y1433256D02*
G03X1653150Y1433305I0J1585D01*
G01X1652761Y1433256D02*
X1649761D01*
X1648380Y1434064D02*
G03X1649761Y1433256I1381J777D01*
G01X1648380Y1434064D02*
G03X1647522Y1434566I-858J-482D01*
G01X1645483*
X1643945Y1435203D02*
G03X1645483Y1434566I1538J1538D01*
G01X1643945Y1435203D02*
X1642890Y1436258D01*
G03X1642194Y1436546I-696J-696*
G01X1641793*
G03X1640809Y1435562I0J-984*
G01Y1435276*
X1639225Y1433692D02*
G03X1640809Y1435276I-0J1584D01*
G01X1639225Y1433692D02*
X1633516D01*
X1632779Y1433874D02*
G03X1633516Y1433692I737J1402D01*
G01X1632779Y1433874D02*
G03X1632322Y1433987I-459J-871D01*
G01X1630788Y1434624D02*
G03X1632322Y1433987I1537J1538D01*
G01X1630788Y1434624D02*
X1627604Y1437808D01*
G03X1627602Y1437810I-696J-696*
G01X1626959Y1439362D02*
G03X1627602Y1437810I2175J-8D01*
G01X1626959Y1439362D02*
Y1439366D01*
Y1445542*
G03X1626671Y1446238I-984J-0*
G01X1612956Y1459952*
G03X1612341Y1460237I-696J-696*
G01X1615747Y1463644D02*
G03X1612341Y1460237I-3149J-258D01*
G01X1615747Y1463644D02*
G03X1616032Y1463028I981J80D01*
G01X1630672Y1448388*
X1631307Y1446941D02*
G03X1630672Y1448388I-2173J-91D01*
G01X1631307Y1446941D02*
G03X1632760Y1446117I983J41D01*
G01X1633516Y1446309D02*
G03X1632760Y1446117I0J-1584D01*
G01X1633516Y1446309D02*
X1633810D01*
G03X1634756Y1447562I-0J984*
G01X1640473Y1446750D02*
G03X1634756Y1447562I-2678J1675D01*
G01X1640473Y1446750D02*
G03X1640510Y1445652I835J-522D01*
G01X1640809Y1444725D02*
G03X1640510Y1445652I-1584J-0D01*
G01X1640809Y1444725D02*
Y1444439D01*
G03X1641793Y1443455I984J0*
G01X1642354*
G03X1643050Y1443743I0J984*
G01X1643785Y1444478*
X1645323Y1445115D02*
G03X1643785Y1444478I0J-2174D01*
G01X1645323Y1445115D02*
X1647522D01*
G03X1648380Y1445617I0J985*
G01X1649761Y1446425D02*
G03X1648380Y1445617I0J-1584D01*
G01X1649761Y1446425D02*
X1652761D01*
X1653150Y1446376D02*
G03X1652761Y1446425I-389J-1535D01*
G01X1653150Y1446376D02*
G03X1653392Y1446346I242J954D01*
G01X1656528*
G03X1657120Y1446544I0J984*
G01X1657174Y1446583D02*
G03X1657120Y1446544I898J-1305D01*
G01X1657174Y1446583D02*
G03X1657601Y1447394I-558J811D01*
G01Y1448586*
G03X1657153Y1449411I-985J-0*
G01X1662748Y1449560D02*
G03X1657153Y1449411I-2905J3983D01*
G01X1662748Y1449560D02*
G03X1662344Y1448764I580J-796D01*
G01Y1447666*
G03X1663690Y1446751I984J0*
G01X1664272Y1446862D02*
G03X1663690Y1446751I0J-1584D01*
G01X1664272Y1446862D02*
X1668072D01*
X1669024Y1446544D02*
G03X1668072Y1446862I-952J-1266D01*
G01X1669024Y1446544D02*
G03X1669616Y1446346I592J786D01*
G01X1672252*
X1674068Y1445594D02*
G03X1672252Y1446346I-1816J-1816D01*
G01X1674068Y1445594D02*
X1674103Y1445559D01*
G03X1674799Y1445271I696J696*
G01X1674952*
G03X1675931Y1446357I-0J984*
G01X1675922Y1446521D02*
G03X1675931Y1446357I1585J0D01*
G01X1675922Y1446521D02*
Y1448883D01*
X1677507Y1450468D02*
G03X1675922Y1448883I-0J-1585D01*
G01X1677507Y1450468D02*
X1677746D01*
G03X1678731Y1451452I0J984*
G01Y1451901*
G03X1678544Y1452478I-985J-0*
G01X1682303Y1457253D02*
G03X1678544Y1452478I-1201J-2922D01*
G01X1682303Y1457253D02*
G03X1683661Y1458163I374J910D01*
G01X1595424Y1558740D02*
Y1559843D01*
G03X1594439Y1560827I-985J-0*
G01X1592477*
G03X1591858Y1559077I-0J-984*
G01X1593093Y1557530D02*
G03X1591858Y1559077I-4117J-2018D01*
G01X1593093Y1557530D02*
G03X1594860I883J433D01*
G01X1595241Y1558170D02*
G03X1594860Y1557530I3735J-2658D01*
G01X1595241Y1558170D02*
G03X1595424Y1558740I-802J570D01*
G01X1558545Y1552836D02*
G03Y1554599I-438J882D01*
G01X1557666Y1556018D02*
G03X1558545Y1554599I1584J-0D01*
G01X1557666Y1556018D02*
Y1559843D01*
G03X1556681Y1560827I-985J-0*
G01X1543319*
G03X1542334Y1559843I-0J-984*
G01Y1552368*
X1540750Y1550783D02*
G03X1542334Y1552368I0J1585D01*
G01X1540750Y1550783D02*
X1540270D01*
G03X1539495Y1549192I-0J-984*
G01X1539373Y1545150D02*
G03X1539495Y1549192I-2365J2094D01*
G01X1539373Y1545150D02*
G03X1540110Y1543513I737J-652D01*
G01X1540925*
X1541739Y1543289D02*
G03X1540925Y1543513I-814J-1360D01*
G01X1541739Y1543289D02*
G03X1542749I505J844D01*
G01X1543563Y1543513D02*
G03X1542749Y1543289I-0J-1584D01*
G01X1543563Y1543513D02*
X1545925D01*
X1546739Y1543289D02*
G03X1545925Y1543513I-814J-1360D01*
G01X1546739Y1543289D02*
G03X1547749I505J844D01*
G01X1548563Y1543513D02*
G03X1547749Y1543289I-0J-1584D01*
G01X1548563Y1543513D02*
X1550925D01*
X1551739Y1543289D02*
G03X1550925Y1543513I-814J-1360D01*
G01X1551739Y1543289D02*
G03X1552749I505J844D01*
G01X1553563Y1543513D02*
G03X1552749Y1543289I-0J-1584D01*
G01X1553563Y1543513D02*
X1555925D01*
X1557000Y1543093D02*
G03X1555925Y1543513I-1075J-1164D01*
G01X1557000Y1543093D02*
G03X1558652Y1543816I668J723D01*
G01Y1544894*
G03X1558274Y1545670I-984J0*
G01X1557666Y1546918D02*
G03X1558274Y1545670I1584J-0D01*
G01X1557666Y1546918D02*
Y1551418D01*
X1558545Y1552836D02*
G03X1557666Y1551418I705J-1418D01*
G01X1420885Y1456286D02*
G03Y1458053I-433J883D01*
G01X1418787Y1460151D02*
G03X1420885Y1458053I4116J2018D01*
G01X1418787Y1460151D02*
G03X1417019I-884J-433D01*
G01X1414921Y1458053D02*
G03X1417019Y1460151I-2018J4116D01*
G01X1414921Y1458053D02*
G03Y1456286I433J-884D01*
G01X1417019Y1454187D02*
G03X1414921Y1456286I-4116J-2018D01*
G01X1417019Y1454187D02*
G03X1418787I884J434D01*
G01X1420885Y1456286D02*
G03X1418787Y1454187I2018J-4117D01*
G01X1410885Y1456286D02*
G03Y1458053I-433J883D01*
G01X1409905Y1458701D02*
G03X1410885Y1458053I2998J3468D01*
G01X1409905Y1458701D02*
G03X1408277Y1457957I-644J-744D01*
G01Y1456382*
G03X1409905Y1455638I984J0*
G01X1410885Y1456286D02*
G03X1409905Y1455638I2018J-4117D01*
G01X1446983Y1488789D02*
G03X1447793Y1490332I0J984D01*
G01X1447610Y1493620D02*
G03X1447793Y1490332I2784J-1494D01*
G01X1447610Y1493620D02*
G03X1446743Y1495069I-867J465D01*
G01X1428132*
G03X1427208Y1493746I-0J-984*
G01X1427282Y1490812D02*
G03X1427207Y1493746I-4379J1357D01*
G01X1427282Y1490812D02*
G03X1427449Y1489912I940J-291D01*
G01X1428037Y1489164*
G03X1428811Y1488789I774J609*
G01X1446983*
X1524799Y1461821D02*
G03X1524771Y1463239I-696J696D01*
G01X1524350Y1463786D02*
G03X1524771Y1463239I1831J978D01*
G01X1524350Y1463786D02*
G03X1522860Y1464085I-869J-464D01*
G01X1518336Y1468427D02*
G03X1522860Y1464085I2530J-1892D01*
G01X1518336Y1468427D02*
G03X1517952Y1469914I-788J589D01*
G01X1517130Y1470773D02*
G03X1517952Y1469914I1472J585D01*
G01X1517130Y1470773D02*
G03X1515520Y1471105I-914J-364D01*
G01X1498269Y1453855*
G03X1498965Y1452175I696J-696*
G01X1514745*
G03X1515441Y1452463I0J984*
G01X1524799Y1461821*
X1549947Y1494409D02*
G03X1548740Y1495616I-950J257D01*
G01X1548327Y1495561D02*
G03X1548740Y1495616I-0J1585D01*
G01X1548327Y1495561D02*
X1547343D01*
X1547039Y1495591D02*
G03X1547343Y1495561I304J1555D01*
G01X1547039Y1495591D02*
G03X1546662I-189J-966D01*
G01X1546358Y1495561D02*
G03X1546662Y1495591I0J1585D01*
G01X1546358Y1495561D02*
X1545374D01*
X1545070Y1495591D02*
G03X1545374Y1495561I304J1555D01*
G01X1545070Y1495591D02*
G03X1544693I-188J-966D01*
G01X1544390Y1495561D02*
G03X1544693Y1495591I-0J1585D01*
G01X1544390Y1495561D02*
X1544207D01*
G03X1543245Y1494369I0J-984*
G01X1537070D02*
G03X1543245I3087J-668D01*
G01X1537070D02*
G03X1536108Y1495561I-962J208D01*
G01X1535531*
X1535228Y1495591D02*
G03X1535531Y1495561I303J1555D01*
G01X1535228Y1495591D02*
G03X1534851I-189J-966D01*
G01X1534547Y1495561D02*
G03X1534851Y1495591I0J1585D01*
G01X1534547Y1495561D02*
X1533563D01*
X1533259Y1495591D02*
G03X1533563Y1495561I304J1555D01*
G01X1533259Y1495591D02*
G03X1532882I-188J-966D01*
G01X1532579Y1495561D02*
G03X1532882Y1495591I-0J1585D01*
G01X1532579Y1495561D02*
X1531594D01*
X1531291Y1495591D02*
G03X1531594Y1495561I303J1555D01*
G01X1531291Y1495591D02*
G03X1530914I-189J-966D01*
G01X1530610Y1495561D02*
G03X1530914Y1495591I0J1585D01*
G01X1530610Y1495561D02*
X1529626D01*
X1529322Y1495591D02*
G03X1529626Y1495561I304J1555D01*
G01X1529322Y1495591D02*
G03X1528945I-188J-966D01*
G01X1528642Y1495561D02*
G03X1528945Y1495591I-0J1585D01*
G01X1528642Y1495561D02*
X1527657D01*
X1527354Y1495591D02*
G03X1527657Y1495561I303J1555D01*
G01X1527354Y1495591D02*
G03X1526977I-189J-966D01*
G01X1526673Y1495561D02*
G03X1526977Y1495591I0J1585D01*
G01X1526673Y1495561D02*
X1525689D01*
X1525276Y1495616D02*
G03X1525689Y1495561I413J1530D01*
G01X1525276Y1495616D02*
G03X1524069Y1494409I-257J-950D01*
G01X1524124Y1493996D02*
G03X1524069Y1494409I-1585J0D01*
G01X1524124Y1493996D02*
Y1493012D01*
X1524094Y1492708D02*
G03X1524124Y1493012I-1555J304D01*
G01X1524094Y1492708D02*
G03Y1492331I966J-188D01*
G01X1524124Y1492028D02*
G03X1524094Y1492331I-1585J-0D01*
G01X1524124Y1492028D02*
Y1491043D01*
X1524094Y1490740D02*
G03X1524124Y1491043I-1555J303D01*
G01X1524094Y1490740D02*
G03Y1490363I966J-189D01*
G01X1524124Y1490059D02*
G03X1524094Y1490363I-1585J0D01*
G01X1524124Y1490059D02*
Y1489075D01*
X1524094Y1488771D02*
G03X1524124Y1489075I-1555J304D01*
G01X1524094Y1488771D02*
G03Y1488394I966J-188D01*
G01X1524122Y1488155D02*
G03X1524094Y1488394I-1583J-64D01*
G01X1524122Y1488155D02*
G03X1525408Y1487258I984J40D01*
G01X1528787Y1482208D02*
G03X1525408Y1487258I-2409J2044D01*
G01X1528787Y1482208D02*
G03X1528553Y1481571I750J-637D01*
G01Y1476467*
X1527916Y1474929D02*
G03X1528553Y1476467I-1538J1538D01*
G01X1527916Y1474929D02*
X1525268Y1472281D01*
X1524657Y1471852D02*
G03X1525268Y1472281I-927J1967D01*
G01X1524657Y1471852D02*
G03X1524105Y1471114I420J-891D01*
G01X1524038Y1470846D02*
G03X1524105Y1471114I-1499J512D01*
G01X1524038Y1470846D02*
G03X1525359Y1469623I932J-319D01*
G01X1526704Y1469726D02*
G03X1525359Y1469623I-523J-2009D01*
G01X1526704Y1469726D02*
G03X1527222Y1469732I248J952D01*
G01X1527657Y1469793D02*
G03X1527222Y1469732I0J-1584D01*
G01X1527657Y1469793D02*
X1528642D01*
X1528945Y1469764D02*
G03X1528642Y1469793I-303J-1555D01*
G01X1528945Y1469764D02*
G03X1529322I189J966D01*
G01X1529626Y1469793D02*
G03X1529322Y1469764I-0J-1584D01*
G01X1529626Y1469793D02*
X1530596D01*
G03X1531558Y1470985I0J984*
G01X1537732Y1470979D02*
G03X1531558Y1470985I-3086J675D01*
G01X1537732Y1470979D02*
G03X1538613Y1469788I961J-210D01*
G01X1538788Y1469764D02*
G03X1538613Y1469788I-304J-1555D01*
G01X1538788Y1469764D02*
G03X1539165I188J966D01*
G01X1539469Y1469793D02*
G03X1539165Y1469764I-0J-1584D01*
G01X1539469Y1469793D02*
X1540453D01*
X1540756Y1469764D02*
G03X1540453Y1469793I-303J-1555D01*
G01X1540756Y1469764D02*
G03X1541133I189J966D01*
G01X1541437Y1469793D02*
G03X1541133Y1469764I0J-1584D01*
G01X1541437Y1469793D02*
X1542421D01*
X1542725Y1469764D02*
G03X1542421Y1469793I-304J-1555D01*
G01X1542725Y1469764D02*
G03X1543102I188J966D01*
G01X1543406Y1469793D02*
G03X1543102Y1469764I-0J-1584D01*
G01X1543406Y1469793D02*
X1544390D01*
X1544693Y1469764D02*
G03X1544390Y1469793I-303J-1555D01*
G01X1544693Y1469764D02*
G03X1545070I189J966D01*
G01X1545374Y1469793D02*
G03X1545070Y1469764I0J-1584D01*
G01X1545374Y1469793D02*
X1546358D01*
X1546662Y1469764D02*
G03X1546358Y1469793I-304J-1555D01*
G01X1546662Y1469764D02*
G03X1547039I188J966D01*
G01X1547343Y1469793D02*
G03X1547039Y1469764I-0J-1584D01*
G01X1547343Y1469793D02*
X1548327D01*
X1548740Y1469738D02*
G03X1548327Y1469793I-413J-1529D01*
G01X1548740Y1469738D02*
G03X1549947Y1470945I257J950D01*
G01X1549892Y1471358D02*
G03X1549947Y1470945I1584J0D01*
G01X1549892Y1471358D02*
Y1472343D01*
X1549921Y1472646D02*
G03X1549892Y1472343I1555J-303D01*
G01X1549921Y1472646D02*
G03Y1473023I-966J189D01*
G01X1549892Y1473327D02*
G03X1549921Y1473023I1584J-0D01*
G01X1549892Y1473327D02*
Y1474311D01*
X1549921Y1474615D02*
G03X1549892Y1474311I1555J-304D01*
G01X1549921Y1474615D02*
G03Y1474992I-966J188D01*
G01X1549892Y1475295D02*
G03X1549921Y1474992I1584J0D01*
G01X1549892Y1475295D02*
Y1476280D01*
X1549921Y1476583D02*
G03X1549892Y1476280I1555J-303D01*
G01X1549921Y1476583D02*
G03Y1476960I-966J189D01*
G01X1549892Y1477264D02*
G03X1549921Y1476960I1584J-0D01*
G01X1549892Y1477264D02*
Y1478248D01*
X1549921Y1478552D02*
G03X1549892Y1478248I1555J-304D01*
G01X1549921Y1478552D02*
G03Y1478929I-966J188D01*
G01X1549911Y1478988D02*
G03X1549921Y1478929I1565J244D01*
G01X1549911Y1478988D02*
G03X1549358Y1479726I-972J-153D01*
G01X1548941Y1479984D02*
G03X1549358Y1479726I1345J1709D01*
G01X1548941Y1479984D02*
G03X1547793Y1480034I-609J-774D01*
G01X1546999Y1485694D02*
G03X1547793Y1480034I-936J-3017D01*
G01X1546999Y1485694D02*
G03X1548224Y1486321I292J940D01*
G01X1549358Y1487597D02*
G03X1548224Y1486321I928J-1967D01*
G01X1549358Y1487597D02*
G03X1549911Y1488335I-419J890D01*
G01X1549921Y1488394D02*
G03X1549911Y1488335I1555J-303D01*
G01X1549921Y1488394D02*
G03Y1488771I-966J189D01*
G01X1549892Y1489075D02*
G03X1549921Y1488771I1584J-0D01*
G01X1549892Y1489075D02*
Y1490059D01*
X1549921Y1490363D02*
G03X1549892Y1490059I1555J-304D01*
G01X1549921Y1490363D02*
G03Y1490740I-966J188D01*
G01X1549892Y1491043D02*
G03X1549921Y1490740I1584J0D01*
G01X1549892Y1491043D02*
Y1492028D01*
X1549921Y1492331D02*
G03X1549892Y1492028I1555J-303D01*
G01X1549921Y1492331D02*
G03Y1492708I-966J189D01*
G01X1549892Y1493012D02*
G03X1549921Y1492708I1584J-0D01*
G01X1549892Y1493012D02*
Y1493996D01*
X1549947Y1494409D02*
G03X1549892Y1493996I1529J-413D01*
G01X1583415Y1491439D02*
G03Y1493207I-433J884D01*
G01X1580925Y1498153D02*
G03X1583415Y1493207I4508J-830D01*
G01X1580925Y1498153D02*
G03X1580653Y1499028I-968J179D01*
G01X1576632Y1503049*
G03X1575936Y1503337I-696J-696*
G01X1550559*
G03X1549704Y1501866I0J-984*
G01X1549905Y1501226D02*
G03X1549704Y1501866I-1578J-143D01*
G01X1549905Y1501226D02*
G03X1551268Y1500409I980J90D01*
G01X1555532Y1496611D02*
G03X1551268Y1500409I-3032J889D01*
G01X1555532Y1496611D02*
G03X1556069Y1495438I944J-277D01*
G01X1556979Y1494241D02*
G03X1556069Y1495438I-1566J-245D01*
G01X1556979Y1494241D02*
G03X1557531Y1493503I972J152D01*
G01X1558142Y1493073D02*
G03X1557531Y1493503I-1538J-1538D01*
G01X1558142Y1493073D02*
X1560987Y1490228D01*
X1561433Y1489582D02*
G03X1560987Y1490228I-1984J-891D01*
G01X1561433Y1489582D02*
G03X1561646Y1489278I898J403D01*
G01X1561066Y1484294D02*
G03X1561646Y1489278I-1617J2714D01*
G01X1561066Y1484294D02*
G03X1560874Y1482753I504J-845D01*
G01X1562176Y1481451*
G03X1563852Y1482231I696J696*
G01X1569044Y1484909D02*
G03X1563852Y1482231I-2044J-2409D01*
G01X1569044Y1484909D02*
G03X1569681Y1484675I637J750D01*
G01X1580119*
G03X1581058Y1485953I-0J984*
G01X1583415Y1491439D02*
G03X1581058Y1485953I2018J-4116D01*
G01X1632096Y1498819D02*
G03X1632096I-4931J0D01*
G01X1638002Y1540551D02*
G03X1638002I-4931J0D01*
G01X1502372Y1501181D02*
G03X1502372I-3159J0D01*
G01X1558697Y1492518D02*
X1583946D01*
X1560468Y1490747D02*
X1582385D01*
X1556970Y1494290D02*
X1581995D01*
X1561921Y1488975D02*
X1581157D01*
X1568177Y1485432D02*
X1581077D01*
X1555530Y1496062D02*
X1581026D01*
X1555641Y1497833D02*
X1580877D01*
X1562602Y1487203D02*
X1580850D01*
X1554856Y1499605D02*
X1580075D01*
X1549884Y1501377D02*
X1578304D01*
X1549980Y1503148D02*
X1576515D01*
X1562187Y1485432D02*
X1565823D01*
X1560609Y1483660D02*
X1564062D01*
X1561738Y1481888D02*
X1563821D01*
X1543087Y1492518D02*
X1549940D01*
X1534906Y1474802D02*
X1549940D01*
X1541277Y1490747D02*
X1549920D01*
X1537489Y1473030D02*
X1549920D01*
X1543261Y1494290D02*
X1549920D01*
X1528553Y1476573D02*
X1549920D01*
X1524121Y1488975D02*
X1549895D01*
X1537780Y1471259D02*
X1549895D01*
X1528553Y1478345D02*
X1549895D01*
X1527504Y1487203D02*
X1548784D01*
X1547948Y1480117D02*
X1548716D01*
X1529308Y1485432D02*
X1544516D01*
X1528553Y1480117D02*
X1544213D01*
X1529481Y1483660D02*
X1543061D01*
X1528605Y1481888D02*
X1543004D01*
X1524096Y1490747D02*
X1539038D01*
X1524076Y1492518D02*
X1537228D01*
X1524096Y1494290D02*
X1537054D01*
X1527789Y1474802D02*
X1534385D01*
X1526017Y1473030D02*
X1531802D01*
X1524139Y1471259D02*
X1531511D01*
X1506815Y1462400D02*
X1525080D01*
X1522985Y1464172D02*
X1523977D01*
X1505043Y1460629D02*
X1523607D01*
X1503271Y1458857D02*
X1521835D01*
X1501500Y1457085D02*
X1520063D01*
X1508586Y1464172D02*
X1518770D01*
X1513901Y1469487D02*
X1518412D01*
X1499728Y1455314D02*
X1518292D01*
X1512129Y1467715D02*
X1517936D01*
X1510358Y1465944D02*
X1517763D01*
X1515718Y1471259D02*
X1516713D01*
X1498059Y1453542D02*
X1516520D01*
X1427169Y1494290D02*
X1447705D01*
X1428235Y1488975D02*
X1447559D01*
X1427264Y1490747D02*
X1447552D01*
X1427474Y1492518D02*
X1447259D01*
X1408277Y1457085D02*
X1411432D01*
X1408864Y1458857D02*
X1409659D01*
X1414374Y1457085D02*
X1421432D01*
X1416072Y1458857D02*
X1419734D01*
X1416239Y1455314D02*
X1419567D01*
X1417529Y1460629D02*
X1418277D01*
X1542334Y1554526D02*
X1558668D01*
X1539331Y1543896D02*
X1558652D01*
X1542334Y1552755D02*
X1558400D01*
X1539746Y1545668D02*
X1558276D01*
X1542334Y1559841D02*
X1557666D01*
X1542334Y1558070D02*
X1557666D01*
X1542334Y1556298D02*
X1557666D01*
X1541520Y1550983D02*
X1557666D01*
X1539480Y1549211D02*
X1557666D01*
X1540161Y1547440D02*
X1557666D01*
X1591493Y1559841D02*
X1595424D01*
X1592781Y1558070D02*
X1595172D01*
X1621493Y1559841D02*
X1683661D01*
X1622781Y1558070D02*
X1683661D01*
X1623493Y1556298D02*
X1683661D01*
X1623453Y1554526D02*
X1683661D01*
X1622639Y1552755D02*
X1683661D01*
X1619687Y1550983D02*
X1683661D01*
X1608909Y1549211D02*
X1683661D01*
X1610681Y1547440D02*
X1683661D01*
X1611826Y1545668D02*
X1683661D01*
X1636693Y1543896D02*
X1683661D01*
X1637744Y1542125D02*
X1683661D01*
X1637998Y1540353D02*
X1683661D01*
X1637591Y1538581D02*
X1683661D01*
X1636282Y1536810D02*
X1683661D01*
X1611872Y1535038D02*
X1683661D01*
X1611872Y1533266D02*
X1683661D01*
X1611872Y1531495D02*
X1683661D01*
X1611872Y1529723D02*
X1683661D01*
X1611872Y1527951D02*
X1683661D01*
X1611872Y1526180D02*
X1683661D01*
X1611872Y1524408D02*
X1683661D01*
X1611872Y1522636D02*
X1683661D01*
X1611872Y1520865D02*
X1683661D01*
X1611872Y1519093D02*
X1683661D01*
X1611885Y1517322D02*
X1683661D01*
X1612788Y1515550D02*
X1683661D01*
X1612788Y1513778D02*
X1683661D01*
X1612704Y1512007D02*
X1683661D01*
X1616507Y1510235D02*
X1683661D01*
X1617963Y1508463D02*
X1683661D01*
X1618020Y1506692D02*
X1683661D01*
X1616811Y1504920D02*
X1683661D01*
X1629525Y1503148D02*
X1683661D01*
X1631381Y1501377D02*
X1683661D01*
X1632033Y1499605D02*
X1683661D01*
X1631997Y1497833D02*
X1683661D01*
X1631253Y1496062D02*
X1683661D01*
X1629115Y1494290D02*
X1683661D01*
X1606309Y1492518D02*
X1683661D01*
X1605764Y1490747D02*
X1683661D01*
X1589709Y1488975D02*
X1683661D01*
X1590016Y1487203D02*
X1683661D01*
X1589790Y1485432D02*
X1683661D01*
X1668191Y1483660D02*
X1683661D01*
X1669963Y1481888D02*
X1683661D01*
X1673525Y1480117D02*
X1683661D01*
X1673557Y1478345D02*
X1683661D01*
X1673557Y1476573D02*
X1683661D01*
X1673259Y1474802D02*
X1683661D01*
X1673557Y1473030D02*
X1683661D01*
X1673557Y1471259D02*
X1683661D01*
X1673525Y1469487D02*
X1683661D01*
X1671725Y1467715D02*
X1683661D01*
X1672774Y1465944D02*
X1683661D01*
X1673607Y1464172D02*
X1683661D01*
X1673315Y1462400D02*
X1683661D01*
X1670699Y1460629D02*
X1683661D01*
X1620203Y1458857D02*
X1683661D01*
X1662214Y1421652D02*
X1683661D01*
X1663057Y1419881D02*
X1683661D01*
X1664364Y1418109D02*
X1683661D01*
X1664769Y1416337D02*
X1683661D01*
X1664515Y1414566D02*
X1683661D01*
X1663463Y1412794D02*
X1683661D01*
X1578946Y1411022D02*
X1683661D01*
X1578946Y1409251D02*
X1683661D01*
X1578946Y1407479D02*
X1683661D01*
X1578946Y1405707D02*
X1683661D01*
X1577523Y1403936D02*
X1683661D01*
X1569847Y1402164D02*
X1683661D01*
X1570013Y1400392D02*
X1683661D01*
X1570013Y1398621D02*
X1683661D01*
X1569797Y1396849D02*
X1683661D01*
X1570013Y1395077D02*
X1683661D01*
X1570013Y1393306D02*
X1683661D01*
X1570013Y1391534D02*
X1683661D01*
X1569141Y1389762D02*
X1683661D01*
X1569939Y1387991D02*
X1683661D01*
X1570482Y1386219D02*
X1683661D01*
X1569937Y1384448D02*
X1683661D01*
X1530836Y1382676D02*
X1683661D01*
X1408277Y1380904D02*
X1683661D01*
X1408277Y1379133D02*
X1683661D01*
X1662214Y1423424D02*
X1683615D01*
X1663273Y1457085D02*
X1679556D01*
X1664443Y1451770D02*
X1678731D01*
X1662214Y1428739D02*
X1678154D01*
X1664444Y1455314D02*
X1678100D01*
X1664773Y1453542D02*
X1678043D01*
X1662214Y1425196D02*
X1677971D01*
X1662214Y1426967D02*
X1677556D01*
X1663270Y1449999D02*
X1676381D01*
X1662214Y1430510D02*
X1676287D01*
X1669165Y1446455D02*
X1675924D01*
X1662344Y1448227D02*
X1675922D01*
X1662237Y1432282D02*
X1675922D01*
X1673672Y1434054D02*
X1675915D01*
X1618431Y1460629D02*
X1670246D01*
X1662172Y1467715D02*
X1669220D01*
X1647198Y1465944D02*
X1668171D01*
X1654210Y1474802D02*
X1667686D01*
X1645214Y1462400D02*
X1667630D01*
X1663631Y1469487D02*
X1667420D01*
X1654265Y1476573D02*
X1667388D01*
X1662484Y1473030D02*
X1667388D01*
X1663690Y1471259D02*
X1667388D01*
X1647024Y1464172D02*
X1667338D01*
X1654265Y1478345D02*
X1667284D01*
X1654623Y1480117D02*
X1665573D01*
X1653586Y1467715D02*
X1659088D01*
X1654337Y1473030D02*
X1658776D01*
X1640948Y1448227D02*
X1657601D01*
X1621637Y1432282D02*
X1657471D01*
X1622050Y1430510D02*
X1657471D01*
X1621367Y1428739D02*
X1657471D01*
X1545203Y1426967D02*
X1657471D01*
X1546975Y1425196D02*
X1657471D01*
X1548746Y1423424D02*
X1657471D01*
X1550518Y1421652D02*
X1657471D01*
X1640350Y1446455D02*
X1656979D01*
X1552290Y1419881D02*
X1656628D01*
X1640535Y1449999D02*
X1656415D01*
X1621975Y1457085D02*
X1656412D01*
X1578946Y1412794D02*
X1656223D01*
X1554061Y1418109D02*
X1655321D01*
X1627290Y1451770D02*
X1655242D01*
X1623746Y1455314D02*
X1655241D01*
X1578420Y1414566D02*
X1655170D01*
X1555833Y1416337D02*
X1654916D01*
X1625518Y1453542D02*
X1654912D01*
X1646810Y1467715D02*
X1648776D01*
X1640233Y1434054D02*
X1648386D01*
X1640809Y1444684D02*
X1644023D01*
X1640845Y1435825D02*
X1643323D01*
X1616660Y1462400D02*
X1642975D01*
X1596119Y1467715D02*
X1641492D01*
X1615658Y1464172D02*
X1641165D01*
X1637331Y1473030D02*
X1641025D01*
X1596909Y1471259D02*
X1641010D01*
X1594856Y1469487D02*
X1641010D01*
X1614453Y1465944D02*
X1640991D01*
X1639110Y1474802D02*
X1640798D01*
X1629061Y1449999D02*
X1635056D01*
X1630818Y1448227D02*
X1634642D01*
X1631459Y1446455D02*
X1634326D01*
X1597766Y1473030D02*
X1631960D01*
X1622713Y1434054D02*
X1631791D01*
X1598295Y1474802D02*
X1630224D01*
X1611872Y1536810D02*
X1629859D01*
X1623289Y1435825D02*
X1629586D01*
X1611872Y1543896D02*
X1629448D01*
X1611872Y1538581D02*
X1628551D01*
X1611872Y1542125D02*
X1628398D01*
X1611872Y1540353D02*
X1628144D01*
X1623271Y1437597D02*
X1627815D01*
X1623289Y1444684D02*
X1626959D01*
X1623289Y1442912D02*
X1626959D01*
X1623289Y1441140D02*
X1626959D01*
X1623289Y1439369D02*
X1626959D01*
X1617379Y1446455D02*
X1626453D01*
X1605787Y1494290D02*
X1625216D01*
X1610848Y1503148D02*
X1624806D01*
X1615570Y1448227D02*
X1624682D01*
X1616896Y1496062D02*
X1623078D01*
X1617208Y1501377D02*
X1622950D01*
X1613798Y1449999D02*
X1622910D01*
X1618356Y1497833D02*
X1622334D01*
X1618414Y1499605D02*
X1622298D01*
X1612027Y1451770D02*
X1621138D01*
X1610255Y1453542D02*
X1619367D01*
X1609687Y1550983D02*
X1618266D01*
X1608483Y1455314D02*
X1617595D01*
X1543431Y1428739D02*
X1616428D01*
X1539888Y1432282D02*
X1616158D01*
X1606712Y1457085D02*
X1615823D01*
X1541660Y1430510D02*
X1615745D01*
X1612639Y1552755D02*
X1615314D01*
X1538254Y1434054D02*
X1614988D01*
X1538198Y1435825D02*
X1614376D01*
X1604940Y1458857D02*
X1614052D01*
X1611814Y1496062D02*
X1613812D01*
X1603168Y1460629D02*
X1611057D01*
X1597772Y1465944D02*
X1610744D01*
X1601397Y1462400D02*
X1609597D01*
X1599625Y1464172D02*
X1609539D01*
X1606422Y1496062D02*
X1606983D01*
X1577175Y1542125D02*
X1606735D01*
X1577175Y1540353D02*
X1606735D01*
X1576972Y1538581D02*
X1606735D01*
X1575596Y1536810D02*
X1606735D01*
X1557509Y1535038D02*
X1606735D01*
X1532616Y1533266D02*
X1606735D01*
X1533450Y1531495D02*
X1606735D01*
X1533915Y1529723D02*
X1606735D01*
X1534765Y1527951D02*
X1606735D01*
X1551460Y1526180D02*
X1606735D01*
X1552666Y1524408D02*
X1606735D01*
X1552608Y1522636D02*
X1606735D01*
X1588343Y1520865D02*
X1606735D01*
X1589662Y1519093D02*
X1606735D01*
X1577175Y1543896D02*
X1606718D01*
X1597111Y1517322D02*
X1606490D01*
X1577175Y1545668D02*
X1605188D01*
X1577175Y1547440D02*
X1603416D01*
X1587348Y1503148D02*
X1601751D01*
X1577175Y1549211D02*
X1601644D01*
X1588481Y1490747D02*
X1600535D01*
X1588871Y1494290D02*
X1600512D01*
X1589840Y1496062D02*
X1600485D01*
X1586920Y1492518D02*
X1599991D01*
X1587574Y1501377D02*
X1599942D01*
X1589409Y1499605D02*
X1599715D01*
X1589989Y1497833D02*
X1599715D01*
X1589687Y1550983D02*
X1598266D01*
X1538198Y1437597D02*
X1596729D01*
X1590017Y1517322D02*
X1596590D01*
X1588974Y1510235D02*
X1595358D01*
X1592639Y1552755D02*
X1595314D01*
X1538198Y1439369D02*
X1594952D01*
X1586952Y1512007D02*
X1594551D01*
X1589337Y1504920D02*
X1594158D01*
X1589661Y1515550D02*
X1594007D01*
X1588340Y1513778D02*
X1593716D01*
X1589873Y1508463D02*
X1593613D01*
X1589974Y1506692D02*
X1593322D01*
X1538198Y1441140D02*
X1589802D01*
X1538198Y1442912D02*
X1588878D01*
X1538198Y1444684D02*
X1588761D01*
X1576918Y1550983D02*
X1588266D01*
X1544470Y1446455D02*
X1587871D01*
X1575636Y1559841D02*
X1586460D01*
X1544885Y1448227D02*
X1586099D01*
X1576409Y1552755D02*
X1585314D01*
X1576675Y1558070D02*
X1585172D01*
X1576706Y1554526D02*
X1584499D01*
X1576706Y1556298D02*
X1584460D01*
X1544204Y1449999D02*
X1584327D01*
X1541115Y1451770D02*
X1582556D01*
X1556110Y1520865D02*
X1582523D01*
X1557661Y1519093D02*
X1581204D01*
X1562582Y1517322D02*
X1580849D01*
X1550755Y1453542D02*
X1580784D01*
X1562995Y1515550D02*
X1580584D01*
X1552214Y1455314D02*
X1579012D01*
X1562346Y1513778D02*
X1578813D01*
X1552282Y1457085D02*
X1577241D01*
X1564178Y1536810D02*
X1571648D01*
X1567334Y1559841D02*
X1571609D01*
X1566600Y1552755D02*
X1570835D01*
X1567334Y1558070D02*
X1570569D01*
X1567334Y1556298D02*
X1570538D01*
X1566332Y1554526D02*
X1570538D01*
X1567334Y1550983D02*
X1570326D01*
X1565555Y1538581D02*
X1570272D01*
X1567334Y1549211D02*
X1570069D01*
X1567334Y1547440D02*
X1570069D01*
X1566724Y1545668D02*
X1570069D01*
X1565758Y1543896D02*
X1570069D01*
X1565758Y1542125D02*
X1570069D01*
X1565758Y1540353D02*
X1570069D01*
X1531539Y1389762D02*
X1564718D01*
X1531843Y1384448D02*
X1564708D01*
X1530915Y1387991D02*
X1564686D01*
X1531671Y1386219D02*
X1564164D01*
X1531824Y1396849D02*
X1564061D01*
X1531032Y1402164D02*
X1564012D01*
X1531824Y1400392D02*
X1563845D01*
X1531824Y1398621D02*
X1563845D01*
X1531703Y1395077D02*
X1563845D01*
X1531824Y1393306D02*
X1563845D01*
X1531824Y1391534D02*
X1563845D01*
X1557509Y1536810D02*
X1560231D01*
X1540121Y1403936D02*
X1555548D01*
X1541545Y1411022D02*
X1554124D01*
X1541545Y1409251D02*
X1554124D01*
X1541545Y1407479D02*
X1554124D01*
X1541545Y1405707D02*
X1554124D01*
X1541545Y1412794D02*
X1553225D01*
X1541018Y1414566D02*
X1551453D01*
X1531309Y1416337D02*
X1549682D01*
X1531309Y1418109D02*
X1547910D01*
X1534509Y1526180D02*
X1547752D01*
X1544455Y1453542D02*
X1547671D01*
X1535916Y1522636D02*
X1546605D01*
X1534891Y1524408D02*
X1546547D01*
X1531309Y1419881D02*
X1546138D01*
X1531309Y1421652D02*
X1544367D01*
X1541110Y1520865D02*
X1543378D01*
X1531309Y1423424D02*
X1542595D01*
X1531309Y1425196D02*
X1540823D01*
X1531309Y1426967D02*
X1539052D01*
X1536305Y1520865D02*
X1538378D01*
X1531815Y1428739D02*
X1537280D01*
X1510171Y1535038D02*
X1536979D01*
X1510171Y1543896D02*
X1536962D01*
X1534978Y1536810D02*
X1536778D01*
X1533586Y1430510D02*
X1535508D01*
X1510171Y1549211D02*
X1534536D01*
X1510171Y1545668D02*
X1534270D01*
X1509893Y1547440D02*
X1533855D01*
X1510171Y1550983D02*
X1533480D01*
X1510140Y1536810D02*
X1532739D01*
X1408277Y1554526D02*
X1532666D01*
X1510086Y1552755D02*
X1532666D01*
X1529166Y1457085D02*
X1531880D01*
X1527395Y1455314D02*
X1531880D01*
X1525623Y1453542D02*
X1531880D01*
X1523852Y1451770D02*
X1531880D01*
X1522080Y1449999D02*
X1531880D01*
X1520308Y1448227D02*
X1531880D01*
X1518537Y1446455D02*
X1531880D01*
X1516765Y1444684D02*
X1531880D01*
X1514993Y1442912D02*
X1531880D01*
X1507890Y1441140D02*
X1531880D01*
X1507572Y1439369D02*
X1531880D01*
X1506436Y1437597D02*
X1531880D01*
X1507021Y1435825D02*
X1531880D01*
X1510166Y1542125D02*
X1531759D01*
X1507021Y1434054D02*
X1530978D01*
X1509261Y1538581D02*
X1530929D01*
X1509264Y1540353D02*
X1530755D01*
X1507021Y1432282D02*
X1529206D01*
X1510171Y1533266D02*
X1528014D01*
X1513271Y1430510D02*
X1527450D01*
X1509873Y1531495D02*
X1527180D01*
X1514477Y1428739D02*
X1526959D01*
X1514419Y1426967D02*
X1526959D01*
X1512959Y1425196D02*
X1526959D01*
X1467838Y1423424D02*
X1526959D01*
X1466066Y1421652D02*
X1526959D01*
X1460757Y1419881D02*
X1526959D01*
X1458752Y1418109D02*
X1526959D01*
X1458679Y1416337D02*
X1526959D01*
X1408277Y1556298D02*
X1526664D01*
X1408277Y1382676D02*
X1526644D01*
X1408277Y1387991D02*
X1526565D01*
X1408277Y1402164D02*
X1526448D01*
X1408277Y1559841D02*
X1526286D01*
X1408277Y1558070D02*
X1525981D01*
X1515522Y1522636D02*
X1525961D01*
X1408277Y1389762D02*
X1525941D01*
X1408277Y1386219D02*
X1525810D01*
X1408277Y1395077D02*
X1525777D01*
X1408277Y1396849D02*
X1525656D01*
X1408277Y1400392D02*
X1525656D01*
X1408277Y1398621D02*
X1525656D01*
X1408277Y1393306D02*
X1525656D01*
X1408277Y1391534D02*
X1525656D01*
X1408277Y1384448D02*
X1525637D01*
X1513750Y1524408D02*
X1524619D01*
X1472169Y1497833D02*
X1524105D01*
X1470397Y1496062D02*
X1524102D01*
X1517294Y1520865D02*
X1524044D01*
X1501950Y1499605D02*
X1524006D01*
X1502366Y1501377D02*
X1523544D01*
X1510171Y1529723D02*
X1522895D01*
X1519065Y1519093D02*
X1522588D01*
X1511979Y1526180D02*
X1522355D01*
X1510277Y1527951D02*
X1522062D01*
X1520849Y1517322D02*
X1522046D01*
X1501684Y1503148D02*
X1521772D01*
X1479255Y1504920D02*
X1520000D01*
X1506820Y1506692D02*
X1518229D01*
X1408277Y1403936D02*
X1518147D01*
X1460623Y1414566D02*
X1517250D01*
X1461239Y1412794D02*
X1516723D01*
X1461122Y1411022D02*
X1516723D01*
X1460198Y1409251D02*
X1516723D01*
X1408277Y1407479D02*
X1516723D01*
X1408277Y1405707D02*
X1516723D01*
X1507828Y1508463D02*
X1516457D01*
X1507655Y1510235D02*
X1514685D01*
X1505851Y1512007D02*
X1512914D01*
X1453920Y1513778D02*
X1511142D01*
X1502087Y1474802D02*
X1509915D01*
X1506736Y1425196D02*
X1509875D01*
X1506934Y1430510D02*
X1509563D01*
X1503859Y1476573D02*
X1509510D01*
X1462929Y1515550D02*
X1509371D01*
X1500316Y1473030D02*
X1508143D01*
X1505631Y1478345D02*
X1507700D01*
X1463764Y1517322D02*
X1507599D01*
X1498544Y1471259D02*
X1506372D01*
X1494764Y1519093D02*
X1505827D01*
X1496772Y1469487D02*
X1504600D01*
X1495972Y1520865D02*
X1504056D01*
X1454334Y1512007D02*
X1503598D01*
X1495001Y1467715D02*
X1502829D01*
X1481044Y1506692D02*
X1502623D01*
X1495916Y1522636D02*
X1502284D01*
X1496593Y1437597D02*
X1501438D01*
X1496894Y1425196D02*
X1501138D01*
X1493229Y1465944D02*
X1501057D01*
X1497057Y1430510D02*
X1500974D01*
X1497179Y1432282D02*
X1500853D01*
X1497179Y1435825D02*
X1500853D01*
X1497179Y1434054D02*
X1500853D01*
X1497179Y1428739D02*
X1500853D01*
X1497179Y1426967D02*
X1500853D01*
X1495088Y1524408D02*
X1500512D01*
X1497729Y1439369D02*
X1500302D01*
X1497844Y1444684D02*
X1500187D01*
X1497844Y1442912D02*
X1500187D01*
X1497844Y1441140D02*
X1500187D01*
X1498350Y1446455D02*
X1500027D01*
X1453788Y1464172D02*
X1499285D01*
X1453547Y1462400D02*
X1497514D01*
X1477484Y1503148D02*
X1496741D01*
X1473940Y1499605D02*
X1496475D01*
X1475712Y1501377D02*
X1496060D01*
X1453132Y1460629D02*
X1495742D01*
X1426072Y1458857D02*
X1493970D01*
X1424374Y1457085D02*
X1492199D01*
X1482011Y1437597D02*
X1491596D01*
X1489337Y1425196D02*
X1491295D01*
X1463473Y1519093D02*
X1491063D01*
X1476696Y1432282D02*
X1491010D01*
X1480240Y1435825D02*
X1491010D01*
X1478468Y1434054D02*
X1491010D01*
X1489649Y1430510D02*
X1490803D01*
X1450379Y1538581D02*
X1490739D01*
X1453280Y1524408D02*
X1490739D01*
X1449546Y1540353D02*
X1490736D01*
X1483783Y1439369D02*
X1490460D01*
X1426239Y1455314D02*
X1490427D01*
X1487326Y1442912D02*
X1490345D01*
X1485555Y1441140D02*
X1490345D01*
X1444967Y1531495D02*
X1490127D01*
X1441425Y1547440D02*
X1490107D01*
X1408277Y1552755D02*
X1489914D01*
X1454285Y1522636D02*
X1489911D01*
X1450287Y1526180D02*
X1489861D01*
X1450086Y1536810D02*
X1489860D01*
X1460891Y1520865D02*
X1489854D01*
X1435870Y1542125D02*
X1489834D01*
X1440884Y1550983D02*
X1489829D01*
X1441717Y1549211D02*
X1489829D01*
X1438810Y1545668D02*
X1489829D01*
X1435870Y1543896D02*
X1489829D01*
X1447471Y1535038D02*
X1489829D01*
X1444967Y1533266D02*
X1489829D01*
X1449098Y1529723D02*
X1489829D01*
X1450304Y1527951D02*
X1489829D01*
X1427277Y1453542D02*
X1488655D01*
X1427470Y1451770D02*
X1486884D01*
X1469610Y1425196D02*
X1486253D01*
X1474925Y1430510D02*
X1485941D01*
X1426941Y1449999D02*
X1485112D01*
X1471381Y1426967D02*
X1484794D01*
X1473153Y1428739D02*
X1484736D01*
X1425242Y1448227D02*
X1483340D01*
X1458410Y1446455D02*
X1481569D01*
X1460549Y1444684D02*
X1479797D01*
X1453651Y1510235D02*
X1478419D01*
X1461222Y1442912D02*
X1478025D01*
X1453082Y1494290D02*
X1477632D01*
X1425601Y1508463D02*
X1476647D01*
X1461152Y1441140D02*
X1476254D01*
X1453528Y1492518D02*
X1475860D01*
X1424494Y1506692D02*
X1474876D01*
X1460295Y1439369D02*
X1474482D01*
X1453236Y1490747D02*
X1474088D01*
X1426570Y1504920D02*
X1473104D01*
X1458241Y1437597D02*
X1472710D01*
X1453228Y1488975D02*
X1472299D01*
X1427382Y1503148D02*
X1471332D01*
X1459505Y1435825D02*
X1470939D01*
X1427418Y1501377D02*
X1469561D01*
X1427608Y1499605D02*
X1467771D01*
X1454171Y1520865D02*
X1460369D01*
X1408277Y1426967D02*
X1455197D01*
X1408277Y1437597D02*
X1455144D01*
X1408277Y1446455D02*
X1454976D01*
X1408277Y1416337D02*
X1454707D01*
X1408277Y1418109D02*
X1454634D01*
X1408277Y1435825D02*
X1453881D01*
X1408277Y1428739D02*
X1453692D01*
X1408277Y1425196D02*
X1453219D01*
X1408277Y1409251D02*
X1453187D01*
X1408277Y1439369D02*
X1453091D01*
X1408277Y1444684D02*
X1452837D01*
X1408277Y1414566D02*
X1452763D01*
X1408277Y1419881D02*
X1452741D01*
X1408277Y1434054D02*
X1452498D01*
X1408277Y1430510D02*
X1452433D01*
X1408277Y1423424D02*
X1452274D01*
X1408277Y1411022D02*
X1452264D01*
X1408277Y1441140D02*
X1452234D01*
X1408277Y1442912D02*
X1452164D01*
X1408277Y1412794D02*
X1452147D01*
X1408277Y1421652D02*
X1452142D01*
X1408277Y1432282D02*
X1452109D01*
X1427059Y1510235D02*
X1448711D01*
X1427196Y1513778D02*
X1448442D01*
X1427484Y1512007D02*
X1448028D01*
X1437474Y1460629D02*
X1447656D01*
X1439246Y1462400D02*
X1447241D01*
X1445349Y1535038D02*
X1447017D01*
X1441035Y1464172D02*
X1446999D01*
X1426479Y1535038D02*
X1439021D01*
X1435870Y1540353D02*
X1438800D01*
X1425756Y1538581D02*
X1438798D01*
X1424438Y1536810D02*
X1438798D01*
X1435757Y1545668D02*
X1438356D01*
X1426000Y1515550D02*
X1431458D01*
X1425865Y1545668D02*
X1429913D01*
X1408277Y1550983D02*
X1429865D01*
X1408277Y1549211D02*
X1429701D01*
X1408277Y1547440D02*
X1429701D01*
X1424382Y1517322D02*
X1428966D01*
X1426489Y1519093D02*
X1427013D01*
X1415242Y1448227D02*
X1420564D01*
X1415865Y1545668D02*
X1419941D01*
X1416941Y1449999D02*
X1418865D01*
X1417237Y1543896D02*
X1418569D01*
X1408315Y1448227D02*
X1410564D01*
X1408584Y1545668D02*
X1409941D01*
G54D181*
X1562500Y1549168D03*
Y1558268D03*
Y1567368D03*
G54D182*
X1537500Y1558268D03*
G54D262*
X1782283Y1401624D03*
Y1407824D03*
X1738266Y1443755D03*
Y1437555D03*
X1573622Y1549656D03*
Y1555856D03*
X1432785Y1548382D03*
Y1542182D03*
X1441883Y1538372D03*
Y1532172D03*
X1494094Y1428002D03*
Y1434202D03*
X1503937Y1428002D03*
Y1434202D03*
X1528740Y1392569D03*
Y1398769D03*
X1566929Y1393357D03*
Y1399557D03*
X1513386Y1594538D03*
Y1600738D03*
Y1607924D03*
Y1614124D03*
X1670472Y1477903D03*
Y1471703D03*
X1651181Y1470916D03*
Y1477116D03*
X1644094Y1470916D03*
Y1477116D03*
X1507087Y1534596D03*
Y1528396D03*
X1500000Y1534596D03*
Y1528396D03*
X1492913Y1534596D03*
Y1528396D03*
X1651261Y1442941D03*
Y1436741D03*
X1507087Y1544144D03*
Y1550344D03*
X1492913Y1544144D03*
Y1550344D03*
X1500000Y1544144D03*
Y1550344D03*
X1753543Y1414124D03*
Y1407924D03*
G54D278*
X2110514Y1533620D03*
X2099884Y1583620D03*
X2093979Y1609210D03*
G54D282*
X1770866Y1445768D03*
Y1436909D03*
G54D283*
X1833680Y1440462D03*
Y1415265D03*
X1632731Y1584289D03*
Y1609486D03*
G54D284*
X1771049Y1407914D03*
Y1411654D03*
Y1415394D03*
X1761797D03*
Y1407914D03*
G54D285*
X1722979Y1432702D03*
Y1437702D03*
Y1442702D03*
Y1447702D03*
X1681050D03*
Y1442702D03*
Y1437702D03*
Y1432702D03*
G54D286*
X1636370Y1436162D03*
Y1438721D03*
Y1441280D03*
Y1443839D03*
X1618851D03*
Y1441280D03*
Y1438721D03*
Y1436162D03*
G54D287*
X1526181Y1466240D03*
G54D288*
X1528150D03*
X1530118D03*
X1532087D03*
X1534055D03*
X1536024D03*
X1537992D03*
X1539961D03*
X1541929D03*
X1543898D03*
X1545866D03*
X1547835D03*
Y1499114D03*
X1545866D03*
X1543898D03*
X1541929D03*
X1539961D03*
X1537992D03*
X1536024D03*
X1534055D03*
X1532087D03*
X1530118D03*
X1528150D03*
X1526181D03*
G54D289*
X1553445Y1471850D03*
Y1473819D03*
Y1475787D03*
Y1477756D03*
Y1479724D03*
Y1481693D03*
Y1483661D03*
Y1485630D03*
Y1487598D03*
Y1489567D03*
Y1491535D03*
Y1493504D03*
X1520571D03*
Y1491535D03*
Y1489567D03*
Y1487598D03*
Y1485630D03*
Y1483661D03*
Y1481693D03*
Y1479724D03*
Y1477756D03*
Y1475787D03*
Y1473819D03*
Y1471850D03*
G54D290*
X1503937Y1443701D03*
X1494094D03*
G54D291*
X1485201Y1606724D03*
Y1604756D03*
Y1602787D03*
X1492091D03*
Y1604756D03*
Y1606724D03*
G54D292*
X1554744Y1538484D03*
X1549744D03*
X1544744D03*
X1539744D03*
Y1515846D03*
X1544744D03*
X1549744D03*
X1554744D03*
G54D293*
X2052756Y1422441D03*
X1964173D03*
G54D294*
X1566535Y1409449D03*
X1529134D03*
G54D295*
X1421772Y1626417D03*
X1423189Y1576102D03*
X2162598Y1434252D03*
Y1414252D03*
X2110630Y1414173D03*
Y1434173D03*
X2162452Y1501781D02*
X2162598Y1501635D01*
G54D296*
Y1434252D02*
Y1501635D01*
X1820247Y1617917D02*
X2033071D01*
X2085272*
X2093979Y1609210*
X2141971*
X2162452Y1588729*
Y1515281*
G54D297*
X1488583Y1611811D02*
Y1606009D01*
X1489867Y1604724*
X1492059*
X1492091Y1604756*
X1485201D02*
X1485232Y1604724D01*
X1487348*
X1488583Y1603489*
Y1597244*
G54D317*
X1528740Y1385039D03*
X1567323Y1386220D03*
X1766535Y1402362D03*
X1782283Y1395276D03*
X1833858Y1400787D03*
X1511417Y1427953D03*
X1487795D03*
X1618898Y1430709D03*
X1680709Y1426772D03*
X1729921D03*
X1753150Y1422835D03*
X1774409Y1424803D03*
X1460236Y1471260D03*
X1450394Y1462205D03*
X1510630Y1479528D03*
X1520866Y1466535D03*
X1541732Y1448031D03*
X1549213Y1456299D03*
X1561024Y1474409D03*
X1553937Y1466929D03*
X1542913Y1456299D03*
X1546063Y1482677D03*
X1534646Y1471654D03*
X1567000Y1482500D03*
X1612598Y1463386D03*
X1637795Y1448425D03*
X1660630Y1470472D03*
X1644094Y1465354D03*
X1681102Y1454331D03*
X1670472Y1463780D03*
X1730315Y1450394D03*
X1770866Y1452362D03*
X1460630Y1517717D03*
X1450394Y1492126D03*
X1451181Y1522047D03*
Y1512205D03*
X1504724Y1509055D03*
X1492913Y1521654D03*
X1499213Y1501181D03*
X1525591Y1518110D03*
X1559449Y1487008D03*
X1526378Y1484252D03*
X1549606Y1523622D03*
X1540157Y1493701D03*
X1559843Y1515748D03*
X1552500Y1497500D03*
X1596457Y1507087D03*
X1596850Y1514173D03*
X1615354Y1498819D03*
X1614961Y1507480D03*
X1603150Y1492520D03*
X1438583Y1548819D03*
X1447244Y1527165D03*
Y1538189D03*
X1530315Y1531102D03*
X1525197Y1527559D03*
X1533858Y1539764D03*
X1537008Y1547244D03*
X1529134Y1558268D03*
X1573622Y1539764D03*
X1562205D03*
X1488583Y1597244D03*
X1513386Y1588583D03*
X1521654Y1600787D03*
X1548031Y1580315D03*
X1488583Y1611811D03*
X1513386Y1620472D03*
X1526378Y1605512D03*
X1618504Y1609449D03*
X1632677Y1624409D03*
G74*
X0Y0D02*
M02*
