*
*
G04 PADS 9.5 Build Number: 522968 generated Gerber (RS-274-X) file*
G04 PC Version=2.1*
*
%IN "opqbox2.pcb"*%
*
%MOIN*%
*
%FSLAX35Y35*%
*
*
*
*
G04 PC Standard Apertures*
*
*
G04 Thermal Relief Aperture macro.*
%AMTER*
1,1,$1,0,0*
1,0,$1-$2,0,0*
21,0,$3,$4,0,0,45*
21,0,$3,$4,0,0,135*
%
*
*
G04 Annular Aperture macro.*
%AMANN*
1,1,$1,0,0*
1,0,$2,0,0*
%
*
*
G04 Odd Aperture macro.*
%AMODD*
1,1,$1,0,0*
1,0,$1-0.005,0,0*
%
*
*
G04 PC Custom Aperture Macros*
*
*
*
*
*
*
G04 PC Aperture Table*
*
%ADD010C,0.001*%
%ADD013C,0.01*%
%ADD028C,0.06*%
%ADD033C,0.03937*%
%ADD037C,0.06693*%
%ADD073R,0.038X0.03*%
%ADD083R,0.06X0.06*%
%ADD084C,0.01575*%
%ADD085C,0.01181*%
%ADD102C,0.015*%
%ADD127C,0.01969*%
%ADD181R,0.065X0.045*%
%ADD182R,0.065X0.118*%
%ADD262R,0.03X0.038*%
%ADD278C,0.07087*%
%ADD282R,0.01772X0.04528*%
%ADD283R,0.05512X0.13386*%
%ADD284R,0.05709X0.02362*%
%ADD285R,0.07087X0.02362*%
%ADD286R,0.05709X0.01772*%
%ADD287O,0.00984X0.03937*%
%ADD288R,0.00984X0.03937*%
%ADD289R,0.03937X0.00984*%
%ADD290R,0.04331X0.0748*%
%ADD291R,0.03898X0.01181*%
%ADD292R,0.02362X0.0689*%
%ADD293C,0.06299*%
%ADD294R,0.21654X0.07874*%
%ADD295C,0.11811*%
%ADD296C,0.07874*%
%ADD297C,0.00984*%
%ADD317C,0.0315*%
*
*
*
*
G04 PC Circuitry*
G04 Layer Name opqbox2.pcb - circuitry*
%LPD*%
*
*
G04 PC Custom Flashes*
G04 Layer Name opqbox2.pcb - flashes*
%LPD*%
*
*
G04 PC Circuitry*
G04 Layer Name opqbox2.pcb - circuitry*
%LPD*%
*
G54D10*
G54D13*
G01X246144Y371986D02*
X247610Y370520D01*
X250746Y371986D02*
X249280Y370520D01*
X366793Y320258D02*
X365234Y321817D01*
X361553Y320258D02*
X363113Y321817D01*
X361553Y326298D02*
X363113Y324739D01*
X366793Y326298D02*
X365234Y324739D01*
X243148Y353778D02*
X241883Y352513D01*
X235571Y402822D02*
X233499Y404894D01*
X226831Y402822D02*
X228903Y404894D01*
X251831Y406472D02*
X253610Y408252D01*
X260571Y406472D02*
X258792Y408252D01*
X191081Y404939D02*
X192640Y403380D01*
X196321Y404939D02*
X194761Y403380D01*
X183994Y404939D02*
X185554Y403380D01*
X189234Y404939D02*
X187675Y403380D01*
X183994Y398899D02*
X185554Y400458D01*
X198167Y404939D02*
X199727Y403380D01*
X203408Y404939D02*
X201848Y403380D01*
X203408Y398899D02*
X201848Y400458D01*
X217360Y321813D02*
X216096Y323077D01*
X211183Y321813D02*
X212447Y323077D01*
X250234Y346691D02*
X248970Y345427D01*
X218414Y314870D02*
X219534Y315991D01*
X264703Y410451D02*
X266262Y408891D01*
X269943Y410451D02*
X268383Y408891D01*
X269943Y404410D02*
X268383Y405970D01*
X264703Y404410D02*
X266262Y405970D01*
X370087Y281976D02*
X371553Y283442D01*
X370087Y286578D02*
X371553Y285112D01*
X308577Y285731D02*
X309957Y287110D01*
X316526Y285731D02*
X315146Y287110D01*
X218414Y320760D02*
X219534Y319639D01*
X244057Y346691D02*
X245321Y345427D01*
X243148Y347600D02*
X241883Y348865D01*
G54D28*
X611811Y338583D03*
Y398583D03*
X584252Y397638D03*
Y337638D03*
X556693Y338583D03*
Y398583D03*
X567323Y248976D03*
X721654Y300787D03*
X661654D03*
X602451Y238717D03*
Y298717D03*
X490551Y349213D03*
Y289213D03*
X116604Y303744D03*
X106604D03*
X116604Y313744D03*
X106604D03*
X116604Y323744D03*
X106604D03*
X116604Y333744D03*
X106604D03*
X116604Y343744D03*
X106604D03*
X116604Y353744D03*
X106604D03*
X116604Y363744D03*
X106604D03*
X116604Y373744D03*
X106604D03*
X116604Y383744D03*
X106604D03*
X116604Y393744D03*
X106604D03*
X287008Y295669D03*
Y305669D03*
Y315669D03*
Y325669D03*
X110630Y252362D03*
Y262362D03*
Y272362D03*
Y282362D03*
X279134Y368898D03*
Y358898D03*
Y348898D03*
Y338898D03*
X282677Y407087D03*
X292677D03*
X302677D03*
X312677D03*
X567343Y311050D03*
G54D33*
X602451Y238717D02*
X632418D01*
X644882Y251181*
Y261417*
X423622Y278346D02*
X442470Y259498D01*
X447244*
X446850Y274409D02*
X447244D01*
Y265698*
X475984Y246850D02*
Y253199D01*
X447244Y259498D02*
X455498D01*
Y259489*
X475984Y259399D02*
Y259799D01*
X484252Y268067*
X508221Y292036*
X527381*
Y266840D02*
X527559Y266661D01*
Y252362*
X644882Y261417D02*
Y284016D01*
X661654Y300787*
X416680Y299277D02*
Y303027D01*
X424016*
Y301969*
X416680Y284277D02*
X419278D01*
X423622Y278346*
X527343Y311050D02*
Y303409D01*
X527381Y303371*
Y292036*
X567323Y288976D02*
Y311030D01*
X567343Y311050*
X567323Y288976D02*
X577064Y298717D01*
X602451*
X721654Y300787D02*
X733465Y288976D01*
Y261417*
X721654Y346006D02*
Y300787D01*
X230709Y398819D02*
Y409843D01*
X255906Y391339D02*
Y400743D01*
X256201*
X267323Y391339D02*
Y401231D01*
X674016Y370923D02*
Y425591D01*
X707480Y459055*
X674016Y370923D02*
X685433Y359506D01*
X721654*
X256201Y409843D02*
X230709D01*
X222835*
X272835Y444094D02*
X292913D01*
X256250Y443750D02*
X256594Y444094D01*
X272835*
X241732Y431890D02*
X250050D01*
X256250D02*
Y443750D01*
X256201Y418943D02*
X256250D01*
Y431890*
X292913Y444094D02*
X322138D01*
X326432Y439801*
Y435864*
X292677Y407087D02*
Y444331D01*
X292913Y444094*
X326432Y435864D02*
X328565Y437996D01*
X362373*
X127559Y467323D02*
X150787D01*
X164173Y480709*
X181102*
X236220*
X256250Y460680*
Y443750*
X181102Y480709D02*
X182283Y479528D01*
Y463386*
X268110Y464567D02*
X272835Y459843D01*
Y444094*
X312205Y461024D02*
X312242Y461060D01*
X326432*
X326378Y475984D02*
Y461060D01*
X326432*
G54D37*
X513948Y469492D03*
Y427169D03*
X362373Y437996D03*
Y469492D03*
X455422Y242700D03*
X450000Y328346D03*
X268110Y464567D03*
X326772Y392126D03*
X328346Y328740D03*
X353543Y267717D03*
Y305118D03*
X320866Y350394D03*
X127559Y467323D03*
Y457480D03*
Y449606D03*
Y439764D03*
G54D73*
X461761Y276772D03*
X455561D03*
X450474Y288152D03*
X444274D03*
X250050Y431890D03*
X256250D03*
X130860Y373737D03*
X137060D03*
X199557Y459449D03*
X193357D03*
Y452362D03*
X199557D03*
X296900Y358661D03*
X303100D03*
X359873Y287478D03*
X353673D03*
X359873Y295352D03*
X353673D03*
X450381Y296989D03*
X444181D03*
X296900Y350635D03*
X303100D03*
X296804Y365589D03*
X303004D03*
G54D83*
X756356Y483858D03*
X742856D03*
X646120Y397638D03*
X632620D03*
X567323Y288976D03*
X721654Y359506D03*
Y346006D03*
X527343Y311050D03*
G54D84*
X353543Y267717D02*
Y287478D01*
X353673*
X353543Y305118D02*
X353673Y305906D01*
Y295352*
X374751Y299277D02*
X374803D01*
Y305906*
G54D85*
X222441Y236614D02*
Y244144D01*
X110630Y272362D02*
X164094Y283780D01*
X209646Y329331*
X214272*
X110630Y262362D02*
X157244Y273780D01*
X210827Y327362*
X214272*
X181496Y279528D02*
X187795D01*
Y279577*
X197638D02*
Y279528D01*
X205118*
X222835Y261417D02*
Y280709D01*
X227756Y285630*
Y317815*
X222835Y261024D02*
Y261417D01*
X222441Y250344D02*
Y261024D01*
X222835Y261417*
X260236Y261024D02*
X260630D01*
Y251131*
Y244931D02*
Y238189D01*
X261024Y237795*
X461761Y276772D02*
Y276636D01*
X468110*
Y276378*
X455498Y266969D02*
Y276708D01*
X455561Y276772*
X464750Y266969D02*
X469331D01*
X470472Y268110*
X484209*
X484252Y268067*
X116604Y323744D02*
X121206Y328346D01*
X187445*
X202208Y343110*
X214272*
X116604Y313744D02*
X129640D01*
X134006Y318110*
X184446*
X205509Y339173*
X214272*
X153937Y322835D02*
X185332D01*
X203639Y341142*
X214272*
X197638Y285777D02*
Y295276D01*
X187795Y285777D02*
Y295276D01*
Y296850*
X192520Y301575*
X209755*
X223819Y315639*
Y317815*
X197638Y295276D02*
X206407D01*
X225787Y314656*
Y317815*
X228346Y323228D02*
X232392D01*
X235630Y319991*
Y317815*
X235724Y317721*
Y320084*
X239567Y317815D02*
Y314656D01*
X242316Y311906*
X270771*
X287008Y295669*
X237598Y317815D02*
Y313189D01*
X242913Y307874*
X233661Y317815D02*
Y310827D01*
X236614Y307874*
X231693Y317815D02*
Y303346D01*
X235433Y299606*
X229724Y317815D02*
Y284646D01*
X253346Y261024*
X260236*
X247146Y323425D02*
X247638D01*
Y318504*
X241535Y317815D02*
Y316339D01*
X244094Y313780*
X278898*
X287008Y305669*
X306299Y314961D02*
X322835Y298425D01*
Y290928*
X287008Y315669D02*
X290328D01*
X310583Y295414*
X312551*
X287008Y305669D02*
X293937D01*
X306752Y292855*
X312551*
X287008Y295669D02*
X292381Y290296D01*
X312551*
X344094Y322491D02*
X344488Y322047D01*
X354331*
X344094Y322491D02*
X344882D01*
X322835Y290928D02*
X322835D01*
X326026Y287737*
X330071*
X331496Y300000D02*
X331704D01*
X337795Y316929D02*
Y322491D01*
X330071Y295414D02*
X331704D01*
Y300000*
X330071Y292855D02*
X337363D01*
X339024Y294515*
X344962*
X330071Y290296D02*
X337204D01*
X339184Y288315*
X344962*
X364173Y315354D02*
Y323278D01*
X116604Y333744D02*
X111417Y338931D01*
Y347244*
X112992Y348819*
X162205*
X174016Y360630*
X198425*
X116604Y343744D02*
X120978Y338189D01*
X166732*
X173425Y344882*
X200961*
X201158Y345079*
X214272*
X144094Y343701D02*
X149606D01*
X150394Y342913*
X220079Y335236D02*
Y335827D01*
X233268Y345866D02*
X233661Y346260D01*
Y350689*
X233268Y345866D02*
X233858Y345276D01*
X204331Y331102D02*
X204528Y331299D01*
X214272*
X239764Y334252D02*
X243110Y331299D01*
X247146*
X214272Y325394D02*
X217431D01*
X220079Y328042*
Y335236*
X214272Y333268D02*
Y335236D01*
X220079*
X214272D02*
Y337205D01*
X225787Y350689D02*
Y353848D01*
X225881Y353942*
Y372777*
X229724Y350689D02*
Y356457D01*
X233445Y360177*
Y367421*
X231693Y350689D02*
Y354921D01*
X238445Y361673*
Y367421*
X235630Y350689D02*
Y354949D01*
X242492Y361811*
X272047*
X279134Y368898*
X237598Y350689D02*
Y354398D01*
X242098Y358898*
X279134*
X239567Y350689D02*
Y353848D01*
X242806Y357087*
X270945*
X279134Y348898*
X243987Y337205D02*
Y333268D01*
X247146*
X243987Y337205D02*
X247146D01*
X260701Y334075D02*
X359976D01*
X364173Y329878*
Y329478*
X241535Y350689D02*
X246201D01*
Y349075*
X247146Y343110D02*
X250305D01*
X253150Y340265*
Y338583*
X247146Y337205D02*
X250305D01*
X251683Y338583*
X253150*
X247146Y335236D02*
X250591D01*
X255906Y329921*
X290328*
X291509Y328740*
X328346*
X247146Y327362D02*
X250649D01*
X254647Y325787*
X254724Y325984*
X247146Y327362D02*
Y329331D01*
Y325394D02*
X249729D01*
X259453Y315669*
X287008*
X328346Y328740D02*
Y328691D01*
X337795*
X344882*
X120894Y373744D02*
X125347Y369291D01*
X154331*
X120894Y373744D02*
X124278D01*
X124286Y373737*
X130860*
X116604Y393744D02*
X122289D01*
X122301Y393757*
X126486*
X116604Y383744D02*
X126842D01*
X126845Y383747*
X135583*
X116604Y373744D02*
X120894D01*
X135583Y389947D02*
Y390157D01*
X140945*
Y389764*
X126486Y399957D02*
Y400394D01*
X132283*
X137060Y373737D02*
X137797D01*
X140945Y378740*
X186614Y373228D02*
Y379971D01*
Y386171D02*
Y395719D01*
X193701Y379971D02*
Y379571D01*
X219882Y353390*
Y350689*
X193701Y386171D02*
Y395719D01*
X200787Y379971D02*
Y379571D01*
X221850Y358508*
Y350689*
X200787Y386171D02*
Y395719D01*
X226296Y379384D02*
X225733Y376293D01*
X226768Y374799*
X227662Y373257*
Y353942*
X227756Y353848*
Y350689*
X224016Y382677D02*
X226296Y379384D01*
X218898Y379134D02*
X221177Y375841D01*
X224269Y375279*
X225263Y373844*
X225881Y372777*
X219291Y369685D02*
X223819Y365157D01*
Y350689*
X227559Y391339D02*
X232165D01*
X233445Y390059*
Y387205*
X238445*
Y390059D02*
Y387205D01*
Y390059*
Y387205D02*
X243445D01*
Y390059*
X243307Y375197D02*
X243445D01*
Y367421*
X248445D02*
Y367323D01*
X253543*
X303004Y365589D02*
X303100D01*
X556693Y398583D02*
X557638Y397638D01*
X207087Y440157D02*
Y446113D01*
X255906Y444094D02*
X256250Y443750D01*
X127559Y449606D02*
X132283D01*
X135330Y452653*
X153896*
X156684Y455440*
X174513*
X175591Y454362*
X178902*
X127559Y457480D02*
X132283D01*
X135330Y454434*
X153159*
X155946Y457221*
X174513*
X175591Y458299*
X178902*
X199557Y452362D02*
X207087D01*
Y452313*
X199557Y459449D02*
X207087D01*
Y459498*
X185791Y458299D02*
X189008D01*
X190157Y459449*
X193357*
X185791Y454362D02*
X187150D01*
X189150Y452362*
X193357*
X207087Y465698D02*
Y472047D01*
Y459498D02*
X209843D01*
X210967Y458374*
X212540*
X213827Y457087*
X220079*
X207087Y452313D02*
Y452713D01*
X210967Y456593*
X211802*
X212568Y455827*
Y455149*
X215354Y452362*
G54D102*
X285919Y410328D02*
X284798Y409208D01*
X279436Y410328D02*
X280556Y409208D01*
X279436Y403845D02*
X280556Y404965D01*
X285919Y403845D02*
X284798Y404965D01*
X107388Y255604D02*
X108509Y254484D01*
X107388Y249121D02*
X108509Y250241D01*
X113871Y249121D02*
X112751Y250241D01*
X113871Y255604D02*
X112751Y254484D01*
X103362Y306986D02*
X104482Y305866D01*
X103362Y300503D02*
X104482Y301623D01*
X109845Y300503D02*
X108725Y301623D01*
X109845Y306986D02*
X108725Y305866D01*
X113362Y306986D02*
X114482Y305866D01*
X113362Y300503D02*
X114482Y301623D01*
X119845Y300503D02*
X118725Y301623D01*
X119845Y306986D02*
X118725Y305866D01*
X248435Y351309D02*
X247314Y350188D01*
X243967Y351309D02*
X245087Y350188D01*
X243967Y346841D02*
X245087Y347961D01*
X146328Y345935D02*
X145208Y344814D01*
X146328Y341467D02*
X145208Y342587D01*
X141861Y345935D02*
X142981Y344814D01*
X141861Y341467D02*
X142981Y342587D01*
X220601Y412076D02*
X221721Y410956D01*
X220601Y407609D02*
X221721Y408729D01*
X225068Y407609D02*
X223948Y408729D01*
X366407Y317588D02*
X365287Y316468D01*
X361939Y317588D02*
X363060Y316468D01*
X361939Y313121D02*
X363060Y314241D01*
X366407Y313121D02*
X365287Y314241D01*
X230580Y325462D02*
X229460Y324342D01*
X226113Y325462D02*
X227233Y324342D01*
X232942Y401053D02*
X231822Y399932D01*
X232942Y396585D02*
X231822Y397705D01*
X228475Y401053D02*
X229595Y399932D01*
X228475Y396585D02*
X229595Y397705D01*
X255777Y369557D02*
X254657Y368436D01*
X251310Y369557D02*
X252430Y368436D01*
X255777Y365089D02*
X254657Y366209D01*
X195147Y354990D02*
X194027Y353869D01*
X190680Y354990D02*
X191800Y353869D01*
X190680Y350522D02*
X191800Y351642D01*
X195147Y350522D02*
X194027Y351642D01*
X141861Y311546D02*
X142981Y312666D01*
X146328Y311546D02*
X145208Y312666D01*
X147116Y366013D02*
X145995Y364893D01*
X142648Y366013D02*
X143768Y364893D01*
X142648Y361546D02*
X143768Y362666D01*
X147116Y361546D02*
X145995Y362666D01*
X212333Y320344D02*
X213453Y319224D01*
X212333Y315876D02*
X213453Y316997D01*
X216801Y315876D02*
X215680Y316997D01*
X237530Y336486D02*
X238650Y335366D01*
X237530Y332018D02*
X238650Y333138D01*
X241998Y332018D02*
X240877Y333138D01*
X147116Y375856D02*
X145995Y374736D01*
X314832Y284517D02*
X313712Y283397D01*
X310365Y284517D02*
X311485Y283397D01*
X310365Y280050D02*
X311485Y281170D01*
X314832Y280050D02*
X313712Y281170D01*
X372176Y280580D02*
X373296Y279460D01*
X372176Y276113D02*
X373296Y277233D01*
X376643Y276113D02*
X375523Y277233D01*
G54D127*
X455422Y242700D02*
X455493Y242701D01*
X455498Y242126*
Y259489*
X374409Y278346D02*
Y284277D01*
X374751*
X447244Y259489D02*
Y259498D01*
X460236Y253937D02*
Y263154D01*
X460311Y263229*
X464750*
X475984Y259399D02*
X476074Y259489D01*
X464750*
X344962Y288315D02*
Y287478D01*
X353673*
X344962Y294515D02*
Y295352D01*
X353673*
X359873D02*
X365953D01*
X367028Y294277*
X374751*
X359873Y287478D02*
X365591D01*
X367390Y289277*
X374751*
X431967Y289130D02*
X437431D01*
X438410Y288152*
X444274*
X431967Y295330D02*
X436669D01*
X438328Y296989*
X444181*
X416680Y294277D02*
X421223D01*
X421406Y294094*
X424727*
X425963Y295330*
X431967*
X416680Y289277D02*
X424727D01*
X425608Y290157*
X428440*
X429467Y289130*
X431967*
X450474Y288152D02*
X450394D01*
X450787Y288484*
X464567*
X450381Y296989D02*
X450787Y297343D01*
X464567*
Y288484D02*
X488976D01*
X489764Y289213*
X490551*
X464567Y297343D02*
Y303937D01*
X490551Y289213D02*
Y308661D01*
X519685Y337795*
X290157Y358661D02*
X296900D01*
X296850Y344094D02*
Y350635D01*
X296900*
X303100D02*
X309055D01*
Y350394*
X303100Y365589D02*
Y358661D01*
X308661*
Y359055*
X520472Y338583D02*
X519685Y337795D01*
X520472Y338583*
X556693*
X584252Y337638D02*
X610866D01*
X611811Y338583*
X290551Y365748D02*
Y365589D01*
X296804*
X557638Y397638D02*
X584252D01*
X611811Y398583D02*
X631675D01*
X632620Y397638*
X292677Y407087D02*
X303004Y396759D01*
Y365589*
X633465Y484646D02*
Y447001D01*
X646120Y434345*
Y397638*
X325797Y350394D02*
G75*
G03X325797I-4931J0D01*
G01X331702Y392126D02*
G03X331702I-4930J0D01*
G01X196072Y352756D02*
G03X196072I-3159J0D01*
G01X377362Y309738D02*
Y411417D01*
G03X376378Y412402I-984J0*
G01X316178*
G03X315559Y410652I-0J-985*
G01X308561Y405069D02*
G03X315559Y410652I4116J2018D01*
G01X308561Y405069D02*
G03X306793I-884J-434D01*
G01X303142Y402526D02*
G03X306793Y405069I-465J4561D01*
G01X303142Y402526D02*
G03X302545Y400851I99J-979D01*
G01X304821Y398576*
X305573Y396759D02*
G03X304821Y398576I-2569J0D01*
G01X305573Y396759D02*
Y369055D01*
G03X305924Y368302I984J0*
G01X306489Y367089D02*
G03X305924Y368302I-1585J0D01*
G01X306489Y367089D02*
Y364089D01*
X306319Y363375D02*
G03X306489Y364089I-1415J714D01*
G01X306319Y363375D02*
G03X307545Y362010I878J-444D01*
G01X307699Y356046D02*
G03X307545Y362010I962J3009D01*
G01X307699Y356046D02*
G03X307399Y356093I-300J-937D01*
G01X306544*
G03X305952Y355895I-0J-984*
G01X305327Y355611D02*
G03X305952Y355895I-327J1550D01*
G01X305327Y355611D02*
G03Y353685I203J-963D01*
G01X305952Y353401D02*
G03X305327Y353685I-952J-1266D01*
G01X305952Y353401D02*
G03X306544Y353203I592J787D01*
G01X307390*
G03X307785Y353286I-0J985*
G01X307157Y347869D02*
G03X307785Y353286I1898J2525D01*
G01X307157Y347869D02*
G03X306565Y348066I-592J-787D01*
G01X306544*
G03X305952Y347869I-0J-984*
G01X305000Y347551D02*
G03X305952Y347869I0J1584D01*
G01X305000Y347551D02*
X301200D01*
X300709Y347629D02*
G03X301200Y347551I491J1506D01*
G01X300709Y347629D02*
G03X299419Y346693I-306J-936D01*
G01Y346226*
G03X299559Y345720I984J0*
G01X294142D02*
G03X299559I2708J-1626D01*
G01X294142D02*
G03X294282Y346226I-844J506D01*
G01Y347212*
G03X293950Y347949I-984J-0*
G01X293416Y349135D02*
G03X293950Y347949I1584J-0D01*
G01X293416Y349135D02*
Y352135D01*
X294673Y353685D02*
G03X293416Y352135I327J-1550D01*
G01X294673Y353685D02*
G03Y355611I-203J963D01*
G01X294048Y355895D02*
G03X294673Y355611I952J1266D01*
G01X294048Y355895D02*
G03X293456Y356093I-592J-786D01*
G01X292289*
G03X291783Y355953I0J-984*
G01X288680Y361453D02*
G03X291783Y355953I1477J-2792D01*
G01X288680Y361453D02*
G03X288773Y363137I-461J870D01*
G01X292363Y368336D02*
G03X288773Y363137I-1812J-2588D01*
G01X292363Y368336D02*
G03X292928Y368158I565J806D01*
G01X293361*
G03X293952Y368355I-0J984*
G01X294904Y368673D02*
G03X293952Y368355I0J-1584D01*
G01X294904Y368673D02*
X298704D01*
X299165Y368605D02*
G03X298704Y368673I-461J-1516D01*
G01X299165Y368605D02*
G03X300436Y369547I287J942D01*
G01Y395288*
G03X300148Y395984I-984J-0*
G01X293893Y402238*
G03X293105Y402522I-696J-696*
G01X288561Y405069D02*
G03X293105Y402522I4116J2018D01*
G01X288561Y405069D02*
G03X286793I-884J-434D01*
G01X279795Y410652D02*
G03X286793Y405069I2882J-3565D01*
G01X279795Y410652D02*
G03X279177Y412402I-618J765D01*
G01X270321*
G03X269747Y410618I-0J-985*
G01X270407Y409331D02*
G03X269747Y410618I-1584J-0D01*
G01X270407Y409331D02*
Y405531D01*
X270224Y404791D02*
G03X270407Y405531I-1401J740D01*
G01X270224Y404791D02*
G03Y403871I870J-460D01*
G01X270406Y403200D02*
G03X270224Y403871I-1583J-69D01*
G01X270406Y403200D02*
G03X270507Y402807I983J44D01*
G01X270876Y401231D02*
G03X270507Y402807I-3553J-0D01*
G01X270876Y401231D02*
Y391339D01*
X263770D02*
G03X270876I3553J-0D01*
G01X263770D02*
Y401231D01*
X264139Y402807D02*
G03X263770Y401231I3184J-1576D01*
G01X264139Y402807D02*
G03X264240Y403200I-882J437D01*
G01X264422Y403871D02*
G03X264240Y403200I1401J-740D01*
G01X264422Y403871D02*
G03Y404791I-870J460D01*
G01X264239Y405531D02*
G03X264422Y404791I1584J-0D01*
G01X264239Y405531D02*
Y409331D01*
X264899Y410618D02*
G03X264239Y409331I924J-1287D01*
G01X264899Y410618D02*
G03X264325Y412402I-574J799D01*
G01X262019*
G03X261035Y411417I0J-985*
G01Y407593*
X260156Y406174D02*
G03X261035Y407593I-705J1419D01*
G01X260156Y406174D02*
G03Y404411I438J-881D01*
G01X261035Y402993D02*
G03X260156Y404411I-1584J-0D01*
G01X261035Y402993D02*
Y398493D01*
X260063Y397031D02*
G03X261035Y398493I-612J1462D01*
G01X260063Y397031D02*
G03X259458Y396123I380J-908D01*
G01Y391339*
X253000Y389295D02*
G03X259458Y391339I2906J2044D01*
G01X253000Y389295D02*
G03X251210Y388728I-805J-567D01*
G01Y386614*
X249626Y385030D02*
G03X251210Y386614I-0J1584D01*
G01X249626Y385030D02*
X247264D01*
X246450Y385255D02*
G03X247264Y385030I814J1359D01*
G01X246450Y385255D02*
G03X245439I-505J-845D01*
G01X244626Y385030D02*
G03X245439Y385255I-0J1584D01*
G01X244626Y385030D02*
X242264D01*
X238445*
X237264*
X233445*
X232264*
X230680Y386614D02*
G03X232264Y385030I1584J0D01*
G01X230680Y386614D02*
Y387788D01*
G03X229188Y388632I-985J0*
G01X228173Y394438D02*
G03X229188Y388632I-614J-3099D01*
G01X228173Y394438D02*
G03X228932Y394600I191J965D01*
X229347Y393943I972J154*
G01X229411Y393898D02*
G03X229347Y393943I-1852J-2559D01*
G01X229411Y393898D02*
G03X230860Y394239I577J797D01*
G01X230873Y394263D02*
G03X230860Y394239I1391J-759D01*
G01X230873Y394263D02*
G03X230176Y395705I-864J472D01*
G01X230095Y395720D02*
G03X230176Y395705I614J3099D01*
G01X230095Y395720D02*
G03X229336Y395558I-191J-966D01*
X228921Y396214I-972J-155*
G01X228248Y400800D02*
G03X228921Y396214I2461J-1981D01*
G01X228248Y400800D02*
G03X227661Y402385I-767J617D01*
G01X226367Y403943D02*
G03X227661Y402385I1584J-0D01*
G01X226367Y403943D02*
Y406575D01*
G03X224777Y407351I-985J-0*
G01X219913Y411043D02*
G03X224777Y407351I2922J-1200D01*
G01X219913Y411043D02*
G03X219002Y412402I-911J374D01*
G01X102756*
G03X101772Y411417I-0J-985*
G01Y397769*
G03X103436Y397058I984J0*
G01X110720Y395762D02*
G03X103436Y397058I-4116J-2018D01*
G01X110720Y395762D02*
G03X112488I884J433D01*
G01X120379Y396345D02*
G03X112488Y395762I-3775J-2601D01*
G01X120379Y396345D02*
G03X121189Y395919I810J558D01*
G01X122019*
G03X122107Y395923I-0J984*
G01X122301Y395932D02*
G03X122107Y395923I0J-2175D01*
G01X122301Y395932D02*
X122685D01*
G03X123567Y397353I-0J984*
G01X123402Y398057D02*
G03X123567Y397353I1584J-0D01*
G01X123402Y398057D02*
Y401857D01*
X124986Y403441D02*
G03X123402Y401857I0J-1584D01*
G01X124986Y403441D02*
X127986D01*
X129093Y402991D02*
G03X127986Y403441I-1107J-1134D01*
G01X129093Y402991D02*
G03X130375Y402911I687J704D01*
G01X130779Y397616D02*
G03X130375Y402911I1504J2778D01*
G01X130779Y397616D02*
G03X129420Y396331I-469J-866D01*
G01X129570Y395657D02*
G03X129420Y396331I-1584J-0D01*
G01X129570Y395657D02*
Y391857D01*
X127986Y390273D02*
G03X129570Y391857I0J1584D01*
G01X127986Y390273D02*
X124986D01*
X123605Y391080D02*
G03X124986Y390273I1381J777D01*
G01X123605Y391080D02*
G03X122747Y391582I-858J-482D01*
G01X122571*
G03X122483Y391578I0J-984*
G01X122289Y391569D02*
G03X122483Y391578I-0J2175D01*
G01X122289Y391569D02*
X121189D01*
G03X120379Y391144I0J-984*
G01X118622Y389628D02*
G03X120379Y391144I-2018J4116D01*
G01X118622Y389628D02*
G03Y387860I433J-884D01*
G01X120379Y386345D02*
G03X118622Y387860I-3775J-2601D01*
G01X120379Y386345D02*
G03X121189Y385919I810J558D01*
G01X126722*
G03X126760Y385920I0J984*
G01X126845Y385921D02*
G03X126760Y385920I-0J-2174D01*
G01X126845Y385921D02*
X131782D01*
G03X132664Y387343I0J985*
G01X132499Y388047D02*
G03X132664Y387343I1584J-0D01*
G01X132499Y388047D02*
Y391847D01*
X134083Y393431D02*
G03X132499Y391847I0J-1584D01*
G01X134083Y393431D02*
X137083D01*
X138314Y392844D02*
G03X137083Y393431I-1231J-997D01*
G01X138314Y392844D02*
G03X139522Y392585I765J619D01*
G01X139954Y386764D02*
G03X139522Y392584I991J3000D01*
G01X139954Y386764D02*
G03X138664Y385759I-309J-934D01*
G01X138668Y385647D02*
G03X138664Y385759I-1585J-0D01*
G01X138668Y385647D02*
Y382677D01*
G03X139959Y381741I984J-0*
G01X144015Y377996D02*
G03X139959Y381741I-3070J744D01*
G01X144015Y377996D02*
G03X144950Y376780I957J-232D01*
G01X147912Y372729D02*
G03X144950Y376780I-3030J893D01*
G01X147912Y372729D02*
G03X148856Y371466I944J-279D01*
G01X151650*
G03X152287Y371700I-0J984*
G01Y366883D02*
G03Y371700I2044J2408D01*
G01Y366883D02*
G03X151650Y367117I-637J-751D01*
G01X148292*
G03X147482Y365573I0J-985*
G01X142282D02*
G03X147482I2600J-1793D01*
G01X142282D02*
G03X141471Y367117I-811J559D01*
G01X125347*
X123809Y367754D02*
G03X125347Y367117I1538J1537D01*
G01X123809Y367754D02*
X121148Y370415D01*
G03X119772Y370431I-696J-696*
G01X118622Y369628D02*
G03X119772Y370431I-2018J4116D01*
G01X118622Y369628D02*
G03Y367860I433J-884D01*
G01Y359628D02*
G03Y367860I-2018J4116D01*
G01Y359628D02*
G03Y357860I433J-884D01*
G01X120951Y352290D02*
G03X118622Y357860I-4347J1454D01*
G01X120951Y352290D02*
G03X121885Y350994I934J-312D01*
G01X160896*
G03X161592Y351282I0J984*
G01X172478Y362168*
X174016Y362805D02*
G03X172478Y362168I-0J-2175D01*
G01X174016Y362805D02*
X195744D01*
G03X196381Y363039I0J984*
G01Y358221D02*
G03Y363039I2044J2409D01*
G01Y358221D02*
G03X195744Y358455I-637J-750D01*
G01X175324*
G03X174628Y358167I0J-984*
G01X163743Y347281*
X162205Y346644D02*
G03X163743Y347281I-0J2175D01*
G01X162205Y346644D02*
X147745D01*
G03X146878Y345194I0J-984*
G01X146695Y341907D02*
G03X146878Y345194I-2601J1794D01*
G01X146695Y341907D02*
G03X147505Y340364I810J-559D01*
G01X165424*
G03X166120Y340652I-0J984*
G01X171887Y346420*
X173425Y347057D02*
G03X171887Y346420I0J-2175D01*
G01X173425Y347057D02*
X200060D01*
G03X200402Y347118I-0J984*
G01X201158Y347254D02*
G03X200402Y347118I-0J-2175D01*
G01X201158Y347254D02*
X214272D01*
X214810Y347186D02*
G03X214272Y347254I-538J-2107D01*
G01X214810Y347186D02*
G03X215054Y347155I244J953D01*
G01X216240*
X216653Y347100D02*
G03X216240Y347155I-413J-1529D01*
G01X216653Y347100D02*
G03X217860Y348307I257J950D01*
G01X217805Y348720D02*
G03X217860Y348307I1585J0D01*
G01X217805Y348720D02*
Y349907D01*
G03X217775Y350150I-984J-0*
G01X217707Y350689D02*
G03X217775Y350150I2175J-0D01*
G01X217707Y350689D02*
Y352081D01*
G03X217419Y352777I-984J0*
G01X193998Y376198*
G03X193302Y376487I-696J-696*
G01X192201*
X190940Y377111D02*
G03X192201Y376487I1261J960D01*
G01X190940Y377111D02*
G03X189374I-783J-596D01*
G01X189137Y376861D02*
G03X189374Y377111I-1023J1210D01*
G01X189137Y376861D02*
G03X188789Y376110I636J-751D01*
G01Y375909*
G03X189023Y375272I984J0*
G01X184206D02*
G03X189023I2408J-2044D01*
G01X184206D02*
G03X184439Y375909I-751J637D01*
G01Y376110*
G03X184091Y376861I-984J0*
G01X183530Y378071D02*
G03X184091Y376861I1584J-0D01*
G01X183530Y378071D02*
Y381871D01*
X183713Y382611D02*
G03X183530Y381871I1401J-740D01*
G01X183713Y382611D02*
G03Y383531I-870J460D01*
G01X183530Y384271D02*
G03X183713Y383531I1584J-0D01*
G01X183530Y384271D02*
Y388071D01*
X184091Y389280D02*
G03X183530Y388071I1023J-1209D01*
G01X184091Y389280D02*
G03X184439Y390032I-636J752D01*
G01Y391858*
G03X184091Y392609I-984J0*
G01X183530Y393819D02*
G03X184091Y392609I1584J-0D01*
G01X183530Y393819D02*
Y397619D01*
X183713Y398359D02*
G03X183530Y397619I1401J-740D01*
G01X183713Y398359D02*
G03Y399279I-870J460D01*
G01X183530Y400019D02*
G03X183713Y399279I1584J-0D01*
G01X183530Y400019D02*
Y403819D01*
X185114Y405403D02*
G03X183530Y403819I0J-1584D01*
G01X185114Y405403D02*
X188114D01*
X189374Y404779D02*
G03X188114Y405403I-1260J-960D01*
G01X189374Y404779D02*
G03X190940I783J596D01*
G01X192201Y405403D02*
G03X190940Y404779I-0J-1584D01*
G01X192201Y405403D02*
X195201D01*
X196461Y404779D02*
G03X195201Y405403I-1260J-960D01*
G01X196461Y404779D02*
G03X198027I783J596D01*
G01X199287Y405403D02*
G03X198027Y404779I0J-1584D01*
G01X199287Y405403D02*
X202287D01*
X203872Y403819D02*
G03X202287Y405403I-1585J-0D01*
G01X203872Y403819D02*
Y400019D01*
X203688Y399279D02*
G03X203872Y400019I-1401J740D01*
G01X203688Y399279D02*
G03Y398359I870J-460D01*
G01X203872Y397619D02*
G03X203688Y398359I-1585J-0D01*
G01X203872Y397619D02*
Y393819D01*
X203311Y392609D02*
G03X203872Y393819I-1024J1210D01*
G01X203311Y392609D02*
G03X202962Y391858I635J-751D01*
G01Y390032*
G03X203311Y389280I984J-0*
G01X203872Y388071D02*
G03X203311Y389280I-1585J-0D01*
G01X203872Y388071D02*
Y384271D01*
X203688Y383531D02*
G03X203872Y384271I-1401J740D01*
G01X203688Y383531D02*
G03Y382611I870J-460D01*
G01X203872Y381871D02*
G03X203688Y382611I-1585J-0D01*
G01X203872Y381871D02*
Y379970D01*
G03X204160Y379274I984J-0*
G01X214452Y368982*
G03X216132Y369678I696J696*
G01Y369679*
Y369686*
X218894Y372819D02*
G03X216132Y369686I397J-3134D01*
G01X218894Y372819D02*
G03X219520Y374433I-124J976D01*
G01X219389Y374603D02*
G03X219520Y374433I1788J1238D01*
G01X219389Y374603D02*
X218636Y375692D01*
G03X218081Y376082I-810J-561*
G01X219662Y382199D02*
G03X218081Y376082I-764J-3065D01*
G01X219662Y382199D02*
G03X220878Y383041I238J955D01*
G01X227160Y382368D02*
G03X220878Y383041I-3144J309D01*
G01X227160Y382368D02*
G03X227330Y381711I979J-97D01*
G01X228084Y380622*
X228435Y378995D02*
G03X228084Y380622I-2139J389D01*
G01X228435Y378995D02*
X228107Y377191D01*
G03X228266Y376455I969J-176*
G01X228556Y376037*
X228649Y375890D02*
G03X228556Y376037I-1881J-1091D01*
G01X228649Y375890D02*
X229543Y374348D01*
X229837Y373257D02*
G03X229543Y374348I-2175J-0D01*
G01X229837Y373257D02*
Y372991D01*
G03X231374Y372177I984J0*
G01X232264Y372450D02*
G03X231374Y372177I-0J-1584D01*
G01X232264Y372450D02*
X234626D01*
X235439Y372226D02*
G03X234626Y372450I-813J-1360D01*
G01X235439Y372226D02*
G03X236450I506J844D01*
G01X237264Y372450D02*
G03X236450Y372226I-0J-1584D01*
G01X237264Y372450D02*
X239557D01*
G03X240448Y373853I0J985*
G01X246163Y373847D02*
G03X240448Y373853I-2856J1350D01*
G01X246163Y373847D02*
G03X247134Y372445I890J-421D01*
G01X247264Y372450D02*
G03X247134Y372445I-0J-1584D01*
G01X247264Y372450D02*
X249626D01*
X251194Y371091D02*
G03X249626Y372450I-1568J-225D01*
G01X251194Y371091D02*
G03X252495Y370303I974J140D01*
G01X256144Y365529D02*
G03X252495Y370303I-2601J1794D01*
G01X256144Y365529D02*
G03X256954Y363986I810J-559D01*
G01X270739*
G03X271435Y364274I-0J984*
G01X274353Y367193*
G03X274625Y368067I-696J696*
G01X281152Y364781D02*
G03X274625Y368067I-2018J4117D01*
G01X281152Y364781D02*
G03Y363014I433J-883D01*
G01Y354781D02*
G03Y363014I-2018J4117D01*
G01Y354781D02*
G03Y353014I433J-883D01*
G01Y344781D02*
G03Y353014I-2018J4117D01*
G01Y344781D02*
G03Y343014I433J-883D01*
G01X283509Y337528D02*
G03X281152Y343014I-4375J1370D01*
G01X283509Y337528D02*
G03X284448Y336250I939J-294D01*
G01X359976*
X361514Y335613D02*
G03X359976Y336250I-1538J-1538D01*
G01X361514Y335613D02*
X363876Y333251D01*
G03X364572Y332962I696J695*
G01X365673*
X367258Y331378D02*
G03X365673Y332962I-1585J-0D01*
G01X367258Y331378D02*
Y327578D01*
X367074Y326838D02*
G03X367258Y327578I-1401J740D01*
G01X367074Y326838D02*
G03Y325918I870J-460D01*
G01X367258Y325178D02*
G03X367074Y325918I-1585J-0D01*
G01X367258Y325178D02*
Y321378D01*
X366076Y319846D02*
G03X367258Y321378I-403J1532D01*
G01X366076Y319846D02*
G03X365815Y318053I251J-952D01*
G01X362531D02*
G03X365815I1642J-2699D01*
G01X362531D02*
G03X362270Y319846I-511J841D01*
G01X361089Y321378D02*
G03X362270Y319846I1584J-0D01*
G01X361089Y321378D02*
Y325178D01*
X361272Y325918D02*
G03X361089Y325178I1401J-740D01*
G01X361272Y325918D02*
G03Y326838I-870J460D01*
G01X361089Y327578D02*
G03X361272Y326838I1584J-0D01*
G01X361089Y327578D02*
Y329479D01*
G03X360801Y330175I-984J-0*
G01X359364Y331612*
G03X358668Y331900I-696J-696*
G01X348930*
G03X347953Y330791I-0J-984*
G01X347966Y330591D02*
G03X347953Y330791I-1584J-0D01*
G01X347966Y330591D02*
Y326791D01*
X347783Y326050D02*
G03X347966Y326791I-1401J741D01*
G01X347783Y326050D02*
G03Y325131I870J-459D01*
G01X347884Y324894D02*
G03X347783Y325131I-1502J-503D01*
G01X347884Y324894D02*
G03X348817Y324222I933J312D01*
G01X351650*
G03X352287Y324456I-0J984*
G01Y319639D02*
G03Y324456I2044J2408D01*
G01Y319639D02*
G03X351650Y319872I-637J-751D01*
G01X348305*
G03X347568Y319541I0J-984*
G01X346382Y319006D02*
G03X347568Y319541I-0J1585D01*
G01X346382Y319006D02*
X343382D01*
X342175Y319564D02*
G03X343382Y319006I1207J1027D01*
G01X342175Y319564D02*
G03X340563Y318452I-749J-638D01*
G01X335083Y318549D02*
G03X340563Y318452I2712J-1620D01*
G01X335083Y318549D02*
G03X335026Y319642I-845J504D01*
G01X334711Y320591D02*
G03X335026Y319642I1584J-0D01*
G01X334711Y320591D02*
Y324391D01*
X334876Y325094D02*
G03X334711Y324391I1419J-703D01*
G01X334876Y325094D02*
G03X333994Y326516I-882J437D01*
G01X333315*
G03X332489Y326065I0J-985*
G01X324178Y326107D02*
G03X332489Y326065I4168J2633D01*
G01X324178Y326107D02*
G03X323346Y326565I-832J-526D01*
G01X292576*
G03X291592Y325597I-0J-984*
G01X289026Y321553D02*
G03X291592Y325597I-2018J4116D01*
G01X289026Y321553D02*
G03Y319786I433J-884D01*
G01X290982Y317955D02*
G03X289026Y319786I-3974J-2286D01*
G01X290982Y317955D02*
G03X291365Y317581I853J490D01*
G01X291865Y317207D02*
G03X291365Y317581I-1537J-1538D01*
G01X291865Y317207D02*
X310900Y298172D01*
G03X311596Y297884I696J696*
G01X315406*
X316990Y296300D02*
G03X315406Y297884I-1584J-0D01*
G01X316990Y296300D02*
Y294528D01*
X316971Y294285D02*
G03X316990Y294528I-1565J243D01*
G01X316971Y294285D02*
G03Y293983I973J-151D01*
G01X316990Y293741D02*
G03X316971Y293983I-1584J-0D01*
G01X316990Y293741D02*
Y291969D01*
X316971Y291726D02*
G03X316990Y291969I-1565J243D01*
G01X316971Y291726D02*
G03Y291424I973J-151D01*
G01X316990Y291182D02*
G03X316971Y291424I-1584J-0D01*
G01X316990Y291182D02*
Y289410D01*
X316971Y289167D02*
G03X316990Y289410I-1565J243D01*
G01X316971Y289167D02*
G03Y288865I973J-151D01*
G01X316990Y288623D02*
G03X316971Y288865I-1584J-0D01*
G01X316990Y288623D02*
Y286851D01*
X315873Y285337D02*
G03X316990Y286851I-467J1514D01*
G01X315873Y285337D02*
G03X315316Y283894I290J-941D01*
G01X309871Y283877D02*
G03X315316Y283894I2727J-1594D01*
G01X309871Y283877D02*
G03X309280Y285323I-850J496D01*
G01X308113Y286851D02*
G03X309280Y285323I1584J-0D01*
G01X308113Y286851D02*
Y287137D01*
G03X307129Y288121I-984J-0*
G01X292381*
X290844Y288758D02*
G03X292381Y288121I1537J1538D01*
G01X290844Y288758D02*
X288713Y290889D01*
G03X287838Y291161I-696J-696*
G01X282499Y296500D02*
G03X287838Y291161I4509J-831D01*
G01X282499Y296500D02*
G03X282227Y297374I-968J178D01*
G01X270158Y309443*
G03X269462Y309732I-696J-696*
G01X246964*
G03X246001Y308540I-0J-985*
G01X240512Y305821D02*
G03X246001Y308540I2401J2053D01*
G01X240512Y305821D02*
G03X239016I-748J-639D01*
G01X235892Y304799D02*
G03X239016Y305821I722J3075D01*
G01X235892Y304799D02*
G03X234970Y303145I-226J-958D01*
G01X235075Y303040*
G03X235691Y302755I696J696*
G01X233489Y297116D02*
G03X235691Y302755I1944J2490D01*
G01X233489Y297116D02*
G03X231899Y296340I-606J-776D01*
G01Y285954*
G03X232188Y285258I984J0*
G01X250613Y266833*
G03X251309Y266545I696J696*
G01X271063*
X272647Y264961D02*
G03X271063Y266545I-1584J-0D01*
G01X272647Y264961D02*
Y257087D01*
X271063Y255502D02*
G03X272647Y257087I-0J1585D01*
G01X271063Y255502D02*
X264225D01*
G03X263422Y253948I-0J-984*
G01X263714Y253031D02*
G03X263422Y253948I-1584J0D01*
G01X263714Y253031D02*
Y249231D01*
X263531Y248491D02*
G03X263714Y249231I-1401J740D01*
G01X263531Y248491D02*
G03Y247572I870J-460D01*
G01X263714Y246831D02*
G03X263531Y247572I-1584J0D01*
G01X263714Y246831D02*
Y243031D01*
X263153Y241822D02*
G03X263714Y243031I-1023J1209D01*
G01X263153Y241822D02*
G03X262805Y241071I636J-751D01*
G01Y240881*
G03X263132Y240148I984J-0*
G01X258315Y239421D02*
G03X263132Y240148I2709J-1626D01*
G01X258315Y239421D02*
G03X258455Y239927I-844J506D01*
G01Y241071*
G03X258107Y241822I-984J-0*
G01X257546Y243031D02*
G03X258107Y241822I1584J0D01*
G01X257546Y243031D02*
Y246831D01*
X257729Y247572D02*
G03X257546Y246831I1401J-741D01*
G01X257729Y247572D02*
G03Y248491I-870J459D01*
G01X257546Y249231D02*
G03X257729Y248491I1584J0D01*
G01X257546Y249231D02*
Y253031D01*
X257838Y253948D02*
G03X257546Y253031I1292J-917D01*
G01X257838Y253948D02*
G03X257035Y255502I-803J570D01*
G01X249409*
X247825Y257087D02*
G03X249409Y255502I1584J-0D01*
G01X247825Y257087D02*
Y263062D01*
G03X247537Y263758I-984J-0*
G01X228944Y282350*
G03X227552I-696J-696*
G01X225298Y280096*
G03X225009Y279400I696J-696*
G01Y267529*
G03X225994Y266545I985J0*
G01X233661*
X235246Y264961D02*
G03X233661Y266545I-1585J-0D01*
G01X235246Y264961D02*
Y257087D01*
X233661Y255502D02*
G03X235246Y257087I0J1585D01*
G01X233661Y255502D02*
X225600D01*
G03X224616Y254518I0J-984*
G01Y254205*
G03X224964Y253454I984J-0*
G01X225525Y252244D02*
G03X224964Y253454I-1584J0D01*
G01X225525Y252244D02*
Y248444D01*
X225342Y247704D02*
G03X225525Y248444I-1401J740D01*
G01X225342Y247704D02*
G03Y246784I870J-460D01*
G01X225525Y246044D02*
G03X225342Y246784I-1584J0D01*
G01X225525Y246044D02*
Y242244D01*
X224964Y241035D02*
G03X225525Y242244I-1023J1209D01*
G01X224964Y241035D02*
G03X224616Y240283I636J-752D01*
G01Y239295*
G03X224850Y238658I984J0*
G01X220032D02*
G03X224850I2409J-2044D01*
G01X220032D02*
G03X220266Y239295I-750J637D01*
G01Y240283*
G03X219918Y241035I-984J0*
G01X219357Y242244D02*
G03X219918Y241035I1584J0D01*
G01X219357Y242244D02*
Y246044D01*
X219540Y246784D02*
G03X219357Y246044I1401J-740D01*
G01X219540Y246784D02*
G03Y247704I-870J460D01*
G01X219357Y248444D02*
G03X219540Y247704I1584J0D01*
G01X219357Y248444D02*
Y252244D01*
X219918Y253454D02*
G03X219357Y252244I1023J-1210D01*
G01X219918Y253454D02*
G03X220266Y254205I-636J751D01*
G01Y254518*
G03X219282Y255502I-984J0*
G01X212008*
X210424Y257087D02*
G03X212008Y255502I1584J-0D01*
G01X210424Y257087D02*
Y264961D01*
X212008Y266545D02*
G03X210424Y264961I-0J-1584D01*
G01X212008Y266545D02*
X219676D01*
G03X220660Y267529I-0J984*
G01Y280709*
X221297Y282246D02*
G03X220660Y280709I1538J-1537D01*
G01X221297Y282246D02*
X225293Y286242D01*
G03X225581Y286938I-696J696*
G01Y308998*
G03X223901Y309694I-984J-0*
G01X207945Y293738*
X206407Y293101D02*
G03X207945Y293738I0J2175D01*
G01X206407Y293101D02*
X202372D01*
G03X201387Y292117I-0J-984*
G01Y291535*
X200609Y290171D02*
G03X201387Y291535I-806J1364D01*
G01X200609Y290171D02*
G03X200354Y288693I500J-847D01*
G01X200722Y287677D02*
G03X200354Y288693I-1584J0D01*
G01X200722Y287677D02*
Y283877D01*
X200542Y283143D02*
G03X200722Y283877I-1404J734D01*
G01X200542Y283143D02*
G03X201414Y281702I872J-456D01*
G01X202437*
G03X203074Y281936I0J985*
G01Y277119D02*
G03Y281936I2044J2409D01*
G01Y277119D02*
G03X202437Y277353I-637J-751D01*
G01X201348*
G03X200501Y276870I-0J-985*
G01X199138Y276093D02*
G03X200501Y276870I-0J1584D01*
G01X199138Y276093D02*
X196138D01*
X194554Y277677D02*
G03X196138Y276093I1584J0D01*
G01X194554Y277677D02*
Y281477D01*
X194737Y282217D02*
G03X194554Y281477I1401J-740D01*
G01X194737Y282217D02*
G03Y283137I-870J460D01*
G01X194554Y283877D02*
G03X194737Y283137I1584J0D01*
G01X194554Y283877D02*
Y287677D01*
X194922Y288693D02*
G03X194554Y287677I1216J-1016D01*
G01X194922Y288693D02*
G03X194667Y290171I-756J631D01*
G01X193888Y291535D02*
G03X194667Y290171I1584J0D01*
G01X193888Y291535D02*
Y297491D01*
G03X192208Y298187I-984J0*
G01X191833Y297813*
G03X191545Y297117I696J-696*
G01Y291535*
X190766Y290171D02*
G03X191545Y291535I-805J1364D01*
G01X190766Y290171D02*
G03X190511Y288693I501J-847D01*
G01X190880Y287677D02*
G03X190511Y288693I-1585J0D01*
G01X190880Y287677D02*
Y283877D01*
X190696Y283137D02*
G03X190880Y283877I-1401J740D01*
G01X190696Y283137D02*
G03Y282217I870J-460D01*
G01X190880Y281477D02*
G03X190696Y282217I-1585J0D01*
G01X190880Y281477D02*
Y277677D01*
X189295Y276093D02*
G03X190880Y277677I0J1584D01*
G01X189295Y276093D02*
X186295D01*
X184951Y276839D02*
G03X186295Y276093I1344J838D01*
G01X184951Y276839D02*
G03X183494Y277080I-835J-521D01*
G01X183350Y282086D02*
G03X183494Y277080I-1854J-2558D01*
G01X183350Y282086D02*
G03X184835Y283264I577J797D01*
G01X184711Y283877D02*
G03X184835Y283264I1584J0D01*
G01X184711Y283877D02*
Y287677D01*
X185079Y288693D02*
G03X184711Y287677I1216J-1016D01*
G01X185079Y288693D02*
G03X184824Y290171I-755J631D01*
G01X184046Y291535D02*
G03X184824Y290171I1584J0D01*
G01X184046Y291535D02*
Y295129D01*
G03X182365Y295825I-985J0*
G01X158782Y272242*
X157761Y271667D02*
G03X158782Y272242I-517J2113D01*
G01X157761Y271667D02*
X115601Y261341D01*
G03X114915Y260734I235J-956*
G01X112648Y258246D02*
G03X114915Y260734I-2018J4116D01*
G01X112648Y258246D02*
G03Y256478I433J-884D01*
G01X108612D02*
G03X112648I2018J-4116D01*
G01X108612D02*
G03Y258246I-433J884D01*
G01Y266478D02*
G03Y258246I2018J-4116D01*
G01Y266478D02*
G03Y268246I-433J884D01*
G01Y276478D02*
G03Y268246I2018J-4116D01*
G01Y276478D02*
G03Y278246I-433J884D01*
G01X112648D02*
G03X108612I-2018J4116D01*
G01X112648D02*
G03Y276478I433J-884D01*
G01X113779Y275694D02*
G03X112648Y276478I-3149J-3332D01*
G01X113779Y275694D02*
G03X114660Y275447I676J715D01*
G01X162727Y285711*
G03X163217Y285978I-206J963*
G01X203715Y326476*
G03X203331Y328106I-696J696*
G01X201373Y329993D02*
G03X203331Y328106I2958J1109D01*
G01X201373Y329993D02*
G03X199755Y330344I-922J-345D01*
G01X185984Y316572*
X184446Y315935D02*
G03X185984Y316572I-0J2175D01*
G01X184446Y315935D02*
X148069D01*
G03X147125Y314673I-0J-984*
G01X141064D02*
G03X147125I3030J-893D01*
G01X141064D02*
G03X140120Y315935I-944J278D01*
G01X135315*
G03X134619Y315647I-0J-984*
G01X131178Y312206*
X129640Y311569D02*
G03X131178Y312206I0J2175D01*
G01X129640Y311569D02*
X121189D01*
G03X120379Y311144I0J-984*
G01X118622Y309628D02*
G03X120379Y311144I-2018J4116D01*
G01X118622Y309628D02*
G03Y307860I433J-884D01*
G01X112488Y301726D02*
G03X118622Y307860I4116J2018D01*
G01X112488Y301726D02*
G03X110720I-884J-433D01*
G01X103436Y300431D02*
G03X110720Y301726I3168J3313D01*
G01X103436Y300431D02*
G03X101772Y299719I-680J-712D01*
G01Y229921*
G03X102756Y228937I984J0*
G01X376378*
G03X377362Y229921I-0J984*
G01Y274701*
G03X375910Y275567I-984J-0*
G01X371732Y280024D02*
G03X375910Y275567I2677J-1678D01*
G01X371732Y280024D02*
G03X371017Y281523I-834J522D01*
G01X369623Y283096D02*
G03X371017Y281523I1584J0D01*
G01X369623Y283096D02*
Y285458D01*
Y285485D02*
G03Y285458I1584J-27D01*
G01Y285485D02*
G03X367943Y286198I-984J17D01*
G01X367407Y285662*
X365591Y284910D02*
G03X367407Y285662I-0J2568D01*
G01X365591Y284910D02*
X363317D01*
G03X362725Y284712I-0J-984*
G01X361773Y284394D02*
G03X362725Y284712I0J1584D01*
G01X361773Y284394D02*
X357973D01*
X357311Y284539D02*
G03X357973Y284394I662J1439D01*
G01X357311Y284539D02*
G03X355915Y283645I-412J-894D01*
G01Y272587*
G03X356341Y271777I984J0*
G01X350746D02*
G03X356341I2797J-4060D01*
G01X350746D02*
G03X351172Y272587I-559J810D01*
G01Y283926*
G03X350187Y284910I-985J-0*
G01X347093*
G03X346851Y284880I0J-984*
G01X346462Y284831D02*
G03X346851Y284880I0J1584D01*
G01X346462Y284831D02*
X343462D01*
X342081Y285639D02*
G03X343462Y284831I1381J776D01*
G01X342081Y285639D02*
G03X341223Y286141I-858J-483D01*
G01X339184*
X337646Y286778D02*
G03X339184Y286141I1538J1537D01*
G01X337646Y286778D02*
X336591Y287833D01*
G03X335895Y288121I-696J-696*
G01X335494*
G03X334510Y287137I0J-984*
G01Y286851*
X332925Y285267D02*
G03X334510Y286851I0J1584D01*
G01X332925Y285267D02*
X327217D01*
X326479Y285449D02*
G03X327217Y285267I738J1402D01*
G01X326479Y285449D02*
G03X326023Y285562I-458J-871D01*
G01X324488Y286199D02*
G03X326023Y285562I1538J1538D01*
G01X324488Y286199D02*
X321305Y289382D01*
G03X321302Y289385I-696J-696*
G01X320660Y290937D02*
G03X321302Y289385I2175J-9D01*
G01X320660Y290937D02*
Y290941D01*
Y297117*
G03X320372Y297813I-984J-0*
G01X306657Y311527*
G03X306041Y311812I-696J-696*
G01X309448Y315218D02*
G03X306041Y311812I-3149J-257D01*
G01X309448Y315218D02*
G03X309733Y314603I981J81D01*
G01X324372Y299963*
X325008Y298516D02*
G03X324372Y299963I-2173J-91D01*
G01X325008Y298516D02*
G03X326461Y297692I983J41D01*
G01X327217Y297884D02*
G03X326461Y297692I-0J-1584D01*
G01X327217Y297884D02*
X327510D01*
G03X328457Y299137I0J984*
G01X334174Y298324D02*
G03X328457Y299137I-2678J1676D01*
G01X334174Y298324D02*
G03X334210Y297227I835J-522D01*
G01X334510Y296300D02*
G03X334210Y297227I-1585J-0D01*
G01X334510Y296300D02*
Y296014D01*
G03X335494Y295030I984J-0*
G01X336055*
G03X336751Y295318I-0J984*
G01X337486Y296053*
X339024Y296690D02*
G03X337486Y296053I0J-2175D01*
G01X339024Y296690D02*
X341223D01*
G03X342081Y297192I0J984*
G01X343462Y298000D02*
G03X342081Y297192I0J-1585D01*
G01X343462Y298000D02*
X346462D01*
X346851Y297951D02*
G03X346462Y298000I-389J-1536D01*
G01X346851Y297951D02*
G03X347093Y297921I242J954D01*
G01X350229*
G03X350821Y298119I0J984*
G01X350875Y298158D02*
G03X350821Y298119I898J-1306D01*
G01X350875Y298158D02*
G03X351301Y298968I-558J810D01*
G01Y300160*
G03X350854Y300985I-984J0*
G01X356449Y301134D02*
G03X350854Y300985I-2906J3984D01*
G01X356449Y301134D02*
G03X356045Y300339I580J-795D01*
G01Y299241*
G03X357391Y298326I984J0*
G01X357973Y298437D02*
G03X357391Y298326I0J-1585D01*
G01X357973Y298437D02*
X361773D01*
X362725Y298119D02*
G03X361773Y298437I-952J-1267D01*
G01X362725Y298119D02*
G03X363317Y297921I592J786D01*
G01X365953*
X367769Y297169D02*
G03X365953Y297921I-1816J-1817D01*
G01X367769Y297169D02*
X367804Y297134D01*
G03X368499Y296846I695J696*
G01X368653*
G03X369632Y297932I-0J984*
G01X369623Y298096D02*
G03X369632Y297932I1584J0D01*
G01X369623Y298096D02*
Y300458D01*
X371207Y302042D02*
G03X369623Y300458I0J-1584D01*
G01X371207Y302042D02*
X371447D01*
G03X372431Y303027I0J985*
G01Y303476*
G03X372244Y304053I-984J-0*
G01X376004Y308828D02*
G03X372244Y304053I-1201J-2922D01*
G01X376004Y308828D02*
G03X377362Y309738I374J910D01*
G01X289124Y410315D02*
Y411417D01*
G03X288140Y412402I-984J0*
G01X286178*
G03X285559Y410652I-0J-985*
G01X286793Y409105D02*
G03X285559Y410652I-4116J-2018D01*
G01X286793Y409105D02*
G03X288561I884J433D01*
G01X288942Y409745D02*
G03X288561Y409105I3735J-2658D01*
G01X288942Y409745D02*
G03X289124Y410315I-802J570D01*
G01X252246Y404411D02*
G03Y406174I-439J882D01*
G01X251367Y407593D02*
G03X252246Y406174I1584J-0D01*
G01X251367Y407593D02*
Y411417D01*
G03X250382Y412402I-985J0*
G01X237019*
G03X236035Y411417I0J-985*
G01Y403943*
X234451Y402358D02*
G03X236035Y403943I-0J1585D01*
G01X234451Y402358D02*
X233970D01*
G03X233196Y400767I0J-984*
G01X233074Y396725D02*
G03X233196Y400767I-2365J2094D01*
G01X233074Y396725D02*
G03X233811Y395088I737J-653D01*
G01X234626*
X235439Y394863D02*
G03X234626Y395088I-813J-1359D01*
G01X235439Y394863D02*
G03X236450I506J845D01*
G01X237264Y395088D02*
G03X236450Y394863I-0J-1584D01*
G01X237264Y395088D02*
X239626D01*
X240439Y394863D02*
G03X239626Y395088I-813J-1359D01*
G01X240439Y394863D02*
G03X241450I506J845D01*
G01X242264Y395088D02*
G03X241450Y394863I-0J-1584D01*
G01X242264Y395088D02*
X244626D01*
X245439Y394863D02*
G03X244626Y395088I-813J-1359D01*
G01X245439Y394863D02*
G03X246450I506J845D01*
G01X247264Y395088D02*
G03X246450Y394863I-0J-1584D01*
G01X247264Y395088D02*
X249626D01*
X250701Y394668D02*
G03X249626Y395088I-1075J-1164D01*
G01X250701Y394668D02*
G03X252353Y395391I667J723D01*
G01Y396469*
G03X251975Y397245I-985J0*
G01X251367Y398493D02*
G03X251975Y397245I1584J-0D01*
G01X251367Y398493D02*
Y402993D01*
X252246Y404411D02*
G03X251367Y402993I705J-1418D01*
G01X114586Y307860D02*
G03Y309628I-433J884D01*
G01X112488Y311726D02*
G03X114586Y309628I4116J2018D01*
G01X112488Y311726D02*
G03X110720I-884J-433D01*
G01X108622Y309628D02*
G03X110720Y311726I-2018J4116D01*
G01X108622Y309628D02*
G03Y307860I433J-884D01*
G01X110720Y305762D02*
G03X108622Y307860I-4116J-2018D01*
G01X110720Y305762D02*
G03X112488I884J433D01*
G01X114586Y307860D02*
G03X112488Y305762I2018J-4116D01*
G01X104586Y307860D02*
G03Y309628I-433J884D01*
G01X103436Y310431D02*
G03X104586Y309628I3168J3313D01*
G01X103436Y310431D02*
G03X101772Y309719I-680J-712D01*
G01Y307769*
G03X103436Y307058I984J0*
G01X104586Y307860D02*
G03X103436Y307058I2018J-4116D01*
G01X140684Y340364D02*
G03X141494Y341907I-0J984D01*
G01X141311Y345194D02*
G03X141494Y341907I2783J-1493D01*
G01X141311Y345194D02*
G03X140444Y346644I-867J466D01*
G01X121832*
G03X120908Y345321I0J-984*
G01X120983Y342387D02*
G03X120908Y345321I-4379J1357D01*
G01X120983Y342387D02*
G03X121149Y341487I940J-291D01*
G01X121738Y340739*
G03X122511Y340364I773J609*
G01X140684*
X218500Y313396D02*
G03X218472Y314814I-696J696D01*
G01X218050Y315360D02*
G03X218472Y314814I1832J979D01*
G01X218050Y315360D02*
G03X216561Y315660I-868J-463D01*
G01X212037Y320002D02*
G03X216561Y315660I2530J-1892D01*
G01X212037Y320002D02*
G03X211653Y321489I-789J589D01*
G01X210831Y322348D02*
G03X211653Y321489I1472J585D01*
G01X210831Y322348D02*
G03X209220Y322680I-915J-364D01*
G01X191970Y305430*
G03X192666Y303750I696J-696*
G01X208446*
G03X209142Y304038I0J984*
G01X218500Y313396*
X243648Y345984D02*
G03X242441Y347191I-950J257D01*
G01X242028Y347136D02*
G03X242441Y347191I-0J1584D01*
G01X242028Y347136D02*
X241043D01*
X240740Y347166D02*
G03X241043Y347136I303J1554D01*
G01X240740Y347166D02*
G03X240363I-189J-966D01*
G01X240059Y347136D02*
G03X240363Y347166I0J1584D01*
G01X240059Y347136D02*
X239075D01*
X238771Y347166D02*
G03X239075Y347136I304J1554D01*
G01X238771Y347166D02*
G03X238394I-188J-966D01*
G01X238091Y347136D02*
G03X238394Y347166I-0J1584D01*
G01X238091Y347136D02*
X237908D01*
G03X236946Y345944I-0J-984*
G01X230771D02*
G03X236946I3087J-668D01*
G01X230771D02*
G03X229809Y347136I-962J208D01*
G01X229232*
X228929Y347166D02*
G03X229232Y347136I303J1554D01*
G01X228929Y347166D02*
G03X228552I-189J-966D01*
G01X228248Y347136D02*
G03X228552Y347166I0J1584D01*
G01X228248Y347136D02*
X227264D01*
X226960Y347166D02*
G03X227264Y347136I304J1554D01*
G01X226960Y347166D02*
G03X226583I-188J-966D01*
G01X226280Y347136D02*
G03X226583Y347166I-0J1584D01*
G01X226280Y347136D02*
X225295D01*
X224992Y347166D02*
G03X225295Y347136I303J1554D01*
G01X224992Y347166D02*
G03X224615I-189J-966D01*
G01X224311Y347136D02*
G03X224615Y347166I0J1584D01*
G01X224311Y347136D02*
X223327D01*
X223023Y347166D02*
G03X223327Y347136I304J1554D01*
G01X223023Y347166D02*
G03X222646I-188J-966D01*
G01X222343Y347136D02*
G03X222646Y347166I-0J1584D01*
G01X222343Y347136D02*
X221358D01*
X221055Y347166D02*
G03X221358Y347136I303J1554D01*
G01X221055Y347166D02*
G03X220678I-189J-966D01*
G01X220374Y347136D02*
G03X220678Y347166I0J1584D01*
G01X220374Y347136D02*
X219390D01*
X218977Y347191D02*
G03X219390Y347136I413J1529D01*
G01X218976Y347191D02*
G03X217770Y345984I-256J-950D01*
G01X217824Y345571D02*
G03X217770Y345984I-1584J-0D01*
G01X217824Y345571D02*
Y344587D01*
X217795Y344283D02*
G03X217824Y344587I-1555J304D01*
G01X217795Y344283D02*
G03Y343906I966J-189D01*
G01X217824Y343602D02*
G03X217795Y343906I-1584J0D01*
G01X217824Y343602D02*
Y342618D01*
X217795Y342315D02*
G03X217824Y342618I-1555J303D01*
G01X217795Y342315D02*
G03Y341937I966J-189D01*
G01X217824Y341634D02*
G03X217795Y341937I-1584J-0D01*
G01X217824Y341634D02*
Y340650D01*
X217795Y340346D02*
G03X217824Y340650I-1555J304D01*
G01X217795Y340346D02*
G03Y339969I966J-189D01*
G01X217823Y339730D02*
G03X217795Y339969I-1583J-65D01*
G01X217823Y339730D02*
G03X219109Y338833I984J40D01*
G01X222487Y333783D02*
G03X219109Y338833I-2408J2044D01*
G01X222487Y333783D02*
G03X222254Y333146I751J-637D01*
G01Y328042*
X221617Y326504D02*
G03X222254Y328042I-1538J1538D01*
G01X221617Y326504D02*
X218969Y323856D01*
X218358Y323427D02*
G03X218969Y323856I-927J1967D01*
G01X218358Y323427D02*
G03X217805Y322688I420J-891D01*
G01X217739Y322421D02*
G03X217805Y322688I-1499J512D01*
G01X217739Y322421D02*
G03X219060Y321198I932J-319D01*
G01X220405Y321301D02*
G03X219060Y321198I-523J-2010D01*
G01X220405Y321301D02*
G03X220923Y321307I248J952D01*
G01X221358Y321368D02*
G03X220923Y321307I0J-1585D01*
G01X221358Y321368D02*
X222343D01*
X222646Y321338D02*
G03X222343Y321368I-303J-1555D01*
G01X222646Y321338D02*
G03X223023I189J966D01*
G01X223327Y321368D02*
G03X223023Y321338I-0J-1585D01*
G01X223327Y321368D02*
X224297D01*
G03X225259Y322560I-0J984*
G01X231433Y322554D02*
G03X225259Y322560I-3087J674D01*
G01X231433Y322554D02*
G03X232314Y321362I961J-211D01*
G01X232489Y321338D02*
G03X232314Y321362I-304J-1555D01*
G01X232489Y321338D02*
G03X232866I188J966D01*
G01X233169Y321368D02*
G03X232866Y321338I0J-1585D01*
G01X233169Y321368D02*
X234154D01*
X234457Y321338D02*
G03X234154Y321368I-303J-1555D01*
G01X234457Y321338D02*
G03X234834I189J966D01*
G01X235138Y321368D02*
G03X234834Y321338I-0J-1585D01*
G01X235138Y321368D02*
X236122D01*
X236426Y321338D02*
G03X236122Y321368I-304J-1555D01*
G01X236426Y321338D02*
G03X236803I188J966D01*
G01X237106Y321368D02*
G03X236803Y321338I0J-1585D01*
G01X237106Y321368D02*
X238091D01*
X238394Y321338D02*
G03X238091Y321368I-303J-1555D01*
G01X238394Y321338D02*
G03X238771I189J966D01*
G01X239075Y321368D02*
G03X238771Y321338I-0J-1585D01*
G01X239075Y321368D02*
X240059D01*
X240363Y321338D02*
G03X240059Y321368I-304J-1555D01*
G01X240363Y321338D02*
G03X240740I188J966D01*
G01X241043Y321368D02*
G03X240740Y321338I0J-1585D01*
G01X241043Y321368D02*
X242028D01*
X242441Y321313D02*
G03X242028Y321368I-413J-1530D01*
G01X242441Y321313D02*
G03X243648Y322520I257J950D01*
G01X243593Y322933D02*
G03X243648Y322520I1584J0D01*
G01X243593Y322933D02*
Y323917D01*
X243622Y324221D02*
G03X243593Y323917I1555J-304D01*
G01X243622Y324221D02*
G03Y324598I-966J188D01*
G01X243593Y324902D02*
G03X243622Y324598I1584J-0D01*
G01X243593Y324902D02*
Y325886D01*
X243622Y326189D02*
G03X243593Y325886I1555J-303D01*
G01X243622Y326189D02*
G03Y326567I-966J189D01*
G01X243593Y326870D02*
G03X243622Y326567I1584J0D01*
G01X243593Y326870D02*
Y327854D01*
X243622Y328158D02*
G03X243593Y327854I1555J-304D01*
G01X243622Y328158D02*
G03Y328535I-966J188D01*
G01X243593Y328839D02*
G03X243622Y328535I1584J-0D01*
G01X243593Y328839D02*
Y329823D01*
X243622Y330126D02*
G03X243593Y329823I1555J-303D01*
G01X243622Y330126D02*
G03Y330504I-966J189D01*
G01X243612Y330562D02*
G03X243622Y330504I1565J245D01*
G01X243612Y330562D02*
G03X243059Y331301I-973J-152D01*
G01X242642Y331559D02*
G03X243059Y331301I1345J1709D01*
G01X242642Y331559D02*
G03X241494Y331609I-609J-774D01*
G01X240700Y337269D02*
G03X241494Y331609I-936J-3017D01*
G01X240700Y337269D02*
G03X241925Y337896I291J940D01*
G01X243059Y339172D02*
G03X241925Y337896I928J-1967D01*
G01X243059Y339172D02*
G03X243612Y339910I-420J890D01*
G01X243622Y339969D02*
G03X243612Y339910I1555J-304D01*
G01X243622Y339969D02*
G03Y340346I-966J188D01*
G01X243593Y340650D02*
G03X243622Y340346I1584J-0D01*
G01X243593Y340650D02*
Y341634D01*
X243622Y341937D02*
G03X243593Y341634I1555J-303D01*
G01X243622Y341937D02*
G03Y342315I-966J189D01*
G01X243593Y342618D02*
G03X243622Y342315I1584J0D01*
G01X243593Y342618D02*
Y343602D01*
X243622Y343906D02*
G03X243593Y343602I1555J-304D01*
G01X243622Y343906D02*
G03Y344283I-966J188D01*
G01X243593Y344587D02*
G03X243622Y344283I1584J-0D01*
G01X243593Y344587D02*
Y345571D01*
X243648Y345984D02*
G03X243593Y345571I1529J-413D01*
G01X277116Y343014D02*
G03Y344781I-433J884D01*
G01X274625Y349728D02*
G03X277116Y344781I4509J-830D01*
G01X274625Y349728D02*
G03X274353Y350602I-968J178D01*
G01X270332Y354624*
G03X269636Y354912I-696J-696*
G01X244260*
G03X243405Y353441I0J-984*
G01X243605Y352801D02*
G03X243405Y353441I-1577J-144D01*
G01X243605Y352801D02*
G03X244969Y351984I981J89D01*
G01X249232Y348186D02*
G03X244969Y351984I-3031J889D01*
G01X249232Y348186D02*
G03X249770Y347013I945J-277D01*
G01X250679Y345816D02*
G03X249770Y347013I-1565J-245D01*
G01X250679Y345816D02*
G03X251232Y345077I973J152D01*
G01X251843Y344648D02*
G03X251232Y345077I-1538J-1538D01*
G01X251843Y344648D02*
X254687Y341803D01*
X255133Y341156D02*
G03X254687Y341803I-1983J-891D01*
G01X255133Y341156D02*
G03X255347Y340853I898J404D01*
G01X254767Y335869D02*
G03X255347Y340853I-1617J2714D01*
G01X254767Y335869D02*
G03X254575Y334328I504J-845D01*
G01X255877Y333026*
G03X257553Y333806I696J696*
G01X262745Y336483D02*
G03X257553Y333806I-2044J-2408D01*
G01X262745Y336483D02*
G03X263382Y336250I637J751D01*
G01X273820*
G03X274759Y337528I-0J984*
G01X277116Y343014D02*
G03X274759Y337528I2018J-4116D01*
G01X325797Y350394D02*
G03X325797I-4931J0D01*
G01X331702Y392126D02*
G03X331702I-4930J0D01*
G01X196072Y352756D02*
G03X196072I-3159J0D01*
G01X252397Y344093D02*
X277647D01*
X254169Y342322D02*
X276085D01*
X250671Y345865D02*
X275696D01*
X255621Y340550D02*
X274858D01*
X261877Y337007D02*
X274777D01*
X249231Y347636D02*
X274726D01*
X249342Y349408D02*
X274578D01*
X256303Y338778D02*
X274551D01*
X248556Y351180D02*
X273776D01*
X243584Y352951D02*
X272004D01*
X243681Y354723D02*
X270216D01*
X255887Y337007D02*
X259524D01*
X254310Y335235D02*
X257762D01*
X255439Y333463D02*
X257522D01*
X236788Y344093D02*
X243640D01*
X228607Y326377D02*
X243640D01*
X234978Y342322D02*
X243621D01*
X231190Y324605D02*
X243621D01*
X236962Y345865D02*
X243620D01*
X222254Y328148D02*
X243620D01*
X217821Y340550D02*
X243596D01*
X231481Y322833D02*
X243596D01*
X222254Y329920D02*
X243596D01*
X221205Y338778D02*
X242485D01*
X241649Y331692D02*
X242417D01*
X223009Y337007D02*
X238217D01*
X222254Y331692D02*
X237913D01*
X223182Y335235D02*
X236762D01*
X222306Y333463D02*
X236705D01*
X217796Y342322D02*
X232739D01*
X217777Y344093D02*
X230929D01*
X217797Y345865D02*
X230755D01*
X221489Y326377D02*
X228086D01*
X219718Y324605D02*
X225503D01*
X217839Y322833D02*
X225212D01*
X200515Y313975D02*
X218781D01*
X216686Y315747D02*
X217678D01*
X198744Y312203D02*
X217308D01*
X196972Y310432D02*
X215536D01*
X195200Y308660D02*
X213764D01*
X202287Y315747D02*
X212471D01*
X207602Y321062D02*
X212113D01*
X193429Y306888D02*
X211993D01*
X205830Y319290D02*
X211636D01*
X204059Y317518D02*
X211464D01*
X209419Y322833D02*
X210414D01*
X191759Y305117D02*
X210221D01*
X120870Y345865D02*
X141406D01*
X121935Y340550D02*
X141260D01*
X120965Y342322D02*
X141252D01*
X121175Y344093D02*
X140960D01*
X101772Y308660D02*
X105133D01*
X102077Y310432D02*
X103435D01*
X102317Y306888D02*
X103195D01*
X108074Y308660D02*
X115133D01*
X109773Y310432D02*
X113435D01*
X109940Y306888D02*
X113268D01*
X111230Y312203D02*
X111978D01*
X236035Y406101D02*
X252369D01*
X233032Y395471D02*
X252353D01*
X236035Y404329D02*
X252101D01*
X233446Y397243D02*
X251977D01*
X236035Y411416D02*
X251367D01*
X236035Y409644D02*
X251367D01*
X236035Y407873D02*
X251367D01*
X235220Y402558D02*
X251367D01*
X233181Y400786D02*
X251367D01*
X233862Y399014D02*
X251367D01*
X285193Y411416D02*
X289124D01*
X286482Y409644D02*
X288873D01*
X315193Y411416D02*
X377362D01*
X316482Y409644D02*
X377362D01*
X317194Y407873D02*
X377362D01*
X317154Y406101D02*
X377362D01*
X316340Y404329D02*
X377362D01*
X313388Y402558D02*
X377362D01*
X302610Y400786D02*
X377362D01*
X304382Y399014D02*
X377362D01*
X305527Y397243D02*
X377362D01*
X330394Y395471D02*
X377362D01*
X331445Y393699D02*
X377362D01*
X331698Y391928D02*
X377362D01*
X331292Y390156D02*
X377362D01*
X329983Y388385D02*
X377362D01*
X305573Y386613D02*
X377362D01*
X305573Y384841D02*
X377362D01*
X305573Y383070D02*
X377362D01*
X305573Y381298D02*
X377362D01*
X305573Y379526D02*
X377362D01*
X305573Y377755D02*
X377362D01*
X305573Y375983D02*
X377362D01*
X305573Y374211D02*
X377362D01*
X305573Y372440D02*
X377362D01*
X305573Y370668D02*
X377362D01*
X305586Y368896D02*
X377362D01*
X306488Y367125D02*
X377362D01*
X306489Y365353D02*
X377362D01*
X306405Y363581D02*
X377362D01*
X310208Y361810D02*
X377362D01*
X311664Y360038D02*
X377362D01*
X311720Y358266D02*
X377362D01*
X310512Y356495D02*
X377362D01*
X323226Y354723D02*
X377362D01*
X325082Y352951D02*
X377362D01*
X325734Y351180D02*
X377362D01*
X325697Y349408D02*
X377362D01*
X324954Y347636D02*
X377362D01*
X322816Y345865D02*
X377362D01*
X300009Y344093D02*
X377362D01*
X299465Y342322D02*
X377362D01*
X283410Y340550D02*
X377362D01*
X283717Y338778D02*
X377362D01*
X283490Y337007D02*
X377362D01*
X361892Y335235D02*
X377362D01*
X363664Y333463D02*
X377362D01*
X367226Y331692D02*
X377362D01*
X367258Y329920D02*
X377362D01*
X367258Y328148D02*
X377362D01*
X366960Y326377D02*
X377362D01*
X367258Y324605D02*
X377362D01*
X367258Y322833D02*
X377362D01*
X367226Y321062D02*
X377362D01*
X365426Y319290D02*
X377362D01*
X366475Y317518D02*
X377362D01*
X367308Y315747D02*
X377362D01*
X367015Y313975D02*
X377362D01*
X364400Y312203D02*
X377362D01*
X313904Y310432D02*
X377362D01*
X355915Y273227D02*
X377362D01*
X356758Y271455D02*
X377362D01*
X358065Y269684D02*
X377362D01*
X358470Y267912D02*
X377362D01*
X358215Y266140D02*
X377362D01*
X357163Y264369D02*
X377362D01*
X272647Y262597D02*
X377362D01*
X272647Y260825D02*
X377362D01*
X272647Y259054D02*
X377362D01*
X272647Y257282D02*
X377362D01*
X271224Y255510D02*
X377362D01*
X263548Y253739D02*
X377362D01*
X263714Y251967D02*
X377362D01*
X263714Y250196D02*
X377362D01*
X263498Y248424D02*
X377362D01*
X263714Y246652D02*
X377362D01*
X263714Y244881D02*
X377362D01*
X263714Y243109D02*
X377362D01*
X262842Y241337D02*
X377362D01*
X263640Y239566D02*
X377362D01*
X264183Y237794D02*
X377362D01*
X263638Y236022D02*
X377362D01*
X224537Y234251D02*
X377362D01*
X101772Y232479D02*
X377362D01*
X101772Y230707D02*
X377362D01*
X355915Y274999D02*
X377316D01*
X356974Y308660D02*
X373257D01*
X358144Y303345D02*
X372431D01*
X355915Y280314D02*
X371855D01*
X358145Y306888D02*
X371801D01*
X358474Y305117D02*
X371744D01*
X355915Y276770D02*
X371672D01*
X355915Y278542D02*
X371256D01*
X356971Y301573D02*
X370082D01*
X355915Y282085D02*
X369987D01*
X362866Y298030D02*
X369624D01*
X356045Y299802D02*
X369623D01*
X355938Y283857D02*
X369623D01*
X367373Y285629D02*
X369615D01*
X312132Y312203D02*
X363946D01*
X355873Y319290D02*
X362921D01*
X340899Y317518D02*
X361872D01*
X347911Y326377D02*
X361387D01*
X338915Y313975D02*
X361331D01*
X357332Y321062D02*
X361121D01*
X347966Y328148D02*
X361089D01*
X356185Y324605D02*
X361089D01*
X357390Y322833D02*
X361089D01*
X340725Y315747D02*
X361039D01*
X347966Y329920D02*
X360985D01*
X348324Y331692D02*
X359273D01*
X347287Y319290D02*
X352789D01*
X348038Y324605D02*
X352477D01*
X334649Y299802D02*
X351301D01*
X315338Y283857D02*
X351172D01*
X315751Y282085D02*
X351172D01*
X315068Y280314D02*
X351172D01*
X238904Y278542D02*
X351172D01*
X240675Y276770D02*
X351172D01*
X242447Y274999D02*
X351172D01*
X244219Y273227D02*
X351172D01*
X334051Y298030D02*
X350680D01*
X245990Y271455D02*
X350329D01*
X334235Y301573D02*
X350116D01*
X315675Y308660D02*
X350113D01*
X272647Y264369D02*
X349923D01*
X247762Y269684D02*
X349022D01*
X320990Y303345D02*
X348942D01*
X317447Y306888D02*
X348941D01*
X272120Y266140D02*
X348871D01*
X249534Y267912D02*
X348616D01*
X319219Y305117D02*
X348613D01*
X340511Y319290D02*
X342477D01*
X333933Y285629D02*
X342087D01*
X334510Y296259D02*
X337724D01*
X334546Y287400D02*
X337023D01*
X310360Y313975D02*
X336676D01*
X289820Y319290D02*
X335193D01*
X309359Y315747D02*
X334866D01*
X331032Y324605D02*
X334726D01*
X290610Y322833D02*
X334711D01*
X288556Y321062D02*
X334711D01*
X308153Y317518D02*
X334692D01*
X332811Y326377D02*
X334498D01*
X322762Y301573D02*
X328757D01*
X324518Y299802D02*
X328343D01*
X325159Y298030D02*
X328027D01*
X291467Y324605D02*
X325661D01*
X316414Y285629D02*
X325492D01*
X291996Y326377D02*
X323925D01*
X305573Y388385D02*
X323560D01*
X316990Y287400D02*
X323287D01*
X305573Y395471D02*
X323149D01*
X305573Y390156D02*
X322251D01*
X305573Y393699D02*
X322099D01*
X305573Y391928D02*
X321845D01*
X316972Y289172D02*
X321515D01*
X316990Y296259D02*
X320660D01*
X316990Y294487D02*
X320660D01*
X316990Y292715D02*
X320660D01*
X316990Y290944D02*
X320660D01*
X311080Y298030D02*
X320154D01*
X299488Y345865D02*
X318916D01*
X304548Y354723D02*
X318506D01*
X309271Y299802D02*
X318382D01*
X310597Y347636D02*
X316778D01*
X310909Y352951D02*
X316651D01*
X307499Y301573D02*
X316611D01*
X312057Y349408D02*
X316035D01*
X312115Y351180D02*
X315998D01*
X305727Y303345D02*
X314839D01*
X303956Y305117D02*
X313067D01*
X303388Y402558D02*
X311967D01*
X302184Y306888D02*
X311296D01*
X237132Y280314D02*
X310129D01*
X233589Y283857D02*
X309859D01*
X300412Y308660D02*
X309524D01*
X235360Y282085D02*
X309446D01*
X306340Y404329D02*
X309015D01*
X231955Y285629D02*
X308689D01*
X231899Y287400D02*
X308077D01*
X298641Y310432D02*
X307752D01*
X305515Y347636D02*
X307513D01*
X296869Y312203D02*
X304757D01*
X291472Y317518D02*
X304445D01*
X295097Y313975D02*
X303298D01*
X293326Y315747D02*
X303240D01*
X300123Y347636D02*
X300684D01*
X270876Y393699D02*
X300436D01*
X270876Y391928D02*
X300436D01*
X270673Y390156D02*
X300436D01*
X269297Y388385D02*
X300436D01*
X251210Y386613D02*
X300436D01*
X226317Y384841D02*
X300436D01*
X227150Y383070D02*
X300436D01*
X227616Y381298D02*
X300436D01*
X228466Y379526D02*
X300436D01*
X245161Y377755D02*
X300436D01*
X246367Y375983D02*
X300436D01*
X246308Y374211D02*
X300436D01*
X282044Y372440D02*
X300436D01*
X283363Y370668D02*
X300436D01*
X270876Y395471D02*
X300419D01*
X290812Y368896D02*
X300191D01*
X270876Y397243D02*
X298889D01*
X270876Y399014D02*
X297117D01*
X281049Y354723D02*
X295452D01*
X270876Y400786D02*
X295345D01*
X282182Y342322D02*
X294236D01*
X282572Y345865D02*
X294213D01*
X283541Y347636D02*
X294185D01*
X280620Y344093D02*
X293691D01*
X281274Y352951D02*
X293642D01*
X283110Y351180D02*
X293416D01*
X283690Y349408D02*
X293416D01*
X283388Y402558D02*
X291967D01*
X231899Y289172D02*
X290430D01*
X283718Y368896D02*
X290290D01*
X282674Y361810D02*
X289059D01*
X286340Y404329D02*
X289015D01*
X231899Y290944D02*
X288653D01*
X280653Y363581D02*
X288252D01*
X283038Y356495D02*
X287858D01*
X283361Y367125D02*
X287708D01*
X282041Y365353D02*
X287417D01*
X283574Y360038D02*
X287314D01*
X283674Y358266D02*
X287023D01*
X231899Y292715D02*
X283502D01*
X231899Y294487D02*
X282579D01*
X231899Y296259D02*
X282462D01*
X270618Y402558D02*
X281967D01*
X238171Y298030D02*
X281571D01*
X269336Y411416D02*
X280161D01*
X238586Y299802D02*
X279800D01*
X270110Y404329D02*
X279015D01*
X270376Y409644D02*
X278873D01*
X270407Y406101D02*
X278200D01*
X270407Y407873D02*
X278161D01*
X237905Y301573D02*
X278028D01*
X234816Y303345D02*
X276256D01*
X249811Y372440D02*
X276224D01*
X251361Y370668D02*
X274905D01*
X256283Y368896D02*
X274550D01*
X244455Y305117D02*
X274485D01*
X256696Y367125D02*
X274285D01*
X245915Y306888D02*
X272713D01*
X256047Y365353D02*
X272514D01*
X245983Y308660D02*
X270941D01*
X257879Y388385D02*
X265349D01*
X261035Y411416D02*
X265309D01*
X260301Y404329D02*
X264536D01*
X261035Y409644D02*
X264270D01*
X261035Y407873D02*
X264239D01*
X260033Y406101D02*
X264239D01*
X261035Y402558D02*
X264027D01*
X259256Y390156D02*
X263973D01*
X261035Y400786D02*
X263770D01*
X261035Y399014D02*
X263770D01*
X260424Y397243D02*
X263770D01*
X259458Y395471D02*
X263770D01*
X259458Y393699D02*
X263770D01*
X259458Y391928D02*
X263770D01*
X225240Y241337D02*
X258418D01*
X225544Y236022D02*
X258409D01*
X224616Y239566D02*
X258386D01*
X225371Y237794D02*
X257865D01*
X225525Y248424D02*
X257762D01*
X224733Y253739D02*
X257712D01*
X225525Y251967D02*
X257546D01*
X225525Y250196D02*
X257546D01*
X225404Y246652D02*
X257546D01*
X225525Y244881D02*
X257546D01*
X225525Y243109D02*
X257546D01*
X251210Y388385D02*
X253932D01*
X233822Y255510D02*
X249249D01*
X235246Y262597D02*
X247825D01*
X235246Y260825D02*
X247825D01*
X235246Y259054D02*
X247825D01*
X235246Y257282D02*
X247825D01*
X235246Y264369D02*
X246926D01*
X234719Y266140D02*
X245154D01*
X225009Y267912D02*
X243382D01*
X225009Y269684D02*
X241611D01*
X228210Y377755D02*
X241453D01*
X238156Y305117D02*
X241371D01*
X229616Y374211D02*
X240306D01*
X228592Y375983D02*
X240247D01*
X225009Y271455D02*
X239839D01*
X225009Y273227D02*
X238067D01*
X234811Y372440D02*
X237079D01*
X225009Y274999D02*
X236296D01*
X225009Y276770D02*
X234524D01*
X225009Y278542D02*
X232752D01*
X230006Y372440D02*
X232079D01*
X225515Y280314D02*
X230981D01*
X203872Y386613D02*
X230680D01*
X203872Y395471D02*
X230663D01*
X228679Y388385D02*
X230478D01*
X227287Y282085D02*
X229209D01*
X203872Y400786D02*
X228237D01*
X203872Y397243D02*
X227971D01*
X203594Y399014D02*
X227556D01*
X203872Y402558D02*
X227181D01*
X203840Y388385D02*
X226440D01*
X101772Y406101D02*
X226367D01*
X203787Y404329D02*
X226367D01*
X222867Y308660D02*
X225581D01*
X221096Y306888D02*
X225581D01*
X219324Y305117D02*
X225581D01*
X217552Y303345D02*
X225581D01*
X215781Y301573D02*
X225581D01*
X214009Y299802D02*
X225581D01*
X212237Y298030D02*
X225581D01*
X210466Y296259D02*
X225581D01*
X208694Y294487D02*
X225581D01*
X201590Y292715D02*
X225581D01*
X201273Y290944D02*
X225581D01*
X200137Y289172D02*
X225581D01*
X200722Y287400D02*
X225581D01*
X203867Y393699D02*
X225460D01*
X200722Y285629D02*
X224679D01*
X202962Y390156D02*
X224630D01*
X202965Y391928D02*
X224455D01*
X200722Y283857D02*
X222907D01*
X203872Y384841D02*
X221714D01*
X206972Y282085D02*
X221151D01*
X203574Y383070D02*
X220881D01*
X208178Y280314D02*
X220660D01*
X208120Y278542D02*
X220660D01*
X206660Y276770D02*
X220660D01*
X161539Y274999D02*
X220660D01*
X159767Y273227D02*
X220660D01*
X156897Y271455D02*
X220660D01*
X149664Y269684D02*
X220660D01*
X142430Y267912D02*
X220660D01*
X101772Y407873D02*
X220365D01*
X101772Y234251D02*
X220345D01*
X101772Y239566D02*
X220266D01*
X115003Y253739D02*
X220149D01*
X101772Y411416D02*
X219987D01*
X101772Y409644D02*
X219682D01*
X209223Y374211D02*
X219662D01*
X101772Y241337D02*
X219642D01*
X101772Y237794D02*
X219510D01*
X101772Y246652D02*
X219478D01*
X112976Y248424D02*
X219357D01*
X115197Y251967D02*
X219357D01*
X114670Y250196D02*
X219357D01*
X101772Y244881D02*
X219357D01*
X101772Y243109D02*
X219357D01*
X101772Y236022D02*
X219338D01*
X207451Y375983D02*
X218320D01*
X165870Y349408D02*
X217805D01*
X164098Y347636D02*
X217803D01*
X210994Y372440D02*
X217745D01*
X195651Y351180D02*
X217707D01*
X196066Y352951D02*
X217245D01*
X203872Y381298D02*
X216596D01*
X212766Y370668D02*
X216289D01*
X205679Y377755D02*
X216056D01*
X203977Y379526D02*
X215763D01*
X214550Y368896D02*
X215746D01*
X195385Y354723D02*
X215473D01*
X172956Y356495D02*
X213701D01*
X200521Y358266D02*
X211930D01*
X113962Y255510D02*
X211847D01*
X135197Y266140D02*
X210951D01*
X127964Y264369D02*
X210424D01*
X120731Y262597D02*
X210424D01*
X114955Y260825D02*
X210424D01*
X113803Y259054D02*
X210424D01*
X112100Y257282D02*
X210424D01*
X201528Y360038D02*
X210158D01*
X201356Y361810D02*
X208386D01*
X199552Y363581D02*
X206615D01*
X147621Y365353D02*
X204843D01*
X195788Y326377D02*
X203616D01*
X200437Y276770D02*
X203576D01*
X200635Y282085D02*
X203264D01*
X197560Y328148D02*
X203211D01*
X156630Y367125D02*
X203071D01*
X194016Y324605D02*
X201844D01*
X199331Y329920D02*
X201401D01*
X157465Y368896D02*
X201300D01*
X192245Y322833D02*
X200073D01*
X188465Y370668D02*
X199528D01*
X190473Y321062D02*
X198301D01*
X189673Y372440D02*
X197756D01*
X148035Y363581D02*
X197299D01*
X188701Y319290D02*
X196529D01*
X174745Y358266D02*
X196324D01*
X189616Y374211D02*
X195985D01*
X190294Y289172D02*
X195139D01*
X190594Y276770D02*
X194839D01*
X186930Y317518D02*
X194758D01*
X190758Y282085D02*
X194675D01*
X190879Y283857D02*
X194554D01*
X190880Y287400D02*
X194554D01*
X190880Y285629D02*
X194554D01*
X190880Y280314D02*
X194554D01*
X190880Y278542D02*
X194554D01*
X188789Y375983D02*
X194213D01*
X191430Y290944D02*
X194003D01*
X191545Y296259D02*
X193888D01*
X191545Y294487D02*
X193888D01*
X191545Y292715D02*
X193888D01*
X192051Y298030D02*
X193728D01*
X147489Y315747D02*
X192986D01*
X147248Y313975D02*
X191214D01*
X171185Y354723D02*
X190442D01*
X167641Y351180D02*
X190176D01*
X169413Y352951D02*
X189760D01*
X146832Y312203D02*
X189443D01*
X119773Y310432D02*
X187671D01*
X118074Y308660D02*
X185899D01*
X175712Y289172D02*
X185296D01*
X183038Y276770D02*
X184996D01*
X157174Y370668D02*
X184764D01*
X170397Y283857D02*
X184711D01*
X173940Y287400D02*
X184711D01*
X172169Y285629D02*
X184711D01*
X183350Y282085D02*
X184504D01*
X144079Y390156D02*
X184439D01*
X146981Y375983D02*
X184439D01*
X143246Y391928D02*
X184437D01*
X177484Y290944D02*
X184160D01*
X119940Y306888D02*
X184128D01*
X181027Y294487D02*
X184046D01*
X179255Y292715D02*
X184046D01*
X138668Y383070D02*
X183827D01*
X135126Y399014D02*
X183808D01*
X101772Y404329D02*
X183614D01*
X147986Y374211D02*
X183612D01*
X143987Y377755D02*
X183562D01*
X143787Y388385D02*
X183561D01*
X154591Y372440D02*
X183555D01*
X129570Y393699D02*
X183534D01*
X134585Y402558D02*
X183530D01*
X135418Y400786D02*
X183530D01*
X132510Y397243D02*
X183530D01*
X129570Y395471D02*
X183530D01*
X141172Y386613D02*
X183530D01*
X138668Y384841D02*
X183530D01*
X142799Y381298D02*
X183530D01*
X144005Y379526D02*
X183530D01*
X120978Y305117D02*
X182356D01*
X121171Y303345D02*
X180584D01*
X163311Y276770D02*
X179954D01*
X168626Y282085D02*
X179642D01*
X120642Y301573D02*
X178813D01*
X165082Y278542D02*
X178495D01*
X166854Y280314D02*
X178436D01*
X118943Y299802D02*
X177041D01*
X101772Y298030D02*
X175269D01*
X101772Y296259D02*
X173498D01*
X147352Y361810D02*
X172120D01*
X101772Y294487D02*
X171726D01*
X146783Y345865D02*
X171332D01*
X119302Y360038D02*
X170348D01*
X101772Y292715D02*
X169955D01*
X147229Y344093D02*
X169561D01*
X118195Y358266D02*
X168577D01*
X101772Y290944D02*
X168183D01*
X146937Y342322D02*
X167789D01*
X120271Y356495D02*
X166805D01*
X101772Y289172D02*
X166411D01*
X146929Y340550D02*
X166000D01*
X121082Y354723D02*
X165033D01*
X101772Y287400D02*
X164640D01*
X121119Y352951D02*
X163262D01*
X113846Y285629D02*
X162339D01*
X121309Y351180D02*
X161472D01*
X147872Y372440D02*
X154070D01*
X114964Y283857D02*
X154043D01*
X115206Y282085D02*
X145747D01*
X120760Y361810D02*
X142412D01*
X120897Y365353D02*
X142143D01*
X121185Y363581D02*
X141729D01*
X131175Y312203D02*
X141357D01*
X132947Y313975D02*
X140941D01*
X139049Y386613D02*
X140718D01*
X134735Y315747D02*
X140700D01*
X114731Y280314D02*
X137451D01*
X120180Y386613D02*
X132722D01*
X129570Y391928D02*
X132501D01*
X119457Y390156D02*
X132499D01*
X118139Y388385D02*
X132499D01*
X129458Y397243D02*
X132057D01*
X113164Y278542D02*
X129155D01*
X119700Y367125D02*
X125159D01*
X119566Y397243D02*
X123613D01*
X101772Y402558D02*
X123565D01*
X101772Y400786D02*
X123402D01*
X101772Y399014D02*
X123402D01*
X118083Y368896D02*
X122667D01*
X112295Y276770D02*
X120858D01*
X120190Y370668D02*
X120714D01*
X108943Y299802D02*
X114264D01*
X109566Y397243D02*
X113641D01*
X110642Y301573D02*
X112566D01*
X110937Y395471D02*
X112270D01*
X101772Y257282D02*
X109160D01*
X101772Y267912D02*
X108995D01*
X101772Y276770D02*
X108965D01*
X101772Y248424D02*
X108284D01*
X101772Y278542D02*
X108096D01*
X101772Y266140D02*
X108034D01*
X101772Y259054D02*
X107457D01*
X101772Y285629D02*
X107413D01*
X101772Y255510D02*
X107298D01*
X101772Y269684D02*
X106910D01*
X101772Y274999D02*
X106880D01*
X101772Y250196D02*
X106590D01*
X101772Y280314D02*
X106529D01*
X101772Y264369D02*
X106508D01*
X101772Y260825D02*
X106311D01*
X101772Y283857D02*
X106296D01*
X101772Y253739D02*
X106257D01*
X101772Y271455D02*
X106136D01*
X101772Y273227D02*
X106128D01*
X101772Y251967D02*
X106063D01*
X101772Y282085D02*
X106054D01*
X101772Y262597D02*
X106052D01*
X101775Y299802D02*
X104264D01*
X101924Y397243D02*
X103641D01*
G54D181*
X256201Y400743D03*
Y409843D03*
Y418943D03*
G54D182*
X231201Y409843D03*
G54D262*
X475984Y253199D03*
Y259399D03*
X431967Y295330D03*
Y289130D03*
X267323Y401231D03*
Y407431D03*
X126486Y399957D03*
Y393757D03*
X135583Y389947D03*
Y383747D03*
X187795Y279577D03*
Y285777D03*
X197638Y279577D03*
Y285777D03*
X222441Y244144D03*
Y250344D03*
X260630Y244931D03*
Y251131D03*
X207087Y446113D03*
Y452313D03*
Y459498D03*
Y465698D03*
X364173Y329478D03*
Y323278D03*
X344882Y322491D03*
Y328691D03*
X337795Y322491D03*
Y328691D03*
X200787Y386171D03*
Y379971D03*
X193701Y386171D03*
Y379971D03*
X186614Y386171D03*
Y379971D03*
X344962Y294515D03*
Y288315D03*
X200787Y395719D03*
Y401919D03*
X186614Y395719D03*
Y401919D03*
X193701Y395719D03*
Y401919D03*
X447244Y265698D03*
Y259498D03*
G54D278*
X718110Y409055D03*
X707480Y459055D03*
X701575Y484646D03*
G54D282*
X464567Y297343D03*
Y288484D03*
G54D283*
X527381Y292036D03*
Y266840D03*
X326432Y435864D03*
Y461060D03*
G54D284*
X464750Y259489D03*
Y263229D03*
Y266969D03*
X455498D03*
Y259489D03*
G54D285*
X416680Y284277D03*
Y289277D03*
Y294277D03*
Y299277D03*
X374751D03*
Y294277D03*
Y289277D03*
Y284277D03*
G54D286*
X330071Y287737D03*
Y290296D03*
Y292855D03*
Y295414D03*
X312551D03*
Y292855D03*
Y290296D03*
Y287737D03*
G54D287*
X219882Y317815D03*
G54D288*
X221850D03*
X223819D03*
X225787D03*
X227756D03*
X229724D03*
X231693D03*
X233661D03*
X235630D03*
X237598D03*
X239567D03*
X241535D03*
Y350689D03*
X239567D03*
X237598D03*
X235630D03*
X233661D03*
X231693D03*
X229724D03*
X227756D03*
X225787D03*
X223819D03*
X221850D03*
X219882D03*
G54D289*
X247146Y323425D03*
Y325394D03*
Y327362D03*
Y329331D03*
Y331299D03*
Y333268D03*
Y335236D03*
Y337205D03*
Y339173D03*
Y341142D03*
Y343110D03*
Y345079D03*
X214272D03*
Y343110D03*
Y341142D03*
Y339173D03*
Y337205D03*
Y335236D03*
Y333268D03*
Y331299D03*
Y329331D03*
Y327362D03*
Y325394D03*
Y323425D03*
G54D290*
X197638Y295276D03*
X187795D03*
G54D291*
X178902Y458299D03*
Y456331D03*
Y454362D03*
X185791D03*
Y456331D03*
Y458299D03*
G54D292*
X248445Y390059D03*
X243445D03*
X238445D03*
X233445D03*
Y367421D03*
X238445D03*
X243445D03*
X248445D03*
G54D293*
X733465Y261417D03*
X644882D03*
G54D294*
X260236Y261024D03*
X222835D03*
G54D295*
X798819Y464173D03*
X778819D03*
X779134Y409055D03*
X799134D03*
X115472Y477992D03*
X116890Y427677D03*
G54D296*
X779134Y409055D02*
X799134D01*
X513948Y469492D02*
X529101Y484646D01*
X633465*
X756356Y483858D02*
X767135D01*
X778346Y472647*
Y464173*
X788976*
X798819D02*
X788976D01*
X778819*
X633465Y484646D02*
X701575D01*
X722094*
X722881Y483858*
X742856*
G54D297*
X182283Y463386D02*
Y457584D01*
X183568Y456299*
X185760*
X185791Y456331*
X178902D02*
X178933Y456299D01*
X181048*
X182283Y455064*
Y448819*
G54D317*
X222441Y236614D03*
X261024Y237795D03*
X181496Y279528D03*
X205118D03*
X312598Y282283D03*
X374409Y278346D03*
X423622D03*
X460236Y253937D03*
X446850Y274409D03*
X475984Y246850D03*
X468110Y276378D03*
X527559Y252362D03*
X153937Y322835D03*
X144094Y313780D03*
X235433Y299606D03*
X236614Y307874D03*
X228346Y323228D03*
X214567Y318110D03*
X242913Y307874D03*
X247638Y318504D03*
X306299Y314961D03*
X354331Y322047D03*
X331496Y300000D03*
X337795Y316929D03*
X374803Y305906D03*
X364173Y315354D03*
X424016Y301969D03*
X464567Y303937D03*
X144094Y343701D03*
X144882Y363780D03*
X198425Y360630D03*
X192913Y352756D03*
X204331Y331102D03*
X233858Y345276D03*
X220079Y335827D03*
X239764Y334252D03*
X254724Y325984D03*
X260701Y334075D03*
X253150Y338583D03*
X246201Y349075D03*
X309055Y350394D03*
X308661Y359055D03*
X290157Y358661D03*
X296850Y344094D03*
X154331Y369291D03*
X140945Y378740D03*
X132283Y400394D03*
X140945Y389764D03*
X144882Y373622D03*
X186614Y373228D03*
X224016Y382677D03*
X218898Y379134D03*
X219291Y369685D03*
X227559Y391339D03*
X230709Y398819D03*
X255906Y391339D03*
X243307Y375197D03*
X267323Y391339D03*
X253543Y367323D03*
X290551Y365748D03*
X207087Y440157D03*
X222835Y409843D03*
X241732Y431890D03*
X182283Y463386D03*
Y448819D03*
X220079Y457087D03*
X215354Y452362D03*
X207087Y472047D03*
X312205Y461024D03*
X326378Y475984D03*
G74*
X0Y0D02*
M02*
