*
*
G04 PADS 9.5 Build Number: 522968 generated Gerber (RS-274-X) file*
G04 PC Version=2.1*
*
%IN "opqbox2.pcb"*%
*
%MOIN*%
*
%FSLAX35Y35*%
*
*
*
*
G04 PC Standard Apertures*
*
*
G04 Thermal Relief Aperture macro.*
%AMTER*
1,1,$1,0,0*
1,0,$1-$2,0,0*
21,0,$3,$4,0,0,45*
21,0,$3,$4,0,0,135*
%
*
*
G04 Annular Aperture macro.*
%AMANN*
1,1,$1,0,0*
1,0,$2,0,0*
%
*
*
G04 Odd Aperture macro.*
%AMODD*
1,1,$1,0,0*
1,0,$1-0.005,0,0*
%
*
*
G04 PC Custom Aperture Macros*
*
*
*
*
*
*
G04 PC Aperture Table*
*
%ADD010C,0.001*%
%ADD011C,0.00787*%
%ADD013C,0.01*%
*
*
*
*
G04 PC Circuitry*
G04 Layer Name opqbox2.pcb - circuitry*
%LPD*%
*
*
G04 PC Custom Flashes*
G04 Layer Name opqbox2.pcb - flashes*
%LPD*%
*
*
G04 PC Circuitry*
G04 Layer Name opqbox2.pcb - circuitry*
%LPD*%
*
G54D10*
G54D11*
G01X188091Y398917D02*
X214272D01*
Y425098*
X200689*
X200197Y424114*
X199705Y425098*
X188091*
Y398917*
X287598Y267126D02*
X295522D01*
Y265354*
X297785*
Y267126*
X305709*
Y238780*
X287598*
Y267126*
X312894Y306319D02*
X298856D01*
Y307758*
X294845*
Y306319*
X280807*
Y329350*
X312894*
Y306319*
X240846Y312067D02*
X236885D01*
Y312805*
X235753*
Y312067*
X231791*
Y323878*
X240846*
Y312067*
G54D13*
X341357Y310083D02*
X347157D01*
Y317083*
X341357*
X338957Y310083D02*
X333157D01*
Y317083*
X338957*
X150492Y118622D02*
Y128622D01*
X175492*
Y118622*
X150492*
X317957Y249391D02*
Y243591D01*
X324957*
Y249391*
X317957Y251791D02*
Y257591D01*
X324957*
Y251791*
X212973Y376138D02*
X207173D01*
Y369138*
X212973*
X215373Y376138D02*
X221173D01*
Y369138*
X215373*
X184861Y365201D02*
X190661D01*
Y372201*
X184861*
X182461Y365201D02*
X176661D01*
Y372201*
X182461*
X194675Y318417D02*
X186625D01*
Y304417*
X194675*
X202175Y318417D02*
X210225D01*
Y304417*
X202175*
X201425Y293638D02*
X203925D01*
Y298638*
X195425Y293638D02*
X192925D01*
Y298638*
X198925Y302638D02*
X197925D01*
X239745Y286965D02*
X233945D01*
Y279965*
X239745*
X242145Y286965D02*
X247945D01*
Y279965*
X242145*
X236748Y291882D02*
Y289382D01*
X241748*
X236748Y297882D02*
Y300382D01*
X241748*
X245748Y294382D02*
Y295382D01*
X271635Y306256D02*
X265835D01*
Y299256*
X271635*
X274035Y306256D02*
X279835D01*
Y299256*
X274035*
X271672Y247681D02*
X277472D01*
Y254681*
X271672*
X269272Y247681D02*
X263472D01*
Y254681*
X269272*
X271672Y240594D02*
X277472D01*
Y247594*
X271672*
X269272Y240594D02*
X263472D01*
Y247594*
X269272*
X224059Y301162D02*
Y295362D01*
X231059*
Y301162*
X224059Y303562D02*
Y309362D01*
X231059*
Y303562*
X172816Y412555D02*
X167016D01*
Y405555*
X172816*
X175216Y412555D02*
X181016D01*
Y405555*
X175216*
X203937Y379134D02*
X194094D01*
X203937Y387008D02*
X194094D01*
X158500Y461200D02*
Y467000D01*
X151500*
Y461200*
X158500Y458800D02*
Y453000D01*
X151500*
Y458800*
X221500D02*
Y453000D01*
X228500*
Y458800*
X221500Y461200D02*
Y467000D01*
X228500*
Y461200*
X188500D02*
Y467000D01*
X181500*
Y461200*
X188500Y458800D02*
Y453000D01*
X181500*
Y458800*
X231500D02*
Y453000D01*
X238500*
Y458800*
X231500Y461200D02*
Y467000D01*
X238500*
Y461200*
X218500D02*
Y467000D01*
X211500*
Y461200*
X218500Y458800D02*
Y453000D01*
X211500*
Y458800*
X208500Y461200D02*
Y467000D01*
X201500*
Y461200*
X208500Y458800D02*
Y453000D01*
X201500*
Y458800*
X191500D02*
Y453000D01*
X198500*
Y458800*
X191500Y461200D02*
Y467000D01*
X198500*
Y461200*
X178500D02*
Y467000D01*
X171500*
Y461200*
X178500Y458800D02*
Y453000D01*
X171500*
Y458800*
X168500Y461200D02*
Y467000D01*
X161500*
Y461200*
X168500Y458800D02*
Y453000D01*
X161500*
Y458800*
X134233Y278697D02*
X128433D01*
Y271697*
X134233*
X136633Y278697D02*
X142433D01*
Y271697*
X136633*
X142957Y277540D02*
Y271740D01*
X149957*
Y277540*
X142957Y279940D02*
Y285740D01*
X149957*
Y279940*
X145571Y181614D02*
Y191614D01*
X170571*
Y181614*
X145571*
X442520Y431693D02*
X426772D01*
Y388386*
X442520*
Y431693*
X437148Y321741D02*
X440745Y325214D01*
X413584Y288559D02*
X403165Y299350D01*
X431938Y327136*
X442358Y316346*
X413584Y288559*
X408374Y293954D02*
X404778Y290481D01*
X379528Y297047D02*
Y292047D01*
X372028Y337047D02*
X387028D01*
Y297047*
X372028*
Y337047*
X379528D02*
Y342047D01*
X359921Y304154D02*
X349921D01*
Y329154*
X359921*
Y304154*
X341357Y317957D02*
X347157D01*
Y324957*
X341357*
X338957Y317957D02*
X333157D01*
Y324957*
X338957*
X331846Y318720D02*
Y324520D01*
X324846*
Y318720*
X331846Y316320D02*
Y310520D01*
X324846*
Y316320*
X260673Y475572D02*
Y469772D01*
X267673*
Y475572*
X260673Y477972D02*
Y483772D01*
X267673*
Y477972*
Y463995D02*
Y469795D01*
X260673*
Y463995*
X267673Y461595D02*
Y455795D01*
X260673*
Y461595*
X265767Y317681D02*
X271567D01*
Y324681*
X265767*
X263367Y317681D02*
X257567D01*
Y324681*
X263367*
X265767Y310791D02*
X271567D01*
Y317791*
X265767*
X263367Y310791D02*
X257567D01*
Y317791*
X263367*
X257043Y319035D02*
Y324835D01*
X250043*
Y319035*
X257043Y316635D02*
Y310835D01*
X250043*
Y316635*
X249256Y475572D02*
Y469772D01*
X256256*
Y475572*
X249256Y477972D02*
Y483772D01*
X256256*
Y477972*
Y463995D02*
Y469795D01*
X249256*
Y463995*
X256256Y461595D02*
Y455795D01*
X249256*
Y461595*
X240532Y309209D02*
X234732D01*
Y302209*
X240532*
X242932Y309209D02*
X248732D01*
Y302209*
X242932*
X405512Y99213D02*
X225591D01*
Y199213*
X405512*
Y99213*
X200581Y287315D02*
X192531D01*
Y273315*
X200581*
X208081Y287315D02*
X216131D01*
Y273315*
X208081*
X189567Y174803D02*
X173819D01*
Y194488*
X189567*
X205315Y174803D02*
X221063D01*
Y194488*
X205315*
X166742Y136307D02*
X174792D01*
Y150307*
X166742*
X159242Y136307D02*
X151192D01*
Y150307*
X159242*
X154321Y181803D02*
X146271D01*
Y167803*
X154321*
X161821Y181803D02*
X169871D01*
Y167803*
X161821*
X252291Y435753D02*
X251396Y435138D01*
X250501Y433907*
X250054Y432677*
X249606Y430832*
Y427756*
X250054Y425910*
X250501Y424680*
X251396Y423450*
X252291Y422835*
X254080*
X254975Y423450*
X255870Y424680*
X256317Y425910*
X256764Y427756*
Y430832*
X256317Y432677*
X255870Y433907*
X254975Y435138*
X254080Y435753*
X252291*
X260791D02*
Y422835D01*
Y435753D02*
X264817D01*
X266160Y435138*
X266607Y434523*
X267054Y433292*
Y431447*
X266607Y430217*
X266160Y429601*
X264817Y428986*
X260791*
X273765Y435753D02*
X272870Y435138D01*
X271976Y433907*
X271528Y432677*
X271081Y430832*
Y427756*
X271528Y425910*
X271976Y424680*
X272870Y423450*
X273765Y422835*
X275555*
X276450Y423450*
X277344Y424680*
X277792Y425910*
X278239Y427756*
Y430832*
X277792Y432677*
X277344Y433907*
X276450Y435138*
X275555Y435753*
X273765*
X275107Y425295D02*
X277792Y421604D01*
X282266Y435753D02*
Y422835D01*
Y435753D02*
X286292D01*
X287634Y435138*
X288082Y434523*
X288529Y433292*
Y432062*
X288082Y430832*
X287634Y430217*
X286292Y429601*
X282266D02*
X286292D01*
X287634Y428986*
X288082Y428371*
X288529Y427141*
Y425295*
X288082Y424065*
X287634Y423450*
X286292Y422835*
X282266*
X294792Y431447D02*
X293898Y430832D01*
X293003Y429601*
X292555Y427756*
Y426526*
X293003Y424680*
X293898Y423450*
X294792Y422835*
X296135*
X297029Y423450*
X297924Y424680*
X298372Y426526*
Y427756*
X297924Y429601*
X297029Y430832*
X296135Y431447*
X294792*
X302398D02*
X307319Y422835D01*
Y431447D02*
X302398Y422835D01*
X322083Y432677D02*
Y433292D01*
X322530Y434523*
X322978Y435138*
X323873Y435753*
X325662*
X326557Y435138*
X327004Y434523*
X327452Y433292*
Y432062*
X327004Y430832*
X326110Y428986*
X321636Y422835*
X327899*
X332373Y424065D02*
X331926Y423450D01*
X332373Y422835*
X332820Y423450*
X332373Y424065*
X342663Y435753D02*
X338189D01*
X337742Y430217*
X338189Y430832*
X339531Y431447*
X340873*
X342215Y430832*
X343110Y429601*
X343558Y427756*
X343110Y426526*
X342663Y424680*
X341768Y423450*
X340426Y422835*
X339084*
X337742Y423450*
X337294Y424065*
X336847Y425295*
X255870Y414222D02*
X254975Y415453D01*
X253633Y416068*
X251843*
X250501Y415453*
X249606Y414222*
Y412992*
X250054Y411762*
X250501Y411147*
X251396Y410531*
X254080Y409301*
X254975Y408686*
X255422Y408071*
X255870Y406841*
Y404995*
X254975Y403765*
X253633Y403150*
X251843*
X250501Y403765*
X249606Y404995*
X259896Y416068D02*
Y403150D01*
X263923Y416068D02*
Y403150D01*
Y416068D02*
X270186Y403150D01*
Y416068D02*
Y403150D01*
X284950Y412992D02*
Y413607D01*
X285397Y414838*
X285845Y415453*
X286739Y416068*
X288529*
X289424Y415453*
X289871Y414838*
X290319Y413607*
Y412377*
X289871Y411147*
X288976Y409301*
X284503Y403150*
X290766*
X297477Y416068D02*
X296135Y415453D01*
X295240Y413607*
X294792Y410531*
Y408686*
X295240Y405610*
X296135Y403765*
X297477Y403150*
X298372*
X299714Y403765*
X300608Y405610*
X301056Y408686*
Y410531*
X300608Y413607*
X299714Y415453*
X298372Y416068*
X297477*
X305082Y413607D02*
X305977Y414222D01*
X307319Y416068*
Y403150*
X317162Y416068D02*
X312688D01*
X312241Y410531*
X312688Y411147*
X314030Y411762*
X315372*
X316714Y411147*
X317609Y409916*
X318057Y408071*
X317609Y406841*
X317162Y404995*
X316267Y403765*
X314925Y403150*
X313583*
X312241Y403765*
X311793Y404380*
X311346Y405610*
X138140Y454331D02*
X143061Y461489D01*
X148597Y454331*
X196887Y206881D02*
X203346D01*
X196887Y205315D02*
Y208447D01*
Y210460D02*
X203346Y213592D01*
X196887D02*
X203346Y210460D01*
X187045Y205315D02*
X193504D01*
X187045D02*
Y207328D01*
X187352Y207999*
X187660Y208223*
X188275Y208447*
X188890*
X189505Y208223*
X189813Y207999*
X190121Y207328*
Y205315*
Y206881D02*
X193504Y208447D01*
X187045Y210460D02*
X193504Y213592D01*
X187045D02*
X193504Y210460D01*
X177202Y195472D02*
X183661D01*
X177202D02*
Y198380D01*
X180278Y195472D02*
Y197262D01*
X177202Y200394D02*
X183661D01*
Y203078*
X177202Y206881D02*
X183661Y205091D01*
X177202Y206881D02*
X183661Y208670D01*
X181508Y205762D02*
Y207999D01*
X178740Y214039D02*
X178125Y213815D01*
X177510Y213368*
X177202Y212921*
Y212026*
X177510Y211578*
X178125Y211131*
X178740Y210907*
X179663Y210684*
X181201*
X182124Y210907*
X182739Y211131*
X183354Y211578*
X183661Y212026*
Y212921*
X183354Y213368*
X182739Y213815*
X182124Y214039*
X181201*
Y212921D02*
Y214039D01*
X100000Y100000D02*
Y493701D01*
X493701*
Y100000*
X100000*
X0Y0D02*
M02*
