*
*
G04 PADS 9.5 Build Number: 522968 generated Gerber (RS-274-X) file*
G04 PC Version=2.1*
*
%IN "opqbox2.pcb"*%
*
%MOIN*%
*
%FSLAX35Y35*%
*
*
*
*
G04 PC Standard Apertures*
*
*
G04 Thermal Relief Aperture macro.*
%AMTER*
1,1,$1,0,0*
1,0,$1-$2,0,0*
21,0,$3,$4,0,0,45*
21,0,$3,$4,0,0,135*
%
*
*
G04 Annular Aperture macro.*
%AMANN*
1,1,$1,0,0*
1,0,$2,0,0*
%
*
*
G04 Odd Aperture macro.*
%AMODD*
1,1,$1,0,0*
1,0,$1-0.005,0,0*
%
*
*
G04 PC Custom Aperture Macros*
*
*
*
*
*
*
G04 PC Aperture Table*
*
%ADD010C,0.001*%
%ADD011C,0.00787*%
%ADD012C,0.005*%
%ADD013C,0.01*%
*
*
*
*
G04 PC Circuitry*
G04 Layer Name opqbox2.pcb - circuitry*
%LPD*%
*
G54D10*
G01X383977Y175374D02*
X380237D01*
Y174914*
X383977*
Y175374*
X383583Y186004D02*
X379843D01*
Y185544*
X383583*
Y186004*
X383977Y197421D02*
X380237D01*
Y196961*
X383977*
Y197421*
X379177Y175374D02*
X375437D01*
Y174914*
X379177*
Y175374*
X378783Y186004D02*
X375043D01*
Y185544*
X378783*
Y186004*
X379177Y197421D02*
X375437D01*
Y196961*
X379177*
Y197421*
X374377Y175374D02*
X370637D01*
Y174914*
X374377*
Y175374*
X373983Y186004D02*
X370243D01*
Y185544*
X373983*
Y186004*
X374377Y197421D02*
X370637D01*
Y196961*
X374377*
Y197421*
X369577Y175374D02*
X365837D01*
Y174914*
X369577*
Y175374*
X369183Y186004D02*
X365443D01*
Y185544*
X369183*
Y186004*
X369577Y197421D02*
X365837D01*
Y196961*
X369577*
Y197421*
X364777Y175374D02*
X361037D01*
Y174914*
X364777*
Y175374*
X364383Y186004D02*
X360643D01*
Y185544*
X364383*
Y186004*
X364777Y197421D02*
X361037D01*
Y196961*
X364777*
Y197421*
X359977Y175374D02*
X356237D01*
Y174914*
X359977*
Y175374*
X359583Y186004D02*
X355843D01*
Y185544*
X359583*
Y186004*
X359977Y197421D02*
X356237D01*
Y196961*
X359977*
Y197421*
X355177Y175374D02*
X351437D01*
Y174914*
X355177*
Y175374*
X354783Y186004D02*
X351043D01*
Y185544*
X354783*
Y186004*
X355177Y197421D02*
X351437D01*
Y196961*
X355177*
Y197421*
X350377Y175374D02*
X346637D01*
Y174914*
X350377*
Y175374*
X349983Y186004D02*
X346243D01*
Y185544*
X349983*
Y186004*
X350377Y197421D02*
X346637D01*
Y196961*
X350377*
Y197421*
X339497Y198891D02*
X339355Y199033D01*
X339125Y199186*
X338907Y199259*
X338689Y199186*
X338466Y199037*
X338394Y198894*
X338319Y198593*
X338469Y198144*
X338682Y198001*
X339132*
X339351Y198148*
X339497Y198367*
Y198891*
Y201771D02*
X339355Y201913D01*
X339125Y202066*
X338907Y202139*
X338689Y202066*
X338466Y201917*
X338394Y201774*
X338319Y201473*
X338469Y201024*
X338682Y200881*
X339132*
X339351Y201028*
X339497Y201247*
Y201771*
X334697Y176844D02*
X334555Y176985D01*
X334325Y177139*
X334107Y177212*
X333889Y177139*
X333666Y176990*
X333594Y176847*
X333519Y176546*
X333669Y176096*
X333882Y175954*
X334332*
X334551Y176100*
X334697Y176319*
Y176844*
Y179724D02*
X334555Y179865D01*
X334325Y180019*
X334107Y180092*
X333889Y180019*
X333666Y179870*
X333594Y179727*
X333519Y179426*
X333669Y178976*
X333882Y178834*
X334332*
X334551Y178980*
X334697Y179199*
Y179724*
X335737Y203661D02*
X335197D01*
Y201471*
X335118Y201431*
X334566Y201825*
X333947Y201980*
X333328Y201825*
X332784Y201437*
X332395Y200813*
X332238Y199951*
X332395Y199087*
X332707Y198463*
X333168Y198080*
X333870Y198001*
X334255*
X334561Y198154*
X335118Y198552*
X335196Y198520*
X335269Y198081*
X335737*
Y203661*
X335197Y200991D02*
Y199071D01*
X335180Y199034*
X334620Y198554*
X334594Y198542*
X334034Y198462*
X334019*
X333539Y198542*
X333516Y198552*
X333116Y198872*
X333104Y198886*
X332864Y199286*
X332857Y199311*
Y199951*
Y199958*
X332937Y200598*
X332942Y200614*
X333182Y201094*
X333201Y201114*
X333601Y201354*
X333611Y201359*
X334091Y201519*
X334123*
X334603Y201359*
X334612Y201355*
X335172Y201035*
X335197Y200991*
X330937Y181614D02*
X330397D01*
Y179424*
X330318Y179384*
X329766Y179778*
X329147Y179933*
X328528Y179778*
X327984Y179389*
X327595Y178766*
X327438Y177904*
X327595Y177040*
X327907Y176416*
X328368Y176032*
X329070Y175954*
X329455*
X329761Y176107*
X330318Y176505*
X330396Y176472*
X330469Y176034*
X330937*
Y181614*
X330397Y178944D02*
Y177024D01*
X330380Y176986*
X329820Y176506*
X329794Y176495*
X329234Y176415*
X329219*
X328739Y176495*
X328716Y176505*
X328316Y176825*
X328304Y176839*
X328064Y177239*
X328057Y177264*
Y177904*
Y177910*
X328137Y178550*
X328142Y178567*
X328382Y179047*
X328401Y179067*
X328801Y179307*
X328811Y179312*
X329291Y179472*
X329323*
X329803Y179312*
X329812Y179308*
X330372Y178988*
X330397Y178944*
X329503Y187473D02*
X329362Y187615D01*
X329131Y187769*
X328913Y187841*
X328696Y187769*
X328472Y187620*
X328401Y187477*
X328325Y187176*
X328475Y186726*
X328689Y186584*
X329138*
X329357Y186730*
X329503Y186949*
Y187473*
Y190353D02*
X329362Y190495D01*
X329131Y190649*
X328913Y190721*
X328696Y190649*
X328472Y190500*
X328401Y190357*
X328325Y190056*
X328475Y189606*
X328689Y189464*
X329138*
X329357Y189610*
X329503Y189829*
Y190353*
X331176Y200191D02*
X331020Y200893D01*
X330709Y201437*
X330166Y201825*
X329467Y201980*
X328687Y201825*
X328142Y201435*
X327671Y200807*
X327517Y200422*
Y199481*
X327671Y199096*
X328141Y198469*
X328764Y198080*
X329547Y198002*
X330413Y198080*
X331000Y198374*
X330806Y198762*
X330292Y198468*
X330273Y198462*
X329633Y198382*
X329620*
X329060Y198462*
X329039Y198470*
X328559Y198790*
X328548Y198800*
X328228Y199200*
X328219Y199218*
X328059Y199778*
X328107Y199841*
X331106*
X331176Y200191*
X330637Y200271D02*
X330587Y200221D01*
X328107*
X328060Y200287*
X328220Y200767*
X328228Y200783*
X328548Y201183*
X328561Y201194*
X328961Y201434*
X328979Y201441*
X329459Y201521*
X329475*
X329955Y201441*
X329977Y201431*
X330297Y201191*
X330310Y201177*
X330550Y200777*
X330556Y200760*
X330636Y200280*
X330637Y200271*
X326376Y178144D02*
X326220Y178846D01*
X325909Y179390*
X325366Y179778*
X324667Y179933*
X323887Y179777*
X323342Y179388*
X322871Y178760*
X322717Y178375*
Y177434*
X322871Y177049*
X323341Y176422*
X323964Y176033*
X324747Y175954*
X325613Y176033*
X326200Y176327*
X326006Y176715*
X325492Y176421*
X325473Y176415*
X324833Y176335*
X324820*
X324260Y176415*
X324239Y176423*
X323759Y176743*
X323748Y176753*
X323428Y177153*
X323419Y177171*
X323259Y177731*
X323307Y177794*
X326306*
X326376Y178144*
X325837Y178224D02*
X325787Y178174D01*
X323307*
X323260Y178240*
X323420Y178720*
X323428Y178735*
X323748Y179135*
X323761Y179147*
X324161Y179387*
X324179Y179394*
X324659Y179474*
X324675*
X325155Y179394*
X325177Y179384*
X325497Y179144*
X325510Y179130*
X325750Y178730*
X325756Y178712*
X325836Y178232*
X325837Y178224*
X325743Y192244D02*
X325203D01*
Y190054*
X325124Y190013*
X324572Y190408*
X323953Y190563*
X323335Y190408*
X322791Y190019*
X322401Y189396*
X322244Y188534*
X322401Y187670*
X322713Y187046*
X323174Y186662*
X323876Y186584*
X324262*
X324568Y186737*
X325124Y187135*
X325203Y187102*
X325276Y186664*
X325743*
Y192244*
X325203Y189574D02*
Y187654D01*
X325186Y187616*
X324626Y187136*
X324600Y187125*
X324040Y187045*
X324025*
X323545Y187125*
X323522Y187135*
X323122Y187455*
X323111Y187468*
X322871Y187868*
X322863Y187894*
Y188534*
X322864Y188540*
X322944Y189180*
X322949Y189197*
X323189Y189677*
X323208Y189697*
X323608Y189937*
X323618Y189942*
X324098Y190102*
X324129*
X324609Y189942*
X324618Y189938*
X325178Y189618*
X325203Y189574*
X326364Y198223D02*
X326236Y198605D01*
X325886Y198465*
X325867Y198461*
X325227*
X325205Y198467*
X324885Y198627*
X324860Y198656*
X324780Y198896*
X324778Y198902*
X324698Y199302*
X324697Y199311*
Y203661*
X322797*
Y203201*
X324107*
X324157Y203151*
Y199315*
X324235Y198767*
X324465Y198307*
X324844Y198080*
X325387Y198002*
X325936Y198080*
X326364Y198223*
X321633Y179854D02*
X321102D01*
X320314Y177727*
X320313Y177725*
X320074Y177167*
X319915Y176611*
X319867Y176574*
X319787*
X319741Y176605*
X319261Y177725*
X318315Y179854*
X317786*
X319592Y176005*
Y175962*
X319432Y175642*
X319428Y175635*
X319028Y175075*
X319009Y175060*
X318689Y174900*
X318679Y174896*
X318359Y174816*
X318347Y174814*
X318187*
X318171Y174817*
X317988Y174878*
X317923Y174426*
X318348Y174355*
X318889Y174432*
X319355Y174743*
X319745Y175133*
X319981Y175683*
X321633Y179854*
X321182Y188774D02*
X321026Y189476D01*
X320715Y190020*
X320173Y190408*
X319473Y190563*
X318694Y190407*
X318149Y190018*
X317677Y189389*
X317523Y189005*
Y188064*
X317677Y187679*
X318148Y187052*
X318770Y186663*
X319554Y186584*
X320419Y186663*
X321006Y186957*
X320812Y187345*
X320298Y187051*
X320280Y187045*
X319640Y186965*
X319626*
X319066Y187045*
X319046Y187053*
X318566Y187373*
X318554Y187383*
X318234Y187783*
X318225Y187800*
X318065Y188360*
X318113Y188424*
X321112*
X321182Y188774*
X320643Y188854D02*
X320593Y188804D01*
X318113*
X318066Y188870*
X318226Y189350*
X318234Y189365*
X318554Y189765*
X318568Y189777*
X318968Y190017*
X318985Y190023*
X319465Y190103*
X319482*
X319962Y190023*
X319983Y190014*
X320303Y189774*
X320316Y189760*
X320556Y189360*
X320563Y189342*
X320643Y188862*
Y188854*
X321577Y200029D02*
X321498Y200817D01*
X321187Y201440*
X320724Y201825*
X320027Y201980*
X319328Y201825*
X318697Y201351*
X318617Y201391*
Y201396*
X318697Y202194*
Y203661*
X318077*
Y198081*
X318546*
X318618Y198441*
X318696Y198472*
X319246Y198080*
X319867Y198002*
X320486Y198079*
X321029Y198544*
X321422Y199174*
X321577Y199561*
Y200029*
X321037Y200031D02*
X321036Y200019D01*
X320876Y199379*
X320872Y199369*
X320632Y198889*
X320622Y198876*
X320302Y198556*
X320275Y198542*
X319795Y198462*
X319779*
X319299Y198542*
X319285Y198547*
X318965Y198707*
X318959Y198710*
X318719Y198870*
X318697Y198911*
Y200911*
X318712Y200947*
X318952Y201187*
X318965Y201196*
X319285Y201356*
X319293Y201360*
X319853Y201520*
X319883Y201519*
X320363Y201359*
X320377Y201351*
X320697Y201111*
X320712Y201094*
X320952Y200614*
X320957Y200599*
X321037Y200039*
Y200031*
X316777Y178375D02*
X316622Y178762D01*
X316231Y179388*
X315608Y179777*
X314907Y179933*
X314206Y179777*
X313583Y179388*
X313194Y178765*
X313194D02*
X313116Y178375D01*
X313038Y177904*
X313116Y177433*
X313194Y177043*
X313583Y176421*
X314204Y176033*
X314907Y175955*
X315610Y176033*
X316231Y176421*
X316622Y177047*
X316777Y177434*
Y178375*
X316235Y177891D02*
X316075Y177331D01*
X316072Y177322*
X315832Y176842*
X315818Y176825*
X315418Y176505*
X315395Y176495*
X314915Y176415*
X314899*
X314419Y176495*
X314396Y176505*
X313996Y176825*
X313982Y176842*
X313742Y177322*
X313738Y177337*
X313658Y177897*
X313657Y177904*
Y177910*
X313737Y178550*
X313742Y178567*
X313982Y179047*
X313996Y179063*
X314396Y179383*
X314419Y179394*
X314899Y179474*
X314915*
X315395Y179394*
X315418Y179383*
X315818Y179063*
X315832Y179047*
X316072Y178567*
X316076Y178556*
X316236Y177916*
X316235Y177891*
X316573Y186664D02*
X314874Y188904D01*
X314878Y188970*
X316393Y190484*
X315734*
X313669Y188419*
X313583Y188454*
Y192244*
X313043*
Y186664*
X313583*
Y187654*
X313598Y187690*
X314478Y188570*
X314553Y188564*
X315978Y186664*
X316573*
X316937Y200827D02*
X316859Y201298D01*
X316704Y201683*
X316482Y201905*
X316108Y201980*
X315808Y201905*
X315583Y201755*
X315269Y201284*
X315182Y201289*
X315024Y201606*
X314873Y201833*
X314730Y201904*
X314429Y201979*
X313976Y201829*
X313585Y201359*
X313585D02*
X313498Y201384D01*
X313424Y201901*
X313037*
Y198081*
X313577*
Y200831*
X313585Y200859*
X313905Y201339*
X313925Y201356*
X314245Y201516*
X314289*
X314449Y201436*
X314462Y201427*
X314622Y201267*
X314632Y201254*
X314712Y201094*
X314716Y201084*
X314796Y200764*
X314797Y200751*
Y198081*
X315177*
Y200831*
X315185Y200859*
X315505Y201339*
X315525Y201356*
X315845Y201516*
X315883Y201519*
X316123Y201439*
X316152Y201414*
X316312Y201094*
X316316Y201084*
X316396Y200764*
X316397Y200751*
Y198081*
X316937*
Y200827*
X311964Y176176D02*
X311836Y176558D01*
X311486Y176418*
X311467Y176414*
X310827*
X310805Y176420*
X310485Y176580*
X310460Y176608*
X310380Y176848*
X310378Y176854*
X310298Y177254*
X310297Y177264*
Y181614*
X308397*
Y181154*
X309707*
X309757Y181104*
Y177268*
X309835Y176719*
X310065Y176260*
X310444Y176032*
X310987Y175955*
X311536Y176033*
X311964Y176176*
X311562Y187112D02*
X311300Y187503D01*
X310782Y187133*
X310760Y187125*
X310120Y187045*
X310106*
X309546Y187125*
X309526Y187133*
X309046Y187453*
X309032Y187466*
X308712Y187946*
X308704Y187967*
X308624Y188527*
X308623Y188534*
X308624Y188540*
X308704Y189180*
X308712Y189202*
X309032Y189682*
X309046Y189696*
X309526Y190016*
X309546Y190024*
X310106Y190104*
X310127Y190102*
X310687Y189942*
X310698Y189938*
X311218Y189641*
X311483Y190039*
X310894Y190408*
X310583Y190485*
X310114Y190563*
X309331Y190407*
X308627Y190016*
X308160Y189393*
X308083Y189005*
X308004Y188534*
X308083Y188063*
X308160Y187675*
X308628Y187052*
X309250Y186663*
X310116Y186584*
X310504*
X310892Y186739*
X311562Y187112*
X311976Y200191D02*
X311820Y200893D01*
X311509Y201437*
X310966Y201825*
X310267Y201980*
X309487Y201825*
X308942Y201435*
X308471Y200807*
X308317Y200422*
Y199481*
X308471Y199096*
X308941Y198469*
X309564Y198080*
X310347Y198002*
X311213Y198080*
X311800Y198374*
X311606Y198762*
X311092Y198468*
X311073Y198462*
X310433Y198382*
X310420*
X309860Y198462*
X309839Y198470*
X309359Y198790*
X309348Y198800*
X309028Y199200*
X309019Y199218*
X308859Y199778*
X308907Y199841*
X311906*
X311976Y200191*
X311437Y200271D02*
X311387Y200221D01*
X308907*
X308860Y200287*
X309020Y200767*
X309028Y200783*
X309348Y201183*
X309361Y201194*
X309761Y201434*
X309779Y201441*
X310259Y201521*
X310275*
X310755Y201441*
X310777Y201431*
X311097Y201191*
X311110Y201177*
X311350Y200777*
X311356Y200760*
X311436Y200280*
X311437Y200271*
X307177Y177982D02*
X307098Y178770D01*
X306787Y179393*
X306324Y179778*
X305627Y179933*
X305238Y179855*
X304929Y179778*
X304297Y179304*
X304218Y179337*
X304144Y179854*
X303677*
Y174354*
X304297*
Y175661*
X304217Y176379*
Y176384*
X304294Y176427*
X304925Y176032*
X305468Y175955*
X306086Y176032*
X306629Y176497*
X307022Y177127*
X307177Y177514*
Y177982*
X306637Y177984D02*
X306636Y177972D01*
X306476Y177332*
X306472Y177322*
X306232Y176842*
X306222Y176829*
X305902Y176509*
X305875Y176495*
X305395Y176415*
X305379*
X304899Y176495*
X304885Y176500*
X304565Y176660*
X304559Y176663*
X304319Y176823*
X304297Y176864*
Y178864*
X304312Y178900*
X304552Y179140*
X304565Y179149*
X304885Y179309*
X304893Y179312*
X305453Y179472*
X305483*
X305963Y179312*
X305977Y179304*
X306297Y179064*
X306312Y179047*
X306552Y178567*
X306557Y178551*
X306637Y177991*
Y177984*
X306782Y188774D02*
X306626Y189476D01*
X306315Y190020*
X305773Y190408*
X305073Y190563*
X304294Y190407*
X303749Y190018*
X303277Y189389*
X303123Y189005*
Y188064*
X303277Y187679*
X303748Y187052*
X304370Y186663*
X305154Y186584*
X306019Y186663*
X306606Y186957*
X306412Y187345*
X305898Y187051*
X305880Y187045*
X305240Y186965*
X305226*
X304666Y187045*
X304646Y187053*
X304166Y187373*
X304154Y187383*
X303834Y187783*
X303825Y187800*
X303665Y188360*
X303713Y188424*
X306712*
X306782Y188774*
X306243Y188854D02*
X306193Y188804D01*
X303713*
X303666Y188870*
X303826Y189350*
X303834Y189365*
X304154Y189765*
X304168Y189777*
X304568Y190017*
X304585Y190023*
X305065Y190103*
X305082*
X305562Y190023*
X305583Y190014*
X305903Y189774*
X305916Y189760*
X306156Y189360*
X306163Y189342*
X306243Y188862*
Y188854*
X307093Y199071D02*
X306943Y199447D01*
X306714Y199752*
X306248Y199985*
X305535Y200223*
X305059Y200302*
X305045Y200307*
X304725Y200467*
X304717Y200471*
X304397Y200711*
X304382Y200729*
X304302Y200889*
X304300Y200927*
X304380Y201167*
X304392Y201187*
X304552Y201347*
X304565Y201356*
X304885Y201516*
X304907Y201521*
X305307*
X305313*
X306033Y201441*
X306052Y201435*
X306571Y201138*
X306833Y201530*
X306172Y201823*
X305306Y201981*
X304680Y201903*
X304138Y201670*
X303834Y201290*
X303759Y200916*
X303910Y200540*
X304218Y200231*
X304606Y199998*
X305239Y199840*
X305241*
X305801Y199680*
X305806Y199678*
X306206Y199518*
X306229Y199499*
X306389Y199259*
X306392Y199254*
X306472Y199094*
X306475Y199056*
X306395Y198816*
X306389Y198804*
X306229Y198564*
X306199Y198543*
X305879Y198463*
X305875Y198462*
X305395Y198382*
X305379*
X304899Y198462*
X304897*
X304497Y198542*
X304483Y198548*
X303803Y198925*
X303541Y198533*
X304365Y198158*
X304835Y198001*
X305384*
X306094Y198080*
X306636Y198313*
X306943Y198697*
X307093Y199071*
X302376Y178144D02*
X302220Y178846D01*
X301909Y179390*
X301366Y179778*
X300667Y179933*
X299887Y179777*
X299342Y179388*
X298871Y178760*
X298717Y178375*
Y177434*
X298871Y177049*
X299341Y176422*
X299964Y176033*
X300747Y175954*
X301613Y176033*
X302200Y176327*
X302006Y176715*
X301492Y176421*
X301473Y176415*
X300833Y176335*
X300820*
X300260Y176415*
X300239Y176423*
X299759Y176743*
X299748Y176753*
X299428Y177153*
X299419Y177171*
X299259Y177731*
X299307Y177794*
X302306*
X302376Y178144*
X301837Y178224D02*
X301787Y178174D01*
X299307*
X299260Y178240*
X299420Y178720*
X299428Y178735*
X299748Y179135*
X299761Y179147*
X300161Y179387*
X300179Y179394*
X300659Y179474*
X300675*
X301155Y179394*
X301177Y179384*
X301497Y179144*
X301510Y179130*
X301750Y178730*
X301756Y178712*
X301836Y178232*
X301837Y178224*
X301823Y189011D02*
X301745Y189720D01*
X301515Y190179*
X301133Y190408*
X300590Y190563*
X300127Y190486*
X299740Y190331*
X299106Y189777*
X299024Y189818*
X299103Y190776*
Y192244*
X298483*
Y186664*
X299103*
Y189334*
X299118Y189370*
X299438Y189690*
X299446Y189696*
X299686Y189856*
X299691Y189859*
X300011Y190019*
X300021Y190023*
X300341Y190103*
X300363*
X300763Y190023*
X300783Y190014*
X301103Y189774*
X301122Y189746*
X301202Y189426*
X301203Y189422*
X301283Y188942*
Y188934*
Y186664*
X301823*
Y189011*
X302293Y199071D02*
X302143Y199447D01*
X301914Y199752*
X301448Y199985*
X300735Y200223*
X300259Y200302*
X300245Y200307*
X299925Y200467*
X299917Y200471*
X299597Y200711*
X299582Y200729*
X299502Y200889*
X299500Y200927*
X299580Y201167*
X299592Y201187*
X299752Y201347*
X299765Y201356*
X300085Y201516*
X300107Y201521*
X300507*
X300513*
X301233Y201441*
X301252Y201435*
X301771Y201138*
X302033Y201530*
X301372Y201823*
X300506Y201981*
X299880Y201903*
X299338Y201670*
X299034Y201290*
X298959Y200916*
X299110Y200540*
X299418Y200231*
X299806Y199998*
X300439Y199840*
X300441*
X301001Y199680*
X301006Y199678*
X301406Y199518*
X301429Y199499*
X301589Y199259*
X301592Y199254*
X301672Y199094*
X301675Y199056*
X301595Y198816*
X301589Y198804*
X301429Y198564*
X301399Y198543*
X301079Y198463*
X301075Y198462*
X300595Y198382*
X300579*
X300099Y198462*
X300097*
X299697Y198542*
X299683Y198548*
X299003Y198925*
X298741Y198533*
X299565Y198158*
X300035Y198001*
X300584*
X301294Y198080*
X301836Y198313*
X302143Y198697*
X302293Y199071*
X297657Y178624D02*
X297499Y179727D01*
X297027Y180513*
X296719Y180822*
X296330Y180977*
X295856Y181135*
X295304Y181214*
X294077*
Y176034*
X295859*
X296326Y176190*
X296716Y176424*
X297343Y177051*
X297498Y177516*
X297657Y178624*
X297037Y178620D02*
X296957Y177740D01*
X296952Y177722*
X296632Y177082*
X296620Y177066*
X296060Y176586*
X296032Y176575*
X296032D02*
X295232Y176495D01*
X295232D02*
X295227Y176494D01*
X294667*
X294617Y176544*
Y180704*
X294667Y180754*
X295227*
X295237Y180753*
X296037Y180593*
X296056Y180585*
X296616Y180185*
X296632Y180167*
X296952Y179527*
X296957Y179509*
X297037Y178629*
Y178620*
X297246Y187258D02*
X296984Y187586D01*
X296462Y187213*
X296456Y187209*
X296136Y187049*
X296113Y187044*
X295393*
X295371Y187049*
X295051Y187209*
X295041Y187216*
X294561Y187616*
X294548Y187634*
X294228Y188354*
X294224Y188365*
X294064Y189245*
Y189263*
X294224Y190143*
X294229Y190157*
X294549Y190797*
X294558Y190810*
X295038Y191290*
X295068Y191304*
X295788Y191384*
X295800*
X296360Y191304*
X296385Y191293*
X296827Y190925*
X297158Y191322*
X296569Y191691*
X296258Y191846*
X295793Y191923*
X295325Y191845*
X294856Y191689*
X294151Y191219*
X293680Y190355*
X293523Y189807*
Y188621*
X293681Y188069*
X293837Y187601*
X294464Y186974*
X294856Y186739*
X295243Y186584*
X296185*
X296650Y186739*
X296961Y186972*
X297246Y187258*
X297798Y198081D02*
X296071Y203261D01*
X295343*
X293616Y198081*
X294230*
X294699Y199646*
X294747Y199681*
X296667*
X296715Y199646*
X297184Y198081*
X297798*
X296557Y200191D02*
X296507Y200141D01*
X294907*
X294857Y200191*
X294859Y200206*
X295099Y201006*
X295100Y201009*
X295419Y201887*
X295659Y202765*
X295755*
X295995Y201887*
X296314Y201009*
X296315Y201006*
X296555Y200206*
X296557Y200191*
X267306Y175374D02*
X263566D01*
Y174914*
X267306*
Y175374*
Y187185D02*
X263566D01*
Y186725*
X267306*
Y187185*
X262506Y175374D02*
X258766D01*
Y174914*
X262506*
Y175374*
Y187185D02*
X258766D01*
Y186725*
X262506*
Y187185*
X262426Y198541D02*
X261116D01*
X261066Y198591*
Y203101*
X260646*
X260096Y202866*
X260087Y202863*
X259406Y202711*
Y202401*
X260476*
X260526Y202351*
Y198591*
X260476Y198541*
X259086*
Y198081*
X262426*
Y198541*
X257706Y175374D02*
X253966D01*
Y174914*
X257706*
Y175374*
Y187185D02*
X253966D01*
Y186725*
X257706*
Y187185*
X252906Y175374D02*
X249166D01*
Y174914*
X252906*
Y175374*
Y187185D02*
X249166D01*
Y186725*
X252906*
Y187185*
X248106Y175374D02*
X244366D01*
Y174914*
X248106*
Y175374*
Y187185D02*
X244366D01*
Y186725*
X248106*
Y187185*
X243306Y175374D02*
X239566D01*
Y174914*
X243306*
Y175374*
Y187185D02*
X239566D01*
Y186725*
X243306*
Y187185*
X238506Y175374D02*
X234766D01*
Y174914*
X238506*
Y175374*
Y187185D02*
X234766D01*
Y186725*
X238506*
Y187185*
X237226Y198891D02*
X237084Y199033D01*
X236854Y199186*
X236636Y199259*
X236418Y199186*
X236195Y199037*
X236123Y198894*
X236048Y198593*
X236198Y198144*
X236411Y198001*
X236861*
X237080Y198148*
X237226Y198367*
Y198891*
Y201771D02*
X237084Y201913D01*
X236854Y202066*
X236636Y202139*
X236418Y202066*
X236195Y201917*
X236123Y201774*
X236048Y201473*
X236198Y201024*
X236411Y200881*
X236861*
X237080Y201028*
X237226Y201247*
Y201771*
X233706Y175374D02*
X229966D01*
Y174914*
X233706*
Y175374*
Y187185D02*
X229966D01*
Y186725*
X233706*
Y187185*
X233546Y200429D02*
X233468Y201137D01*
X233238Y201596*
X232856Y201825*
X232313Y201980*
X231850Y201903*
X231463Y201748*
X230829Y201194*
X230746Y201236*
X230826Y202194*
Y203661*
X230206*
Y198081*
X230826*
Y200751*
X230841Y200787*
X231161Y201107*
X231168Y201113*
X231408Y201273*
X231414Y201276*
X231734Y201436*
X231744Y201440*
X232064Y201520*
X232086Y201521*
X232486Y201441*
X232506Y201431*
X232826Y201191*
X232845Y201164*
X232925Y200844*
X232926Y200840*
X233006Y200360*
Y200351*
Y198081*
X233546*
Y200429*
X228885Y198529D02*
X228623Y198921D01*
X228105Y198551*
X228082Y198542*
X227442Y198462*
X227429*
X226869Y198542*
X226848Y198550*
X226368Y198870*
X226355Y198884*
X226035Y199364*
X226027Y199384*
X225947Y199944*
X225946Y199951*
X225947Y199958*
X226027Y200598*
X226035Y200619*
X226355Y201099*
X226368Y201113*
X226848Y201433*
X226869Y201441*
X227429Y201521*
X227450Y201520*
X228010Y201360*
X228021Y201355*
X228541Y201058*
X228806Y201456*
X228216Y201825*
X227906Y201903*
X227906D02*
X227437Y201981D01*
X226654Y201824*
X225950Y201433*
X225483Y200811*
X225405Y200423*
X225327Y199951*
X225405Y199480*
X225483Y199092*
X225951Y198469*
X226573Y198080*
X227438Y198001*
X227827*
X228215Y198157*
X228885Y198529*
X222826Y176844D02*
X222684Y176985D01*
X222454Y177139*
X222236Y177212*
X222018Y177139*
X221795Y176990*
X221723Y176847*
X221648Y176546*
X221798Y176096*
X222011Y175954*
X222461*
X222680Y176100*
X222826Y176319*
Y176844*
Y179724D02*
X222684Y179865D01*
X222454Y180019*
X222236Y180092*
X222018Y180019*
X221795Y179870*
X221723Y179727*
X221648Y179426*
X221798Y178976*
X222011Y178834*
X222461*
X222680Y178980*
X222826Y179199*
Y179724*
Y188655D02*
X222684Y188796D01*
X222454Y188950*
X222236Y189023*
X222018Y188950*
X221795Y188801*
X221723Y188658*
X221648Y188357*
X221798Y187907*
X222011Y187765*
X222461*
X222680Y187911*
X222826Y188130*
Y188655*
Y191535D02*
X222684Y191676D01*
X222454Y191830*
X222236Y191903*
X222018Y191830*
X221795Y191681*
X221723Y191538*
X221648Y191237*
X221798Y190787*
X222011Y190645*
X222461*
X222680Y190791*
X222826Y191010*
Y191535*
X224172Y198227D02*
X224045Y198608D01*
X223612Y198464*
X223604Y198462*
X223124Y198382*
X223108*
X222628Y198462*
X222606Y198471*
X222286Y198711*
X222271Y198729*
X222271D02*
X222111Y199049D01*
X222111D02*
X222106Y199071D01*
Y201391*
X222156Y201441*
X224026*
Y201901*
X222156*
X222106Y201951*
Y202941*
X221643*
X221566Y201948*
X221520Y201902*
X220446Y201825*
Y201441*
X221516*
X221566Y201391*
Y199555*
X221645Y198925*
X221877Y198383*
X222256Y198080*
X222956Y198002*
X223587Y198081*
X224172Y198227*
X219698Y181214D02*
X219161D01*
X218766Y177898*
X218686Y177261*
Y176624*
X218636Y176574*
X218556*
X218508Y176612*
X218188Y177891*
X217638Y179854*
X217236*
X216765Y177893*
X216763Y177887*
X216524Y177249*
X216365Y176612*
X216267Y176618*
X216187Y177258*
X216186Y177264*
Y177901*
X215713Y181214*
X215174*
X215959Y176034*
X216598*
X217148Y178157*
X217149Y178160*
X217308Y178636*
X217387Y179112*
X217486*
X217565Y178636*
X217724Y178160*
X217725Y178157*
X218275Y176034*
X218913*
X219698Y181214*
X219386Y190435D02*
X219228Y191538D01*
X218757Y192324*
X218448Y192633*
X218059Y192788*
X217585Y192946*
X217033Y193025*
X215806*
Y187845*
X217588*
X218055Y188001*
X218445Y188235*
X219073Y188862*
X219227Y189327*
X219386Y190435*
X218766Y190431D02*
X218686Y189551D01*
X218681Y189533*
X218361Y188893*
X218349Y188877*
X217789Y188397*
X217761Y188386*
X216961Y188306*
X216956Y188305*
X216396*
X216346Y188355*
Y192515*
X216396Y192565*
X216956*
X216966Y192564*
X217766Y192404*
X217785Y192396*
X218345Y191996*
X218361Y191978*
X218681Y191338*
X218686Y191320*
X218766Y190440*
Y190431*
X219146Y200425D02*
X218989Y201054D01*
X218757Y201517*
X218296Y201825*
X217595Y201981*
X217128Y201903*
X216175Y201585*
X215903Y201449*
X216099Y201059*
X216694Y201356*
X216705Y201360*
X217425Y201520*
X217444Y201521*
X217924Y201441*
X217946Y201431*
X218266Y201191*
X218276Y201181*
X218516Y200861*
X218526Y200831*
Y200511*
X218482Y200462*
X217207Y200302*
X216733Y200145*
X216344Y199989*
X216112Y199756*
X216104Y199750*
X215880Y199601*
X215805Y199299*
X215804Y199296*
X215728Y199067*
X215803Y198613*
X216107Y198233*
X216489Y198080*
X217040Y198001*
X217427*
X217813Y198156*
X218528Y198633*
X218606Y198599*
X218680Y198081*
X219146*
Y200425*
X218526Y200031D02*
Y199071D01*
X218506Y199031*
X217866Y198551*
X217848Y198543*
X217208Y198383*
X217184*
X216544Y198543*
X216515Y198564*
X216355Y198804*
X216349Y198816*
X216269Y199056*
X216268Y199084*
X216348Y199404*
X216365Y199431*
X216765Y199751*
X216784Y199760*
X217099Y199839*
X217414Y199996*
X217428Y200001*
X217908Y200081*
X217916*
X218476*
X218526Y200031*
X214506Y181214D02*
X211406D01*
Y176034*
X211946*
Y178304*
X211996Y178354*
X214106*
Y178814*
X211996*
X211946Y178864*
Y180704*
X211996Y180754*
X214506*
Y181214*
X214266Y193025D02*
X211086D01*
Y192565*
X212316*
X212366Y192515*
Y188355*
X212316Y188305*
X211086*
Y187845*
X214266*
Y188305*
X212956*
X212906Y188355*
Y192515*
X212956Y192565*
X214266*
Y193025*
X214585Y199554D02*
X214508Y200014D01*
X214280Y200395*
X213896Y200625*
X213342Y200783*
X213338Y200878*
X213728Y201034*
X214035Y201341*
X214189Y201648*
X214265Y202029*
X214111Y202568*
X213806Y202950*
X213184Y203182*
X213184D02*
X212473Y203261D01*
X211086*
Y198081*
X212634*
X213422Y198160*
X214045Y198472*
X214045D02*
X214430Y198935D01*
X214585Y199554*
X213966Y199631D02*
Y199623D01*
X213886Y199143*
X213876Y199121*
X213636Y198801*
X213619Y198787*
X213139Y198547*
X213116Y198541*
X211756*
X211706Y198591*
Y200511*
X211756Y200561*
X213116*
X213139Y200556*
X213619Y200316*
X213632Y200307*
X213872Y200067*
X213885Y200041*
X213965Y199641*
X213966Y199631*
X213725Y201942D02*
X213645Y201542D01*
X213636Y201521*
X213396Y201201*
X213375Y201185*
X212975Y201025*
X212956Y201021*
X211756*
X211706Y201071*
Y202751*
X211756Y202801*
X212396*
X212403*
X212963Y202721*
X212966*
X213366Y202641*
X213396Y202621*
X213636Y202301*
X213645Y202284*
X213725Y201964*
Y201942*
X211100Y187845D02*
Y188305D01*
Y192565D02*
Y193025D01*
Y198081D02*
Y203261D01*
X211200Y187845D02*
Y188305D01*
Y192565D02*
Y193025D01*
Y198081D02*
Y203261D01*
X211300Y187845D02*
Y188305D01*
Y192565D02*
Y193025D01*
Y198081D02*
Y203261D01*
X211400Y187845D02*
Y188305D01*
Y192565D02*
Y193025D01*
Y198081D02*
Y203261D01*
X211500Y176034D02*
Y181214D01*
Y187845D02*
Y188305D01*
Y192565D02*
Y193025D01*
Y198081D02*
Y203261D01*
X211600Y176034D02*
Y181214D01*
Y187845D02*
Y188305D01*
Y192565D02*
Y193025D01*
Y198081D02*
Y203261D01*
X211700Y176034D02*
Y181214D01*
Y187845D02*
Y188305D01*
Y192565D02*
Y193025D01*
Y198081D02*
Y203261D01*
X211800Y176034D02*
Y181214D01*
Y187845D02*
Y188305D01*
Y192565D02*
Y193025D01*
Y198081D02*
Y198541D01*
Y200561D02*
Y201021D01*
Y202801D02*
Y203261D01*
X211900Y176034D02*
Y181214D01*
Y187845D02*
Y188305D01*
Y192565D02*
Y193025D01*
Y198081D02*
Y198541D01*
Y200561D02*
Y201021D01*
Y202801D02*
Y203261D01*
X212000Y178354D02*
Y178814D01*
Y180754D02*
Y181214D01*
Y187845D02*
Y188305D01*
Y192565D02*
Y193025D01*
Y198081D02*
Y198541D01*
Y200561D02*
Y201021D01*
Y202801D02*
Y203261D01*
X212100Y178354D02*
Y178814D01*
Y180754D02*
Y181214D01*
Y187845D02*
Y188305D01*
Y192565D02*
Y193025D01*
Y198081D02*
Y198541D01*
Y200561D02*
Y201021D01*
Y202801D02*
Y203261D01*
X212200Y178354D02*
Y178814D01*
Y180754D02*
Y181214D01*
Y187845D02*
Y188305D01*
Y192565D02*
Y193025D01*
Y198081D02*
Y198541D01*
Y200561D02*
Y201021D01*
Y202801D02*
Y203261D01*
X212300Y178354D02*
Y178814D01*
Y180754D02*
Y181214D01*
Y187845D02*
Y188305D01*
Y192565D02*
Y193025D01*
Y198081D02*
Y198541D01*
Y200561D02*
Y201021D01*
Y202801D02*
Y203261D01*
X212400Y178354D02*
Y178814D01*
Y180754D02*
Y181214D01*
Y187845D02*
Y193025D01*
Y198081D02*
Y198541D01*
Y200561D02*
Y201021D01*
Y202801D02*
Y203261D01*
X212500Y178354D02*
Y178814D01*
Y180754D02*
Y181214D01*
Y187845D02*
Y193025D01*
Y198081D02*
Y198541D01*
Y200561D02*
Y201021D01*
Y202787D02*
Y203259D01*
X212600Y178354D02*
Y178814D01*
Y180754D02*
Y181214D01*
Y187845D02*
Y193025D01*
Y198081D02*
Y198541D01*
Y200561D02*
Y201021D01*
Y202773D02*
Y203247D01*
X212700Y178354D02*
Y178814D01*
Y180754D02*
Y181214D01*
Y187845D02*
Y193025D01*
Y198088D02*
Y198541D01*
Y200561D02*
Y201021D01*
Y202759D02*
Y203236D01*
X212800Y178354D02*
Y178814D01*
Y180754D02*
Y181214D01*
Y187845D02*
Y193025D01*
Y198098D02*
Y198541D01*
Y200561D02*
Y201021D01*
Y202744D02*
Y203225D01*
X212900Y178354D02*
Y178814D01*
Y180754D02*
Y181214D01*
Y187845D02*
Y193025D01*
Y198108D02*
Y198541D01*
Y200561D02*
Y201021D01*
Y202730D02*
Y203214D01*
X213000Y178354D02*
Y178814D01*
Y180754D02*
Y181214D01*
Y187845D02*
Y188305D01*
Y192565D02*
Y193025D01*
Y198118D02*
Y198541D01*
Y200561D02*
Y201035D01*
Y202714D02*
Y203203D01*
X213100Y178354D02*
Y178814D01*
Y180754D02*
Y181214D01*
Y187845D02*
Y188305D01*
Y192565D02*
Y193025D01*
Y198128D02*
Y198541D01*
Y200561D02*
Y201075D01*
Y202694D02*
Y203192D01*
X213200Y178354D02*
Y178814D01*
Y180754D02*
Y181214D01*
Y187845D02*
Y188305D01*
Y192565D02*
Y193025D01*
Y198138D02*
Y198577D01*
Y200526D02*
Y201115D01*
Y202674D02*
Y203177D01*
X213300Y178354D02*
Y178814D01*
Y180754D02*
Y181214D01*
Y187845D02*
Y188305D01*
Y192565D02*
Y193025D01*
Y198148D02*
Y198627D01*
Y200476D02*
Y201155D01*
Y202654D02*
Y203139D01*
X213400Y178354D02*
Y178814D01*
Y180754D02*
Y181214D01*
Y187845D02*
Y188305D01*
Y192565D02*
Y193025D01*
Y198158D02*
Y198677D01*
Y200426D02*
Y200767D01*
Y200903D02*
Y201207D01*
Y202616D02*
Y203102D01*
X213500Y178354D02*
Y178814D01*
Y180754D02*
Y181214D01*
Y187845D02*
Y188305D01*
Y192565D02*
Y193025D01*
Y198199D02*
Y198727D01*
Y200376D02*
Y200738D01*
Y200943D02*
Y201340D01*
Y202483D02*
Y203064D01*
X213600Y178354D02*
Y178814D01*
Y180754D02*
Y181214D01*
Y187845D02*
Y188305D01*
Y192565D02*
Y193025D01*
Y198249D02*
Y198777D01*
Y200326D02*
Y200710D01*
Y200983D02*
Y201473D01*
Y202350D02*
Y203027D01*
X213700Y178354D02*
Y178814D01*
Y180754D02*
Y181214D01*
Y187845D02*
Y188305D01*
Y192565D02*
Y193025D01*
Y198299D02*
Y198887D01*
Y200238D02*
Y200681D01*
Y201023D02*
Y201815D01*
Y202063D02*
Y202989D01*
X213800Y178354D02*
Y178814D01*
Y180754D02*
Y181214D01*
Y187845D02*
Y188305D01*
Y192565D02*
Y193025D01*
Y198349D02*
Y199020D01*
Y200138D02*
Y200653D01*
Y201106D02*
Y202952D01*
X213900Y178354D02*
Y178814D01*
Y180754D02*
Y181214D01*
Y187845D02*
Y188305D01*
Y192565D02*
Y193025D01*
Y198399D02*
Y199230D01*
Y199968D02*
Y200623D01*
Y201206D02*
Y202832D01*
X214000Y178354D02*
Y178814D01*
Y180754D02*
Y181214D01*
Y187845D02*
Y188305D01*
Y192565D02*
Y193025D01*
Y198449D02*
Y200563D01*
Y201306D02*
Y202707D01*
X214100Y178354D02*
Y178814D01*
Y180754D02*
Y181214D01*
Y187845D02*
Y188305D01*
Y192565D02*
Y193025D01*
Y198538D02*
Y200503D01*
Y201471D02*
Y202582D01*
X214200Y180754D02*
Y181214D01*
Y187845D02*
Y188305D01*
Y192565D02*
Y193025D01*
Y198658D02*
Y200443D01*
Y201705D02*
Y202256D01*
X214300Y180754D02*
Y181214D01*
Y198778D02*
Y200361D01*
X214400Y180754D02*
Y181214D01*
Y198898D02*
Y200195D01*
X214500Y180754D02*
Y181214D01*
Y199213D02*
Y200028D01*
X215200Y181045D02*
Y181214D01*
X215300Y180385D02*
Y181214D01*
X215400Y179725D02*
Y181214D01*
X215500Y179065D02*
Y181214D01*
X215600Y178405D02*
Y181214D01*
X215700Y177745D02*
Y181214D01*
X215800Y177085D02*
Y180604D01*
Y198633D02*
Y199285D01*
X215900Y176425D02*
Y179904D01*
Y187845D02*
Y193025D01*
Y198492D02*
Y199614D01*
X216000Y176034D02*
Y179204D01*
Y187845D02*
Y193025D01*
Y198367D02*
Y199681D01*
Y201256D02*
Y201497D01*
X216100Y176034D02*
Y178504D01*
Y187845D02*
Y193025D01*
Y198242D02*
Y199747D01*
Y201059D02*
Y201547D01*
X216200Y176034D02*
Y177151D01*
Y187845D02*
Y193025D01*
Y198196D02*
Y199845D01*
Y201109D02*
Y201593D01*
X216300Y176034D02*
Y176577D01*
Y187845D02*
Y193025D01*
Y198156D02*
Y198962D01*
Y199213D02*
Y199945D01*
Y201159D02*
Y201627D01*
X216400Y176034D02*
Y176753D01*
Y187845D02*
Y188305D01*
Y192565D02*
Y193025D01*
Y198116D02*
Y198736D01*
Y199459D02*
Y200011D01*
Y201209D02*
Y201660D01*
X216500Y176034D02*
Y177153D01*
Y187845D02*
Y188305D01*
Y192565D02*
Y193025D01*
Y198079D02*
Y198586D01*
Y199539D02*
Y200051D01*
Y201259D02*
Y201693D01*
X216600Y176044D02*
Y177452D01*
Y187845D02*
Y188305D01*
Y192565D02*
Y193025D01*
Y198064D02*
Y198529D01*
Y199619D02*
Y200091D01*
Y201309D02*
Y201727D01*
X216700Y176429D02*
Y177719D01*
Y187845D02*
Y188305D01*
Y192565D02*
Y193025D01*
Y198050D02*
Y198504D01*
Y199699D02*
Y200131D01*
Y201359D02*
Y201760D01*
X216800Y176815D02*
Y178039D01*
Y187845D02*
Y188305D01*
Y192565D02*
Y193025D01*
Y198036D02*
Y198479D01*
Y199764D02*
Y200167D01*
Y201381D02*
Y201793D01*
X216900Y177201D02*
Y178456D01*
Y187845D02*
Y188305D01*
Y192565D02*
Y193025D01*
Y198021D02*
Y198454D01*
Y199789D02*
Y200200D01*
Y201404D02*
Y201827D01*
X217000Y177587D02*
Y178872D01*
Y187845D02*
Y188309D01*
Y192558D02*
Y193025D01*
Y198007D02*
Y198429D01*
Y199814D02*
Y200233D01*
Y201426D02*
Y201860D01*
X217100Y177972D02*
Y179289D01*
Y187845D02*
Y188319D01*
Y192538D02*
Y193016D01*
Y198001D02*
Y198404D01*
Y199839D02*
Y200267D01*
Y201448D02*
Y201893D01*
X217200Y178314D02*
Y179706D01*
Y187845D02*
Y188329D01*
Y192518D02*
Y193001D01*
Y198001D02*
Y198382D01*
Y199889D02*
Y200300D01*
Y201470D02*
Y201915D01*
X217300Y178614D02*
Y179854D01*
Y187845D02*
Y188339D01*
Y192498D02*
Y192987D01*
Y198001D02*
Y198406D01*
Y199939D02*
Y200314D01*
Y201492D02*
Y201931D01*
X217400Y179139D02*
Y179854D01*
Y187845D02*
Y188349D01*
Y192478D02*
Y192973D01*
Y198001D02*
Y198431D01*
Y199989D02*
Y200327D01*
Y201515D02*
Y201948D01*
X217500Y179026D02*
Y179854D01*
Y187845D02*
Y188359D01*
Y192458D02*
Y192959D01*
Y198031D02*
Y198456D01*
Y200013D02*
Y200339D01*
Y201512D02*
Y201965D01*
X217600Y178531D02*
Y179854D01*
Y187849D02*
Y188369D01*
Y192438D02*
Y192941D01*
Y198071D02*
Y198481D01*
Y200029D02*
Y200352D01*
Y201495D02*
Y201979D01*
X217700Y178231D02*
Y179634D01*
Y187883D02*
Y188379D01*
Y192418D02*
Y192908D01*
Y198111D02*
Y198506D01*
Y200046D02*
Y200364D01*
Y201478D02*
Y201957D01*
X217800Y177866D02*
Y179277D01*
Y187916D02*
Y188407D01*
Y192385D02*
Y192875D01*
Y198151D02*
Y198531D01*
Y200063D02*
Y200377D01*
Y201462D02*
Y201935D01*
X217900Y177480D02*
Y178920D01*
Y187949D02*
Y188493D01*
Y192314D02*
Y192841D01*
Y198214D02*
Y198577D01*
Y200079D02*
Y200389D01*
Y201445D02*
Y201913D01*
X218000Y177095D02*
Y178562D01*
Y187983D02*
Y188578D01*
Y192243D02*
Y192808D01*
Y198281D02*
Y198652D01*
Y200081D02*
Y200402D01*
Y201391D02*
Y201891D01*
X218100Y176709D02*
Y178205D01*
Y188028D02*
Y188664D01*
Y192171D02*
Y192772D01*
Y198347D02*
Y198727D01*
Y200081D02*
Y200414D01*
Y201316D02*
Y201868D01*
X218200Y176323D02*
Y177843D01*
Y188088D02*
Y188750D01*
Y192100D02*
Y192732D01*
Y198414D02*
Y198802D01*
Y200081D02*
Y200427D01*
Y201241D02*
Y201846D01*
X218300Y176034D02*
Y177443D01*
Y188148D02*
Y188836D01*
Y192028D02*
Y192692D01*
Y198481D02*
Y198877D01*
Y200081D02*
Y200439D01*
Y201150D02*
Y201822D01*
X218400Y176034D02*
Y177043D01*
Y188208D02*
Y188971D01*
Y191900D02*
Y192652D01*
Y198547D02*
Y198952D01*
Y200081D02*
Y200452D01*
Y201016D02*
Y201756D01*
X218500Y176034D02*
Y176643D01*
Y188290D02*
Y189171D01*
Y191700D02*
Y192581D01*
Y198614D02*
Y199027D01*
Y200075D02*
Y200468D01*
Y200883D02*
Y201689D01*
X218600Y176034D02*
Y176574D01*
Y188390D02*
Y189371D01*
Y191500D02*
Y192481D01*
Y198616D02*
Y201622D01*
X218700Y176034D02*
Y177371D01*
Y188490D02*
Y189705D01*
Y191166D02*
Y192381D01*
Y198081D02*
Y201556D01*
X218800Y176034D02*
Y178185D01*
Y188590D02*
Y192252D01*
Y198081D02*
Y201432D01*
X218900Y176034D02*
Y179025D01*
Y188690D02*
Y192085D01*
Y198081D02*
Y201232D01*
X219000Y176607D02*
Y179865D01*
Y188790D02*
Y191918D01*
Y198081D02*
Y201010D01*
X219100Y177267D02*
Y180705D01*
Y188945D02*
Y191752D01*
Y198081D02*
Y200610D01*
X219200Y177927D02*
Y181214D01*
Y189245D02*
Y191585D01*
X219300Y178587D02*
Y181214D01*
Y189835D02*
Y191035D01*
X219400Y179247D02*
Y181214D01*
X219500Y179907D02*
Y181214D01*
X219600Y180567D02*
Y181214D01*
X220500Y201441D02*
Y201829D01*
X220600Y201441D02*
Y201836D01*
X220700Y201441D02*
Y201843D01*
X220800Y201441D02*
Y201850D01*
X220900Y201441D02*
Y201857D01*
X221000Y201441D02*
Y201864D01*
X221100Y201441D02*
Y201872D01*
X221200Y201441D02*
Y201879D01*
X221300Y201441D02*
Y201886D01*
X221400Y201441D02*
Y201893D01*
X221500Y201441D02*
Y201900D01*
X221600Y199284D02*
Y202389D01*
X221700Y176391D02*
Y176753D01*
Y179271D02*
Y179633D01*
Y188202D02*
Y188564D01*
Y191082D02*
Y191444D01*
Y198796D02*
Y202941D01*
X221800Y176095D02*
Y176993D01*
Y178975D02*
Y179873D01*
Y187906D02*
Y188804D01*
Y190786D02*
Y191684D01*
Y198563D02*
Y202941D01*
X221900Y176028D02*
Y177060D01*
Y178908D02*
Y179940D01*
Y187840D02*
Y188871D01*
Y190720D02*
Y191751D01*
Y198365D02*
Y202941D01*
X222000Y175962D02*
Y177127D01*
Y178842D02*
Y180007D01*
Y187773D02*
Y188938D01*
Y190653D02*
Y191818D01*
Y198285D02*
Y202941D01*
X222100Y175954D02*
Y177166D01*
Y178834D02*
Y180046D01*
Y187765D02*
Y188977D01*
Y190645D02*
Y191857D01*
Y198205D02*
Y202941D01*
X222200Y175954D02*
Y177199D01*
Y178834D02*
Y180079D01*
Y187765D02*
Y189010D01*
Y190645D02*
Y191890D01*
Y198125D02*
Y198872D01*
Y201441D02*
Y201901D01*
X222300Y175954D02*
Y177190D01*
Y178834D02*
Y180070D01*
Y187765D02*
Y189001D01*
Y190645D02*
Y191881D01*
Y198075D02*
Y198701D01*
Y201441D02*
Y201901D01*
X222400Y175954D02*
Y177157D01*
Y178834D02*
Y180037D01*
Y187765D02*
Y188968D01*
Y190645D02*
Y191848D01*
Y198064D02*
Y198626D01*
Y201441D02*
Y201901D01*
X222500Y175980D02*
Y177108D01*
Y178860D02*
Y179988D01*
Y187791D02*
Y188919D01*
Y190671D02*
Y191799D01*
Y198052D02*
Y198551D01*
Y201441D02*
Y201901D01*
X222600Y176047D02*
Y177042D01*
Y178927D02*
Y179922D01*
Y187858D02*
Y188853D01*
Y190738D02*
Y191733D01*
Y198041D02*
Y198476D01*
Y201441D02*
Y201901D01*
X222700Y176130D02*
Y176970D01*
Y179010D02*
Y179850D01*
Y187941D02*
Y188781D01*
Y190821D02*
Y191661D01*
Y198030D02*
Y198450D01*
Y201441D02*
Y201901D01*
X222800Y176280D02*
Y176870D01*
Y179160D02*
Y179750D01*
Y188091D02*
Y188681D01*
Y190971D02*
Y191561D01*
Y198019D02*
Y198434D01*
Y201441D02*
Y201901D01*
X222900Y198008D02*
Y198417D01*
Y201441D02*
Y201901D01*
X223000Y198007D02*
Y198400D01*
Y201441D02*
Y201901D01*
X223100Y198020D02*
Y198384D01*
Y201441D02*
Y201901D01*
X223200Y198032D02*
Y198395D01*
Y201441D02*
Y201901D01*
X223300Y198045D02*
Y198411D01*
Y201441D02*
Y201901D01*
X223400Y198057D02*
Y198428D01*
Y201441D02*
Y201901D01*
X223500Y198070D02*
Y198445D01*
Y201441D02*
Y201901D01*
X223600Y198084D02*
Y198461D01*
Y201441D02*
Y201901D01*
X223700Y198109D02*
Y198493D01*
Y201441D02*
Y201901D01*
X223800Y198134D02*
Y198527D01*
Y201441D02*
Y201901D01*
X223900Y198159D02*
Y198560D01*
Y201441D02*
Y201901D01*
X224000Y198184D02*
Y198593D01*
Y201441D02*
Y201901D01*
X224100Y198209D02*
Y198442D01*
X225400Y199513D02*
Y200390D01*
X225500Y199070D02*
Y200833D01*
X225600Y198936D02*
Y200967D01*
X225700Y198803D02*
Y201100D01*
X225800Y198670D02*
Y201233D01*
X225900Y198536D02*
Y201367D01*
X226000Y198438D02*
Y199571D01*
Y200385D02*
Y201461D01*
X226100Y198376D02*
Y199266D01*
Y200717D02*
Y201516D01*
X226200Y198313D02*
Y199116D01*
Y200867D02*
Y201572D01*
X226300Y198251D02*
Y198966D01*
Y201017D02*
Y201628D01*
X226400Y198188D02*
Y198849D01*
Y201134D02*
Y201683D01*
X226500Y198126D02*
Y198782D01*
Y201201D02*
Y201739D01*
X226600Y198078D02*
Y198716D01*
Y201267D02*
Y201794D01*
X226700Y198069D02*
Y198649D01*
Y201334D02*
Y201833D01*
X226800Y198060D02*
Y198582D01*
Y201401D02*
Y201853D01*
X226900Y198050D02*
Y198538D01*
Y201445D02*
Y201873D01*
X227000Y198041D02*
Y198523D01*
Y201460D02*
Y201893D01*
X227100Y198032D02*
Y198509D01*
Y201474D02*
Y201913D01*
X227200Y198023D02*
Y198495D01*
Y201488D02*
Y201933D01*
X227300Y198014D02*
Y198480D01*
Y201503D02*
Y201953D01*
X227400Y198005D02*
Y198466D01*
Y201517D02*
Y201973D01*
X227500Y198001D02*
Y198469D01*
Y201505D02*
Y201970D01*
X227600Y198001D02*
Y198482D01*
Y201477D02*
Y201954D01*
X227700Y198001D02*
Y198494D01*
Y201448D02*
Y201937D01*
X227800Y198001D02*
Y198507D01*
Y201420D02*
Y201920D01*
X227900Y198031D02*
Y198519D01*
Y201391D02*
Y201904D01*
X228000Y198071D02*
Y198532D01*
Y201362D02*
Y201879D01*
X228100Y198111D02*
Y198548D01*
Y201310D02*
Y201854D01*
X228200Y198151D02*
Y198618D01*
Y201253D02*
Y201829D01*
X228300Y198204D02*
Y198690D01*
Y201195D02*
Y201773D01*
X228400Y198260D02*
Y198761D01*
Y201138D02*
Y201710D01*
X228500Y198315D02*
Y198833D01*
Y201081D02*
Y201648D01*
X228600Y198371D02*
Y198904D01*
Y201147D02*
Y201585D01*
X228700Y198426D02*
Y198806D01*
Y201297D02*
Y201523D01*
X228800Y198482D02*
Y198656D01*
Y201447D02*
Y201460D01*
X230000Y174914D02*
Y175374D01*
Y186725D02*
Y187185D01*
X230100Y174914D02*
Y175374D01*
Y186725D02*
Y187185D01*
X230200Y174914D02*
Y175374D01*
Y186725D02*
Y187185D01*
X230300Y174914D02*
Y175374D01*
Y186725D02*
Y187185D01*
Y198081D02*
Y203661D01*
X230400Y174914D02*
Y175374D01*
Y186725D02*
Y187185D01*
Y198081D02*
Y203661D01*
X230500Y174914D02*
Y175374D01*
Y186725D02*
Y187185D01*
Y198081D02*
Y203661D01*
X230600Y174914D02*
Y175374D01*
Y186725D02*
Y187185D01*
Y198081D02*
Y203661D01*
X230700Y174914D02*
Y175374D01*
Y186725D02*
Y187185D01*
Y198081D02*
Y203661D01*
X230800Y174914D02*
Y175374D01*
Y186725D02*
Y187185D01*
Y198081D02*
Y201182D01*
Y201879D02*
Y203661D01*
X230900Y174914D02*
Y175374D01*
Y186725D02*
Y187185D01*
Y200846D02*
Y201256D01*
X231000Y174914D02*
Y175374D01*
Y186725D02*
Y187185D01*
Y200946D02*
Y201343D01*
X231100Y174914D02*
Y175374D01*
Y186725D02*
Y187185D01*
Y201046D02*
Y201431D01*
X231200Y174914D02*
Y175374D01*
Y186725D02*
Y187185D01*
Y201134D02*
Y201518D01*
X231300Y174914D02*
Y175374D01*
Y186725D02*
Y187185D01*
Y201201D02*
Y201606D01*
X231400Y174914D02*
Y175374D01*
Y186725D02*
Y187185D01*
Y201267D02*
Y201693D01*
X231500Y174914D02*
Y175374D01*
Y186725D02*
Y187185D01*
Y201319D02*
Y201763D01*
X231600Y174914D02*
Y175374D01*
Y186725D02*
Y187185D01*
Y201369D02*
Y201803D01*
X231700Y174914D02*
Y175374D01*
Y186725D02*
Y187185D01*
Y201419D02*
Y201843D01*
X231800Y174914D02*
Y175374D01*
Y186725D02*
Y187185D01*
Y201454D02*
Y201883D01*
X231900Y174914D02*
Y175374D01*
Y186725D02*
Y187185D01*
Y201479D02*
Y201911D01*
X232000Y174914D02*
Y175374D01*
Y186725D02*
Y187185D01*
Y201504D02*
Y201928D01*
X232100Y174914D02*
Y175374D01*
Y186725D02*
Y187185D01*
Y201518D02*
Y201945D01*
X232200Y174914D02*
Y175374D01*
Y186725D02*
Y187185D01*
Y201498D02*
Y201961D01*
X232300Y174914D02*
Y175374D01*
Y186725D02*
Y187185D01*
Y201478D02*
Y201978D01*
X232400Y174914D02*
Y175374D01*
Y186725D02*
Y187185D01*
Y201458D02*
Y201956D01*
X232500Y174914D02*
Y175374D01*
Y186725D02*
Y187185D01*
Y201435D02*
Y201927D01*
X232600Y174914D02*
Y175374D01*
Y186725D02*
Y187185D01*
Y201361D02*
Y201898D01*
X232700Y174914D02*
Y175374D01*
Y186725D02*
Y187185D01*
Y201286D02*
Y201870D01*
X232800Y174914D02*
Y175374D01*
Y186725D02*
Y187185D01*
Y201211D02*
Y201841D01*
X232900Y174914D02*
Y175374D01*
Y186725D02*
Y187185D01*
Y200943D02*
Y201799D01*
X233000Y174914D02*
Y175374D01*
Y186725D02*
Y187185D01*
Y200393D02*
Y201739D01*
X233100Y174914D02*
Y175374D01*
Y186725D02*
Y187185D01*
Y198081D02*
Y201679D01*
X233200Y174914D02*
Y175374D01*
Y186725D02*
Y187185D01*
Y198081D02*
Y201619D01*
X233300Y174914D02*
Y175374D01*
Y186725D02*
Y187185D01*
Y198081D02*
Y201472D01*
X233400Y174914D02*
Y175374D01*
Y186725D02*
Y187185D01*
Y198081D02*
Y201272D01*
X233500Y174914D02*
Y175374D01*
Y186725D02*
Y187185D01*
Y198081D02*
Y200845D01*
X233600Y174914D02*
Y175374D01*
Y186725D02*
Y187185D01*
X233700Y174914D02*
Y175374D01*
Y186725D02*
Y187185D01*
X234800Y174914D02*
Y175374D01*
Y186725D02*
Y187185D01*
X234900Y174914D02*
Y175374D01*
Y186725D02*
Y187185D01*
X235000Y174914D02*
Y175374D01*
Y186725D02*
Y187185D01*
X235100Y174914D02*
Y175374D01*
Y186725D02*
Y187185D01*
X235200Y174914D02*
Y175374D01*
Y186725D02*
Y187185D01*
X235300Y174914D02*
Y175374D01*
Y186725D02*
Y187185D01*
X235400Y174914D02*
Y175374D01*
Y186725D02*
Y187185D01*
X235500Y174914D02*
Y175374D01*
Y186725D02*
Y187185D01*
X235600Y174914D02*
Y175374D01*
Y186725D02*
Y187185D01*
X235700Y174914D02*
Y175374D01*
Y186725D02*
Y187185D01*
X235800Y174914D02*
Y175374D01*
Y186725D02*
Y187185D01*
X235900Y174914D02*
Y175374D01*
Y186725D02*
Y187185D01*
X236000Y174914D02*
Y175374D01*
Y186725D02*
Y187185D01*
X236100Y174914D02*
Y175374D01*
Y186725D02*
Y187185D01*
Y198438D02*
Y198800D01*
Y201318D02*
Y201680D01*
X236200Y174914D02*
Y175374D01*
Y186725D02*
Y187185D01*
Y198142D02*
Y199041D01*
Y201022D02*
Y201921D01*
X236300Y174914D02*
Y175374D01*
Y186725D02*
Y187185D01*
Y198076D02*
Y199107D01*
Y200956D02*
Y201987D01*
X236400Y174914D02*
Y175374D01*
Y186725D02*
Y187185D01*
Y198009D02*
Y199174D01*
Y200889D02*
Y202054D01*
X236500Y174914D02*
Y175374D01*
Y186725D02*
Y187185D01*
Y198001D02*
Y199213D01*
Y200881D02*
Y202093D01*
X236600Y174914D02*
Y175374D01*
Y186725D02*
Y187185D01*
Y198001D02*
Y199247D01*
Y200881D02*
Y202127D01*
X236700Y174914D02*
Y175374D01*
Y186725D02*
Y187185D01*
Y198001D02*
Y199238D01*
Y200881D02*
Y202118D01*
X236800Y174914D02*
Y175374D01*
Y186725D02*
Y187185D01*
Y198001D02*
Y199204D01*
Y200881D02*
Y202084D01*
X236900Y174914D02*
Y175374D01*
Y186725D02*
Y187185D01*
Y198027D02*
Y199156D01*
Y200907D02*
Y202036D01*
X237000Y174914D02*
Y175374D01*
Y186725D02*
Y187185D01*
Y198094D02*
Y199089D01*
Y200974D02*
Y201969D01*
X237100Y174914D02*
Y175374D01*
Y186725D02*
Y187185D01*
Y198177D02*
Y199017D01*
Y201057D02*
Y201897D01*
X237200Y174914D02*
Y175374D01*
Y186725D02*
Y187185D01*
Y198327D02*
Y198917D01*
Y201207D02*
Y201797D01*
X237300Y174914D02*
Y175374D01*
Y186725D02*
Y187185D01*
X237400Y174914D02*
Y175374D01*
Y186725D02*
Y187185D01*
X237500Y174914D02*
Y175374D01*
Y186725D02*
Y187185D01*
X237600Y174914D02*
Y175374D01*
Y186725D02*
Y187185D01*
X237700Y174914D02*
Y175374D01*
Y186725D02*
Y187185D01*
X237800Y174914D02*
Y175374D01*
Y186725D02*
Y187185D01*
X237900Y174914D02*
Y175374D01*
Y186725D02*
Y187185D01*
X238000Y174914D02*
Y175374D01*
Y186725D02*
Y187185D01*
X238100Y174914D02*
Y175374D01*
Y186725D02*
Y187185D01*
X238200Y174914D02*
Y175374D01*
Y186725D02*
Y187185D01*
X238300Y174914D02*
Y175374D01*
Y186725D02*
Y187185D01*
X238400Y174914D02*
Y175374D01*
Y186725D02*
Y187185D01*
X238500Y174914D02*
Y175374D01*
Y186725D02*
Y187185D01*
X239600Y174914D02*
Y175374D01*
Y186725D02*
Y187185D01*
X239700Y174914D02*
Y175374D01*
Y186725D02*
Y187185D01*
X239800Y174914D02*
Y175374D01*
Y186725D02*
Y187185D01*
X239900Y174914D02*
Y175374D01*
Y186725D02*
Y187185D01*
X240000Y174914D02*
Y175374D01*
Y186725D02*
Y187185D01*
X240100Y174914D02*
Y175374D01*
Y186725D02*
Y187185D01*
X240200Y174914D02*
Y175374D01*
Y186725D02*
Y187185D01*
X240300Y174914D02*
Y175374D01*
Y186725D02*
Y187185D01*
X240400Y174914D02*
Y175374D01*
Y186725D02*
Y187185D01*
X240500Y174914D02*
Y175374D01*
Y186725D02*
Y187185D01*
X240600Y174914D02*
Y175374D01*
Y186725D02*
Y187185D01*
X240700Y174914D02*
Y175374D01*
Y186725D02*
Y187185D01*
X240800Y174914D02*
Y175374D01*
Y186725D02*
Y187185D01*
X240900Y174914D02*
Y175374D01*
Y186725D02*
Y187185D01*
X241000Y174914D02*
Y175374D01*
Y186725D02*
Y187185D01*
X241100Y174914D02*
Y175374D01*
Y186725D02*
Y187185D01*
X241200Y174914D02*
Y175374D01*
Y186725D02*
Y187185D01*
X241300Y174914D02*
Y175374D01*
Y186725D02*
Y187185D01*
X241400Y174914D02*
Y175374D01*
Y186725D02*
Y187185D01*
X241500Y174914D02*
Y175374D01*
Y186725D02*
Y187185D01*
X241600Y174914D02*
Y175374D01*
Y186725D02*
Y187185D01*
X241700Y174914D02*
Y175374D01*
Y186725D02*
Y187185D01*
X241800Y174914D02*
Y175374D01*
Y186725D02*
Y187185D01*
X241900Y174914D02*
Y175374D01*
Y186725D02*
Y187185D01*
X242000Y174914D02*
Y175374D01*
Y186725D02*
Y187185D01*
X242100Y174914D02*
Y175374D01*
Y186725D02*
Y187185D01*
X242200Y174914D02*
Y175374D01*
Y186725D02*
Y187185D01*
X242300Y174914D02*
Y175374D01*
Y186725D02*
Y187185D01*
X242400Y174914D02*
Y175374D01*
Y186725D02*
Y187185D01*
X242500Y174914D02*
Y175374D01*
Y186725D02*
Y187185D01*
X242600Y174914D02*
Y175374D01*
Y186725D02*
Y187185D01*
X242700Y174914D02*
Y175374D01*
Y186725D02*
Y187185D01*
X242800Y174914D02*
Y175374D01*
Y186725D02*
Y187185D01*
X242900Y174914D02*
Y175374D01*
Y186725D02*
Y187185D01*
X243000Y174914D02*
Y175374D01*
Y186725D02*
Y187185D01*
X243100Y174914D02*
Y175374D01*
Y186725D02*
Y187185D01*
X243200Y174914D02*
Y175374D01*
Y186725D02*
Y187185D01*
X243300Y174914D02*
Y175374D01*
Y186725D02*
Y187185D01*
X244400Y174914D02*
Y175374D01*
Y186725D02*
Y187185D01*
X244500Y174914D02*
Y175374D01*
Y186725D02*
Y187185D01*
X244600Y174914D02*
Y175374D01*
Y186725D02*
Y187185D01*
X244700Y174914D02*
Y175374D01*
Y186725D02*
Y187185D01*
X244800Y174914D02*
Y175374D01*
Y186725D02*
Y187185D01*
X244900Y174914D02*
Y175374D01*
Y186725D02*
Y187185D01*
X245000Y174914D02*
Y175374D01*
Y186725D02*
Y187185D01*
X245100Y174914D02*
Y175374D01*
Y186725D02*
Y187185D01*
X245200Y174914D02*
Y175374D01*
Y186725D02*
Y187185D01*
X245300Y174914D02*
Y175374D01*
Y186725D02*
Y187185D01*
X245400Y174914D02*
Y175374D01*
Y186725D02*
Y187185D01*
X245500Y174914D02*
Y175374D01*
Y186725D02*
Y187185D01*
X245600Y174914D02*
Y175374D01*
Y186725D02*
Y187185D01*
X245700Y174914D02*
Y175374D01*
Y186725D02*
Y187185D01*
X245800Y174914D02*
Y175374D01*
Y186725D02*
Y187185D01*
X245900Y174914D02*
Y175374D01*
Y186725D02*
Y187185D01*
X246000Y174914D02*
Y175374D01*
Y186725D02*
Y187185D01*
X246100Y174914D02*
Y175374D01*
Y186725D02*
Y187185D01*
X246200Y174914D02*
Y175374D01*
Y186725D02*
Y187185D01*
X246300Y174914D02*
Y175374D01*
Y186725D02*
Y187185D01*
X246400Y174914D02*
Y175374D01*
Y186725D02*
Y187185D01*
X246500Y174914D02*
Y175374D01*
Y186725D02*
Y187185D01*
X246600Y174914D02*
Y175374D01*
Y186725D02*
Y187185D01*
X246700Y174914D02*
Y175374D01*
Y186725D02*
Y187185D01*
X246800Y174914D02*
Y175374D01*
Y186725D02*
Y187185D01*
X246900Y174914D02*
Y175374D01*
Y186725D02*
Y187185D01*
X247000Y174914D02*
Y175374D01*
Y186725D02*
Y187185D01*
X247100Y174914D02*
Y175374D01*
Y186725D02*
Y187185D01*
X247200Y174914D02*
Y175374D01*
Y186725D02*
Y187185D01*
X247300Y174914D02*
Y175374D01*
Y186725D02*
Y187185D01*
X247400Y174914D02*
Y175374D01*
Y186725D02*
Y187185D01*
X247500Y174914D02*
Y175374D01*
Y186725D02*
Y187185D01*
X247600Y174914D02*
Y175374D01*
Y186725D02*
Y187185D01*
X247700Y174914D02*
Y175374D01*
Y186725D02*
Y187185D01*
X247800Y174914D02*
Y175374D01*
Y186725D02*
Y187185D01*
X247900Y174914D02*
Y175374D01*
Y186725D02*
Y187185D01*
X248000Y174914D02*
Y175374D01*
Y186725D02*
Y187185D01*
X248100Y174914D02*
Y175374D01*
Y186725D02*
Y187185D01*
X249200Y174914D02*
Y175374D01*
Y186725D02*
Y187185D01*
X249300Y174914D02*
Y175374D01*
Y186725D02*
Y187185D01*
X249400Y174914D02*
Y175374D01*
Y186725D02*
Y187185D01*
X249500Y174914D02*
Y175374D01*
Y186725D02*
Y187185D01*
X249600Y174914D02*
Y175374D01*
Y186725D02*
Y187185D01*
X249700Y174914D02*
Y175374D01*
Y186725D02*
Y187185D01*
X249800Y174914D02*
Y175374D01*
Y186725D02*
Y187185D01*
X249900Y174914D02*
Y175374D01*
Y186725D02*
Y187185D01*
X250000Y174914D02*
Y175374D01*
Y186725D02*
Y187185D01*
X250100Y174914D02*
Y175374D01*
Y186725D02*
Y187185D01*
X250200Y174914D02*
Y175374D01*
Y186725D02*
Y187185D01*
X250300Y174914D02*
Y175374D01*
Y186725D02*
Y187185D01*
X250400Y174914D02*
Y175374D01*
Y186725D02*
Y187185D01*
X250500Y174914D02*
Y175374D01*
Y186725D02*
Y187185D01*
X250600Y174914D02*
Y175374D01*
Y186725D02*
Y187185D01*
X250700Y174914D02*
Y175374D01*
Y186725D02*
Y187185D01*
X250800Y174914D02*
Y175374D01*
Y186725D02*
Y187185D01*
X250900Y174914D02*
Y175374D01*
Y186725D02*
Y187185D01*
X251000Y174914D02*
Y175374D01*
Y186725D02*
Y187185D01*
X251100Y174914D02*
Y175374D01*
Y186725D02*
Y187185D01*
X251200Y174914D02*
Y175374D01*
Y186725D02*
Y187185D01*
X251300Y174914D02*
Y175374D01*
Y186725D02*
Y187185D01*
X251400Y174914D02*
Y175374D01*
Y186725D02*
Y187185D01*
X251500Y174914D02*
Y175374D01*
Y186725D02*
Y187185D01*
X251600Y174914D02*
Y175374D01*
Y186725D02*
Y187185D01*
X251700Y174914D02*
Y175374D01*
Y186725D02*
Y187185D01*
X251800Y174914D02*
Y175374D01*
Y186725D02*
Y187185D01*
X251900Y174914D02*
Y175374D01*
Y186725D02*
Y187185D01*
X252000Y174914D02*
Y175374D01*
Y186725D02*
Y187185D01*
X252100Y174914D02*
Y175374D01*
Y186725D02*
Y187185D01*
X252200Y174914D02*
Y175374D01*
Y186725D02*
Y187185D01*
X252300Y174914D02*
Y175374D01*
Y186725D02*
Y187185D01*
X252400Y174914D02*
Y175374D01*
Y186725D02*
Y187185D01*
X252500Y174914D02*
Y175374D01*
Y186725D02*
Y187185D01*
X252600Y174914D02*
Y175374D01*
Y186725D02*
Y187185D01*
X252700Y174914D02*
Y175374D01*
Y186725D02*
Y187185D01*
X252800Y174914D02*
Y175374D01*
Y186725D02*
Y187185D01*
X252900Y174914D02*
Y175374D01*
Y186725D02*
Y187185D01*
X254000Y174914D02*
Y175374D01*
Y186725D02*
Y187185D01*
X254100Y174914D02*
Y175374D01*
Y186725D02*
Y187185D01*
X254200Y174914D02*
Y175374D01*
Y186725D02*
Y187185D01*
X254300Y174914D02*
Y175374D01*
Y186725D02*
Y187185D01*
X254400Y174914D02*
Y175374D01*
Y186725D02*
Y187185D01*
X254500Y174914D02*
Y175374D01*
Y186725D02*
Y187185D01*
X254600Y174914D02*
Y175374D01*
Y186725D02*
Y187185D01*
X254700Y174914D02*
Y175374D01*
Y186725D02*
Y187185D01*
X254800Y174914D02*
Y175374D01*
Y186725D02*
Y187185D01*
X254900Y174914D02*
Y175374D01*
Y186725D02*
Y187185D01*
X255000Y174914D02*
Y175374D01*
Y186725D02*
Y187185D01*
X255100Y174914D02*
Y175374D01*
Y186725D02*
Y187185D01*
X255200Y174914D02*
Y175374D01*
Y186725D02*
Y187185D01*
X255300Y174914D02*
Y175374D01*
Y186725D02*
Y187185D01*
X255400Y174914D02*
Y175374D01*
Y186725D02*
Y187185D01*
X255500Y174914D02*
Y175374D01*
Y186725D02*
Y187185D01*
X255600Y174914D02*
Y175374D01*
Y186725D02*
Y187185D01*
X255700Y174914D02*
Y175374D01*
Y186725D02*
Y187185D01*
X255800Y174914D02*
Y175374D01*
Y186725D02*
Y187185D01*
X255900Y174914D02*
Y175374D01*
Y186725D02*
Y187185D01*
X256000Y174914D02*
Y175374D01*
Y186725D02*
Y187185D01*
X256100Y174914D02*
Y175374D01*
Y186725D02*
Y187185D01*
X256200Y174914D02*
Y175374D01*
Y186725D02*
Y187185D01*
X256300Y174914D02*
Y175374D01*
Y186725D02*
Y187185D01*
X256400Y174914D02*
Y175374D01*
Y186725D02*
Y187185D01*
X256500Y174914D02*
Y175374D01*
Y186725D02*
Y187185D01*
X256600Y174914D02*
Y175374D01*
Y186725D02*
Y187185D01*
X256700Y174914D02*
Y175374D01*
Y186725D02*
Y187185D01*
X256800Y174914D02*
Y175374D01*
Y186725D02*
Y187185D01*
X256900Y174914D02*
Y175374D01*
Y186725D02*
Y187185D01*
X257000Y174914D02*
Y175374D01*
Y186725D02*
Y187185D01*
X257100Y174914D02*
Y175374D01*
Y186725D02*
Y187185D01*
X257200Y174914D02*
Y175374D01*
Y186725D02*
Y187185D01*
X257300Y174914D02*
Y175374D01*
Y186725D02*
Y187185D01*
X257400Y174914D02*
Y175374D01*
Y186725D02*
Y187185D01*
X257500Y174914D02*
Y175374D01*
Y186725D02*
Y187185D01*
X257600Y174914D02*
Y175374D01*
Y186725D02*
Y187185D01*
X257700Y174914D02*
Y175374D01*
Y186725D02*
Y187185D01*
X258800Y174914D02*
Y175374D01*
Y186725D02*
Y187185D01*
X258900Y174914D02*
Y175374D01*
Y186725D02*
Y187185D01*
X259000Y174914D02*
Y175374D01*
Y186725D02*
Y187185D01*
X259100Y174914D02*
Y175374D01*
Y186725D02*
Y187185D01*
Y198081D02*
Y198541D01*
X259200Y174914D02*
Y175374D01*
Y186725D02*
Y187185D01*
Y198081D02*
Y198541D01*
X259300Y174914D02*
Y175374D01*
Y186725D02*
Y187185D01*
Y198081D02*
Y198541D01*
X259400Y174914D02*
Y175374D01*
Y186725D02*
Y187185D01*
Y198081D02*
Y198541D01*
X259500Y174914D02*
Y175374D01*
Y186725D02*
Y187185D01*
Y198081D02*
Y198541D01*
Y202401D02*
Y202732D01*
X259600Y174914D02*
Y175374D01*
Y186725D02*
Y187185D01*
Y198081D02*
Y198541D01*
Y202401D02*
Y202754D01*
X259700Y174914D02*
Y175374D01*
Y186725D02*
Y187185D01*
Y198081D02*
Y198541D01*
Y202401D02*
Y202777D01*
X259800Y174914D02*
Y175374D01*
Y186725D02*
Y187185D01*
Y198081D02*
Y198541D01*
Y202401D02*
Y202799D01*
X259900Y174914D02*
Y175374D01*
Y186725D02*
Y187185D01*
Y198081D02*
Y198541D01*
Y202401D02*
Y202821D01*
X260000Y174914D02*
Y175374D01*
Y186725D02*
Y187185D01*
Y198081D02*
Y198541D01*
Y202401D02*
Y202843D01*
X260100Y174914D02*
Y175374D01*
Y186725D02*
Y187185D01*
Y198081D02*
Y198541D01*
Y202401D02*
Y202867D01*
X260200Y174914D02*
Y175374D01*
Y186725D02*
Y187185D01*
Y198081D02*
Y198541D01*
Y202401D02*
Y202910D01*
X260300Y174914D02*
Y175374D01*
Y186725D02*
Y187185D01*
Y198081D02*
Y198541D01*
Y202401D02*
Y202953D01*
X260400Y174914D02*
Y175374D01*
Y186725D02*
Y187185D01*
Y198081D02*
Y198541D01*
Y202401D02*
Y202996D01*
X260500Y174914D02*
Y175374D01*
Y186725D02*
Y187185D01*
Y198081D02*
Y198548D01*
Y202395D02*
Y203039D01*
X260600Y174914D02*
Y175374D01*
Y186725D02*
Y187185D01*
Y198081D02*
Y203082D01*
X260700Y174914D02*
Y175374D01*
Y186725D02*
Y187185D01*
Y198081D02*
Y203101D01*
X260800Y174914D02*
Y175374D01*
Y186725D02*
Y187185D01*
Y198081D02*
Y203101D01*
X260900Y174914D02*
Y175374D01*
Y186725D02*
Y187185D01*
Y198081D02*
Y203101D01*
X261000Y174914D02*
Y175374D01*
Y186725D02*
Y187185D01*
Y198081D02*
Y203101D01*
X261100Y174914D02*
Y175374D01*
Y186725D02*
Y187185D01*
Y198081D02*
Y198544D01*
X261200Y174914D02*
Y175374D01*
Y186725D02*
Y187185D01*
Y198081D02*
Y198541D01*
X261300Y174914D02*
Y175374D01*
Y186725D02*
Y187185D01*
Y198081D02*
Y198541D01*
X261400Y174914D02*
Y175374D01*
Y186725D02*
Y187185D01*
Y198081D02*
Y198541D01*
X261500Y174914D02*
Y175374D01*
Y186725D02*
Y187185D01*
Y198081D02*
Y198541D01*
X261600Y174914D02*
Y175374D01*
Y186725D02*
Y187185D01*
Y198081D02*
Y198541D01*
X261700Y174914D02*
Y175374D01*
Y186725D02*
Y187185D01*
Y198081D02*
Y198541D01*
X261800Y174914D02*
Y175374D01*
Y186725D02*
Y187185D01*
Y198081D02*
Y198541D01*
X261900Y174914D02*
Y175374D01*
Y186725D02*
Y187185D01*
Y198081D02*
Y198541D01*
X262000Y174914D02*
Y175374D01*
Y186725D02*
Y187185D01*
Y198081D02*
Y198541D01*
X262100Y174914D02*
Y175374D01*
Y186725D02*
Y187185D01*
Y198081D02*
Y198541D01*
X262200Y174914D02*
Y175374D01*
Y186725D02*
Y187185D01*
Y198081D02*
Y198541D01*
X262300Y174914D02*
Y175374D01*
Y186725D02*
Y187185D01*
Y198081D02*
Y198541D01*
X262400Y174914D02*
Y175374D01*
Y186725D02*
Y187185D01*
Y198081D02*
Y198541D01*
X262500Y174914D02*
Y175374D01*
Y186725D02*
Y187185D01*
X263600Y174914D02*
Y175374D01*
Y186725D02*
Y187185D01*
X263700Y174914D02*
Y175374D01*
Y186725D02*
Y187185D01*
X263800Y174914D02*
Y175374D01*
Y186725D02*
Y187185D01*
X263900Y174914D02*
Y175374D01*
Y186725D02*
Y187185D01*
X264000Y174914D02*
Y175374D01*
Y186725D02*
Y187185D01*
X264100Y174914D02*
Y175374D01*
Y186725D02*
Y187185D01*
X264200Y174914D02*
Y175374D01*
Y186725D02*
Y187185D01*
X264300Y174914D02*
Y175374D01*
Y186725D02*
Y187185D01*
X264400Y174914D02*
Y175374D01*
Y186725D02*
Y187185D01*
X264500Y174914D02*
Y175374D01*
Y186725D02*
Y187185D01*
X264600Y174914D02*
Y175374D01*
Y186725D02*
Y187185D01*
X264700Y174914D02*
Y175374D01*
Y186725D02*
Y187185D01*
X264800Y174914D02*
Y175374D01*
Y186725D02*
Y187185D01*
X264900Y174914D02*
Y175374D01*
Y186725D02*
Y187185D01*
X265000Y174914D02*
Y175374D01*
Y186725D02*
Y187185D01*
X265100Y174914D02*
Y175374D01*
Y186725D02*
Y187185D01*
X265200Y174914D02*
Y175374D01*
Y186725D02*
Y187185D01*
X265300Y174914D02*
Y175374D01*
Y186725D02*
Y187185D01*
X265400Y174914D02*
Y175374D01*
Y186725D02*
Y187185D01*
X265500Y174914D02*
Y175374D01*
Y186725D02*
Y187185D01*
X265600Y174914D02*
Y175374D01*
Y186725D02*
Y187185D01*
X265700Y174914D02*
Y175374D01*
Y186725D02*
Y187185D01*
X265800Y174914D02*
Y175374D01*
Y186725D02*
Y187185D01*
X265900Y174914D02*
Y175374D01*
Y186725D02*
Y187185D01*
X266000Y174914D02*
Y175374D01*
Y186725D02*
Y187185D01*
X266100Y174914D02*
Y175374D01*
Y186725D02*
Y187185D01*
X266200Y174914D02*
Y175374D01*
Y186725D02*
Y187185D01*
X266300Y174914D02*
Y175374D01*
Y186725D02*
Y187185D01*
X266400Y174914D02*
Y175374D01*
Y186725D02*
Y187185D01*
X266500Y174914D02*
Y175374D01*
Y186725D02*
Y187185D01*
X266600Y174914D02*
Y175374D01*
Y186725D02*
Y187185D01*
X266700Y174914D02*
Y175374D01*
Y186725D02*
Y187185D01*
X266800Y174914D02*
Y175374D01*
Y186725D02*
Y187185D01*
X266900Y174914D02*
Y175374D01*
Y186725D02*
Y187185D01*
X267000Y174914D02*
Y175374D01*
Y186725D02*
Y187185D01*
X267100Y174914D02*
Y175374D01*
Y186725D02*
Y187185D01*
X267200Y174914D02*
Y175374D01*
Y186725D02*
Y187185D01*
X267300Y174914D02*
Y175374D01*
Y186725D02*
Y187185D01*
X293600Y188353D02*
Y190075D01*
X293700Y188012D02*
Y190392D01*
Y198081D02*
Y198332D01*
X293800Y187712D02*
Y190575D01*
Y198081D02*
Y198632D01*
X293900Y187538D02*
Y190759D01*
Y198081D02*
Y198932D01*
X294000Y187438D02*
Y190942D01*
Y198081D02*
Y199232D01*
X294100Y176034D02*
Y181214D01*
Y187338D02*
Y189048D01*
Y189460D02*
Y191125D01*
Y198081D02*
Y199532D01*
X294200Y176034D02*
Y181214D01*
Y187238D02*
Y188498D01*
Y190010D02*
Y191252D01*
Y198081D02*
Y199832D01*
X294300Y176034D02*
Y181214D01*
Y187138D02*
Y188191D01*
Y190299D02*
Y191318D01*
Y198315D02*
Y200132D01*
X294400Y176034D02*
Y181214D01*
Y187038D02*
Y187966D01*
Y190499D02*
Y191385D01*
Y198649D02*
Y200432D01*
X294500Y176034D02*
Y181214D01*
Y186953D02*
Y187741D01*
Y190699D02*
Y191452D01*
Y198982D02*
Y200732D01*
X294600Y176034D02*
Y181214D01*
Y186893D02*
Y187584D01*
Y190851D02*
Y191518D01*
Y199315D02*
Y201032D01*
X294700Y176034D02*
Y176494D01*
Y180754D02*
Y181214D01*
Y186833D02*
Y187500D01*
Y190951D02*
Y191585D01*
Y199648D02*
Y201332D01*
X294800Y176034D02*
Y176494D01*
Y180754D02*
Y181214D01*
Y186773D02*
Y187417D01*
Y191051D02*
Y191652D01*
Y199681D02*
Y201632D01*
X294900Y176034D02*
Y176494D01*
Y180754D02*
Y181214D01*
Y186721D02*
Y187334D01*
Y191151D02*
Y191704D01*
Y199681D02*
Y200142D01*
Y200342D02*
Y201932D01*
X295000Y176034D02*
Y176494D01*
Y180754D02*
Y181214D01*
Y186681D02*
Y187250D01*
Y191251D02*
Y191737D01*
Y199681D02*
Y200141D01*
Y200675D02*
Y202232D01*
X295100Y176034D02*
Y176494D01*
Y180754D02*
Y181214D01*
Y186641D02*
Y187185D01*
Y191307D02*
Y191770D01*
Y199681D02*
Y200141D01*
Y201008D02*
Y202532D01*
X295200Y176034D02*
Y176494D01*
Y180754D02*
Y181214D01*
Y186601D02*
Y187135D01*
Y191319D02*
Y191804D01*
Y199681D02*
Y200141D01*
Y201283D02*
Y202832D01*
X295300Y176034D02*
Y176501D01*
Y180741D02*
Y181214D01*
Y186584D02*
Y187085D01*
Y191330D02*
Y191837D01*
Y199681D02*
Y200141D01*
Y201558D02*
Y203132D01*
X295400Y176034D02*
Y176511D01*
Y180721D02*
Y181200D01*
Y186584D02*
Y187044D01*
Y191341D02*
Y191858D01*
Y199681D02*
Y200141D01*
Y201833D02*
Y203261D01*
X295500Y176034D02*
Y176521D01*
Y180701D02*
Y181186D01*
Y186584D02*
Y187044D01*
Y191352D02*
Y191875D01*
Y199681D02*
Y200141D01*
Y202182D02*
Y203261D01*
X295600Y176034D02*
Y176531D01*
Y180681D02*
Y181172D01*
Y186584D02*
Y187044D01*
Y191363D02*
Y191891D01*
Y199681D02*
Y200141D01*
Y202549D02*
Y203261D01*
X295700Y176034D02*
Y176541D01*
Y180661D02*
Y181158D01*
Y186584D02*
Y187044D01*
Y191374D02*
Y191908D01*
Y199681D02*
Y200141D01*
Y202801D02*
Y203261D01*
X295800Y176034D02*
Y176551D01*
Y180641D02*
Y181143D01*
Y186584D02*
Y187044D01*
Y191384D02*
Y191922D01*
Y199681D02*
Y200141D01*
Y202601D02*
Y203261D01*
X295900Y176048D02*
Y176561D01*
Y180621D02*
Y181121D01*
Y186584D02*
Y187044D01*
Y191369D02*
Y191906D01*
Y199681D02*
Y200141D01*
Y202234D02*
Y203261D01*
X296000Y176081D02*
Y176571D01*
Y180601D02*
Y181087D01*
Y186584D02*
Y187044D01*
Y191355D02*
Y191889D01*
Y199681D02*
Y200141D01*
Y201872D02*
Y203261D01*
X296100Y176115D02*
Y176621D01*
Y180554D02*
Y181054D01*
Y186584D02*
Y187044D01*
Y191341D02*
Y191872D01*
Y199681D02*
Y200141D01*
Y201597D02*
Y203175D01*
X296200Y176148D02*
Y176707D01*
Y180482D02*
Y181021D01*
Y186589D02*
Y187082D01*
Y191327D02*
Y191856D01*
Y199681D02*
Y200141D01*
Y201322D02*
Y202875D01*
X296300Y176181D02*
Y176792D01*
Y180411D02*
Y180987D01*
Y186622D02*
Y187132D01*
Y191312D02*
Y191825D01*
Y199681D02*
Y200141D01*
Y201047D02*
Y202575D01*
X296400Y176234D02*
Y176878D01*
Y180339D02*
Y180949D01*
Y186656D02*
Y187182D01*
Y191280D02*
Y191775D01*
Y199681D02*
Y200141D01*
Y200722D02*
Y202275D01*
X296500Y176294D02*
Y176964D01*
Y180268D02*
Y180909D01*
Y186689D02*
Y187240D01*
Y191197D02*
Y191725D01*
Y199681D02*
Y200141D01*
Y200389D02*
Y201975D01*
X296600Y176354D02*
Y177049D01*
Y180196D02*
Y180869D01*
Y186722D02*
Y187312D01*
Y191114D02*
Y191671D01*
Y199681D02*
Y201675D01*
X296700Y176414D02*
Y177218D01*
Y180030D02*
Y180829D01*
Y186777D02*
Y187383D01*
Y191030D02*
Y191609D01*
Y199669D02*
Y201375D01*
X296800Y176508D02*
Y177418D01*
Y179830D02*
Y180741D01*
Y186852D02*
Y187455D01*
Y190947D02*
Y191546D01*
Y199362D02*
Y201075D01*
X296900Y176608D02*
Y177618D01*
Y179630D02*
Y180641D01*
Y186927D02*
Y187526D01*
Y191012D02*
Y191484D01*
Y199029D02*
Y200775D01*
X297000Y176708D02*
Y178214D01*
Y179034D02*
Y180541D01*
Y187011D02*
Y187566D01*
Y191132D02*
Y191421D01*
Y198696D02*
Y200475D01*
X297100Y176808D02*
Y180392D01*
Y187111D02*
Y187441D01*
Y191252D02*
Y191359D01*
Y198362D02*
Y200175D01*
X297200Y176908D02*
Y180226D01*
Y187211D02*
Y187316D01*
Y198081D02*
Y199875D01*
X297300Y177008D02*
Y180059D01*
Y198081D02*
Y199575D01*
X297400Y177221D02*
Y179892D01*
Y198081D02*
Y199275D01*
X297500Y177528D02*
Y179720D01*
Y198081D02*
Y198975D01*
X297600Y178228D02*
Y179020D01*
Y198081D02*
Y198675D01*
X297700Y198081D02*
Y198375D01*
X298500Y186664D02*
Y192244D01*
X298600Y186664D02*
Y192244D01*
X298700Y186664D02*
Y192244D01*
X298800Y177227D02*
Y178582D01*
Y186664D02*
Y192244D01*
Y198506D02*
Y198621D01*
X298900Y177010D02*
Y178798D01*
Y186664D02*
Y192244D01*
Y198461D02*
Y198771D01*
X299000Y176877D02*
Y178931D01*
Y186664D02*
Y192244D01*
Y198415D02*
Y198921D01*
Y200814D02*
Y201121D01*
X299100Y176744D02*
Y179065D01*
Y186664D02*
Y189772D01*
Y190736D02*
Y192244D01*
Y198370D02*
Y198872D01*
Y200564D02*
Y201373D01*
X299200Y176610D02*
Y179198D01*
Y189451D02*
Y189859D01*
Y198324D02*
Y198816D01*
Y200449D02*
Y201498D01*
X299300Y176477D02*
Y177587D01*
Y177794D02*
Y178175D01*
Y178361D02*
Y179331D01*
Y189551D02*
Y189946D01*
Y198279D02*
Y198760D01*
Y200349D02*
Y201623D01*
X299400Y176385D02*
Y177237D01*
Y177794D02*
Y178174D01*
Y178661D02*
Y179429D01*
Y189651D02*
Y190034D01*
Y198233D02*
Y198705D01*
Y200249D02*
Y201697D01*
X299500Y176323D02*
Y177063D01*
Y177794D02*
Y178174D01*
Y178825D02*
Y179501D01*
Y189732D02*
Y190121D01*
Y198188D02*
Y198649D01*
Y200182D02*
Y200895D01*
Y200928D02*
Y201740D01*
X299600Y176260D02*
Y176938D01*
Y177794D02*
Y178174D01*
Y178950D02*
Y179572D01*
Y189799D02*
Y190209D01*
Y198147D02*
Y198594D01*
Y200122D02*
Y200709D01*
Y201195D02*
Y201783D01*
X299700Y176198D02*
Y176813D01*
Y177794D02*
Y178174D01*
Y179075D02*
Y179643D01*
Y189863D02*
Y190296D01*
Y198113D02*
Y198542D01*
Y200062D02*
Y200634D01*
Y201295D02*
Y201825D01*
X299800Y176135D02*
Y176716D01*
Y177794D02*
Y178174D01*
Y179170D02*
Y179715D01*
Y189913D02*
Y190355D01*
Y198080D02*
Y198522D01*
Y200002D02*
Y200559D01*
Y201374D02*
Y201868D01*
X299900Y176073D02*
Y176649D01*
Y177794D02*
Y178174D01*
Y179230D02*
Y179780D01*
Y189963D02*
Y190395D01*
Y198047D02*
Y198502D01*
Y199975D02*
Y200484D01*
Y201424D02*
Y201905D01*
X300000Y176029D02*
Y176582D01*
Y177794D02*
Y178174D01*
Y179290D02*
Y179800D01*
Y190013D02*
Y190435D01*
Y198013D02*
Y198482D01*
Y199950D02*
Y200429D01*
Y201474D02*
Y201918D01*
X300100Y176019D02*
Y176516D01*
Y177794D02*
Y178174D01*
Y179350D02*
Y179820D01*
Y190042D02*
Y190475D01*
Y198001D02*
Y198462D01*
Y199925D02*
Y200379D01*
Y201521D02*
Y201930D01*
X300200Y176009D02*
Y176449D01*
Y177794D02*
Y178174D01*
Y179397D02*
Y179840D01*
Y190067D02*
Y190498D01*
Y198001D02*
Y198445D01*
Y199900D02*
Y200329D01*
Y201521D02*
Y201943D01*
X300300Y175999D02*
Y176409D01*
Y177794D02*
Y178174D01*
Y179414D02*
Y179860D01*
Y190092D02*
Y190515D01*
Y198001D02*
Y198429D01*
Y199875D02*
Y200295D01*
Y201521D02*
Y201955D01*
X300400Y175989D02*
Y176395D01*
Y177794D02*
Y178174D01*
Y179430D02*
Y179880D01*
Y190096D02*
Y190531D01*
Y198001D02*
Y198412D01*
Y199850D02*
Y200279D01*
Y201521D02*
Y201968D01*
X300500Y175979D02*
Y176380D01*
Y177794D02*
Y178174D01*
Y179447D02*
Y179900D01*
Y190076D02*
Y190548D01*
Y198001D02*
Y198395D01*
Y199823D02*
Y200262D01*
Y201521D02*
Y201980D01*
X300600Y175969D02*
Y176366D01*
Y177794D02*
Y178174D01*
Y179464D02*
Y179920D01*
Y190056D02*
Y190560D01*
Y198003D02*
Y198383D01*
Y199794D02*
Y200245D01*
Y201511D02*
Y201964D01*
X300700Y175959D02*
Y176352D01*
Y177794D02*
Y178174D01*
Y179469D02*
Y179926D01*
Y190036D02*
Y190532D01*
Y198014D02*
Y198400D01*
Y199766D02*
Y200229D01*
Y201500D02*
Y201946D01*
X300800Y175959D02*
Y176338D01*
Y177794D02*
Y178174D01*
Y179453D02*
Y179903D01*
Y190002D02*
Y190503D01*
Y198025D02*
Y198416D01*
Y199737D02*
Y200201D01*
Y201489D02*
Y201927D01*
X300900Y175968D02*
Y176343D01*
Y177794D02*
Y178174D01*
Y179436D02*
Y179881D01*
Y189927D02*
Y190475D01*
Y198037D02*
Y198433D01*
Y199708D02*
Y200168D01*
Y201478D02*
Y201909D01*
X301000Y175977D02*
Y176355D01*
Y177794D02*
Y178174D01*
Y179419D02*
Y179859D01*
Y189852D02*
Y190446D01*
Y198048D02*
Y198450D01*
Y199680D02*
Y200134D01*
Y201467D02*
Y201891D01*
X301100Y175987D02*
Y176368D01*
Y177794D02*
Y178174D01*
Y179403D02*
Y179837D01*
Y189777D02*
Y190417D01*
Y198059D02*
Y198468D01*
Y199640D02*
Y200101D01*
Y201456D02*
Y201873D01*
X301200Y175996D02*
Y176380D01*
Y177794D02*
Y178174D01*
Y179367D02*
Y179815D01*
Y189434D02*
Y190368D01*
Y198070D02*
Y198493D01*
Y199600D02*
Y200068D01*
Y201445D02*
Y201855D01*
X301300Y176005D02*
Y176393D01*
Y177794D02*
Y178174D01*
Y179292D02*
Y179792D01*
Y186664D02*
Y190308D01*
Y198083D02*
Y198518D01*
Y199560D02*
Y200034D01*
Y201407D02*
Y201837D01*
X301400Y176014D02*
Y176405D01*
Y177794D02*
Y178174D01*
Y179217D02*
Y179754D01*
Y186664D02*
Y190248D01*
Y198126D02*
Y198543D01*
Y199520D02*
Y200001D01*
Y201350D02*
Y201811D01*
X301500Y176023D02*
Y176425D01*
Y177794D02*
Y178174D01*
Y179142D02*
Y179682D01*
Y186664D02*
Y190188D01*
Y198169D02*
Y198671D01*
Y199392D02*
Y199959D01*
Y201293D02*
Y201767D01*
X301600Y176032D02*
Y176483D01*
Y177794D02*
Y178174D01*
Y178980D02*
Y179611D01*
Y186664D02*
Y190009D01*
Y198211D02*
Y198832D01*
Y199237D02*
Y199909D01*
Y201236D02*
Y201722D01*
X301700Y176077D02*
Y176540D01*
Y177794D02*
Y178174D01*
Y178813D02*
Y179539D01*
Y186664D02*
Y189809D01*
Y198254D02*
Y199859D01*
Y201179D02*
Y201678D01*
X301800Y176127D02*
Y176597D01*
Y177794D02*
Y178176D01*
Y178451D02*
Y179468D01*
Y186664D02*
Y189222D01*
Y198297D02*
Y199809D01*
Y201181D02*
Y201633D01*
X301900Y176177D02*
Y176654D01*
Y177794D02*
Y179396D01*
Y198393D02*
Y199759D01*
Y201331D02*
Y201589D01*
X302000Y176227D02*
Y176711D01*
Y177794D02*
Y179231D01*
Y198518D02*
Y199638D01*
Y201481D02*
Y201544D01*
X302100Y176277D02*
Y176527D01*
Y177794D02*
Y179056D01*
Y198643D02*
Y199504D01*
X302200Y176327D02*
X302200D01*
Y177794D02*
Y178881D01*
Y198838D02*
Y199305D01*
X302300Y177794D02*
Y178486D01*
X303200Y187872D02*
Y189196D01*
X303300Y187649D02*
Y189420D01*
X303400Y187515D02*
Y189553D01*
X303500Y187382D02*
Y189686D01*
X303600Y187249D02*
Y189820D01*
Y198506D02*
Y198621D01*
X303700Y174354D02*
Y179854D01*
Y187115D02*
Y188239D01*
Y188422D02*
Y188806D01*
Y188972D02*
Y189953D01*
Y198461D02*
Y198771D01*
X303800Y174354D02*
Y179854D01*
Y187019D02*
Y187889D01*
Y188424D02*
Y188804D01*
Y189272D02*
Y190055D01*
Y198415D02*
Y198921D01*
Y200814D02*
Y201121D01*
X303900Y174354D02*
Y179854D01*
Y186956D02*
Y187701D01*
Y188424D02*
Y188804D01*
Y189447D02*
Y190126D01*
Y198370D02*
Y198872D01*
Y200564D02*
Y201373D01*
X304000Y174354D02*
Y179854D01*
Y186894D02*
Y187576D01*
Y188424D02*
Y188804D01*
Y189572D02*
Y190197D01*
Y198324D02*
Y198816D01*
Y200449D02*
Y201498D01*
X304100Y174354D02*
Y179854D01*
Y186831D02*
Y187451D01*
Y188424D02*
Y188804D01*
Y189697D02*
Y190269D01*
Y198279D02*
Y198760D01*
Y200349D02*
Y201623D01*
X304200Y174354D02*
Y179460D01*
Y186769D02*
Y187350D01*
Y188424D02*
Y188804D01*
Y189796D02*
Y190340D01*
Y198233D02*
Y198705D01*
Y200249D02*
Y201697D01*
X304300Y176423D02*
Y176847D01*
Y178881D02*
Y179306D01*
Y186706D02*
Y187283D01*
Y188424D02*
Y188804D01*
Y189856D02*
Y190409D01*
Y198188D02*
Y198649D01*
Y200182D02*
Y200895D01*
Y200928D02*
Y201740D01*
X304400Y176360D02*
Y176769D01*
Y178988D02*
Y179381D01*
Y186660D02*
Y187216D01*
Y188424D02*
Y188804D01*
Y189916D02*
Y190429D01*
Y198147D02*
Y198594D01*
Y200122D02*
Y200709D01*
Y201195D02*
Y201783D01*
X304500Y176298D02*
Y176702D01*
Y179088D02*
Y179456D01*
Y186650D02*
Y187150D01*
Y188424D02*
Y188804D01*
Y189976D02*
Y190449D01*
Y198113D02*
Y198542D01*
Y200062D02*
Y200634D01*
Y201295D02*
Y201825D01*
X304600Y176235D02*
Y176642D01*
Y179167D02*
Y179531D01*
Y186640D02*
Y187083D01*
Y188424D02*
Y188804D01*
Y190026D02*
Y190469D01*
Y198080D02*
Y198522D01*
Y200002D02*
Y200559D01*
Y201374D02*
Y201868D01*
X304700Y176173D02*
Y176592D01*
Y179217D02*
Y179606D01*
Y186630D02*
Y187040D01*
Y188424D02*
Y188804D01*
Y190043D02*
Y190489D01*
Y198047D02*
Y198502D01*
Y199975D02*
Y200484D01*
Y201424D02*
Y201905D01*
X304800Y176110D02*
Y176542D01*
Y179267D02*
Y179681D01*
Y186620D02*
Y187026D01*
Y188424D02*
Y188804D01*
Y190059D02*
Y190509D01*
Y198013D02*
Y198482D01*
Y199950D02*
Y200429D01*
Y201474D02*
Y201918D01*
X304900Y176048D02*
Y176495D01*
Y179314D02*
Y179756D01*
Y186610D02*
Y187011D01*
Y188424D02*
Y188804D01*
Y190076D02*
Y190529D01*
Y198001D02*
Y198462D01*
Y199925D02*
Y200379D01*
Y201521D02*
Y201930D01*
X305000Y176021D02*
Y176478D01*
Y179343D02*
Y179796D01*
Y186600D02*
Y186997D01*
Y188424D02*
Y188804D01*
Y190093D02*
Y190549D01*
Y198001D02*
Y198445D01*
Y199900D02*
Y200329D01*
Y201521D02*
Y201943D01*
X305100Y176007D02*
Y176461D01*
Y179371D02*
Y179821D01*
Y186590D02*
Y186983D01*
Y188424D02*
Y188804D01*
Y190100D02*
Y190557D01*
Y198001D02*
Y198429D01*
Y199875D02*
Y200295D01*
Y201521D02*
Y201955D01*
X305200Y175993D02*
Y176445D01*
Y179400D02*
Y179846D01*
Y186589D02*
Y186968D01*
Y188424D02*
Y188804D01*
Y190084D02*
Y190535D01*
Y198001D02*
Y198412D01*
Y199850D02*
Y200279D01*
Y201521D02*
Y201968D01*
X305300Y175979D02*
Y176428D01*
Y179429D02*
Y179868D01*
Y186598D02*
Y186972D01*
Y188424D02*
Y188804D01*
Y190067D02*
Y190513D01*
Y198001D02*
Y198395D01*
Y199823D02*
Y200262D01*
Y201521D02*
Y201980D01*
X305400Y175964D02*
Y176416D01*
Y179457D02*
Y179888D01*
Y186607D02*
Y186985D01*
Y188424D02*
Y188804D01*
Y190050D02*
Y190490D01*
Y198003D02*
Y198383D01*
Y199794D02*
Y200245D01*
Y201511D02*
Y201964D01*
X305500Y175959D02*
Y176432D01*
Y179466D02*
Y179908D01*
Y186616D02*
Y186997D01*
Y188424D02*
Y188804D01*
Y190034D02*
Y190468D01*
Y198014D02*
Y198400D01*
Y199766D02*
Y200229D01*
Y201500D02*
Y201946D01*
X305600Y175971D02*
Y176449D01*
Y179433D02*
Y179928D01*
Y186625D02*
Y187010D01*
Y188424D02*
Y188804D01*
Y190002D02*
Y190446D01*
Y198025D02*
Y198416D01*
Y199737D02*
Y200201D01*
Y201489D02*
Y201927D01*
X305700Y175984D02*
Y176466D01*
Y179399D02*
Y179917D01*
Y186634D02*
Y187022D01*
Y188424D02*
Y188804D01*
Y189927D02*
Y190424D01*
Y198037D02*
Y198433D01*
Y199708D02*
Y200168D01*
Y201478D02*
Y201909D01*
X305800Y175996D02*
Y176482D01*
Y179366D02*
Y179895D01*
Y186643D02*
Y187035D01*
Y188424D02*
Y188804D01*
Y189852D02*
Y190388D01*
Y198048D02*
Y198450D01*
Y199680D02*
Y200134D01*
Y201467D02*
Y201891D01*
X305900Y176009D02*
Y176507D01*
Y179333D02*
Y179872D01*
Y186652D02*
Y187052D01*
Y188424D02*
Y188804D01*
Y189777D02*
Y190317D01*
Y198059D02*
Y198468D01*
Y199640D02*
Y200101D01*
Y201456D02*
Y201873D01*
X306000Y176021D02*
Y176606D01*
Y179287D02*
Y179850D01*
Y186661D02*
Y187109D01*
Y188424D02*
Y188804D01*
Y189620D02*
Y190245D01*
Y198070D02*
Y198493D01*
Y199600D02*
Y200068D01*
Y201445D02*
Y201855D01*
X306100Y176044D02*
Y176706D01*
Y179212D02*
Y179828D01*
Y186703D02*
Y187166D01*
Y188424D02*
Y188804D01*
Y189454D02*
Y190174D01*
Y198083D02*
Y198518D01*
Y199560D02*
Y200034D01*
Y201407D02*
Y201837D01*
X306200Y176130D02*
Y176806D01*
Y179137D02*
Y179806D01*
Y186753D02*
Y187223D01*
Y188424D02*
Y188805D01*
Y189119D02*
Y190102D01*
Y198126D02*
Y198543D01*
Y199520D02*
Y200001D01*
Y201350D02*
Y201811D01*
X306300Y176215D02*
Y176978D01*
Y179062D02*
Y179783D01*
Y186803D02*
Y187280D01*
Y188424D02*
Y190031D01*
Y198169D02*
Y198671D01*
Y199392D02*
Y199959D01*
Y201293D02*
Y201767D01*
X306400Y176301D02*
Y177178D01*
Y178870D02*
Y179715D01*
Y186853D02*
Y187338D01*
Y188424D02*
Y189872D01*
Y198211D02*
Y198832D01*
Y199237D02*
Y199909D01*
Y201236D02*
Y201722D01*
X306500Y176387D02*
Y177430D01*
Y178670D02*
Y179632D01*
Y186903D02*
Y187169D01*
Y188424D02*
Y189697D01*
Y198254D02*
Y199859D01*
Y201179D02*
Y201678D01*
X306600Y176473D02*
Y177830D01*
Y178247D02*
Y179548D01*
Y186953D02*
Y186969D01*
Y188424D02*
Y189522D01*
Y198297D02*
Y199809D01*
Y201181D02*
Y201633D01*
X306700Y176611D02*
Y179465D01*
Y188424D02*
Y189144D01*
Y198393D02*
Y199759D01*
Y201331D02*
Y201589D01*
X306800Y176771D02*
Y179367D01*
Y198518D02*
Y199638D01*
Y201481D02*
Y201544D01*
X306900Y176931D02*
Y179167D01*
Y198643D02*
Y199504D01*
X307000Y177091D02*
Y178967D01*
Y198838D02*
Y199305D01*
X307100Y177321D02*
Y178753D01*
X308100Y187976D02*
Y189092D01*
X308200Y187622D02*
Y189446D01*
X308300Y187489D02*
Y189580D01*
X308400Y181154D02*
Y181614D01*
Y187355D02*
Y189713D01*
Y199274D02*
Y200629D01*
X308500Y181154D02*
Y181614D01*
Y187222D02*
Y189846D01*
Y199058D02*
Y200845D01*
X308600Y181154D02*
Y181614D01*
Y187089D02*
Y189980D01*
Y198924D02*
Y200979D01*
X308700Y181154D02*
Y181614D01*
Y187006D02*
Y187994D01*
Y189150D02*
Y190056D01*
Y198791D02*
Y201112D01*
X308800Y181154D02*
Y181614D01*
Y186944D02*
Y187814D01*
Y189334D02*
Y190112D01*
Y198658D02*
Y201245D01*
X308900Y181154D02*
Y181614D01*
Y186881D02*
Y187664D01*
Y189484D02*
Y190167D01*
Y198524D02*
Y199634D01*
Y199841D02*
Y200222D01*
Y200408D02*
Y201379D01*
X309000Y181154D02*
Y181614D01*
Y186819D02*
Y187514D01*
Y189634D02*
Y190223D01*
Y198432D02*
Y199284D01*
Y199841D02*
Y200221D01*
Y200708D02*
Y201476D01*
X309100Y181154D02*
Y181614D01*
Y186757D02*
Y187416D01*
Y189732D02*
Y190278D01*
Y198370D02*
Y199110D01*
Y199841D02*
Y200221D01*
Y200873D02*
Y201548D01*
X309200Y181154D02*
Y181614D01*
Y186694D02*
Y187350D01*
Y189799D02*
Y190334D01*
Y198307D02*
Y198985D01*
Y199841D02*
Y200221D01*
Y200998D02*
Y201619D01*
X309300Y181154D02*
Y181614D01*
Y186658D02*
Y187283D01*
Y189865D02*
Y190390D01*
Y198245D02*
Y198860D01*
Y199841D02*
Y200221D01*
Y201123D02*
Y201691D01*
X309400Y181154D02*
Y181614D01*
Y186649D02*
Y187216D01*
Y189932D02*
Y190421D01*
Y198182D02*
Y198763D01*
Y199841D02*
Y200221D01*
Y201218D02*
Y201762D01*
X309500Y181154D02*
Y181614D01*
Y186640D02*
Y187150D01*
Y189999D02*
Y190441D01*
Y198120D02*
Y198696D01*
Y199841D02*
Y200221D01*
Y201278D02*
Y201827D01*
X309600Y181154D02*
Y181614D01*
Y186631D02*
Y187117D01*
Y190031D02*
Y190461D01*
Y198076D02*
Y198629D01*
Y199841D02*
Y200221D01*
Y201338D02*
Y201847D01*
X309700Y181154D02*
Y181614D01*
Y186622D02*
Y187103D01*
Y190046D02*
Y190481D01*
Y198066D02*
Y198563D01*
Y199841D02*
Y200221D01*
Y201398D02*
Y201867D01*
X309800Y176967D02*
Y181614D01*
Y186613D02*
Y187088D01*
Y190060D02*
Y190501D01*
Y198056D02*
Y198496D01*
Y199841D02*
Y200221D01*
Y201444D02*
Y201887D01*
X309900Y176590D02*
Y181614D01*
Y186604D02*
Y187074D01*
Y190074D02*
Y190521D01*
Y198046D02*
Y198456D01*
Y199841D02*
Y200221D01*
Y201461D02*
Y201907D01*
X310000Y176390D02*
Y181614D01*
Y186595D02*
Y187060D01*
Y190088D02*
Y190541D01*
Y198036D02*
Y198442D01*
Y199841D02*
Y200221D01*
Y201478D02*
Y201927D01*
X310100Y176239D02*
Y181614D01*
Y186586D02*
Y187046D01*
Y190103D02*
Y190561D01*
Y198026D02*
Y198428D01*
Y199841D02*
Y200221D01*
Y201494D02*
Y201947D01*
X310200Y176179D02*
Y181614D01*
Y186584D02*
Y187055D01*
Y190081D02*
Y190549D01*
Y198016D02*
Y198413D01*
Y199841D02*
Y200221D01*
Y201511D02*
Y201967D01*
X310300Y176119D02*
Y177245D01*
Y186584D02*
Y187067D01*
Y190053D02*
Y190532D01*
Y198006D02*
Y198399D01*
Y199841D02*
Y200221D01*
Y201517D02*
Y201973D01*
X310400Y176059D02*
Y176787D01*
Y186584D02*
Y187080D01*
Y190024D02*
Y190516D01*
Y198007D02*
Y198385D01*
Y199841D02*
Y200221D01*
Y201500D02*
Y201951D01*
X310500Y176024D02*
Y176572D01*
Y186584D02*
Y187092D01*
Y189996D02*
Y190499D01*
Y198016D02*
Y198390D01*
Y199841D02*
Y200221D01*
Y201483D02*
Y201929D01*
X310600Y176010D02*
Y176522D01*
Y186623D02*
Y187105D01*
Y189967D02*
Y190481D01*
Y198025D02*
Y198403D01*
Y199841D02*
Y200221D01*
Y201467D02*
Y201906D01*
X310700Y175996D02*
Y176472D01*
Y186663D02*
Y187117D01*
Y189937D02*
Y190456D01*
Y198034D02*
Y198415D01*
Y199841D02*
Y200221D01*
Y201450D02*
Y201884D01*
X310800Y175981D02*
Y176422D01*
Y186703D02*
Y187146D01*
Y189879D02*
Y190431D01*
Y198043D02*
Y198428D01*
Y199841D02*
Y200221D01*
Y201414D02*
Y201862D01*
X310900Y175967D02*
Y176414D01*
Y186744D02*
Y187217D01*
Y189822D02*
Y190404D01*
Y198052D02*
Y198440D01*
Y199841D02*
Y200221D01*
Y201339D02*
Y201840D01*
X311000Y175957D02*
Y176414D01*
Y186799D02*
Y187289D01*
Y189765D02*
Y190341D01*
Y198061D02*
Y198453D01*
Y199841D02*
Y200221D01*
Y201264D02*
Y201801D01*
X311100Y175971D02*
Y176414D01*
Y186855D02*
Y187360D01*
Y189708D02*
Y190279D01*
Y198070D02*
Y198473D01*
Y199841D02*
Y200221D01*
Y201189D02*
Y201729D01*
X311200Y175985D02*
Y176414D01*
Y186911D02*
Y187432D01*
Y189651D02*
Y190216D01*
Y198079D02*
Y198530D01*
Y199841D02*
Y200221D01*
Y201027D02*
Y201658D01*
X311300Y175999D02*
Y176414D01*
Y186966D02*
Y187503D01*
Y189764D02*
Y190154D01*
Y198124D02*
Y198587D01*
Y199841D02*
Y200221D01*
Y200860D02*
Y201587D01*
X311400Y176014D02*
Y176414D01*
Y187022D02*
Y187354D01*
Y189914D02*
Y190091D01*
Y198174D02*
Y198644D01*
Y199841D02*
Y200223D01*
Y200498D02*
Y201515D01*
X311500Y176028D02*
Y176424D01*
Y187077D02*
Y187204D01*
Y198224D02*
Y198701D01*
Y199841D02*
Y201444D01*
X311600Y176055D02*
Y176464D01*
Y198274D02*
Y198758D01*
Y199841D02*
Y201278D01*
X311700Y176088D02*
Y176504D01*
Y198324D02*
Y198574D01*
Y199841D02*
Y201103D01*
X311800Y176121D02*
Y176544D01*
Y198374D02*
X311800D01*
Y199841D02*
Y200928D01*
X311900Y176155D02*
Y176367D01*
Y199841D02*
Y200533D01*
X313100Y177531D02*
Y178278D01*
Y186664D02*
Y192244D01*
Y198081D02*
Y201901D01*
X313200Y177034D02*
Y178775D01*
Y186664D02*
Y192244D01*
Y198081D02*
Y201901D01*
X313300Y176874D02*
Y178935D01*
Y186664D02*
Y192244D01*
Y198081D02*
Y201901D01*
X313400Y176714D02*
Y179095D01*
Y186664D02*
Y192244D01*
Y198081D02*
Y201901D01*
X313500Y176554D02*
Y179255D01*
Y186664D02*
Y192244D01*
Y198081D02*
Y201375D01*
X313600Y176410D02*
Y179398D01*
Y187691D02*
Y188417D01*
Y200881D02*
Y201377D01*
X313700Y176348D02*
Y177600D01*
Y178251D02*
Y179461D01*
Y187791D02*
Y188450D01*
Y201031D02*
Y201497D01*
X313800Y176285D02*
Y177207D01*
Y178682D02*
Y179523D01*
Y187891D02*
Y188550D01*
Y201181D02*
Y201617D01*
X313900Y176223D02*
Y177007D01*
Y178882D02*
Y179586D01*
Y187991D02*
Y188650D01*
Y201331D02*
Y201737D01*
X314000Y176160D02*
Y176822D01*
Y179067D02*
Y179648D01*
Y188091D02*
Y188750D01*
Y201394D02*
Y201836D01*
X314100Y176098D02*
Y176742D01*
Y179147D02*
Y179711D01*
Y188191D02*
Y188850D01*
Y201444D02*
Y201870D01*
X314200Y176035D02*
Y176662D01*
Y179227D02*
Y179773D01*
Y188291D02*
Y188950D01*
Y201494D02*
Y201903D01*
X314300Y176022D02*
Y176582D01*
Y179307D02*
Y179798D01*
Y188391D02*
Y189050D01*
Y201511D02*
Y201936D01*
X314400Y176011D02*
Y176502D01*
Y179386D02*
Y179820D01*
Y188491D02*
Y189150D01*
Y201461D02*
Y201970D01*
X314500Y176000D02*
Y176481D01*
Y179407D02*
Y179843D01*
Y188582D02*
Y189250D01*
Y201389D02*
Y201962D01*
X314600Y175989D02*
Y176465D01*
Y179424D02*
Y179865D01*
Y188502D02*
Y189350D01*
Y201289D02*
Y201937D01*
X314700Y175978D02*
Y176448D01*
Y179440D02*
Y179887D01*
Y188369D02*
Y189450D01*
Y201117D02*
Y201912D01*
X314800Y175966D02*
Y176431D01*
Y179457D02*
Y179909D01*
Y188235D02*
Y189550D01*
Y198081D02*
Y201869D01*
X314900Y175955D02*
Y176415D01*
Y179474D02*
Y179931D01*
Y188102D02*
Y188869D01*
Y188991D02*
Y189650D01*
Y198081D02*
Y201792D01*
X315000Y175965D02*
Y176429D01*
Y179459D02*
Y179912D01*
Y187969D02*
Y188737D01*
Y189091D02*
Y189750D01*
Y198081D02*
Y201642D01*
X315100Y175976D02*
Y176446D01*
Y179443D02*
Y179890D01*
Y187835D02*
Y188605D01*
Y189191D02*
Y189850D01*
Y198081D02*
Y201454D01*
X315200Y175987D02*
Y176462D01*
Y179426D02*
Y179868D01*
Y187702D02*
Y188474D01*
Y189291D02*
Y189950D01*
Y200881D02*
Y201269D01*
X315300Y175998D02*
Y176479D01*
Y179409D02*
Y179846D01*
Y187569D02*
Y188342D01*
Y189391D02*
Y190050D01*
Y201031D02*
Y201331D01*
X315400Y176009D02*
Y176496D01*
Y179393D02*
Y179823D01*
Y187435D02*
Y188210D01*
Y189491D02*
Y190150D01*
Y201181D02*
Y201481D01*
X315500Y176020D02*
Y176571D01*
Y179318D02*
Y179801D01*
Y187302D02*
Y188078D01*
Y189591D02*
Y190250D01*
Y201331D02*
Y201631D01*
X315600Y176032D02*
Y176651D01*
Y179238D02*
Y179779D01*
Y187169D02*
Y187946D01*
Y189691D02*
Y190350D01*
Y201394D02*
Y201767D01*
X315700Y176089D02*
Y176731D01*
Y179158D02*
Y179720D01*
Y187035D02*
Y187815D01*
Y189791D02*
Y190450D01*
Y201444D02*
Y201833D01*
X315800Y176151D02*
Y176811D01*
Y179078D02*
Y179657D01*
Y186902D02*
Y187683D01*
Y189891D02*
Y190484D01*
Y201494D02*
Y201900D01*
X315900Y176214D02*
Y176978D01*
Y178910D02*
Y179595D01*
Y186769D02*
Y187551D01*
Y189991D02*
Y190484D01*
Y201513D02*
Y201928D01*
X316000Y176276D02*
Y177178D01*
Y178710D02*
Y179532D01*
Y186664D02*
Y187419D01*
Y190091D02*
Y190484D01*
Y201480D02*
Y201953D01*
X316100Y176339D02*
Y177417D01*
Y178459D02*
Y179470D01*
Y186664D02*
Y187287D01*
Y190191D02*
Y190484D01*
Y201447D02*
Y201978D01*
X316200Y176401D02*
Y177767D01*
Y178059D02*
Y179407D01*
Y186664D02*
Y187155D01*
Y190291D02*
Y190484D01*
Y201317D02*
Y201962D01*
X316300Y176531D02*
Y179277D01*
Y186664D02*
Y187024D01*
Y190391D02*
Y190484D01*
Y201117D02*
Y201942D01*
X316400Y176691D02*
Y179117D01*
Y186664D02*
Y186892D01*
Y198081D02*
Y201922D01*
X316500Y176851D02*
Y178957D01*
Y186664D02*
Y186760D01*
Y198081D02*
Y201888D01*
X316600Y177011D02*
Y178797D01*
Y198081D02*
Y201788D01*
X316700Y177241D02*
Y178567D01*
Y198081D02*
Y201688D01*
X316800Y198081D02*
Y201445D01*
X316900Y198081D02*
Y201050D01*
X317600Y187872D02*
Y189196D01*
X317700Y187649D02*
Y189420D01*
X317800Y179824D02*
Y179854D01*
Y187515D02*
Y189553D01*
X317900Y179611D02*
Y179854D01*
Y187382D02*
Y189686D01*
X318000Y174413D02*
Y174874D01*
Y179398D02*
Y179854D01*
Y187249D02*
Y189820D01*
X318100Y174396D02*
Y174841D01*
Y179185D02*
Y179854D01*
Y187115D02*
Y188239D01*
Y188422D02*
Y188806D01*
Y188972D02*
Y189953D01*
Y198081D02*
Y203661D01*
X318200Y174379D02*
Y174814D01*
Y178972D02*
Y179854D01*
Y187019D02*
Y187889D01*
Y188424D02*
Y188804D01*
Y189272D02*
Y190055D01*
Y198081D02*
Y203661D01*
X318300Y174363D02*
Y174814D01*
Y178759D02*
Y179854D01*
Y186956D02*
Y187701D01*
Y188424D02*
Y188804D01*
Y189447D02*
Y190126D01*
Y198081D02*
Y203661D01*
X318400Y174362D02*
Y174826D01*
Y178546D02*
Y179662D01*
Y186894D02*
Y187576D01*
Y188424D02*
Y188804D01*
Y189572D02*
Y190197D01*
Y198081D02*
Y203661D01*
X318500Y174377D02*
Y174851D01*
Y178333D02*
Y179437D01*
Y186831D02*
Y187451D01*
Y188424D02*
Y188804D01*
Y189697D02*
Y190269D01*
Y198081D02*
Y203661D01*
X318600Y174391D02*
Y174876D01*
Y178120D02*
Y179212D01*
Y186769D02*
Y187350D01*
Y188424D02*
Y188804D01*
Y189796D02*
Y190340D01*
Y198351D02*
Y203661D01*
X318700Y174405D02*
Y174905D01*
Y177907D02*
Y178987D01*
Y186706D02*
Y187283D01*
Y188424D02*
Y188804D01*
Y189856D02*
Y190409D01*
Y198469D02*
Y198895D01*
Y200928D02*
Y201354D01*
X318800Y174419D02*
Y174955D01*
Y177694D02*
Y178762D01*
Y186660D02*
Y187216D01*
Y188424D02*
Y188804D01*
Y189916D02*
Y190429D01*
Y198398D02*
Y198816D01*
Y201035D02*
Y201429D01*
X318900Y174440D02*
Y175005D01*
Y177481D02*
Y178537D01*
Y186650D02*
Y187150D01*
Y188424D02*
Y188804D01*
Y189976D02*
Y190449D01*
Y198327D02*
Y198749D01*
Y201135D02*
Y201504D01*
X319000Y174506D02*
Y175055D01*
Y177267D02*
Y178312D01*
Y186640D02*
Y187083D01*
Y188424D02*
Y188804D01*
Y190026D02*
Y190469D01*
Y198255D02*
Y198689D01*
Y201214D02*
Y201579D01*
X319100Y174573D02*
Y175176D01*
Y177054D02*
Y178087D01*
Y186630D02*
Y187040D01*
Y188424D02*
Y188804D01*
Y190043D02*
Y190489D01*
Y198184D02*
Y198639D01*
Y201264D02*
Y201654D01*
X319200Y174640D02*
Y175316D01*
Y176841D02*
Y177862D01*
Y186620D02*
Y187026D01*
Y188424D02*
Y188804D01*
Y190059D02*
Y190509D01*
Y198112D02*
Y198589D01*
Y201314D02*
Y201729D01*
X319300Y174706D02*
Y175456D01*
Y176628D02*
Y177634D01*
Y186610D02*
Y187011D01*
Y188424D02*
Y188804D01*
Y190076D02*
Y190529D01*
Y198073D02*
Y198542D01*
Y201361D02*
Y201804D01*
X319400Y174788D02*
Y175596D01*
Y176415D02*
Y177401D01*
Y186600D02*
Y186997D01*
Y188424D02*
Y188804D01*
Y190093D02*
Y190549D01*
Y198060D02*
Y198525D01*
Y201390D02*
Y201841D01*
X319500Y174888D02*
Y175778D01*
Y176202D02*
Y177167D01*
Y186590D02*
Y186983D01*
Y188424D02*
Y188804D01*
Y190100D02*
Y190557D01*
Y198048D02*
Y198509D01*
Y201419D02*
Y201863D01*
X319600Y174988D02*
Y176934D01*
Y186589D02*
Y186968D01*
Y188424D02*
Y188804D01*
Y190084D02*
Y190535D01*
Y198035D02*
Y198492D01*
Y201447D02*
Y201885D01*
X319700Y175088D02*
Y176701D01*
Y186598D02*
Y186972D01*
Y188424D02*
Y188804D01*
Y190067D02*
Y190513D01*
Y198023D02*
Y198475D01*
Y201476D02*
Y201908D01*
X319800Y175261D02*
Y176574D01*
Y186607D02*
Y186985D01*
Y188424D02*
Y188804D01*
Y190050D02*
Y190490D01*
Y198010D02*
Y198463D01*
Y201504D02*
Y201930D01*
X319900Y175495D02*
Y176587D01*
Y186616D02*
Y186997D01*
Y188424D02*
Y188804D01*
Y190034D02*
Y190468D01*
Y198006D02*
Y198480D01*
Y201513D02*
Y201952D01*
X320000Y175732D02*
Y176907D01*
Y186625D02*
Y187010D01*
Y188424D02*
Y188804D01*
Y190002D02*
Y190446D01*
Y198018D02*
Y198496D01*
Y201480D02*
Y201974D01*
X320100Y175984D02*
Y177227D01*
Y186634D02*
Y187022D01*
Y188424D02*
Y188804D01*
Y189927D02*
Y190424D01*
Y198031D02*
Y198513D01*
Y201447D02*
Y201964D01*
X320200Y176236D02*
Y177461D01*
Y186643D02*
Y187035D01*
Y188424D02*
Y188804D01*
Y189852D02*
Y190388D01*
Y198043D02*
Y198530D01*
Y201413D02*
Y201942D01*
X320300Y176489D02*
Y177694D01*
Y186652D02*
Y187052D01*
Y188424D02*
Y188804D01*
Y189777D02*
Y190317D01*
Y198056D02*
Y198554D01*
Y201380D02*
Y201920D01*
X320400Y176741D02*
Y177959D01*
Y186661D02*
Y187109D01*
Y188424D02*
Y188804D01*
Y189620D02*
Y190245D01*
Y198068D02*
Y198654D01*
Y201334D02*
Y201897D01*
X320500Y176994D02*
Y178229D01*
Y186703D02*
Y187166D01*
Y188424D02*
Y188804D01*
Y189454D02*
Y190174D01*
Y198091D02*
Y198754D01*
Y201259D02*
Y201875D01*
X320600Y177246D02*
Y178499D01*
Y186753D02*
Y187223D01*
Y188424D02*
Y188805D01*
Y189119D02*
Y190102D01*
Y198177D02*
Y198854D01*
Y201184D02*
Y201853D01*
X320700Y177498D02*
Y178769D01*
Y186803D02*
Y187280D01*
Y188424D02*
Y190031D01*
Y198263D02*
Y199026D01*
Y201109D02*
Y201831D01*
X320800Y177751D02*
Y179039D01*
Y186853D02*
Y187338D01*
Y188424D02*
Y189872D01*
Y198348D02*
Y199226D01*
Y200917D02*
Y201762D01*
X320900Y178003D02*
Y179309D01*
Y186903D02*
Y187169D01*
Y188424D02*
Y189697D01*
Y198434D02*
Y199477D01*
Y200717D02*
Y201679D01*
X321000Y178255D02*
Y179579D01*
Y186953D02*
Y186969D01*
Y188424D02*
Y189522D01*
Y198520D02*
Y199877D01*
Y200295D02*
Y201596D01*
X321100Y178508D02*
Y179849D01*
Y188424D02*
Y189144D01*
Y198658D02*
Y201512D01*
X321200Y178760D02*
Y179854D01*
Y198818D02*
Y201414D01*
X321300Y179013D02*
Y179854D01*
Y198978D02*
Y201214D01*
X321400Y179265D02*
Y179854D01*
Y199138D02*
Y201014D01*
X321500Y179517D02*
Y179854D01*
Y199368D02*
Y200800D01*
X321600Y179770D02*
Y179854D01*
X322300Y188227D02*
Y188841D01*
X322400Y187677D02*
Y189391D01*
X322500Y187473D02*
Y189554D01*
X322600Y187273D02*
Y189714D01*
X322700Y187073D02*
Y189874D01*
X322800Y177227D02*
Y178582D01*
Y186974D02*
Y190026D01*
Y203201D02*
Y203661D01*
X322900Y177010D02*
Y178798D01*
Y186890D02*
Y187819D01*
Y188830D02*
Y190097D01*
Y203201D02*
Y203661D01*
X323000Y176877D02*
Y178931D01*
Y186807D02*
Y187653D01*
Y189299D02*
Y190169D01*
Y203201D02*
Y203661D01*
X323100Y176744D02*
Y179065D01*
Y186724D02*
Y187486D01*
Y189499D02*
Y190240D01*
Y203201D02*
Y203661D01*
X323200Y176610D02*
Y179198D01*
Y186659D02*
Y187393D01*
Y189691D02*
Y190312D01*
Y203201D02*
Y203661D01*
X323300Y176477D02*
Y177587D01*
Y177794D02*
Y178175D01*
Y178361D02*
Y179331D01*
Y186648D02*
Y187313D01*
Y189752D02*
Y190383D01*
Y203201D02*
Y203661D01*
X323400Y176385D02*
Y177237D01*
Y177794D02*
Y178174D01*
Y178661D02*
Y179429D01*
Y186637D02*
Y187233D01*
Y189812D02*
Y190424D01*
Y203201D02*
Y203661D01*
X323500Y176323D02*
Y177063D01*
Y177794D02*
Y178174D01*
Y178825D02*
Y179501D01*
Y186626D02*
Y187153D01*
Y189872D02*
Y190449D01*
Y203201D02*
Y203661D01*
X323600Y176260D02*
Y176938D01*
Y177794D02*
Y178174D01*
Y178950D02*
Y179572D01*
Y186615D02*
Y187116D01*
Y189932D02*
Y190474D01*
Y203201D02*
Y203661D01*
X323700Y176198D02*
Y176813D01*
Y177794D02*
Y178174D01*
Y179075D02*
Y179643D01*
Y186604D02*
Y187099D01*
Y189969D02*
Y190499D01*
Y203201D02*
Y203661D01*
X323800Y176135D02*
Y176716D01*
Y177794D02*
Y178174D01*
Y179170D02*
Y179715D01*
Y186593D02*
Y187082D01*
Y190002D02*
Y190524D01*
Y203201D02*
Y203661D01*
X323900Y176073D02*
Y176649D01*
Y177794D02*
Y178174D01*
Y179230D02*
Y179780D01*
Y186584D02*
Y187066D01*
Y190036D02*
Y190549D01*
Y203201D02*
Y203661D01*
X324000Y176029D02*
Y176582D01*
Y177794D02*
Y178174D01*
Y179290D02*
Y179800D01*
Y186584D02*
Y187049D01*
Y190069D02*
Y190551D01*
Y203201D02*
Y203661D01*
X324100Y176019D02*
Y176516D01*
Y177794D02*
Y178174D01*
Y179350D02*
Y179820D01*
Y186584D02*
Y187053D01*
Y190102D02*
Y190526D01*
Y203201D02*
Y203661D01*
X324200Y176009D02*
Y176449D01*
Y177794D02*
Y178174D01*
Y179397D02*
Y179840D01*
Y186584D02*
Y187067D01*
Y190078D02*
Y190501D01*
Y199015D02*
Y203661D01*
X324300Y175999D02*
Y176409D01*
Y177794D02*
Y178174D01*
Y179414D02*
Y179860D01*
Y186603D02*
Y187082D01*
Y190045D02*
Y190476D01*
Y198637D02*
Y203661D01*
X324400Y175989D02*
Y176395D01*
Y177794D02*
Y178174D01*
Y179430D02*
Y179880D01*
Y186653D02*
Y187096D01*
Y190011D02*
Y190451D01*
Y198437D02*
Y203661D01*
X324500Y175979D02*
Y176380D01*
Y177794D02*
Y178174D01*
Y179447D02*
Y179900D01*
Y186703D02*
Y187110D01*
Y189978D02*
Y190426D01*
Y198286D02*
Y203661D01*
X324600Y175969D02*
Y176366D01*
Y177794D02*
Y178174D01*
Y179464D02*
Y179920D01*
Y186760D02*
Y187125D01*
Y189945D02*
Y190388D01*
Y198226D02*
Y203661D01*
X324700Y175959D02*
Y176352D01*
Y177794D02*
Y178174D01*
Y179469D02*
Y179926D01*
Y186832D02*
Y187200D01*
Y189891D02*
Y190317D01*
Y198166D02*
Y199292D01*
X324800Y175959D02*
Y176338D01*
Y177794D02*
Y178174D01*
Y179453D02*
Y179903D01*
Y186903D02*
Y187285D01*
Y189834D02*
Y190245D01*
Y198106D02*
Y198835D01*
X324900Y175968D02*
Y176343D01*
Y177794D02*
Y178174D01*
Y179436D02*
Y179881D01*
Y186975D02*
Y187371D01*
Y189777D02*
Y190174D01*
Y198072D02*
Y198619D01*
X325000Y175977D02*
Y176355D01*
Y177794D02*
Y178174D01*
Y179419D02*
Y179859D01*
Y187046D02*
Y187457D01*
Y189719D02*
Y190102D01*
Y198057D02*
Y198569D01*
X325100Y175987D02*
Y176368D01*
Y177794D02*
Y178174D01*
Y179403D02*
Y179837D01*
Y187117D02*
Y187543D01*
Y189662D02*
Y190031D01*
Y198043D02*
Y198519D01*
X325200Y175996D02*
Y176380D01*
Y177794D02*
Y178174D01*
Y179367D02*
Y179815D01*
Y187112D02*
Y187636D01*
Y189592D02*
Y190036D01*
Y198029D02*
Y198469D01*
X325300Y176005D02*
Y176393D01*
Y177794D02*
Y178174D01*
Y179292D02*
Y179792D01*
Y186664D02*
Y192244D01*
Y198014D02*
Y198461D01*
X325400Y176014D02*
Y176405D01*
Y177794D02*
Y178174D01*
Y179217D02*
Y179754D01*
Y186664D02*
Y192244D01*
Y198004D02*
Y198461D01*
X325500Y176023D02*
Y176425D01*
Y177794D02*
Y178174D01*
Y179142D02*
Y179682D01*
Y186664D02*
Y192244D01*
Y198018D02*
Y198461D01*
X325600Y176032D02*
Y176483D01*
Y177794D02*
Y178174D01*
Y178980D02*
Y179611D01*
Y186664D02*
Y192244D01*
Y198032D02*
Y198461D01*
X325700Y176077D02*
Y176540D01*
Y177794D02*
Y178174D01*
Y178813D02*
Y179539D01*
Y186664D02*
Y192244D01*
Y198047D02*
Y198461D01*
X325800Y176127D02*
Y176597D01*
Y177794D02*
Y178176D01*
Y178451D02*
Y179468D01*
Y198061D02*
Y198461D01*
X325900Y176177D02*
Y176654D01*
Y177794D02*
Y179396D01*
Y198075D02*
Y198471D01*
X326000Y176227D02*
Y176711D01*
Y177794D02*
Y179231D01*
Y198102D02*
Y198511D01*
X326100Y176277D02*
Y176527D01*
Y177794D02*
Y179056D01*
Y198135D02*
Y198551D01*
X326200Y176327D02*
X326200D01*
Y177794D02*
Y178881D01*
Y198169D02*
Y198591D01*
X326300Y177794D02*
Y178486D01*
Y198202D02*
Y198415D01*
X327500Y177563D02*
Y178246D01*
X327600Y177030D02*
Y178775D01*
Y199274D02*
Y200629D01*
X327700Y176830D02*
Y178935D01*
Y199058D02*
Y200845D01*
X327800Y176630D02*
Y179095D01*
Y198924D02*
Y200979D01*
X327900Y176430D02*
Y179255D01*
Y198791D02*
Y201112D01*
X328000Y176339D02*
Y179401D01*
Y198658D02*
Y201245D01*
X328100Y176255D02*
Y177179D01*
Y178251D02*
Y179472D01*
Y198524D02*
Y199634D01*
Y199841D02*
Y200222D01*
Y200408D02*
Y201379D01*
X328200Y176172D02*
Y177012D01*
Y178682D02*
Y179543D01*
Y198432D02*
Y199284D01*
Y199841D02*
Y200221D01*
Y200708D02*
Y201476D01*
X328300Y176089D02*
Y176846D01*
Y178882D02*
Y179615D01*
Y198370D02*
Y199110D01*
Y199841D02*
Y200221D01*
Y200873D02*
Y201548D01*
X328400Y176029D02*
Y176758D01*
Y179066D02*
Y179686D01*
Y186952D02*
Y187474D01*
Y189832D02*
Y190354D01*
Y198307D02*
Y198985D01*
Y199841D02*
Y200221D01*
Y200998D02*
Y201619D01*
X328500Y176018D02*
Y176678D01*
Y179126D02*
Y179758D01*
Y186710D02*
Y187638D01*
Y189590D02*
Y190518D01*
Y198245D02*
Y198860D01*
Y199841D02*
Y200221D01*
Y201123D02*
Y201691D01*
X328600Y176006D02*
Y176598D01*
Y179186D02*
Y179796D01*
Y186643D02*
Y187705D01*
Y189523D02*
Y190585D01*
Y198182D02*
Y198763D01*
Y199841D02*
Y200221D01*
Y201218D02*
Y201762D01*
X328700Y175995D02*
Y176518D01*
Y179246D02*
Y179821D01*
Y186584D02*
Y187770D01*
Y189464D02*
Y190650D01*
Y198120D02*
Y198696D01*
Y199841D02*
Y200221D01*
Y201278D02*
Y201827D01*
X328800Y175984D02*
Y176485D01*
Y179306D02*
Y179846D01*
Y186584D02*
Y187804D01*
Y189464D02*
Y190684D01*
Y198076D02*
Y198629D01*
Y199841D02*
Y200221D01*
Y201338D02*
Y201847D01*
X328900Y175973D02*
Y176468D01*
Y179341D02*
Y179871D01*
Y186584D02*
Y187837D01*
Y189464D02*
Y190717D01*
Y198066D02*
Y198563D01*
Y199841D02*
Y200221D01*
Y201398D02*
Y201867D01*
X329000Y175962D02*
Y176451D01*
Y179375D02*
Y179896D01*
Y186584D02*
Y187813D01*
Y189464D02*
Y190693D01*
Y198056D02*
Y198496D01*
Y199841D02*
Y200221D01*
Y201444D02*
Y201887D01*
X329100Y175954D02*
Y176435D01*
Y179408D02*
Y179921D01*
Y186584D02*
Y187779D01*
Y189464D02*
Y190659D01*
Y198046D02*
Y198456D01*
Y199841D02*
Y200221D01*
Y201461D02*
Y201907D01*
X329200Y175954D02*
Y176418D01*
Y179441D02*
Y179919D01*
Y186625D02*
Y187723D01*
Y189505D02*
Y190603D01*
Y198036D02*
Y198442D01*
Y199841D02*
Y200221D01*
Y201478D02*
Y201927D01*
X329300Y175954D02*
Y176424D01*
Y179474D02*
Y179894D01*
Y186692D02*
Y187656D01*
Y189572D02*
Y190536D01*
Y198026D02*
Y198428D01*
Y199841D02*
Y200221D01*
Y201494D02*
Y201947D01*
X329400Y175954D02*
Y176438D01*
Y179446D02*
Y179869D01*
Y186794D02*
Y187577D01*
Y189674D02*
Y190457D01*
Y198016D02*
Y198413D01*
Y199841D02*
Y200221D01*
Y201511D02*
Y201967D01*
X329500Y175977D02*
Y176453D01*
Y179413D02*
Y179844D01*
Y186944D02*
Y187477D01*
Y189824D02*
Y190357D01*
Y198006D02*
Y198399D01*
Y199841D02*
Y200221D01*
Y201517D02*
Y201973D01*
X329600Y176027D02*
Y176467D01*
Y179379D02*
Y179819D01*
Y198007D02*
Y198385D01*
Y199841D02*
Y200221D01*
Y201500D02*
Y201951D01*
X329700Y176077D02*
Y176481D01*
Y179346D02*
Y179794D01*
Y198016D02*
Y198390D01*
Y199841D02*
Y200221D01*
Y201483D02*
Y201929D01*
X329800Y176135D02*
Y176496D01*
Y179313D02*
Y179754D01*
Y198025D02*
Y198403D01*
Y199841D02*
Y200221D01*
Y201467D02*
Y201906D01*
X329900Y176206D02*
Y176575D01*
Y179257D02*
Y179682D01*
Y198034D02*
Y198415D01*
Y199841D02*
Y200221D01*
Y201450D02*
Y201884D01*
X330000Y176278D02*
Y176661D01*
Y179200D02*
Y179611D01*
Y198043D02*
Y198428D01*
Y199841D02*
Y200221D01*
Y201414D02*
Y201862D01*
X330100Y176349D02*
Y176747D01*
Y179143D02*
Y179539D01*
Y198052D02*
Y198440D01*
Y199841D02*
Y200221D01*
Y201339D02*
Y201840D01*
X330200Y176421D02*
Y176832D01*
Y179086D02*
Y179468D01*
Y198061D02*
Y198453D01*
Y199841D02*
Y200221D01*
Y201264D02*
Y201801D01*
X330300Y176492D02*
Y176918D01*
Y179029D02*
Y179396D01*
Y198070D02*
Y198473D01*
Y199841D02*
Y200221D01*
Y201189D02*
Y201729D01*
X330400Y176451D02*
Y181614D01*
Y198079D02*
Y198530D01*
Y199841D02*
Y200221D01*
Y201027D02*
Y201658D01*
X330500Y176034D02*
Y181614D01*
Y198124D02*
Y198587D01*
Y199841D02*
Y200221D01*
Y200860D02*
Y201587D01*
X330600Y176034D02*
Y181614D01*
Y198174D02*
Y198644D01*
Y199841D02*
Y200223D01*
Y200498D02*
Y201515D01*
X330700Y176034D02*
Y181614D01*
Y198224D02*
Y198701D01*
Y199841D02*
Y201444D01*
X330800Y176034D02*
Y181614D01*
Y198274D02*
Y198758D01*
Y199841D02*
Y201278D01*
X330900Y176034D02*
Y181614D01*
Y198324D02*
Y198574D01*
Y199841D02*
Y201103D01*
X331000Y198374D02*
X331000D01*
Y199841D02*
Y200928D01*
X331100Y199841D02*
Y200533D01*
X332300Y199610D02*
Y200293D01*
X332400Y199077D02*
Y200822D01*
X332500Y198877D02*
Y200982D01*
X332600Y198677D02*
Y201142D01*
X332700Y198477D02*
Y201302D01*
X332800Y198386D02*
Y201448D01*
X332900Y198302D02*
Y199226D01*
Y200298D02*
Y201519D01*
X333000Y198219D02*
Y199059D01*
Y200729D02*
Y201591D01*
X333100Y198136D02*
Y198893D01*
Y200929D02*
Y201662D01*
X333200Y198076D02*
Y198805D01*
Y201114D02*
Y201734D01*
X333300Y198065D02*
Y198725D01*
Y201174D02*
Y201805D01*
X333400Y198054D02*
Y198645D01*
Y201234D02*
Y201843D01*
X333500Y198043D02*
Y198565D01*
Y201294D02*
Y201868D01*
X333600Y176304D02*
Y176858D01*
Y179184D02*
Y179738D01*
Y198031D02*
Y198532D01*
Y201354D02*
Y201893D01*
X333700Y176076D02*
Y177013D01*
Y178956D02*
Y179893D01*
Y198020D02*
Y198515D01*
Y201389D02*
Y201918D01*
X333800Y176009D02*
Y177079D01*
Y178889D02*
Y179959D01*
Y198009D02*
Y198499D01*
Y201422D02*
Y201943D01*
X333900Y175954D02*
Y177143D01*
Y178834D02*
Y180023D01*
Y198001D02*
Y198482D01*
Y201455D02*
Y201968D01*
X334000Y175954D02*
Y177176D01*
Y178834D02*
Y180056D01*
Y198001D02*
Y198465D01*
Y201489D02*
Y201967D01*
X334100Y175954D02*
Y177209D01*
Y178834D02*
Y180089D01*
Y198001D02*
Y198471D01*
Y201521D02*
Y201942D01*
X334200Y175954D02*
Y177181D01*
Y178834D02*
Y180061D01*
Y198001D02*
Y198486D01*
Y201493D02*
Y201917D01*
X334300Y175954D02*
Y177147D01*
Y178834D02*
Y180027D01*
Y198024D02*
Y198500D01*
Y201460D02*
Y201892D01*
X334400Y176000D02*
Y177089D01*
Y178880D02*
Y179969D01*
Y198074D02*
Y198514D01*
Y201427D02*
Y201867D01*
X334500Y176066D02*
Y177022D01*
Y178946D02*
Y179902D01*
Y198124D02*
Y198529D01*
Y201393D02*
Y201842D01*
X334600Y176174D02*
Y176941D01*
Y179054D02*
Y179821D01*
Y198182D02*
Y198543D01*
Y201360D02*
Y201801D01*
X334700Y198254D02*
Y198622D01*
Y201305D02*
Y201729D01*
X334800Y198325D02*
Y198708D01*
Y201247D02*
Y201658D01*
X334900Y198396D02*
Y198794D01*
Y201190D02*
Y201587D01*
X335000Y198468D02*
Y198880D01*
Y201133D02*
Y201515D01*
X335100Y198539D02*
Y198965D01*
Y201076D02*
Y201444D01*
X335200Y198498D02*
Y203661D01*
X335300Y198081D02*
Y203661D01*
X335400Y198081D02*
Y203661D01*
X335500Y198081D02*
Y203661D01*
X335600Y198081D02*
Y203661D01*
X335700Y198081D02*
Y203661D01*
X338400Y198351D02*
Y198906D01*
Y201231D02*
Y201786D01*
X338500Y198123D02*
Y199060D01*
Y201003D02*
Y201940D01*
X338600Y198056D02*
Y199127D01*
Y200936D02*
Y202007D01*
X338700Y198001D02*
Y199190D01*
Y200881D02*
Y202070D01*
X338800Y198001D02*
Y199223D01*
Y200881D02*
Y202103D01*
X338900Y198001D02*
Y199256D01*
Y200881D02*
Y202136D01*
X339000Y198001D02*
Y199228D01*
Y200881D02*
Y202108D01*
X339100Y198001D02*
Y199194D01*
Y200881D02*
Y202074D01*
X339200Y198047D02*
Y199136D01*
Y200927D02*
Y202016D01*
X339300Y198114D02*
Y199069D01*
Y200994D02*
Y201949D01*
X339400Y198221D02*
Y198988D01*
Y201101D02*
Y201868D01*
X346300Y185544D02*
Y186004D01*
X346400Y185544D02*
Y186004D01*
X346500Y185544D02*
Y186004D01*
X346600Y185544D02*
Y186004D01*
X346700Y174914D02*
Y175374D01*
Y185544D02*
Y186004D01*
Y196961D02*
Y197421D01*
X346800Y174914D02*
Y175374D01*
Y185544D02*
Y186004D01*
Y196961D02*
Y197421D01*
X346900Y174914D02*
Y175374D01*
Y185544D02*
Y186004D01*
Y196961D02*
Y197421D01*
X347000Y174914D02*
Y175374D01*
Y185544D02*
Y186004D01*
Y196961D02*
Y197421D01*
X347100Y174914D02*
Y175374D01*
Y185544D02*
Y186004D01*
Y196961D02*
Y197421D01*
X347200Y174914D02*
Y175374D01*
Y185544D02*
Y186004D01*
Y196961D02*
Y197421D01*
X347300Y174914D02*
Y175374D01*
Y185544D02*
Y186004D01*
Y196961D02*
Y197421D01*
X347400Y174914D02*
Y175374D01*
Y185544D02*
Y186004D01*
Y196961D02*
Y197421D01*
X347500Y174914D02*
Y175374D01*
Y185544D02*
Y186004D01*
Y196961D02*
Y197421D01*
X347600Y174914D02*
Y175374D01*
Y185544D02*
Y186004D01*
Y196961D02*
Y197421D01*
X347700Y174914D02*
Y175374D01*
Y185544D02*
Y186004D01*
Y196961D02*
Y197421D01*
X347800Y174914D02*
Y175374D01*
Y185544D02*
Y186004D01*
Y196961D02*
Y197421D01*
X347900Y174914D02*
Y175374D01*
Y185544D02*
Y186004D01*
Y196961D02*
Y197421D01*
X348000Y174914D02*
Y175374D01*
Y185544D02*
Y186004D01*
Y196961D02*
Y197421D01*
X348100Y174914D02*
Y175374D01*
Y185544D02*
Y186004D01*
Y196961D02*
Y197421D01*
X348200Y174914D02*
Y175374D01*
Y185544D02*
Y186004D01*
Y196961D02*
Y197421D01*
X348300Y174914D02*
Y175374D01*
Y185544D02*
Y186004D01*
Y196961D02*
Y197421D01*
X348400Y174914D02*
Y175374D01*
Y185544D02*
Y186004D01*
Y196961D02*
Y197421D01*
X348500Y174914D02*
Y175374D01*
Y185544D02*
Y186004D01*
Y196961D02*
Y197421D01*
X348600Y174914D02*
Y175374D01*
Y185544D02*
Y186004D01*
Y196961D02*
Y197421D01*
X348700Y174914D02*
Y175374D01*
Y185544D02*
Y186004D01*
Y196961D02*
Y197421D01*
X348800Y174914D02*
Y175374D01*
Y185544D02*
Y186004D01*
Y196961D02*
Y197421D01*
X348900Y174914D02*
Y175374D01*
Y185544D02*
Y186004D01*
Y196961D02*
Y197421D01*
X349000Y174914D02*
Y175374D01*
Y185544D02*
Y186004D01*
Y196961D02*
Y197421D01*
X349100Y174914D02*
Y175374D01*
Y185544D02*
Y186004D01*
Y196961D02*
Y197421D01*
X349200Y174914D02*
Y175374D01*
Y185544D02*
Y186004D01*
Y196961D02*
Y197421D01*
X349300Y174914D02*
Y175374D01*
Y185544D02*
Y186004D01*
Y196961D02*
Y197421D01*
X349400Y174914D02*
Y175374D01*
Y185544D02*
Y186004D01*
Y196961D02*
Y197421D01*
X349500Y174914D02*
Y175374D01*
Y185544D02*
Y186004D01*
Y196961D02*
Y197421D01*
X349600Y174914D02*
Y175374D01*
Y185544D02*
Y186004D01*
Y196961D02*
Y197421D01*
X349700Y174914D02*
Y175374D01*
Y185544D02*
Y186004D01*
Y196961D02*
Y197421D01*
X349800Y174914D02*
Y175374D01*
Y185544D02*
Y186004D01*
Y196961D02*
Y197421D01*
X349900Y174914D02*
Y175374D01*
Y185544D02*
Y186004D01*
Y196961D02*
Y197421D01*
X350000Y174914D02*
Y175374D01*
Y196961D02*
Y197421D01*
X350100Y174914D02*
Y175374D01*
Y196961D02*
Y197421D01*
X350200Y174914D02*
Y175374D01*
Y196961D02*
Y197421D01*
X350300Y174914D02*
Y175374D01*
Y196961D02*
Y197421D01*
X351100Y185544D02*
Y186004D01*
X351200Y185544D02*
Y186004D01*
X351300Y185544D02*
Y186004D01*
X351400Y185544D02*
Y186004D01*
X351500Y174914D02*
Y175374D01*
Y185544D02*
Y186004D01*
Y196961D02*
Y197421D01*
X351600Y174914D02*
Y175374D01*
Y185544D02*
Y186004D01*
Y196961D02*
Y197421D01*
X351700Y174914D02*
Y175374D01*
Y185544D02*
Y186004D01*
Y196961D02*
Y197421D01*
X351800Y174914D02*
Y175374D01*
Y185544D02*
Y186004D01*
Y196961D02*
Y197421D01*
X351900Y174914D02*
Y175374D01*
Y185544D02*
Y186004D01*
Y196961D02*
Y197421D01*
X352000Y174914D02*
Y175374D01*
Y185544D02*
Y186004D01*
Y196961D02*
Y197421D01*
X352100Y174914D02*
Y175374D01*
Y185544D02*
Y186004D01*
Y196961D02*
Y197421D01*
X352200Y174914D02*
Y175374D01*
Y185544D02*
Y186004D01*
Y196961D02*
Y197421D01*
X352300Y174914D02*
Y175374D01*
Y185544D02*
Y186004D01*
Y196961D02*
Y197421D01*
X352400Y174914D02*
Y175374D01*
Y185544D02*
Y186004D01*
Y196961D02*
Y197421D01*
X352500Y174914D02*
Y175374D01*
Y185544D02*
Y186004D01*
Y196961D02*
Y197421D01*
X352600Y174914D02*
Y175374D01*
Y185544D02*
Y186004D01*
Y196961D02*
Y197421D01*
X352700Y174914D02*
Y175374D01*
Y185544D02*
Y186004D01*
Y196961D02*
Y197421D01*
X352800Y174914D02*
Y175374D01*
Y185544D02*
Y186004D01*
Y196961D02*
Y197421D01*
X352900Y174914D02*
Y175374D01*
Y185544D02*
Y186004D01*
Y196961D02*
Y197421D01*
X353000Y174914D02*
Y175374D01*
Y185544D02*
Y186004D01*
Y196961D02*
Y197421D01*
X353100Y174914D02*
Y175374D01*
Y185544D02*
Y186004D01*
Y196961D02*
Y197421D01*
X353200Y174914D02*
Y175374D01*
Y185544D02*
Y186004D01*
Y196961D02*
Y197421D01*
X353300Y174914D02*
Y175374D01*
Y185544D02*
Y186004D01*
Y196961D02*
Y197421D01*
X353400Y174914D02*
Y175374D01*
Y185544D02*
Y186004D01*
Y196961D02*
Y197421D01*
X353500Y174914D02*
Y175374D01*
Y185544D02*
Y186004D01*
Y196961D02*
Y197421D01*
X353600Y174914D02*
Y175374D01*
Y185544D02*
Y186004D01*
Y196961D02*
Y197421D01*
X353700Y174914D02*
Y175374D01*
Y185544D02*
Y186004D01*
Y196961D02*
Y197421D01*
X353800Y174914D02*
Y175374D01*
Y185544D02*
Y186004D01*
Y196961D02*
Y197421D01*
X353900Y174914D02*
Y175374D01*
Y185544D02*
Y186004D01*
Y196961D02*
Y197421D01*
X354000Y174914D02*
Y175374D01*
Y185544D02*
Y186004D01*
Y196961D02*
Y197421D01*
X354100Y174914D02*
Y175374D01*
Y185544D02*
Y186004D01*
Y196961D02*
Y197421D01*
X354200Y174914D02*
Y175374D01*
Y185544D02*
Y186004D01*
Y196961D02*
Y197421D01*
X354300Y174914D02*
Y175374D01*
Y185544D02*
Y186004D01*
Y196961D02*
Y197421D01*
X354400Y174914D02*
Y175374D01*
Y185544D02*
Y186004D01*
Y196961D02*
Y197421D01*
X354500Y174914D02*
Y175374D01*
Y185544D02*
Y186004D01*
Y196961D02*
Y197421D01*
X354600Y174914D02*
Y175374D01*
Y185544D02*
Y186004D01*
Y196961D02*
Y197421D01*
X354700Y174914D02*
Y175374D01*
Y185544D02*
Y186004D01*
Y196961D02*
Y197421D01*
X354800Y174914D02*
Y175374D01*
Y196961D02*
Y197421D01*
X354900Y174914D02*
Y175374D01*
Y196961D02*
Y197421D01*
X355000Y174914D02*
Y175374D01*
Y196961D02*
Y197421D01*
X355100Y174914D02*
Y175374D01*
Y196961D02*
Y197421D01*
X355900Y185544D02*
Y186004D01*
X356000Y185544D02*
Y186004D01*
X356100Y185544D02*
Y186004D01*
X356200Y185544D02*
Y186004D01*
X356300Y174914D02*
Y175374D01*
Y185544D02*
Y186004D01*
Y196961D02*
Y197421D01*
X356400Y174914D02*
Y175374D01*
Y185544D02*
Y186004D01*
Y196961D02*
Y197421D01*
X356500Y174914D02*
Y175374D01*
Y185544D02*
Y186004D01*
Y196961D02*
Y197421D01*
X356600Y174914D02*
Y175374D01*
Y185544D02*
Y186004D01*
Y196961D02*
Y197421D01*
X356700Y174914D02*
Y175374D01*
Y185544D02*
Y186004D01*
Y196961D02*
Y197421D01*
X356800Y174914D02*
Y175374D01*
Y185544D02*
Y186004D01*
Y196961D02*
Y197421D01*
X356900Y174914D02*
Y175374D01*
Y185544D02*
Y186004D01*
Y196961D02*
Y197421D01*
X357000Y174914D02*
Y175374D01*
Y185544D02*
Y186004D01*
Y196961D02*
Y197421D01*
X357100Y174914D02*
Y175374D01*
Y185544D02*
Y186004D01*
Y196961D02*
Y197421D01*
X357200Y174914D02*
Y175374D01*
Y185544D02*
Y186004D01*
Y196961D02*
Y197421D01*
X357300Y174914D02*
Y175374D01*
Y185544D02*
Y186004D01*
Y196961D02*
Y197421D01*
X357400Y174914D02*
Y175374D01*
Y185544D02*
Y186004D01*
Y196961D02*
Y197421D01*
X357500Y174914D02*
Y175374D01*
Y185544D02*
Y186004D01*
Y196961D02*
Y197421D01*
X357600Y174914D02*
Y175374D01*
Y185544D02*
Y186004D01*
Y196961D02*
Y197421D01*
X357700Y174914D02*
Y175374D01*
Y185544D02*
Y186004D01*
Y196961D02*
Y197421D01*
X357800Y174914D02*
Y175374D01*
Y185544D02*
Y186004D01*
Y196961D02*
Y197421D01*
X357900Y174914D02*
Y175374D01*
Y185544D02*
Y186004D01*
Y196961D02*
Y197421D01*
X358000Y174914D02*
Y175374D01*
Y185544D02*
Y186004D01*
Y196961D02*
Y197421D01*
X358100Y174914D02*
Y175374D01*
Y185544D02*
Y186004D01*
Y196961D02*
Y197421D01*
X358200Y174914D02*
Y175374D01*
Y185544D02*
Y186004D01*
Y196961D02*
Y197421D01*
X358300Y174914D02*
Y175374D01*
Y185544D02*
Y186004D01*
Y196961D02*
Y197421D01*
X358400Y174914D02*
Y175374D01*
Y185544D02*
Y186004D01*
Y196961D02*
Y197421D01*
X358500Y174914D02*
Y175374D01*
Y185544D02*
Y186004D01*
Y196961D02*
Y197421D01*
X358600Y174914D02*
Y175374D01*
Y185544D02*
Y186004D01*
Y196961D02*
Y197421D01*
X358700Y174914D02*
Y175374D01*
Y185544D02*
Y186004D01*
Y196961D02*
Y197421D01*
X358800Y174914D02*
Y175374D01*
Y185544D02*
Y186004D01*
Y196961D02*
Y197421D01*
X358900Y174914D02*
Y175374D01*
Y185544D02*
Y186004D01*
Y196961D02*
Y197421D01*
X359000Y174914D02*
Y175374D01*
Y185544D02*
Y186004D01*
Y196961D02*
Y197421D01*
X359100Y174914D02*
Y175374D01*
Y185544D02*
Y186004D01*
Y196961D02*
Y197421D01*
X359200Y174914D02*
Y175374D01*
Y185544D02*
Y186004D01*
Y196961D02*
Y197421D01*
X359300Y174914D02*
Y175374D01*
Y185544D02*
Y186004D01*
Y196961D02*
Y197421D01*
X359400Y174914D02*
Y175374D01*
Y185544D02*
Y186004D01*
Y196961D02*
Y197421D01*
X359500Y174914D02*
Y175374D01*
Y185544D02*
Y186004D01*
Y196961D02*
Y197421D01*
X359600Y174914D02*
Y175374D01*
Y196961D02*
Y197421D01*
X359700Y174914D02*
Y175374D01*
Y196961D02*
Y197421D01*
X359800Y174914D02*
Y175374D01*
Y196961D02*
Y197421D01*
X359900Y174914D02*
Y175374D01*
Y196961D02*
Y197421D01*
X360700Y185544D02*
Y186004D01*
X360800Y185544D02*
Y186004D01*
X360900Y185544D02*
Y186004D01*
X361000Y185544D02*
Y186004D01*
X361100Y174914D02*
Y175374D01*
Y185544D02*
Y186004D01*
Y196961D02*
Y197421D01*
X361200Y174914D02*
Y175374D01*
Y185544D02*
Y186004D01*
Y196961D02*
Y197421D01*
X361300Y174914D02*
Y175374D01*
Y185544D02*
Y186004D01*
Y196961D02*
Y197421D01*
X361400Y174914D02*
Y175374D01*
Y185544D02*
Y186004D01*
Y196961D02*
Y197421D01*
X361500Y174914D02*
Y175374D01*
Y185544D02*
Y186004D01*
Y196961D02*
Y197421D01*
X361600Y174914D02*
Y175374D01*
Y185544D02*
Y186004D01*
Y196961D02*
Y197421D01*
X361700Y174914D02*
Y175374D01*
Y185544D02*
Y186004D01*
Y196961D02*
Y197421D01*
X361800Y174914D02*
Y175374D01*
Y185544D02*
Y186004D01*
Y196961D02*
Y197421D01*
X361900Y174914D02*
Y175374D01*
Y185544D02*
Y186004D01*
Y196961D02*
Y197421D01*
X362000Y174914D02*
Y175374D01*
Y185544D02*
Y186004D01*
Y196961D02*
Y197421D01*
X362100Y174914D02*
Y175374D01*
Y185544D02*
Y186004D01*
Y196961D02*
Y197421D01*
X362200Y174914D02*
Y175374D01*
Y185544D02*
Y186004D01*
Y196961D02*
Y197421D01*
X362300Y174914D02*
Y175374D01*
Y185544D02*
Y186004D01*
Y196961D02*
Y197421D01*
X362400Y174914D02*
Y175374D01*
Y185544D02*
Y186004D01*
Y196961D02*
Y197421D01*
X362500Y174914D02*
Y175374D01*
Y185544D02*
Y186004D01*
Y196961D02*
Y197421D01*
X362600Y174914D02*
Y175374D01*
Y185544D02*
Y186004D01*
Y196961D02*
Y197421D01*
X362700Y174914D02*
Y175374D01*
Y185544D02*
Y186004D01*
Y196961D02*
Y197421D01*
X362800Y174914D02*
Y175374D01*
Y185544D02*
Y186004D01*
Y196961D02*
Y197421D01*
X362900Y174914D02*
Y175374D01*
Y185544D02*
Y186004D01*
Y196961D02*
Y197421D01*
X363000Y174914D02*
Y175374D01*
Y185544D02*
Y186004D01*
Y196961D02*
Y197421D01*
X363100Y174914D02*
Y175374D01*
Y185544D02*
Y186004D01*
Y196961D02*
Y197421D01*
X363200Y174914D02*
Y175374D01*
Y185544D02*
Y186004D01*
Y196961D02*
Y197421D01*
X363300Y174914D02*
Y175374D01*
Y185544D02*
Y186004D01*
Y196961D02*
Y197421D01*
X363400Y174914D02*
Y175374D01*
Y185544D02*
Y186004D01*
Y196961D02*
Y197421D01*
X363500Y174914D02*
Y175374D01*
Y185544D02*
Y186004D01*
Y196961D02*
Y197421D01*
X363600Y174914D02*
Y175374D01*
Y185544D02*
Y186004D01*
Y196961D02*
Y197421D01*
X363700Y174914D02*
Y175374D01*
Y185544D02*
Y186004D01*
Y196961D02*
Y197421D01*
X363800Y174914D02*
Y175374D01*
Y185544D02*
Y186004D01*
Y196961D02*
Y197421D01*
X363900Y174914D02*
Y175374D01*
Y185544D02*
Y186004D01*
Y196961D02*
Y197421D01*
X364000Y174914D02*
Y175374D01*
Y185544D02*
Y186004D01*
Y196961D02*
Y197421D01*
X364100Y174914D02*
Y175374D01*
Y185544D02*
Y186004D01*
Y196961D02*
Y197421D01*
X364200Y174914D02*
Y175374D01*
Y185544D02*
Y186004D01*
Y196961D02*
Y197421D01*
X364300Y174914D02*
Y175374D01*
Y185544D02*
Y186004D01*
Y196961D02*
Y197421D01*
X364400Y174914D02*
Y175374D01*
Y196961D02*
Y197421D01*
X364500Y174914D02*
Y175374D01*
Y196961D02*
Y197421D01*
X364600Y174914D02*
Y175374D01*
Y196961D02*
Y197421D01*
X364700Y174914D02*
Y175374D01*
Y196961D02*
Y197421D01*
X365500Y185544D02*
Y186004D01*
X365600Y185544D02*
Y186004D01*
X365700Y185544D02*
Y186004D01*
X365800Y185544D02*
Y186004D01*
X365900Y174914D02*
Y175374D01*
Y185544D02*
Y186004D01*
Y196961D02*
Y197421D01*
X366000Y174914D02*
Y175374D01*
Y185544D02*
Y186004D01*
Y196961D02*
Y197421D01*
X366100Y174914D02*
Y175374D01*
Y185544D02*
Y186004D01*
Y196961D02*
Y197421D01*
X366200Y174914D02*
Y175374D01*
Y185544D02*
Y186004D01*
Y196961D02*
Y197421D01*
X366300Y174914D02*
Y175374D01*
Y185544D02*
Y186004D01*
Y196961D02*
Y197421D01*
X366400Y174914D02*
Y175374D01*
Y185544D02*
Y186004D01*
Y196961D02*
Y197421D01*
X366500Y174914D02*
Y175374D01*
Y185544D02*
Y186004D01*
Y196961D02*
Y197421D01*
X366600Y174914D02*
Y175374D01*
Y185544D02*
Y186004D01*
Y196961D02*
Y197421D01*
X366700Y174914D02*
Y175374D01*
Y185544D02*
Y186004D01*
Y196961D02*
Y197421D01*
X366800Y174914D02*
Y175374D01*
Y185544D02*
Y186004D01*
Y196961D02*
Y197421D01*
X366900Y174914D02*
Y175374D01*
Y185544D02*
Y186004D01*
Y196961D02*
Y197421D01*
X367000Y174914D02*
Y175374D01*
Y185544D02*
Y186004D01*
Y196961D02*
Y197421D01*
X367100Y174914D02*
Y175374D01*
Y185544D02*
Y186004D01*
Y196961D02*
Y197421D01*
X367200Y174914D02*
Y175374D01*
Y185544D02*
Y186004D01*
Y196961D02*
Y197421D01*
X367300Y174914D02*
Y175374D01*
Y185544D02*
Y186004D01*
Y196961D02*
Y197421D01*
X367400Y174914D02*
Y175374D01*
Y185544D02*
Y186004D01*
Y196961D02*
Y197421D01*
X367500Y174914D02*
Y175374D01*
Y185544D02*
Y186004D01*
Y196961D02*
Y197421D01*
X367600Y174914D02*
Y175374D01*
Y185544D02*
Y186004D01*
Y196961D02*
Y197421D01*
X367700Y174914D02*
Y175374D01*
Y185544D02*
Y186004D01*
Y196961D02*
Y197421D01*
X367800Y174914D02*
Y175374D01*
Y185544D02*
Y186004D01*
Y196961D02*
Y197421D01*
X367900Y174914D02*
Y175374D01*
Y185544D02*
Y186004D01*
Y196961D02*
Y197421D01*
X368000Y174914D02*
Y175374D01*
Y185544D02*
Y186004D01*
Y196961D02*
Y197421D01*
X368100Y174914D02*
Y175374D01*
Y185544D02*
Y186004D01*
Y196961D02*
Y197421D01*
X368200Y174914D02*
Y175374D01*
Y185544D02*
Y186004D01*
Y196961D02*
Y197421D01*
X368300Y174914D02*
Y175374D01*
Y185544D02*
Y186004D01*
Y196961D02*
Y197421D01*
X368400Y174914D02*
Y175374D01*
Y185544D02*
Y186004D01*
Y196961D02*
Y197421D01*
X368500Y174914D02*
Y175374D01*
Y185544D02*
Y186004D01*
Y196961D02*
Y197421D01*
X368600Y174914D02*
Y175374D01*
Y185544D02*
Y186004D01*
Y196961D02*
Y197421D01*
X368700Y174914D02*
Y175374D01*
Y185544D02*
Y186004D01*
Y196961D02*
Y197421D01*
X368800Y174914D02*
Y175374D01*
Y185544D02*
Y186004D01*
Y196961D02*
Y197421D01*
X368900Y174914D02*
Y175374D01*
Y185544D02*
Y186004D01*
Y196961D02*
Y197421D01*
X369000Y174914D02*
Y175374D01*
Y185544D02*
Y186004D01*
Y196961D02*
Y197421D01*
X369100Y174914D02*
Y175374D01*
Y185544D02*
Y186004D01*
Y196961D02*
Y197421D01*
X369200Y174914D02*
Y175374D01*
Y196961D02*
Y197421D01*
X369300Y174914D02*
Y175374D01*
Y196961D02*
Y197421D01*
X369400Y174914D02*
Y175374D01*
Y196961D02*
Y197421D01*
X369500Y174914D02*
Y175374D01*
Y196961D02*
Y197421D01*
X370300Y185544D02*
Y186004D01*
X370400Y185544D02*
Y186004D01*
X370500Y185544D02*
Y186004D01*
X370600Y185544D02*
Y186004D01*
X370700Y174914D02*
Y175374D01*
Y185544D02*
Y186004D01*
Y196961D02*
Y197421D01*
X370800Y174914D02*
Y175374D01*
Y185544D02*
Y186004D01*
Y196961D02*
Y197421D01*
X370900Y174914D02*
Y175374D01*
Y185544D02*
Y186004D01*
Y196961D02*
Y197421D01*
X371000Y174914D02*
Y175374D01*
Y185544D02*
Y186004D01*
Y196961D02*
Y197421D01*
X371100Y174914D02*
Y175374D01*
Y185544D02*
Y186004D01*
Y196961D02*
Y197421D01*
X371200Y174914D02*
Y175374D01*
Y185544D02*
Y186004D01*
Y196961D02*
Y197421D01*
X371300Y174914D02*
Y175374D01*
Y185544D02*
Y186004D01*
Y196961D02*
Y197421D01*
X371400Y174914D02*
Y175374D01*
Y185544D02*
Y186004D01*
Y196961D02*
Y197421D01*
X371500Y174914D02*
Y175374D01*
Y185544D02*
Y186004D01*
Y196961D02*
Y197421D01*
X371600Y174914D02*
Y175374D01*
Y185544D02*
Y186004D01*
Y196961D02*
Y197421D01*
X371700Y174914D02*
Y175374D01*
Y185544D02*
Y186004D01*
Y196961D02*
Y197421D01*
X371800Y174914D02*
Y175374D01*
Y185544D02*
Y186004D01*
Y196961D02*
Y197421D01*
X371900Y174914D02*
Y175374D01*
Y185544D02*
Y186004D01*
Y196961D02*
Y197421D01*
X372000Y174914D02*
Y175374D01*
Y185544D02*
Y186004D01*
Y196961D02*
Y197421D01*
X372100Y174914D02*
Y175374D01*
Y185544D02*
Y186004D01*
Y196961D02*
Y197421D01*
X372200Y174914D02*
Y175374D01*
Y185544D02*
Y186004D01*
Y196961D02*
Y197421D01*
X372300Y174914D02*
Y175374D01*
Y185544D02*
Y186004D01*
Y196961D02*
Y197421D01*
X372400Y174914D02*
Y175374D01*
Y185544D02*
Y186004D01*
Y196961D02*
Y197421D01*
X372500Y174914D02*
Y175374D01*
Y185544D02*
Y186004D01*
Y196961D02*
Y197421D01*
X372600Y174914D02*
Y175374D01*
Y185544D02*
Y186004D01*
Y196961D02*
Y197421D01*
X372700Y174914D02*
Y175374D01*
Y185544D02*
Y186004D01*
Y196961D02*
Y197421D01*
X372800Y174914D02*
Y175374D01*
Y185544D02*
Y186004D01*
Y196961D02*
Y197421D01*
X372900Y174914D02*
Y175374D01*
Y185544D02*
Y186004D01*
Y196961D02*
Y197421D01*
X373000Y174914D02*
Y175374D01*
Y185544D02*
Y186004D01*
Y196961D02*
Y197421D01*
X373100Y174914D02*
Y175374D01*
Y185544D02*
Y186004D01*
Y196961D02*
Y197421D01*
X373200Y174914D02*
Y175374D01*
Y185544D02*
Y186004D01*
Y196961D02*
Y197421D01*
X373300Y174914D02*
Y175374D01*
Y185544D02*
Y186004D01*
Y196961D02*
Y197421D01*
X373400Y174914D02*
Y175374D01*
Y185544D02*
Y186004D01*
Y196961D02*
Y197421D01*
X373500Y174914D02*
Y175374D01*
Y185544D02*
Y186004D01*
Y196961D02*
Y197421D01*
X373600Y174914D02*
Y175374D01*
Y185544D02*
Y186004D01*
Y196961D02*
Y197421D01*
X373700Y174914D02*
Y175374D01*
Y185544D02*
Y186004D01*
Y196961D02*
Y197421D01*
X373800Y174914D02*
Y175374D01*
Y185544D02*
Y186004D01*
Y196961D02*
Y197421D01*
X373900Y174914D02*
Y175374D01*
Y185544D02*
Y186004D01*
Y196961D02*
Y197421D01*
X374000Y174914D02*
Y175374D01*
Y196961D02*
Y197421D01*
X374100Y174914D02*
Y175374D01*
Y196961D02*
Y197421D01*
X374200Y174914D02*
Y175374D01*
Y196961D02*
Y197421D01*
X374300Y174914D02*
Y175374D01*
Y196961D02*
Y197421D01*
X375100Y185544D02*
Y186004D01*
X375200Y185544D02*
Y186004D01*
X375300Y185544D02*
Y186004D01*
X375400Y185544D02*
Y186004D01*
X375500Y174914D02*
Y175374D01*
Y185544D02*
Y186004D01*
Y196961D02*
Y197421D01*
X375600Y174914D02*
Y175374D01*
Y185544D02*
Y186004D01*
Y196961D02*
Y197421D01*
X375700Y174914D02*
Y175374D01*
Y185544D02*
Y186004D01*
Y196961D02*
Y197421D01*
X375800Y174914D02*
Y175374D01*
Y185544D02*
Y186004D01*
Y196961D02*
Y197421D01*
X375900Y174914D02*
Y175374D01*
Y185544D02*
Y186004D01*
Y196961D02*
Y197421D01*
X376000Y174914D02*
Y175374D01*
Y185544D02*
Y186004D01*
Y196961D02*
Y197421D01*
X376100Y174914D02*
Y175374D01*
Y185544D02*
Y186004D01*
Y196961D02*
Y197421D01*
X376200Y174914D02*
Y175374D01*
Y185544D02*
Y186004D01*
Y196961D02*
Y197421D01*
X376300Y174914D02*
Y175374D01*
Y185544D02*
Y186004D01*
Y196961D02*
Y197421D01*
X376400Y174914D02*
Y175374D01*
Y185544D02*
Y186004D01*
Y196961D02*
Y197421D01*
X376500Y174914D02*
Y175374D01*
Y185544D02*
Y186004D01*
Y196961D02*
Y197421D01*
X376600Y174914D02*
Y175374D01*
Y185544D02*
Y186004D01*
Y196961D02*
Y197421D01*
X376700Y174914D02*
Y175374D01*
Y185544D02*
Y186004D01*
Y196961D02*
Y197421D01*
X376800Y174914D02*
Y175374D01*
Y185544D02*
Y186004D01*
Y196961D02*
Y197421D01*
X376900Y174914D02*
Y175374D01*
Y185544D02*
Y186004D01*
Y196961D02*
Y197421D01*
X377000Y174914D02*
Y175374D01*
Y185544D02*
Y186004D01*
Y196961D02*
Y197421D01*
X377100Y174914D02*
Y175374D01*
Y185544D02*
Y186004D01*
Y196961D02*
Y197421D01*
X377200Y174914D02*
Y175374D01*
Y185544D02*
Y186004D01*
Y196961D02*
Y197421D01*
X377300Y174914D02*
Y175374D01*
Y185544D02*
Y186004D01*
Y196961D02*
Y197421D01*
X377400Y174914D02*
Y175374D01*
Y185544D02*
Y186004D01*
Y196961D02*
Y197421D01*
X377500Y174914D02*
Y175374D01*
Y185544D02*
Y186004D01*
Y196961D02*
Y197421D01*
X377600Y174914D02*
Y175374D01*
Y185544D02*
Y186004D01*
Y196961D02*
Y197421D01*
X377700Y174914D02*
Y175374D01*
Y185544D02*
Y186004D01*
Y196961D02*
Y197421D01*
X377800Y174914D02*
Y175374D01*
Y185544D02*
Y186004D01*
Y196961D02*
Y197421D01*
X377900Y174914D02*
Y175374D01*
Y185544D02*
Y186004D01*
Y196961D02*
Y197421D01*
X378000Y174914D02*
Y175374D01*
Y185544D02*
Y186004D01*
Y196961D02*
Y197421D01*
X378100Y174914D02*
Y175374D01*
Y185544D02*
Y186004D01*
Y196961D02*
Y197421D01*
X378200Y174914D02*
Y175374D01*
Y185544D02*
Y186004D01*
Y196961D02*
Y197421D01*
X378300Y174914D02*
Y175374D01*
Y185544D02*
Y186004D01*
Y196961D02*
Y197421D01*
X378400Y174914D02*
Y175374D01*
Y185544D02*
Y186004D01*
Y196961D02*
Y197421D01*
X378500Y174914D02*
Y175374D01*
Y185544D02*
Y186004D01*
Y196961D02*
Y197421D01*
X378600Y174914D02*
Y175374D01*
Y185544D02*
Y186004D01*
Y196961D02*
Y197421D01*
X378700Y174914D02*
Y175374D01*
Y185544D02*
Y186004D01*
Y196961D02*
Y197421D01*
X378800Y174914D02*
Y175374D01*
Y196961D02*
Y197421D01*
X378900Y174914D02*
Y175374D01*
Y196961D02*
Y197421D01*
X379000Y174914D02*
Y175374D01*
Y196961D02*
Y197421D01*
X379100Y174914D02*
Y175374D01*
Y196961D02*
Y197421D01*
X379900Y185544D02*
Y186004D01*
X380000Y185544D02*
Y186004D01*
X380100Y185544D02*
Y186004D01*
X380200Y185544D02*
Y186004D01*
X380300Y174914D02*
Y175374D01*
Y185544D02*
Y186004D01*
Y196961D02*
Y197421D01*
X380400Y174914D02*
Y175374D01*
Y185544D02*
Y186004D01*
Y196961D02*
Y197421D01*
X380500Y174914D02*
Y175374D01*
Y185544D02*
Y186004D01*
Y196961D02*
Y197421D01*
X380600Y174914D02*
Y175374D01*
Y185544D02*
Y186004D01*
Y196961D02*
Y197421D01*
X380700Y174914D02*
Y175374D01*
Y185544D02*
Y186004D01*
Y196961D02*
Y197421D01*
X380800Y174914D02*
Y175374D01*
Y185544D02*
Y186004D01*
Y196961D02*
Y197421D01*
X380900Y174914D02*
Y175374D01*
Y185544D02*
Y186004D01*
Y196961D02*
Y197421D01*
X381000Y174914D02*
Y175374D01*
Y185544D02*
Y186004D01*
Y196961D02*
Y197421D01*
X381100Y174914D02*
Y175374D01*
Y185544D02*
Y186004D01*
Y196961D02*
Y197421D01*
X381200Y174914D02*
Y175374D01*
Y185544D02*
Y186004D01*
Y196961D02*
Y197421D01*
X381300Y174914D02*
Y175374D01*
Y185544D02*
Y186004D01*
Y196961D02*
Y197421D01*
X381400Y174914D02*
Y175374D01*
Y185544D02*
Y186004D01*
Y196961D02*
Y197421D01*
X381500Y174914D02*
Y175374D01*
Y185544D02*
Y186004D01*
Y196961D02*
Y197421D01*
X381600Y174914D02*
Y175374D01*
Y185544D02*
Y186004D01*
Y196961D02*
Y197421D01*
X381700Y174914D02*
Y175374D01*
Y185544D02*
Y186004D01*
Y196961D02*
Y197421D01*
X381800Y174914D02*
Y175374D01*
Y185544D02*
Y186004D01*
Y196961D02*
Y197421D01*
X381900Y174914D02*
Y175374D01*
Y185544D02*
Y186004D01*
Y196961D02*
Y197421D01*
X382000Y174914D02*
Y175374D01*
Y185544D02*
Y186004D01*
Y196961D02*
Y197421D01*
X382100Y174914D02*
Y175374D01*
Y185544D02*
Y186004D01*
Y196961D02*
Y197421D01*
X382200Y174914D02*
Y175374D01*
Y185544D02*
Y186004D01*
Y196961D02*
Y197421D01*
X382300Y174914D02*
Y175374D01*
Y185544D02*
Y186004D01*
Y196961D02*
Y197421D01*
X382400Y174914D02*
Y175374D01*
Y185544D02*
Y186004D01*
Y196961D02*
Y197421D01*
X382500Y174914D02*
Y175374D01*
Y185544D02*
Y186004D01*
Y196961D02*
Y197421D01*
X382600Y174914D02*
Y175374D01*
Y185544D02*
Y186004D01*
Y196961D02*
Y197421D01*
X382700Y174914D02*
Y175374D01*
Y185544D02*
Y186004D01*
Y196961D02*
Y197421D01*
X382800Y174914D02*
Y175374D01*
Y185544D02*
Y186004D01*
Y196961D02*
Y197421D01*
X382900Y174914D02*
Y175374D01*
Y185544D02*
Y186004D01*
Y196961D02*
Y197421D01*
X383000Y174914D02*
Y175374D01*
Y185544D02*
Y186004D01*
Y196961D02*
Y197421D01*
X383100Y174914D02*
Y175374D01*
Y185544D02*
Y186004D01*
Y196961D02*
Y197421D01*
X383200Y174914D02*
Y175374D01*
Y185544D02*
Y186004D01*
Y196961D02*
Y197421D01*
X383300Y174914D02*
Y175374D01*
Y185544D02*
Y186004D01*
Y196961D02*
Y197421D01*
X383400Y174914D02*
Y175374D01*
Y185544D02*
Y186004D01*
Y196961D02*
Y197421D01*
X383500Y174914D02*
Y175374D01*
Y185544D02*
Y186004D01*
Y196961D02*
Y197421D01*
X383600Y174914D02*
Y175374D01*
Y196961D02*
Y197421D01*
X383700Y174914D02*
Y175374D01*
Y196961D02*
Y197421D01*
X383800Y174914D02*
Y175374D01*
Y196961D02*
Y197421D01*
X383900Y174914D02*
Y175374D01*
Y196961D02*
Y197421D01*
*
G04 PC Custom Flashes*
G04 Layer Name opqbox2.pcb - flashes*
%LPD*%
*
*
G04 PC Circuitry*
G04 Layer Name opqbox2.pcb - circuitry*
%LPD*%
*
G54D10*
G54D11*
X460517Y257520D02*
X460173D01*
Y258234*
X460074*
Y257520*
X459730*
Y268938*
X460517*
Y257520*
X411759Y280261D02*
X397721D01*
Y281701*
X393710*
Y280261*
X379672*
Y303293*
X411759*
Y280261*
X325839Y285670D02*
X321877D01*
Y286408*
X320745*
Y285670*
X316784*
Y297481*
X325839*
Y285670*
X217618Y321161D02*
X243799D01*
Y347343*
X230217*
X229724Y346358*
X229232Y347343*
X217618*
Y321161*
X182346Y459480D02*
X182346D01*
Y459087*
X182346*
Y459480*
X182346*
Y453181*
X182346*
Y459480*
X250984Y385236D02*
Y379552D01*
X249729*
Y377928*
X250984*
Y372244*
X230906*
Y385236*
X250984*
G54D12*
X152840Y460323D02*
X150497D01*
X150028Y460209*
X149715Y459982*
X149559Y459641*
Y459414*
X149715Y459073*
X150028Y458846*
X150497Y458732*
X152840*
X152372Y456346D02*
X152684Y456459D01*
X152840Y456800*
Y457027*
X152684Y457368*
X152215Y457596*
X151434Y457709*
X150653*
X150028Y457596*
X149715Y457368*
X149559Y457027*
Y456914*
X149715Y456573*
X150028Y456346*
X150497Y456232*
X150653*
X151122Y456346*
X151434Y456573*
X151590Y456914*
Y457027*
X151434Y457368*
X151122Y457596*
X150653Y457709*
G54D13*
X753356Y478858D02*
X761406D01*
Y488858*
X753356*
X745856Y478858D02*
X737806D01*
Y488858*
X745856*
X643120Y392638D02*
X651170D01*
Y402638*
X643120*
X635620Y392638D02*
X627570D01*
Y402638*
X635620*
X611811Y388583D02*
Y393583D01*
X619311Y348583D02*
X604311D01*
Y388583*
X619311*
Y348583*
X611811D02*
Y343583D01*
X584252Y347638D02*
Y342638D01*
X576752Y387638D02*
X591752D01*
Y347638*
X576752*
Y387638*
X584252D02*
Y392638D01*
X556693Y388583D02*
Y393583D01*
X564193Y348583D02*
X549193D01*
Y388583*
X564193*
Y348583*
X556693D02*
Y343583D01*
X726110Y389055D02*
X675323D01*
Y499291*
X726110*
Y389055*
X572323Y273976D02*
X562323D01*
X572323Y272976D02*
X562323D01*
X567323Y258976D02*
Y253976D01*
X562323Y278976D02*
X572323D01*
Y258976*
X562323*
Y278976*
X567323D02*
Y284976D01*
X572323Y274976D02*
X562323D01*
X726654Y356506D02*
Y364556D01*
X716654*
Y356506*
X726654Y349006D02*
Y340956D01*
X716654*
Y349006*
X671654Y300787D02*
X666654D01*
X711654Y308287D02*
Y293287D01*
X671654*
Y308287*
X711654*
Y300787D02*
X716654D01*
X602451Y288717D02*
Y293717D01*
X609951Y248717D02*
X594951D01*
Y288717*
X609951*
Y248717*
X602451D02*
Y243717D01*
X459861Y273272D02*
X465661D01*
Y280272*
X459861*
X457461Y273272D02*
X451661D01*
Y280272*
X457461*
X472484Y255099D02*
Y249299D01*
X479484*
Y255099*
X472484Y257499D02*
Y263299D01*
X479484*
Y257499*
X448574Y284652D02*
X454374D01*
Y291652*
X448574*
X446174Y284652D02*
X440374D01*
Y291652*
X446174*
X435467Y293430D02*
Y299230D01*
X428467*
Y293430*
X435467Y291030D02*
Y285230D01*
X428467*
Y291030*
X490551Y299213D02*
Y294213D01*
X483051Y339213D02*
X498051D01*
Y299213*
X483051*
Y339213*
X490551D02*
Y344213D01*
X250201Y397343D02*
X237201D01*
Y422343*
X250201*
Y397343*
X251950Y435390D02*
X246150D01*
Y428390*
X251950*
X254350Y435390D02*
X260150D01*
Y428390*
X254350*
X263823Y403131D02*
Y397331D01*
X270823*
Y403131*
X263823Y405531D02*
Y411331D01*
X270823*
Y405531*
X132760Y377237D02*
X126960D01*
Y370237*
X132760*
X135160Y377237D02*
X140960D01*
Y370237*
X135160*
X129986Y398057D02*
Y403857D01*
X122986*
Y398057*
X129986Y395657D02*
Y389857D01*
X122986*
Y395657*
X139083Y388047D02*
Y393847D01*
X132083*
Y388047*
X139083Y385647D02*
Y379847D01*
X132083*
Y385647*
X184295Y281477D02*
Y275677D01*
X191295*
Y281477*
X184295Y283877D02*
Y289677D01*
X191295*
Y283877*
X194138Y281477D02*
Y275677D01*
X201138*
Y281477*
X194138Y283877D02*
Y289677D01*
X201138*
Y283877*
X218941Y246044D02*
Y240244D01*
X225941*
Y246044*
X218941Y248444D02*
Y254244D01*
X225941*
Y248444*
X257130Y246831D02*
Y241031D01*
X264130*
Y246831*
X257130Y249231D02*
Y255031D01*
X264130*
Y249231*
X203587Y448013D02*
Y442213D01*
X210587*
Y448013*
X203587Y450413D02*
Y456213D01*
X210587*
Y450413*
X203587Y461398D02*
Y455598D01*
X210587*
Y461398*
X203587Y463798D02*
Y469598D01*
X210587*
Y463798*
X197657Y455949D02*
X203457D01*
Y462949*
X197657*
X195257Y455949D02*
X189457D01*
Y462949*
X195257*
Y455862D02*
X189457D01*
Y448862*
X195257*
X197657Y455862D02*
X203457D01*
Y448862*
X197657*
X298800Y362161D02*
X293000D01*
Y355161*
X298800*
X301200Y362161D02*
X307000D01*
Y355161*
X301200*
X367673Y327578D02*
Y333378D01*
X360673*
Y327578*
X367673Y325178D02*
Y319378D01*
X360673*
Y325178*
X341382Y324391D02*
Y318591D01*
X348382*
Y324391*
X341382Y326791D02*
Y332591D01*
X348382*
Y326791*
X334295Y324391D02*
Y318591D01*
X341295*
Y324391*
X334295Y326791D02*
Y332591D01*
X341295*
Y326791*
X204287Y384271D02*
Y390071D01*
X197287*
Y384271*
X204287Y381871D02*
Y376071D01*
X197287*
Y381871*
X197201Y384271D02*
Y390071D01*
X190201*
Y384271*
X197201Y381871D02*
Y376071D01*
X190201*
Y381871*
X190114Y384271D02*
Y390071D01*
X183114*
Y384271*
X190114Y381871D02*
Y376071D01*
X183114*
Y381871*
X357973Y283978D02*
X363773D01*
Y290978*
X357973*
X355573Y283978D02*
X349773D01*
Y290978*
X355573*
X357973Y291852D02*
X363773D01*
Y298852*
X357973*
X355573Y291852D02*
X349773D01*
Y298852*
X355573*
X348462Y292615D02*
Y298415D01*
X341462*
Y292615*
X348462Y290215D02*
Y284415D01*
X341462*
Y290215*
X448481Y293489D02*
X454281D01*
Y300489*
X448481*
X446081Y293489D02*
X440281D01*
Y300489*
X446081*
X298800Y354135D02*
X293000D01*
Y347135*
X298800*
X301200Y354135D02*
X307000D01*
Y347135*
X301200*
X298704Y369089D02*
X292904D01*
Y362089*
X298704*
X301104Y369089D02*
X306904D01*
Y362089*
X301104*
X197287Y397619D02*
Y391819D01*
X204287*
Y397619*
X197287Y400019D02*
Y405819D01*
X204287*
Y400019*
X183114Y397619D02*
Y391819D01*
X190114*
Y397619*
X183114Y400019D02*
Y405819D01*
X190114*
Y400019*
X190201Y397619D02*
Y391819D01*
X197201*
Y397619*
X190201Y400019D02*
Y405819D01*
X197201*
Y400019*
X450744Y263798D02*
Y269598D01*
X443744*
Y263798*
X450744Y261398D02*
Y255598D01*
X443744*
Y261398*
X542343Y316050D02*
Y306050D01*
X543343Y316050D02*
Y306050D01*
X557343Y311050D02*
X562343D01*
X537343Y306050D02*
Y316050D01*
X557343*
Y306050*
X537343*
Y311050D02*
X531343D01*
X541343Y316050D02*
Y306050D01*
X633858Y389240D02*
Y382677D01*
Y389240D02*
X636813D01*
X633858Y386115D02*
X635676D01*
X639313Y389240D02*
X641813D01*
X640449Y386740*
X641131*
X641586Y386427*
X641813Y386115*
X642040Y385177*
Y384552*
X641813Y383615*
X641358Y382990*
X640676Y382677*
X639995*
X639313Y382990*
X639086Y383302*
X638858Y383927*
X614830Y370472D02*
X608268D01*
X614830D02*
Y368427D01*
X614518Y367745*
X614205Y367518*
X613580Y367291*
X612955*
X612330Y367518*
X612018Y367745*
X611705Y368427*
Y370472*
Y368882D02*
X608268Y367291D01*
X614830Y362063D02*
X608268Y364336D01*
X614830Y365245D02*
Y362063D01*
X587271Y372047D02*
X580709D01*
X587271D02*
Y370002D01*
X586959Y369320*
X586646Y369093*
X586021Y368865*
X585396*
X584771Y369093*
X584459Y369320*
X584146Y370002*
Y372047*
Y370456D02*
X580709Y368865D01*
X586334Y364093D02*
X586959Y364320D01*
X587271Y365002*
Y365456*
X586959Y366138*
X586021Y366593*
X584459Y366820*
X582896*
X581646Y366593*
X581021Y366138*
X580709Y365456*
Y365229*
X581021Y364547*
X581646Y364093*
X582584Y363865*
X582896*
X583834Y364093*
X584459Y364547*
X584771Y365229*
Y365456*
X584459Y366138*
X583834Y366593*
X582896Y366820*
X560500Y373228D02*
X553937D01*
X560500D02*
Y371183D01*
X560187Y370501*
X559875Y370274*
X559250Y370047*
X558625*
X558000Y370274*
X557687Y370501*
X557375Y371183*
Y373228*
Y371637D02*
X553937Y370047D01*
X560500Y365047D02*
Y367319D01*
X557687Y367547*
X558000Y367319*
X558312Y366637*
Y365956*
X558000Y365274*
X557375Y364819*
X556437Y364592*
X555812Y364819*
X554875Y365047*
X554250Y365501*
X553937Y366183*
Y366865*
X554250Y367547*
X554562Y367774*
X555187Y368001*
X570736Y269685D02*
X564173D01*
X570736D02*
Y268094D01*
X570423Y267412*
X569798Y266958*
X569173Y266730*
X568236Y266503*
X566673*
X565736Y266730*
X565111Y266958*
X564486Y267412*
X564173Y268094*
Y269685*
X569486Y264458D02*
X569798Y264003D01*
X570736Y263321*
X564173*
X731102Y356169D02*
Y349606D01*
Y356169D02*
X734057D01*
X731102Y353044D02*
X732921D01*
X736330Y354606D02*
Y354919D01*
X736557Y355544*
X736784Y355856*
X737239Y356169*
X738148*
X738602Y355856*
X738830Y355544*
X739057Y354919*
Y354294*
X738830Y353669*
X738375Y352731*
X736102Y349606*
X739284*
X684646Y303019D02*
Y296457D01*
Y303019D02*
X686691D01*
X687373Y302707*
X687600Y302394*
X687827Y301769*
Y301144*
X687600Y300519*
X687373Y300207*
X686691Y299894*
X684646*
X686237D02*
X687827Y296457D01*
X690100Y301457D02*
Y301769D01*
X690327Y302394*
X690555Y302707*
X691009Y303019*
X691918*
X692373Y302707*
X692600Y302394*
X692827Y301769*
Y301144*
X692600Y300519*
X692146Y299582*
X689873Y296457*
X693055*
X698055Y303019D02*
X695782D01*
X695555Y300207*
X695782Y300519*
X696464Y300832*
X697146*
X697827Y300519*
X698282Y299894*
X698509Y298957*
X698282Y298332*
X698055Y297394*
X697600Y296769*
X696918Y296457*
X696237*
X695555Y296769*
X695327Y297082*
X695100Y297707*
X598556Y264961D02*
X605118D01*
X598556D02*
Y267006D01*
X598868Y267688*
X599181Y267915*
X599806Y268142*
X600431*
X601056Y267915*
X601368Y267688*
X601681Y267006*
Y264961*
Y266552D02*
X605118Y268142D01*
X599806Y270188D02*
X599493Y270642D01*
X598556Y271324*
X605118*
X468916Y295769D02*
Y291081D01*
X469143Y290144*
X469598Y289519*
X470280Y289206*
X470734*
X471416Y289519*
X471870Y290144*
X472098Y291081*
Y295769*
X477098Y293581D02*
X476870Y292644D01*
X476416Y292019*
X475734Y291706*
X475507*
X474825Y292019*
X474370Y292644*
X474143Y293581*
Y293894*
X474370Y294831*
X474825Y295456*
X475507Y295769*
X475734*
X476416Y295456*
X476870Y294831*
X477098Y293581*
Y292019*
X476870Y290456*
X476416Y289519*
X475734Y289206*
X475280*
X474598Y289519*
X474370Y290144*
X538858Y280449D02*
X539483Y280676D01*
X540108Y281131*
X540421Y281586*
Y282495*
X540108Y282949*
X539483Y283404*
X538858Y283631*
X537921Y283858*
X536358*
X535421Y283631*
X534796Y283404*
X534171Y282949*
X533858Y282495*
Y281586*
X534171Y281131*
X534796Y280676*
X535421Y280449*
X538858Y278176D02*
X539171D01*
X539796Y277949*
X540108Y277722*
X540421Y277267*
Y276358*
X540108Y275904*
X539796Y275676*
X539171Y275449*
X538546*
X537921Y275676*
X536983Y276131*
X533858Y278404*
Y275222*
X476244Y278622D02*
X476016Y279247D01*
X475562Y279872*
X475107Y280185*
X474198*
X473744Y279872*
X473289Y279247*
X473062Y278622*
X472835Y277685*
Y276122*
X473062Y275185*
X473289Y274560*
X473744Y273935*
X474198Y273622*
X475107*
X475562Y273935*
X476016Y274560*
X476244Y275185*
X478744Y280185D02*
X481244D01*
X479880Y277685*
X480562*
X481016Y277372*
X481244Y277060*
X481471Y276122*
Y275497*
X481244Y274560*
X480789Y273935*
X480107Y273622*
X479426*
X478744Y273935*
X478516Y274247*
X478289Y274872*
X487661Y258937D02*
X487434Y259562D01*
X486979Y260187*
X486525Y260500*
X485616*
X485161Y260187*
X484707Y259562*
X484479Y258937*
X484252Y258000*
Y256437*
X484479Y255500*
X484707Y254875*
X485161Y254250*
X485616Y253937*
X486525*
X486979Y254250*
X487434Y254875*
X487661Y255500*
X491979Y260500D02*
X489707Y256125D01*
X493116*
X491979Y260500D02*
Y253937D01*
X334118Y450669D02*
X333890Y451294D01*
X333436Y451919*
X332981Y452232*
X332072*
X331618Y451919*
X331163Y451294*
X330936Y450669*
X330709Y449732*
Y448169*
X330936Y447232*
X331163Y446607*
X331618Y445982*
X332072Y445669*
X332981*
X333436Y445982*
X333890Y446607*
X334118Y447232*
X339118Y452232D02*
X336845D01*
X336618Y449419*
X336845Y449732*
X337527Y450044*
X338209*
X338890Y449732*
X339345Y449107*
X339572Y448169*
X339345Y447544*
X339118Y446607*
X338663Y445982*
X337981Y445669*
X337300*
X336618Y445982*
X336390Y446294*
X336163Y446919*
X443701Y284515D02*
Y277953D01*
Y284515D02*
X445746D01*
X446428Y284203*
X446655Y283890*
X446883Y283265*
Y282640*
X446655Y282015*
X446428Y281703*
X445746Y281390*
X443701*
X445292D02*
X446883Y277953D01*
X449383Y284515D02*
X451883D01*
X450519Y282015*
X451201*
X451655Y281703*
X451883Y281390*
X452110Y280453*
Y279828*
X451883Y278890*
X451428Y278265*
X450746Y277953*
X450064*
X449383Y278265*
X449155Y278578*
X448928Y279203*
X432149Y307756D02*
X431922Y308381D01*
X431467Y309006*
X431013Y309318*
X430104*
X429649Y309006*
X429195Y308381*
X428967Y307756*
X428740Y306818*
Y305256*
X428967Y304318*
X429195Y303693*
X429649Y303068*
X430104Y302756*
X431013*
X431467Y303068*
X431922Y303693*
X432149Y304318*
X436922Y308381D02*
X436695Y309006D01*
X436013Y309318*
X435558*
X434877Y309006*
X434422Y308068*
X434195Y306506*
Y304943*
X434422Y303693*
X434877Y303068*
X435558Y302756*
X435786*
X436467Y303068*
X436922Y303693*
X437149Y304631*
Y304943*
X436922Y305881*
X436467Y306506*
X435786Y306818*
X435558*
X434877Y306506*
X434422Y305881*
X434195Y304943*
X493177Y324409D02*
X486614D01*
X493177D02*
Y322364D01*
X492864Y321682*
X492552Y321455*
X491927Y321228*
X491302*
X490677Y321455*
X490364Y321682*
X490052Y322364*
Y324409*
Y322819D02*
X486614Y321228D01*
X493177Y316909D02*
X488802Y319182D01*
Y315773*
X493177Y316909D02*
X486614D01*
X252622Y443583D02*
X252394Y444208D01*
X251940Y444833*
X251485Y445145*
X250576*
X250122Y444833*
X249667Y444208*
X249440Y443583*
X249213Y442645*
Y441083*
X249440Y440145*
X249667Y439520*
X250122Y438895*
X250576Y438583*
X251485*
X251940Y438895*
X252394Y439520*
X252622Y440145*
X255804Y445145D02*
X255122Y444833D01*
X254894Y444208*
Y443583*
X255122Y442958*
X255576Y442645*
X256485Y442333*
X257167Y442020*
X257622Y441395*
X257849Y440770*
Y439833*
X257622Y439208*
X257394Y438895*
X256713Y438583*
X255804*
X255122Y438895*
X254894Y439208*
X254667Y439833*
Y440770*
X254894Y441395*
X255349Y442020*
X256031Y442333*
X256940Y442645*
X257394Y442958*
X257622Y443583*
Y444208*
X257394Y444833*
X256713Y445145*
X255804*
X274134Y403409D02*
X273509Y403182D01*
X272884Y402727*
X272571Y402273*
Y401364*
X272884Y400909*
X273509Y400455*
X274134Y400227*
X275071Y400000*
X276634*
X277571Y400227*
X278196Y400455*
X278821Y400909*
X279134Y401364*
Y402273*
X278821Y402727*
X278196Y403182*
X277571Y403409*
X274759Y408409D02*
X275696Y408182D01*
X276321Y407727*
X276634Y407045*
Y406818*
X276321Y406136*
X275696Y405682*
X274759Y405455*
X274446*
X273509Y405682*
X272884Y406136*
X272571Y406818*
Y407045*
X272884Y407727*
X273509Y408182*
X274759Y408409*
X276321*
X277884Y408182*
X278821Y407727*
X279134Y407045*
Y406591*
X278821Y405909*
X278196Y405682*
X130968Y366024D02*
X130741Y366649D01*
X130286Y367274*
X129832Y367586*
X128923*
X128468Y367274*
X128014Y366649*
X127786Y366024*
X127559Y365086*
Y363524*
X127786Y362586*
X128014Y361961*
X128468Y361336*
X128923Y361024*
X129832*
X130286Y361336*
X130741Y361961*
X130968Y362586*
X133014Y366336D02*
X133468Y366649D01*
X134150Y367586*
Y361024*
X136650Y367586D02*
X139150D01*
X137786Y365086*
X138468*
X138923Y364774*
X139150Y364461*
X139377Y363524*
Y362899*
X139150Y361961*
X138695Y361336*
X138014Y361024*
X137332*
X136650Y361336*
X136423Y361649*
X136195Y362274*
X137402Y403413D02*
Y396850D01*
Y403413D02*
X139447D01*
X140129Y403100*
X140356Y402788*
X140583Y402163*
Y401538*
X140356Y400913*
X140129Y400600*
X139447Y400288*
X137402*
X138992D02*
X140583Y396850D01*
X142629Y402163D02*
X143083Y402475D01*
X143765Y403413*
Y396850*
X148083Y403413D02*
X145811Y399038D01*
X149220*
X148083Y403413D02*
Y396850D01*
X145669Y391208D02*
Y384646D01*
Y391208D02*
X147715D01*
X148397Y390896*
X148624Y390583*
X148851Y389958*
Y389333*
X148624Y388708*
X148397Y388396*
X147715Y388083*
X145669*
X147260D02*
X148851Y384646D01*
X150897Y389958D02*
X151351Y390271D01*
X152033Y391208*
Y384646*
X157033Y391208D02*
X154760D01*
X154533Y388396*
X154760Y388708*
X155442Y389021*
X156124*
X156806Y388708*
X157260Y388083*
X157487Y387146*
X157260Y386521*
X157033Y385583*
X156578Y384958*
X155897Y384646*
X155215*
X154533Y384958*
X154306Y385271*
X154078Y385896*
X190039Y268244D02*
X190664Y268472D01*
X191289Y268926*
X191602Y269381*
Y270290*
X191289Y270744*
X190664Y271199*
X190039Y271426*
X189102Y271654*
X187539*
X186602Y271426*
X185977Y271199*
X185352Y270744*
X185039Y270290*
Y269381*
X185352Y268926*
X185977Y268472*
X186602Y268244*
X190352Y266199D02*
X190664Y265744D01*
X191602Y265063*
X185039*
X189414Y260063D02*
X188477Y260290D01*
X187852Y260744*
X187539Y261426*
Y261654*
X187852Y262335*
X188477Y262790*
X189414Y263017*
X189727*
X190664Y262790*
X191289Y262335*
X191602Y261654*
Y261426*
X191289Y260744*
X190664Y260290*
X189414Y260063*
X187852*
X186289Y260290*
X185352Y260744*
X185039Y261426*
Y261881*
X185352Y262563*
X185977Y262790*
X199094Y269032D02*
X199719Y269259D01*
X200344Y269714*
X200657Y270168*
Y271077*
X200344Y271532*
X199719Y271986*
X199094Y272214*
X198157Y272441*
X196594*
X195657Y272214*
X195032Y271986*
X194407Y271532*
X194094Y271077*
Y270168*
X194407Y269714*
X195032Y269259*
X195657Y269032*
X199094Y266759D02*
X199407D01*
X200032Y266532*
X200344Y266305*
X200657Y265850*
Y264941*
X200344Y264486*
X200032Y264259*
X199407Y264032*
X198782*
X198157Y264259*
X197219Y264714*
X194094Y266986*
Y263805*
X200657Y260395D02*
X200344Y261077D01*
X199407Y261532*
X197844Y261759*
X196907*
X195344Y261532*
X194407Y261077*
X194094Y260395*
Y259941*
X194407Y259259*
X195344Y258805*
X196907Y258577*
X197844*
X199407Y258805*
X200344Y259259*
X200657Y259941*
Y260395*
X211142Y243960D02*
X210517Y243733D01*
X209892Y243278*
X209579Y242824*
Y241915*
X209892Y241460*
X210517Y241006*
X211142Y240778*
X212079Y240551*
X213642*
X214579Y240778*
X215204Y241006*
X215829Y241460*
X216142Y241915*
Y242824*
X215829Y243278*
X215204Y243733*
X214579Y243960*
X211142Y246233D02*
X210829D01*
X210204Y246460*
X209892Y246688*
X209579Y247142*
Y248051*
X209892Y248506*
X210204Y248733*
X210829Y248960*
X211454*
X212079Y248733*
X213017Y248278*
X216142Y246006*
Y249188*
X210829Y251233D02*
X210517Y251688D01*
X209579Y252369*
X216142*
X249331Y244748D02*
X248706Y244520D01*
X248081Y244066*
X247768Y243611*
Y242702*
X248081Y242248*
X248706Y241793*
X249331Y241566*
X250268Y241339*
X251831*
X252768Y241566*
X253393Y241793*
X254018Y242248*
X254331Y242702*
Y243611*
X254018Y244066*
X253393Y244520*
X252768Y244748*
X249331Y247020D02*
X249018D01*
X248393Y247248*
X248081Y247475*
X247768Y247929*
Y248839*
X248081Y249293*
X248393Y249520*
X249018Y249748*
X249643*
X250268Y249520*
X251206Y249066*
X254331Y246793*
Y249975*
X249331Y252248D02*
X249018D01*
X248393Y252475*
X248081Y252702*
X247768Y253157*
Y254066*
X248081Y254520*
X248393Y254748*
X249018Y254975*
X249643*
X250268Y254748*
X251206Y254293*
X254331Y252020*
Y255202*
X218763Y445551D02*
X218536Y446176D01*
X218082Y446801*
X217627Y447114*
X216718*
X216263Y446801*
X215809Y446176*
X215582Y445551*
X215354Y444614*
Y443051*
X215582Y442114*
X215809Y441489*
X216263Y440864*
X216718Y440551*
X217627*
X218082Y440864*
X218536Y441489*
X218763Y442114*
X221036Y445551D02*
Y445864D01*
X221263Y446489*
X221491Y446801*
X221945Y447114*
X222854*
X223309Y446801*
X223536Y446489*
X223763Y445864*
Y445239*
X223536Y444614*
X223082Y443676*
X220809Y440551*
X223991*
X226491Y447114D02*
X228991D01*
X227627Y444614*
X228309*
X228763Y444301*
X228991Y443989*
X229218Y443051*
Y442426*
X228991Y441489*
X228536Y440864*
X227854Y440551*
X227173*
X226491Y440864*
X226263Y441176*
X226036Y441801*
X217582Y470354D02*
X217355Y470979D01*
X216901Y471604*
X216901D02*
X216446Y471917D01*
X215537*
X215082Y471604*
X214628Y470979*
X214401Y470354*
X214401D02*
X214173Y469417D01*
Y467854*
X214401Y466917*
X214401D02*
X214628Y466292D01*
X215082Y465667*
X215537Y465354*
X216446*
X216901Y465667*
X216901D02*
X217355Y466292D01*
X217582Y466917*
X219855Y470354D02*
Y470667D01*
X220082Y471292*
X220310Y471604*
X220764Y471917*
X221673*
X222128Y471604*
X222355Y471292*
X222582Y470667*
Y470042*
X222355Y469417*
X221901Y468479*
X221901D02*
X219628Y465354D01*
X222810*
X227128Y471917D02*
X224855Y467542D01*
X228264*
X227128Y471917D02*
Y465354D01*
X190551Y473098D02*
Y466535D01*
Y473098D02*
X192597D01*
X193278Y472785*
X193506Y472473*
X193733Y471848*
Y471223*
X193506Y470598*
X193278Y470285*
X192597Y469973*
X190551*
X192142D02*
X193733Y466535D01*
X195778Y471848D02*
X196233Y472160D01*
X196915Y473098*
Y466535*
X201915Y470910D02*
X201688Y469973D01*
X201233Y469348*
X200551Y469035*
X200324*
X199642Y469348*
X199188Y469973*
X198960Y470910*
Y471223*
X199188Y472160*
X199642Y472785*
X200324Y473098*
X200551*
X201233Y472785*
X201688Y472160*
X201915Y470910*
Y469348*
X201688Y467785*
X201233Y466848*
X200551Y466535*
X200097*
X199415Y466848*
X199188Y467473*
X187795Y446720D02*
Y440157D01*
Y446720D02*
X189841D01*
X190523Y446407*
X190750Y446095*
X190977Y445470*
Y444845*
X190750Y444220*
X190523Y443907*
X189841Y443595*
X187795*
X189386D02*
X190977Y440157D01*
X193250Y445157D02*
Y445470D01*
X193477Y446095*
X193704Y446407*
X194159Y446720*
X195068*
X195523Y446407*
X195750Y446095*
X195977Y445470*
Y444845*
X195750Y444220*
X195295Y443282*
X193023Y440157*
X196204*
X199613Y446720D02*
X198932Y446407D01*
X198477Y445470*
X198250Y443907*
Y442970*
X198477Y441407*
X198932Y440470*
X199613Y440157*
X200068*
X200750Y440470*
X201204Y441407*
X201432Y442970*
Y443907*
X201204Y445470*
X200750Y446407*
X200068Y446720*
X199613*
X315614Y360512D02*
X315387Y361137D01*
X314932Y361762*
X314477Y362074*
X313568*
X313114Y361762*
X312659Y361137*
X312432Y360512*
X312205Y359574*
Y358012*
X312432Y357074*
X312659Y356449*
X313114Y355824*
X313568Y355512*
X314477*
X314932Y355824*
X315387Y356449*
X315614Y357074*
X317887Y360512D02*
Y360824D01*
X318114Y361449*
X318341Y361762*
X318796Y362074*
X319705*
X320159Y361762*
X320387Y361449*
X320614Y360824*
Y360199*
X320387Y359574*
X319932Y358637*
X317659Y355512*
X320841*
X326068Y362074D02*
X323796Y355512D01*
X322887Y362074D02*
X326068D01*
X374291Y330055D02*
X374916Y330283D01*
X375541Y330737*
X375854Y331192*
Y332101*
X375541Y332555*
X374916Y333010*
X374291Y333237*
X373354Y333465*
X371791*
X370854Y333237*
X370229Y333010*
X369604Y332555*
X369291Y332101*
Y331192*
X369604Y330737*
X370229Y330283*
X370854Y330055*
X374291Y327783D02*
X374604D01*
X375229Y327555*
X375541Y327328*
X375854Y326874*
Y325965*
X375541Y325510*
X375229Y325283*
X374604Y325055*
X373979*
X373354Y325283*
X372416Y325737*
X369291Y328010*
Y324828*
X375854Y319828D02*
Y322101D01*
X373041Y322328*
X373354Y322101*
X373666Y321419*
Y320737*
X373354Y320055*
X372729Y319601*
X371791Y319374*
X371166Y319601*
X370229Y319828*
X369604Y320283*
X369291Y320965*
Y321646*
X369604Y322328*
X369916Y322555*
X370541Y322783*
X342126Y342389D02*
Y335827D01*
Y342389D02*
X344171D01*
X344853Y342077*
X345081Y341764*
X345308Y341139*
Y340514*
X345081Y339889*
X344853Y339577*
X344171Y339264*
X342126*
X343717D02*
X345308Y335827D01*
X347581Y340827D02*
Y341139D01*
X347808Y341764*
X348035Y342077*
X348490Y342389*
X349399*
X349853Y342077*
X350081Y341764*
X350308Y341139*
Y340514*
X350081Y339889*
X349626Y338952*
X347353Y335827*
X350535*
X352808Y340827D02*
Y341139D01*
X353035Y341764*
X353262Y342077*
X353717Y342389*
X354626*
X355081Y342077*
X355308Y341764*
X355535Y341139*
Y340514*
X355308Y339889*
X354853Y338952*
X352581Y335827*
X355762*
X329393Y340433D02*
X329166Y341058D01*
X328712Y341683*
X328257Y341996*
X327348*
X326893Y341683*
X326439Y341058*
X326212Y340433*
X325984Y339496*
Y337933*
X326212Y336996*
X326439Y336371*
X326893Y335746*
X327348Y335433*
X328257*
X328712Y335746*
X329166Y336371*
X329393Y336996*
X331666Y340433D02*
Y340746D01*
X331893Y341371*
X332121Y341683*
X332575Y341996*
X333484*
X333939Y341683*
X334166Y341371*
X334393Y340746*
Y340121*
X334166Y339496*
X333712Y338558*
X331439Y335433*
X334621*
X339393Y341058D02*
X339166Y341683D01*
X338484Y341996*
X338030*
X337348Y341683*
X336893Y340746*
X336666Y339183*
Y337621*
X336893Y336371*
X337348Y335746*
X338030Y335433*
X338257*
X338939Y335746*
X339393Y336371*
X339621Y337308*
Y337621*
X339393Y338558*
X338939Y339183*
X338257Y339496*
X338030*
X337348Y339183*
X336893Y338558*
X336666Y337621*
X240421Y382677D02*
X235733D01*
X234796Y382450*
X234171Y381995*
X233858Y381314*
Y380859*
X234171Y380177*
X234796Y379723*
X235733Y379495*
X240421*
Y376314D02*
X240108Y376995D01*
X239483Y377223*
X238858*
X238233Y376995*
X237921Y376541*
X237608Y375632*
X237296Y374950*
X236671Y374495*
X236046Y374268*
X235108*
X234483Y374495*
X234171Y374723*
X233858Y375404*
Y376314*
X234171Y376995*
X234483Y377223*
X235108Y377450*
X236046*
X236671Y377223*
X237296Y376768*
X237608Y376086*
X237921Y375177*
X238233Y374723*
X238858Y374495*
X239483*
X240108Y374723*
X240421Y375404*
Y376314*
X272867Y314680D02*
X272412Y315305D01*
X271730Y315618*
X270821*
X270140Y315305*
X269685Y314680*
Y314055*
X269912Y313430*
X270140Y313118*
X270594Y312805*
X271958Y312180*
X272412Y311868*
X272640Y311555*
X272867Y310930*
Y309993*
X272412Y309368*
X271730Y309055*
X270821*
X270140Y309368*
X269685Y309993*
X274912Y315618D02*
Y309055D01*
Y315618D02*
X276958D01*
X277640Y315305*
X277867Y314993*
X278094Y314368*
Y313430*
X277867Y312805*
X277640Y312493*
X276958Y312180*
X274912*
X280140Y315618D02*
Y309055D01*
X205775Y374409D02*
X199213D01*
X205775D02*
Y372364D01*
X205463Y371682*
X205150Y371455*
X204525Y371228*
X203900*
X203275Y371455*
X202963Y371682*
X202650Y372364*
Y374409*
Y372819D02*
X199213Y371228D01*
X204213Y368955D02*
X204525D01*
X205150Y368728*
X205463Y368500*
X205775Y368046*
Y367137*
X205463Y366682*
X205150Y366455*
X204525Y366228*
X203900*
X203275Y366455*
X202338Y366909*
X199213Y369182*
Y366000*
X205775Y363500D02*
Y361000D01*
X203275Y362364*
Y361682*
X202963Y361228*
X202650Y361000*
X201713Y360773*
X201088*
X200150Y361000*
X199525Y361455*
X199213Y362137*
Y362819*
X199525Y363500*
X199838Y363728*
X200463Y363955*
X197901Y374016D02*
X191339D01*
X197901D02*
Y371970D01*
X197589Y371288*
X197276Y371061*
X196651Y370834*
X196026*
X195401Y371061*
X195089Y371288*
X194776Y371970*
Y374016*
Y372425D02*
X191339Y370834D01*
X196339Y368561D02*
X196651D01*
X197276Y368334*
X197589Y368107*
X197901Y367652*
Y366743*
X197589Y366288*
X197276Y366061*
X196651Y365834*
X196026*
X195401Y366061*
X194464Y366516*
X191339Y368788*
Y365607*
X197901Y361288D02*
X193526Y363561D01*
Y360152*
X197901Y361288D02*
X191339D01*
X189633Y374409D02*
X183071D01*
X189633D02*
Y372364D01*
X189321Y371682*
X189008Y371455*
X188383Y371228*
X187758*
X187133Y371455*
X186821Y371682*
X186508Y372364*
Y374409*
Y372819D02*
X183071Y371228D01*
X188071Y368955D02*
X188383D01*
X189008Y368728*
X189321Y368500*
X189633Y368046*
Y367137*
X189321Y366682*
X189008Y366455*
X188383Y366228*
X187758*
X187133Y366455*
X186196Y366909*
X183071Y369182*
Y366000*
X188696Y361228D02*
X189321Y361455D01*
X189633Y362137*
Y362591*
X189321Y363273*
X188383Y363728*
X186821Y363955*
X185258*
X184008Y363728*
X183383Y363273*
X183071Y362591*
Y362364*
X183383Y361682*
X184008Y361228*
X184946Y361000*
X185258*
X186196Y361228*
X186821Y361682*
X187133Y362364*
Y362591*
X186821Y363273*
X186196Y363728*
X185258Y363955*
X350787Y280972D02*
Y274409D01*
Y280972D02*
X352833D01*
X353515Y280659*
X353742Y280347*
X353969Y279722*
Y279097*
X353742Y278472*
X353515Y278159*
X352833Y277847*
X350787*
X352378D02*
X353969Y274409D01*
X356242Y279409D02*
Y279722D01*
X356469Y280347*
X356696Y280659*
X357151Y280972*
X358060*
X358515Y280659*
X358742Y280347*
X358969Y279722*
Y279097*
X358742Y278472*
X358287Y277534*
X356015Y274409*
X359196*
X362378Y280972D02*
X361696Y280659D01*
X361469Y280034*
Y279409*
X361696Y278784*
X362151Y278472*
X363060Y278159*
X363742Y277847*
X364196Y277222*
X364424Y276597*
Y275659*
X364196Y275034*
X363969Y274722*
X363287Y274409*
X362378*
X361696Y274722*
X361469Y275034*
X361242Y275659*
Y276597*
X361469Y277222*
X361924Y277847*
X362606Y278159*
X363515Y278472*
X363969Y278784*
X364196Y279409*
Y280034*
X363969Y280659*
X363287Y280972*
X362378*
X337008Y306956D02*
Y300394D01*
Y306956D02*
X339053D01*
X339735Y306644*
X339962Y306331*
X340190Y305706*
Y305081*
X339962Y304456*
X339735Y304144*
X339053Y303831*
X337008*
X338599D02*
X340190Y300394D01*
X342462Y305394D02*
Y305706D01*
X342690Y306331*
X342917Y306644*
X343372Y306956*
X344281*
X344735Y306644*
X344962Y306331*
X345190Y305706*
Y305081*
X344962Y304456*
X344508Y303519*
X342235Y300394*
X345417*
X350417Y304769D02*
X350190Y303831D01*
X349735Y303206*
X349053Y302894*
X348826*
X348144Y303206*
X347690Y303831*
X347462Y304769*
Y305081*
X347690Y306019*
X348144Y306644*
X348826Y306956*
X349053*
X349735Y306644*
X350190Y306019*
X350417Y304769*
Y303206*
X350190Y301644*
X349735Y300706*
X349053Y300394*
X348599*
X347917Y300706*
X347690Y301331*
X343425Y272307D02*
X342800Y272079D01*
X342175Y271625*
X341863Y271170*
Y270261*
X342175Y269807*
X342800Y269352*
X343425Y269125*
X344363Y268898*
X345925*
X346863Y269125*
X347488Y269352*
X348113Y269807*
X348425Y270261*
Y271170*
X348113Y271625*
X347488Y272079*
X346863Y272307*
X343425Y274579D02*
X343113D01*
X342488Y274807*
X342175Y275034*
X341863Y275489*
Y276398*
X342175Y276852*
X342488Y277079*
X343113Y277307*
X343738*
X344363Y277079*
X345300Y276625*
X348425Y274352*
Y277534*
X344050Y282534D02*
X344988Y282307D01*
X345613Y281852*
X345925Y281170*
Y280943*
X345613Y280261*
X344988Y279807*
X344050Y279579*
X343738*
X342800Y279807*
X342175Y280261*
X341863Y280943*
Y281170*
X342175Y281852*
X342800Y282307*
X344050Y282534*
X345613*
X347175Y282307*
X348113Y281852*
X348425Y281170*
Y280716*
X348113Y280034*
X347488Y279807*
X440551Y309318D02*
Y302756D01*
Y309318D02*
X442597D01*
X443278Y309006*
X443506Y308693*
X443733Y308068*
Y307443*
X443506Y306818*
X443278Y306506*
X442597Y306193*
X440551*
X442142D02*
X443733Y302756D01*
X446233Y309318D02*
X448733D01*
X447369Y306818*
X448051*
X448506Y306506*
X448733Y306193*
X448960Y305256*
Y304631*
X448733Y303693*
X448278Y303068*
X447597Y302756*
X446915*
X446233Y303068*
X446006Y303381*
X445778Y304006*
X452369Y309318D02*
X451688Y309006D01*
X451233Y308068*
X451006Y306506*
Y305568*
X451233Y304006*
X451688Y303068*
X452369Y302756*
X452824*
X453506Y303068*
X453960Y304006*
X454188Y305568*
Y306506*
X453960Y308068*
X453506Y309006*
X452824Y309318*
X452369*
X304590Y343976D02*
X304363Y344601D01*
X303908Y345226*
X303454Y345539*
X302545*
X302090Y345226*
X301636Y344601*
X301408Y343976*
X301181Y343039*
Y341476*
X301408Y340539*
X301636Y339914*
X302090Y339289*
X302545Y338976*
X303454*
X303908Y339289*
X304363Y339914*
X304590Y340539*
X307090Y345539D02*
X309590D01*
X308227Y343039*
X308908*
X309363Y342726*
X309590Y342414*
X309817Y341476*
Y340851*
X309590Y339914*
X309136Y339289*
X308454Y338976*
X307772*
X307090Y339289*
X306863Y339601*
X306636Y340226*
X311863Y344289D02*
X312317Y344601D01*
X312999Y345539*
Y338976*
X297504Y376654D02*
X297276Y377279D01*
X296822Y377904*
X296367Y378216*
X295458*
X295004Y377904*
X294549Y377279*
X294322Y376654*
X294094Y375716*
Y374154*
X294322Y373216*
X294549Y372591*
X295004Y371966*
X295458Y371654*
X296367*
X296822Y371966*
X297276Y372591*
X297504Y373216*
X300004Y378216D02*
X302504D01*
X301140Y375716*
X301822*
X302276Y375404*
X302504Y375091*
X302731Y374154*
Y373529*
X302504Y372591*
X302049Y371966*
X301367Y371654*
X300685*
X300004Y371966*
X299776Y372279*
X299549Y372904*
X305231Y378216D02*
X307731D01*
X306367Y375716*
X307049*
X307504Y375404*
X307731Y375091*
X307958Y374154*
Y373529*
X307731Y372591*
X307276Y371966*
X306594Y371654*
X305913*
X305231Y371966*
X305004Y372279*
X304776Y372904*
X447504Y251457D02*
X447276Y252082D01*
X446822Y252707*
X446367Y253019*
X445458*
X445004Y252707*
X444549Y252082*
X444322Y251457*
X444094Y250519*
Y248957*
X444322Y248019*
X444549Y247394*
X445004Y246769*
X445458Y246457*
X446367*
X446822Y246769*
X447276Y247394*
X447504Y248019*
X449549Y251769D02*
X450004Y252082D01*
X450685Y253019*
Y246457*
X546063Y314437D02*
Y307874D01*
Y314437D02*
X547654D01*
X548336Y314124*
X548790Y313499*
X549018Y312874*
X549245Y311937*
Y310374*
X549018Y309437*
X548790Y308812*
X548336Y308187*
X547654Y307874*
X546063*
X551745Y314437D02*
X554245D01*
X552881Y311937*
X553563*
X554018Y311624*
X554245Y311312*
X554472Y310374*
Y309749*
X554245Y308812*
X553790Y308187*
X553108Y307874*
X552427*
X551745Y308187*
X551518Y308499*
X551290Y309124*
X326378Y353019D02*
Y346457D01*
Y353019D02*
X328423D01*
X329105Y352707*
X329332Y352394*
X329332D02*
X329560Y351769D01*
Y351144*
X329332Y350519*
X329332D02*
X329105Y350207D01*
X328423Y349894*
X326378*
X327969D02*
X329560Y346457D01*
X331605Y348957D02*
X334332D01*
X334332D02*
Y349582D01*
X334332D02*
X334105Y350207D01*
X333878Y350519*
X333423Y350832*
X332742*
X332287Y350519*
X331832Y349894*
X331832D02*
X331605Y348957D01*
Y348332*
X331832Y347394*
X331832D02*
X332287Y346769D01*
X332742Y346457*
X333423*
X333878Y346769*
X334332Y347394*
X338196Y353019D02*
X337742D01*
X337287Y352707*
X337060Y351769*
Y346457*
X336378Y350832D02*
X337969D01*
X273885Y367717D02*
X269198D01*
X268260Y367489*
X267635Y367035*
X267323Y366353*
Y365898*
X267635Y365217*
X268260Y364762*
X269198Y364535*
X273885*
Y360671D02*
X267323Y362489D01*
X273885Y360671D02*
X267323Y358853D01*
X269510Y361807D02*
Y359535D01*
X273885Y356807D02*
X267323D01*
X273885D02*
Y354762D01*
X273573Y354080*
X273260Y353853*
X272635Y353626*
X272010*
X271385Y353853*
X271073Y354080*
X270760Y354762*
Y356807*
Y355217D02*
X267323Y353626D01*
X273885Y349989D02*
X267323D01*
X273885Y351580D02*
Y348398D01*
X272323Y340898D02*
X272635D01*
X273260Y340671*
X273573Y340444*
X273885Y339989*
Y339080*
X273573Y338626*
X273260Y338398*
X272635Y338171*
X272010*
X271385Y338398*
X270448Y338853*
X267323Y341126*
Y337944*
X127429Y280315D02*
X122741D01*
X121804Y280088*
X121179Y279633*
X120866Y278951*
Y278497*
X121179Y277815*
X121804Y277360*
X122741Y277133*
X127429*
Y273270D02*
X120866Y275088D01*
X127429Y273270D02*
X120866Y271451D01*
X123054Y274406D02*
Y272133D01*
X127429Y269406D02*
X120866D01*
X127429D02*
Y267360D01*
X127116Y266679*
X126804Y266451*
X126179Y266224*
X125554*
X124929Y266451*
X124616Y266679*
X124304Y267360*
Y269406*
Y267815D02*
X120866Y266224D01*
X127429Y262588D02*
X120866D01*
X127429Y264179D02*
Y260997D01*
X126179Y253724D02*
X126491Y253270D01*
X127429Y252588*
X120866*
X743701Y500263D02*
Y493701D01*
Y500263D02*
X746655D01*
X743701Y497138D02*
X745519D01*
X753928Y499013D02*
X754383Y499326D01*
X755064Y500263*
Y493701*
X205467Y544926D02*
X205013Y544614D01*
X204558Y543989*
X204331Y543051*
Y542426*
X204558Y541489*
X205013Y540864*
X205467Y540551*
X206149*
X206603Y540864*
X207058Y541489*
X207285Y542426*
Y543051*
X207058Y543989*
X206603Y544614*
X206149Y544926*
X205467*
X209331D02*
Y538364D01*
Y543989D02*
X209785Y544614D01*
X210240Y544926*
X210922*
X211376Y544614*
X211831Y543989*
X212058Y543051*
Y542426*
X211831Y541489*
X211376Y540864*
X210922Y540551*
X210240*
X209785Y540864*
X209331Y541489*
X214103Y543051D02*
X216831D01*
Y543676*
X216603Y544301*
X216376Y544614*
X215922Y544926*
X215240*
X214785Y544614*
X214331Y543989*
X214103Y543051*
Y542426*
X214331Y541489*
X214785Y540864*
X215240Y540551*
X215922*
X216376Y540864*
X216831Y541489*
X218876Y544926D02*
Y540551D01*
Y543676D02*
X219558Y544614D01*
X220013Y544926*
X220694*
X221149Y544614*
X221376Y543676*
Y540551*
X223422Y544926D02*
Y538364D01*
Y543989D02*
X223876Y544614D01*
X224331Y544926*
X225013*
X225467Y544614*
X225922Y543989*
X226149Y543051*
Y542426*
X225922Y541489*
X225467Y540864*
X225013Y540551*
X224331*
X223876Y540864*
X223422Y541489*
X229331Y544926D02*
X228876Y544614D01*
X228422Y543989*
X228194Y543051*
Y542426*
X228422Y541489*
X228876Y540864*
X229331Y540551*
X230013*
X230467Y540864*
X230922Y541489*
X231149Y542426*
Y543051*
X230922Y543989*
X230467Y544614*
X230013Y544926*
X229331*
X233194D02*
X234103Y540551D01*
X235013Y544926D02*
X234103Y540551D01*
X235013Y544926D02*
X235922Y540551D01*
X236831Y544926D02*
X235922Y540551D01*
X238876Y543051D02*
X241603D01*
Y543676*
X241376Y544301*
X241149Y544614*
X240694Y544926*
X240013*
X239558Y544614*
X239103Y543989*
X238876Y543051*
Y542426*
X239103Y541489*
X239558Y540864*
X240013Y540551*
X240694*
X241149Y540864*
X241603Y541489*
X243649Y544926D02*
Y540551D01*
Y543051D02*
X243876Y543989D01*
X244331Y544614*
X244785Y544926*
X245467*
X250240D02*
Y538364D01*
Y543989D02*
X249785Y544614D01*
X249331Y544926*
X248649*
X248194Y544614*
X247740Y543989*
X247513Y543051*
Y542426*
X247740Y541489*
X248194Y540864*
X248649Y540551*
X249331*
X249785Y540864*
X250240Y541489*
X252285Y544926D02*
Y541801D01*
X252513Y540864*
X252967Y540551*
X253649*
X254103Y540864*
X254785Y541801*
Y544926D02*
Y540551D01*
X259558Y544926D02*
Y540551D01*
Y543989D02*
X259103Y544614D01*
X258649Y544926*
X257967*
X257513Y544614*
X257058Y543989*
X256831Y543051*
Y542426*
X257058Y541489*
X257513Y540864*
X257967Y540551*
X258649*
X259103Y540864*
X259558Y541489*
X261603Y547114D02*
Y540551D01*
X263649Y547114D02*
X263876Y546801D01*
X264103Y547114*
X263876Y547426*
X263649Y547114*
X263876Y544926D02*
Y540551D01*
X266831Y547114D02*
Y541801D01*
X267058Y540864*
X267513Y540551*
X267967*
X266149Y544926D02*
X267740D01*
X270240D02*
X271603Y540551D01*
X272967Y544926D02*
X271603Y540551D01*
X271149Y539301*
X270694Y538676*
X270240Y538364*
X270013*
X275240Y541176D02*
X275013Y540864D01*
X275240Y540551*
X275467Y540864*
X275240Y541176*
X278649Y544926D02*
X278194Y544614D01*
X277740Y543989*
X277513Y543051*
Y542426*
X277740Y541489*
X278194Y540864*
X278649Y540551*
X279331*
X279785Y540864*
X280240Y541489*
X280467Y542426*
Y543051*
X280240Y543989*
X279785Y544614*
X279331Y544926*
X278649*
X282513D02*
Y540551D01*
Y543051D02*
X282740Y543989D01*
X283194Y544614*
X283649Y544926*
X284331*
X289103D02*
Y539926D01*
X288876Y538989*
X288649Y538676*
X288194Y538364*
X287513*
X287058Y538676*
X289103Y543989D02*
X288649Y544614D01*
X288194Y544926*
X287513*
X287058Y544614*
X286603Y543989*
X286376Y543051*
Y542426*
X286603Y541489*
X287058Y540864*
X287513Y540551*
X288194*
X288649Y540864*
X289103Y541489*
X205694Y537271D02*
X205240Y536959D01*
X204785Y536334*
X204558Y535709*
X204331Y534771*
Y533209*
X204558Y532271*
X204785Y531646*
X205240Y531021*
X205694Y530709*
X206603*
X207058Y531021*
X207513Y531646*
X207740Y532271*
X207967Y533209*
Y534771*
X207740Y535709*
X207513Y536334*
X207058Y536959*
X206603Y537271*
X205694*
X210013D02*
Y530709D01*
Y537271D02*
X212058D01*
X212740Y536959*
X212967Y536646*
X213194Y536021*
Y535084*
X212967Y534459*
X212740Y534146*
X212058Y533834*
X210013*
X216603Y537271D02*
X216149Y536959D01*
X215694Y536334*
X215467Y535709*
X215240Y534771*
Y533209*
X215467Y532271*
X215694Y531646*
X216149Y531021*
X216603Y530709*
X217513*
X217967Y531021*
X218422Y531646*
X218649Y532271*
X218876Y533209*
Y534771*
X218649Y535709*
X218422Y536334*
X217967Y536959*
X217513Y537271*
X216603*
X217285Y531959D02*
X218649Y530084D01*
X220922Y537271D02*
Y530709D01*
Y537271D02*
X222967D01*
X223649Y536959*
X223876Y536646*
X224103Y536021*
Y535396*
X223876Y534771*
X223649Y534459*
X222967Y534146*
X220922D02*
X222967D01*
X223649Y533834*
X223876Y533521*
X224103Y532896*
Y531959*
X223876Y531334*
X223649Y531021*
X222967Y530709*
X220922*
X227285Y535084D02*
X226831Y534771D01*
X226376Y534146*
X226149Y533209*
Y532584*
X226376Y531646*
X226831Y531021*
X227285Y530709*
X227967*
X228422Y531021*
X228876Y531646*
X229103Y532584*
Y533209*
X228876Y534146*
X228422Y534771*
X227967Y535084*
X227285*
X231149D02*
X233649Y530709D01*
Y535084D02*
X231149Y530709D01*
X241149Y535709D02*
Y536021D01*
X241376Y536646*
X241603Y536959*
X242058Y537271*
X242967*
X243422Y536959*
X243649Y536646*
X243876Y536021*
Y535396*
X243649Y534771*
X243194Y533834*
X240922Y530709*
X244103*
X605906Y523885D02*
Y517323D01*
X609087Y523885D02*
Y517323D01*
X605906Y520760D02*
X609087D01*
X611133Y523885D02*
X611360Y523573D01*
X611587Y523885*
X611360Y524198*
X611133Y523885*
X611360Y521698D02*
Y517323D01*
X616360Y521698D02*
Y516698D01*
X616133Y515760*
X615906Y515448*
X615451Y515135*
X614769*
X614315Y515448*
X616360Y520760D02*
X615906Y521385D01*
X615451Y521698*
X614769*
X614315Y521385*
X613860Y520760*
X613633Y519823*
Y519198*
X613860Y518260*
X614315Y517635*
X614769Y517323*
X615451*
X615906Y517635*
X616360Y518260*
X618406Y523885D02*
Y517323D01*
Y520448D02*
X619087Y521385D01*
X619542Y521698*
X620224*
X620678Y521385*
X620906Y520448*
Y517323*
X628178Y523885D02*
X629996Y517323D01*
X631815Y523885D02*
X629996Y517323D01*
X634996Y521698D02*
X634542Y521385D01*
X634087Y520760*
X633860Y519823*
Y519198*
X634087Y518260*
X634542Y517635*
X634996Y517323*
X635678*
X636133Y517635*
X636587Y518260*
X636815Y519198*
Y519823*
X636587Y520760*
X636133Y521385*
X635678Y521698*
X634996*
X638860Y523885D02*
Y517323D01*
X641587Y523885D02*
Y518573D01*
X641815Y517635*
X642269Y517323*
X642724*
X640906Y521698D02*
X642496D01*
X647496D02*
Y517323D01*
Y520760D02*
X647042Y521385D01*
X646587Y521698*
X645906*
X645451Y521385*
X644996Y520760*
X644769Y519823*
Y519198*
X644996Y518260*
X645451Y517635*
X645906Y517323*
X646587*
X647042Y517635*
X647496Y518260*
X652269Y521698D02*
Y516698D01*
X652042Y515760*
X651815Y515448*
X651360Y515135*
X650678*
X650224Y515448*
X652269Y520760D02*
X651815Y521385D01*
X651360Y521698*
X650678*
X650224Y521385*
X649769Y520760*
X649542Y519823*
Y519198*
X649769Y518260*
X650224Y517635*
X650678Y517323*
X651360*
X651815Y517635*
X652269Y518260*
X654315Y519823D02*
X657042D01*
Y520448*
X656815Y521073*
X656587Y521385*
X656133Y521698*
X655451*
X654996Y521385*
X654542Y520760*
X654315Y519823*
Y519198*
X654542Y518260*
X654996Y517635*
X655451Y517323*
X656133*
X656587Y517635*
X657042Y518260*
X659315Y523885D02*
Y519510D01*
Y517948D02*
X659087Y517635D01*
X659315Y517323*
X659542Y517635*
X659315Y517948*
X787008Y398295D02*
Y391732D01*
Y398295D02*
X790190Y391732D01*
Y398295D02*
Y391732D01*
X787795Y453807D02*
Y447244D01*
X790523*
X0Y0D02*
M02*
