*
*
G04 PADS 9.5 Build Number: 522968 generated Gerber (RS-274-X) file*
G04 PC Version=2.1*
*
%IN "opqbox2.pcb"*%
*
%MOIN*%
*
%FSLAX35Y35*%
*
*
*
*
G04 PC Standard Apertures*
*
*
G04 Thermal Relief Aperture macro.*
%AMTER*
1,1,$1,0,0*
1,0,$1-$2,0,0*
21,0,$3,$4,0,0,45*
21,0,$3,$4,0,0,135*
%
*
*
G04 Annular Aperture macro.*
%AMANN*
1,1,$1,0,0*
1,0,$2,0,0*
%
*
*
G04 Odd Aperture macro.*
%AMODD*
1,1,$1,0,0*
1,0,$1-0.005,0,0*
%
*
*
G04 PC Custom Aperture Macros*
*
*
*
*
*
*
G04 PC Aperture Table*
*
%ADD010C,0.001*%
%ADD011C,0.00787*%
%ADD012C,0.005*%
%ADD013C,0.01*%
*
*
*
*
G04 PC Circuitry*
G04 Layer Name opqbox2.pcb - circuitry*
%LPD*%
*
*
G04 PC Custom Flashes*
G04 Layer Name opqbox2.pcb - flashes*
%LPD*%
*
*
G04 PC Circuitry*
G04 Layer Name opqbox2.pcb - circuitry*
%LPD*%
*
G54D10*
G54D11*
G01X651083Y334350D02*
Y308169D01*
X677264*
Y321752*
X676280Y322244*
X677264Y322736*
Y334350*
X651083*
X782185Y261555D02*
X778223D01*
Y262293*
X777092*
Y261555*
X773130*
Y273366*
X782185*
Y261555*
X829134Y324803D02*
X837057D01*
Y323031*
X839321*
Y324803*
X847244*
Y296457*
X829134*
Y324803*
X854232Y255807D02*
X840194D01*
Y257247*
X836184*
Y255807*
X822146*
Y278839*
X854232*
Y255807*
G54D12*
X1085039Y262336D02*
Y259055D01*
X1086403*
X1087426Y262336D02*
Y259055D01*
X1088448Y262336D02*
Y259055D01*
Y262336D02*
X1090039Y259055D01*
Y262336D02*
Y259055D01*
X1091062Y262336D02*
Y259055D01*
Y262336D02*
X1092539D01*
X1091062Y260774D02*
X1091971D01*
X1091062Y259055D02*
X1092539D01*
X1035827Y262927D02*
Y259646D01*
Y262927D02*
X1037418Y259646D01*
Y262927D02*
Y259646D01*
X1038440Y262927D02*
Y259646D01*
Y262927D02*
X1039918D01*
X1038440Y261364D02*
X1039350D01*
X1038440Y259646D02*
X1039918D01*
X1040940Y262927D02*
Y260583D01*
X1041054Y260114*
X1041281Y259802*
X1041622Y259646*
X1041850*
X1041850D02*
X1042190Y259802D01*
X1042418Y260114*
X1042531Y260583*
Y262927*
X1044350D02*
Y259646D01*
X1043554Y262927D02*
X1045145D01*
X1046168D02*
Y259646D01*
Y262927D02*
X1047190D01*
X1047531Y262771*
X1047645Y262614*
X1047759Y262302*
Y261989*
X1047645Y261677*
X1047531Y261521*
X1047190Y261364*
X1046168*
X1046963D02*
X1047759Y259646D01*
X1049690Y262927D02*
X1048781Y259646D01*
X1049690Y262927D02*
X1050600Y259646D01*
X1049122Y260739D02*
X1050259D01*
X1051622Y262927D02*
Y259646D01*
X1052986*
G54D13*
X708815Y245688D02*
Y251488D01*
X701815*
Y245688*
X708815Y243288D02*
Y237488D01*
X701815*
Y243288*
X690398Y257265D02*
Y251465D01*
X697398*
Y257265*
X690398Y259665D02*
Y265465D01*
X697398*
Y259665*
Y245688D02*
Y251488D01*
X690398*
Y245688*
X697398Y243288D02*
Y237488D01*
X690398*
Y243288*
X701815Y257265D02*
Y251465D01*
X708815*
Y257265*
X701815Y259665D02*
Y265465D01*
X708815*
Y259665*
X643129Y337445D02*
X648929D01*
Y344445*
X643129*
X640729Y337445D02*
X634929D01*
Y344445*
X640729*
X594272Y301925D02*
X588472D01*
Y294925*
X594272*
X596672Y301925D02*
X602472D01*
Y294925*
X596672*
X594469Y339327D02*
X588669D01*
Y332327*
X594469*
X596869Y339327D02*
X602669D01*
Y332327*
X596869*
X495429Y323050D02*
Y328850D01*
X488429*
Y323050*
X495429Y320650D02*
Y314850D01*
X488429*
Y320650*
X668288Y301138D02*
X662488D01*
Y294138*
X668288*
X670688Y301138D02*
X676488D01*
Y294138*
X670688*
X683839Y304091D02*
X678039D01*
Y297091*
X683839*
X686239Y304091D02*
X692039D01*
Y297091*
X686239*
X660246Y422528D02*
X668296D01*
Y436528*
X660246*
X652746Y422528D02*
X644696D01*
Y436528*
X652746*
X668996Y422717D02*
Y412717D01*
X643996*
Y422717*
X668996*
X493091Y314327D02*
X487291D01*
Y307327*
X493091*
X495491Y314327D02*
X501291D01*
Y307327*
X495491*
X656871Y347398D02*
X651071D01*
Y340398*
X656871*
X659271Y347398D02*
X665071D01*
Y340398*
X659271*
X814020Y245257D02*
Y239457D01*
X821020*
Y245257*
X814020Y247657D02*
Y253457D01*
X821020*
Y247657*
X792780Y303236D02*
Y305736D01*
X787780*
X792780Y297236D02*
Y294736D01*
X787780*
X783780Y300736D02*
Y299736D01*
X814389Y305752D02*
X820189D01*
Y312752*
X814389*
X811989Y305752D02*
X806189D01*
Y312752*
X811989*
X814389Y297878D02*
X820189D01*
Y304878*
X814389*
X811989Y297878D02*
X806189D01*
Y304878*
X811989*
X643350Y368879D02*
Y363079D01*
X650350*
Y368879*
X643350Y371279D02*
Y377079D01*
X650350*
Y371279*
X632917Y368682D02*
Y362882D01*
X639917*
Y368682*
X632917Y371082D02*
Y376882D01*
X639917*
Y371082*
X599563D02*
Y376882D01*
X592563*
Y371082*
X599563Y368682D02*
Y362882D01*
X592563*
Y368682*
X602406D02*
Y362882D01*
X609406*
Y368682*
X602406Y371082D02*
Y376882D01*
X609406*
Y371082*
X589720D02*
Y376882D01*
X582720*
Y371082*
X589720Y368682D02*
Y362882D01*
X582720*
Y368682*
X630075Y371082D02*
Y376882D01*
X623075*
Y371082*
X630075Y368682D02*
Y362882D01*
X623075*
Y368682*
X580272Y371082D02*
Y376882D01*
X573272*
Y371082*
X580272Y368682D02*
Y362882D01*
X573272*
Y368682*
X570429Y371082D02*
Y376882D01*
X563429*
Y371082*
X570429Y368682D02*
Y362882D01*
X563429*
Y368682*
X620035Y371082D02*
Y376882D01*
X613035*
Y371082*
X620035Y368682D02*
Y362882D01*
X613035*
Y368682*
X625000Y433465D02*
X640748D01*
Y413780*
X625000*
X609252Y433465D02*
X593504D01*
Y413780*
X609252*
X691811Y412303D02*
X681811D01*
Y437303*
X691811*
Y412303*
X714754Y323142D02*
X706704D01*
Y309142*
X714754*
X722254Y323142D02*
X730304D01*
Y309142*
X722254*
X716742Y341031D02*
X724792D01*
Y355031*
X716742*
X709242Y341031D02*
X701192D01*
Y355031*
X709242*
X719748Y336071D02*
Y338571D01*
X714748*
X719748Y330071D02*
Y327571D01*
X714748*
X710748Y333571D02*
Y332571D01*
X782720Y252343D02*
Y246543D01*
X789720*
Y252343*
X782720Y254743D02*
Y260543D01*
X789720*
Y254743*
X765398Y252343D02*
Y246543D01*
X772398*
Y252343*
X765398Y254743D02*
Y260543D01*
X772398*
Y254743*
X788995Y307130D02*
X794795D01*
Y314130*
X788995*
X786595Y307130D02*
X780795D01*
Y314130*
X786595*
X798382Y268523D02*
Y274323D01*
X791382*
Y268523*
X798382Y266123D02*
Y260323D01*
X791382*
Y266123*
X807106Y267169D02*
X812906D01*
Y274169*
X807106*
X804706Y267169D02*
X798906D01*
Y274169*
X804706*
X807106Y260280D02*
X812906D01*
Y267280*
X807106*
X804706Y260280D02*
X798906D01*
Y267280*
X804706*
X921260Y378740D02*
X741339D01*
Y478740*
X921260*
Y378740*
X726291Y427766D02*
Y435816D01*
X712291*
Y427766*
X726291Y420266D02*
Y412216D01*
X712291*
Y420266*
X873185Y268523D02*
Y274323D01*
X866185*
Y268523*
X873185Y266123D02*
Y260323D01*
X866185*
Y266123*
X1014370Y383465D02*
Y442520D01*
X955315*
Y383465*
X1014370*
X996654Y393307D02*
X973031D01*
X996654Y432677D02*
X973031D01*
X1080315Y328346D02*
X1096063D01*
Y371654*
X1080315*
Y328346*
X966339Y266102D02*
Y261102D01*
X958839Y306102D02*
X973839D01*
Y266102*
X958839*
Y306102*
X966339D02*
Y311102D01*
X997638Y307480D02*
Y312480D01*
X1005138Y267480D02*
X990138D01*
Y307480*
X1005138*
Y267480*
X997638D02*
Y262480D01*
X882696Y259886D02*
X888496D01*
Y266886*
X882696*
X880296Y259886D02*
X874496D01*
Y266886*
X880296*
X882696Y267760D02*
X888496D01*
Y274760*
X882696*
X880296Y267760D02*
X874496D01*
Y274760*
X880296*
X902244Y254823D02*
X892244D01*
Y279823*
X902244*
Y254823*
X538008Y329791D02*
Y323228D01*
X536417Y329791D02*
X539599D01*
X541645D02*
X544826Y323228D01*
Y329791D02*
X541645Y323228D01*
X536220Y320736D02*
Y314173D01*
Y320736D02*
X538266D01*
X538948Y320423*
X539175Y320111*
X539402Y319486*
Y318861*
X539175Y318236*
X538948Y317923*
X538266Y317611*
X536220*
X537811D02*
X539402Y314173D01*
X541448Y320736D02*
X544630Y314173D01*
Y320736D02*
X541448Y314173D01*
X536220Y312665D02*
Y306102D01*
Y312665D02*
X539175D01*
X536220Y309540D02*
X538039D01*
X541220Y312665D02*
Y306102D01*
X543948*
X547811Y312665D02*
X545993Y306102D01*
X547811Y312665D02*
X549630Y306102D01*
X546675Y308290D02*
X548948D01*
X555084Y311102D02*
X554857Y311727D01*
X554402Y312352*
X553948Y312665*
X553039*
X552584Y312352*
X552130Y311727*
X551902Y311102*
X551675Y310165*
Y308602*
X551902Y307665*
X552130Y307040*
X552584Y306415*
X553039Y306102*
X553948*
X554402Y306415*
X554857Y307040*
X555084Y307665*
Y308602*
X553948D02*
X555084D01*
X717783Y263780D02*
X711220D01*
X717783D02*
Y261734D01*
X717470Y261052*
X717158Y260825*
X716533Y260598*
X715595*
X714970Y260825*
X714658Y261052*
X714345Y261734*
Y263780*
X717783Y257189D02*
X717470Y257643D01*
X716845Y258098*
X716220Y258325*
X715283Y258552*
X713720*
X712783Y258325*
X712158Y258098*
X711533Y257643*
X711220Y257189*
Y256280*
X711533Y255825*
X712158Y255370*
X712783Y255143*
X713720Y254916*
X715283*
X716220Y255143*
X716845Y255370*
X717470Y255825*
X717783Y256280*
Y257189*
Y252870D02*
X711220Y251734D01*
X717783Y250598D02*
X711220Y251734D01*
X717783Y250598D02*
X711220Y249461D01*
X717783Y248325D02*
X711220Y249461D01*
X717783Y246280D02*
X711220D01*
X717783D02*
Y243325D01*
X714658Y246280D02*
Y244461D01*
X711220Y246280D02*
Y243325D01*
X717783Y241280D02*
X711220D01*
X717783D02*
Y239234D01*
X717470Y238552*
X717158Y238325*
X716533Y238098*
X715908*
X715283Y238325*
X714970Y238552*
X714658Y239234*
Y241280*
Y239689D02*
X711220Y238098D01*
X686727Y261582D02*
X687352Y262037D01*
X687665Y262718*
Y263627*
X687352Y264309*
X686727Y264764*
X686102*
X685477Y264537*
X685165Y264309*
X684852Y263855*
X684227Y262491*
X683915Y262037*
X683602Y261809*
X682977Y261582*
X682040*
X681415Y262037*
X681102Y262718*
Y263627*
X681415Y264309*
X682040Y264764*
X687665Y258855D02*
X682352D01*
X681415Y258627*
X681102Y258173*
Y257718*
X685477Y259537D02*
Y257946D01*
Y252946D02*
X681102D01*
X684540D02*
X685165Y253400D01*
X685477Y253855*
Y254537*
X685165Y254991*
X684540Y255446*
X683602Y255673*
X682977*
X682040Y255446*
X681415Y254991*
X681102Y254537*
Y253855*
X681415Y253400*
X682040Y252946*
X687665Y250218D02*
X682352D01*
X681415Y249991*
X681102Y249537*
Y249082*
X685477Y250900D02*
Y249309D01*
Y247037D02*
X682352D01*
X681415Y246809*
X681102Y246355*
Y245673*
X681415Y245218*
X682352Y244537*
X685477D02*
X681102D01*
X684540Y239991D02*
X685165Y240218D01*
X685477Y240900*
Y241582*
X685165Y242264*
X684540Y242491*
X683915Y242264*
X683602Y241809*
X683290Y240673*
X682977Y240218*
X682352Y239991*
X682040*
X681415Y240218*
X681102Y240900*
Y241582*
X681415Y242264*
X682040Y242491*
X557466Y269751D02*
X557011Y269439D01*
X556557Y268814*
X556330Y268189*
X556102Y267251*
Y265689*
X556330Y264751*
X556557Y264126*
X557011Y263501*
X557466Y263189*
X558375*
X558830Y263501*
X559284Y264126*
X559511Y264751*
X559739Y265689*
Y267251*
X559511Y268189*
X559284Y268814*
X558830Y269439*
X558375Y269751*
X557466*
X561784D02*
Y263189D01*
Y269751D02*
X563830D01*
X564511Y269439*
X564739Y269126*
X564966Y268501*
Y267564*
X564739Y266939*
X564511Y266626*
X563830Y266314*
X561784*
X568375Y269751D02*
X567921Y269439D01*
X567466Y268814*
X567239Y268189*
X567011Y267251*
Y265689*
X567239Y264751*
X567466Y264126*
X567921Y263501*
X568375Y263189*
X569284*
X569739Y263501*
X570193Y264126*
X570421Y264751*
X570648Y265689*
Y267251*
X570421Y268189*
X570193Y268814*
X569739Y269439*
X569284Y269751*
X568375*
X569057Y264439D02*
X570421Y262564D01*
X572693Y269751D02*
Y263189D01*
Y269751D02*
X574739D01*
X575421Y269439*
X575648Y269126*
X575875Y268501*
Y267876*
X575648Y267251*
X575421Y266939*
X574739Y266626*
X572693D02*
X574739D01*
X575421Y266314*
X575648Y266001*
X575875Y265376*
Y264439*
X575648Y263814*
X575421Y263501*
X574739Y263189*
X572693*
X579284Y269751D02*
X578830Y269439D01*
X578375Y268814*
X578148Y268189*
X577921Y267251*
Y265689*
X578148Y264751*
X578375Y264126*
X578830Y263501*
X579284Y263189*
X580193*
X580648Y263501*
X581102Y264126*
X581330Y264751*
X581557Y265689*
Y267251*
X581330Y268189*
X581102Y268814*
X580648Y269439*
X580193Y269751*
X579284*
X583602D02*
X586784Y263189D01*
Y269751D02*
X583602Y263189D01*
X589057Y268189D02*
Y268501D01*
X589284Y269126*
X589511Y269439*
X589966Y269751*
X590875*
X591330Y269439*
X591557Y269126*
X591784Y268501*
Y267876*
X591557Y267251*
X591102Y266314*
X588830Y263189*
X592011*
X594284Y263814D02*
X594057Y263501D01*
X594284Y263189*
X594511Y263501*
X594284Y263814*
X599511Y269751D02*
X597239D01*
X597011Y266939*
X597239Y267251*
X597921Y267564*
X598602*
X599284Y267251*
X599739Y266626*
X599966Y265689*
X599739Y265064*
X599511Y264126*
X599057Y263501*
X598375Y263189*
X597693*
X597011Y263501*
X596784Y263814*
X596557Y264439*
X559678Y259365D02*
X559223Y259990D01*
X558542Y260303*
X557632*
X556951Y259990*
X556496Y259365*
Y258740*
X556723Y258115*
X556951Y257803*
X557405Y257490*
X558769Y256865*
X559223Y256553*
X559451Y256240*
X559678Y255615*
Y254678*
X559223Y254053*
X558542Y253740*
X557632*
X556951Y254053*
X556496Y254678*
X561723Y260303D02*
Y253740D01*
X563769Y260303D02*
Y253740D01*
Y260303D02*
X566951Y253740D01*
Y260303D02*
Y253740D01*
X574451Y258740D02*
Y259053D01*
X574678Y259678*
X574905Y259990*
X575360Y260303*
X576269*
X576723Y259990*
X576951Y259678*
X577178Y259053*
Y258428*
X576951Y257803*
X576496Y256865*
X574223Y253740*
X577405*
X580814Y260303D02*
X580132Y259990D01*
X579678Y259053*
X579451Y257490*
Y256553*
X579678Y254990*
X580132Y254053*
X580814Y253740*
X581269*
X581951Y254053*
X582405Y254990*
X582632Y256553*
Y257490*
X582405Y259053*
X581951Y259990*
X581269Y260303*
X580814*
X584678Y259053D02*
X585132Y259365D01*
X585814Y260303*
Y253740*
X590814Y260303D02*
X588542D01*
X588314Y257490*
X588542Y257803*
X589223Y258115*
X589905*
X590587Y257803*
X591042Y257178*
X591269Y256240*
X591042Y255615*
X590814Y254678*
X590360Y254053*
X589678Y253740*
X588996*
X588314Y254053*
X588087Y254365*
X587860Y254990*
X1135433Y225984D02*
X470079D01*
Y363681*
X542717*
Y477362*
X1135433Y477953*
Y225984*
X497638Y245669D02*
G75*
G03X497638I-7874J0D01*
G01X568504Y458268D02*
G03X568504I-7874J0D01*
G01X1119685D02*
G03X1119685I-7874J0D01*
G01Y245669D02*
G03X1119685I-7874J0D01*
G74*
G01X0Y0D02*
M02*
