*
*
G04 PADS 9.5 Build Number: 522968 generated Gerber (RS-274-X) file*
G04 PC Version=2.1*
*
%IN "opqbox2.pcb"*%
*
%MOIN*%
*
%FSLAX35Y35*%
*
*
*
*
G04 PC Standard Apertures*
*
*
G04 Thermal Relief Aperture macro.*
%AMTER*
1,1,$1,0,0*
1,0,$1-$2,0,0*
21,0,$3,$4,0,0,45*
21,0,$3,$4,0,0,135*
%
*
*
G04 Annular Aperture macro.*
%AMANN*
1,1,$1,0,0*
1,0,$2,0,0*
%
*
*
G04 Odd Aperture macro.*
%AMODD*
1,1,$1,0,0*
1,0,$1-0.005,0,0*
%
*
*
G04 PC Custom Aperture Macros*
*
*
*
*
*
*
G04 PC Aperture Table*
*
%ADD010C,0.001*%
%ADD011C,0.00787*%
%ADD012C,0.005*%
%ADD013C,0.01*%
*
*
*
*
G04 PC Circuitry*
G04 Layer Name opqbox2.pcb - circuitry*
%LPD*%
*
*
G04 PC Custom Flashes*
G04 Layer Name opqbox2.pcb - flashes*
%LPD*%
*
*
G04 PC Circuitry*
G04 Layer Name opqbox2.pcb - circuitry*
%LPD*%
*
G54D10*
G54D11*
G01X1766817Y1405945D02*
X1766472D01*
Y1406659*
X1766374*
Y1405945*
X1766029*
Y1417363*
X1766817*
Y1405945*
X1718058Y1428687D02*
X1704020D01*
Y1430126*
X1700009*
Y1428687*
X1685971*
Y1451718*
X1718058*
Y1428687*
X1632138Y1434095D02*
X1628176D01*
Y1434833*
X1627045*
Y1434095*
X1623083*
Y1445906*
X1632138*
Y1434095*
X1523917Y1469587D02*
X1550098D01*
Y1495768*
X1536516*
X1536024Y1494783*
X1535531Y1495768*
X1523917*
Y1469587*
X1488646Y1607906D02*
X1488646D01*
Y1607512*
X1488646*
Y1607906*
X1488646*
Y1601606*
X1488646*
Y1607906*
X1557283Y1533661D02*
Y1527977D01*
X1556029*
Y1526353*
X1557283*
Y1520669*
X1537205*
Y1533661*
X1557283*
G54D12*
X1459140Y1608748D02*
X1456796D01*
X1456327Y1608634*
X1456015Y1608407*
X1455858Y1608066*
Y1607839*
X1456015Y1607498*
X1456327Y1607271*
X1456796Y1607157*
X1459140*
X1458671Y1604771D02*
X1458983Y1604884D01*
X1459140Y1605225*
Y1605453*
X1458983Y1605793*
X1458515Y1606021*
X1457733Y1606134*
X1456952*
X1456327Y1606021*
X1456015Y1605793*
X1455858Y1605453*
Y1605339*
X1456015Y1604998*
X1456327Y1604771*
X1456796Y1604657*
X1456952*
X1457421Y1604771*
X1457733Y1604998*
X1457890Y1605339*
Y1605453*
X1457733Y1605793*
X1457421Y1606021*
X1456952Y1606134*
G54D13*
X1921742Y1449741D02*
Y1454741D01*
X1929242Y1409741D02*
X1914242D01*
Y1449741*
X1929242*
Y1409741*
X1921742D02*
Y1404741D01*
X1891614Y1435000D02*
X1881614D01*
X1891614Y1434000D02*
X1881614D01*
X1886614Y1420000D02*
Y1415000D01*
X1881614Y1440000D02*
X1891614D01*
Y1420000*
X1881614*
Y1440000*
X1886614D02*
Y1446000D01*
X1891614Y1436000D02*
X1881614D01*
X1766161Y1421697D02*
X1771961D01*
Y1428697*
X1766161*
X1763761Y1421697D02*
X1757961D01*
Y1428697*
X1763761*
X1778783Y1403524D02*
Y1397724D01*
X1785783*
Y1403524*
X1778783Y1405924D02*
Y1411724D01*
X1785783*
Y1405924*
X2118514Y1513620D02*
X2067727D01*
Y1623856*
X2118514*
Y1513620*
X1754873Y1433077D02*
X1760673D01*
Y1440077*
X1754873*
X1752473Y1433077D02*
X1746673D01*
Y1440077*
X1752473*
X1741766Y1441855D02*
Y1447655D01*
X1734766*
Y1441855*
X1741766Y1439455D02*
Y1433655D01*
X1734766*
Y1439455*
X1796850Y1447638D02*
Y1442638D01*
X1789350Y1487638D02*
X1804350D01*
Y1447638*
X1789350*
Y1487638*
X1796850D02*
Y1492638D01*
X1891732Y1537008D02*
Y1542008D01*
X1899232Y1497008D02*
X1884232D01*
Y1537008*
X1899232*
Y1497008*
X1891732D02*
Y1492008D01*
X1919291Y1496063D02*
Y1491063D01*
X1911791Y1536063D02*
X1926791D01*
Y1496063*
X1911791*
Y1536063*
X1919291D02*
Y1541063D01*
X1946850Y1537008D02*
Y1542008D01*
X1954350Y1497008D02*
X1939350D01*
Y1537008*
X1954350*
Y1497008*
X1946850D02*
Y1492008D01*
X1556500Y1545768D02*
X1543500D01*
Y1570768*
X1556500*
Y1545768*
X1558249Y1583815D02*
X1552449D01*
Y1576815*
X1558249*
X1560649Y1583815D02*
X1566449D01*
Y1576815*
X1560649*
X1570122Y1551556D02*
Y1545756D01*
X1577122*
Y1551556*
X1570122Y1553956D02*
Y1559756D01*
X1577122*
Y1553956*
X1439059Y1525662D02*
X1433259D01*
Y1518662*
X1439059*
X1441459Y1525662D02*
X1447259D01*
Y1518662*
X1441459*
X1436285Y1546482D02*
Y1552282D01*
X1429285*
Y1546482*
X1436285Y1544082D02*
Y1538282D01*
X1429285*
Y1544082*
X1445383Y1536472D02*
Y1542272D01*
X1438383*
Y1536472*
X1445383Y1534072D02*
Y1528272D01*
X1438383*
Y1534072*
X1490594Y1429902D02*
Y1424102D01*
X1497594*
Y1429902*
X1490594Y1432302D02*
Y1438102D01*
X1497594*
Y1432302*
X1500437Y1429902D02*
Y1424102D01*
X1507437*
Y1429902*
X1500437Y1432302D02*
Y1438102D01*
X1507437*
Y1432302*
X1525240Y1394469D02*
Y1388669D01*
X1532240*
Y1394469*
X1525240Y1396869D02*
Y1402669D01*
X1532240*
Y1396869*
X1563429Y1395257D02*
Y1389457D01*
X1570429*
Y1395257*
X1563429Y1397657D02*
Y1403457D01*
X1570429*
Y1397657*
X1509886Y1596438D02*
Y1590638D01*
X1516886*
Y1596438*
X1509886Y1598838D02*
Y1604638D01*
X1516886*
Y1598838*
X1509886Y1609824D02*
Y1604024D01*
X1516886*
Y1609824*
X1509886Y1612224D02*
Y1618024D01*
X1516886*
Y1612224*
X1503956Y1604374D02*
X1509756D01*
Y1611374*
X1503956*
X1501556Y1604374D02*
X1495756D01*
Y1611374*
X1501556*
Y1604287D02*
X1495756D01*
Y1597287*
X1501556*
X1503956Y1604287D02*
X1509756D01*
Y1597287*
X1503956*
X1605099Y1510587D02*
X1599299D01*
Y1503587*
X1605099*
X1607499Y1510587D02*
X1613299D01*
Y1503587*
X1607499*
X1673972Y1476003D02*
Y1481803D01*
X1666972*
Y1476003*
X1673972Y1473603D02*
Y1467803D01*
X1666972*
Y1473603*
X1647681Y1472816D02*
Y1467016D01*
X1654681*
Y1472816*
X1647681Y1475216D02*
Y1481016D01*
X1654681*
Y1475216*
X1640594Y1472816D02*
Y1467016D01*
X1647594*
Y1472816*
X1640594Y1475216D02*
Y1481016D01*
X1647594*
Y1475216*
X1510587Y1532696D02*
Y1538496D01*
X1503587*
Y1532696*
X1510587Y1530296D02*
Y1524496D01*
X1503587*
Y1530296*
X1503500Y1532696D02*
Y1538496D01*
X1496500*
Y1532696*
X1503500Y1530296D02*
Y1524496D01*
X1496500*
Y1530296*
X1990945Y1461811D02*
X1985945D01*
X2030945Y1469311D02*
Y1454311D01*
X1990945*
Y1469311*
X2030945*
Y1461811D02*
X2035945D01*
X1496413Y1532696D02*
Y1538496D01*
X1489413*
Y1532696*
X1496413Y1530296D02*
Y1524496D01*
X1489413*
Y1530296*
X2045945Y1499026D02*
Y1507076D01*
X2035945*
Y1499026*
X2045945Y1491526D02*
Y1483476D01*
X2035945*
Y1491526*
X1664272Y1432404D02*
X1670072D01*
Y1439404*
X1664272*
X1661872Y1432404D02*
X1656072D01*
Y1439404*
X1661872*
X1664272Y1440278D02*
X1670072D01*
Y1447278*
X1664272*
X1661872Y1440278D02*
X1656072D01*
Y1447278*
X1661872*
X1654761Y1441041D02*
Y1446841D01*
X1647761*
Y1441041*
X1654761Y1438641D02*
Y1432841D01*
X1647761*
Y1438641*
X1754780Y1441915D02*
X1760580D01*
Y1448915*
X1754780*
X1752380Y1441915D02*
X1746580D01*
Y1448915*
X1752380*
X1605099Y1502560D02*
X1599299D01*
Y1495560*
X1605099*
X1607499Y1502560D02*
X1613299D01*
Y1495560*
X1607499*
X1978159Y1541063D02*
X1986209D01*
Y1551063*
X1978159*
X1970659Y1541063D02*
X1962609D01*
Y1551063*
X1970659*
X1605004Y1517514D02*
X1599204D01*
Y1510514*
X1605004*
X1607404Y1517514D02*
X1613204D01*
Y1510514*
X1607404*
X2157452Y1504781D02*
Y1496731D01*
X2167452*
Y1504781*
X2157452Y1512281D02*
Y1520331D01*
X2167452*
Y1512281*
X1503587Y1546044D02*
Y1540244D01*
X1510587*
Y1546044*
X1503587Y1548444D02*
Y1554244D01*
X1510587*
Y1548444*
X1489413Y1546044D02*
Y1540244D01*
X1496413*
Y1546044*
X1489413Y1548444D02*
Y1554244D01*
X1496413*
Y1548444*
X1496500Y1546044D02*
Y1540244D01*
X1503500*
Y1546044*
X1496500Y1548444D02*
Y1554244D01*
X1503500*
Y1548444*
X1757043Y1412224D02*
Y1418024D01*
X1750043*
Y1412224*
X1757043Y1409824D02*
Y1404024D01*
X1750043*
Y1409824*
X1848642Y1464475D02*
Y1454475D01*
X1849642Y1464475D02*
Y1454475D01*
X1863642Y1459475D02*
X1868642D01*
X1843642Y1454475D02*
Y1464475D01*
X1863642*
Y1454475*
X1843642*
Y1459475D02*
X1837642D01*
X1847642Y1464475D02*
Y1454475D01*
X1775215Y1444194D02*
Y1439507D01*
X1775442Y1438569*
X1775897Y1437944*
X1776579Y1437632*
X1777033*
X1777715Y1437944*
X1778170Y1438569*
X1778397Y1439507*
Y1444194*
X1783397Y1442007D02*
X1783170Y1441069D01*
X1782715Y1440444*
X1782033Y1440132*
X1781806*
X1781124Y1440444*
X1780670Y1441069*
X1780442Y1442007*
Y1442319*
X1780670Y1443257*
X1781124Y1443882*
X1781806Y1444194*
X1782033*
X1782715Y1443882*
X1783170Y1443257*
X1783397Y1442007*
Y1440444*
X1783170Y1438882*
X1782715Y1437944*
X1782033Y1437632*
X1781579*
X1780897Y1437944*
X1780670Y1438569*
X1917847Y1425984D02*
X1924409D01*
X1917847D02*
Y1428030D01*
X1918159Y1428712*
X1918472Y1428939*
X1919097Y1429166*
X1919722*
X1920347Y1428939*
X1920659Y1428712*
X1920972Y1428030*
Y1425984*
Y1427575D02*
X1924409Y1429166D01*
X1919097Y1431212D02*
X1918784Y1431666D01*
X1917847Y1432348*
X1924409*
X1890027Y1430709D02*
X1883465D01*
X1890027D02*
Y1429118D01*
X1889715Y1428436*
X1889090Y1427981*
X1888465Y1427754*
X1887527Y1427527*
X1885965*
X1885027Y1427754*
X1884402Y1427981*
X1883777Y1428436*
X1883465Y1429118*
Y1430709*
X1888777Y1425481D02*
X1889090Y1425027D01*
X1890027Y1424345*
X1883465*
X1845157Y1428874D02*
X1845782Y1429102D01*
X1846407Y1429556*
X1846720Y1430011*
Y1430920*
X1846407Y1431374*
X1845782Y1431829*
X1845157Y1432056*
X1844220Y1432283*
X1842657*
X1841720Y1432056*
X1841095Y1431829*
X1840470Y1431374*
X1840157Y1430920*
Y1430011*
X1840470Y1429556*
X1841095Y1429102*
X1841720Y1428874*
X1845157Y1426602D02*
X1845470D01*
X1846095Y1426374*
X1846407Y1426147*
X1846720Y1425693*
Y1424783*
X1846407Y1424329*
X1846095Y1424102*
X1845470Y1423874*
X1844845*
X1844220Y1424102*
X1843282Y1424556*
X1840157Y1426829*
Y1423647*
X1782543Y1427047D02*
X1782316Y1427672D01*
X1781861Y1428297*
X1781407Y1428610*
X1780497*
X1780043Y1428297*
X1779588Y1427672*
X1779361Y1427047*
X1779134Y1426110*
Y1424547*
X1779361Y1423610*
X1779588Y1422985*
X1780043Y1422360*
X1780497Y1422047*
X1781407*
X1781861Y1422360*
X1782316Y1422985*
X1782543Y1423610*
X1785043Y1428610D02*
X1787543D01*
X1786179Y1426110*
X1786861*
X1787316Y1425797*
X1787543Y1425485*
X1787770Y1424547*
Y1423922*
X1787543Y1422985*
X1787088Y1422360*
X1786407Y1422047*
X1785725*
X1785043Y1422360*
X1784816Y1422672*
X1784588Y1423297*
X1793960Y1407362D02*
X1793733Y1407987D01*
X1793278Y1408612*
X1792824Y1408925*
X1791915*
X1791460Y1408612*
X1791006Y1407987*
X1790778Y1407362*
X1790551Y1406425*
Y1404862*
X1790778Y1403925*
X1791006Y1403300*
X1791460Y1402675*
X1791915Y1402362*
X1792824*
X1793278Y1402675*
X1793733Y1403300*
X1793960Y1403925*
X1798278Y1408925D02*
X1796006Y1404550D01*
X1799415*
X1798278Y1408925D02*
Y1402362D01*
X1640417Y1599094D02*
X1640190Y1599719D01*
X1639735Y1600344*
X1639281Y1600657*
X1638372*
X1637917Y1600344*
X1637462Y1599719*
X1637235Y1599094*
X1637008Y1598157*
Y1596594*
X1637235Y1595657*
X1637462Y1595032*
X1637917Y1594407*
X1638372Y1594094*
X1639281*
X1639735Y1594407*
X1640190Y1595032*
X1640417Y1595657*
X1645417Y1600657D02*
X1643144D01*
X1642917Y1597844*
X1643144Y1598157*
X1643826Y1598469*
X1644508*
X1645190Y1598157*
X1645644Y1597532*
X1645872Y1596594*
X1645644Y1595969*
X1645417Y1595032*
X1644962Y1594407*
X1644281Y1594094*
X1643599*
X1642917Y1594407*
X1642690Y1594719*
X1642462Y1595344*
X1750000Y1432940D02*
Y1426378D01*
Y1432940D02*
X1752045D01*
X1752727Y1432628*
X1752955Y1432315*
X1753182Y1431690*
Y1431065*
X1752955Y1430440*
X1752727Y1430128*
X1752045Y1429815*
X1750000*
X1751591D02*
X1753182Y1426378D01*
X1755682Y1432940D02*
X1758182D01*
X1756818Y1430440*
X1757500*
X1757955Y1430128*
X1758182Y1429815*
X1758409Y1428878*
Y1428253*
X1758182Y1427315*
X1757727Y1426690*
X1757045Y1426378*
X1756364*
X1755682Y1426690*
X1755455Y1427003*
X1755227Y1427628*
X1738448Y1456181D02*
X1738221Y1456806D01*
X1737767Y1457431*
X1737312Y1457744*
X1736403*
X1735948Y1457431*
X1735494Y1456806*
X1735267Y1456181*
X1735039Y1455244*
Y1453681*
X1735267Y1452744*
X1735494Y1452119*
X1735948Y1451494*
X1736403Y1451181*
X1737312*
X1737767Y1451494*
X1738221Y1452119*
X1738448Y1452744*
X1743221Y1456806D02*
X1742994Y1457431D01*
X1742312Y1457744*
X1741858*
X1741176Y1457431*
X1740721Y1456494*
X1740494Y1454931*
Y1453369*
X1740721Y1452119*
X1741176Y1451494*
X1741858Y1451181*
X1742085*
X1742767Y1451494*
X1743221Y1452119*
X1743448Y1453056*
Y1453369*
X1743221Y1454306*
X1742767Y1454931*
X1742085Y1455244*
X1741858*
X1741176Y1454931*
X1740721Y1454306*
X1740494Y1453369*
X1799476Y1472835D02*
X1792913D01*
X1799476D02*
Y1470789D01*
X1799163Y1470107*
X1798851Y1469880*
X1798226Y1469653*
X1797601*
X1796976Y1469880*
X1796663Y1470107*
X1796351Y1470789*
Y1472835*
Y1471244D02*
X1792913Y1469653D01*
X1799476Y1465335D02*
X1795101Y1467607D01*
Y1464198*
X1799476Y1465335D02*
X1792913D01*
X1895539Y1521654D02*
X1888976D01*
X1895539D02*
Y1519608D01*
X1895226Y1518926*
X1894914Y1518699*
X1894289Y1518472*
X1893664*
X1893039Y1518699*
X1892726Y1518926*
X1892414Y1519608*
Y1521654*
Y1520063D02*
X1888976Y1518472D01*
X1895539Y1513472D02*
Y1515744D01*
X1892726Y1515972*
X1893039Y1515744*
X1893351Y1515063*
Y1514381*
X1893039Y1513699*
X1892414Y1513244*
X1891476Y1513017*
X1890851Y1513244*
X1889914Y1513472*
X1889289Y1513926*
X1888976Y1514608*
Y1515290*
X1889289Y1515972*
X1889601Y1516199*
X1890226Y1516426*
X1922311Y1520472D02*
X1915748D01*
X1922311D02*
Y1518427D01*
X1921998Y1517745*
X1921686Y1517518*
X1921061Y1517291*
X1920436*
X1919811Y1517518*
X1919498Y1517745*
X1919186Y1518427*
Y1520472*
Y1518882D02*
X1915748Y1517291D01*
X1921373Y1512518D02*
X1921998Y1512745D01*
X1922311Y1513427*
Y1513882*
X1921998Y1514563*
X1921061Y1515018*
X1919498Y1515245*
X1917936*
X1916686Y1515018*
X1916061Y1514563*
X1915748Y1513882*
Y1513654*
X1916061Y1512972*
X1916686Y1512518*
X1917623Y1512291*
X1917936*
X1918873Y1512518*
X1919498Y1512972*
X1919811Y1513654*
Y1513882*
X1919498Y1514563*
X1918873Y1515018*
X1917936Y1515245*
X1949870Y1518898D02*
X1943307D01*
X1949870D02*
Y1516852D01*
X1949557Y1516170*
X1949245Y1515943*
X1948620Y1515716*
X1947995*
X1947370Y1515943*
X1947057Y1516170*
X1946745Y1516852*
Y1518898*
Y1517307D02*
X1943307Y1515716D01*
X1949870Y1510489D02*
X1943307Y1512761D01*
X1949870Y1513670D02*
Y1510489D01*
X1558921Y1592008D02*
X1558694Y1592633D01*
X1558239Y1593258*
X1557785Y1593570*
X1556875*
X1556421Y1593258*
X1555966Y1592633*
X1555739Y1592008*
X1555512Y1591070*
Y1589508*
X1555739Y1588570*
X1555966Y1587945*
X1556421Y1587320*
X1556875Y1587008*
X1557785*
X1558239Y1587320*
X1558694Y1587945*
X1558921Y1588570*
X1562103Y1593570D02*
X1561421Y1593258D01*
X1561194Y1592633*
Y1592008*
X1561421Y1591383*
X1561875Y1591070*
X1562785Y1590758*
X1563466Y1590445*
X1563921Y1589820*
X1564148Y1589195*
Y1588258*
X1563921Y1587633*
X1563694Y1587320*
X1563012Y1587008*
X1562103*
X1561421Y1587320*
X1561194Y1587633*
X1560966Y1588258*
Y1589195*
X1561194Y1589820*
X1561648Y1590445*
X1562330Y1590758*
X1563239Y1591070*
X1563694Y1591383*
X1563921Y1592008*
Y1592633*
X1563694Y1593258*
X1563012Y1593570*
X1562103*
X1580433Y1551834D02*
X1579808Y1551607D01*
X1579183Y1551152*
X1578871Y1550698*
Y1549789*
X1579183Y1549334*
X1579808Y1548880*
X1580433Y1548652*
X1581371Y1548425*
X1582933*
X1583871Y1548652*
X1584496Y1548880*
X1585121Y1549334*
X1585433Y1549789*
Y1550698*
X1585121Y1551152*
X1584496Y1551607*
X1583871Y1551834*
X1581058Y1556834D02*
X1581996Y1556607D01*
X1582621Y1556152*
X1582933Y1555471*
Y1555243*
X1582621Y1554562*
X1581996Y1554107*
X1581058Y1553880*
X1580746*
X1579808Y1554107*
X1579183Y1554562*
X1578871Y1555243*
Y1555471*
X1579183Y1556152*
X1579808Y1556607*
X1581058Y1556834*
X1582621*
X1584183Y1556607*
X1585121Y1556152*
X1585433Y1555471*
Y1555016*
X1585121Y1554334*
X1584496Y1554107*
X1437267Y1514449D02*
X1437040Y1515074D01*
X1436586Y1515699*
X1436131Y1516011*
X1435222*
X1434767Y1515699*
X1434313Y1515074*
X1434086Y1514449*
X1433858Y1513511*
Y1511949*
X1434086Y1511011*
X1434313Y1510386*
X1434767Y1509761*
X1435222Y1509449*
X1436131*
X1436586Y1509761*
X1437040Y1510386*
X1437267Y1511011*
X1439313Y1514761D02*
X1439767Y1515074D01*
X1440449Y1516011*
Y1509449*
X1442949Y1516011D02*
X1445449D01*
X1444086Y1513511*
X1444767*
X1445222Y1513199*
X1445449Y1512886*
X1445676Y1511949*
Y1511324*
X1445449Y1510386*
X1444995Y1509761*
X1444313Y1509449*
X1443631*
X1442949Y1509761*
X1442722Y1510074*
X1442495Y1510699*
X1443701Y1551838D02*
Y1545276D01*
Y1551838D02*
X1445746D01*
X1446428Y1551526*
X1446655Y1551213*
X1446883Y1550588*
Y1549963*
X1446655Y1549338*
X1446428Y1549026*
X1445746Y1548713*
X1443701*
X1445292D02*
X1446883Y1545276D01*
X1448928Y1550588D02*
X1449383Y1550901D01*
X1450064Y1551838*
Y1545276*
X1454383Y1551838D02*
X1452110Y1547463D01*
X1455519*
X1454383Y1551838D02*
Y1545276D01*
X1451969Y1539633D02*
Y1533071D01*
Y1539633D02*
X1454014D01*
X1454696Y1539321*
X1454923Y1539008*
X1455150Y1538383*
Y1537758*
X1454923Y1537133*
X1454696Y1536821*
X1454014Y1536508*
X1451969*
X1453559D02*
X1455150Y1533071D01*
X1457196Y1538383D02*
X1457650Y1538696D01*
X1458332Y1539633*
Y1533071*
X1463332Y1539633D02*
X1461059D01*
X1460832Y1536821*
X1461059Y1537133*
X1461741Y1537446*
X1462423*
X1463105Y1537133*
X1463559Y1536508*
X1463787Y1535571*
X1463559Y1534946*
X1463332Y1534008*
X1462878Y1533383*
X1462196Y1533071*
X1461514*
X1460832Y1533383*
X1460605Y1533696*
X1460378Y1534321*
X1496339Y1416670D02*
X1496964Y1416897D01*
X1497589Y1417351*
X1497901Y1417806*
Y1418715*
X1497589Y1419170*
X1496964Y1419624*
X1496339Y1419851*
X1495401Y1420079*
X1493839*
X1492901Y1419851*
X1492276Y1419624*
X1491651Y1419170*
X1491339Y1418715*
Y1417806*
X1491651Y1417351*
X1492276Y1416897*
X1492901Y1416670*
X1496651Y1414624D02*
X1496964Y1414170D01*
X1497901Y1413488*
X1491339*
X1495714Y1408488D02*
X1494776Y1408715D01*
X1494151Y1409170*
X1493839Y1409851*
Y1410079*
X1494151Y1410761*
X1494776Y1411215*
X1495714Y1411442*
X1496026*
X1496964Y1411215*
X1497589Y1410761*
X1497901Y1410079*
Y1409851*
X1497589Y1409170*
X1496964Y1408715*
X1495714Y1408488*
X1494151*
X1492589Y1408715*
X1491651Y1409170*
X1491339Y1409851*
Y1410306*
X1491651Y1410988*
X1492276Y1411215*
X1505394Y1417457D02*
X1506019Y1417684D01*
X1506644Y1418139*
X1506956Y1418593*
Y1419503*
X1506644Y1419957*
X1506019Y1420412*
X1505394Y1420639*
X1504456Y1420866*
X1502894*
X1501956Y1420639*
X1501331Y1420412*
X1500706Y1419957*
X1500394Y1419503*
Y1418593*
X1500706Y1418139*
X1501331Y1417684*
X1501956Y1417457*
X1505394Y1415184D02*
X1505706D01*
X1506331Y1414957*
X1506644Y1414730*
X1506956Y1414275*
Y1413366*
X1506644Y1412912*
X1506331Y1412684*
X1505706Y1412457*
X1505081*
X1504456Y1412684*
X1503519Y1413139*
X1500394Y1415412*
Y1412230*
X1506956Y1408821D02*
X1506644Y1409503D01*
X1505706Y1409957*
X1504144Y1410184*
X1503206*
X1501644Y1409957*
X1500706Y1409503*
X1500394Y1408821*
Y1408366*
X1500706Y1407684*
X1501644Y1407230*
X1503206Y1407003*
X1504144*
X1505706Y1407230*
X1506644Y1407684*
X1506956Y1408366*
Y1408821*
X1517441Y1392385D02*
X1516816Y1392158D01*
X1516191Y1391704*
X1515878Y1391249*
Y1390340*
X1516191Y1389885*
X1516816Y1389431*
X1517441Y1389204*
X1518378Y1388976*
X1519941*
X1520878Y1389204*
X1521503Y1389431*
X1522128Y1389885*
X1522441Y1390340*
Y1391249*
X1522128Y1391704*
X1521503Y1392158*
X1520878Y1392385*
X1517441Y1394658D02*
X1517128D01*
X1516503Y1394885*
X1516191Y1395113*
X1515878Y1395567*
Y1396476*
X1516191Y1396931*
X1516503Y1397158*
X1517128Y1397385*
X1517753*
X1518378Y1397158*
X1519316Y1396704*
X1522441Y1394431*
Y1397613*
X1517128Y1399658D02*
X1516816Y1400113D01*
X1515878Y1400795*
X1522441*
X1555630Y1393173D02*
X1555005Y1392946D01*
X1554380Y1392491*
X1554067Y1392037*
Y1391127*
X1554380Y1390673*
X1555005Y1390218*
X1555630Y1389991*
X1556567Y1389764*
X1558130*
X1559067Y1389991*
X1559692Y1390218*
X1560317Y1390673*
X1560630Y1391127*
Y1392037*
X1560317Y1392491*
X1559692Y1392946*
X1559067Y1393173*
X1555630Y1395446D02*
X1555317D01*
X1554692Y1395673*
X1554380Y1395900*
X1554067Y1396355*
Y1397264*
X1554380Y1397718*
X1554692Y1397946*
X1555317Y1398173*
X1555942*
X1556567Y1397946*
X1557505Y1397491*
X1560630Y1395218*
Y1398400*
X1555630Y1400673D02*
X1555317D01*
X1554692Y1400900*
X1554380Y1401127*
X1554067Y1401582*
Y1402491*
X1554380Y1402946*
X1554692Y1403173*
X1555317Y1403400*
X1555942*
X1556567Y1403173*
X1557505Y1402718*
X1560630Y1400446*
Y1403627*
X1525063Y1593976D02*
X1524835Y1594601D01*
X1524381Y1595226*
X1523926Y1595539*
X1523017*
X1522563Y1595226*
X1522108Y1594601*
X1521881Y1593976*
X1521654Y1593039*
Y1591476*
X1521881Y1590539*
X1522108Y1589914*
X1522563Y1589289*
X1523017Y1588976*
X1523926*
X1524381Y1589289*
X1524835Y1589914*
X1525063Y1590539*
X1527335Y1593976D02*
Y1594289D01*
X1527563Y1594914*
X1527790Y1595226*
X1528244Y1595539*
X1529154*
X1529608Y1595226*
X1529835Y1594914*
X1530063Y1594289*
Y1593664*
X1529835Y1593039*
X1529381Y1592101*
X1527108Y1588976*
X1530290*
X1532790Y1595539D02*
X1535290D01*
X1533926Y1593039*
X1534608*
X1535063Y1592726*
X1535290Y1592414*
X1535517Y1591476*
Y1590851*
X1535290Y1589914*
X1534835Y1589289*
X1534154Y1588976*
X1533472*
X1532790Y1589289*
X1532563Y1589601*
X1532335Y1590226*
X1523882Y1618780D02*
X1523654Y1619405D01*
X1523200Y1620030*
X1522745Y1620342*
X1521836*
X1521382Y1620030*
X1520927Y1619405*
X1520700Y1618780*
X1520472Y1617842*
Y1616280*
X1520700Y1615342*
X1520927Y1614717*
X1521382Y1614092*
X1521836Y1613780*
X1522745*
X1523200Y1614092*
X1523654Y1614717*
X1523882Y1615342*
X1526154Y1618780D02*
Y1619092D01*
X1526382Y1619717*
X1526609Y1620030*
X1527063Y1620342*
X1527972*
X1528427Y1620030*
X1528654Y1619717*
X1528882Y1619092*
Y1618467*
X1528654Y1617842*
X1528200Y1616905*
X1525927Y1613780*
X1529109*
X1533427Y1620342D02*
X1531154Y1615967D01*
X1534563*
X1533427Y1620342D02*
Y1613780D01*
X1496850Y1621523D02*
Y1614961D01*
Y1621523D02*
X1498896D01*
X1499578Y1621211*
X1499805Y1620898*
X1500032Y1620273*
Y1619648*
X1499805Y1619023*
X1499578Y1618711*
X1498896Y1618398*
X1496850*
X1498441D02*
X1500032Y1614961D01*
X1502078Y1620273D02*
X1502532Y1620586D01*
X1503214Y1621523*
Y1614961*
X1508214Y1619336D02*
X1507987Y1618398D01*
X1507532Y1617773*
X1506850Y1617461*
X1506623*
X1505941Y1617773*
X1505487Y1618398*
X1505259Y1619336*
Y1619648*
X1505487Y1620586*
X1505941Y1621211*
X1506623Y1621523*
X1506850*
X1507532Y1621211*
X1507987Y1620586*
X1508214Y1619336*
Y1617773*
X1507987Y1616211*
X1507532Y1615273*
X1506850Y1614961*
X1506396*
X1505714Y1615273*
X1505487Y1615898*
X1494094Y1595145D02*
Y1588583D01*
Y1595145D02*
X1496140D01*
X1496822Y1594833*
X1497049Y1594520*
X1497276Y1593895*
Y1593270*
X1497049Y1592645*
X1496822Y1592333*
X1496140Y1592020*
X1494094*
X1495685D02*
X1497276Y1588583D01*
X1499549Y1593583D02*
Y1593895D01*
X1499776Y1594520*
X1500004Y1594833*
X1500458Y1595145*
X1501367*
X1501822Y1594833*
X1502049Y1594520*
X1502276Y1593895*
Y1593270*
X1502049Y1592645*
X1501594Y1591708*
X1499322Y1588583*
X1502504*
X1505913Y1595145D02*
X1505231Y1594833D01*
X1504776Y1593895*
X1504549Y1592333*
Y1591395*
X1504776Y1589833*
X1505231Y1588895*
X1505913Y1588583*
X1506367*
X1507049Y1588895*
X1507504Y1589833*
X1507731Y1591395*
Y1592333*
X1507504Y1593895*
X1507049Y1594833*
X1506367Y1595145*
X1505913*
X1621913Y1508937D02*
X1621686Y1509562D01*
X1621231Y1510187*
X1620777Y1510500*
X1619868*
X1619413Y1510187*
X1618958Y1509562*
X1618731Y1508937*
X1618504Y1508000*
Y1506437*
X1618731Y1505500*
X1618958Y1504875*
X1619413Y1504250*
X1619868Y1503937*
X1620777*
X1621231Y1504250*
X1621686Y1504875*
X1621913Y1505500*
X1624186Y1508937D02*
Y1509250D01*
X1624413Y1509875*
X1624640Y1510187*
X1625095Y1510500*
X1626004*
X1626458Y1510187*
X1626686Y1509875*
X1626913Y1509250*
Y1508625*
X1626686Y1508000*
X1626231Y1507062*
X1623958Y1503937*
X1627140*
X1632368Y1510500D02*
X1630095Y1503937D01*
X1629186Y1510500D02*
X1632368D01*
X1680591Y1478481D02*
X1681216Y1478708D01*
X1681841Y1479162*
X1682153Y1479617*
Y1480526*
X1681841Y1480981*
X1681216Y1481435*
X1680591Y1481662*
X1679653Y1481890*
X1678091*
X1677153Y1481662*
X1676528Y1481435*
X1675903Y1480981*
X1675591Y1480526*
Y1479617*
X1675903Y1479162*
X1676528Y1478708*
X1677153Y1478481*
X1680591Y1476208D02*
X1680903D01*
X1681528Y1475981*
X1681841Y1475753*
X1682153Y1475299*
Y1474390*
X1681841Y1473935*
X1681528Y1473708*
X1680903Y1473481*
X1680278*
X1679653Y1473708*
X1678716Y1474162*
X1675591Y1476435*
Y1473253*
X1682153Y1468253D02*
Y1470526D01*
X1679341Y1470753*
X1679653Y1470526*
X1679966Y1469844*
Y1469162*
X1679653Y1468481*
X1679028Y1468026*
X1678091Y1467799*
X1677466Y1468026*
X1676528Y1468253*
X1675903Y1468708*
X1675591Y1469390*
Y1470072*
X1675903Y1470753*
X1676216Y1470981*
X1676841Y1471208*
X1648425Y1490814D02*
Y1484252D01*
Y1490814D02*
X1650471D01*
X1651152Y1490502*
X1651380Y1490189*
X1651607Y1489564*
Y1488939*
X1651380Y1488314*
X1651152Y1488002*
X1650471Y1487689*
X1648425*
X1650016D02*
X1651607Y1484252D01*
X1653880Y1489252D02*
Y1489564D01*
X1654107Y1490189*
X1654334Y1490502*
X1654789Y1490814*
X1655698*
X1656152Y1490502*
X1656380Y1490189*
X1656607Y1489564*
Y1488939*
X1656380Y1488314*
X1655925Y1487377*
X1653652Y1484252*
X1656834*
X1659107Y1489252D02*
Y1489564D01*
X1659334Y1490189*
X1659562Y1490502*
X1660016Y1490814*
X1660925*
X1661380Y1490502*
X1661607Y1490189*
X1661834Y1489564*
Y1488939*
X1661607Y1488314*
X1661152Y1487377*
X1658880Y1484252*
X1662062*
X1635693Y1488858D02*
X1635465Y1489483D01*
X1635011Y1490108*
X1634556Y1490421*
X1633647*
X1633193Y1490108*
X1632738Y1489483*
X1632511Y1488858*
X1632283Y1487921*
Y1486358*
X1632511Y1485421*
X1632738Y1484796*
X1633193Y1484171*
X1633647Y1483858*
X1634556*
X1635011Y1484171*
X1635465Y1484796*
X1635693Y1485421*
X1637965Y1488858D02*
Y1489171D01*
X1638193Y1489796*
X1638420Y1490108*
X1638874Y1490421*
X1639783*
X1640238Y1490108*
X1640465Y1489796*
X1640693Y1489171*
Y1488546*
X1640465Y1487921*
X1640011Y1486983*
X1637738Y1483858*
X1640920*
X1645693Y1489483D02*
X1645465Y1490108D01*
X1644783Y1490421*
X1644329*
X1643647Y1490108*
X1643193Y1489171*
X1642965Y1487608*
Y1486046*
X1643193Y1484796*
X1643647Y1484171*
X1644329Y1483858*
X1644556*
X1645238Y1484171*
X1645693Y1484796*
X1645920Y1485733*
Y1486046*
X1645693Y1486983*
X1645238Y1487608*
X1644556Y1487921*
X1644329*
X1643647Y1487608*
X1643193Y1486983*
X1642965Y1486046*
X1546720Y1531102D02*
X1542032D01*
X1541095Y1530875*
X1540470Y1530421*
X1540157Y1529739*
Y1529284*
X1540470Y1528602*
X1541095Y1528148*
X1542032Y1527921*
X1546720*
Y1524739D02*
X1546407Y1525421D01*
X1545782Y1525648*
X1545157*
X1544532Y1525421*
X1544220Y1524966*
X1543907Y1524057*
X1543595Y1523375*
X1542970Y1522921*
X1542345Y1522693*
X1541407*
X1540782Y1522921*
X1540470Y1523148*
X1540157Y1523830*
Y1524739*
X1540470Y1525421*
X1540782Y1525648*
X1541407Y1525875*
X1542345*
X1542970Y1525648*
X1543595Y1525193*
X1543907Y1524511*
X1544220Y1523602*
X1544532Y1523148*
X1545157Y1522921*
X1545782*
X1546407Y1523148*
X1546720Y1523830*
Y1524739*
X1579166Y1463105D02*
X1578712Y1463730D01*
X1578030Y1464043*
X1577121*
X1576439Y1463730*
X1575984Y1463105*
Y1462480*
X1576212Y1461855*
X1576439Y1461543*
X1576893Y1461230*
X1578257Y1460605*
X1578712Y1460293*
X1578939Y1459980*
X1579166Y1459355*
Y1458418*
X1578712Y1457793*
X1578030Y1457480*
X1577121*
X1576439Y1457793*
X1575984Y1458418*
X1581212Y1464043D02*
Y1457480D01*
Y1464043D02*
X1583257D01*
X1583939Y1463730*
X1584166Y1463418*
X1584393Y1462793*
Y1461855*
X1584166Y1461230*
X1583939Y1460918*
X1583257Y1460605*
X1581212*
X1586439Y1464043D02*
Y1457480D01*
X1512074Y1522835D02*
X1505512D01*
X1512074D02*
Y1520789D01*
X1511762Y1520107*
X1511449Y1519880*
X1510824Y1519653*
X1510199*
X1509574Y1519880*
X1509262Y1520107*
X1508949Y1520789*
Y1522835*
Y1521244D02*
X1505512Y1519653D01*
X1510512Y1517380D02*
X1510824D01*
X1511449Y1517153*
X1511762Y1516926*
X1512074Y1516471*
Y1515562*
X1511762Y1515107*
X1511449Y1514880*
X1510824Y1514653*
X1510199*
X1509574Y1514880*
X1508637Y1515335*
X1505512Y1517607*
Y1514426*
X1512074Y1511926D02*
Y1509426D01*
X1509574Y1510789*
Y1510107*
X1509262Y1509653*
X1508949Y1509426*
X1508012Y1509198*
X1507387*
X1506449Y1509426*
X1505824Y1509880*
X1505512Y1510562*
Y1511244*
X1505824Y1511926*
X1506137Y1512153*
X1506762Y1512380*
X1504200Y1522441D02*
X1497638D01*
X1504200D02*
Y1520395D01*
X1503888Y1519714*
X1503575Y1519486*
X1502950Y1519259*
X1502325*
X1501700Y1519486*
X1501388Y1519714*
X1501075Y1520395*
Y1522441*
Y1520850D02*
X1497638Y1519259D01*
X1502638Y1516986D02*
X1502950D01*
X1503575Y1516759*
X1503888Y1516532*
X1504200Y1516077*
Y1515168*
X1503888Y1514714*
X1503575Y1514486*
X1502950Y1514259*
X1502325*
X1501700Y1514486*
X1500763Y1514941*
X1497638Y1517214*
Y1514032*
X1504200Y1509714D02*
X1499825Y1511986D01*
Y1508577*
X1504200Y1509714D02*
X1497638D01*
X2003937Y1464043D02*
Y1457480D01*
Y1464043D02*
X2005982D01*
X2006664Y1463730*
X2006892Y1463418*
X2007119Y1462793*
Y1462168*
X2006892Y1461543*
X2006664Y1461230*
X2005982Y1460918*
X2003937*
X2005528D02*
X2007119Y1457480D01*
X2009392Y1462480D02*
Y1462793D01*
X2009619Y1463418*
X2009846Y1463730*
X2010301Y1464043*
X2011210*
X2011664Y1463730*
X2011892Y1463418*
X2012119Y1462793*
Y1462168*
X2011892Y1461543*
X2011437Y1460605*
X2009164Y1457480*
X2012346*
X2017346Y1464043D02*
X2015073D01*
X2014846Y1461230*
X2015073Y1461543*
X2015755Y1461855*
X2016437*
X2017119Y1461543*
X2017573Y1460918*
X2017801Y1459980*
X2017573Y1459355*
X2017346Y1458418*
X2016892Y1457793*
X2016210Y1457480*
X2015528*
X2014846Y1457793*
X2014619Y1458105*
X2014392Y1458730*
X1495933Y1522835D02*
X1489370D01*
X1495933D02*
Y1520789D01*
X1495620Y1520107*
X1495308Y1519880*
X1494683Y1519653*
X1494058*
X1493433Y1519880*
X1493120Y1520107*
X1492808Y1520789*
Y1522835*
Y1521244D02*
X1489370Y1519653D01*
X1494370Y1517380D02*
X1494683D01*
X1495308Y1517153*
X1495620Y1516926*
X1495933Y1516471*
Y1515562*
X1495620Y1515107*
X1495308Y1514880*
X1494683Y1514653*
X1494058*
X1493433Y1514880*
X1492495Y1515335*
X1489370Y1517607*
Y1514426*
X1494995Y1509653D02*
X1495620Y1509880D01*
X1495933Y1510562*
Y1511016*
X1495620Y1511698*
X1494683Y1512153*
X1493120Y1512380*
X1491558*
X1490308Y1512153*
X1489683Y1511698*
X1489370Y1511016*
Y1510789*
X1489683Y1510107*
X1490308Y1509653*
X1491245Y1509426*
X1491558*
X1492495Y1509653*
X1493120Y1510107*
X1493433Y1510789*
Y1511016*
X1493120Y1511698*
X1492495Y1512153*
X1491558Y1512380*
X2050394Y1498688D02*
Y1492126D01*
Y1498688D02*
X2053348D01*
X2050394Y1495563D02*
X2052212D01*
X2055621Y1497126D02*
Y1497438D01*
X2055848Y1498063*
X2056076Y1498376*
X2056530Y1498688*
X2057439*
X2057894Y1498376*
X2058121Y1498063*
X2058348Y1497438*
Y1496813*
X2058121Y1496188*
X2057666Y1495251*
X2055394Y1492126*
X2058576*
X1657087Y1429397D02*
Y1422835D01*
Y1429397D02*
X1659132D01*
X1659814Y1429085*
X1660041Y1428772*
X1660268Y1428147*
Y1427522*
X1660041Y1426897*
X1659814Y1426585*
X1659132Y1426272*
X1657087*
X1658678D02*
X1660268Y1422835D01*
X1662541Y1427835D02*
Y1428147D01*
X1662768Y1428772*
X1662996Y1429085*
X1663450Y1429397*
X1664359*
X1664814Y1429085*
X1665041Y1428772*
X1665268Y1428147*
Y1427522*
X1665041Y1426897*
X1664587Y1425960*
X1662314Y1422835*
X1665496*
X1668678Y1429397D02*
X1667996Y1429085D01*
X1667768Y1428460*
Y1427835*
X1667996Y1427210*
X1668450Y1426897*
X1669359Y1426585*
X1670041Y1426272*
X1670496Y1425647*
X1670723Y1425022*
Y1424085*
X1670496Y1423460*
X1670268Y1423147*
X1669587Y1422835*
X1668678*
X1667996Y1423147*
X1667768Y1423460*
X1667541Y1424085*
Y1425022*
X1667768Y1425647*
X1668223Y1426272*
X1668905Y1426585*
X1669814Y1426897*
X1670268Y1427210*
X1670496Y1427835*
Y1428460*
X1670268Y1429085*
X1669587Y1429397*
X1668678*
X1643307Y1455381D02*
Y1448819D01*
Y1455381D02*
X1645353D01*
X1646034Y1455069*
X1646262Y1454756*
X1646489Y1454131*
Y1453506*
X1646262Y1452881*
X1646034Y1452569*
X1645353Y1452256*
X1643307*
X1644898D02*
X1646489Y1448819D01*
X1648762Y1453819D02*
Y1454131D01*
X1648989Y1454756*
X1649216Y1455069*
X1649671Y1455381*
X1650580*
X1651034Y1455069*
X1651262Y1454756*
X1651489Y1454131*
Y1453506*
X1651262Y1452881*
X1650807Y1451944*
X1648534Y1448819*
X1651716*
X1656716Y1453194D02*
X1656489Y1452256D01*
X1656034Y1451631*
X1655353Y1451319*
X1655125*
X1654443Y1451631*
X1653989Y1452256*
X1653762Y1453194*
Y1453506*
X1653989Y1454444*
X1654443Y1455069*
X1655125Y1455381*
X1655353*
X1656034Y1455069*
X1656489Y1454444*
X1656716Y1453194*
Y1451631*
X1656489Y1450069*
X1656034Y1449131*
X1655353Y1448819*
X1654898*
X1654216Y1449131*
X1653989Y1449756*
X1649724Y1420732D02*
X1649099Y1420505D01*
X1648474Y1420050*
X1648162Y1419596*
Y1418686*
X1648474Y1418232*
X1649099Y1417777*
X1649724Y1417550*
X1650662Y1417323*
X1652224*
X1653162Y1417550*
X1653787Y1417777*
X1654412Y1418232*
X1654724Y1418686*
Y1419596*
X1654412Y1420050*
X1653787Y1420505*
X1653162Y1420732*
X1649724Y1423005D02*
X1649412D01*
X1648787Y1423232*
X1648474Y1423459*
X1648162Y1423914*
Y1424823*
X1648474Y1425277*
X1648787Y1425505*
X1649412Y1425732*
X1650037*
X1650662Y1425505*
X1651599Y1425050*
X1654724Y1422777*
Y1425959*
X1650349Y1430959D02*
X1651287Y1430732D01*
X1651912Y1430277*
X1652224Y1429596*
Y1429368*
X1651912Y1428686*
X1651287Y1428232*
X1650349Y1428005*
X1650037*
X1649099Y1428232*
X1648474Y1428686*
X1648162Y1429368*
Y1429596*
X1648474Y1430277*
X1649099Y1430732*
X1650349Y1430959*
X1651912*
X1653474Y1430732*
X1654412Y1430277*
X1654724Y1429596*
Y1429141*
X1654412Y1428459*
X1653787Y1428232*
X1746850Y1457744D02*
Y1451181D01*
Y1457744D02*
X1748896D01*
X1749578Y1457431*
X1749805Y1457119*
X1750032Y1456494*
Y1455869*
X1749805Y1455244*
X1749578Y1454931*
X1748896Y1454619*
X1746850*
X1748441D02*
X1750032Y1451181D01*
X1752532Y1457744D02*
X1755032D01*
X1753669Y1455244*
X1754350*
X1754805Y1454931*
X1755032Y1454619*
X1755259Y1453681*
Y1453056*
X1755032Y1452119*
X1754578Y1451494*
X1753896Y1451181*
X1753214*
X1752532Y1451494*
X1752305Y1451806*
X1752078Y1452431*
X1758669Y1457744D02*
X1757987Y1457431D01*
X1757532Y1456494*
X1757305Y1454931*
Y1453994*
X1757532Y1452431*
X1757987Y1451494*
X1758669Y1451181*
X1759123*
X1759805Y1451494*
X1760259Y1452431*
X1760487Y1453994*
Y1454931*
X1760259Y1456494*
X1759805Y1457431*
X1759123Y1457744*
X1758669*
X1610889Y1492402D02*
X1610662Y1493027D01*
X1610208Y1493652*
X1609753Y1493964*
X1608844*
X1608389Y1493652*
X1607935Y1493027*
X1607708Y1492402*
X1607480Y1491464*
Y1489902*
X1607708Y1488964*
X1607935Y1488339*
X1608389Y1487714*
X1608844Y1487402*
X1609753*
X1610208Y1487714*
X1610662Y1488339*
X1610889Y1488964*
X1613389Y1493964D02*
X1615889D01*
X1614526Y1491464*
X1615208*
X1615662Y1491152*
X1615889Y1490839*
X1616117Y1489902*
Y1489277*
X1615889Y1488339*
X1615435Y1487714*
X1614753Y1487402*
X1614071*
X1613389Y1487714*
X1613162Y1488027*
X1612935Y1488652*
X1618162Y1492714D02*
X1618617Y1493027D01*
X1619298Y1493964*
Y1487402*
X1968898Y1537665D02*
Y1531102D01*
Y1537665D02*
X1971852D01*
X1968898Y1534540D02*
X1970716D01*
X1974352Y1537665D02*
X1976852D01*
X1975489Y1535165*
X1976170*
X1976625Y1534852*
X1976852Y1534540*
X1977079Y1533602*
Y1532977*
X1976852Y1532040*
X1976398Y1531415*
X1975716Y1531102*
X1975034*
X1974352Y1531415*
X1974125Y1531727*
X1973898Y1532352*
X1603803Y1525079D02*
X1603576Y1525704D01*
X1603121Y1526329*
X1602666Y1526641*
X1601757*
X1601303Y1526329*
X1600848Y1525704*
X1600621Y1525079*
X1600394Y1524141*
Y1522579*
X1600621Y1521641*
X1600848Y1521016*
X1601303Y1520391*
X1601757Y1520079*
X1602666*
X1603121Y1520391*
X1603576Y1521016*
X1603803Y1521641*
X1606303Y1526641D02*
X1608803D01*
X1607439Y1524141*
X1608121*
X1608576Y1523829*
X1608803Y1523516*
X1609030Y1522579*
Y1521954*
X1608803Y1521016*
X1608348Y1520391*
X1607666Y1520079*
X1606985*
X1606303Y1520391*
X1606076Y1520704*
X1605848Y1521329*
X1611530Y1526641D02*
X1614030D01*
X1612666Y1524141*
X1613348*
X1613803Y1523829*
X1614030Y1523516*
X1614257Y1522579*
Y1521954*
X1614030Y1521016*
X1613576Y1520391*
X1612894Y1520079*
X1612212*
X1611530Y1520391*
X1611303Y1520704*
X1611076Y1521329*
X1753803Y1399882D02*
X1753576Y1400507D01*
X1753121Y1401132*
X1752666Y1401444*
X1751757*
X1751303Y1401132*
X1750848Y1400507*
X1750621Y1399882*
X1750394Y1398944*
Y1397382*
X1750621Y1396444*
X1750848Y1395819*
X1751303Y1395194*
X1751757Y1394882*
X1752666*
X1753121Y1395194*
X1753576Y1395819*
X1753803Y1396444*
X1755848Y1400194D02*
X1756303Y1400507D01*
X1756985Y1401444*
Y1394882*
X1852362Y1462862D02*
Y1456299D01*
Y1462862D02*
X1853953D01*
X1854635Y1462549*
X1855089Y1461924*
X1855317Y1461299*
X1855544Y1460362*
Y1458799*
X1855317Y1457862*
X1855089Y1457237*
X1854635Y1456612*
X1853953Y1456299*
X1852362*
X1858044Y1462862D02*
X1860544D01*
X1859180Y1460362*
X1859862*
X1860317Y1460049*
X1860544Y1459737*
X1860771Y1458799*
Y1458174*
X1860544Y1457237*
X1860089Y1456612*
X1859408Y1456299*
X1858726*
X1858044Y1456612*
X1857817Y1456924*
X1857589Y1457549*
X1632677Y1501444D02*
Y1494882D01*
Y1501444D02*
X1634723D01*
X1635404Y1501132*
X1635632Y1500819*
X1635859Y1500194*
Y1499569*
X1635632Y1498944*
X1635404Y1498632*
X1634723Y1498319*
X1632677*
X1634268D02*
X1635859Y1494882D01*
X1637904Y1497382D02*
X1640632D01*
Y1498007*
X1640404Y1498632*
X1640177Y1498944*
X1639723Y1499257*
X1639041*
X1638586Y1498944*
X1638132Y1498319*
X1637904Y1497382*
Y1496757*
X1638132Y1495819*
X1638586Y1495194*
X1639041Y1494882*
X1639723*
X1640177Y1495194*
X1640632Y1495819*
X1644495Y1501444D02*
X1644041D01*
X1643586Y1501132*
X1643359Y1500194*
Y1494882*
X1642677Y1499257D02*
X1644268D01*
X1580185Y1516142D02*
X1575497D01*
X1574560Y1515914*
X1573935Y1515460*
X1573622Y1514778*
Y1514324*
X1573935Y1513642*
X1574560Y1513187*
X1575497Y1512960*
X1580185*
Y1509096D02*
X1573622Y1510914D01*
X1580185Y1509096D02*
X1573622Y1507278D01*
X1575810Y1510233D02*
Y1507960D01*
X1580185Y1505233D02*
X1573622D01*
X1580185D02*
Y1503187D01*
X1579872Y1502505*
X1579560Y1502278*
X1578935Y1502051*
X1578310*
X1577685Y1502278*
X1577372Y1502505*
X1577060Y1503187*
Y1505233*
Y1503642D02*
X1573622Y1502051D01*
X1580185Y1498414D02*
X1573622D01*
X1580185Y1500005D02*
Y1496824D01*
X1578622Y1489324D02*
X1578935D01*
X1579560Y1489096*
X1579872Y1488869*
X1580185Y1488414*
Y1487505*
X1579872Y1487051*
X1579560Y1486824*
X1578935Y1486596*
X1578310*
X1577685Y1486824*
X1576747Y1487278*
X1573622Y1489551*
Y1486369*
X1450657Y1440157D02*
X1445969D01*
X1445032Y1439930*
X1444407Y1439476*
X1444094Y1438794*
Y1438339*
X1444407Y1437657*
X1445032Y1437203*
X1445969Y1436976*
X1450657*
Y1433112D02*
X1444094Y1434930D01*
X1450657Y1433112D02*
X1444094Y1431294D01*
X1446282Y1434248D02*
Y1431976D01*
X1450657Y1429248D02*
X1444094D01*
X1450657D02*
Y1427203D01*
X1450344Y1426521*
X1450032Y1426294*
X1449407Y1426067*
X1448782*
X1448157Y1426294*
X1447844Y1426521*
X1447532Y1427203*
Y1429248*
Y1427657D02*
X1444094Y1426067D01*
X1450657Y1422430D02*
X1444094D01*
X1450657Y1424021D02*
Y1420839D01*
X1449407Y1413567D02*
X1449719Y1413112D01*
X1450657Y1412430*
X1444094*
X2138189Y1512074D02*
Y1505512D01*
Y1512074D02*
X2141144D01*
X2138189Y1508949D02*
X2140007D01*
X2148416Y1510824D02*
X2148871Y1511137D01*
X2149553Y1512074*
Y1505512*
X1416097Y1402800D02*
X1415642Y1402488D01*
X1415188Y1401863*
X1414961Y1400925*
Y1400300*
X1415188Y1399363*
X1415642Y1398738*
X1416097Y1398425*
X1416779*
X1417233Y1398738*
X1417688Y1399363*
X1417915Y1400300*
Y1400925*
X1417688Y1401863*
X1417233Y1402488*
X1416779Y1402800*
X1416097*
X1419961D02*
Y1396238D01*
Y1401863D02*
X1420415Y1402488D01*
X1420870Y1402800*
X1421552*
X1422006Y1402488*
X1422461Y1401863*
X1422688Y1400925*
Y1400300*
X1422461Y1399363*
X1422006Y1398738*
X1421552Y1398425*
X1420870*
X1420415Y1398738*
X1419961Y1399363*
X1424733Y1400925D02*
X1427461D01*
Y1401550*
X1427233Y1402175*
X1427006Y1402488*
X1426552Y1402800*
X1425870*
X1425415Y1402488*
X1424961Y1401863*
X1424733Y1400925*
Y1400300*
X1424961Y1399363*
X1425415Y1398738*
X1425870Y1398425*
X1426552*
X1427006Y1398738*
X1427461Y1399363*
X1429506Y1402800D02*
Y1398425D01*
Y1401550D02*
X1430188Y1402488D01*
X1430642Y1402800*
X1431324*
X1431779Y1402488*
X1432006Y1401550*
Y1398425*
X1434052Y1402800D02*
Y1396238D01*
Y1401863D02*
X1434506Y1402488D01*
X1434961Y1402800*
X1435642*
X1436097Y1402488*
X1436552Y1401863*
X1436779Y1400925*
Y1400300*
X1436552Y1399363*
X1436097Y1398738*
X1435642Y1398425*
X1434961*
X1434506Y1398738*
X1434052Y1399363*
X1439961Y1402800D02*
X1439506Y1402488D01*
X1439052Y1401863*
X1438824Y1400925*
Y1400300*
X1439052Y1399363*
X1439506Y1398738*
X1439961Y1398425*
X1440642*
X1441097Y1398738*
X1441552Y1399363*
X1441779Y1400300*
Y1400925*
X1441552Y1401863*
X1441097Y1402488*
X1440642Y1402800*
X1439961*
X1443824D02*
X1444733Y1398425D01*
X1445642Y1402800D02*
X1444733Y1398425D01*
X1445642Y1402800D02*
X1446552Y1398425D01*
X1447461Y1402800D02*
X1446552Y1398425D01*
X1449506Y1400925D02*
X1452233D01*
Y1401550*
X1452006Y1402175*
X1451779Y1402488*
X1451324Y1402800*
X1450642*
X1450188Y1402488*
X1449733Y1401863*
X1449506Y1400925*
Y1400300*
X1449733Y1399363*
X1450188Y1398738*
X1450642Y1398425*
X1451324*
X1451779Y1398738*
X1452233Y1399363*
X1454279Y1402800D02*
Y1398425D01*
Y1400925D02*
X1454506Y1401863D01*
X1454961Y1402488*
X1455415Y1402800*
X1456097*
X1460870D02*
Y1396238D01*
Y1401863D02*
X1460415Y1402488D01*
X1459961Y1402800*
X1459279*
X1458824Y1402488*
X1458370Y1401863*
X1458142Y1400925*
Y1400300*
X1458370Y1399363*
X1458824Y1398738*
X1459279Y1398425*
X1459961*
X1460415Y1398738*
X1460870Y1399363*
X1462915Y1402800D02*
Y1399675D01*
X1463142Y1398738*
X1463597Y1398425*
X1464279*
X1464733Y1398738*
X1465415Y1399675*
Y1402800D02*
Y1398425D01*
X1470188Y1402800D02*
Y1398425D01*
Y1401863D02*
X1469733Y1402488D01*
X1469279Y1402800*
X1468597*
X1468142Y1402488*
X1467688Y1401863*
X1467461Y1400925*
Y1400300*
X1467688Y1399363*
X1468142Y1398738*
X1468597Y1398425*
X1469279*
X1469733Y1398738*
X1470188Y1399363*
X1472233Y1404988D02*
Y1398425D01*
X1474279Y1404988D02*
X1474506Y1404675D01*
X1474733Y1404988*
X1474506Y1405300*
X1474279Y1404988*
X1474506Y1402800D02*
Y1398425D01*
X1477461Y1404988D02*
Y1399675D01*
X1477688Y1398738*
X1478142Y1398425*
X1478597*
X1476779Y1402800D02*
X1478370D01*
X1480870D02*
X1482233Y1398425D01*
X1483597Y1402800D02*
X1482233Y1398425D01*
X1481779Y1397175*
X1481324Y1396550*
X1480870Y1396238*
X1480642*
X1485870Y1399050D02*
X1485642Y1398738D01*
X1485870Y1398425*
X1486097Y1398738*
X1485870Y1399050*
X1489279Y1402800D02*
X1488824Y1402488D01*
X1488370Y1401863*
X1488142Y1400925*
Y1400300*
X1488370Y1399363*
X1488824Y1398738*
X1489279Y1398425*
X1489961*
X1490415Y1398738*
X1490870Y1399363*
X1491097Y1400300*
Y1400925*
X1490870Y1401863*
X1490415Y1402488*
X1489961Y1402800*
X1489279*
X1493142D02*
Y1398425D01*
Y1400925D02*
X1493370Y1401863D01*
X1493824Y1402488*
X1494279Y1402800*
X1494961*
X1499733D02*
Y1397800D01*
X1499506Y1396863*
X1499279Y1396550*
X1498824Y1396238*
X1498142*
X1497688Y1396550*
X1499733Y1401863D02*
X1499279Y1402488D01*
X1498824Y1402800*
X1498142*
X1497688Y1402488*
X1497233Y1401863*
X1497006Y1400925*
Y1400300*
X1497233Y1399363*
X1497688Y1398738*
X1498142Y1398425*
X1498824*
X1499279Y1398738*
X1499733Y1399363*
X1416324Y1395145D02*
X1415870Y1394833D01*
X1415415Y1394208*
X1415188Y1393583*
X1414961Y1392645*
Y1391083*
X1415188Y1390145*
X1415415Y1389520*
X1415870Y1388895*
X1416324Y1388583*
X1417233*
X1417688Y1388895*
X1418142Y1389520*
X1418370Y1390145*
X1418597Y1391083*
Y1392645*
X1418370Y1393583*
X1418142Y1394208*
X1417688Y1394833*
X1417233Y1395145*
X1416324*
X1420642D02*
Y1388583D01*
Y1395145D02*
X1422688D01*
X1423370Y1394833*
X1423597Y1394520*
X1423824Y1393895*
Y1392958*
X1423597Y1392333*
X1423370Y1392020*
X1422688Y1391708*
X1420642*
X1427233Y1395145D02*
X1426779Y1394833D01*
X1426324Y1394208*
X1426097Y1393583*
X1425870Y1392645*
Y1391083*
X1426097Y1390145*
X1426324Y1389520*
X1426779Y1388895*
X1427233Y1388583*
X1428142*
X1428597Y1388895*
X1429052Y1389520*
X1429279Y1390145*
X1429506Y1391083*
Y1392645*
X1429279Y1393583*
X1429052Y1394208*
X1428597Y1394833*
X1428142Y1395145*
X1427233*
X1427915Y1389833D02*
X1429279Y1387958D01*
X1431552Y1395145D02*
Y1388583D01*
Y1395145D02*
X1433597D01*
X1434279Y1394833*
X1434506Y1394520*
X1434733Y1393895*
Y1393270*
X1434506Y1392645*
X1434279Y1392333*
X1433597Y1392020*
X1431552D02*
X1433597D01*
X1434279Y1391708*
X1434506Y1391395*
X1434733Y1390770*
Y1389833*
X1434506Y1389208*
X1434279Y1388895*
X1433597Y1388583*
X1431552*
X1437915Y1392958D02*
X1437461Y1392645D01*
X1437006Y1392020*
X1436779Y1391083*
Y1390458*
X1437006Y1389520*
X1437461Y1388895*
X1437915Y1388583*
X1438597*
X1439052Y1388895*
X1439506Y1389520*
X1439733Y1390458*
Y1391083*
X1439506Y1392020*
X1439052Y1392645*
X1438597Y1392958*
X1437915*
X1441779D02*
X1444279Y1388583D01*
Y1392958D02*
X1441779Y1388583D01*
X1451779Y1393583D02*
Y1393895D01*
X1452006Y1394520*
X1452233Y1394833*
X1452688Y1395145*
X1453597*
X1454052Y1394833*
X1454279Y1394520*
X1454506Y1393895*
Y1393270*
X1454279Y1392645*
X1453824Y1391708*
X1451552Y1388583*
X1454733*
X1918110Y1594751D02*
Y1588189D01*
X1921292Y1594751D02*
Y1588189D01*
X1918110Y1591626D02*
X1921292D01*
X1923338Y1594751D02*
X1923565Y1594439D01*
X1923792Y1594751*
X1923565Y1595064*
X1923338Y1594751*
X1923565Y1592564D02*
Y1588189D01*
X1928565Y1592564D02*
Y1587564D01*
X1928338Y1586626*
X1928110Y1586314*
X1927656Y1586001*
X1926974*
X1926519Y1586314*
X1928565Y1591626D02*
X1928110Y1592251D01*
X1927656Y1592564*
X1926974*
X1926519Y1592251*
X1926065Y1591626*
X1925838Y1590689*
Y1590064*
X1926065Y1589126*
X1926519Y1588501*
X1926974Y1588189*
X1927656*
X1928110Y1588501*
X1928565Y1589126*
X1930610Y1594751D02*
Y1588189D01*
Y1591314D02*
X1931292Y1592251D01*
X1931747Y1592564*
X1932428*
X1932883Y1592251*
X1933110Y1591314*
Y1588189*
X1940383Y1594751D02*
X1942201Y1588189D01*
X1944019Y1594751D02*
X1942201Y1588189D01*
X1947201Y1592564D02*
X1946747Y1592251D01*
X1946292Y1591626*
X1946065Y1590689*
Y1590064*
X1946292Y1589126*
X1946747Y1588501*
X1947201Y1588189*
X1947883*
X1948338Y1588501*
X1948792Y1589126*
X1949019Y1590064*
Y1590689*
X1948792Y1591626*
X1948338Y1592251*
X1947883Y1592564*
X1947201*
X1951065Y1594751D02*
Y1588189D01*
X1953792Y1594751D02*
Y1589439D01*
X1954019Y1588501*
X1954474Y1588189*
X1954928*
X1953110Y1592564D02*
X1954701D01*
X1959701D02*
Y1588189D01*
Y1591626D02*
X1959247Y1592251D01*
X1958792Y1592564*
X1958110*
X1957656Y1592251*
X1957201Y1591626*
X1956974Y1590689*
Y1590064*
X1957201Y1589126*
X1957656Y1588501*
X1958110Y1588189*
X1958792*
X1959247Y1588501*
X1959701Y1589126*
X1964474Y1592564D02*
Y1587564D01*
X1964247Y1586626*
X1964019Y1586314*
X1963565Y1586001*
X1962883*
X1962428Y1586314*
X1964474Y1591626D02*
X1964019Y1592251D01*
X1963565Y1592564*
X1962883*
X1962428Y1592251*
X1961974Y1591626*
X1961747Y1590689*
Y1590064*
X1961974Y1589126*
X1962428Y1588501*
X1962883Y1588189*
X1963565*
X1964019Y1588501*
X1964474Y1589126*
X1966519Y1590689D02*
X1969247D01*
Y1591314*
X1969019Y1591939*
X1968792Y1592251*
X1968338Y1592564*
X1967656*
X1967201Y1592251*
X1966747Y1591626*
X1966519Y1590689*
Y1590064*
X1966747Y1589126*
X1967201Y1588501*
X1967656Y1588189*
X1968338*
X1968792Y1588501*
X1969247Y1589126*
X2090157Y1425460D02*
Y1418898D01*
Y1425460D02*
X2093339Y1418898D01*
Y1425460D02*
Y1418898D01*
X2146850Y1425460D02*
Y1418898D01*
X2149578*
X0Y0D02*
M02*
