*
*
G04 PADS 9.5 Build Number: 522968 generated Gerber (RS-274-X) file*
G04 PC Version=2.1*
*
%IN "opqbox2.pcb"*%
*
%MOIN*%
*
%FSLAX35Y35*%
*
*
*
*
G04 PC Standard Apertures*
*
*
G04 Thermal Relief Aperture macro.*
%AMTER*
1,1,$1,0,0*
1,0,$1-$2,0,0*
21,0,$3,$4,0,0,45*
21,0,$3,$4,0,0,135*
%
*
*
G04 Annular Aperture macro.*
%AMANN*
1,1,$1,0,0*
1,0,$2,0,0*
%
*
*
G04 Odd Aperture macro.*
%AMODD*
1,1,$1,0,0*
1,0,$1-0.005,0,0*
%
*
*
G04 PC Custom Aperture Macros*
*
*
*
*
*
*
G04 PC Aperture Table*
*
%ADD010C,0.001*%
%ADD013C,0.01*%
%ADD224R,0.067X0.047*%
%ADD225R,0.067X0.12*%
%ADD226R,0.062X0.062*%
%ADD235C,0.062*%
%ADD271R,0.032X0.04*%
%ADD273R,0.04X0.032*%
%ADD280C,0.07287*%
%ADD298C,0.06893*%
%ADD299C,0.06499*%
%ADD300C,0.12011*%
%ADD301R,0.01972X0.04728*%
%ADD302R,0.05712X0.13586*%
%ADD303R,0.05909X0.02562*%
%ADD304R,0.07287X0.02562*%
%ADD305R,0.05909X0.01972*%
%ADD306R,0.01184X0.04137*%
%ADD307R,0.04137X0.01184*%
%ADD308R,0.04531X0.0768*%
%ADD309R,0.04098X0.01381*%
%ADD310R,0.02562X0.0709*%
%ADD311R,0.21854X0.08074*%
%ADD316O,0.01184X0.04137*%
*
*
*
*
G04 PC Circuitry*
G04 Layer Name opqbox2.pcb - circuitry*
%LPD*%
*
*
G04 PC Custom Flashes*
G04 Layer Name opqbox2.pcb - flashes*
%LPD*%
*
*
G04 PC Circuitry*
G04 Layer Name opqbox2.pcb - circuitry*
%LPD*%
*
G54D10*
G54D13*
G01X1406693Y1639370D02*
Y1375591D01*
X2190551*
Y1639370*
X1406693*
G54D224*
X1562500Y1549168D03*
Y1558268D03*
Y1567368D03*
G54D225*
X1537500Y1558268D03*
G54D226*
X1886614Y1450000D03*
X2040945Y1502026D03*
Y1488526D03*
X1981159Y1546063D03*
X1967659D03*
X2162452Y1501781D03*
Y1515281D03*
X1833642Y1459475D03*
G54D235*
X1921742Y1399741D03*
Y1459741D03*
X1886614Y1410000D03*
X1796850Y1497638D03*
Y1437638D03*
X1891732Y1487008D03*
Y1547008D03*
X1919291Y1546063D03*
Y1486063D03*
X1946850Y1487008D03*
Y1547008D03*
X1422903Y1452169D03*
X1412903D03*
X1422903Y1462169D03*
X1412903D03*
X1422903Y1472169D03*
X1412903D03*
X1422903Y1482169D03*
X1412903D03*
X1422903Y1492169D03*
X1412903D03*
X1422903Y1502169D03*
X1412903D03*
X1422903Y1512169D03*
X1412903D03*
X1422903Y1522169D03*
X1412903D03*
X1422903Y1532169D03*
X1412903D03*
X1422903Y1542169D03*
X1412903D03*
X1593307Y1444094D03*
Y1454094D03*
Y1464094D03*
Y1474094D03*
X2040945Y1461811D03*
X1980945D03*
X1456693Y1412205D03*
Y1422205D03*
Y1432205D03*
Y1442205D03*
X1585433Y1517323D03*
Y1507323D03*
Y1497323D03*
Y1487323D03*
X1588976Y1555512D03*
X1598976D03*
X1608976D03*
X1618976D03*
X1873642Y1459475D03*
G54D271*
X1782283Y1401624D03*
Y1407824D03*
X1738266Y1443755D03*
Y1437555D03*
X1573622Y1549656D03*
Y1555856D03*
X1432785Y1548382D03*
Y1542182D03*
X1441883Y1538372D03*
Y1532172D03*
X1494094Y1428002D03*
Y1434202D03*
X1503937Y1428002D03*
Y1434202D03*
X1528740Y1392569D03*
Y1398769D03*
X1566929Y1393357D03*
Y1399557D03*
X1513386Y1594538D03*
Y1600738D03*
Y1607924D03*
Y1614124D03*
X1670472Y1477903D03*
Y1471703D03*
X1651181Y1470916D03*
Y1477116D03*
X1644094Y1470916D03*
Y1477116D03*
X1507087Y1534596D03*
Y1528396D03*
X1500000Y1534596D03*
Y1528396D03*
X1492913Y1534596D03*
Y1528396D03*
X1651261Y1442941D03*
Y1436741D03*
X1507087Y1544144D03*
Y1550344D03*
X1492913Y1544144D03*
Y1550344D03*
X1500000Y1544144D03*
Y1550344D03*
X1753543Y1414124D03*
Y1407924D03*
G54D273*
X1768061Y1425197D03*
X1761861D03*
X1756773Y1436577D03*
X1750573D03*
X1556349Y1580315D03*
X1562549D03*
X1437159Y1522162D03*
X1443359D03*
X1505856Y1607874D03*
X1499656D03*
Y1600787D03*
X1505856D03*
X1603199Y1507087D03*
X1609399D03*
X1666172Y1435904D03*
X1659972D03*
X1666172Y1443778D03*
X1659972D03*
X1756680Y1445415D03*
X1750480D03*
X1603199Y1499060D03*
X1609399D03*
X1603104Y1514014D03*
X1609304D03*
G54D280*
X2110514Y1533620D03*
X2099884Y1583620D03*
X2093979Y1609210D03*
G54D298*
X1820247Y1617917D03*
Y1575595D03*
X1668672Y1586421D03*
Y1617917D03*
X1761721Y1391126D03*
X1756299Y1476772D03*
X1574409Y1612992D03*
X1633071Y1540551D03*
X1634646Y1477165D03*
X1659843Y1416142D03*
Y1453543D03*
X1627165Y1498819D03*
X1433858Y1615748D03*
Y1605906D03*
Y1598031D03*
Y1588189D03*
G54D299*
X2052756Y1422441D03*
X1964173D03*
G54D300*
X1421772Y1626417D03*
X1423189Y1576102D03*
X2162598Y1434252D03*
Y1414252D03*
X2110630Y1414173D03*
Y1434173D03*
G54D301*
X1770866Y1445768D03*
Y1436909D03*
G54D302*
X1833680Y1440462D03*
Y1415265D03*
X1632731Y1584289D03*
Y1609486D03*
G54D303*
X1771049Y1407914D03*
Y1411654D03*
Y1415394D03*
X1761797D03*
Y1407914D03*
G54D304*
X1722979Y1432702D03*
Y1437702D03*
Y1442702D03*
Y1447702D03*
X1681050D03*
Y1442702D03*
Y1437702D03*
Y1432702D03*
G54D305*
X1636370Y1436162D03*
Y1438721D03*
Y1441280D03*
Y1443839D03*
X1618851D03*
Y1441280D03*
Y1438721D03*
Y1436162D03*
G54D306*
X1528150Y1466240D03*
X1530118D03*
X1532087D03*
X1534055D03*
X1536024D03*
X1537992D03*
X1539961D03*
X1541929D03*
X1543898D03*
X1545866D03*
X1547835D03*
Y1499114D03*
X1545866D03*
X1543898D03*
X1541929D03*
X1539961D03*
X1537992D03*
X1536024D03*
X1534055D03*
X1532087D03*
X1530118D03*
X1528150D03*
X1526181D03*
G54D307*
X1553445Y1471850D03*
Y1473819D03*
Y1475787D03*
Y1477756D03*
Y1479724D03*
Y1481693D03*
Y1483661D03*
Y1485630D03*
Y1487598D03*
Y1489567D03*
Y1491535D03*
Y1493504D03*
X1520571D03*
Y1491535D03*
Y1489567D03*
Y1487598D03*
Y1485630D03*
Y1483661D03*
Y1481693D03*
Y1479724D03*
Y1477756D03*
Y1475787D03*
Y1473819D03*
Y1471850D03*
G54D308*
X1503937Y1443701D03*
X1494094D03*
G54D309*
X1485201Y1606724D03*
Y1604756D03*
Y1602787D03*
X1492091D03*
Y1604756D03*
Y1606724D03*
G54D310*
X1554744Y1538484D03*
X1549744D03*
X1544744D03*
X1539744D03*
Y1515846D03*
X1544744D03*
X1549744D03*
X1554744D03*
G54D311*
X1566535Y1409449D03*
X1529134D03*
G54D316*
X1526181Y1466240D03*
X0Y0D02*
M02*
