*
*
G04 PADS 9.5 Build Number: 522968 generated Gerber (RS-274-X) file*
G04 PC Version=2.1*
*
%IN "opqbox2.pcb"*%
*
%MOIN*%
*
%FSLAX35Y35*%
*
*
*
*
G04 PC Standard Apertures*
*
*
G04 Thermal Relief Aperture macro.*
%AMTER*
1,1,$1,0,0*
1,0,$1-$2,0,0*
21,0,$3,$4,0,0,45*
21,0,$3,$4,0,0,135*
%
*
*
G04 Annular Aperture macro.*
%AMANN*
1,1,$1,0,0*
1,0,$2,0,0*
%
*
*
G04 Odd Aperture macro.*
%AMODD*
1,1,$1,0,0*
1,0,$1-0.005,0,0*
%
*
*
G04 PC Custom Aperture Macros*
*
*
*
*
*
*
G04 PC Aperture Table*
*
%ADD010C,0.001*%
%ADD013C,0.01*%
%ADD136R,0.07874X0.21654*%
%ADD139R,0.03937X0.00984*%
%ADD140R,0.00984X0.03937*%
%ADD143R,0.05709X0.01772*%
%ADD145R,0.13386X0.05512*%
%ADD146R,0.06299X0.01772*%
%ADD147R,0.07087X0.02362*%
%ADD148R,0.05512X0.13386*%
*
*
*
*
G04 PC Circuitry*
G04 Layer Name opqbox2.pcb - circuitry*
%LPD*%
*
*
G04 PC Custom Flashes*
G04 Layer Name opqbox2.pcb - flashes*
%LPD*%
*
*
G04 PC Circuitry*
G04 Layer Name opqbox2.pcb - circuitry*
%LPD*%
*
G54D10*
G54D13*
G01X1135433Y225984D02*
X470079D01*
Y363681*
X542717*
Y477362*
X1135433Y477953*
Y225984*
X497638Y245669D02*
G75*
G03X497638I-7874J0D01*
G01X568504Y458268D02*
G03X568504I-7874J0D01*
G01X1119685D02*
G03X1119685I-7874J0D01*
G01Y245669D02*
G03X1119685I-7874J0D01*
G54D136*
G01X616142Y298425D03*
Y335827D03*
G54D139*
X647736Y332087D03*
Y330118D03*
Y328150D03*
Y326181D03*
Y324213D03*
Y322244D03*
Y320276D03*
Y318307D03*
Y316339D03*
Y314370D03*
Y312402D03*
Y310433D03*
X680610D03*
Y312402D03*
Y314370D03*
Y316339D03*
Y318307D03*
Y320276D03*
Y322244D03*
Y324213D03*
Y326181D03*
Y328150D03*
Y330118D03*
Y332087D03*
G54D140*
X653346Y304823D03*
X655315D03*
X657283D03*
X659252D03*
X661220D03*
X663189D03*
X665157D03*
X667126D03*
X669094D03*
X671063D03*
X673031D03*
X675000D03*
Y337697D03*
X673031D03*
X671063D03*
X669094D03*
X667126D03*
X665157D03*
X663189D03*
X661220D03*
X659252D03*
X657283D03*
X655315D03*
X653346D03*
G54D143*
X786417Y263622D03*
Y266181D03*
Y268740D03*
Y271299D03*
X768898D03*
Y268740D03*
Y266181D03*
Y263622D03*
G54D145*
X719291Y391732D03*
X694094D03*
X719291Y453543D03*
X694094D03*
X784646Y335039D03*
X809843D03*
G54D146*
X824606Y322146D03*
Y319587D03*
Y317028D03*
Y314469D03*
Y311909D03*
Y309350D03*
Y306791D03*
Y304232D03*
Y301673D03*
Y299114D03*
X851772D03*
Y301673D03*
Y304232D03*
Y306791D03*
Y309350D03*
Y311909D03*
Y314469D03*
Y317028D03*
Y319587D03*
Y322146D03*
G54D147*
X859154Y259823D03*
Y264823D03*
Y269823D03*
Y274823D03*
X817224D03*
Y269823D03*
Y264823D03*
Y259823D03*
G54D148*
X885433Y298819D03*
Y324016D03*
G74*
X0Y0D02*
M02*
