*
*
G04 PADS 9.5 Build Number: 522968 generated Gerber (RS-274-X) file*
G04 PC Version=2.1*
*
%IN "opqbox2.pcb"*%
*
%MOIN*%
*
%FSLAX35Y35*%
*
*
*
*
G04 PC Standard Apertures*
*
*
G04 Thermal Relief Aperture macro.*
%AMTER*
1,1,$1,0,0*
1,0,$1-$2,0,0*
21,0,$3,$4,0,0,45*
21,0,$3,$4,0,0,135*
%
*
*
G04 Annular Aperture macro.*
%AMANN*
1,1,$1,0,0*
1,0,$2,0,0*
%
*
*
G04 Odd Aperture macro.*
%AMODD*
1,1,$1,0,0*
1,0,$1-0.005,0,0*
%
*
*
G04 PC Custom Aperture Macros*
*
*
*
*
*
*
G04 PC Aperture Table*
*
%ADD010C,0.001*%
%ADD013C,0.01*%
%ADD028C,0.06*%
%ADD033C,0.03937*%
%ADD041C,0.02362*%
%ADD047C,0.012*%
%ADD050C,0.04331*%
%ADD073R,0.038X0.03*%
%ADD081R,0.036X0.036*%
%ADD082R,0.036X0.05*%
%ADD086R,0.06X0.1*%
%ADD103C,0.015*%
%ADD105C,0.07874*%
%ADD135R,0.03X0.038*%
%ADD137R,0.063X0.0275*%
%ADD139R,0.03937X0.00984*%
%ADD140R,0.00984X0.03937*%
%ADD141R,0.05X0.036*%
%ADD142R,0.0275X0.063*%
%ADD143R,0.05709X0.01772*%
%ADD146R,0.06299X0.01772*%
%ADD147R,0.07087X0.02362*%
%ADD148R,0.05512X0.13386*%
%ADD150C,0.05906*%
%ADD151C,0.03543*%
%ADD172R,0.21654X0.07874*%
%ADD173O,0.00984X0.03937*%
%ADD174C,0.00984*%
%ADD175C,0.01772*%
%ADD176C,0.02756*%
*
*
*
*
G04 PC Circuitry*
G04 Layer Name opqbox2.pcb - circuitry*
%LPD*%
*
*
G04 PC Custom Flashes*
G04 Layer Name opqbox2.pcb - flashes*
%LPD*%
*
*
G04 PC Circuitry*
G04 Layer Name opqbox2.pcb - circuitry*
%LPD*%
*
G54D10*
G54D13*
G01X347531Y249389D02*
Y258091D01*
G75*
G03X346913Y258577I-500J-0D01*
G01X346654Y258546D02*
G03X346913Y258577I-0J1100D01*
G01X346654Y258546D02*
X341142D01*
X340042Y259646D02*
G03X341142Y258546I1100J-0D01*
G01X340042Y259646D02*
Y267615D01*
G03X339559Y268115I-500J0*
G01X338497Y268152*
G03X338336Y268131I-18J-500*
G01X338550Y274317D02*
G03X338336Y268131I-1148J-3057D01*
G01X338550Y274317D02*
G03X338708Y274285I175J468D01*
G01X343155Y274132*
G03X343172I17J500*
G01X346263*
G03X346627Y274974I-0J500*
G01X323417Y299605*
Y308794*
G03X322430Y308906I-500J-0*
G01X321559Y308072D02*
G03X322430Y308906I-201J1082D01*
G01X321559Y308072D02*
G03X321181Y307410I92J-491D01*
G01X315031Y307387D02*
G03X321181Y307410I3079J-1088D01*
G01X315031Y307387D02*
G03X314560Y308054I-471J167D01*
G01X314272*
X313172Y309154D02*
G03X314272Y308054I1100J-0D01*
G01X313172Y309154D02*
Y311516D01*
X313649Y312422D02*
G03X313172Y311516I623J-906D01*
G01X313649Y312422D02*
G03Y313247I-283J413D01*
G01X313172Y314154D02*
G03X313649Y313247I1100J-0D01*
G01X313172Y314154D02*
Y316516D01*
X313649Y317422D02*
G03X313172Y316516I623J-906D01*
G01X313649Y317422D02*
G03Y318247I-283J413D01*
G01X313172Y319154D02*
G03X313649Y318247I1100J-0D01*
G01X313172Y319154D02*
Y321516D01*
X313649Y322422D02*
G03X313172Y321516I623J-906D01*
G01X313649Y322422D02*
G03Y323247I-283J413D01*
G01X313172Y324154D02*
G03X313649Y323247I1100J-0D01*
G01X313172Y324154D02*
Y326516D01*
X314150Y327609D02*
G03X313172Y326516I122J-1093D01*
G01X314150Y327609D02*
G03X314575Y328242I-56J497D01*
G01X314611Y330144D02*
G03X314575Y328242I3106J-1010D01*
G01X314611Y330144D02*
G03X314136Y330799I-475J155D01*
G01X307693*
G03X307193Y330299I-0J-500*
G01Y266954*
G03X307693Y266454I500J0*
G01X313230*
G03X313617Y266637I-0J500*
G01X318472Y262279D02*
G03X313617Y266637I-2330J2288D01*
G01X318472Y262279D02*
G03Y261579I357J-350D01*
G01X318678Y257235D02*
G03X318472Y261579I-2536J2056D01*
G01X318678Y257235D02*
G03X318567Y256938I389J-315D01*
X318274Y256818I34J-498*
G01X315139Y256184D02*
G03X318274Y256818I1003J3107D01*
G01X315139Y256184D02*
G03X314486Y255708I-153J-476D01*
G01Y255118*
Y254232*
Y253346*
Y252559*
Y251673*
Y250787*
Y250340*
G03X315251Y249916I500J0*
G01X318358Y249874D02*
G03X315251Y249916I-1586J-2394D01*
G01X318358Y249874D02*
G03X319047Y250010I276J417D01*
G01X319229Y250216D02*
G03X319047Y250010I728J-825D01*
G01X319229Y250216D02*
G03Y250966I-331J375D01*
G01X318857Y251791D02*
G03X319229Y250966I1100J-0D01*
G01X318857Y251791D02*
Y255591D01*
X319024Y256174D02*
G03X318857Y255591I933J-583D01*
G01X319024Y256174D02*
G03X319100Y256421I-423J266D01*
X319345Y256505I-33J499*
G01X319957Y256691D02*
G03X319345Y256505I-0J-1100D01*
G01X319957Y256691D02*
X322957D01*
X324057Y255591D02*
G03X322957Y256691I-1100J-0D01*
G01X324057Y255591D02*
Y251791D01*
X323684Y250966D02*
G03X324057Y251791I-727J825D01*
G01X323684Y250966D02*
G03Y250216I331J-375D01*
G01X324057Y249391D02*
G03X323684Y250216I-1100J-0D01*
G01X324057Y249391D02*
Y245591D01*
X322957Y244491D02*
G03X324057Y245591I-0J1100D01*
G01X322957Y244491D02*
X319957D01*
X319054Y244962D02*
G03X319957Y244491I903J629D01*
G01X319054Y244962D02*
G03X318366Y245092I-410J-286D01*
G01X315251Y245045D02*
G03X318366Y245092I1521J2435D01*
G01X315251Y245045D02*
G03X314486Y244620I-265J-425D01*
G01Y243110*
X314452Y242840D02*
G03X314486Y243110I-1066J270D01*
G01X314452Y242840D02*
G03Y242594I485J-123D01*
G01X314486Y242323D02*
G03X314452Y242594I-1100J-0D01*
G01X314486Y242323D02*
Y240551D01*
X314094Y239709D02*
G03X314486Y240551I-708J842D01*
G01X314094Y239709D02*
G03X314044Y238993I322J-382D01*
G01X312554Y233684D02*
G03X314044Y238993I-940J3127D01*
G01X312554Y233684D02*
G03X312344Y232851I144J-479D01*
G01X320533Y224662*
G03X320887Y224516I354J354*
G01X347031*
G03X347531Y225016I0J500*
G01Y232894*
G03X346913Y233380I-500J0*
G01X346654Y233349D02*
G03X346913Y233380I-0J1100D01*
G01X346654Y233349D02*
X341142D01*
X340042Y234449D02*
G03X341142Y233349I1100J-0D01*
G01X340042Y234449D02*
Y247716D01*
G03X339639Y248207I-500J0*
G01X342730Y249670D02*
G03X339639Y248207I-2533J1354D01*
G01X342730Y249670D02*
G03X343171Y248935I441J-235D01*
G01X346654*
X346913Y248904D02*
G03X346654Y248935I-259J-1069D01*
G01X346913Y248904D02*
G03X347531Y249389I118J485D01*
G01X323417Y311875D02*
Y312175D01*
G03X323213Y312579I-500J0*
G01X323073Y312690D02*
G03X323213Y312579I1487J1730D01*
G01X323073Y312690D02*
G03X322313Y312062I-326J-379D01*
G01X322430Y311763D02*
G03X322313Y312062I-1072J-247D01*
G01X322430Y311763D02*
G03X323417Y311875I487J112D01*
G01X319054Y257814D02*
X347531D01*
X318444Y256914D02*
X347531D01*
X323972Y256014D02*
X347531D01*
X324057Y255114D02*
X347531D01*
X324057Y254214D02*
X347531D01*
X341929Y253314D02*
X347531D01*
X342709Y252414D02*
X347531D01*
X343026Y251514D02*
X347531D01*
X343039Y250614D02*
X347531D01*
X342753Y249714D02*
X347531D01*
X312581Y232614D02*
X347531D01*
X313481Y231714D02*
X347531D01*
X314381Y230814D02*
X347531D01*
X315281Y229914D02*
X347531D01*
X316181Y229014D02*
X347531D01*
X317081Y228114D02*
X347531D01*
X317981Y227214D02*
X347531D01*
X318881Y226314D02*
X347531D01*
X319781Y225414D02*
X347531D01*
X307193Y274914D02*
X346675D01*
X307193Y275814D02*
X345835D01*
X307193Y276714D02*
X344987D01*
X307193Y277614D02*
X344139D01*
X307193Y278514D02*
X343291D01*
X307193Y279414D02*
X342443D01*
X307193Y280314D02*
X341595D01*
X307193Y281214D02*
X340747D01*
X312305Y233514D02*
X340561D01*
X319356Y258714D02*
X340556D01*
X313832Y234414D02*
X340042D01*
X319391Y259614D02*
X340042D01*
X318511Y266814D02*
X340042D01*
X319116Y265914D02*
X340042D01*
X319376Y265014D02*
X340042D01*
X319376Y264114D02*
X340042D01*
X319114Y263214D02*
X340042D01*
X318506Y262314D02*
X340042D01*
X318623Y261414D02*
X340042D01*
X319169Y260514D02*
X340042D01*
X324057Y247014D02*
X340042D01*
X324057Y246114D02*
X340042D01*
X323990Y245214D02*
X340042D01*
X314486Y244314D02*
X340042D01*
X314486Y243414D02*
X340042D01*
X314469Y242514D02*
X340042D01*
X314486Y241614D02*
X340042D01*
X314486Y240714D02*
X340042D01*
X314203Y239814D02*
X340042D01*
X314112Y238914D02*
X340042D01*
X314650Y238014D02*
X340042D01*
X314865Y237114D02*
X340042D01*
X314825Y236214D02*
X340042D01*
X314516Y235314D02*
X340042D01*
X317011Y267714D02*
X340032D01*
X324057Y247914D02*
X340001D01*
X307193Y282114D02*
X339899D01*
X307193Y283014D02*
X339050D01*
X324057Y253314D02*
X338465D01*
X324057Y248814D02*
X338362D01*
X307193Y283914D02*
X338202D01*
X324057Y252414D02*
X337684D01*
X324008Y249714D02*
X337641D01*
X324021Y251514D02*
X337367D01*
X323516Y250614D02*
X337354D01*
X307193Y284814D02*
X337354D01*
X307193Y285714D02*
X336506D01*
X307193Y286614D02*
X335658D01*
X307193Y274014D02*
X335648D01*
X307193Y268614D02*
X335487D01*
X307193Y287514D02*
X334810D01*
X307193Y273114D02*
X334714D01*
X307193Y269514D02*
X334642D01*
X307193Y272214D02*
X334279D01*
X307193Y270414D02*
X334248D01*
X307193Y271314D02*
X334137D01*
X307193Y288414D02*
X333962D01*
X307193Y289314D02*
X333114D01*
X307193Y290214D02*
X332266D01*
X307193Y291114D02*
X331418D01*
X307193Y292014D02*
X330570D01*
X307193Y292914D02*
X329722D01*
X307193Y293814D02*
X328874D01*
X307193Y294714D02*
X328025D01*
X307193Y295614D02*
X327177D01*
X307193Y296514D02*
X326329D01*
X307193Y297414D02*
X325481D01*
X307193Y298314D02*
X324633D01*
X307193Y299214D02*
X323785D01*
X321931Y308214D02*
X323417D01*
X321214Y307314D02*
X323417D01*
X321374Y306414D02*
X323417D01*
X321280Y305514D02*
X323417D01*
X320907Y304614D02*
X323417D01*
X320106Y303714D02*
X323417D01*
X307193Y302814D02*
X323417D01*
X307193Y301914D02*
X323417D01*
X307193Y301014D02*
X323417D01*
X307193Y300114D02*
X323417D01*
X322534Y309114D02*
X323301D01*
X314486Y250614D02*
X319398D01*
X314591Y256014D02*
X318942D01*
X314486Y251514D02*
X318892D01*
X314486Y255114D02*
X318857D01*
X314486Y254214D02*
X318857D01*
X314486Y253314D02*
X318857D01*
X314486Y252414D02*
X318857D01*
X307193Y303714D02*
X316115D01*
X307193Y304614D02*
X315313D01*
X307193Y267714D02*
X315272D01*
X307193Y307314D02*
X315007D01*
X307193Y305514D02*
X314941D01*
X307193Y306414D02*
X314847D01*
X307193Y328014D02*
X314586D01*
X307193Y329814D02*
X314523D01*
X307193Y328914D02*
X314459D01*
X307414Y330714D02*
X314415D01*
X307193Y312714D02*
X313851D01*
X307193Y322614D02*
X313815D01*
X307193Y318114D02*
X313780D01*
X307213Y266814D02*
X313773D01*
X307193Y308214D02*
X313699D01*
X307193Y317214D02*
X313422D01*
X307193Y323514D02*
X313376D01*
X307193Y327114D02*
X313349D01*
X307193Y313614D02*
X313313D01*
X307193Y311814D02*
X313213D01*
X307193Y321714D02*
X313190D01*
X307193Y319014D02*
X313180D01*
X307193Y309114D02*
X313172D01*
X307193Y326214D02*
X313172D01*
X307193Y325314D02*
X313172D01*
X307193Y324414D02*
X313172D01*
X307193Y320814D02*
X313172D01*
X307193Y319914D02*
X313172D01*
X307193Y316314D02*
X313172D01*
X307193Y315414D02*
X313172D01*
X307193Y314514D02*
X313172D01*
X307193Y310914D02*
X313172D01*
X307193Y310014D02*
X313172D01*
X322248Y312274D02*
X323407D01*
X313494Y308376D02*
X314618Y309499D01*
X313494Y312294D02*
X314618Y311170D01*
X322136Y308376D02*
X321012Y309499D01*
X322136Y312294D02*
X321012Y311170D01*
X319179Y256368D02*
X320396Y255151D01*
X323735Y256368D02*
X322517Y255151D01*
X323735Y251013D02*
X322517Y252230D01*
X319179Y251013D02*
X320396Y252230D01*
X347431Y248612D02*
X345846Y247027D01*
X347431Y233671D02*
X345846Y235256D01*
X340364Y233671D02*
X341949Y235256D01*
X100000Y100000D02*
Y493701D01*
X493701*
Y100000*
X100000*
G54D28*
X229921Y231614D03*
Y221614D03*
X219921Y231614D03*
Y221614D03*
X209921Y231614D03*
Y221614D03*
X199921Y231614D03*
Y221614D03*
X189921Y231614D03*
Y221614D03*
X179921Y231614D03*
Y221614D03*
X169921Y231614D03*
Y221614D03*
X159921Y231614D03*
Y221614D03*
X149921Y231614D03*
Y221614D03*
X139921Y231614D03*
Y221614D03*
X129921Y231614D03*
Y221614D03*
X119921Y231614D03*
Y221614D03*
X109921Y231614D03*
Y221614D03*
X145000Y474606D03*
Y484606D03*
X155000Y474606D03*
Y484606D03*
X165000Y474606D03*
Y484606D03*
X175000Y474606D03*
Y484606D03*
X185000Y474606D03*
Y484606D03*
X195000Y474606D03*
Y484606D03*
X205000Y474606D03*
Y484606D03*
X215000Y474606D03*
Y484606D03*
X225000Y474606D03*
Y484606D03*
X235000Y474606D03*
Y484606D03*
X401181Y287008D03*
X444341Y328687D03*
X379528Y347047D03*
Y287047D03*
G54D33*
X198425Y288189D02*
Y293538D01*
X191732Y277165D02*
X197581Y277309D01*
Y280315*
X211081D02*
Y277304D01*
X218110Y277165*
X211081Y280315D02*
Y283326D01*
X218110Y283465*
X242717Y263976D02*
Y260938D01*
X248110*
Y259488*
X242717Y263976D02*
Y266908D01*
X248071*
Y268307*
X242717Y238780D02*
Y234843D01*
X248071*
X242717Y238780D02*
Y242598D01*
X248071*
X337402Y271260D02*
X343898Y271036D01*
Y266339*
X205512Y314567D02*
X211417D01*
X205118Y308268D02*
X211417D01*
X185039D02*
X191732D01*
X185039Y314567D02*
X191675Y314510D01*
X190157Y301181D02*
Y301538D01*
X194675*
X202175D02*
X206693D01*
Y301575*
G54D41*
X317815Y320335D02*
X328346D01*
Y320620*
X317815Y315335D02*
X323645D01*
X324560Y314420*
X328346*
G54D47*
X122835Y272441D02*
X165551Y315157D01*
Y315945*
X208268Y358661*
X132323Y271220D02*
Y275197D01*
X132333*
X138533D02*
X138583D01*
Y270866*
X146457D02*
Y275640D01*
X146417Y285945D02*
Y281840D01*
X146457*
X244488Y287008D02*
Y291132D01*
X244648*
X262992Y250787D02*
Y251050D01*
X267372*
Y251181*
X277559Y244094D02*
Y243996D01*
X283071*
Y238346D02*
Y241437D01*
X233465Y283465D02*
X237845D01*
X231890Y294882D02*
X236648D01*
X277559Y254331D02*
Y254232D01*
X283071*
X277559Y259449D02*
Y259350D01*
X283071*
X277559Y264567D02*
Y264469D01*
X283071*
X262992Y243701D02*
Y243963D01*
X267372*
Y244094*
X223622Y299213D02*
X227559D01*
Y299262*
X283071Y249114D02*
X285620D01*
Y251673*
X283071*
X285620*
Y254232*
X283071*
X285620*
Y256791*
X283071*
X285620*
Y259350*
X283071*
X285620*
Y261909*
X283071*
X285620*
Y264469*
X283071*
X273572Y244094D02*
X277559D01*
X273572Y251181D02*
X273972D01*
X277998Y247155*
X278701*
X282176Y246555*
X283071*
X244648Y298632D02*
X244832D01*
Y305709*
X244045Y283465D02*
X244488D01*
Y287008*
X316772Y247480D02*
X321457D01*
Y247491*
X310236Y264469D02*
X316142D01*
Y264567*
X310236Y261909D02*
Y264469D01*
Y259350D02*
X316142D01*
Y259291*
X310236Y259350D02*
Y261909D01*
X312786Y256791D02*
X310236D01*
Y259350*
X312786Y254232D02*
X310236D01*
X312786*
Y256791*
Y251673D02*
X310236D01*
X312786*
Y254232*
X310236Y249114D02*
X312786D01*
Y251673*
X310236Y246555D02*
X311004D01*
X316772Y247480*
X310236Y241437D02*
X311614D01*
Y236811*
X205118Y308268D02*
Y311417D01*
X205175*
X218110Y316693D02*
Y316260D01*
X223072*
X223505Y316693*
X227559*
X204764Y372677D02*
X211073D01*
Y372638*
X205175Y311417D02*
X205512D01*
Y314567*
X205175Y311417D02*
Y314567D01*
X211417*
X191675Y314510D02*
Y311417D01*
X191732*
Y308268*
X186761Y368701D02*
X191063D01*
Y368740*
X217273Y372638D02*
Y376414D01*
X217717Y376857*
Y383071*
X227559Y310630D02*
Y314134D01*
X221772Y319252D02*
X227559D01*
X234252Y305906D02*
X238632D01*
Y305709*
X269685Y306693D02*
Y302756D01*
X269735*
X227559Y321811D02*
Y325079D01*
X245079Y321811D02*
X245276D01*
Y325197*
X245079Y319252D02*
X249134D01*
X250817Y320935*
X253543*
X245079Y316693D02*
X249133D01*
X250843Y314983*
X253543*
Y314735*
X244832Y305709D02*
Y310105D01*
X245079Y310352*
Y314134*
X253543Y314735D02*
Y314291D01*
X261467*
X253543Y320935D02*
Y321181D01*
X261467*
X267667Y314291D02*
Y314378D01*
X270767*
X271143Y314754*
X275886*
Y315335*
X267667Y321181D02*
X270877D01*
X271143Y320916*
X275886*
Y320335*
Y310335D02*
X275984D01*
Y306693*
X275886Y325335D02*
X275984D01*
Y329134*
X227559Y305462D02*
Y310630D01*
X275935Y302756D02*
X275984D01*
Y306693*
X215000Y456900D02*
X214961D01*
Y452756*
X215315Y452598*
X211417Y423701D02*
X211654D01*
Y423740*
X212008*
X154724Y452756D02*
Y456900D01*
X155000*
X164961Y452362D02*
Y456900D01*
X165000*
X174803Y452756D02*
Y456900D01*
X175000*
X204724Y452756D02*
Y456900D01*
X205000*
X166535Y409055D02*
X170916D01*
X195000Y456900D02*
X195276D01*
Y452756*
X185000Y456900D02*
X185144D01*
Y452756*
X185433*
X217618Y401181D02*
X217638D01*
Y398307*
X180315Y383071D02*
Y374791D01*
X180561Y374544*
Y368701*
X221654Y435827D02*
X240705D01*
X264173Y459295*
Y459695*
X224803Y452756D02*
Y456900D01*
X225000*
X248819Y459843D02*
X252756D01*
Y459695*
X235000Y456900D02*
X235039D01*
Y452756*
X165000Y463100D02*
Y474606D01*
X175000Y463100D02*
Y474606D01*
X195000Y463100D02*
Y474606D01*
X205000Y463100D02*
Y474606D01*
X215000Y463100D02*
Y474606D01*
X185000Y463100D02*
Y474606D01*
X155000Y463100D02*
Y474606D01*
X252756Y465895D02*
Y473672D01*
Y479872D02*
Y484252D01*
X264173Y465895D02*
Y473672D01*
Y479872D02*
Y484252D01*
X235000Y463100D02*
Y474606D01*
X225000Y463100D02*
Y474606D01*
G54D50*
X207717Y118150D03*
X196969Y118228D03*
X169882Y118701D03*
X127008Y187323D03*
X115787Y187362D03*
X151181Y191535D03*
X144291Y174803D03*
X198425Y288189D03*
X191732Y277165D03*
X218110D03*
Y283465D03*
X248071Y242598D03*
Y234843D03*
X248110Y259488D03*
X248071Y268307D03*
X316142Y259291D03*
X311614Y236811D03*
X316142Y264567D03*
X337402Y271260D03*
X162323Y341024D03*
X185039Y308268D03*
Y314567D03*
X190157Y301181D03*
X151457Y336929D03*
X211417Y314567D03*
Y308268D03*
X206693Y301575D03*
X318110Y306299D03*
X317717Y329134D03*
X343110Y326378D03*
X354921Y329331D03*
G54D73*
X343257Y313583D03*
X337057D03*
X211073Y372638D03*
X217273D03*
X186761Y368701D03*
X180561D03*
X237845Y283465D03*
X244045D03*
X269735Y302756D03*
X275935D03*
X273572Y251181D03*
X267372D03*
X273572Y244094D03*
X267372D03*
X170916Y409055D03*
X177116D03*
X132333Y275197D03*
X138533D03*
X343257Y321457D03*
X337057D03*
X267667Y321181D03*
X261467D03*
X267667Y314291D03*
X261467D03*
X238632Y305709D03*
X244832D03*
G54D81*
X202175Y301538D03*
X194675D03*
X244648Y291132D03*
Y298632D03*
G54D82*
X198425Y293538D03*
G54D86*
X191675Y311417D03*
X205175D03*
X197581Y280315D03*
X211081D03*
X169742Y143307D03*
X156242D03*
X151321Y174803D03*
X164821D03*
G54D103*
X342227Y253054D02*
X341450Y252276D01*
X338166Y253054D02*
X338944Y252276D01*
X338166Y248993D02*
X338944Y249771D01*
X315801Y303990D02*
X316579Y304768D01*
X320419Y303990D02*
X319641Y304768D01*
G54D105*
X434646Y454331D03*
Y474331D03*
X362795Y387402D03*
X392323Y397244D03*
X355906Y454331D03*
Y474331D03*
X434646Y419882D03*
Y400197D03*
X391339Y112795D03*
Y155118D03*
X239764Y144291D03*
Y112795D03*
X197441Y174803D03*
Y194488D03*
X196969Y118228D02*
X202362D01*
Y118110*
Y118150*
X207717*
X391339Y112795D02*
X425509D01*
X444210Y131496*
Y321152*
X444341Y328687*
X113031Y161969D02*
X121654D01*
Y162008*
X115787Y187362D02*
X121654D01*
Y187205*
Y187323*
X127008*
X121654Y162008D02*
Y161969D01*
X130354*
X121654Y162008D02*
Y149213D01*
X127559Y143307*
X156242*
X144291Y174803D02*
X151321D01*
X164821D02*
X165021D01*
Y186614*
X164821Y174803D02*
X197441D01*
X169742Y143307D02*
X202362D01*
X239764*
Y144291*
X444341Y328687D02*
X444473Y336223D01*
X434646Y400197D02*
X444473Y390369D01*
Y336223*
X434646Y419882D02*
Y454331D01*
X392323Y397244D02*
X412008D01*
X414961Y400197*
X434646*
Y454331D02*
Y474331D01*
G54D135*
X321457Y247491D03*
Y253691D03*
X227559Y299262D03*
Y305462D03*
X155000Y463100D03*
Y456900D03*
X225000D03*
Y463100D03*
X185000D03*
Y456900D03*
X235000D03*
Y463100D03*
X215000D03*
Y456900D03*
X205000Y463100D03*
Y456900D03*
X195000D03*
Y463100D03*
X175000D03*
Y456900D03*
X165000Y463100D03*
Y456900D03*
X146457Y275640D03*
Y281840D03*
X328346Y320620D03*
Y314420D03*
X264173Y473672D03*
Y479872D03*
Y465895D03*
Y459695D03*
X253543Y320935D03*
Y314735D03*
X252756Y473672D03*
Y479872D03*
Y465895D03*
Y459695D03*
G54D137*
X156042Y123622D03*
X169942D03*
X151121Y186614D03*
X165021D03*
G54D139*
X217618Y401181D03*
Y403150D03*
Y405118D03*
Y407087D03*
Y409055D03*
Y411024D03*
Y412992D03*
Y414961D03*
Y416929D03*
Y418898D03*
Y420866D03*
Y422835D03*
X184744D03*
Y420866D03*
Y418898D03*
Y416929D03*
Y414961D03*
Y412992D03*
Y411024D03*
Y409055D03*
Y407087D03*
Y405118D03*
Y403150D03*
Y401181D03*
G54D140*
X192323Y395571D03*
X194291D03*
X196260D03*
X198228D03*
X200197D03*
X202165D03*
X204134D03*
X206102D03*
X208071D03*
X210039D03*
X212008D03*
Y428445D03*
X210039D03*
X208071D03*
X206102D03*
X204134D03*
X202165D03*
X200197D03*
X198228D03*
X196260D03*
X194291D03*
X192323D03*
X190354D03*
G54D141*
X236648Y294882D03*
G54D142*
X354921Y309704D03*
Y323604D03*
G54D143*
X245079Y314134D03*
Y316693D03*
Y319252D03*
Y321811D03*
X227559D03*
Y319252D03*
Y316693D03*
Y314134D03*
G54D146*
X283071Y264469D03*
Y261909D03*
Y259350D03*
Y256791D03*
Y254232D03*
Y251673D03*
Y249114D03*
Y246555D03*
Y243996D03*
Y241437D03*
X310236D03*
Y243996D03*
Y246555D03*
Y249114D03*
Y251673D03*
Y254232D03*
Y256791D03*
Y259350D03*
Y261909D03*
Y264469D03*
G54D147*
X317815Y310335D03*
Y315335D03*
Y320335D03*
Y325335D03*
X275886D03*
Y320335D03*
Y315335D03*
Y310335D03*
G54D148*
X121654Y162008D03*
Y187205D03*
X343898Y241142D03*
Y266339D03*
X242717Y238780D03*
Y263976D03*
X202362Y143307D03*
Y118110D03*
G54D150*
X169882Y118701D02*
X169942D01*
Y123622*
X156042D02*
X156203D01*
Y143307*
X156242*
X151121Y186614D02*
Y191535D01*
X151181*
G54D151*
X130354Y161969D03*
X113031D03*
X138583Y270866D03*
X114961Y272441D03*
X106890Y255512D03*
X122835Y272441D03*
X132323Y271220D03*
X146457Y270866D03*
X146417Y285945D03*
X162205Y257638D03*
X244488Y287008D03*
X262992Y250787D03*
X277559Y244094D03*
X283071Y238346D03*
X233465Y283465D03*
X231890Y294882D03*
X277559Y254331D03*
Y259449D03*
Y264567D03*
X262992Y243701D03*
X223622Y299213D03*
X340197Y251024D03*
X316772Y247480D03*
X218110Y316693D03*
X208268Y358661D03*
X204764Y372677D03*
X191063Y368740D03*
X275984Y306693D03*
X227559Y310630D03*
Y325079D03*
X221772Y319252D03*
X234252Y305906D03*
X245276Y325197D03*
X275984Y329134D03*
X269685Y306693D03*
X175197Y428346D03*
X176378Y438976D03*
X203976Y390197D03*
X217638Y426063D03*
X184803Y395591D03*
X213031Y408976D03*
X211417Y423701D03*
X154724Y452756D03*
X164961Y452362D03*
X174803Y452756D03*
X185433D03*
X204724D03*
X218937Y456772D03*
X192323Y391063D03*
X190315Y433661D03*
X215079Y394764D03*
X212598Y390551D03*
X208150Y390039D03*
X208268Y442520D03*
X200000Y419843D03*
X217638Y398307D03*
X180669Y399173D03*
X204213Y432795D03*
X191063Y413425D03*
X204606Y402165D03*
X195276Y452756D03*
X215315Y452598D03*
X166535Y409055D03*
X221654Y435827D03*
X222441Y403150D03*
X222402Y408858D03*
X222087Y415000D03*
Y420906D03*
X224803Y452756D03*
X235039D03*
X248819Y459843D03*
X264173Y484252D03*
X252756D03*
G54D172*
X217717Y383071D03*
X180315D03*
G54D173*
X190354Y395571D03*
G54D174*
X114961Y272441D02*
Y340364D01*
X181683Y407087*
X184744*
X106890Y255512D02*
X118898Y267520D01*
Y341580*
X182436Y405118*
X184744*
X212008Y423740D02*
Y428445D01*
X201467Y403327D02*
Y406762D01*
X214528Y419823*
Y425308*
X201467Y403327D02*
Y400108D01*
X202165Y399409*
Y395571*
X212283Y453773D02*
Y441779D01*
X214528Y439535*
Y425308*
X212283Y453773D02*
Y459983D01*
X215000Y462700*
Y463100*
X217618Y407087D02*
X216142D01*
Y405118*
X217618*
X175197Y428346D02*
X177728Y425816D01*
Y423148*
X181978Y418898*
X184744*
X176378Y438976D02*
X184744Y430610D01*
Y422835*
X203976Y390197D02*
X206102Y392323D01*
Y395571*
X217638Y426063D02*
X219094Y422835D01*
X184803Y395591D02*
X190354D01*
Y395571*
X213031Y408976D02*
X216142Y409055D01*
X217618*
X192323Y391063D02*
Y395571D01*
X190315Y433661D02*
X190354Y429921D01*
Y428445*
X208150Y390039D02*
X208189Y390354D01*
X208268Y390551*
Y389843*
X180669Y399173D02*
Y401111D01*
X182707Y403150*
X184744*
Y401181D02*
X184803D01*
Y395591*
X184744Y412992D02*
X186220D01*
X191063Y413425*
X184744Y414961D02*
X186220D01*
X191063Y413425*
X204134Y428445D02*
Y429921D01*
X204213Y432795*
X208071Y428445D02*
Y435482D01*
X208268Y435679*
Y442520*
X217618Y422835D02*
X219094D01*
X217618Y420866D02*
X219094D01*
X222087Y420906*
X217618Y414961D02*
X219094D01*
X222087Y415000*
X217618Y411024D02*
X220679D01*
X222402Y409301*
Y408858*
X217618Y407087D02*
X220679D01*
X222402Y408809*
Y408858*
X217618Y403150D02*
X222441D01*
X212008Y395571D02*
Y395197D01*
X212087Y395276*
X214961*
X215079Y394764*
X210039Y395571D02*
Y392510D01*
X212298Y390251*
X212598Y390551*
X208071Y395571D02*
Y390039D01*
X208268Y389843*
X204134Y395571D02*
Y402165D01*
X204606*
X200197Y395571D02*
Y388672D01*
X205798Y383071*
X217717*
X180315D02*
X187205D01*
X192126Y387992*
X193302*
X197790Y392480*
X198228Y394094*
Y395571*
X177116Y409055D02*
X184744D01*
X165000Y463100D02*
Y462700D01*
X170079Y457621*
Y440945*
X179528Y431496*
Y423893*
X182555Y420866*
X184744*
X175000Y463100D02*
Y462700D01*
X180039Y457661*
Y451043*
X194291Y436791*
Y428445*
X155000Y463100D02*
Y462700D01*
X159843Y457857*
Y438770*
X181683Y416929*
X184744*
G54D175*
X310236Y243996D02*
X315059D01*
X315079Y244016*
G54D176*
X379528Y287047D02*
X390315D01*
X390362Y287095*
X396204*
X401181Y287008*
X317717Y329134D02*
Y325335D01*
X317815*
X343110Y326378D02*
X343257D01*
Y321457*
X328346Y314420D02*
X332083D01*
X332920Y313583*
X337057*
X328346Y320620D02*
X332076D01*
X332913Y321457*
X337057*
X354921Y323604D02*
Y329331D01*
Y309704D02*
Y311614D01*
X379528Y287008*
Y287047*
X343257Y313583D02*
X349307D01*
X349976Y314252*
X352148*
X354921Y311479*
Y309704*
G74*
X0Y0D02*
M02*
